<?xml version="1.0" encoding="utf-8" standalone="no"?>
<!DOCTYPE svg PUBLIC "-//W3C//DTD SVG 1.1//EN"
  "http://www.w3.org/Graphics/SVG/1.1/DTD/svg11.dtd">
<svg xmlns:xlink="http://www.w3.org/1999/xlink" width="599.904pt" height="353.858109pt" viewBox="0 0 599.904 353.858109" xmlns="http://www.w3.org/2000/svg" version="1.1">
 <metadata>
  <rdf:RDF xmlns:dc="http://purl.org/dc/elements/1.1/" xmlns:cc="http://creativecommons.org/ns#" xmlns:rdf="http://www.w3.org/1999/02/22-rdf-syntax-ns#">
   <cc:Work>
    <dc:type rdf:resource="http://purl.org/dc/dcmitype/StillImage"/>
    <dc:date>2026-04-21T11:08:25.356204</dc:date>
    <dc:format>image/svg+xml</dc:format>
    <dc:creator>
     <cc:Agent>
      <dc:title>Matplotlib v3.10.8, https://matplotlib.org/</dc:title>
     </cc:Agent>
    </dc:creator>
   </cc:Work>
  </rdf:RDF>
 </metadata>
 <defs>
  <style type="text/css">*{stroke-linejoin: round; stroke-linecap: butt}</style>
 </defs>
 <g id="figure_1">
  <g id="patch_1">
   <path d="M -0 353.858109 
L 599.904 353.858109 
L 599.904 0 
L -0 0 
z
" style="fill: #ffffff"/>
  </g>
  <g id="axes_1">
   <g id="patch_2">
    <path d="M 90.864 286.565062 
L 581.904 286.565062 
L 581.904 42.629062 
L 90.864 42.629062 
z
" style="fill: #ffffff"/>
   </g>
   <g id="matplotlib.axis_1">
    <g id="xtick_1">
     <g id="line2d_1"/>
     <g id="text_1">
      <!-- BitGo -->
      <g style="fill: #3a414a" transform="translate(131.999747 297.398031) scale(0.09 -0.09)">
       <defs>
        <path id="MalgunGothic-42" d="M 609 0 
L 609 4600 
L 1894 4600 
Q 2466 4600 2817 4311 
Q 3169 4022 3169 3547 
Q 3169 3166 2961 2870 
Q 2753 2575 2378 2453 
L 2378 2441 
Q 2844 2391 3122 2089 
Q 3400 1788 3400 1319 
Q 3400 731 2978 365 
Q 2556 0 1919 0 
L 609 0 
z
M 1113 4128 
L 1113 2619 
L 1672 2619 
Q 2134 2619 2387 2839 
Q 2641 3059 2641 3447 
Q 2641 4128 1750 4128 
L 1113 4128 
z
M 1113 2153 
L 1113 469 
L 1859 469 
Q 2334 469 2603 698 
Q 2872 928 2872 1325 
Q 2872 2153 1738 2153 
L 1113 2153 
z
" transform="scale(0.015625)"/>
        <path id="MalgunGothic-69" d="M 472 4466 
Q 472 4606 565 4701 
Q 659 4797 794 4797 
Q 934 4797 1029 4700 
Q 1125 4603 1125 4466 
Q 1125 4325 1029 4231 
Q 934 4138 794 4138 
Q 659 4138 565 4230 
Q 472 4322 472 4466 
z
M 541 0 
L 541 3284 
L 1034 3284 
L 1034 0 
L 541 0 
z
" transform="scale(0.015625)"/>
        <path id="MalgunGothic-74" d="M 2031 31 
Q 1844 -72 1553 -72 
Q 706 -72 706 881 
L 706 2856 
L 138 2856 
L 138 3284 
L 706 3284 
L 706 4091 
L 1200 4250 
L 1200 3284 
L 2031 3284 
L 2031 2856 
L 1200 2856 
L 1200 972 
Q 1200 625 1315 487 
Q 1431 350 1691 350 
Q 1888 350 2031 459 
L 2031 31 
z
" transform="scale(0.015625)"/>
        <path id="MalgunGothic-47" d="M 4022 316 
Q 3334 -78 2491 -78 
Q 1525 -78 915 558 
Q 306 1194 306 2238 
Q 306 3303 979 3989 
Q 1653 4675 2681 4675 
Q 3453 4675 3938 4428 
L 3938 3856 
Q 3381 4209 2619 4209 
Q 1838 4209 1338 3671 
Q 838 3134 838 2278 
Q 838 1391 1300 887 
Q 1763 384 2563 384 
Q 3128 384 3516 606 
L 3516 1922 
L 2503 1922 
L 2503 2384 
L 4022 2384 
L 4022 316 
z
" transform="scale(0.015625)"/>
        <path id="MalgunGothic-6f" d="M 316 1600 
Q 316 2419 761 2889 
Q 1206 3359 1978 3359 
Q 2697 3359 3111 2907 
Q 3525 2456 3525 1650 
Q 3525 869 3078 395 
Q 2631 -78 1900 -78 
Q 1184 -78 750 384 
Q 316 847 316 1600 
z
M 819 1622 
Q 819 1041 1123 692 
Q 1428 344 1934 344 
Q 2459 344 2739 680 
Q 3019 1016 3019 1634 
Q 3019 2256 2737 2598 
Q 2456 2941 1934 2941 
Q 1425 2941 1122 2587 
Q 819 2234 819 1622 
z
" transform="scale(0.015625)"/>
       </defs>
       <use xlink:href="#MalgunGothic-42"/>
       <use xlink:href="#MalgunGothic-69" transform="translate(58.349609 0)"/>
       <use xlink:href="#MalgunGothic-74" transform="translate(82.958984 0)"/>
       <use xlink:href="#MalgunGothic-47" transform="translate(117.431641 0)"/>
       <use xlink:href="#MalgunGothic-6f" transform="translate(187.597656 0)"/>
      </g>
      <!-- (2021) -->
      <g style="fill: #3a414a" transform="translate(130.480997 307.72525) scale(0.09 -0.09)">
       <defs>
        <path id="MalgunGothic-28" d="M 1438 -1044 
Q 447 88 447 1753 
Q 447 3431 1438 4600 
L 1888 4600 
Q 878 3372 878 1759 
Q 878 153 1881 -1044 
L 1438 -1044 
z
" transform="scale(0.015625)"/>
        <path id="MalgunGothic-32" d="M 2519 3372 
Q 2519 3784 2275 4018 
Q 2031 4253 1628 4253 
Q 1341 4253 1053 4104 
Q 766 3956 534 3697 
L 534 4234 
Q 981 4675 1691 4675 
Q 2281 4675 2642 4334 
Q 3003 3994 3003 3416 
Q 3003 2919 2772 2545 
Q 2541 2172 1984 1775 
Q 1459 1406 1254 1215 
Q 1050 1025 967 854 
Q 884 684 884 450 
L 3116 450 
L 3116 0 
L 356 0 
L 356 225 
Q 356 603 461 870 
Q 566 1138 811 1392 
Q 1056 1647 1597 2022 
Q 2091 2363 2305 2670 
Q 2519 2978 2519 3372 
z
" transform="scale(0.015625)"/>
        <path id="MalgunGothic-30" d="M 278 2206 
Q 278 3425 675 4050 
Q 1072 4675 1819 4675 
Q 3253 4675 3253 2319 
Q 3253 1156 2854 539 
Q 2456 -78 1716 -78 
Q 1016 -78 647 520 
Q 278 1119 278 2206 
z
M 784 2231 
Q 784 344 1769 344 
Q 2747 344 2747 2259 
Q 2747 4250 1794 4250 
Q 784 4250 784 2231 
z
" transform="scale(0.015625)"/>
        <path id="MalgunGothic-31" d="M 2231 0 
L 1734 0 
L 1734 3972 
Q 1591 3828 1266 3661 
Q 941 3494 672 3428 
L 672 3959 
Q 1016 4056 1409 4275 
Q 1803 4494 2031 4700 
L 2231 4700 
L 2231 0 
z
" transform="scale(0.015625)"/>
        <path id="MalgunGothic-29" d="M 81 -1044 
Q 1081 150 1081 1759 
Q 1081 3378 72 4600 
L 525 4600 
Q 1522 3431 1522 1753 
Q 1522 88 525 -1044 
L 81 -1044 
z
" transform="scale(0.015625)"/>
       </defs>
       <use xlink:href="#MalgunGothic-28"/>
       <use xlink:href="#MalgunGothic-32" transform="translate(30.46875 0)"/>
       <use xlink:href="#MalgunGothic-30" transform="translate(85.546875 0)"/>
       <use xlink:href="#MalgunGothic-32" transform="translate(140.625 0)"/>
       <use xlink:href="#MalgunGothic-31" transform="translate(195.703125 0)"/>
       <use xlink:href="#MalgunGothic-29" transform="translate(250.78125 0)"/>
      </g>
     </g>
    </g>
    <g id="xtick_2">
     <g id="line2d_2"/>
     <g id="text_2">
      <!-- Bittrex -->
      <g style="fill: #3a414a" transform="translate(226.896248 297.398031) scale(0.09 -0.09)">
       <defs>
        <path id="MalgunGothic-72" d="M 2225 2775 
Q 2084 2881 1828 2881 
Q 1491 2881 1262 2553 
Q 1034 2225 1034 1681 
L 1034 0 
L 538 0 
L 538 3284 
L 1034 3284 
L 1034 2603 
L 1047 2603 
Q 1159 2950 1389 3145 
Q 1619 3341 1903 3341 
Q 2109 3341 2225 3297 
L 2225 2775 
z
" transform="scale(0.015625)"/>
        <path id="MalgunGothic-65" d="M 3156 1519 
L 828 1519 
Q 844 950 1133 648 
Q 1422 347 1909 347 
Q 2472 347 2934 719 
L 2934 244 
Q 2494 -78 1794 -78 
Q 1100 -78 708 376 
Q 316 831 316 1634 
Q 316 2381 747 2870 
Q 1178 3359 1816 3359 
Q 2453 3359 2804 2942 
Q 3156 2525 3156 1788 
L 3156 1519 
z
M 2644 1956 
Q 2644 2416 2423 2675 
Q 2203 2934 1809 2934 
Q 1438 2934 1169 2667 
Q 900 2400 834 1956 
L 2644 1956 
z
" transform="scale(0.015625)"/>
        <path id="MalgunGothic-78" d="M 2884 3284 
L 1784 1616 
L 2869 0 
L 2288 0 
L 1634 1078 
Q 1563 1197 1491 1325 
L 1475 1325 
Q 1456 1284 1328 1078 
L 656 0 
L 88 0 
L 1209 1606 
L 134 3284 
L 713 3284 
L 1494 1897 
L 1506 1897 
Q 1525 1925 1641 2119 
L 2344 3284 
L 2884 3284 
z
" transform="scale(0.015625)"/>
       </defs>
       <use xlink:href="#MalgunGothic-42"/>
       <use xlink:href="#MalgunGothic-69" transform="translate(58.349609 0)"/>
       <use xlink:href="#MalgunGothic-74" transform="translate(82.958984 0)"/>
       <use xlink:href="#MalgunGothic-74" transform="translate(117.431641 0)"/>
       <use xlink:href="#MalgunGothic-72" transform="translate(151.904297 0)"/>
       <use xlink:href="#MalgunGothic-65" transform="translate(185.880859 0)"/>
       <use xlink:href="#MalgunGothic-78" transform="translate(239.396484 0)"/>
      </g>
      <!-- (2022) -->
      <g style="fill: #3a414a" transform="translate(227.104373 307.72525) scale(0.09 -0.09)">
       <use xlink:href="#MalgunGothic-28"/>
       <use xlink:href="#MalgunGothic-32" transform="translate(30.46875 0)"/>
       <use xlink:href="#MalgunGothic-30" transform="translate(85.546875 0)"/>
       <use xlink:href="#MalgunGothic-32" transform="translate(140.625 0)"/>
       <use xlink:href="#MalgunGothic-32" transform="translate(195.703125 0)"/>
       <use xlink:href="#MalgunGothic-29" transform="translate(250.78125 0)"/>
      </g>
     </g>
    </g>
    <g id="xtick_3">
     <g id="line2d_3"/>
     <g id="text_3">
      <!-- Paxful -->
      <g style="fill: #3a414a" transform="translate(324.408375 297.398031) scale(0.09 -0.09)">
       <defs>
        <path id="MalgunGothic-50" d="M 1113 1747 
L 1113 0 
L 609 0 
L 609 4600 
L 1850 4600 
Q 2575 4600 2979 4240 
Q 3384 3881 3384 3231 
Q 3384 2559 2909 2140 
Q 2434 1722 1728 1747 
L 1113 1747 
z
M 1113 4131 
L 1113 2219 
L 1691 2219 
Q 2256 2219 2554 2475 
Q 2853 2731 2853 3206 
Q 2853 4131 1759 4131 
L 1113 4131 
z
" transform="scale(0.015625)"/>
        <path id="MalgunGothic-61" d="M 616 3050 
Q 1097 3359 1722 3359 
Q 2866 3359 2866 2147 
L 2866 0 
L 2369 0 
L 2369 516 
L 2350 516 
Q 2009 -78 1341 -78 
Q 859 -78 576 180 
Q 294 438 294 869 
Q 294 1784 1375 1934 
L 2366 2078 
Q 2366 2934 1684 2934 
Q 1084 2934 616 2525 
L 616 3050 
z
M 1563 1559 
Q 1178 1509 993 1371 
Q 809 1234 809 903 
Q 809 653 986 500 
Q 1163 347 1450 347 
Q 1847 347 2106 628 
Q 2366 909 2366 1334 
L 2366 1666 
L 1563 1559 
z
" transform="scale(0.015625)"/>
        <path id="MalgunGothic-66" d="M 2128 4422 
Q 1975 4506 1778 4506 
Q 1222 4506 1222 3800 
L 1222 3284 
L 1991 3284 
L 1991 2856 
L 1222 2856 
L 1222 0 
L 734 0 
L 734 2856 
L 172 2856 
L 172 3284 
L 734 3284 
L 734 3825 
Q 734 4341 1026 4636 
Q 1319 4931 1753 4931 
Q 1994 4931 2128 4875 
L 2128 4422 
z
" transform="scale(0.015625)"/>
        <path id="MalgunGothic-75" d="M 3166 0 
L 2669 0 
L 2669 519 
L 2656 519 
Q 2331 -78 1644 -78 
Q 469 -78 469 1322 
L 469 3284 
L 959 3284 
L 959 1403 
Q 959 344 1766 344 
Q 2159 344 2414 636 
Q 2669 928 2669 1394 
L 2669 3284 
L 3166 3284 
L 3166 0 
z
" transform="scale(0.015625)"/>
        <path id="MalgunGothic-6c" d="M 541 0 
L 541 4859 
L 1034 4859 
L 1034 0 
L 541 0 
z
" transform="scale(0.015625)"/>
       </defs>
       <use xlink:href="#MalgunGothic-50"/>
       <use xlink:href="#MalgunGothic-61" transform="translate(53.580078 0)"/>
       <use xlink:href="#MalgunGothic-78" transform="translate(105.582031 0)"/>
       <use xlink:href="#MalgunGothic-66" transform="translate(152.066406 0)"/>
       <use xlink:href="#MalgunGothic-75" transform="translate(183.707031 0)"/>
       <use xlink:href="#MalgunGothic-6c" transform="translate(241.519531 0)"/>
      </g>
      <!-- (2025) -->
      <g style="fill: #3a414a" transform="translate(323.72775 307.72525) scale(0.09 -0.09)">
       <defs>
        <path id="MalgunGothic-35" d="M 3072 1403 
Q 3072 722 2636 322 
Q 2200 -78 1469 -78 
Q 828 -78 516 113 
L 516 650 
Q 994 344 1475 344 
Q 1969 344 2270 630 
Q 2572 916 2572 1372 
Q 2572 1838 2265 2092 
Q 1959 2347 1381 2347 
Q 994 2347 603 2300 
L 759 4600 
L 2869 4600 
L 2869 4147 
L 1206 4147 
L 1106 2763 
Q 1347 2784 1547 2784 
Q 2263 2784 2667 2414 
Q 3072 2044 3072 1403 
z
" transform="scale(0.015625)"/>
       </defs>
       <use xlink:href="#MalgunGothic-28"/>
       <use xlink:href="#MalgunGothic-32" transform="translate(30.46875 0)"/>
       <use xlink:href="#MalgunGothic-30" transform="translate(85.546875 0)"/>
       <use xlink:href="#MalgunGothic-32" transform="translate(140.625 0)"/>
       <use xlink:href="#MalgunGothic-35" transform="translate(195.703125 0)"/>
       <use xlink:href="#MalgunGothic-29" transform="translate(250.78125 0)"/>
      </g>
     </g>
    </g>
    <g id="xtick_4">
     <g id="line2d_4"/>
     <g id="text_4">
      <!-- OKX -->
      <g style="fill: #3a414a" transform="translate(424.07558 297.398031) scale(0.09 -0.09)">
       <defs>
        <path id="MalgunGothic-4f" d="M 306 2244 
Q 306 3350 903 4012 
Q 1500 4675 2531 4675 
Q 3481 4675 4062 4029 
Q 4644 3384 4644 2359 
Q 4644 1256 4056 589 
Q 3469 -78 2456 -78 
Q 1488 -78 897 570 
Q 306 1219 306 2244 
z
M 838 2291 
Q 838 1456 1278 918 
Q 1719 381 2453 381 
Q 3238 381 3677 889 
Q 4116 1397 4116 2284 
Q 4116 3188 3692 3700 
Q 3269 4213 2494 4213 
Q 1741 4213 1289 3670 
Q 838 3128 838 2291 
z
" transform="scale(0.015625)"/>
        <path id="MalgunGothic-4b" d="M 3769 0 
L 3053 0 
L 1250 2109 
Q 1150 2225 1128 2263 
L 1113 2263 
L 1113 0 
L 609 0 
L 609 4600 
L 1113 4600 
L 1113 2438 
L 1128 2438 
Q 1175 2509 1250 2588 
L 3000 4600 
L 3628 4600 
L 1634 2394 
L 3769 0 
z
" transform="scale(0.015625)"/>
        <path id="MalgunGothic-58" d="M 3744 0 
L 3125 0 
L 2050 1778 
Q 2003 1853 1941 2000 
L 1928 2000 
Q 1891 1913 1819 1778 
L 713 0 
L 88 0 
L 1631 2313 
L 209 4600 
L 831 4600 
L 1788 2966 
Q 1903 2769 1953 2647 
L 1966 2647 
Q 2072 2866 2150 2981 
L 3141 4600 
L 3725 4600 
L 2278 2319 
L 3744 0 
z
" transform="scale(0.015625)"/>
       </defs>
       <use xlink:href="#MalgunGothic-4f"/>
       <use xlink:href="#MalgunGothic-4b" transform="translate(77.34375 0)"/>
       <use xlink:href="#MalgunGothic-58" transform="translate(138.376953 0)"/>
      </g>
      <!-- (2025) -->
      <g style="fill: #3a414a" transform="translate(420.351127 307.72525) scale(0.09 -0.09)">
       <use xlink:href="#MalgunGothic-28"/>
       <use xlink:href="#MalgunGothic-32" transform="translate(30.46875 0)"/>
       <use xlink:href="#MalgunGothic-30" transform="translate(85.546875 0)"/>
       <use xlink:href="#MalgunGothic-32" transform="translate(140.625 0)"/>
       <use xlink:href="#MalgunGothic-35" transform="translate(195.703125 0)"/>
       <use xlink:href="#MalgunGothic-29" transform="translate(250.78125 0)"/>
      </g>
     </g>
    </g>
    <g id="xtick_5">
     <g id="line2d_5"/>
     <g id="text_5">
      <!-- Binance -->
      <g style="fill: #3a414a" transform="translate(513.819581 297.398031) scale(0.09 -0.09)">
       <defs>
        <path id="MalgunGothic-6e" d="M 3238 0 
L 2741 0 
L 2741 1875 
Q 2741 2941 1963 2941 
Q 1563 2941 1298 2639 
Q 1034 2338 1034 1872 
L 1034 0 
L 538 0 
L 538 3284 
L 1034 3284 
L 1034 2734 
L 1047 2734 
Q 1416 3359 2125 3359 
Q 2666 3359 2952 3012 
Q 3238 2666 3238 2006 
L 3238 0 
z
" transform="scale(0.015625)"/>
        <path id="MalgunGothic-63" d="M 2763 153 
Q 2375 -78 1872 -78 
Q 1184 -78 750 372 
Q 316 822 316 1566 
Q 316 2381 777 2870 
Q 1238 3359 2009 3359 
Q 2434 3359 2766 3200 
L 2766 2681 
Q 2397 2941 1981 2941 
Q 1478 2941 1148 2577 
Q 819 2213 819 1609 
Q 819 1034 1120 689 
Q 1422 344 1947 344 
Q 2381 344 2763 631 
L 2763 153 
z
" transform="scale(0.015625)"/>
       </defs>
       <use xlink:href="#MalgunGothic-42"/>
       <use xlink:href="#MalgunGothic-69" transform="translate(58.349609 0)"/>
       <use xlink:href="#MalgunGothic-6e" transform="translate(82.958984 0)"/>
       <use xlink:href="#MalgunGothic-61" transform="translate(140.771484 0)"/>
       <use xlink:href="#MalgunGothic-6e" transform="translate(192.773438 0)"/>
       <use xlink:href="#MalgunGothic-63" transform="translate(250.585938 0)"/>
       <use xlink:href="#MalgunGothic-65" transform="translate(297.851562 0)"/>
      </g>
      <!-- (2023) -->
      <g style="fill: #3a414a" transform="translate(516.974503 307.72525) scale(0.09 -0.09)">
       <defs>
        <path id="MalgunGothic-33" d="M 416 719 
Q 891 344 1478 344 
Q 1959 344 2254 587 
Q 2550 831 2550 1247 
Q 2550 2169 1253 2169 
L 872 2169 
L 872 2591 
L 1234 2591 
Q 2388 2591 2388 3453 
Q 2388 4250 1509 4250 
Q 1022 4250 594 3916 
L 594 4413 
Q 1031 4675 1634 4675 
Q 2184 4675 2539 4372 
Q 2894 4069 2894 3581 
Q 2894 2678 1972 2409 
L 1972 2400 
Q 2469 2356 2764 2053 
Q 3059 1750 3059 1300 
Q 3059 672 2604 297 
Q 2150 -78 1450 -78 
Q 806 -78 416 169 
L 416 719 
z
" transform="scale(0.015625)"/>
       </defs>
       <use xlink:href="#MalgunGothic-28"/>
       <use xlink:href="#MalgunGothic-32" transform="translate(30.46875 0)"/>
       <use xlink:href="#MalgunGothic-30" transform="translate(85.546875 0)"/>
       <use xlink:href="#MalgunGothic-32" transform="translate(140.625 0)"/>
       <use xlink:href="#MalgunGothic-33" transform="translate(195.703125 0)"/>
       <use xlink:href="#MalgunGothic-29" transform="translate(250.78125 0)"/>
      </g>
     </g>
    </g>
   </g>
   <g id="matplotlib.axis_2">
    <g id="ytick_1">
     <g id="line2d_6">
      <path d="M 90.864 286.565062 
L 581.904 286.565062 
" clip-path="url(#p02401e0ce1)" style="fill: none; stroke: #d8dbe0; stroke-width: 0.5; stroke-linecap: round"/>
     </g>
     <g id="line2d_7">
      <defs>
       <path id="ma4be5af030" d="M 0 0 
L -3.5 0 
" style="stroke: #3a414a; stroke-width: 0.8"/>
      </defs>
      <g>
       <use xlink:href="#ma4be5af030" x="90.864" y="286.565062" style="fill: #3a414a; stroke: #3a414a; stroke-width: 0.8"/>
      </g>
     </g>
     <g id="text_6">
      <!-- $10K -->
      <g style="fill: #3a414a" transform="translate(63.680094 289.981547) scale(0.09 -0.09)">
       <defs>
        <path id="MalgunGothic-24" d="M 1963 -672 
L 1638 -672 
L 1638 0 
Q 953 0 534 272 
L 534 809 
Q 703 653 1039 537 
Q 1375 422 1638 428 
L 1638 2103 
Q 922 2453 725 2731 
Q 528 3009 528 3400 
Q 528 3841 842 4192 
Q 1156 4544 1638 4603 
L 1638 5181 
L 1963 5181 
L 1963 4616 
Q 2594 4597 2822 4441 
L 2822 3916 
Q 2509 4172 1963 4188 
L 1963 2466 
Q 2497 2200 2803 1912 
Q 3109 1625 3109 1181 
Q 3109 725 2804 420 
Q 2500 116 1963 28 
L 1963 -672 
z
M 1638 4172 
Q 1044 4031 1044 3469 
Q 1044 3222 1136 3056 
Q 1228 2891 1638 2644 
L 1638 4172 
z
M 1963 453 
Q 2591 594 2591 1134 
Q 2591 1588 1963 1934 
L 1963 453 
z
" transform="scale(0.015625)"/>
       </defs>
       <use xlink:href="#MalgunGothic-24"/>
       <use xlink:href="#MalgunGothic-31" transform="translate(55.078125 0)"/>
       <use xlink:href="#MalgunGothic-30" transform="translate(110.15625 0)"/>
       <use xlink:href="#MalgunGothic-4b" transform="translate(165.234375 0)"/>
      </g>
     </g>
    </g>
    <g id="ytick_2">
     <g id="line2d_8">
      <path d="M 90.864 247.851392 
L 581.904 247.851392 
" clip-path="url(#p02401e0ce1)" style="fill: none; stroke: #d8dbe0; stroke-width: 0.5; stroke-linecap: round"/>
     </g>
     <g id="line2d_9">
      <g>
       <use xlink:href="#ma4be5af030" x="90.864" y="247.851392" style="fill: #3a414a; stroke: #3a414a; stroke-width: 0.8"/>
      </g>
     </g>
     <g id="text_7">
      <!-- $100K -->
      <g style="fill: #3a414a" transform="translate(58.723063 251.267876) scale(0.09 -0.09)">
       <use xlink:href="#MalgunGothic-24"/>
       <use xlink:href="#MalgunGothic-31" transform="translate(55.078125 0)"/>
       <use xlink:href="#MalgunGothic-30" transform="translate(110.15625 0)"/>
       <use xlink:href="#MalgunGothic-30" transform="translate(165.234375 0)"/>
       <use xlink:href="#MalgunGothic-4b" transform="translate(220.3125 0)"/>
      </g>
     </g>
    </g>
    <g id="ytick_3">
     <g id="line2d_10">
      <path d="M 90.864 209.137721 
L 581.904 209.137721 
" clip-path="url(#p02401e0ce1)" style="fill: none; stroke: #d8dbe0; stroke-width: 0.5; stroke-linecap: round"/>
     </g>
     <g id="line2d_11">
      <g>
       <use xlink:href="#ma4be5af030" x="90.864" y="209.137721" style="fill: #3a414a; stroke: #3a414a; stroke-width: 0.8"/>
      </g>
     </g>
     <g id="text_8">
      <!-- $1M -->
      <g style="fill: #3a414a" transform="translate(65.696656 212.554206) scale(0.09 -0.09)">
       <defs>
        <path id="MalgunGothic-4d" d="M 4756 0 
L 4756 3106 
Q 4756 3466 4803 3994 
L 4788 3994 
Q 4713 3684 4653 3559 
L 3050 0 
L 2822 0 
L 1222 3534 
Q 1159 3669 1091 3994 
L 1075 3994 
Q 1100 3822 1100 3116 
L 1100 0 
L 609 0 
L 609 4600 
L 1269 4600 
L 2706 1359 
Q 2881 966 2922 816 
L 2941 816 
Q 2988 944 3166 1375 
L 4638 4600 
L 5259 4600 
L 5259 0 
L 4756 0 
z
" transform="scale(0.015625)"/>
       </defs>
       <use xlink:href="#MalgunGothic-24"/>
       <use xlink:href="#MalgunGothic-31" transform="translate(55.078125 0)"/>
       <use xlink:href="#MalgunGothic-4d" transform="translate(110.15625 0)"/>
      </g>
     </g>
    </g>
    <g id="ytick_4">
     <g id="line2d_12">
      <path d="M 90.864 170.424051 
L 581.904 170.424051 
" clip-path="url(#p02401e0ce1)" style="fill: none; stroke: #d8dbe0; stroke-width: 0.5; stroke-linecap: round"/>
     </g>
     <g id="line2d_13">
      <g>
       <use xlink:href="#ma4be5af030" x="90.864" y="170.424051" style="fill: #3a414a; stroke: #3a414a; stroke-width: 0.8"/>
      </g>
     </g>
     <g id="text_9">
      <!-- $10M -->
      <g style="fill: #3a414a" transform="translate(60.739625 173.840535) scale(0.09 -0.09)">
       <use xlink:href="#MalgunGothic-24"/>
       <use xlink:href="#MalgunGothic-31" transform="translate(55.078125 0)"/>
       <use xlink:href="#MalgunGothic-30" transform="translate(110.15625 0)"/>
       <use xlink:href="#MalgunGothic-4d" transform="translate(165.234375 0)"/>
      </g>
     </g>
    </g>
    <g id="ytick_5">
     <g id="line2d_14">
      <path d="M 90.864 131.71038 
L 581.904 131.71038 
" clip-path="url(#p02401e0ce1)" style="fill: none; stroke: #d8dbe0; stroke-width: 0.5; stroke-linecap: round"/>
     </g>
     <g id="line2d_15">
      <g>
       <use xlink:href="#ma4be5af030" x="90.864" y="131.71038" style="fill: #3a414a; stroke: #3a414a; stroke-width: 0.8"/>
      </g>
     </g>
     <g id="text_10">
      <!-- $100M -->
      <g style="fill: #3a414a" transform="translate(55.782594 135.126864) scale(0.09 -0.09)">
       <use xlink:href="#MalgunGothic-24"/>
       <use xlink:href="#MalgunGothic-31" transform="translate(55.078125 0)"/>
       <use xlink:href="#MalgunGothic-30" transform="translate(110.15625 0)"/>
       <use xlink:href="#MalgunGothic-30" transform="translate(165.234375 0)"/>
       <use xlink:href="#MalgunGothic-4d" transform="translate(220.3125 0)"/>
      </g>
     </g>
    </g>
    <g id="ytick_6">
     <g id="line2d_16">
      <path d="M 90.864 92.996709 
L 581.904 92.996709 
" clip-path="url(#p02401e0ce1)" style="fill: none; stroke: #d8dbe0; stroke-width: 0.5; stroke-linecap: round"/>
     </g>
     <g id="line2d_17">
      <g>
       <use xlink:href="#ma4be5af030" x="90.864" y="92.996709" style="fill: #3a414a; stroke: #3a414a; stroke-width: 0.8"/>
      </g>
     </g>
     <g id="text_11">
      <!-- $1B -->
      <g style="fill: #3a414a" transform="translate(68.699 96.413194) scale(0.09 -0.09)">
       <use xlink:href="#MalgunGothic-24"/>
       <use xlink:href="#MalgunGothic-31" transform="translate(55.078125 0)"/>
       <use xlink:href="#MalgunGothic-42" transform="translate(110.15625 0)"/>
      </g>
     </g>
    </g>
    <g id="ytick_7">
     <g id="line2d_18">
      <path d="M 90.864 54.283039 
L 581.904 54.283039 
" clip-path="url(#p02401e0ce1)" style="fill: none; stroke: #d8dbe0; stroke-width: 0.5; stroke-linecap: round"/>
     </g>
     <g id="line2d_19">
      <g>
       <use xlink:href="#ma4be5af030" x="90.864" y="54.283039" style="fill: #3a414a; stroke: #3a414a; stroke-width: 0.8"/>
      </g>
     </g>
     <g id="text_12">
      <!-- $10B -->
      <g style="fill: #3a414a" transform="translate(63.741969 57.699523) scale(0.09 -0.09)">
       <use xlink:href="#MalgunGothic-24"/>
       <use xlink:href="#MalgunGothic-31" transform="translate(55.078125 0)"/>
       <use xlink:href="#MalgunGothic-30" transform="translate(110.15625 0)"/>
       <use xlink:href="#MalgunGothic-42" transform="translate(165.234375 0)"/>
      </g>
     </g>
    </g>
    <g id="ytick_8">
     <g id="line2d_20">
      <path d="M 90.864 274.911086 
L 581.904 274.911086 
" clip-path="url(#p02401e0ce1)" style="fill: none; stroke: #d8dbe0; stroke-width: 0.5; stroke-linecap: round"/>
     </g>
     <g id="line2d_21">
      <defs>
       <path id="m9b1ae5729d" d="M 0 0 
L -2 0 
" style="stroke: #3a414a; stroke-width: 0.6"/>
      </defs>
      <g>
       <use xlink:href="#m9b1ae5729d" x="90.864" y="274.911086" style="fill: #3a414a; stroke: #3a414a; stroke-width: 0.6"/>
      </g>
     </g>
    </g>
    <g id="ytick_9">
     <g id="line2d_22">
      <path d="M 90.864 268.093947 
L 581.904 268.093947 
" clip-path="url(#p02401e0ce1)" style="fill: none; stroke: #d8dbe0; stroke-width: 0.5; stroke-linecap: round"/>
     </g>
     <g id="line2d_23">
      <g>
       <use xlink:href="#m9b1ae5729d" x="90.864" y="268.093947" style="fill: #3a414a; stroke: #3a414a; stroke-width: 0.6"/>
      </g>
     </g>
    </g>
    <g id="ytick_10">
     <g id="line2d_24">
      <path d="M 90.864 263.25711 
L 581.904 263.25711 
" clip-path="url(#p02401e0ce1)" style="fill: none; stroke: #d8dbe0; stroke-width: 0.5; stroke-linecap: round"/>
     </g>
     <g id="line2d_25">
      <g>
       <use xlink:href="#m9b1ae5729d" x="90.864" y="263.25711" style="fill: #3a414a; stroke: #3a414a; stroke-width: 0.6"/>
      </g>
     </g>
    </g>
    <g id="ytick_11">
     <g id="line2d_26">
      <path d="M 90.864 259.505368 
L 581.904 259.505368 
" clip-path="url(#p02401e0ce1)" style="fill: none; stroke: #d8dbe0; stroke-width: 0.5; stroke-linecap: round"/>
     </g>
     <g id="line2d_27">
      <g>
       <use xlink:href="#m9b1ae5729d" x="90.864" y="259.505368" style="fill: #3a414a; stroke: #3a414a; stroke-width: 0.6"/>
      </g>
     </g>
    </g>
    <g id="ytick_12">
     <g id="line2d_28">
      <path d="M 90.864 256.439971 
L 581.904 256.439971 
" clip-path="url(#p02401e0ce1)" style="fill: none; stroke: #d8dbe0; stroke-width: 0.5; stroke-linecap: round"/>
     </g>
     <g id="line2d_29">
      <g>
       <use xlink:href="#m9b1ae5729d" x="90.864" y="256.439971" style="fill: #3a414a; stroke: #3a414a; stroke-width: 0.6"/>
      </g>
     </g>
    </g>
    <g id="ytick_13">
     <g id="line2d_30">
      <path d="M 90.864 253.848215 
L 581.904 253.848215 
" clip-path="url(#p02401e0ce1)" style="fill: none; stroke: #d8dbe0; stroke-width: 0.5; stroke-linecap: round"/>
     </g>
     <g id="line2d_31">
      <g>
       <use xlink:href="#m9b1ae5729d" x="90.864" y="253.848215" style="fill: #3a414a; stroke: #3a414a; stroke-width: 0.6"/>
      </g>
     </g>
    </g>
    <g id="ytick_14">
     <g id="line2d_32">
      <path d="M 90.864 251.603134 
L 581.904 251.603134 
" clip-path="url(#p02401e0ce1)" style="fill: none; stroke: #d8dbe0; stroke-width: 0.5; stroke-linecap: round"/>
     </g>
     <g id="line2d_33">
      <g>
       <use xlink:href="#m9b1ae5729d" x="90.864" y="251.603134" style="fill: #3a414a; stroke: #3a414a; stroke-width: 0.6"/>
      </g>
     </g>
    </g>
    <g id="ytick_15">
     <g id="line2d_34">
      <path d="M 90.864 249.622832 
L 581.904 249.622832 
" clip-path="url(#p02401e0ce1)" style="fill: none; stroke: #d8dbe0; stroke-width: 0.5; stroke-linecap: round"/>
     </g>
     <g id="line2d_35">
      <g>
       <use xlink:href="#m9b1ae5729d" x="90.864" y="249.622832" style="fill: #3a414a; stroke: #3a414a; stroke-width: 0.6"/>
      </g>
     </g>
    </g>
    <g id="ytick_16">
     <g id="line2d_36">
      <path d="M 90.864 236.197416 
L 581.904 236.197416 
" clip-path="url(#p02401e0ce1)" style="fill: none; stroke: #d8dbe0; stroke-width: 0.5; stroke-linecap: round"/>
     </g>
     <g id="line2d_37">
      <g>
       <use xlink:href="#m9b1ae5729d" x="90.864" y="236.197416" style="fill: #3a414a; stroke: #3a414a; stroke-width: 0.6"/>
      </g>
     </g>
    </g>
    <g id="ytick_17">
     <g id="line2d_38">
      <path d="M 90.864 229.380277 
L 581.904 229.380277 
" clip-path="url(#p02401e0ce1)" style="fill: none; stroke: #d8dbe0; stroke-width: 0.5; stroke-linecap: round"/>
     </g>
     <g id="line2d_39">
      <g>
       <use xlink:href="#m9b1ae5729d" x="90.864" y="229.380277" style="fill: #3a414a; stroke: #3a414a; stroke-width: 0.6"/>
      </g>
     </g>
    </g>
    <g id="ytick_18">
     <g id="line2d_40">
      <path d="M 90.864 224.54344 
L 581.904 224.54344 
" clip-path="url(#p02401e0ce1)" style="fill: none; stroke: #d8dbe0; stroke-width: 0.5; stroke-linecap: round"/>
     </g>
     <g id="line2d_41">
      <g>
       <use xlink:href="#m9b1ae5729d" x="90.864" y="224.54344" style="fill: #3a414a; stroke: #3a414a; stroke-width: 0.6"/>
      </g>
     </g>
    </g>
    <g id="ytick_19">
     <g id="line2d_42">
      <path d="M 90.864 220.791697 
L 581.904 220.791697 
" clip-path="url(#p02401e0ce1)" style="fill: none; stroke: #d8dbe0; stroke-width: 0.5; stroke-linecap: round"/>
     </g>
     <g id="line2d_43">
      <g>
       <use xlink:href="#m9b1ae5729d" x="90.864" y="220.791697" style="fill: #3a414a; stroke: #3a414a; stroke-width: 0.6"/>
      </g>
     </g>
    </g>
    <g id="ytick_20">
     <g id="line2d_44">
      <path d="M 90.864 217.726301 
L 581.904 217.726301 
" clip-path="url(#p02401e0ce1)" style="fill: none; stroke: #d8dbe0; stroke-width: 0.5; stroke-linecap: round"/>
     </g>
     <g id="line2d_45">
      <g>
       <use xlink:href="#m9b1ae5729d" x="90.864" y="217.726301" style="fill: #3a414a; stroke: #3a414a; stroke-width: 0.6"/>
      </g>
     </g>
    </g>
    <g id="ytick_21">
     <g id="line2d_46">
      <path d="M 90.864 215.134545 
L 581.904 215.134545 
" clip-path="url(#p02401e0ce1)" style="fill: none; stroke: #d8dbe0; stroke-width: 0.5; stroke-linecap: round"/>
     </g>
     <g id="line2d_47">
      <g>
       <use xlink:href="#m9b1ae5729d" x="90.864" y="215.134545" style="fill: #3a414a; stroke: #3a414a; stroke-width: 0.6"/>
      </g>
     </g>
    </g>
    <g id="ytick_22">
     <g id="line2d_48">
      <path d="M 90.864 212.889464 
L 581.904 212.889464 
" clip-path="url(#p02401e0ce1)" style="fill: none; stroke: #d8dbe0; stroke-width: 0.5; stroke-linecap: round"/>
     </g>
     <g id="line2d_49">
      <g>
       <use xlink:href="#m9b1ae5729d" x="90.864" y="212.889464" style="fill: #3a414a; stroke: #3a414a; stroke-width: 0.6"/>
      </g>
     </g>
    </g>
    <g id="ytick_23">
     <g id="line2d_50">
      <path d="M 90.864 210.909162 
L 581.904 210.909162 
" clip-path="url(#p02401e0ce1)" style="fill: none; stroke: #d8dbe0; stroke-width: 0.5; stroke-linecap: round"/>
     </g>
     <g id="line2d_51">
      <g>
       <use xlink:href="#m9b1ae5729d" x="90.864" y="210.909162" style="fill: #3a414a; stroke: #3a414a; stroke-width: 0.6"/>
      </g>
     </g>
    </g>
    <g id="ytick_24">
     <g id="line2d_52">
      <path d="M 90.864 197.483745 
L 581.904 197.483745 
" clip-path="url(#p02401e0ce1)" style="fill: none; stroke: #d8dbe0; stroke-width: 0.5; stroke-linecap: round"/>
     </g>
     <g id="line2d_53">
      <g>
       <use xlink:href="#m9b1ae5729d" x="90.864" y="197.483745" style="fill: #3a414a; stroke: #3a414a; stroke-width: 0.6"/>
      </g>
     </g>
    </g>
    <g id="ytick_25">
     <g id="line2d_54">
      <path d="M 90.864 190.666606 
L 581.904 190.666606 
" clip-path="url(#p02401e0ce1)" style="fill: none; stroke: #d8dbe0; stroke-width: 0.5; stroke-linecap: round"/>
     </g>
     <g id="line2d_55">
      <g>
       <use xlink:href="#m9b1ae5729d" x="90.864" y="190.666606" style="fill: #3a414a; stroke: #3a414a; stroke-width: 0.6"/>
      </g>
     </g>
    </g>
    <g id="ytick_26">
     <g id="line2d_56">
      <path d="M 90.864 185.829769 
L 581.904 185.829769 
" clip-path="url(#p02401e0ce1)" style="fill: none; stroke: #d8dbe0; stroke-width: 0.5; stroke-linecap: round"/>
     </g>
     <g id="line2d_57">
      <g>
       <use xlink:href="#m9b1ae5729d" x="90.864" y="185.829769" style="fill: #3a414a; stroke: #3a414a; stroke-width: 0.6"/>
      </g>
     </g>
    </g>
    <g id="ytick_27">
     <g id="line2d_58">
      <path d="M 90.864 182.078027 
L 581.904 182.078027 
" clip-path="url(#p02401e0ce1)" style="fill: none; stroke: #d8dbe0; stroke-width: 0.5; stroke-linecap: round"/>
     </g>
     <g id="line2d_59">
      <g>
       <use xlink:href="#m9b1ae5729d" x="90.864" y="182.078027" style="fill: #3a414a; stroke: #3a414a; stroke-width: 0.6"/>
      </g>
     </g>
    </g>
    <g id="ytick_28">
     <g id="line2d_60">
      <path d="M 90.864 179.01263 
L 581.904 179.01263 
" clip-path="url(#p02401e0ce1)" style="fill: none; stroke: #d8dbe0; stroke-width: 0.5; stroke-linecap: round"/>
     </g>
     <g id="line2d_61">
      <g>
       <use xlink:href="#m9b1ae5729d" x="90.864" y="179.01263" style="fill: #3a414a; stroke: #3a414a; stroke-width: 0.6"/>
      </g>
     </g>
    </g>
    <g id="ytick_29">
     <g id="line2d_62">
      <path d="M 90.864 176.420874 
L 581.904 176.420874 
" clip-path="url(#p02401e0ce1)" style="fill: none; stroke: #d8dbe0; stroke-width: 0.5; stroke-linecap: round"/>
     </g>
     <g id="line2d_63">
      <g>
       <use xlink:href="#m9b1ae5729d" x="90.864" y="176.420874" style="fill: #3a414a; stroke: #3a414a; stroke-width: 0.6"/>
      </g>
     </g>
    </g>
    <g id="ytick_30">
     <g id="line2d_64">
      <path d="M 90.864 174.175793 
L 581.904 174.175793 
" clip-path="url(#p02401e0ce1)" style="fill: none; stroke: #d8dbe0; stroke-width: 0.5; stroke-linecap: round"/>
     </g>
     <g id="line2d_65">
      <g>
       <use xlink:href="#m9b1ae5729d" x="90.864" y="174.175793" style="fill: #3a414a; stroke: #3a414a; stroke-width: 0.6"/>
      </g>
     </g>
    </g>
    <g id="ytick_31">
     <g id="line2d_66">
      <path d="M 90.864 172.195491 
L 581.904 172.195491 
" clip-path="url(#p02401e0ce1)" style="fill: none; stroke: #d8dbe0; stroke-width: 0.5; stroke-linecap: round"/>
     </g>
     <g id="line2d_67">
      <g>
       <use xlink:href="#m9b1ae5729d" x="90.864" y="172.195491" style="fill: #3a414a; stroke: #3a414a; stroke-width: 0.6"/>
      </g>
     </g>
    </g>
    <g id="ytick_32">
     <g id="line2d_68">
      <path d="M 90.864 158.770074 
L 581.904 158.770074 
" clip-path="url(#p02401e0ce1)" style="fill: none; stroke: #d8dbe0; stroke-width: 0.5; stroke-linecap: round"/>
     </g>
     <g id="line2d_69">
      <g>
       <use xlink:href="#m9b1ae5729d" x="90.864" y="158.770074" style="fill: #3a414a; stroke: #3a414a; stroke-width: 0.6"/>
      </g>
     </g>
    </g>
    <g id="ytick_33">
     <g id="line2d_70">
      <path d="M 90.864 151.952935 
L 581.904 151.952935 
" clip-path="url(#p02401e0ce1)" style="fill: none; stroke: #d8dbe0; stroke-width: 0.5; stroke-linecap: round"/>
     </g>
     <g id="line2d_71">
      <g>
       <use xlink:href="#m9b1ae5729d" x="90.864" y="151.952935" style="fill: #3a414a; stroke: #3a414a; stroke-width: 0.6"/>
      </g>
     </g>
    </g>
    <g id="ytick_34">
     <g id="line2d_72">
      <path d="M 90.864 147.116098 
L 581.904 147.116098 
" clip-path="url(#p02401e0ce1)" style="fill: none; stroke: #d8dbe0; stroke-width: 0.5; stroke-linecap: round"/>
     </g>
     <g id="line2d_73">
      <g>
       <use xlink:href="#m9b1ae5729d" x="90.864" y="147.116098" style="fill: #3a414a; stroke: #3a414a; stroke-width: 0.6"/>
      </g>
     </g>
    </g>
    <g id="ytick_35">
     <g id="line2d_74">
      <path d="M 90.864 143.364356 
L 581.904 143.364356 
" clip-path="url(#p02401e0ce1)" style="fill: none; stroke: #d8dbe0; stroke-width: 0.5; stroke-linecap: round"/>
     </g>
     <g id="line2d_75">
      <g>
       <use xlink:href="#m9b1ae5729d" x="90.864" y="143.364356" style="fill: #3a414a; stroke: #3a414a; stroke-width: 0.6"/>
      </g>
     </g>
    </g>
    <g id="ytick_36">
     <g id="line2d_76">
      <path d="M 90.864 140.298959 
L 581.904 140.298959 
" clip-path="url(#p02401e0ce1)" style="fill: none; stroke: #d8dbe0; stroke-width: 0.5; stroke-linecap: round"/>
     </g>
     <g id="line2d_77">
      <g>
       <use xlink:href="#m9b1ae5729d" x="90.864" y="140.298959" style="fill: #3a414a; stroke: #3a414a; stroke-width: 0.6"/>
      </g>
     </g>
    </g>
    <g id="ytick_37">
     <g id="line2d_78">
      <path d="M 90.864 137.707203 
L 581.904 137.707203 
" clip-path="url(#p02401e0ce1)" style="fill: none; stroke: #d8dbe0; stroke-width: 0.5; stroke-linecap: round"/>
     </g>
     <g id="line2d_79">
      <g>
       <use xlink:href="#m9b1ae5729d" x="90.864" y="137.707203" style="fill: #3a414a; stroke: #3a414a; stroke-width: 0.6"/>
      </g>
     </g>
    </g>
    <g id="ytick_38">
     <g id="line2d_80">
      <path d="M 90.864 135.462122 
L 581.904 135.462122 
" clip-path="url(#p02401e0ce1)" style="fill: none; stroke: #d8dbe0; stroke-width: 0.5; stroke-linecap: round"/>
     </g>
     <g id="line2d_81">
      <g>
       <use xlink:href="#m9b1ae5729d" x="90.864" y="135.462122" style="fill: #3a414a; stroke: #3a414a; stroke-width: 0.6"/>
      </g>
     </g>
    </g>
    <g id="ytick_39">
     <g id="line2d_82">
      <path d="M 90.864 133.48182 
L 581.904 133.48182 
" clip-path="url(#p02401e0ce1)" style="fill: none; stroke: #d8dbe0; stroke-width: 0.5; stroke-linecap: round"/>
     </g>
     <g id="line2d_83">
      <g>
       <use xlink:href="#m9b1ae5729d" x="90.864" y="133.48182" style="fill: #3a414a; stroke: #3a414a; stroke-width: 0.6"/>
      </g>
     </g>
    </g>
    <g id="ytick_40">
     <g id="line2d_84">
      <path d="M 90.864 120.056404 
L 581.904 120.056404 
" clip-path="url(#p02401e0ce1)" style="fill: none; stroke: #d8dbe0; stroke-width: 0.5; stroke-linecap: round"/>
     </g>
     <g id="line2d_85">
      <g>
       <use xlink:href="#m9b1ae5729d" x="90.864" y="120.056404" style="fill: #3a414a; stroke: #3a414a; stroke-width: 0.6"/>
      </g>
     </g>
    </g>
    <g id="ytick_41">
     <g id="line2d_86">
      <path d="M 90.864 113.239265 
L 581.904 113.239265 
" clip-path="url(#p02401e0ce1)" style="fill: none; stroke: #d8dbe0; stroke-width: 0.5; stroke-linecap: round"/>
     </g>
     <g id="line2d_87">
      <g>
       <use xlink:href="#m9b1ae5729d" x="90.864" y="113.239265" style="fill: #3a414a; stroke: #3a414a; stroke-width: 0.6"/>
      </g>
     </g>
    </g>
    <g id="ytick_42">
     <g id="line2d_88">
      <path d="M 90.864 108.402428 
L 581.904 108.402428 
" clip-path="url(#p02401e0ce1)" style="fill: none; stroke: #d8dbe0; stroke-width: 0.5; stroke-linecap: round"/>
     </g>
     <g id="line2d_89">
      <g>
       <use xlink:href="#m9b1ae5729d" x="90.864" y="108.402428" style="fill: #3a414a; stroke: #3a414a; stroke-width: 0.6"/>
      </g>
     </g>
    </g>
    <g id="ytick_43">
     <g id="line2d_90">
      <path d="M 90.864 104.650685 
L 581.904 104.650685 
" clip-path="url(#p02401e0ce1)" style="fill: none; stroke: #d8dbe0; stroke-width: 0.5; stroke-linecap: round"/>
     </g>
     <g id="line2d_91">
      <g>
       <use xlink:href="#m9b1ae5729d" x="90.864" y="104.650685" style="fill: #3a414a; stroke: #3a414a; stroke-width: 0.6"/>
      </g>
     </g>
    </g>
    <g id="ytick_44">
     <g id="line2d_92">
      <path d="M 90.864 101.585289 
L 581.904 101.585289 
" clip-path="url(#p02401e0ce1)" style="fill: none; stroke: #d8dbe0; stroke-width: 0.5; stroke-linecap: round"/>
     </g>
     <g id="line2d_93">
      <g>
       <use xlink:href="#m9b1ae5729d" x="90.864" y="101.585289" style="fill: #3a414a; stroke: #3a414a; stroke-width: 0.6"/>
      </g>
     </g>
    </g>
    <g id="ytick_45">
     <g id="line2d_94">
      <path d="M 90.864 98.993533 
L 581.904 98.993533 
" clip-path="url(#p02401e0ce1)" style="fill: none; stroke: #d8dbe0; stroke-width: 0.5; stroke-linecap: round"/>
     </g>
     <g id="line2d_95">
      <g>
       <use xlink:href="#m9b1ae5729d" x="90.864" y="98.993533" style="fill: #3a414a; stroke: #3a414a; stroke-width: 0.6"/>
      </g>
     </g>
    </g>
    <g id="ytick_46">
     <g id="line2d_96">
      <path d="M 90.864 96.748452 
L 581.904 96.748452 
" clip-path="url(#p02401e0ce1)" style="fill: none; stroke: #d8dbe0; stroke-width: 0.5; stroke-linecap: round"/>
     </g>
     <g id="line2d_97">
      <g>
       <use xlink:href="#m9b1ae5729d" x="90.864" y="96.748452" style="fill: #3a414a; stroke: #3a414a; stroke-width: 0.6"/>
      </g>
     </g>
    </g>
    <g id="ytick_47">
     <g id="line2d_98">
      <path d="M 90.864 94.76815 
L 581.904 94.76815 
" clip-path="url(#p02401e0ce1)" style="fill: none; stroke: #d8dbe0; stroke-width: 0.5; stroke-linecap: round"/>
     </g>
     <g id="line2d_99">
      <g>
       <use xlink:href="#m9b1ae5729d" x="90.864" y="94.76815" style="fill: #3a414a; stroke: #3a414a; stroke-width: 0.6"/>
      </g>
     </g>
    </g>
    <g id="ytick_48">
     <g id="line2d_100">
      <path d="M 90.864 81.342733 
L 581.904 81.342733 
" clip-path="url(#p02401e0ce1)" style="fill: none; stroke: #d8dbe0; stroke-width: 0.5; stroke-linecap: round"/>
     </g>
     <g id="line2d_101">
      <g>
       <use xlink:href="#m9b1ae5729d" x="90.864" y="81.342733" style="fill: #3a414a; stroke: #3a414a; stroke-width: 0.6"/>
      </g>
     </g>
    </g>
    <g id="ytick_49">
     <g id="line2d_102">
      <path d="M 90.864 74.525594 
L 581.904 74.525594 
" clip-path="url(#p02401e0ce1)" style="fill: none; stroke: #d8dbe0; stroke-width: 0.5; stroke-linecap: round"/>
     </g>
     <g id="line2d_103">
      <g>
       <use xlink:href="#m9b1ae5729d" x="90.864" y="74.525594" style="fill: #3a414a; stroke: #3a414a; stroke-width: 0.6"/>
      </g>
     </g>
    </g>
    <g id="ytick_50">
     <g id="line2d_104">
      <path d="M 90.864 69.688757 
L 581.904 69.688757 
" clip-path="url(#p02401e0ce1)" style="fill: none; stroke: #d8dbe0; stroke-width: 0.5; stroke-linecap: round"/>
     </g>
     <g id="line2d_105">
      <g>
       <use xlink:href="#m9b1ae5729d" x="90.864" y="69.688757" style="fill: #3a414a; stroke: #3a414a; stroke-width: 0.6"/>
      </g>
     </g>
    </g>
    <g id="ytick_51">
     <g id="line2d_106">
      <path d="M 90.864 65.937015 
L 581.904 65.937015 
" clip-path="url(#p02401e0ce1)" style="fill: none; stroke: #d8dbe0; stroke-width: 0.5; stroke-linecap: round"/>
     </g>
     <g id="line2d_107">
      <g>
       <use xlink:href="#m9b1ae5729d" x="90.864" y="65.937015" style="fill: #3a414a; stroke: #3a414a; stroke-width: 0.6"/>
      </g>
     </g>
    </g>
    <g id="ytick_52">
     <g id="line2d_108">
      <path d="M 90.864 62.871618 
L 581.904 62.871618 
" clip-path="url(#p02401e0ce1)" style="fill: none; stroke: #d8dbe0; stroke-width: 0.5; stroke-linecap: round"/>
     </g>
     <g id="line2d_109">
      <g>
       <use xlink:href="#m9b1ae5729d" x="90.864" y="62.871618" style="fill: #3a414a; stroke: #3a414a; stroke-width: 0.6"/>
      </g>
     </g>
    </g>
    <g id="ytick_53">
     <g id="line2d_110">
      <path d="M 90.864 60.279862 
L 581.904 60.279862 
" clip-path="url(#p02401e0ce1)" style="fill: none; stroke: #d8dbe0; stroke-width: 0.5; stroke-linecap: round"/>
     </g>
     <g id="line2d_111">
      <g>
       <use xlink:href="#m9b1ae5729d" x="90.864" y="60.279862" style="fill: #3a414a; stroke: #3a414a; stroke-width: 0.6"/>
      </g>
     </g>
    </g>
    <g id="ytick_54">
     <g id="line2d_112">
      <path d="M 90.864 58.034781 
L 581.904 58.034781 
" clip-path="url(#p02401e0ce1)" style="fill: none; stroke: #d8dbe0; stroke-width: 0.5; stroke-linecap: round"/>
     </g>
     <g id="line2d_113">
      <g>
       <use xlink:href="#m9b1ae5729d" x="90.864" y="58.034781" style="fill: #3a414a; stroke: #3a414a; stroke-width: 0.6"/>
      </g>
     </g>
    </g>
    <g id="ytick_55">
     <g id="line2d_114">
      <path d="M 90.864 56.054479 
L 581.904 56.054479 
" clip-path="url(#p02401e0ce1)" style="fill: none; stroke: #d8dbe0; stroke-width: 0.5; stroke-linecap: round"/>
     </g>
     <g id="line2d_115">
      <g>
       <use xlink:href="#m9b1ae5729d" x="90.864" y="56.054479" style="fill: #3a414a; stroke: #3a414a; stroke-width: 0.6"/>
      </g>
     </g>
    </g>
    <g id="ytick_56">
     <g id="line2d_116">
      <path d="M 90.864 42.629062 
L 581.904 42.629062 
" clip-path="url(#p02401e0ce1)" style="fill: none; stroke: #d8dbe0; stroke-width: 0.5; stroke-linecap: round"/>
     </g>
     <g id="line2d_117">
      <g>
       <use xlink:href="#m9b1ae5729d" x="90.864" y="42.629062" style="fill: #3a414a; stroke: #3a414a; stroke-width: 0.6"/>
      </g>
     </g>
    </g>
    <g id="text_13">
     <!-- 벌금 (USD, 로그스케일) -->
     <g style="fill: #111418" transform="translate(49.418531 216.730656) rotate(-90) scale(0.1 -0.1)">
      <defs>
       <path id="MalgunGothic-bc8c" d="M 1038 2663 
L 1038 5288 
L 1497 5288 
L 1497 4372 
L 3353 4372 
L 3353 5288 
L 3822 5288 
L 3822 4103 
L 4947 4103 
L 4947 5466 
L 5416 5466 
L 5416 2338 
L 4947 2338 
L 4947 3688 
L 3822 3688 
L 3822 2663 
L 1038 2663 
z
M 3353 3956 
L 1497 3956 
L 1497 3072 
L 3353 3072 
L 3353 3956 
z
M 1728 -422 
L 1728 1025 
L 4953 1025 
L 4953 1594 
L 1728 1594 
L 1728 2003 
L 5416 2003 
L 5416 616 
L 2194 616 
L 2194 -6 
L 5581 -6 
L 5581 -422 
L 1728 -422 
z
" transform="scale(0.015625)"/>
       <path id="MalgunGothic-ae08" d="M 403 2663 
L 403 3084 
L 4563 3084 
Q 4634 3803 4634 4819 
L 1338 4819 
L 1338 5234 
L 5100 5234 
Q 5100 4081 5019 3084 
L 5997 3084 
L 5997 2663 
L 403 2663 
z
M 1350 -416 
L 1350 1856 
L 5075 1856 
L 5075 -416 
L 1350 -416 
z
M 4616 1447 
L 1813 1447 
L 1813 0 
L 4616 0 
L 4616 1447 
z
" transform="scale(0.015625)"/>
       <path id="MalgunGothic-20" transform="scale(0.015625)"/>
       <path id="MalgunGothic-55" d="M 3947 1850 
Q 3947 -78 2209 -78 
Q 553 -78 553 1778 
L 553 4600 
L 1056 4600 
L 1056 1813 
Q 1056 381 2272 381 
Q 3441 381 3441 1763 
L 3441 4600 
L 3947 4600 
L 3947 1850 
z
" transform="scale(0.015625)"/>
       <path id="MalgunGothic-53" d="M 394 797 
Q 606 613 964 500 
Q 1322 388 1625 388 
Q 2628 388 2628 1116 
Q 2628 1325 2523 1484 
Q 2419 1644 2250 1756 
Q 2081 1869 1547 2144 
Q 903 2475 651 2754 
Q 400 3034 400 3456 
Q 400 4019 858 4347 
Q 1316 4675 1988 4675 
Q 2669 4675 2963 4513 
L 2963 3928 
Q 2563 4206 1922 4206 
Q 1484 4206 1207 4018 
Q 931 3831 931 3500 
Q 931 3200 1126 3011 
Q 1322 2822 1938 2522 
Q 2656 2163 2906 1844 
Q 3156 1525 3156 1153 
Q 3156 556 2725 239 
Q 2294 -78 1531 -78 
Q 1291 -78 927 -1 
Q 563 75 394 188 
L 394 797 
z
" transform="scale(0.015625)"/>
       <path id="MalgunGothic-44" d="M 609 0 
L 609 4600 
L 1856 4600 
Q 4281 4600 4281 2356 
Q 4281 1288 3587 644 
Q 2894 0 1800 0 
L 609 0 
z
M 1113 4134 
L 1113 463 
L 1813 463 
Q 2734 463 3243 958 
Q 3753 1453 3753 2344 
Q 3753 4134 1844 4134 
L 1113 4134 
z
" transform="scale(0.015625)"/>
       <path id="MalgunGothic-2c" d="M 988 725 
L 472 -850 
L 125 -850 
L 503 725 
L 988 725 
z
" transform="scale(0.015625)"/>
       <path id="MalgunGothic-b85c" d="M 1247 3641 
L 4659 3641 
L 4659 4531 
L 1259 4531 
L 1259 4941 
L 5125 4941 
L 5125 3238 
L 1722 3238 
L 1722 2241 
L 5300 2241 
L 5300 1825 
L 3438 1825 
L 3438 728 
L 5997 728 
L 5997 313 
L 403 313 
L 403 728 
L 2969 728 
L 2969 1825 
L 1247 1825 
L 1247 3641 
z
" transform="scale(0.015625)"/>
       <path id="MalgunGothic-adf8" d="M 403 622 
L 403 1038 
L 4434 1038 
Q 4563 1981 4563 3053 
L 4563 4481 
L 1253 4481 
L 1253 4897 
L 5031 4897 
L 5031 3238 
Q 5031 2322 4891 1038 
L 5997 1038 
L 5997 622 
L 403 622 
z
" transform="scale(0.015625)"/>
       <path id="MalgunGothic-c2a4" d="M 3194 3897 
Q 2969 3416 2328 2930 
Q 1688 2444 959 2247 
L 641 2619 
Q 1703 2841 2329 3472 
Q 2956 4103 2956 4659 
L 2956 4978 
L 3438 4978 
L 3438 4659 
Q 3438 4094 4073 3476 
Q 4709 2859 5759 2625 
L 5428 2253 
Q 4694 2481 4058 2956 
Q 3422 3431 3194 3897 
z
M 5997 447 
L 403 447 
L 403 863 
L 5997 863 
L 5997 447 
z
" transform="scale(0.015625)"/>
       <path id="MalgunGothic-cf00" d="M 5044 -563 
L 5044 5466 
L 5509 5466 
L 5509 -563 
L 5044 -563 
z
M 3938 -363 
L 3938 2700 
L 2803 2700 
L 2803 3116 
L 3938 3116 
L 3938 5344 
L 4397 5344 
L 4397 -363 
L 3938 -363 
z
M 3078 4941 
Q 2978 2403 813 872 
L 441 1197 
Q 1059 1538 1543 2113 
Q 2028 2688 2253 3231 
L 722 3034 
L 556 3475 
L 2406 3616 
Q 2556 4047 2584 4531 
L 800 4531 
L 800 4941 
L 3078 4941 
z
" transform="scale(0.015625)"/>
       <path id="MalgunGothic-c77c" d="M 4947 2363 
L 4947 5466 
L 5422 5466 
L 5422 2363 
L 4947 2363 
z
M 2419 2578 
Q 1738 2578 1314 2970 
Q 891 3363 891 3969 
Q 891 4572 1314 4961 
Q 1738 5350 2419 5350 
Q 3097 5350 3523 4959 
Q 3950 4569 3950 3969 
Q 3950 3366 3522 2972 
Q 3094 2578 2419 2578 
z
M 2419 4947 
Q 1931 4947 1643 4680 
Q 1356 4413 1356 3969 
Q 1356 3522 1643 3248 
Q 1931 2975 2419 2975 
Q 2906 2975 3193 3248 
Q 3481 3522 3481 3969 
Q 3481 4413 3193 4680 
Q 2906 4947 2419 4947 
z
M 1703 -422 
L 1703 1038 
L 4959 1038 
L 4959 1613 
L 1703 1613 
L 1703 2028 
L 5422 2028 
L 5422 634 
L 2163 634 
L 2163 -6 
L 5588 -6 
L 5588 -422 
L 1703 -422 
z
" transform="scale(0.015625)"/>
      </defs>
      <use xlink:href="#MalgunGothic-bc8c"/>
      <use xlink:href="#MalgunGothic-ae08" transform="translate(100 0)"/>
      <use xlink:href="#MalgunGothic-20" transform="translate(200 0)"/>
      <use xlink:href="#MalgunGothic-28" transform="translate(235.15625 0)"/>
      <use xlink:href="#MalgunGothic-55" transform="translate(265.625 0)"/>
      <use xlink:href="#MalgunGothic-53" transform="translate(335.888672 0)"/>
      <use xlink:href="#MalgunGothic-44" transform="translate(390.185547 0)"/>
      <use xlink:href="#MalgunGothic-2c" transform="translate(455.164062 0)"/>
      <use xlink:href="#MalgunGothic-20" transform="translate(477.039062 0)"/>
      <use xlink:href="#MalgunGothic-b85c" transform="translate(512.195312 0)"/>
      <use xlink:href="#MalgunGothic-adf8" transform="translate(612.195312 0)"/>
      <use xlink:href="#MalgunGothic-c2a4" transform="translate(712.195312 0)"/>
      <use xlink:href="#MalgunGothic-cf00" transform="translate(812.195312 0)"/>
      <use xlink:href="#MalgunGothic-c77c" transform="translate(912.195312 0)"/>
      <use xlink:href="#MalgunGothic-29" transform="translate(1012.195312 0)"/>
     </g>
    </g>
   </g>
   <g id="patch_3">
    <path d="M 113.184 39155.090394 
L 173.090494 39155.090394 
L 173.090494 248.191063 
L 113.184 248.191063 
z
" clip-path="url(#p02401e0ce1)" style="fill: #6b7280; stroke: #111418; stroke-width: 0.6; stroke-linejoin: miter"/>
   </g>
   <g id="patch_4">
    <path d="M 209.807377 39155.090394 
L 269.71387 39155.090394 
L 269.71387 152.522927 
L 209.807377 152.522927 
z
" clip-path="url(#p02401e0ce1)" style="fill: #7e8ba4; stroke: #111418; stroke-width: 0.6; stroke-linejoin: miter"/>
   </g>
   <g id="patch_5">
    <path d="M 306.430753 39155.090394 
L 366.337247 39155.090394 
L 366.337247 188.07485 
L 306.430753 188.07485 
z
" clip-path="url(#p02401e0ce1)" style="fill: #4a5f7e; stroke: #111418; stroke-width: 0.6; stroke-linejoin: miter"/>
   </g>
   <g id="patch_6">
    <path d="M 403.05413 39155.090394 
L 462.960623 39155.090394 
L 462.960623 104.650685 
L 403.05413 104.650685 
z
" clip-path="url(#p02401e0ce1)" style="fill: #c9a646; stroke: #111418; stroke-width: 0.6; stroke-linejoin: miter"/>
   </g>
   <g id="patch_7">
    <path d="M 499.677506 39155.090394 
L 559.584 39155.090394 
L 559.584 68.47282 
L 499.677506 68.47282 
z
" clip-path="url(#p02401e0ce1)" style="fill: #1a2e4a; stroke: #111418; stroke-width: 0.6; stroke-linejoin: miter"/>
   </g>
   <g id="patch_8">
    <path d="M 90.864 286.565062 
L 90.864 42.629062 
" style="fill: none; stroke: #111418; stroke-width: 0.8; stroke-linejoin: miter; stroke-linecap: square"/>
   </g>
   <g id="patch_9">
    <path d="M 90.864 286.565062 
L 581.904 286.565062 
" style="fill: none; stroke: #111418; stroke-width: 0.8; stroke-linejoin: miter; stroke-linecap: square"/>
   </g>
   <g id="text_14">
    <!-- $98K -->
    <g style="fill: #111418" transform="translate(131.219278 241.827) scale(0.1 -0.1)">
     <defs>
      <path id="MalgunGothicBold-24" d="M 2109 -672 
L 1678 -672 
L 1678 3 
Q 1019 9 497 294 
L 497 1088 
Q 678 934 1036 809 
Q 1394 684 1678 672 
L 1678 1978 
Q 1019 2228 725 2547 
Q 431 2866 431 3350 
Q 431 3841 784 4195 
Q 1138 4550 1678 4603 
L 1678 5194 
L 2109 5194 
L 2109 4613 
Q 2772 4584 3075 4406 
L 3075 3634 
Q 2659 3903 2109 3950 
L 2109 2594 
Q 2759 2334 3065 2031 
Q 3372 1728 3372 1253 
Q 3372 744 3037 420 
Q 2703 97 2109 28 
L 2109 -672 
z
M 1678 3938 
Q 1191 3844 1191 3406 
Q 1191 3213 1292 3073 
Q 1394 2934 1678 2778 
L 1678 3938 
z
M 2109 688 
Q 2613 778 2613 1209 
Q 2613 1556 2109 1800 
L 2109 688 
z
" transform="scale(0.015625)"/>
      <path id="MalgunGothicBold-39" d="M 525 831 
Q 894 600 1381 600 
Q 1953 600 2253 1011 
Q 2553 1422 2553 2144 
L 2538 2150 
Q 2241 1656 1581 1656 
Q 997 1656 631 2064 
Q 266 2472 266 3075 
Q 266 3784 706 4229 
Q 1147 4675 1847 4675 
Q 2591 4675 3000 4109 
Q 3409 3544 3409 2534 
Q 3409 1306 2896 612 
Q 2384 -81 1447 -81 
Q 909 -81 525 91 
L 525 831 
z
M 1125 3159 
Q 1125 2778 1314 2553 
Q 1503 2328 1838 2328 
Q 2138 2328 2328 2540 
Q 2519 2753 2519 3056 
Q 2519 3441 2325 3719 
Q 2131 3997 1813 3997 
Q 1497 3997 1311 3750 
Q 1125 3503 1125 3159 
z
" transform="scale(0.015625)"/>
      <path id="MalgunGothicBold-38" d="M 313 1238 
Q 313 1634 536 1945 
Q 759 2256 1181 2409 
Q 847 2581 655 2851 
Q 463 3122 463 3453 
Q 463 3794 645 4073 
Q 828 4353 1159 4514 
Q 1491 4675 1891 4675 
Q 2294 4675 2628 4517 
Q 2963 4359 3145 4082 
Q 3328 3806 3328 3466 
Q 3328 2788 2572 2431 
Q 2991 2281 3223 1972 
Q 3456 1663 3456 1247 
Q 3456 638 3029 278 
Q 2603 -81 1881 -81 
Q 1169 -81 741 276 
Q 313 634 313 1238 
z
M 1147 1294 
Q 1147 947 1344 756 
Q 1541 566 1884 566 
Q 2238 566 2431 758 
Q 2625 950 2625 1294 
Q 2625 1609 2415 1829 
Q 2206 2050 1884 2050 
Q 1569 2050 1358 1836 
Q 1147 1622 1147 1294 
z
M 1288 3391 
Q 1288 3119 1466 2925 
Q 1644 2731 1897 2731 
Q 2156 2731 2334 2926 
Q 2513 3122 2513 3391 
Q 2513 3694 2347 3861 
Q 2181 4028 1897 4028 
Q 1613 4028 1450 3859 
Q 1288 3691 1288 3391 
z
" transform="scale(0.015625)"/>
      <path id="MalgunGothicBold-4b" d="M 4188 0 
L 3041 0 
L 1575 2028 
Q 1525 2100 1453 2253 
L 1438 2253 
L 1438 0 
L 547 0 
L 547 4600 
L 1438 4600 
L 1438 2425 
L 1453 2425 
Q 1491 2513 1578 2656 
L 2978 4600 
L 4050 4600 
L 2338 2403 
L 4188 0 
z
" transform="scale(0.015625)"/>
     </defs>
     <use xlink:href="#MalgunGothicBold-24"/>
     <use xlink:href="#MalgunGothicBold-39" transform="translate(57.958984 0)"/>
     <use xlink:href="#MalgunGothicBold-38" transform="translate(115.917969 0)"/>
     <use xlink:href="#MalgunGothicBold-4b" transform="translate(173.876953 0)"/>
    </g>
   </g>
   <g id="text_15">
    <!-- $29M -->
    <g style="fill: #111418" transform="translate(226.24578 146.158864) scale(0.1 -0.1)">
     <defs>
      <path id="MalgunGothicBold-32" d="M 1322 734 
L 3272 734 
L 3272 0 
L 400 0 
L 400 347 
Q 400 719 526 1033 
Q 653 1347 889 1620 
Q 1125 1894 1881 2459 
Q 2175 2678 2303 2878 
Q 2431 3078 2431 3325 
Q 2431 3631 2251 3801 
Q 2072 3972 1694 3972 
Q 1103 3972 559 3503 
L 559 4288 
Q 1116 4675 1819 4675 
Q 2531 4675 2920 4328 
Q 3309 3981 3309 3369 
Q 3309 3053 3207 2809 
Q 3106 2566 2939 2367 
Q 2772 2169 2555 1998 
Q 2338 1828 2109 1659 
Q 1688 1347 1505 1125 
Q 1322 903 1322 734 
z
" transform="scale(0.015625)"/>
      <path id="MalgunGothicBold-4d" d="M 4744 0 
L 4744 2850 
Q 4744 3163 4781 3806 
L 4763 3806 
Q 4684 3413 4619 3244 
L 3400 0 
L 2722 0 
L 1488 3216 
Q 1441 3341 1344 3806 
L 1322 3806 
Q 1356 3297 1356 2700 
L 1356 0 
L 547 0 
L 547 4600 
L 1828 4600 
L 2903 1734 
Q 3038 1378 3081 1103 
L 3103 1103 
Q 3172 1375 3297 1741 
L 4381 4600 
L 5625 4600 
L 5625 0 
L 4744 0 
z
" transform="scale(0.015625)"/>
     </defs>
     <use xlink:href="#MalgunGothicBold-24"/>
     <use xlink:href="#MalgunGothicBold-32" transform="translate(57.958984 0)"/>
     <use xlink:href="#MalgunGothicBold-39" transform="translate(115.917969 0)"/>
     <use xlink:href="#MalgunGothicBold-4d" transform="translate(173.876953 0)"/>
    </g>
   </g>
   <g id="text_16">
    <!-- $4M -->
    <g style="fill: #111418" transform="translate(325.766813 181.710788) scale(0.1 -0.1)">
     <defs>
      <path id="MalgunGothicBold-34" d="M 2969 4600 
L 2969 1653 
L 3519 1653 
L 3519 1016 
L 2969 1016 
L 2969 0 
L 2163 0 
L 2163 1016 
L 159 1016 
L 159 1688 
Q 788 2406 1325 3189 
Q 1863 3972 2147 4600 
L 2969 4600 
z
M 900 1653 
L 2163 1653 
L 2163 3434 
Q 1972 3094 1622 2592 
Q 1272 2091 900 1653 
z
" transform="scale(0.015625)"/>
     </defs>
     <use xlink:href="#MalgunGothicBold-24"/>
     <use xlink:href="#MalgunGothicBold-34" transform="translate(57.958984 0)"/>
     <use xlink:href="#MalgunGothicBold-4d" transform="translate(115.917969 0)"/>
    </g>
   </g>
   <g id="text_17">
    <!-- $500M -->
    <g style="fill: #111418" transform="translate(416.594877 98.286623) scale(0.1 -0.1)">
     <defs>
      <path id="MalgunGothicBold-35" d="M 472 138 
L 472 928 
Q 681 769 948 684 
Q 1216 600 1472 600 
Q 1913 600 2166 812 
Q 2419 1025 2419 1403 
Q 2419 1797 2151 1976 
Q 1884 2156 1331 2156 
Q 956 2156 544 2091 
L 716 4600 
L 3097 4600 
L 3097 3875 
L 1434 3875 
L 1356 2806 
Q 1706 2847 1819 2847 
Q 2491 2847 2898 2478 
Q 3306 2109 3306 1497 
Q 3306 756 2837 337 
Q 2369 -81 1556 -81 
Q 875 -81 472 138 
z
" transform="scale(0.015625)"/>
      <path id="MalgunGothicBold-30" d="M 241 2222 
Q 241 3422 670 4048 
Q 1100 4675 1919 4675 
Q 3475 4675 3475 2328 
Q 3475 1172 3051 545 
Q 2628 -81 1825 -81 
Q 241 -81 241 2222 
z
M 1125 2244 
Q 1125 600 1863 600 
Q 2584 600 2584 2288 
Q 2584 3997 1878 3997 
Q 1125 3997 1125 2244 
z
" transform="scale(0.015625)"/>
     </defs>
     <use xlink:href="#MalgunGothicBold-24"/>
     <use xlink:href="#MalgunGothicBold-35" transform="translate(57.958984 0)"/>
     <use xlink:href="#MalgunGothicBold-30" transform="translate(115.917969 0)"/>
     <use xlink:href="#MalgunGothicBold-30" transform="translate(173.876953 0)"/>
     <use xlink:href="#MalgunGothicBold-4d" transform="translate(231.835938 0)"/>
    </g>
   </g>
   <g id="text_18">
    <!-- $4.3B -->
    <g style="fill: #111418" transform="translate(516.443253 62.108758) scale(0.1 -0.1)">
     <defs>
      <path id="MalgunGothicBold-2e" d="M 309 400 
Q 309 609 467 743 
Q 625 878 841 878 
Q 1056 878 1209 743 
Q 1363 609 1363 400 
Q 1363 188 1209 55 
Q 1056 -78 828 -78 
Q 613 -78 461 59 
Q 309 197 309 400 
z
" transform="scale(0.015625)"/>
      <path id="MalgunGothicBold-33" d="M 456 947 
Q 922 600 1531 600 
Q 1931 600 2175 783 
Q 2419 966 2419 1306 
Q 2419 2022 1338 2022 
L 931 2022 
L 931 2703 
L 1309 2703 
Q 2278 2703 2278 3372 
Q 2278 3997 1534 3997 
Q 1069 3997 631 3691 
L 631 4425 
Q 1100 4675 1738 4675 
Q 2372 4675 2769 4375 
Q 3166 4075 3166 3544 
Q 3166 2647 2250 2406 
L 2250 2394 
Q 2728 2344 3018 2042 
Q 3309 1741 3309 1313 
Q 3309 659 2836 289 
Q 2363 -81 1581 -81 
Q 894 -81 456 156 
L 456 947 
z
" transform="scale(0.015625)"/>
      <path id="MalgunGothicBold-42" d="M 547 0 
L 547 4600 
L 2113 4600 
Q 2822 4600 3222 4317 
Q 3622 4034 3622 3528 
Q 3622 3159 3387 2876 
Q 3153 2594 2756 2472 
L 2756 2463 
Q 3244 2400 3531 2100 
Q 3819 1800 3819 1356 
Q 3819 738 3375 369 
Q 2931 0 2188 0 
L 547 0 
z
M 1438 3916 
L 1438 2709 
L 1922 2709 
Q 2281 2709 2484 2879 
Q 2688 3050 2688 3359 
Q 2688 3916 1894 3916 
L 1438 3916 
z
M 1438 2022 
L 1438 684 
L 2050 684 
Q 2444 684 2662 865 
Q 2881 1047 2881 1369 
Q 2881 2022 2019 2022 
L 1438 2022 
z
" transform="scale(0.015625)"/>
     </defs>
     <use xlink:href="#MalgunGothicBold-24"/>
     <use xlink:href="#MalgunGothicBold-34" transform="translate(57.958984 0)"/>
     <use xlink:href="#MalgunGothicBold-2e" transform="translate(115.917969 0)"/>
     <use xlink:href="#MalgunGothicBold-33" transform="translate(142.089844 0)"/>
     <use xlink:href="#MalgunGothicBold-42" transform="translate(200.048828 0)"/>
    </g>
   </g>
   <g id="text_19">
    <!-- 가상자산 AML 벌금 궤적 — 5년 만에 $98K → $4.3B -->
    <g style="fill: #111418" transform="translate(90.864 28.629062) scale(0.14 -0.14)">
     <defs>
      <path id="MalgunGothicBold-ac00" d="M 5269 2431 
L 5269 -563 
L 4481 -563 
L 4481 5466 
L 5269 5466 
L 5269 3091 
L 6203 3091 
L 6203 2431 
L 5269 2431 
z
M 978 756 
L 391 1306 
Q 2413 2416 2834 4288 
L 738 4288 
L 738 4947 
L 3725 4947 
Q 3478 2297 978 756 
z
" transform="scale(0.015625)"/>
      <path id="MalgunGothicBold-c0c1" d="M 5259 3328 
L 5259 1947 
L 4475 1947 
L 4475 5466 
L 5259 5466 
L 5259 3988 
L 6175 3988 
L 6175 3328 
L 5259 3328 
z
M 3591 2209 
Q 2653 2656 2216 3353 
Q 2053 3028 1625 2615 
Q 1197 2203 872 2028 
L 300 2591 
Q 969 2884 1387 3418 
Q 1806 3953 1806 4525 
L 1806 5275 
L 2591 5275 
L 2591 4550 
Q 2591 3975 3020 3494 
Q 3450 3013 4091 2834 
L 3591 2209 
z
M 3347 -538 
Q 2388 -538 1863 -208 
Q 1338 122 1338 666 
Q 1338 1206 1869 1531 
Q 2400 1856 3347 1856 
Q 4297 1856 4826 1532 
Q 5356 1209 5356 666 
Q 5356 119 4829 -209 
Q 4303 -538 3347 -538 
z
M 3347 1203 
Q 2150 1203 2150 666 
Q 2150 116 3347 116 
Q 4550 116 4550 666 
Q 4550 1203 3347 1203 
z
" transform="scale(0.015625)"/>
      <path id="MalgunGothicBold-c790" d="M 5259 2491 
L 5259 -563 
L 4481 -563 
L 4481 5466 
L 5259 5466 
L 5259 3150 
L 6203 3150 
L 6203 2491 
L 5259 2491 
z
M 3591 928 
Q 2644 1606 2234 2369 
Q 1994 1925 1601 1470 
Q 1209 1016 884 813 
L 306 1313 
Q 894 1597 1366 2281 
Q 1838 2966 1838 3641 
L 1838 4300 
L 531 4300 
L 531 4959 
L 3897 4959 
L 3897 4300 
L 2619 4300 
L 2619 3659 
Q 2619 3022 3072 2390 
Q 3525 1759 4109 1503 
L 3591 928 
z
" transform="scale(0.015625)"/>
      <path id="MalgunGothicBold-c0b0" d="M 5253 2988 
L 5253 1125 
L 4475 1125 
L 4475 5466 
L 5253 5466 
L 5253 3647 
L 6175 3647 
L 6175 2988 
L 5253 2988 
z
M 3591 2016 
Q 2719 2431 2216 3225 
Q 2044 2881 1612 2440 
Q 1181 2000 872 1838 
L 300 2400 
Q 938 2675 1372 3244 
Q 1806 3813 1806 4397 
L 1806 5209 
L 2591 5209 
L 2591 4422 
Q 2591 3841 3030 3328 
Q 3469 2816 4091 2644 
L 3591 2016 
z
M 1484 -353 
L 1484 1638 
L 2272 1638 
L 2272 306 
L 5422 306 
L 5422 -353 
L 1484 -353 
z
" transform="scale(0.015625)"/>
      <path id="MalgunGothicBold-20" transform="scale(0.015625)"/>
      <path id="MalgunGothicBold-41" d="M 4447 0 
L 3475 0 
L 3103 1100 
L 1375 1100 
L 1013 0 
L 41 0 
L 1744 4600 
L 2772 4600 
L 4447 0 
z
M 2881 1806 
L 2319 3472 
Q 2284 3572 2247 3853 
L 2225 3853 
Q 2200 3644 2147 3478 
L 1581 1806 
L 2881 1806 
z
" transform="scale(0.015625)"/>
      <path id="MalgunGothicBold-4c" d="M 3178 0 
L 547 0 
L 547 4600 
L 1438 4600 
L 1438 738 
L 3178 738 
L 3178 0 
z
" transform="scale(0.015625)"/>
      <path id="MalgunGothicBold-bc8c" d="M 722 2638 
L 722 5269 
L 1466 5269 
L 1466 4550 
L 2875 4550 
L 2875 5269 
L 3622 5269 
L 3622 4269 
L 4794 4269 
L 4794 5466 
L 5563 5466 
L 5563 2438 
L 4794 2438 
L 4794 3603 
L 3622 3603 
L 3622 2638 
L 722 2638 
z
M 2875 3891 
L 1466 3891 
L 1466 3291 
L 2875 3291 
L 2875 3891 
z
M 1663 -466 
L 1663 1178 
L 4794 1178 
L 4794 1556 
L 1663 1556 
L 1663 2203 
L 5563 2203 
L 5563 581 
L 2438 581 
L 2438 178 
L 5716 178 
L 5716 -466 
L 1663 -466 
z
" transform="scale(0.015625)"/>
      <path id="MalgunGothicBold-ae08" d="M 403 2578 
L 403 3238 
L 4319 3238 
Q 4372 4069 4372 4672 
L 1216 4672 
L 1216 5331 
L 5159 5331 
Q 5159 4513 5075 3238 
L 5997 3238 
L 5997 2578 
L 403 2578 
z
M 1228 -434 
L 1228 1838 
L 5172 1838 
L 5172 -434 
L 1228 -434 
z
M 4391 1178 
L 2009 1178 
L 2009 219 
L 4391 219 
L 4391 1178 
z
" transform="scale(0.015625)"/>
      <path id="MalgunGothicBold-ada4" d="M 4806 -563 
L 4806 5466 
L 5588 5466 
L 5588 -563 
L 4806 -563 
z
M 3675 -372 
L 3675 1153 
L 2753 1153 
L 2753 1791 
L 3675 1791 
L 3675 5344 
L 4453 5344 
L 4453 -372 
L 3675 -372 
z
M 1491 -238 
L 1491 2203 
Q 663 2188 294 2188 
L 206 2828 
Q 1078 2828 2228 2869 
Q 2309 3638 2309 4397 
L 634 4397 
L 634 5056 
L 3078 5056 
Q 3078 4009 2963 2900 
Q 3088 2909 3203 2916 
Q 3319 2922 3425 2931 
L 3469 2284 
Q 2941 2247 2266 2228 
L 2266 -238 
L 1491 -238 
z
" transform="scale(0.015625)"/>
      <path id="MalgunGothicBold-c801" d="M 4794 1966 
L 4794 3438 
L 3641 3438 
L 3641 4072 
L 4794 4072 
L 4794 5466 
L 5563 5466 
L 5563 1966 
L 4794 1966 
z
M 3603 2059 
Q 2719 2500 2259 3163 
Q 2100 2834 1695 2440 
Q 1291 2047 897 1856 
L 341 2406 
Q 972 2647 1408 3172 
Q 1844 3697 1844 4250 
L 1844 4556 
L 603 4556 
L 603 5209 
L 3841 5209 
L 3841 4556 
L 2631 4556 
L 2631 4275 
Q 2631 3741 3039 3303 
Q 3447 2866 4103 2656 
L 3603 2059 
z
M 4781 -563 
L 4781 1050 
L 1544 1050 
L 1544 1709 
L 5563 1709 
L 5563 -563 
L 4781 -563 
z
" transform="scale(0.015625)"/>
      <path id="DejaVuSansDisplay-2014" d="M 313 1978 
L 6088 1978 
L 6088 1528 
L 313 1528 
L 313 1978 
z
" transform="scale(0.015625)"/>
      <path id="MalgunGothicBold-b144" d="M 3103 3219 
L 3103 3834 
L 4709 3834 
L 4709 4288 
L 3103 4288 
L 3103 4903 
L 4709 4903 
L 4709 5466 
L 5478 5466 
L 5478 1147 
L 4709 1147 
L 4709 3219 
L 3103 3219 
z
M 4172 2266 
Q 3444 2125 850 2125 
L 850 5247 
L 1619 5247 
L 1619 2766 
L 2484 2766 
Q 3244 2766 4078 2888 
L 4172 2266 
z
M 1644 -331 
L 1644 1703 
L 2419 1703 
L 2419 325 
L 5606 325 
L 5606 -331 
L 1644 -331 
z
" transform="scale(0.015625)"/>
      <path id="MalgunGothicBold-b9cc" d="M 5253 3016 
L 5253 1125 
L 4475 1125 
L 4475 5466 
L 5253 5466 
L 5253 3675 
L 6175 3675 
L 6175 3016 
L 5253 3016 
z
M 672 2338 
L 672 5075 
L 3494 5075 
L 3494 2338 
L 672 2338 
z
M 2719 4422 
L 1453 4422 
L 1453 2988 
L 2719 2988 
L 2719 4422 
z
M 1484 -353 
L 1484 1703 
L 2272 1703 
L 2272 306 
L 5422 306 
L 5422 -353 
L 1484 -353 
z
" transform="scale(0.015625)"/>
      <path id="MalgunGothicBold-c5d0" d="M 4922 -563 
L 4922 5466 
L 5678 5466 
L 5678 -563 
L 4922 -563 
z
M 3169 3353 
L 3775 3353 
L 3775 5344 
L 4513 5344 
L 4513 -384 
L 3775 -384 
L 3775 2688 
L 3175 2688 
Q 3122 1800 2772 1351 
Q 2422 903 1819 903 
Q 1150 903 798 1439 
Q 447 1975 447 2988 
Q 447 3997 800 4536 
Q 1153 5075 1819 5075 
Q 2409 5075 2757 4642 
Q 3106 4209 3169 3353 
z
M 1819 4409 
Q 1203 4409 1203 2988 
Q 1203 1569 1819 1569 
Q 2113 1569 2272 1934 
Q 2431 2300 2431 2988 
Q 2431 3672 2273 4040 
Q 2116 4409 1819 4409 
z
" transform="scale(0.015625)"/>
      <path id="DejaVuSans-39" d="M 703 97 
L 703 672 
Q 941 559 1184 500 
Q 1428 441 1663 441 
Q 2288 441 2617 861 
Q 2947 1281 2994 2138 
Q 2813 1869 2534 1725 
Q 2256 1581 1919 1581 
Q 1219 1581 811 2004 
Q 403 2428 403 3163 
Q 403 3881 828 4315 
Q 1253 4750 1959 4750 
Q 2769 4750 3195 4129 
Q 3622 3509 3622 2328 
Q 3622 1225 3098 567 
Q 2575 -91 1691 -91 
Q 1453 -91 1209 -44 
Q 966 3 703 97 
z
M 1959 2075 
Q 2384 2075 2632 2365 
Q 2881 2656 2881 3163 
Q 2881 3666 2632 3958 
Q 2384 4250 1959 4250 
Q 1534 4250 1286 3958 
Q 1038 3666 1038 3163 
Q 1038 2656 1286 2365 
Q 1534 2075 1959 2075 
z
" transform="scale(0.015625)"/>
      <path id="DejaVuSans-38" d="M 2034 2216 
Q 1584 2216 1326 1975 
Q 1069 1734 1069 1313 
Q 1069 891 1326 650 
Q 1584 409 2034 409 
Q 2484 409 2743 651 
Q 3003 894 3003 1313 
Q 3003 1734 2745 1975 
Q 2488 2216 2034 2216 
z
M 1403 2484 
Q 997 2584 770 2862 
Q 544 3141 544 3541 
Q 544 4100 942 4425 
Q 1341 4750 2034 4750 
Q 2731 4750 3128 4425 
Q 3525 4100 3525 3541 
Q 3525 3141 3298 2862 
Q 3072 2584 2669 2484 
Q 3125 2378 3379 2068 
Q 3634 1759 3634 1313 
Q 3634 634 3220 271 
Q 2806 -91 2034 -91 
Q 1263 -91 848 271 
Q 434 634 434 1313 
Q 434 1759 690 2068 
Q 947 2378 1403 2484 
z
M 1172 3481 
Q 1172 3119 1398 2916 
Q 1625 2713 2034 2713 
Q 2441 2713 2670 2916 
Q 2900 3119 2900 3481 
Q 2900 3844 2670 4047 
Q 2441 4250 2034 4250 
Q 1625 4250 1398 4047 
Q 1172 3844 1172 3481 
z
" transform="scale(0.015625)"/>
      <path id="DejaVuSans-Oblique-4b" d="M 1081 4666 
L 1716 4666 
L 1331 2700 
L 3781 4666 
L 4622 4666 
L 1850 2438 
L 3878 0 
L 3109 0 
L 1247 2272 
L 806 0 
L 172 0 
L 1081 4666 
z
" transform="scale(0.015625)"/>
      <path id="DejaVuSans-2192" d="M 5050 2147 
L 5050 1866 
L 3822 638 
L 3447 1013 
L 4175 1741 
L 366 1741 
L 366 2272 
L 4175 2272 
L 3447 3000 
L 3822 3375 
L 5050 2147 
z
" transform="scale(0.015625)"/>
     </defs>
     <use xlink:href="#MalgunGothicBold-ac00" transform="translate(0 0.59375)"/>
     <use xlink:href="#MalgunGothicBold-c0c1" transform="translate(100 0.59375)"/>
     <use xlink:href="#MalgunGothicBold-c790" transform="translate(200 0.59375)"/>
     <use xlink:href="#MalgunGothicBold-c0b0" transform="translate(300 0.59375)"/>
     <use xlink:href="#MalgunGothicBold-20" transform="translate(400 0.59375)"/>
     <use xlink:href="#MalgunGothicBold-41" transform="translate(435.15625 0.59375)"/>
     <use xlink:href="#MalgunGothicBold-4d" transform="translate(505.517578 0.59375)"/>
     <use xlink:href="#MalgunGothicBold-4c" transform="translate(601.953125 0.59375)"/>
     <use xlink:href="#MalgunGothicBold-20" transform="translate(653.173828 0.59375)"/>
     <use xlink:href="#MalgunGothicBold-bc8c" transform="translate(688.330078 0.59375)"/>
     <use xlink:href="#MalgunGothicBold-ae08" transform="translate(788.330078 0.59375)"/>
     <use xlink:href="#MalgunGothicBold-20" transform="translate(888.330078 0.59375)"/>
     <use xlink:href="#MalgunGothicBold-ada4" transform="translate(923.486328 0.59375)"/>
     <use xlink:href="#MalgunGothicBold-c801" transform="translate(1023.486328 0.59375)"/>
     <use xlink:href="#MalgunGothicBold-20" transform="translate(1123.486328 0.59375)"/>
     <use xlink:href="#DejaVuSansDisplay-2014" transform="translate(1158.642578 0.59375)"/>
     <use xlink:href="#MalgunGothicBold-20" transform="translate(1258.642578 0.59375)"/>
     <use xlink:href="#MalgunGothicBold-35" transform="translate(1293.798828 0.59375)"/>
     <use xlink:href="#MalgunGothicBold-b144" transform="translate(1351.757812 0.59375)"/>
     <use xlink:href="#MalgunGothicBold-20" transform="translate(1451.757812 0.59375)"/>
     <use xlink:href="#MalgunGothicBold-b9cc" transform="translate(1486.914062 0.59375)"/>
     <use xlink:href="#MalgunGothicBold-c5d0" transform="translate(1586.914062 0.59375)"/>
     <use xlink:href="#MalgunGothicBold-20" transform="translate(1686.914062 0.59375)"/>
     <use xlink:href="#DejaVuSans-39" transform="translate(1722.070312 0.59375)"/>
     <use xlink:href="#DejaVuSans-38" transform="translate(1785.693359 0.59375)"/>
     <use xlink:href="#DejaVuSans-Oblique-4b" transform="translate(1849.316406 0.59375)"/>
     <use xlink:href="#DejaVuSans-2192" transform="translate(1914.892578 0.59375)"/>
     <use xlink:href="#MalgunGothicBold-34" transform="translate(1998.681641 0.59375)"/>
     <use xlink:href="#MalgunGothicBold-2e" transform="translate(2056.640625 0.59375)"/>
     <use xlink:href="#MalgunGothicBold-33" transform="translate(2080.0625 0.59375)"/>
     <use xlink:href="#MalgunGothicBold-42" transform="translate(2138.021484 0.59375)"/>
    </g>
   </g>
  </g>
  <g id="text_20">
   <!-- Source: DOJ · FinCEN · OFAC press releases -->
   <g style="fill: #6b7280" transform="translate(18 334.085062) scale(0.075 -0.075)">
    <defs>
     <path id="MalgunGothic-3a" d="M 356 3006 
Q 356 3153 459 3254 
Q 563 3356 700 3356 
Q 838 3356 941 3254 
Q 1044 3153 1044 3006 
Q 1044 2863 942 2761 
Q 841 2659 700 2659 
Q 559 2659 457 2761 
Q 356 2863 356 3006 
z
M 356 275 
Q 356 422 459 523 
Q 563 625 700 625 
Q 838 625 941 523 
Q 1044 422 1044 275 
Q 1044 138 942 33 
Q 841 -72 700 -72 
Q 559 -72 457 29 
Q 356 131 356 275 
z
" transform="scale(0.015625)"/>
     <path id="MalgunGothic-4a" d="M 1734 1634 
Q 1734 822 1398 372 
Q 1063 -78 491 -78 
Q 244 -78 63 -3 
L 63 500 
Q 234 381 503 381 
Q 1228 381 1228 1628 
L 1228 4600 
L 1734 4600 
L 1734 1634 
z
" transform="scale(0.015625)"/>
     <path id="MalgunGothic-b7" d="M 700 1644 
Q 628 1644 565 1672 
Q 503 1700 456 1747 
Q 409 1794 382 1858 
Q 356 1922 356 1994 
Q 356 2066 382 2130 
Q 409 2194 456 2241 
Q 503 2288 565 2316 
Q 628 2344 700 2344 
Q 772 2344 834 2316 
Q 897 2288 944 2241 
Q 991 2194 1017 2130 
Q 1044 2066 1044 1994 
Q 1044 1925 1017 1861 
Q 991 1797 944 1748 
Q 897 1700 834 1672 
Q 772 1644 700 1644 
z
" transform="scale(0.015625)"/>
     <path id="MalgunGothic-46" d="M 2922 4134 
L 1113 4134 
L 1113 2516 
L 2788 2516 
L 2788 2050 
L 1113 2050 
L 1113 0 
L 609 0 
L 609 4600 
L 2922 4600 
L 2922 4134 
z
" transform="scale(0.015625)"/>
     <path id="MalgunGothic-43" d="M 3725 197 
Q 3216 -78 2459 -78 
Q 1488 -78 897 561 
Q 306 1200 306 2213 
Q 306 3281 959 3978 
Q 1613 4675 2644 4675 
Q 3297 4675 3725 4484 
L 3725 3941 
Q 3234 4213 2634 4213 
Q 1813 4213 1325 3659 
Q 838 3106 838 2241 
Q 838 1413 1297 897 
Q 1756 381 2522 381 
Q 3216 381 3725 688 
L 3725 197 
z
" transform="scale(0.015625)"/>
     <path id="MalgunGothic-45" d="M 3025 0 
L 609 0 
L 609 4600 
L 2922 4600 
L 2922 4134 
L 1113 4134 
L 1113 2572 
L 2784 2572 
L 2784 2109 
L 1113 2109 
L 1113 463 
L 3025 463 
L 3025 0 
z
" transform="scale(0.015625)"/>
     <path id="MalgunGothic-4e" d="M 4288 0 
L 3653 0 
L 1253 3713 
Q 1178 3828 1109 4000 
L 1094 4000 
Q 1116 3822 1116 3372 
L 1116 0 
L 609 0 
L 609 4600 
L 1278 4600 
L 3613 938 
Q 3775 684 3797 634 
L 3809 634 
Q 3775 863 3775 1316 
L 3775 4600 
L 4288 4600 
L 4288 0 
z
" transform="scale(0.015625)"/>
     <path id="MalgunGothic-41" d="M 4134 0 
L 3575 0 
L 3075 1306 
L 1103 1306 
L 638 0 
L 75 0 
L 1844 4600 
L 2356 4600 
L 4134 0 
z
M 2903 1769 
L 2169 3756 
Q 2128 3866 2100 4059 
L 2084 4059 
Q 2050 3844 2009 3756 
L 1281 1769 
L 2903 1769 
z
" transform="scale(0.015625)"/>
     <path id="MalgunGothic-70" d="M 1034 481 
L 1034 -1513 
L 538 -1513 
L 538 3284 
L 1034 3284 
L 1034 2703 
L 1047 2703 
Q 1438 3359 2184 3359 
Q 2809 3359 3171 2920 
Q 3534 2481 3534 1738 
Q 3534 906 3126 414 
Q 2719 -78 2034 -78 
Q 1394 -78 1047 481 
L 1034 481 
z
M 1034 1331 
Q 1034 922 1307 633 
Q 1581 344 1991 344 
Q 2475 344 2751 716 
Q 3028 1088 3028 1753 
Q 3028 2300 2767 2620 
Q 2506 2941 2072 2941 
Q 1619 2941 1326 2619 
Q 1034 2297 1034 1806 
L 1034 1331 
z
" transform="scale(0.015625)"/>
     <path id="MalgunGothic-73" d="M 331 669 
Q 763 350 1278 350 
Q 1978 350 1978 822 
Q 1978 1025 1825 1158 
Q 1672 1291 1222 1459 
Q 703 1666 520 1878 
Q 338 2091 338 2416 
Q 338 2834 700 3096 
Q 1063 3359 1584 3359 
Q 2003 3359 2341 3213 
L 2341 2697 
Q 1975 2934 1506 2934 
Q 1200 2934 1025 2798 
Q 850 2663 850 2459 
Q 850 2241 979 2125 
Q 1109 2009 1544 1838 
Q 2131 1609 2309 1390 
Q 2488 1172 2488 869 
Q 2488 431 2127 176 
Q 1766 -78 1203 -78 
Q 694 -78 331 122 
L 331 669 
z
" transform="scale(0.015625)"/>
    </defs>
    <use xlink:href="#MalgunGothic-53"/>
    <use xlink:href="#MalgunGothic-6f" transform="translate(54.296875 0)"/>
    <use xlink:href="#MalgunGothic-75" transform="translate(114.208984 0)"/>
    <use xlink:href="#MalgunGothic-72" transform="translate(172.021484 0)"/>
    <use xlink:href="#MalgunGothic-63" transform="translate(205.998047 0)"/>
    <use xlink:href="#MalgunGothic-65" transform="translate(253.263672 0)"/>
    <use xlink:href="#MalgunGothic-3a" transform="translate(306.779297 0)"/>
    <use xlink:href="#MalgunGothic-20" transform="translate(328.654297 0)"/>
    <use xlink:href="#MalgunGothic-44" transform="translate(363.810547 0)"/>
    <use xlink:href="#MalgunGothic-4f" transform="translate(435.539062 0)"/>
    <use xlink:href="#MalgunGothic-4a" transform="translate(512.382812 0)"/>
    <use xlink:href="#MalgunGothic-20" transform="translate(548.369141 0)"/>
    <use xlink:href="#MalgunGothic-b7" transform="translate(583.525391 0)"/>
    <use xlink:href="#MalgunGothic-20" transform="translate(605.400391 0)"/>
    <use xlink:href="#MalgunGothic-46" transform="translate(640.556641 0)"/>
    <use xlink:href="#MalgunGothic-69" transform="translate(690.410156 0)"/>
    <use xlink:href="#MalgunGothic-6e" transform="translate(715.019531 0)"/>
    <use xlink:href="#MalgunGothic-43" transform="translate(772.832031 0)"/>
    <use xlink:href="#MalgunGothic-45" transform="translate(836.308594 0)"/>
    <use xlink:href="#MalgunGothic-4e" transform="translate(888.017578 0)"/>
    <use xlink:href="#MalgunGothic-20" transform="translate(964.53125 0)"/>
    <use xlink:href="#MalgunGothic-b7" transform="translate(999.6875 0)"/>
    <use xlink:href="#MalgunGothic-20" transform="translate(1021.5625 0)"/>
    <use xlink:href="#MalgunGothic-4f" transform="translate(1056.71875 0)"/>
    <use xlink:href="#MalgunGothic-46" transform="translate(1134.0625 0)"/>
    <use xlink:href="#MalgunGothic-41" transform="translate(1176.916016 0)"/>
    <use xlink:href="#MalgunGothic-43" transform="translate(1241.361328 0)"/>
    <use xlink:href="#MalgunGothic-20" transform="translate(1304.837891 0)"/>
    <use xlink:href="#MalgunGothic-70" transform="translate(1339.994141 0)"/>
    <use xlink:href="#MalgunGothic-72" transform="translate(1400.052734 0)"/>
    <use xlink:href="#MalgunGothic-65" transform="translate(1434.029297 0)"/>
    <use xlink:href="#MalgunGothic-73" transform="translate(1487.544922 0)"/>
    <use xlink:href="#MalgunGothic-73" transform="translate(1530.855469 0)"/>
    <use xlink:href="#MalgunGothic-20" transform="translate(1574.166016 0)"/>
    <use xlink:href="#MalgunGothic-72" transform="translate(1609.322266 0)"/>
    <use xlink:href="#MalgunGothic-65" transform="translate(1643.298828 0)"/>
    <use xlink:href="#MalgunGothic-6c" transform="translate(1696.814453 0)"/>
    <use xlink:href="#MalgunGothic-65" transform="translate(1721.423828 0)"/>
    <use xlink:href="#MalgunGothic-61" transform="translate(1774.939453 0)"/>
    <use xlink:href="#MalgunGothic-73" transform="translate(1826.941406 0)"/>
    <use xlink:href="#MalgunGothic-65" transform="translate(1870.251953 0)"/>
    <use xlink:href="#MalgunGothic-73" transform="translate(1923.767578 0)"/>
   </g>
  </g>
 </g>
 <defs>
  <clipPath id="p02401e0ce1">
   <rect x="90.864" y="42.629062" width="491.04" height="243.936"/>
  </clipPath>
 </defs>
</svg>
