<?xml version="1.0" encoding="utf-8" standalone="no"?>
<!DOCTYPE svg PUBLIC "-//W3C//DTD SVG 1.1//EN"
  "http://www.w3.org/Graphics/SVG/1.1/DTD/svg11.dtd">
<svg xmlns:xlink="http://www.w3.org/1999/xlink" width="599.904pt" height="352.967562pt" viewBox="0 0 599.904 352.967562" xmlns="http://www.w3.org/2000/svg" version="1.1">
 <metadata>
  <rdf:RDF xmlns:dc="http://purl.org/dc/elements/1.1/" xmlns:cc="http://creativecommons.org/ns#" xmlns:rdf="http://www.w3.org/1999/02/22-rdf-syntax-ns#">
   <cc:Work>
    <dc:type rdf:resource="http://purl.org/dc/dcmitype/StillImage"/>
    <dc:date>2026-04-21T10:12:50.522788</dc:date>
    <dc:format>image/svg+xml</dc:format>
    <dc:creator>
     <cc:Agent>
      <dc:title>Matplotlib v3.10.8, https://matplotlib.org/</dc:title>
     </cc:Agent>
    </dc:creator>
   </cc:Work>
  </rdf:RDF>
 </metadata>
 <defs>
  <style type="text/css">*{stroke-linejoin: round; stroke-linecap: butt}</style>
 </defs>
 <g id="figure_1">
  <g id="patch_1">
   <path d="M -0 352.967562 
L 599.904 352.967562 
L 599.904 -0 
L -0 -0 
z
" style="fill: #ffffff"/>
  </g>
  <g id="axes_1">
   <g id="patch_2">
    <path d="M 90.864 285.956937 
L 581.904 285.956937 
L 581.904 42.020938 
L 90.864 42.020938 
z
" style="fill: #ffffff"/>
   </g>
   <g id="matplotlib.axis_1">
    <g id="xtick_1">
     <g id="line2d_1"/>
     <g id="text_1">
      <!-- BitGo -->
      <g style="fill: #262626" transform="translate(131.883028 296.398969) scale(0.09 -0.09)">
       <defs>
        <path id="ArialMT-42" d="M 469 0 
L 469 4581 
L 2188 4581 
Q 2713 4581 3030 4442 
Q 3347 4303 3526 4014 
Q 3706 3725 3706 3409 
Q 3706 3116 3547 2856 
Q 3388 2597 3066 2438 
Q 3481 2316 3704 2022 
Q 3928 1728 3928 1328 
Q 3928 1006 3792 729 
Q 3656 453 3456 303 
Q 3256 153 2954 76 
Q 2653 0 2216 0 
L 469 0 
z
M 1075 2656 
L 2066 2656 
Q 2469 2656 2644 2709 
Q 2875 2778 2992 2937 
Q 3109 3097 3109 3338 
Q 3109 3566 3000 3739 
Q 2891 3913 2687 3977 
Q 2484 4041 1991 4041 
L 1075 4041 
L 1075 2656 
z
M 1075 541 
L 2216 541 
Q 2509 541 2628 563 
Q 2838 600 2978 687 
Q 3119 775 3209 942 
Q 3300 1109 3300 1328 
Q 3300 1584 3169 1773 
Q 3038 1963 2805 2039 
Q 2572 2116 2134 2116 
L 1075 2116 
L 1075 541 
z
" transform="scale(0.015625)"/>
        <path id="ArialMT-69" d="M 425 3934 
L 425 4581 
L 988 4581 
L 988 3934 
L 425 3934 
z
M 425 0 
L 425 3319 
L 988 3319 
L 988 0 
L 425 0 
z
" transform="scale(0.015625)"/>
        <path id="ArialMT-74" d="M 1650 503 
L 1731 6 
Q 1494 -44 1306 -44 
Q 1000 -44 831 53 
Q 663 150 594 308 
Q 525 466 525 972 
L 525 2881 
L 113 2881 
L 113 3319 
L 525 3319 
L 525 4141 
L 1084 4478 
L 1084 3319 
L 1650 3319 
L 1650 2881 
L 1084 2881 
L 1084 941 
Q 1084 700 1114 631 
Q 1144 563 1211 522 
Q 1278 481 1403 481 
Q 1497 481 1650 503 
z
" transform="scale(0.015625)"/>
        <path id="ArialMT-47" d="M 2638 1797 
L 2638 2334 
L 4578 2338 
L 4578 638 
Q 4131 281 3656 101 
Q 3181 -78 2681 -78 
Q 2006 -78 1454 211 
Q 903 500 622 1047 
Q 341 1594 341 2269 
Q 341 2938 620 3517 
Q 900 4097 1425 4378 
Q 1950 4659 2634 4659 
Q 3131 4659 3532 4498 
Q 3934 4338 4162 4050 
Q 4391 3763 4509 3300 
L 3963 3150 
Q 3859 3500 3706 3700 
Q 3553 3900 3268 4020 
Q 2984 4141 2638 4141 
Q 2222 4141 1919 4014 
Q 1616 3888 1430 3681 
Q 1244 3475 1141 3228 
Q 966 2803 966 2306 
Q 966 1694 1177 1281 
Q 1388 869 1791 669 
Q 2194 469 2647 469 
Q 3041 469 3416 620 
Q 3791 772 3984 944 
L 3984 1797 
L 2638 1797 
z
" transform="scale(0.015625)"/>
        <path id="ArialMT-6f" d="M 213 1659 
Q 213 2581 725 3025 
Q 1153 3394 1769 3394 
Q 2453 3394 2887 2945 
Q 3322 2497 3322 1706 
Q 3322 1066 3130 698 
Q 2938 331 2570 128 
Q 2203 -75 1769 -75 
Q 1072 -75 642 372 
Q 213 819 213 1659 
z
M 791 1659 
Q 791 1022 1069 705 
Q 1347 388 1769 388 
Q 2188 388 2466 706 
Q 2744 1025 2744 1678 
Q 2744 2294 2464 2611 
Q 2184 2928 1769 2928 
Q 1347 2928 1069 2612 
Q 791 2297 791 1659 
z
" transform="scale(0.015625)"/>
       </defs>
       <use xlink:href="#ArialMT-42"/>
       <use xlink:href="#ArialMT-69" transform="translate(66.699219 0)"/>
       <use xlink:href="#ArialMT-74" transform="translate(88.916016 0)"/>
       <use xlink:href="#ArialMT-47" transform="translate(116.699219 0)"/>
       <use xlink:href="#ArialMT-6f" transform="translate(194.482422 0)"/>
      </g>
      <!-- (2021) -->
      <g style="fill: #262626" transform="translate(130.130841 306.049781) scale(0.09 -0.09)">
       <defs>
        <path id="ArialMT-28" d="M 1497 -1347 
Q 1031 -759 709 28 
Q 388 816 388 1659 
Q 388 2403 628 3084 
Q 909 3875 1497 4659 
L 1900 4659 
Q 1522 4009 1400 3731 
Q 1209 3300 1100 2831 
Q 966 2247 966 1656 
Q 966 153 1900 -1347 
L 1497 -1347 
z
" transform="scale(0.015625)"/>
        <path id="ArialMT-32" d="M 3222 541 
L 3222 0 
L 194 0 
Q 188 203 259 391 
Q 375 700 629 1000 
Q 884 1300 1366 1694 
Q 2113 2306 2375 2664 
Q 2638 3022 2638 3341 
Q 2638 3675 2398 3904 
Q 2159 4134 1775 4134 
Q 1369 4134 1125 3890 
Q 881 3647 878 3216 
L 300 3275 
Q 359 3922 746 4261 
Q 1134 4600 1788 4600 
Q 2447 4600 2831 4234 
Q 3216 3869 3216 3328 
Q 3216 3053 3103 2787 
Q 2991 2522 2730 2228 
Q 2469 1934 1863 1422 
Q 1356 997 1212 845 
Q 1069 694 975 541 
L 3222 541 
z
" transform="scale(0.015625)"/>
        <path id="ArialMT-30" d="M 266 2259 
Q 266 3072 433 3567 
Q 600 4063 929 4331 
Q 1259 4600 1759 4600 
Q 2128 4600 2406 4451 
Q 2684 4303 2865 4023 
Q 3047 3744 3150 3342 
Q 3253 2941 3253 2259 
Q 3253 1453 3087 958 
Q 2922 463 2592 192 
Q 2263 -78 1759 -78 
Q 1097 -78 719 397 
Q 266 969 266 2259 
z
M 844 2259 
Q 844 1131 1108 757 
Q 1372 384 1759 384 
Q 2147 384 2411 759 
Q 2675 1134 2675 2259 
Q 2675 3391 2411 3762 
Q 2147 4134 1753 4134 
Q 1366 4134 1134 3806 
Q 844 3388 844 2259 
z
" transform="scale(0.015625)"/>
        <path id="ArialMT-31" d="M 2384 0 
L 1822 0 
L 1822 3584 
Q 1619 3391 1289 3197 
Q 959 3003 697 2906 
L 697 3450 
Q 1169 3672 1522 3987 
Q 1875 4303 2022 4600 
L 2384 4600 
L 2384 0 
z
" transform="scale(0.015625)"/>
        <path id="ArialMT-29" d="M 791 -1347 
L 388 -1347 
Q 1322 153 1322 1656 
Q 1322 2244 1188 2822 
Q 1081 3291 891 3722 
Q 769 4003 388 4659 
L 791 4659 
Q 1378 3875 1659 3084 
Q 1900 2403 1900 1659 
Q 1900 816 1576 28 
Q 1253 -759 791 -1347 
z
" transform="scale(0.015625)"/>
       </defs>
       <use xlink:href="#ArialMT-28"/>
       <use xlink:href="#ArialMT-32" transform="translate(33.300781 0)"/>
       <use xlink:href="#ArialMT-30" transform="translate(88.916016 0)"/>
       <use xlink:href="#ArialMT-32" transform="translate(144.53125 0)"/>
       <use xlink:href="#ArialMT-31" transform="translate(200.146484 0)"/>
       <use xlink:href="#ArialMT-29" transform="translate(255.761719 0)"/>
      </g>
     </g>
    </g>
    <g id="xtick_2">
     <g id="line2d_2"/>
     <g id="text_2">
      <!-- Bittrex -->
      <g style="fill: #262626" transform="translate(227.008045 296.398969) scale(0.09 -0.09)">
       <defs>
        <path id="ArialMT-72" d="M 416 0 
L 416 3319 
L 922 3319 
L 922 2816 
Q 1116 3169 1280 3281 
Q 1444 3394 1641 3394 
Q 1925 3394 2219 3213 
L 2025 2691 
Q 1819 2813 1613 2813 
Q 1428 2813 1281 2702 
Q 1134 2591 1072 2394 
Q 978 2094 978 1738 
L 978 0 
L 416 0 
z
" transform="scale(0.015625)"/>
        <path id="ArialMT-65" d="M 2694 1069 
L 3275 997 
Q 3138 488 2766 206 
Q 2394 -75 1816 -75 
Q 1088 -75 661 373 
Q 234 822 234 1631 
Q 234 2469 665 2931 
Q 1097 3394 1784 3394 
Q 2450 3394 2872 2941 
Q 3294 2488 3294 1666 
Q 3294 1616 3291 1516 
L 816 1516 
Q 847 969 1125 678 
Q 1403 388 1819 388 
Q 2128 388 2347 550 
Q 2566 713 2694 1069 
z
M 847 1978 
L 2700 1978 
Q 2663 2397 2488 2606 
Q 2219 2931 1791 2931 
Q 1403 2931 1139 2672 
Q 875 2413 847 1978 
z
" transform="scale(0.015625)"/>
        <path id="ArialMT-78" d="M 47 0 
L 1259 1725 
L 138 3319 
L 841 3319 
L 1350 2541 
Q 1494 2319 1581 2169 
Q 1719 2375 1834 2534 
L 2394 3319 
L 3066 3319 
L 1919 1756 
L 3153 0 
L 2463 0 
L 1781 1031 
L 1600 1309 
L 728 0 
L 47 0 
z
" transform="scale(0.015625)"/>
       </defs>
       <use xlink:href="#ArialMT-42"/>
       <use xlink:href="#ArialMT-69" transform="translate(66.699219 0)"/>
       <use xlink:href="#ArialMT-74" transform="translate(88.916016 0)"/>
       <use xlink:href="#ArialMT-74" transform="translate(116.699219 0)"/>
       <use xlink:href="#ArialMT-72" transform="translate(144.482422 0)"/>
       <use xlink:href="#ArialMT-65" transform="translate(177.783203 0)"/>
       <use xlink:href="#ArialMT-78" transform="translate(233.398438 0)"/>
      </g>
      <!-- (2022) -->
      <g style="fill: #262626" transform="translate(226.754217 306.049781) scale(0.09 -0.09)">
       <use xlink:href="#ArialMT-28"/>
       <use xlink:href="#ArialMT-32" transform="translate(33.300781 0)"/>
       <use xlink:href="#ArialMT-30" transform="translate(88.916016 0)"/>
       <use xlink:href="#ArialMT-32" transform="translate(144.53125 0)"/>
       <use xlink:href="#ArialMT-32" transform="translate(200.146484 0)"/>
       <use xlink:href="#ArialMT-29" transform="translate(255.761719 0)"/>
      </g>
     </g>
    </g>
    <g id="xtick_3">
     <g id="line2d_3"/>
     <g id="text_3">
      <!-- Paxful -->
      <g style="fill: #262626" transform="translate(323.877516 296.398969) scale(0.09 -0.09)">
       <defs>
        <path id="ArialMT-50" d="M 494 0 
L 494 4581 
L 2222 4581 
Q 2678 4581 2919 4538 
Q 3256 4481 3484 4323 
Q 3713 4166 3852 3881 
Q 3991 3597 3991 3256 
Q 3991 2672 3619 2267 
Q 3247 1863 2275 1863 
L 1100 1863 
L 1100 0 
L 494 0 
z
M 1100 2403 
L 2284 2403 
Q 2872 2403 3119 2622 
Q 3366 2841 3366 3238 
Q 3366 3525 3220 3729 
Q 3075 3934 2838 4000 
Q 2684 4041 2272 4041 
L 1100 4041 
L 1100 2403 
z
" transform="scale(0.015625)"/>
        <path id="ArialMT-61" d="M 2588 409 
Q 2275 144 1986 34 
Q 1697 -75 1366 -75 
Q 819 -75 525 192 
Q 231 459 231 875 
Q 231 1119 342 1320 
Q 453 1522 633 1644 
Q 813 1766 1038 1828 
Q 1203 1872 1538 1913 
Q 2219 1994 2541 2106 
Q 2544 2222 2544 2253 
Q 2544 2597 2384 2738 
Q 2169 2928 1744 2928 
Q 1347 2928 1158 2789 
Q 969 2650 878 2297 
L 328 2372 
Q 403 2725 575 2942 
Q 747 3159 1072 3276 
Q 1397 3394 1825 3394 
Q 2250 3394 2515 3294 
Q 2781 3194 2906 3042 
Q 3031 2891 3081 2659 
Q 3109 2516 3109 2141 
L 3109 1391 
Q 3109 606 3145 398 
Q 3181 191 3288 0 
L 2700 0 
Q 2613 175 2588 409 
z
M 2541 1666 
Q 2234 1541 1622 1453 
Q 1275 1403 1131 1340 
Q 988 1278 909 1158 
Q 831 1038 831 891 
Q 831 666 1001 516 
Q 1172 366 1500 366 
Q 1825 366 2078 508 
Q 2331 650 2450 897 
Q 2541 1088 2541 1459 
L 2541 1666 
z
" transform="scale(0.015625)"/>
        <path id="ArialMT-66" d="M 556 0 
L 556 2881 
L 59 2881 
L 59 3319 
L 556 3319 
L 556 3672 
Q 556 4006 616 4169 
Q 697 4388 901 4523 
Q 1106 4659 1475 4659 
Q 1713 4659 2000 4603 
L 1916 4113 
Q 1741 4144 1584 4144 
Q 1328 4144 1222 4034 
Q 1116 3925 1116 3625 
L 1116 3319 
L 1763 3319 
L 1763 2881 
L 1116 2881 
L 1116 0 
L 556 0 
z
" transform="scale(0.015625)"/>
        <path id="ArialMT-75" d="M 2597 0 
L 2597 488 
Q 2209 -75 1544 -75 
Q 1250 -75 995 37 
Q 741 150 617 320 
Q 494 491 444 738 
Q 409 903 409 1263 
L 409 3319 
L 972 3319 
L 972 1478 
Q 972 1038 1006 884 
Q 1059 663 1231 536 
Q 1403 409 1656 409 
Q 1909 409 2131 539 
Q 2353 669 2445 892 
Q 2538 1116 2538 1541 
L 2538 3319 
L 3100 3319 
L 3100 0 
L 2597 0 
z
" transform="scale(0.015625)"/>
        <path id="ArialMT-6c" d="M 409 0 
L 409 4581 
L 972 4581 
L 972 0 
L 409 0 
z
" transform="scale(0.015625)"/>
       </defs>
       <use xlink:href="#ArialMT-50"/>
       <use xlink:href="#ArialMT-61" transform="translate(66.699219 0)"/>
       <use xlink:href="#ArialMT-78" transform="translate(122.314453 0)"/>
       <use xlink:href="#ArialMT-66" transform="translate(172.314453 0)"/>
       <use xlink:href="#ArialMT-75" transform="translate(200.097656 0)"/>
       <use xlink:href="#ArialMT-6c" transform="translate(255.712891 0)"/>
      </g>
      <!-- (2025) -->
      <g style="fill: #262626" transform="translate(323.377594 306.049781) scale(0.09 -0.09)">
       <defs>
        <path id="ArialMT-35" d="M 266 1200 
L 856 1250 
Q 922 819 1161 601 
Q 1400 384 1738 384 
Q 2144 384 2425 690 
Q 2706 997 2706 1503 
Q 2706 1984 2436 2262 
Q 2166 2541 1728 2541 
Q 1456 2541 1237 2417 
Q 1019 2294 894 2097 
L 366 2166 
L 809 4519 
L 3088 4519 
L 3088 3981 
L 1259 3981 
L 1013 2750 
Q 1425 3038 1878 3038 
Q 2478 3038 2890 2622 
Q 3303 2206 3303 1553 
Q 3303 931 2941 478 
Q 2500 -78 1738 -78 
Q 1113 -78 717 272 
Q 322 622 266 1200 
z
" transform="scale(0.015625)"/>
       </defs>
       <use xlink:href="#ArialMT-28"/>
       <use xlink:href="#ArialMT-32" transform="translate(33.300781 0)"/>
       <use xlink:href="#ArialMT-30" transform="translate(88.916016 0)"/>
       <use xlink:href="#ArialMT-32" transform="translate(144.53125 0)"/>
       <use xlink:href="#ArialMT-35" transform="translate(200.146484 0)"/>
       <use xlink:href="#ArialMT-29" transform="translate(255.761719 0)"/>
      </g>
     </g>
    </g>
    <g id="xtick_4">
     <g id="line2d_4"/>
     <g id="text_4">
      <!-- OKX -->
      <g style="fill: #262626" transform="translate(423.503939 296.398969) scale(0.09 -0.09)">
       <defs>
        <path id="ArialMT-4f" d="M 309 2231 
Q 309 3372 921 4017 
Q 1534 4663 2503 4663 
Q 3138 4663 3647 4359 
Q 4156 4056 4423 3514 
Q 4691 2972 4691 2284 
Q 4691 1588 4409 1038 
Q 4128 488 3612 205 
Q 3097 -78 2500 -78 
Q 1853 -78 1343 234 
Q 834 547 571 1087 
Q 309 1628 309 2231 
z
M 934 2222 
Q 934 1394 1379 917 
Q 1825 441 2497 441 
Q 3181 441 3623 922 
Q 4066 1403 4066 2288 
Q 4066 2847 3877 3264 
Q 3688 3681 3323 3911 
Q 2959 4141 2506 4141 
Q 1863 4141 1398 3698 
Q 934 3256 934 2222 
z
" transform="scale(0.015625)"/>
        <path id="ArialMT-4b" d="M 469 0 
L 469 4581 
L 1075 4581 
L 1075 2309 
L 3350 4581 
L 4172 4581 
L 2250 2725 
L 4256 0 
L 3456 0 
L 1825 2319 
L 1075 1588 
L 1075 0 
L 469 0 
z
" transform="scale(0.015625)"/>
        <path id="ArialMT-58" d="M 28 0 
L 1800 2388 
L 238 4581 
L 959 4581 
L 1791 3406 
Q 2050 3041 2159 2844 
Q 2313 3094 2522 3366 
L 3444 4581 
L 4103 4581 
L 2494 2422 
L 4228 0 
L 3478 0 
L 2325 1634 
Q 2228 1775 2125 1941 
Q 1972 1691 1906 1597 
L 756 0 
L 28 0 
z
" transform="scale(0.015625)"/>
       </defs>
       <use xlink:href="#ArialMT-4f"/>
       <use xlink:href="#ArialMT-4b" transform="translate(77.783203 0)"/>
       <use xlink:href="#ArialMT-58" transform="translate(144.482422 0)"/>
      </g>
      <!-- (2025) -->
      <g style="fill: #262626" transform="translate(420.00097 306.049781) scale(0.09 -0.09)">
       <use xlink:href="#ArialMT-28"/>
       <use xlink:href="#ArialMT-32" transform="translate(33.300781 0)"/>
       <use xlink:href="#ArialMT-30" transform="translate(88.916016 0)"/>
       <use xlink:href="#ArialMT-32" transform="translate(144.53125 0)"/>
       <use xlink:href="#ArialMT-35" transform="translate(200.146484 0)"/>
       <use xlink:href="#ArialMT-29" transform="translate(255.761719 0)"/>
      </g>
     </g>
    </g>
    <g id="xtick_5">
     <g id="line2d_5"/>
     <g id="text_5">
      <!-- Binance -->
      <g style="fill: #262626" transform="translate(513.369581 296.398969) scale(0.09 -0.09)">
       <defs>
        <path id="ArialMT-6e" d="M 422 0 
L 422 3319 
L 928 3319 
L 928 2847 
Q 1294 3394 1984 3394 
Q 2284 3394 2536 3286 
Q 2788 3178 2913 3003 
Q 3038 2828 3088 2588 
Q 3119 2431 3119 2041 
L 3119 0 
L 2556 0 
L 2556 2019 
Q 2556 2363 2490 2533 
Q 2425 2703 2258 2804 
Q 2091 2906 1866 2906 
Q 1506 2906 1245 2678 
Q 984 2450 984 1813 
L 984 0 
L 422 0 
z
" transform="scale(0.015625)"/>
        <path id="ArialMT-63" d="M 2588 1216 
L 3141 1144 
Q 3050 572 2676 248 
Q 2303 -75 1759 -75 
Q 1078 -75 664 370 
Q 250 816 250 1647 
Q 250 2184 428 2587 
Q 606 2991 970 3192 
Q 1334 3394 1763 3394 
Q 2303 3394 2647 3120 
Q 2991 2847 3088 2344 
L 2541 2259 
Q 2463 2594 2264 2762 
Q 2066 2931 1784 2931 
Q 1359 2931 1093 2626 
Q 828 2322 828 1663 
Q 828 994 1084 691 
Q 1341 388 1753 388 
Q 2084 388 2306 591 
Q 2528 794 2588 1216 
z
" transform="scale(0.015625)"/>
       </defs>
       <use xlink:href="#ArialMT-42"/>
       <use xlink:href="#ArialMT-69" transform="translate(66.699219 0)"/>
       <use xlink:href="#ArialMT-6e" transform="translate(88.916016 0)"/>
       <use xlink:href="#ArialMT-61" transform="translate(144.53125 0)"/>
       <use xlink:href="#ArialMT-6e" transform="translate(200.146484 0)"/>
       <use xlink:href="#ArialMT-63" transform="translate(255.761719 0)"/>
       <use xlink:href="#ArialMT-65" transform="translate(305.761719 0)"/>
      </g>
      <!-- (2023) -->
      <g style="fill: #262626" transform="translate(516.624347 306.049781) scale(0.09 -0.09)">
       <defs>
        <path id="ArialMT-33" d="M 269 1209 
L 831 1284 
Q 928 806 1161 595 
Q 1394 384 1728 384 
Q 2125 384 2398 659 
Q 2672 934 2672 1341 
Q 2672 1728 2419 1979 
Q 2166 2231 1775 2231 
Q 1616 2231 1378 2169 
L 1441 2663 
Q 1497 2656 1531 2656 
Q 1891 2656 2178 2843 
Q 2466 3031 2466 3422 
Q 2466 3731 2256 3934 
Q 2047 4138 1716 4138 
Q 1388 4138 1169 3931 
Q 950 3725 888 3313 
L 325 3413 
Q 428 3978 793 4289 
Q 1159 4600 1703 4600 
Q 2078 4600 2393 4439 
Q 2709 4278 2876 4000 
Q 3044 3722 3044 3409 
Q 3044 3113 2884 2869 
Q 2725 2625 2413 2481 
Q 2819 2388 3044 2092 
Q 3269 1797 3269 1353 
Q 3269 753 2831 336 
Q 2394 -81 1725 -81 
Q 1122 -81 723 278 
Q 325 638 269 1209 
z
" transform="scale(0.015625)"/>
       </defs>
       <use xlink:href="#ArialMT-28"/>
       <use xlink:href="#ArialMT-32" transform="translate(33.300781 0)"/>
       <use xlink:href="#ArialMT-30" transform="translate(88.916016 0)"/>
       <use xlink:href="#ArialMT-32" transform="translate(144.53125 0)"/>
       <use xlink:href="#ArialMT-33" transform="translate(200.146484 0)"/>
       <use xlink:href="#ArialMT-29" transform="translate(255.761719 0)"/>
      </g>
     </g>
    </g>
   </g>
   <g id="matplotlib.axis_2">
    <g id="ytick_1">
     <g id="line2d_6">
      <path d="M 90.864 285.956937 
L 581.904 285.956937 
" clip-path="url(#pad1e1930a9)" style="fill: none; stroke: #d8dbe0; stroke-width: 0.5; stroke-linecap: round"/>
     </g>
     <g id="line2d_7">
      <defs>
       <path id="m0b050b4a0c" d="M 0 0 
L -3.5 0 
" style="stroke: #262626; stroke-width: 0.8"/>
      </defs>
      <g>
       <use xlink:href="#m0b050b4a0c" x="90.864" y="285.956937" style="fill: #262626; stroke: #262626; stroke-width: 0.8"/>
      </g>
     </g>
     <g id="text_6">
      <!-- $10K -->
      <g style="fill: #262626" transform="translate(62.846188 289.177953) scale(0.09 -0.09)">
       <defs>
        <path id="ArialMT-24" d="M 1594 -659 
L 1594 -97 
Q 1172 -44 908 92 
Q 644 228 451 531 
Q 259 834 228 1272 
L 794 1378 
Q 859 925 1025 713 
Q 1263 413 1594 378 
L 1594 2169 
Q 1247 2234 884 2438 
Q 616 2588 470 2853 
Q 325 3119 325 3456 
Q 325 4056 750 4428 
Q 1034 4678 1594 4734 
L 1594 5003 
L 1925 5003 
L 1925 4734 
Q 2416 4688 2703 4447 
Q 3072 4141 3147 3606 
L 2566 3519 
Q 2516 3850 2358 4026 
Q 2200 4203 1925 4259 
L 1925 2638 
Q 2350 2531 2488 2472 
Q 2750 2356 2915 2190 
Q 3081 2025 3170 1797 
Q 3259 1569 3259 1303 
Q 3259 719 2887 328 
Q 2516 -63 1925 -91 
L 1925 -659 
L 1594 -659 
z
M 1594 4266 
Q 1266 4216 1077 4003 
Q 888 3791 888 3500 
Q 888 3213 1048 3019 
Q 1209 2825 1594 2709 
L 1594 4266 
z
M 1925 378 
Q 2253 419 2467 662 
Q 2681 906 2681 1266 
Q 2681 1572 2529 1758 
Q 2378 1944 1925 2091 
L 1925 378 
z
" transform="scale(0.015625)"/>
       </defs>
       <use xlink:href="#ArialMT-24"/>
       <use xlink:href="#ArialMT-31" transform="translate(55.615234 0)"/>
       <use xlink:href="#ArialMT-30" transform="translate(111.230469 0)"/>
       <use xlink:href="#ArialMT-4b" transform="translate(166.845703 0)"/>
      </g>
     </g>
    </g>
    <g id="ytick_2">
     <g id="line2d_8">
      <path d="M 90.864 247.243267 
L 581.904 247.243267 
" clip-path="url(#pad1e1930a9)" style="fill: none; stroke: #d8dbe0; stroke-width: 0.5; stroke-linecap: round"/>
     </g>
     <g id="line2d_9">
      <g>
       <use xlink:href="#m0b050b4a0c" x="90.864" y="247.243267" style="fill: #262626; stroke: #262626; stroke-width: 0.8"/>
      </g>
     </g>
     <g id="text_7">
      <!-- $100K -->
      <g style="fill: #262626" transform="translate(57.841344 250.464282) scale(0.09 -0.09)">
       <use xlink:href="#ArialMT-24"/>
       <use xlink:href="#ArialMT-31" transform="translate(55.615234 0)"/>
       <use xlink:href="#ArialMT-30" transform="translate(111.230469 0)"/>
       <use xlink:href="#ArialMT-30" transform="translate(166.845703 0)"/>
       <use xlink:href="#ArialMT-4b" transform="translate(222.460938 0)"/>
      </g>
     </g>
    </g>
    <g id="ytick_3">
     <g id="line2d_10">
      <path d="M 90.864 208.529596 
L 581.904 208.529596 
" clip-path="url(#pad1e1930a9)" style="fill: none; stroke: #d8dbe0; stroke-width: 0.5; stroke-linecap: round"/>
     </g>
     <g id="line2d_11">
      <g>
       <use xlink:href="#m0b050b4a0c" x="90.864" y="208.529596" style="fill: #262626; stroke: #262626; stroke-width: 0.8"/>
      </g>
     </g>
     <g id="text_8">
      <!-- $1M -->
      <g style="fill: #262626" transform="translate(66.357594 211.750612) scale(0.09 -0.09)">
       <defs>
        <path id="ArialMT-4d" d="M 475 0 
L 475 4581 
L 1388 4581 
L 2472 1338 
Q 2622 884 2691 659 
Q 2769 909 2934 1394 
L 4031 4581 
L 4847 4581 
L 4847 0 
L 4263 0 
L 4263 3834 
L 2931 0 
L 2384 0 
L 1059 3900 
L 1059 0 
L 475 0 
z
" transform="scale(0.015625)"/>
       </defs>
       <use xlink:href="#ArialMT-24"/>
       <use xlink:href="#ArialMT-31" transform="translate(55.615234 0)"/>
       <use xlink:href="#ArialMT-4d" transform="translate(111.230469 0)"/>
      </g>
     </g>
    </g>
    <g id="ytick_4">
     <g id="line2d_12">
      <path d="M 90.864 169.815926 
L 581.904 169.815926 
" clip-path="url(#pad1e1930a9)" style="fill: none; stroke: #d8dbe0; stroke-width: 0.5; stroke-linecap: round"/>
     </g>
     <g id="line2d_13">
      <g>
       <use xlink:href="#m0b050b4a0c" x="90.864" y="169.815926" style="fill: #262626; stroke: #262626; stroke-width: 0.8"/>
      </g>
     </g>
     <g id="text_9">
      <!-- $10M -->
      <g style="fill: #262626" transform="translate(61.35275 173.036941) scale(0.09 -0.09)">
       <use xlink:href="#ArialMT-24"/>
       <use xlink:href="#ArialMT-31" transform="translate(55.615234 0)"/>
       <use xlink:href="#ArialMT-30" transform="translate(111.230469 0)"/>
       <use xlink:href="#ArialMT-4d" transform="translate(166.845703 0)"/>
      </g>
     </g>
    </g>
    <g id="ytick_5">
     <g id="line2d_14">
      <path d="M 90.864 131.102255 
L 581.904 131.102255 
" clip-path="url(#pad1e1930a9)" style="fill: none; stroke: #d8dbe0; stroke-width: 0.5; stroke-linecap: round"/>
     </g>
     <g id="line2d_15">
      <g>
       <use xlink:href="#m0b050b4a0c" x="90.864" y="131.102255" style="fill: #262626; stroke: #262626; stroke-width: 0.8"/>
      </g>
     </g>
     <g id="text_10">
      <!-- $100M -->
      <g style="fill: #262626" transform="translate(56.347906 134.323271) scale(0.09 -0.09)">
       <use xlink:href="#ArialMT-24"/>
       <use xlink:href="#ArialMT-31" transform="translate(55.615234 0)"/>
       <use xlink:href="#ArialMT-30" transform="translate(111.230469 0)"/>
       <use xlink:href="#ArialMT-30" transform="translate(166.845703 0)"/>
       <use xlink:href="#ArialMT-4d" transform="translate(222.460938 0)"/>
      </g>
     </g>
    </g>
    <g id="ytick_6">
     <g id="line2d_16">
      <path d="M 90.864 92.388584 
L 581.904 92.388584 
" clip-path="url(#pad1e1930a9)" style="fill: none; stroke: #d8dbe0; stroke-width: 0.5; stroke-linecap: round"/>
     </g>
     <g id="line2d_17">
      <g>
       <use xlink:href="#m0b050b4a0c" x="90.864" y="92.388584" style="fill: #262626; stroke: #262626; stroke-width: 0.8"/>
      </g>
     </g>
     <g id="text_11">
      <!-- $1B -->
      <g style="fill: #262626" transform="translate(67.851031 95.6096) scale(0.09 -0.09)">
       <use xlink:href="#ArialMT-24"/>
       <use xlink:href="#ArialMT-31" transform="translate(55.615234 0)"/>
       <use xlink:href="#ArialMT-42" transform="translate(111.230469 0)"/>
      </g>
     </g>
    </g>
    <g id="ytick_7">
     <g id="line2d_18">
      <path d="M 90.864 53.674914 
L 581.904 53.674914 
" clip-path="url(#pad1e1930a9)" style="fill: none; stroke: #d8dbe0; stroke-width: 0.5; stroke-linecap: round"/>
     </g>
     <g id="line2d_19">
      <g>
       <use xlink:href="#m0b050b4a0c" x="90.864" y="53.674914" style="fill: #262626; stroke: #262626; stroke-width: 0.8"/>
      </g>
     </g>
     <g id="text_12">
      <!-- $10B -->
      <g style="fill: #262626" transform="translate(62.846188 56.895929) scale(0.09 -0.09)">
       <use xlink:href="#ArialMT-24"/>
       <use xlink:href="#ArialMT-31" transform="translate(55.615234 0)"/>
       <use xlink:href="#ArialMT-30" transform="translate(111.230469 0)"/>
       <use xlink:href="#ArialMT-42" transform="translate(166.845703 0)"/>
      </g>
     </g>
    </g>
    <g id="ytick_8">
     <g id="line2d_20">
      <path d="M 90.864 274.302961 
L 581.904 274.302961 
" clip-path="url(#pad1e1930a9)" style="fill: none; stroke: #d8dbe0; stroke-width: 0.5; stroke-linecap: round"/>
     </g>
     <g id="line2d_21">
      <defs>
       <path id="m547116ef0d" d="M 0 0 
L -2 0 
" style="stroke: #262626; stroke-width: 0.6"/>
      </defs>
      <g>
       <use xlink:href="#m547116ef0d" x="90.864" y="274.302961" style="fill: #262626; stroke: #262626; stroke-width: 0.6"/>
      </g>
     </g>
    </g>
    <g id="ytick_9">
     <g id="line2d_22">
      <path d="M 90.864 267.485822 
L 581.904 267.485822 
" clip-path="url(#pad1e1930a9)" style="fill: none; stroke: #d8dbe0; stroke-width: 0.5; stroke-linecap: round"/>
     </g>
     <g id="line2d_23">
      <g>
       <use xlink:href="#m547116ef0d" x="90.864" y="267.485822" style="fill: #262626; stroke: #262626; stroke-width: 0.6"/>
      </g>
     </g>
    </g>
    <g id="ytick_10">
     <g id="line2d_24">
      <path d="M 90.864 262.648985 
L 581.904 262.648985 
" clip-path="url(#pad1e1930a9)" style="fill: none; stroke: #d8dbe0; stroke-width: 0.5; stroke-linecap: round"/>
     </g>
     <g id="line2d_25">
      <g>
       <use xlink:href="#m547116ef0d" x="90.864" y="262.648985" style="fill: #262626; stroke: #262626; stroke-width: 0.6"/>
      </g>
     </g>
    </g>
    <g id="ytick_11">
     <g id="line2d_26">
      <path d="M 90.864 258.897243 
L 581.904 258.897243 
" clip-path="url(#pad1e1930a9)" style="fill: none; stroke: #d8dbe0; stroke-width: 0.5; stroke-linecap: round"/>
     </g>
     <g id="line2d_27">
      <g>
       <use xlink:href="#m547116ef0d" x="90.864" y="258.897243" style="fill: #262626; stroke: #262626; stroke-width: 0.6"/>
      </g>
     </g>
    </g>
    <g id="ytick_12">
     <g id="line2d_28">
      <path d="M 90.864 255.831846 
L 581.904 255.831846 
" clip-path="url(#pad1e1930a9)" style="fill: none; stroke: #d8dbe0; stroke-width: 0.5; stroke-linecap: round"/>
     </g>
     <g id="line2d_29">
      <g>
       <use xlink:href="#m547116ef0d" x="90.864" y="255.831846" style="fill: #262626; stroke: #262626; stroke-width: 0.6"/>
      </g>
     </g>
    </g>
    <g id="ytick_13">
     <g id="line2d_30">
      <path d="M 90.864 253.24009 
L 581.904 253.24009 
" clip-path="url(#pad1e1930a9)" style="fill: none; stroke: #d8dbe0; stroke-width: 0.5; stroke-linecap: round"/>
     </g>
     <g id="line2d_31">
      <g>
       <use xlink:href="#m547116ef0d" x="90.864" y="253.24009" style="fill: #262626; stroke: #262626; stroke-width: 0.6"/>
      </g>
     </g>
    </g>
    <g id="ytick_14">
     <g id="line2d_32">
      <path d="M 90.864 250.995009 
L 581.904 250.995009 
" clip-path="url(#pad1e1930a9)" style="fill: none; stroke: #d8dbe0; stroke-width: 0.5; stroke-linecap: round"/>
     </g>
     <g id="line2d_33">
      <g>
       <use xlink:href="#m547116ef0d" x="90.864" y="250.995009" style="fill: #262626; stroke: #262626; stroke-width: 0.6"/>
      </g>
     </g>
    </g>
    <g id="ytick_15">
     <g id="line2d_34">
      <path d="M 90.864 249.014707 
L 581.904 249.014707 
" clip-path="url(#pad1e1930a9)" style="fill: none; stroke: #d8dbe0; stroke-width: 0.5; stroke-linecap: round"/>
     </g>
     <g id="line2d_35">
      <g>
       <use xlink:href="#m547116ef0d" x="90.864" y="249.014707" style="fill: #262626; stroke: #262626; stroke-width: 0.6"/>
      </g>
     </g>
    </g>
    <g id="ytick_16">
     <g id="line2d_36">
      <path d="M 90.864 235.589291 
L 581.904 235.589291 
" clip-path="url(#pad1e1930a9)" style="fill: none; stroke: #d8dbe0; stroke-width: 0.5; stroke-linecap: round"/>
     </g>
     <g id="line2d_37">
      <g>
       <use xlink:href="#m547116ef0d" x="90.864" y="235.589291" style="fill: #262626; stroke: #262626; stroke-width: 0.6"/>
      </g>
     </g>
    </g>
    <g id="ytick_17">
     <g id="line2d_38">
      <path d="M 90.864 228.772152 
L 581.904 228.772152 
" clip-path="url(#pad1e1930a9)" style="fill: none; stroke: #d8dbe0; stroke-width: 0.5; stroke-linecap: round"/>
     </g>
     <g id="line2d_39">
      <g>
       <use xlink:href="#m547116ef0d" x="90.864" y="228.772152" style="fill: #262626; stroke: #262626; stroke-width: 0.6"/>
      </g>
     </g>
    </g>
    <g id="ytick_18">
     <g id="line2d_40">
      <path d="M 90.864 223.935315 
L 581.904 223.935315 
" clip-path="url(#pad1e1930a9)" style="fill: none; stroke: #d8dbe0; stroke-width: 0.5; stroke-linecap: round"/>
     </g>
     <g id="line2d_41">
      <g>
       <use xlink:href="#m547116ef0d" x="90.864" y="223.935315" style="fill: #262626; stroke: #262626; stroke-width: 0.6"/>
      </g>
     </g>
    </g>
    <g id="ytick_19">
     <g id="line2d_42">
      <path d="M 90.864 220.183572 
L 581.904 220.183572 
" clip-path="url(#pad1e1930a9)" style="fill: none; stroke: #d8dbe0; stroke-width: 0.5; stroke-linecap: round"/>
     </g>
     <g id="line2d_43">
      <g>
       <use xlink:href="#m547116ef0d" x="90.864" y="220.183572" style="fill: #262626; stroke: #262626; stroke-width: 0.6"/>
      </g>
     </g>
    </g>
    <g id="ytick_20">
     <g id="line2d_44">
      <path d="M 90.864 217.118176 
L 581.904 217.118176 
" clip-path="url(#pad1e1930a9)" style="fill: none; stroke: #d8dbe0; stroke-width: 0.5; stroke-linecap: round"/>
     </g>
     <g id="line2d_45">
      <g>
       <use xlink:href="#m547116ef0d" x="90.864" y="217.118176" style="fill: #262626; stroke: #262626; stroke-width: 0.6"/>
      </g>
     </g>
    </g>
    <g id="ytick_21">
     <g id="line2d_46">
      <path d="M 90.864 214.52642 
L 581.904 214.52642 
" clip-path="url(#pad1e1930a9)" style="fill: none; stroke: #d8dbe0; stroke-width: 0.5; stroke-linecap: round"/>
     </g>
     <g id="line2d_47">
      <g>
       <use xlink:href="#m547116ef0d" x="90.864" y="214.52642" style="fill: #262626; stroke: #262626; stroke-width: 0.6"/>
      </g>
     </g>
    </g>
    <g id="ytick_22">
     <g id="line2d_48">
      <path d="M 90.864 212.281339 
L 581.904 212.281339 
" clip-path="url(#pad1e1930a9)" style="fill: none; stroke: #d8dbe0; stroke-width: 0.5; stroke-linecap: round"/>
     </g>
     <g id="line2d_49">
      <g>
       <use xlink:href="#m547116ef0d" x="90.864" y="212.281339" style="fill: #262626; stroke: #262626; stroke-width: 0.6"/>
      </g>
     </g>
    </g>
    <g id="ytick_23">
     <g id="line2d_50">
      <path d="M 90.864 210.301037 
L 581.904 210.301037 
" clip-path="url(#pad1e1930a9)" style="fill: none; stroke: #d8dbe0; stroke-width: 0.5; stroke-linecap: round"/>
     </g>
     <g id="line2d_51">
      <g>
       <use xlink:href="#m547116ef0d" x="90.864" y="210.301037" style="fill: #262626; stroke: #262626; stroke-width: 0.6"/>
      </g>
     </g>
    </g>
    <g id="ytick_24">
     <g id="line2d_52">
      <path d="M 90.864 196.87562 
L 581.904 196.87562 
" clip-path="url(#pad1e1930a9)" style="fill: none; stroke: #d8dbe0; stroke-width: 0.5; stroke-linecap: round"/>
     </g>
     <g id="line2d_53">
      <g>
       <use xlink:href="#m547116ef0d" x="90.864" y="196.87562" style="fill: #262626; stroke: #262626; stroke-width: 0.6"/>
      </g>
     </g>
    </g>
    <g id="ytick_25">
     <g id="line2d_54">
      <path d="M 90.864 190.058481 
L 581.904 190.058481 
" clip-path="url(#pad1e1930a9)" style="fill: none; stroke: #d8dbe0; stroke-width: 0.5; stroke-linecap: round"/>
     </g>
     <g id="line2d_55">
      <g>
       <use xlink:href="#m547116ef0d" x="90.864" y="190.058481" style="fill: #262626; stroke: #262626; stroke-width: 0.6"/>
      </g>
     </g>
    </g>
    <g id="ytick_26">
     <g id="line2d_56">
      <path d="M 90.864 185.221644 
L 581.904 185.221644 
" clip-path="url(#pad1e1930a9)" style="fill: none; stroke: #d8dbe0; stroke-width: 0.5; stroke-linecap: round"/>
     </g>
     <g id="line2d_57">
      <g>
       <use xlink:href="#m547116ef0d" x="90.864" y="185.221644" style="fill: #262626; stroke: #262626; stroke-width: 0.6"/>
      </g>
     </g>
    </g>
    <g id="ytick_27">
     <g id="line2d_58">
      <path d="M 90.864 181.469902 
L 581.904 181.469902 
" clip-path="url(#pad1e1930a9)" style="fill: none; stroke: #d8dbe0; stroke-width: 0.5; stroke-linecap: round"/>
     </g>
     <g id="line2d_59">
      <g>
       <use xlink:href="#m547116ef0d" x="90.864" y="181.469902" style="fill: #262626; stroke: #262626; stroke-width: 0.6"/>
      </g>
     </g>
    </g>
    <g id="ytick_28">
     <g id="line2d_60">
      <path d="M 90.864 178.404505 
L 581.904 178.404505 
" clip-path="url(#pad1e1930a9)" style="fill: none; stroke: #d8dbe0; stroke-width: 0.5; stroke-linecap: round"/>
     </g>
     <g id="line2d_61">
      <g>
       <use xlink:href="#m547116ef0d" x="90.864" y="178.404505" style="fill: #262626; stroke: #262626; stroke-width: 0.6"/>
      </g>
     </g>
    </g>
    <g id="ytick_29">
     <g id="line2d_62">
      <path d="M 90.864 175.812749 
L 581.904 175.812749 
" clip-path="url(#pad1e1930a9)" style="fill: none; stroke: #d8dbe0; stroke-width: 0.5; stroke-linecap: round"/>
     </g>
     <g id="line2d_63">
      <g>
       <use xlink:href="#m547116ef0d" x="90.864" y="175.812749" style="fill: #262626; stroke: #262626; stroke-width: 0.6"/>
      </g>
     </g>
    </g>
    <g id="ytick_30">
     <g id="line2d_64">
      <path d="M 90.864 173.567668 
L 581.904 173.567668 
" clip-path="url(#pad1e1930a9)" style="fill: none; stroke: #d8dbe0; stroke-width: 0.5; stroke-linecap: round"/>
     </g>
     <g id="line2d_65">
      <g>
       <use xlink:href="#m547116ef0d" x="90.864" y="173.567668" style="fill: #262626; stroke: #262626; stroke-width: 0.6"/>
      </g>
     </g>
    </g>
    <g id="ytick_31">
     <g id="line2d_66">
      <path d="M 90.864 171.587366 
L 581.904 171.587366 
" clip-path="url(#pad1e1930a9)" style="fill: none; stroke: #d8dbe0; stroke-width: 0.5; stroke-linecap: round"/>
     </g>
     <g id="line2d_67">
      <g>
       <use xlink:href="#m547116ef0d" x="90.864" y="171.587366" style="fill: #262626; stroke: #262626; stroke-width: 0.6"/>
      </g>
     </g>
    </g>
    <g id="ytick_32">
     <g id="line2d_68">
      <path d="M 90.864 158.161949 
L 581.904 158.161949 
" clip-path="url(#pad1e1930a9)" style="fill: none; stroke: #d8dbe0; stroke-width: 0.5; stroke-linecap: round"/>
     </g>
     <g id="line2d_69">
      <g>
       <use xlink:href="#m547116ef0d" x="90.864" y="158.161949" style="fill: #262626; stroke: #262626; stroke-width: 0.6"/>
      </g>
     </g>
    </g>
    <g id="ytick_33">
     <g id="line2d_70">
      <path d="M 90.864 151.34481 
L 581.904 151.34481 
" clip-path="url(#pad1e1930a9)" style="fill: none; stroke: #d8dbe0; stroke-width: 0.5; stroke-linecap: round"/>
     </g>
     <g id="line2d_71">
      <g>
       <use xlink:href="#m547116ef0d" x="90.864" y="151.34481" style="fill: #262626; stroke: #262626; stroke-width: 0.6"/>
      </g>
     </g>
    </g>
    <g id="ytick_34">
     <g id="line2d_72">
      <path d="M 90.864 146.507973 
L 581.904 146.507973 
" clip-path="url(#pad1e1930a9)" style="fill: none; stroke: #d8dbe0; stroke-width: 0.5; stroke-linecap: round"/>
     </g>
     <g id="line2d_73">
      <g>
       <use xlink:href="#m547116ef0d" x="90.864" y="146.507973" style="fill: #262626; stroke: #262626; stroke-width: 0.6"/>
      </g>
     </g>
    </g>
    <g id="ytick_35">
     <g id="line2d_74">
      <path d="M 90.864 142.756231 
L 581.904 142.756231 
" clip-path="url(#pad1e1930a9)" style="fill: none; stroke: #d8dbe0; stroke-width: 0.5; stroke-linecap: round"/>
     </g>
     <g id="line2d_75">
      <g>
       <use xlink:href="#m547116ef0d" x="90.864" y="142.756231" style="fill: #262626; stroke: #262626; stroke-width: 0.6"/>
      </g>
     </g>
    </g>
    <g id="ytick_36">
     <g id="line2d_76">
      <path d="M 90.864 139.690834 
L 581.904 139.690834 
" clip-path="url(#pad1e1930a9)" style="fill: none; stroke: #d8dbe0; stroke-width: 0.5; stroke-linecap: round"/>
     </g>
     <g id="line2d_77">
      <g>
       <use xlink:href="#m547116ef0d" x="90.864" y="139.690834" style="fill: #262626; stroke: #262626; stroke-width: 0.6"/>
      </g>
     </g>
    </g>
    <g id="ytick_37">
     <g id="line2d_78">
      <path d="M 90.864 137.099078 
L 581.904 137.099078 
" clip-path="url(#pad1e1930a9)" style="fill: none; stroke: #d8dbe0; stroke-width: 0.5; stroke-linecap: round"/>
     </g>
     <g id="line2d_79">
      <g>
       <use xlink:href="#m547116ef0d" x="90.864" y="137.099078" style="fill: #262626; stroke: #262626; stroke-width: 0.6"/>
      </g>
     </g>
    </g>
    <g id="ytick_38">
     <g id="line2d_80">
      <path d="M 90.864 134.853997 
L 581.904 134.853997 
" clip-path="url(#pad1e1930a9)" style="fill: none; stroke: #d8dbe0; stroke-width: 0.5; stroke-linecap: round"/>
     </g>
     <g id="line2d_81">
      <g>
       <use xlink:href="#m547116ef0d" x="90.864" y="134.853997" style="fill: #262626; stroke: #262626; stroke-width: 0.6"/>
      </g>
     </g>
    </g>
    <g id="ytick_39">
     <g id="line2d_82">
      <path d="M 90.864 132.873695 
L 581.904 132.873695 
" clip-path="url(#pad1e1930a9)" style="fill: none; stroke: #d8dbe0; stroke-width: 0.5; stroke-linecap: round"/>
     </g>
     <g id="line2d_83">
      <g>
       <use xlink:href="#m547116ef0d" x="90.864" y="132.873695" style="fill: #262626; stroke: #262626; stroke-width: 0.6"/>
      </g>
     </g>
    </g>
    <g id="ytick_40">
     <g id="line2d_84">
      <path d="M 90.864 119.448279 
L 581.904 119.448279 
" clip-path="url(#pad1e1930a9)" style="fill: none; stroke: #d8dbe0; stroke-width: 0.5; stroke-linecap: round"/>
     </g>
     <g id="line2d_85">
      <g>
       <use xlink:href="#m547116ef0d" x="90.864" y="119.448279" style="fill: #262626; stroke: #262626; stroke-width: 0.6"/>
      </g>
     </g>
    </g>
    <g id="ytick_41">
     <g id="line2d_86">
      <path d="M 90.864 112.63114 
L 581.904 112.63114 
" clip-path="url(#pad1e1930a9)" style="fill: none; stroke: #d8dbe0; stroke-width: 0.5; stroke-linecap: round"/>
     </g>
     <g id="line2d_87">
      <g>
       <use xlink:href="#m547116ef0d" x="90.864" y="112.63114" style="fill: #262626; stroke: #262626; stroke-width: 0.6"/>
      </g>
     </g>
    </g>
    <g id="ytick_42">
     <g id="line2d_88">
      <path d="M 90.864 107.794303 
L 581.904 107.794303 
" clip-path="url(#pad1e1930a9)" style="fill: none; stroke: #d8dbe0; stroke-width: 0.5; stroke-linecap: round"/>
     </g>
     <g id="line2d_89">
      <g>
       <use xlink:href="#m547116ef0d" x="90.864" y="107.794303" style="fill: #262626; stroke: #262626; stroke-width: 0.6"/>
      </g>
     </g>
    </g>
    <g id="ytick_43">
     <g id="line2d_90">
      <path d="M 90.864 104.04256 
L 581.904 104.04256 
" clip-path="url(#pad1e1930a9)" style="fill: none; stroke: #d8dbe0; stroke-width: 0.5; stroke-linecap: round"/>
     </g>
     <g id="line2d_91">
      <g>
       <use xlink:href="#m547116ef0d" x="90.864" y="104.04256" style="fill: #262626; stroke: #262626; stroke-width: 0.6"/>
      </g>
     </g>
    </g>
    <g id="ytick_44">
     <g id="line2d_92">
      <path d="M 90.864 100.977164 
L 581.904 100.977164 
" clip-path="url(#pad1e1930a9)" style="fill: none; stroke: #d8dbe0; stroke-width: 0.5; stroke-linecap: round"/>
     </g>
     <g id="line2d_93">
      <g>
       <use xlink:href="#m547116ef0d" x="90.864" y="100.977164" style="fill: #262626; stroke: #262626; stroke-width: 0.6"/>
      </g>
     </g>
    </g>
    <g id="ytick_45">
     <g id="line2d_94">
      <path d="M 90.864 98.385408 
L 581.904 98.385408 
" clip-path="url(#pad1e1930a9)" style="fill: none; stroke: #d8dbe0; stroke-width: 0.5; stroke-linecap: round"/>
     </g>
     <g id="line2d_95">
      <g>
       <use xlink:href="#m547116ef0d" x="90.864" y="98.385408" style="fill: #262626; stroke: #262626; stroke-width: 0.6"/>
      </g>
     </g>
    </g>
    <g id="ytick_46">
     <g id="line2d_96">
      <path d="M 90.864 96.140327 
L 581.904 96.140327 
" clip-path="url(#pad1e1930a9)" style="fill: none; stroke: #d8dbe0; stroke-width: 0.5; stroke-linecap: round"/>
     </g>
     <g id="line2d_97">
      <g>
       <use xlink:href="#m547116ef0d" x="90.864" y="96.140327" style="fill: #262626; stroke: #262626; stroke-width: 0.6"/>
      </g>
     </g>
    </g>
    <g id="ytick_47">
     <g id="line2d_98">
      <path d="M 90.864 94.160025 
L 581.904 94.160025 
" clip-path="url(#pad1e1930a9)" style="fill: none; stroke: #d8dbe0; stroke-width: 0.5; stroke-linecap: round"/>
     </g>
     <g id="line2d_99">
      <g>
       <use xlink:href="#m547116ef0d" x="90.864" y="94.160025" style="fill: #262626; stroke: #262626; stroke-width: 0.6"/>
      </g>
     </g>
    </g>
    <g id="ytick_48">
     <g id="line2d_100">
      <path d="M 90.864 80.734608 
L 581.904 80.734608 
" clip-path="url(#pad1e1930a9)" style="fill: none; stroke: #d8dbe0; stroke-width: 0.5; stroke-linecap: round"/>
     </g>
     <g id="line2d_101">
      <g>
       <use xlink:href="#m547116ef0d" x="90.864" y="80.734608" style="fill: #262626; stroke: #262626; stroke-width: 0.6"/>
      </g>
     </g>
    </g>
    <g id="ytick_49">
     <g id="line2d_102">
      <path d="M 90.864 73.917469 
L 581.904 73.917469 
" clip-path="url(#pad1e1930a9)" style="fill: none; stroke: #d8dbe0; stroke-width: 0.5; stroke-linecap: round"/>
     </g>
     <g id="line2d_103">
      <g>
       <use xlink:href="#m547116ef0d" x="90.864" y="73.917469" style="fill: #262626; stroke: #262626; stroke-width: 0.6"/>
      </g>
     </g>
    </g>
    <g id="ytick_50">
     <g id="line2d_104">
      <path d="M 90.864 69.080632 
L 581.904 69.080632 
" clip-path="url(#pad1e1930a9)" style="fill: none; stroke: #d8dbe0; stroke-width: 0.5; stroke-linecap: round"/>
     </g>
     <g id="line2d_105">
      <g>
       <use xlink:href="#m547116ef0d" x="90.864" y="69.080632" style="fill: #262626; stroke: #262626; stroke-width: 0.6"/>
      </g>
     </g>
    </g>
    <g id="ytick_51">
     <g id="line2d_106">
      <path d="M 90.864 65.32889 
L 581.904 65.32889 
" clip-path="url(#pad1e1930a9)" style="fill: none; stroke: #d8dbe0; stroke-width: 0.5; stroke-linecap: round"/>
     </g>
     <g id="line2d_107">
      <g>
       <use xlink:href="#m547116ef0d" x="90.864" y="65.32889" style="fill: #262626; stroke: #262626; stroke-width: 0.6"/>
      </g>
     </g>
    </g>
    <g id="ytick_52">
     <g id="line2d_108">
      <path d="M 90.864 62.263493 
L 581.904 62.263493 
" clip-path="url(#pad1e1930a9)" style="fill: none; stroke: #d8dbe0; stroke-width: 0.5; stroke-linecap: round"/>
     </g>
     <g id="line2d_109">
      <g>
       <use xlink:href="#m547116ef0d" x="90.864" y="62.263493" style="fill: #262626; stroke: #262626; stroke-width: 0.6"/>
      </g>
     </g>
    </g>
    <g id="ytick_53">
     <g id="line2d_110">
      <path d="M 90.864 59.671737 
L 581.904 59.671737 
" clip-path="url(#pad1e1930a9)" style="fill: none; stroke: #d8dbe0; stroke-width: 0.5; stroke-linecap: round"/>
     </g>
     <g id="line2d_111">
      <g>
       <use xlink:href="#m547116ef0d" x="90.864" y="59.671737" style="fill: #262626; stroke: #262626; stroke-width: 0.6"/>
      </g>
     </g>
    </g>
    <g id="ytick_54">
     <g id="line2d_112">
      <path d="M 90.864 57.426656 
L 581.904 57.426656 
" clip-path="url(#pad1e1930a9)" style="fill: none; stroke: #d8dbe0; stroke-width: 0.5; stroke-linecap: round"/>
     </g>
     <g id="line2d_113">
      <g>
       <use xlink:href="#m547116ef0d" x="90.864" y="57.426656" style="fill: #262626; stroke: #262626; stroke-width: 0.6"/>
      </g>
     </g>
    </g>
    <g id="ytick_55">
     <g id="line2d_114">
      <path d="M 90.864 55.446354 
L 581.904 55.446354 
" clip-path="url(#pad1e1930a9)" style="fill: none; stroke: #d8dbe0; stroke-width: 0.5; stroke-linecap: round"/>
     </g>
     <g id="line2d_115">
      <g>
       <use xlink:href="#m547116ef0d" x="90.864" y="55.446354" style="fill: #262626; stroke: #262626; stroke-width: 0.6"/>
      </g>
     </g>
    </g>
    <g id="ytick_56">
     <g id="line2d_116">
      <path d="M 90.864 42.020938 
L 581.904 42.020938 
" clip-path="url(#pad1e1930a9)" style="fill: none; stroke: #d8dbe0; stroke-width: 0.5; stroke-linecap: round"/>
     </g>
     <g id="line2d_117">
      <g>
       <use xlink:href="#m547116ef0d" x="90.864" y="42.020938" style="fill: #262626; stroke: #262626; stroke-width: 0.6"/>
      </g>
     </g>
    </g>
    <g id="text_13">
     <!-- 벌금 (USD, 로그스케일) -->
     <g style="fill: #262626" transform="translate(50.243219 208.292844) rotate(-90) scale(0.1 -0.1)">
      <defs>
       <path id="ArialMT-bc8c" d="M 800 0 
L 800 4000 
L 4000 4000 
L 4000 0 
L 800 0 
z
M 900 100 
L 3900 100 
L 3900 3900 
L 900 3900 
L 900 100 
z
" transform="scale(0.015625)"/>
       <path id="ArialMT-ae08" d="M 800 0 
L 800 4000 
L 4000 4000 
L 4000 0 
L 800 0 
z
M 900 100 
L 3900 100 
L 3900 3900 
L 900 3900 
L 900 100 
z
" transform="scale(0.015625)"/>
       <path id="ArialMT-20" transform="scale(0.015625)"/>
       <path id="ArialMT-55" d="M 3500 4581 
L 4106 4581 
L 4106 1934 
Q 4106 1244 3950 837 
Q 3794 431 3386 176 
Q 2978 -78 2316 -78 
Q 1672 -78 1262 144 
Q 853 366 678 786 
Q 503 1206 503 1934 
L 503 4581 
L 1109 4581 
L 1109 1938 
Q 1109 1341 1220 1058 
Q 1331 775 1601 622 
Q 1872 469 2263 469 
Q 2931 469 3215 772 
Q 3500 1075 3500 1938 
L 3500 4581 
z
" transform="scale(0.015625)"/>
       <path id="ArialMT-53" d="M 288 1472 
L 859 1522 
Q 900 1178 1048 958 
Q 1197 738 1509 602 
Q 1822 466 2213 466 
Q 2559 466 2825 569 
Q 3091 672 3220 851 
Q 3350 1031 3350 1244 
Q 3350 1459 3225 1620 
Q 3100 1781 2813 1891 
Q 2628 1963 1997 2114 
Q 1366 2266 1113 2400 
Q 784 2572 623 2826 
Q 463 3081 463 3397 
Q 463 3744 659 4045 
Q 856 4347 1234 4503 
Q 1613 4659 2075 4659 
Q 2584 4659 2973 4495 
Q 3363 4331 3572 4012 
Q 3781 3694 3797 3291 
L 3216 3247 
Q 3169 3681 2898 3903 
Q 2628 4125 2100 4125 
Q 1550 4125 1298 3923 
Q 1047 3722 1047 3438 
Q 1047 3191 1225 3031 
Q 1400 2872 2139 2705 
Q 2878 2538 3153 2413 
Q 3553 2228 3743 1945 
Q 3934 1663 3934 1294 
Q 3934 928 3725 604 
Q 3516 281 3123 101 
Q 2731 -78 2241 -78 
Q 1619 -78 1198 103 
Q 778 284 539 648 
Q 300 1013 288 1472 
z
" transform="scale(0.015625)"/>
       <path id="ArialMT-44" d="M 494 0 
L 494 4581 
L 2072 4581 
Q 2606 4581 2888 4516 
Q 3281 4425 3559 4188 
Q 3922 3881 4101 3404 
Q 4281 2928 4281 2316 
Q 4281 1794 4159 1391 
Q 4038 988 3847 723 
Q 3656 459 3429 307 
Q 3203 156 2883 78 
Q 2563 0 2147 0 
L 494 0 
z
M 1100 541 
L 2078 541 
Q 2531 541 2789 625 
Q 3047 709 3200 863 
Q 3416 1078 3536 1442 
Q 3656 1806 3656 2325 
Q 3656 3044 3420 3430 
Q 3184 3816 2847 3947 
Q 2603 4041 2063 4041 
L 1100 4041 
L 1100 541 
z
" transform="scale(0.015625)"/>
       <path id="ArialMT-2c" d="M 569 0 
L 569 641 
L 1209 641 
L 1209 0 
Q 1209 -353 1084 -570 
Q 959 -788 688 -906 
L 531 -666 
Q 709 -588 793 -436 
Q 878 -284 888 0 
L 569 0 
z
" transform="scale(0.015625)"/>
       <path id="ArialMT-b85c" d="M 800 0 
L 800 4000 
L 4000 4000 
L 4000 0 
L 800 0 
z
M 900 100 
L 3900 100 
L 3900 3900 
L 900 3900 
L 900 100 
z
" transform="scale(0.015625)"/>
       <path id="ArialMT-adf8" d="M 800 0 
L 800 4000 
L 4000 4000 
L 4000 0 
L 800 0 
z
M 900 100 
L 3900 100 
L 3900 3900 
L 900 3900 
L 900 100 
z
" transform="scale(0.015625)"/>
       <path id="ArialMT-c2a4" d="M 800 0 
L 800 4000 
L 4000 4000 
L 4000 0 
L 800 0 
z
M 900 100 
L 3900 100 
L 3900 3900 
L 900 3900 
L 900 100 
z
" transform="scale(0.015625)"/>
       <path id="ArialMT-cf00" d="M 800 0 
L 800 4000 
L 4000 4000 
L 4000 0 
L 800 0 
z
M 900 100 
L 3900 100 
L 3900 3900 
L 900 3900 
L 900 100 
z
" transform="scale(0.015625)"/>
       <path id="ArialMT-c77c" d="M 800 0 
L 800 4000 
L 4000 4000 
L 4000 0 
L 800 0 
z
M 900 100 
L 3900 100 
L 3900 3900 
L 900 3900 
L 900 100 
z
" transform="scale(0.015625)"/>
      </defs>
      <use xlink:href="#ArialMT-bc8c"/>
      <use xlink:href="#ArialMT-ae08" transform="translate(75 0)"/>
      <use xlink:href="#ArialMT-20" transform="translate(150 0)"/>
      <use xlink:href="#ArialMT-28" transform="translate(177.783203 0)"/>
      <use xlink:href="#ArialMT-55" transform="translate(211.083984 0)"/>
      <use xlink:href="#ArialMT-53" transform="translate(283.300781 0)"/>
      <use xlink:href="#ArialMT-44" transform="translate(350 0)"/>
      <use xlink:href="#ArialMT-2c" transform="translate(422.216797 0)"/>
      <use xlink:href="#ArialMT-20" transform="translate(450 0)"/>
      <use xlink:href="#ArialMT-b85c" transform="translate(477.783203 0)"/>
      <use xlink:href="#ArialMT-adf8" transform="translate(552.783203 0)"/>
      <use xlink:href="#ArialMT-c2a4" transform="translate(627.783203 0)"/>
      <use xlink:href="#ArialMT-cf00" transform="translate(702.783203 0)"/>
      <use xlink:href="#ArialMT-c77c" transform="translate(777.783203 0)"/>
      <use xlink:href="#ArialMT-29" transform="translate(852.783203 0)"/>
     </g>
    </g>
   </g>
   <g id="patch_3">
    <path d="M 113.184 39154.482269 
L 173.090494 39154.482269 
L 173.090494 247.582938 
L 113.184 247.582938 
z
" clip-path="url(#pad1e1930a9)" style="fill: #6b7280; stroke: #111418; stroke-width: 0.6; stroke-linejoin: miter"/>
   </g>
   <g id="patch_4">
    <path d="M 209.807377 39154.482269 
L 269.71387 39154.482269 
L 269.71387 151.914802 
L 209.807377 151.914802 
z
" clip-path="url(#pad1e1930a9)" style="fill: #7e8ba4; stroke: #111418; stroke-width: 0.6; stroke-linejoin: miter"/>
   </g>
   <g id="patch_5">
    <path d="M 306.430753 39154.482269 
L 366.337247 39154.482269 
L 366.337247 187.466725 
L 306.430753 187.466725 
z
" clip-path="url(#pad1e1930a9)" style="fill: #4a5f7e; stroke: #111418; stroke-width: 0.6; stroke-linejoin: miter"/>
   </g>
   <g id="patch_6">
    <path d="M 403.05413 39154.482269 
L 462.960623 39154.482269 
L 462.960623 104.04256 
L 403.05413 104.04256 
z
" clip-path="url(#pad1e1930a9)" style="fill: #c9a646; stroke: #111418; stroke-width: 0.6; stroke-linejoin: miter"/>
   </g>
   <g id="patch_7">
    <path d="M 499.677506 39154.482269 
L 559.584 39154.482269 
L 559.584 67.864695 
L 499.677506 67.864695 
z
" clip-path="url(#pad1e1930a9)" style="fill: #1a2e4a; stroke: #111418; stroke-width: 0.6; stroke-linejoin: miter"/>
   </g>
   <g id="patch_8">
    <path d="M 90.864 285.956937 
L 90.864 42.020938 
" style="fill: none; stroke: #262626; stroke-width: 0.8; stroke-linejoin: miter; stroke-linecap: square"/>
   </g>
   <g id="patch_9">
    <path d="M 581.904 285.956937 
L 581.904 42.020938 
" style="fill: none; stroke: #262626; stroke-width: 0.8; stroke-linejoin: miter; stroke-linecap: square"/>
   </g>
   <g id="patch_10">
    <path d="M 90.864 285.956937 
L 581.904 285.956937 
" style="fill: none; stroke: #262626; stroke-width: 0.8; stroke-linejoin: miter; stroke-linecap: square"/>
   </g>
   <g id="patch_11">
    <path d="M 90.864 42.020938 
L 581.904 42.020938 
" style="fill: none; stroke: #262626; stroke-width: 0.8; stroke-linejoin: miter; stroke-linecap: square"/>
   </g>
   <g id="text_14">
    <!-- $98K -->
    <g style="fill: #111418" transform="translate(131.184903 241.6095) scale(0.1 -0.1)">
     <defs>
      <path id="Arial-BoldMT-24" d="M 1528 678 
L 1528 1988 
Q 916 2163 630 2517 
Q 344 2872 344 3378 
Q 344 3891 667 4239 
Q 991 4588 1528 4641 
L 1528 4950 
L 1981 4950 
L 1981 4641 
Q 2478 4581 2772 4301 
Q 3066 4022 3147 3553 
L 2356 3450 
Q 2284 3819 1981 3950 
L 1981 2728 
Q 2731 2525 3003 2201 
Q 3275 1878 3275 1372 
Q 3275 806 2933 418 
Q 2591 31 1981 -56 
L 1981 -641 
L 1528 -641 
L 1528 -72 
Q 988 -6 650 331 
Q 313 669 219 1284 
L 1034 1372 
Q 1084 1122 1221 940 
Q 1359 759 1528 678 
z
M 1528 3959 
Q 1344 3897 1234 3747 
Q 1125 3597 1125 3416 
Q 1125 3250 1225 3108 
Q 1325 2966 1528 2878 
L 1528 3959 
z
M 1981 634 
Q 2216 678 2362 851 
Q 2509 1025 2509 1259 
Q 2509 1469 2386 1620 
Q 2263 1772 1981 1853 
L 1981 634 
z
" transform="scale(0.015625)"/>
      <path id="Arial-BoldMT-39" d="M 291 1059 
L 1141 1153 
Q 1172 894 1303 769 
Q 1434 644 1650 644 
Q 1922 644 2112 894 
Q 2303 1144 2356 1931 
Q 2025 1547 1528 1547 
Q 988 1547 595 1964 
Q 203 2381 203 3050 
Q 203 3747 617 4173 
Q 1031 4600 1672 4600 
Q 2369 4600 2816 4061 
Q 3263 3522 3263 2288 
Q 3263 1031 2797 475 
Q 2331 -81 1584 -81 
Q 1047 -81 715 205 
Q 384 491 291 1059 
z
M 2278 2978 
Q 2278 3403 2083 3637 
Q 1888 3872 1631 3872 
Q 1388 3872 1227 3680 
Q 1066 3488 1066 3050 
Q 1066 2606 1241 2398 
Q 1416 2191 1678 2191 
Q 1931 2191 2104 2391 
Q 2278 2591 2278 2978 
z
" transform="scale(0.015625)"/>
      <path id="Arial-BoldMT-38" d="M 1025 2472 
Q 684 2616 529 2867 
Q 375 3119 375 3419 
Q 375 3931 733 4265 
Q 1091 4600 1750 4600 
Q 2403 4600 2764 4265 
Q 3125 3931 3125 3419 
Q 3125 3100 2959 2851 
Q 2794 2603 2494 2472 
Q 2875 2319 3073 2025 
Q 3272 1731 3272 1347 
Q 3272 713 2867 316 
Q 2463 -81 1791 -81 
Q 1166 -81 750 247 
Q 259 634 259 1309 
Q 259 1681 443 1992 
Q 628 2303 1025 2472 
z
M 1206 3356 
Q 1206 3094 1354 2947 
Q 1503 2800 1750 2800 
Q 2000 2800 2150 2948 
Q 2300 3097 2300 3359 
Q 2300 3606 2151 3754 
Q 2003 3903 1759 3903 
Q 1506 3903 1356 3753 
Q 1206 3603 1206 3356 
z
M 1125 1394 
Q 1125 1031 1311 828 
Q 1497 625 1775 625 
Q 2047 625 2225 820 
Q 2403 1016 2403 1384 
Q 2403 1706 2222 1901 
Q 2041 2097 1763 2097 
Q 1441 2097 1283 1875 
Q 1125 1653 1125 1394 
z
" transform="scale(0.015625)"/>
      <path id="Arial-BoldMT-4b" d="M 478 0 
L 478 4581 
L 1403 4581 
L 1403 2547 
L 3272 4581 
L 4516 4581 
L 2791 2797 
L 4609 0 
L 3413 0 
L 2153 2150 
L 1403 1384 
L 1403 0 
L 478 0 
z
" transform="scale(0.015625)"/>
     </defs>
     <use xlink:href="#Arial-BoldMT-24"/>
     <use xlink:href="#Arial-BoldMT-39" transform="translate(55.615234 0)"/>
     <use xlink:href="#Arial-BoldMT-38" transform="translate(111.230469 0)"/>
     <use xlink:href="#Arial-BoldMT-4b" transform="translate(166.845703 0)"/>
    </g>
   </g>
   <g id="text_15">
    <!-- $29M -->
    <g style="fill: #111418" transform="translate(227.254373 145.941364) scale(0.1 -0.1)">
     <defs>
      <path id="Arial-BoldMT-32" d="M 3238 816 
L 3238 0 
L 159 0 
Q 209 463 459 877 
Q 709 1291 1447 1975 
Q 2041 2528 2175 2725 
Q 2356 2997 2356 3263 
Q 2356 3556 2198 3714 
Q 2041 3872 1763 3872 
Q 1488 3872 1325 3706 
Q 1163 3541 1138 3156 
L 263 3244 
Q 341 3969 753 4284 
Q 1166 4600 1784 4600 
Q 2463 4600 2850 4234 
Q 3238 3869 3238 3325 
Q 3238 3016 3127 2736 
Q 3016 2456 2775 2150 
Q 2616 1947 2200 1565 
Q 1784 1184 1673 1059 
Q 1563 934 1494 816 
L 3238 816 
z
" transform="scale(0.015625)"/>
      <path id="Arial-BoldMT-4d" d="M 453 0 
L 453 4581 
L 1838 4581 
L 2669 1456 
L 3491 4581 
L 4878 4581 
L 4878 0 
L 4019 0 
L 4019 3606 
L 3109 0 
L 2219 0 
L 1313 3606 
L 1313 0 
L 453 0 
z
" transform="scale(0.015625)"/>
     </defs>
     <use xlink:href="#Arial-BoldMT-24"/>
     <use xlink:href="#Arial-BoldMT-32" transform="translate(55.615234 0)"/>
     <use xlink:href="#Arial-BoldMT-39" transform="translate(111.230469 0)"/>
     <use xlink:href="#Arial-BoldMT-4d" transform="translate(166.845703 0)"/>
    </g>
   </g>
   <g id="text_16">
    <!-- $4M -->
    <g style="fill: #111418" transform="translate(326.658219 181.493288) scale(0.1 -0.1)">
     <defs>
      <path id="Arial-BoldMT-34" d="M 1994 0 
L 1994 922 
L 119 922 
L 119 1691 
L 2106 4600 
L 2844 4600 
L 2844 1694 
L 3413 1694 
L 3413 922 
L 2844 922 
L 2844 0 
L 1994 0 
z
M 1994 1694 
L 1994 3259 
L 941 1694 
L 1994 1694 
z
" transform="scale(0.015625)"/>
     </defs>
     <use xlink:href="#Arial-BoldMT-24"/>
     <use xlink:href="#Arial-BoldMT-34" transform="translate(55.615234 0)"/>
     <use xlink:href="#Arial-BoldMT-4d" transform="translate(111.230469 0)"/>
    </g>
   </g>
   <g id="text_17">
    <!-- $500M -->
    <g style="fill: #111418" transform="translate(417.720658 98.069123) scale(0.1 -0.1)">
     <defs>
      <path id="Arial-BoldMT-35" d="M 284 1178 
L 1159 1269 
Q 1197 972 1381 798 
Q 1566 625 1806 625 
Q 2081 625 2272 848 
Q 2463 1072 2463 1522 
Q 2463 1944 2273 2155 
Q 2084 2366 1781 2366 
Q 1403 2366 1103 2031 
L 391 2134 
L 841 4519 
L 3163 4519 
L 3163 3697 
L 1506 3697 
L 1369 2919 
Q 1663 3066 1969 3066 
Q 2553 3066 2959 2641 
Q 3366 2216 3366 1538 
Q 3366 972 3038 528 
Q 2591 -78 1797 -78 
Q 1163 -78 763 262 
Q 363 603 284 1178 
z
" transform="scale(0.015625)"/>
      <path id="Arial-BoldMT-30" d="M 1756 4600 
Q 2422 4600 2797 4125 
Q 3244 3563 3244 2259 
Q 3244 959 2794 391 
Q 2422 -78 1756 -78 
Q 1088 -78 678 436 
Q 269 950 269 2269 
Q 269 3563 719 4131 
Q 1091 4600 1756 4600 
z
M 1756 3872 
Q 1597 3872 1472 3770 
Q 1347 3669 1278 3406 
Q 1188 3066 1188 2259 
Q 1188 1453 1269 1151 
Q 1350 850 1473 750 
Q 1597 650 1756 650 
Q 1916 650 2041 751 
Q 2166 853 2234 1116 
Q 2325 1453 2325 2259 
Q 2325 3066 2244 3367 
Q 2163 3669 2039 3770 
Q 1916 3872 1756 3872 
z
" transform="scale(0.015625)"/>
     </defs>
     <use xlink:href="#Arial-BoldMT-24"/>
     <use xlink:href="#Arial-BoldMT-35" transform="translate(55.615234 0)"/>
     <use xlink:href="#Arial-BoldMT-30" transform="translate(111.230469 0)"/>
     <use xlink:href="#Arial-BoldMT-30" transform="translate(166.845703 0)"/>
     <use xlink:href="#Arial-BoldMT-4d" transform="translate(222.460938 0)"/>
    </g>
   </g>
   <g id="text_18">
    <!-- $4.3B -->
    <g style="fill: #111418" transform="translate(516.289347 61.891258) scale(0.1 -0.1)">
     <defs>
      <path id="Arial-BoldMT-2e" d="M 459 0 
L 459 878 
L 1338 878 
L 1338 0 
L 459 0 
z
" transform="scale(0.015625)"/>
      <path id="Arial-BoldMT-33" d="M 241 1216 
L 1091 1319 
Q 1131 994 1309 822 
Q 1488 650 1741 650 
Q 2013 650 2198 856 
Q 2384 1063 2384 1413 
Q 2384 1744 2206 1937 
Q 2028 2131 1772 2131 
Q 1603 2131 1369 2066 
L 1466 2781 
Q 1822 2772 2009 2936 
Q 2197 3100 2197 3372 
Q 2197 3603 2059 3740 
Q 1922 3878 1694 3878 
Q 1469 3878 1309 3722 
Q 1150 3566 1116 3266 
L 306 3403 
Q 391 3819 561 4067 
Q 731 4316 1036 4458 
Q 1341 4600 1719 4600 
Q 2366 4600 2756 4188 
Q 3078 3850 3078 3425 
Q 3078 2822 2419 2463 
Q 2813 2378 3048 2084 
Q 3284 1791 3284 1375 
Q 3284 772 2843 347 
Q 2403 -78 1747 -78 
Q 1125 -78 715 280 
Q 306 638 241 1216 
z
" transform="scale(0.015625)"/>
      <path id="Arial-BoldMT-42" d="M 469 4581 
L 2300 4581 
Q 2844 4581 3111 4536 
Q 3378 4491 3589 4347 
Q 3800 4203 3940 3964 
Q 4081 3725 4081 3428 
Q 4081 3106 3907 2837 
Q 3734 2569 3438 2434 
Q 3856 2313 4081 2019 
Q 4306 1725 4306 1328 
Q 4306 1016 4161 720 
Q 4016 425 3764 248 
Q 3513 72 3144 31 
Q 2913 6 2028 0 
L 469 0 
L 469 4581 
z
M 1394 3819 
L 1394 2759 
L 2000 2759 
Q 2541 2759 2672 2775 
Q 2909 2803 3045 2939 
Q 3181 3075 3181 3297 
Q 3181 3509 3064 3642 
Q 2947 3775 2716 3803 
Q 2578 3819 1925 3819 
L 1394 3819 
z
M 1394 1997 
L 1394 772 
L 2250 772 
Q 2750 772 2884 800 
Q 3091 838 3220 983 
Q 3350 1128 3350 1372 
Q 3350 1578 3250 1722 
Q 3150 1866 2961 1931 
Q 2772 1997 2141 1997 
L 1394 1997 
z
" transform="scale(0.015625)"/>
     </defs>
     <use xlink:href="#Arial-BoldMT-24"/>
     <use xlink:href="#Arial-BoldMT-34" transform="translate(55.615234 0)"/>
     <use xlink:href="#Arial-BoldMT-2e" transform="translate(111.230469 0)"/>
     <use xlink:href="#Arial-BoldMT-33" transform="translate(139.013672 0)"/>
     <use xlink:href="#Arial-BoldMT-42" transform="translate(194.628906 0)"/>
    </g>
   </g>
   <g id="text_19">
    <!-- 가상자산 AML 벌금 궤적 — 5년 만에 $98K → $4.3B -->
    <g style="fill: #111418" transform="translate(90.864 28.020938) scale(0.14 -0.14)">
     <defs>
      <path id="STIXGeneral-Regular-a4" d="M 3341 256 
L 3034 -64 
L 2406 563 
Q 2029 301 1606 301 
Q 1171 301 794 563 
L 179 -64 
L -141 256 
L 486 870 
Q 224 1248 224 1677 
Q 224 2118 486 2483 
L -141 3110 
L 179 3418 
L 794 2803 
Q 1184 3053 1606 3053 
Q 2048 3053 2406 2803 
L 3034 3418 
L 3341 3110 
L 2726 2483 
Q 2976 2112 2976 1683 
Q 2976 1261 2726 870 
L 3341 256 
z
M 2541 1690 
Q 2541 2086 2265 2364 
Q 1990 2643 1594 2643 
Q 1210 2643 934 2361 
Q 659 2080 659 1683 
Q 659 1280 937 995 
Q 1216 710 1606 710 
Q 2003 710 2272 995 
Q 2541 1280 2541 1690 
z
" transform="scale(0.015625)"/>
      <path id="Arial-BoldMT-20" transform="scale(0.015625)"/>
      <path id="Arial-BoldMT-41" d="M 4597 0 
L 3591 0 
L 3191 1041 
L 1359 1041 
L 981 0 
L 0 0 
L 1784 4581 
L 2763 4581 
L 4597 0 
z
M 2894 1813 
L 2263 3513 
L 1644 1813 
L 2894 1813 
z
" transform="scale(0.015625)"/>
      <path id="Arial-BoldMT-4c" d="M 491 0 
L 491 4544 
L 1416 4544 
L 1416 772 
L 3716 772 
L 3716 0 
L 491 0 
z
" transform="scale(0.015625)"/>
      <path id="DejaVuSansDisplay-2014" d="M 313 1978 
L 6088 1978 
L 6088 1528 
L 313 1528 
L 313 1978 
z
" transform="scale(0.015625)"/>
      <path id="DejaVuSans-39" d="M 703 97 
L 703 672 
Q 941 559 1184 500 
Q 1428 441 1663 441 
Q 2288 441 2617 861 
Q 2947 1281 2994 2138 
Q 2813 1869 2534 1725 
Q 2256 1581 1919 1581 
Q 1219 1581 811 2004 
Q 403 2428 403 3163 
Q 403 3881 828 4315 
Q 1253 4750 1959 4750 
Q 2769 4750 3195 4129 
Q 3622 3509 3622 2328 
Q 3622 1225 3098 567 
Q 2575 -91 1691 -91 
Q 1453 -91 1209 -44 
Q 966 3 703 97 
z
M 1959 2075 
Q 2384 2075 2632 2365 
Q 2881 2656 2881 3163 
Q 2881 3666 2632 3958 
Q 2384 4250 1959 4250 
Q 1534 4250 1286 3958 
Q 1038 3666 1038 3163 
Q 1038 2656 1286 2365 
Q 1534 2075 1959 2075 
z
" transform="scale(0.015625)"/>
      <path id="DejaVuSans-38" d="M 2034 2216 
Q 1584 2216 1326 1975 
Q 1069 1734 1069 1313 
Q 1069 891 1326 650 
Q 1584 409 2034 409 
Q 2484 409 2743 651 
Q 3003 894 3003 1313 
Q 3003 1734 2745 1975 
Q 2488 2216 2034 2216 
z
M 1403 2484 
Q 997 2584 770 2862 
Q 544 3141 544 3541 
Q 544 4100 942 4425 
Q 1341 4750 2034 4750 
Q 2731 4750 3128 4425 
Q 3525 4100 3525 3541 
Q 3525 3141 3298 2862 
Q 3072 2584 2669 2484 
Q 3125 2378 3379 2068 
Q 3634 1759 3634 1313 
Q 3634 634 3220 271 
Q 2806 -91 2034 -91 
Q 1263 -91 848 271 
Q 434 634 434 1313 
Q 434 1759 690 2068 
Q 947 2378 1403 2484 
z
M 1172 3481 
Q 1172 3119 1398 2916 
Q 1625 2713 2034 2713 
Q 2441 2713 2670 2916 
Q 2900 3119 2900 3481 
Q 2900 3844 2670 4047 
Q 2441 4250 2034 4250 
Q 1625 4250 1398 4047 
Q 1172 3844 1172 3481 
z
" transform="scale(0.015625)"/>
      <path id="DejaVuSans-Oblique-4b" d="M 1081 4666 
L 1716 4666 
L 1331 2700 
L 3781 4666 
L 4622 4666 
L 1850 2438 
L 3878 0 
L 3109 0 
L 1247 2272 
L 806 0 
L 172 0 
L 1081 4666 
z
" transform="scale(0.015625)"/>
      <path id="DejaVuSans-2192" d="M 5050 2147 
L 5050 1866 
L 3822 638 
L 3447 1013 
L 4175 1741 
L 366 1741 
L 366 2272 
L 4175 2272 
L 3447 3000 
L 3822 3375 
L 5050 2147 
z
" transform="scale(0.015625)"/>
     </defs>
     <use xlink:href="#STIXGeneral-Regular-a4" transform="translate(0 0.78125)"/>
     <use xlink:href="#STIXGeneral-Regular-a4" transform="translate(49.999985 0.78125)"/>
     <use xlink:href="#STIXGeneral-Regular-a4" transform="translate(99.999969 0.78125)"/>
     <use xlink:href="#STIXGeneral-Regular-a4" transform="translate(149.999954 0.78125)"/>
     <use xlink:href="#Arial-BoldMT-20" transform="translate(199.999939 0.78125)"/>
     <use xlink:href="#Arial-BoldMT-41" transform="translate(227.783142 0.78125)"/>
     <use xlink:href="#Arial-BoldMT-4d" transform="translate(299.999939 0.78125)"/>
     <use xlink:href="#Arial-BoldMT-4c" transform="translate(383.30072 0.78125)"/>
     <use xlink:href="#Arial-BoldMT-20" transform="translate(444.384705 0.78125)"/>
     <use xlink:href="#STIXGeneral-Regular-a4" transform="translate(472.167908 0.78125)"/>
     <use xlink:href="#STIXGeneral-Regular-a4" transform="translate(522.167892 0.78125)"/>
     <use xlink:href="#Arial-BoldMT-20" transform="translate(572.167877 0.78125)"/>
     <use xlink:href="#STIXGeneral-Regular-a4" transform="translate(599.95108 0.78125)"/>
     <use xlink:href="#STIXGeneral-Regular-a4" transform="translate(649.951065 0.78125)"/>
     <use xlink:href="#Arial-BoldMT-20" transform="translate(699.95105 0.78125)"/>
     <use xlink:href="#DejaVuSansDisplay-2014" transform="translate(727.734253 0.78125)"/>
     <use xlink:href="#Arial-BoldMT-20" transform="translate(827.734253 0.78125)"/>
     <use xlink:href="#Arial-BoldMT-35" transform="translate(855.517456 0.78125)"/>
     <use xlink:href="#STIXGeneral-Regular-a4" transform="translate(911.13269 0.78125)"/>
     <use xlink:href="#Arial-BoldMT-20" transform="translate(961.132675 0.78125)"/>
     <use xlink:href="#STIXGeneral-Regular-a4" transform="translate(988.915878 0.78125)"/>
     <use xlink:href="#STIXGeneral-Regular-a4" transform="translate(1038.915863 0.78125)"/>
     <use xlink:href="#Arial-BoldMT-20" transform="translate(1088.915848 0.78125)"/>
     <use xlink:href="#DejaVuSans-39" transform="translate(1116.699051 0.78125)"/>
     <use xlink:href="#DejaVuSans-38" transform="translate(1180.322098 0.78125)"/>
     <use xlink:href="#DejaVuSans-Oblique-4b" transform="translate(1243.945145 0.78125)"/>
     <use xlink:href="#DejaVuSans-2192" transform="translate(1309.521317 0.78125)"/>
     <use xlink:href="#Arial-BoldMT-34" transform="translate(1393.310379 0.78125)"/>
     <use xlink:href="#Arial-BoldMT-2e" transform="translate(1448.925613 0.78125)"/>
     <use xlink:href="#Arial-BoldMT-33" transform="translate(1476.708817 0.78125)"/>
     <use xlink:href="#Arial-BoldMT-42" transform="translate(1532.324051 0.78125)"/>
    </g>
   </g>
  </g>
  <g id="text_20">
   <!-- Source: DOJ · FinCEN · OFAC press releases -->
   <g style="fill: #6b7280" transform="translate(18 333.476937) scale(0.075 -0.075)">
    <defs>
     <path id="ArialMT-3a" d="M 578 2678 
L 578 3319 
L 1219 3319 
L 1219 2678 
L 578 2678 
z
M 578 0 
L 578 641 
L 1219 641 
L 1219 0 
L 578 0 
z
" transform="scale(0.015625)"/>
     <path id="ArialMT-4a" d="M 184 1300 
L 731 1375 
Q 753 850 928 656 
Q 1103 463 1413 463 
Q 1641 463 1806 567 
Q 1972 672 2034 851 
Q 2097 1031 2097 1425 
L 2097 4581 
L 2703 4581 
L 2703 1459 
Q 2703 884 2564 568 
Q 2425 253 2123 87 
Q 1822 -78 1416 -78 
Q 813 -78 492 269 
Q 172 616 184 1300 
z
" transform="scale(0.015625)"/>
     <path id="ArialMT-b7" d="M 744 1991 
L 744 2631 
L 1384 2631 
L 1384 1991 
L 744 1991 
z
" transform="scale(0.015625)"/>
     <path id="ArialMT-46" d="M 525 0 
L 525 4581 
L 3616 4581 
L 3616 4041 
L 1131 4041 
L 1131 2622 
L 3281 2622 
L 3281 2081 
L 1131 2081 
L 1131 0 
L 525 0 
z
" transform="scale(0.015625)"/>
     <path id="ArialMT-43" d="M 3763 1606 
L 4369 1453 
Q 4178 706 3683 314 
Q 3188 -78 2472 -78 
Q 1731 -78 1267 223 
Q 803 525 561 1097 
Q 319 1669 319 2325 
Q 319 3041 592 3573 
Q 866 4106 1370 4382 
Q 1875 4659 2481 4659 
Q 3169 4659 3637 4309 
Q 4106 3959 4291 3325 
L 3694 3184 
Q 3534 3684 3231 3912 
Q 2928 4141 2469 4141 
Q 1941 4141 1586 3887 
Q 1231 3634 1087 3207 
Q 944 2781 944 2328 
Q 944 1744 1114 1308 
Q 1284 872 1643 656 
Q 2003 441 2422 441 
Q 2931 441 3284 734 
Q 3638 1028 3763 1606 
z
" transform="scale(0.015625)"/>
     <path id="ArialMT-45" d="M 506 0 
L 506 4581 
L 3819 4581 
L 3819 4041 
L 1113 4041 
L 1113 2638 
L 3647 2638 
L 3647 2100 
L 1113 2100 
L 1113 541 
L 3925 541 
L 3925 0 
L 506 0 
z
" transform="scale(0.015625)"/>
     <path id="ArialMT-4e" d="M 488 0 
L 488 4581 
L 1109 4581 
L 3516 984 
L 3516 4581 
L 4097 4581 
L 4097 0 
L 3475 0 
L 1069 3600 
L 1069 0 
L 488 0 
z
" transform="scale(0.015625)"/>
     <path id="ArialMT-41" d="M -9 0 
L 1750 4581 
L 2403 4581 
L 4278 0 
L 3588 0 
L 3053 1388 
L 1138 1388 
L 634 0 
L -9 0 
z
M 1313 1881 
L 2866 1881 
L 2388 3150 
Q 2169 3728 2063 4100 
Q 1975 3659 1816 3225 
L 1313 1881 
z
" transform="scale(0.015625)"/>
     <path id="ArialMT-70" d="M 422 -1272 
L 422 3319 
L 934 3319 
L 934 2888 
Q 1116 3141 1344 3267 
Q 1572 3394 1897 3394 
Q 2322 3394 2647 3175 
Q 2972 2956 3137 2557 
Q 3303 2159 3303 1684 
Q 3303 1175 3120 767 
Q 2938 359 2589 142 
Q 2241 -75 1856 -75 
Q 1575 -75 1351 44 
Q 1128 163 984 344 
L 984 -1272 
L 422 -1272 
z
M 931 1641 
Q 931 1000 1190 694 
Q 1450 388 1819 388 
Q 2194 388 2461 705 
Q 2728 1022 2728 1688 
Q 2728 2322 2467 2637 
Q 2206 2953 1844 2953 
Q 1484 2953 1207 2617 
Q 931 2281 931 1641 
z
" transform="scale(0.015625)"/>
     <path id="ArialMT-73" d="M 197 991 
L 753 1078 
Q 800 744 1014 566 
Q 1228 388 1613 388 
Q 2000 388 2187 545 
Q 2375 703 2375 916 
Q 2375 1106 2209 1216 
Q 2094 1291 1634 1406 
Q 1016 1563 777 1677 
Q 538 1791 414 1992 
Q 291 2194 291 2438 
Q 291 2659 392 2848 
Q 494 3038 669 3163 
Q 800 3259 1026 3326 
Q 1253 3394 1513 3394 
Q 1903 3394 2198 3281 
Q 2494 3169 2634 2976 
Q 2775 2784 2828 2463 
L 2278 2388 
Q 2241 2644 2061 2787 
Q 1881 2931 1553 2931 
Q 1166 2931 1000 2803 
Q 834 2675 834 2503 
Q 834 2394 903 2306 
Q 972 2216 1119 2156 
Q 1203 2125 1616 2013 
Q 2213 1853 2448 1751 
Q 2684 1650 2818 1456 
Q 2953 1263 2953 975 
Q 2953 694 2789 445 
Q 2625 197 2315 61 
Q 2006 -75 1616 -75 
Q 969 -75 630 194 
Q 291 463 197 991 
z
" transform="scale(0.015625)"/>
    </defs>
    <use xlink:href="#ArialMT-53"/>
    <use xlink:href="#ArialMT-6f" transform="translate(66.699219 0)"/>
    <use xlink:href="#ArialMT-75" transform="translate(122.314453 0)"/>
    <use xlink:href="#ArialMT-72" transform="translate(177.929688 0)"/>
    <use xlink:href="#ArialMT-63" transform="translate(211.230469 0)"/>
    <use xlink:href="#ArialMT-65" transform="translate(261.230469 0)"/>
    <use xlink:href="#ArialMT-3a" transform="translate(316.845703 0)"/>
    <use xlink:href="#ArialMT-20" transform="translate(344.628906 0)"/>
    <use xlink:href="#ArialMT-44" transform="translate(372.412109 0)"/>
    <use xlink:href="#ArialMT-4f" transform="translate(444.628906 0)"/>
    <use xlink:href="#ArialMT-4a" transform="translate(522.412109 0)"/>
    <use xlink:href="#ArialMT-20" transform="translate(572.412109 0)"/>
    <use xlink:href="#ArialMT-b7" transform="translate(600.195312 0)"/>
    <use xlink:href="#ArialMT-20" transform="translate(633.496094 0)"/>
    <use xlink:href="#ArialMT-46" transform="translate(661.279297 0)"/>
    <use xlink:href="#ArialMT-69" transform="translate(722.363281 0)"/>
    <use xlink:href="#ArialMT-6e" transform="translate(744.580078 0)"/>
    <use xlink:href="#ArialMT-43" transform="translate(800.195312 0)"/>
    <use xlink:href="#ArialMT-45" transform="translate(872.412109 0)"/>
    <use xlink:href="#ArialMT-4e" transform="translate(939.111328 0)"/>
    <use xlink:href="#ArialMT-20" transform="translate(1011.328125 0)"/>
    <use xlink:href="#ArialMT-b7" transform="translate(1039.111328 0)"/>
    <use xlink:href="#ArialMT-20" transform="translate(1072.412109 0)"/>
    <use xlink:href="#ArialMT-4f" transform="translate(1100.195312 0)"/>
    <use xlink:href="#ArialMT-46" transform="translate(1177.978516 0)"/>
    <use xlink:href="#ArialMT-41" transform="translate(1233.5625 0)"/>
    <use xlink:href="#ArialMT-43" transform="translate(1300.261719 0)"/>
    <use xlink:href="#ArialMT-20" transform="translate(1372.478516 0)"/>
    <use xlink:href="#ArialMT-70" transform="translate(1400.261719 0)"/>
    <use xlink:href="#ArialMT-72" transform="translate(1455.876953 0)"/>
    <use xlink:href="#ArialMT-65" transform="translate(1489.177734 0)"/>
    <use xlink:href="#ArialMT-73" transform="translate(1544.792969 0)"/>
    <use xlink:href="#ArialMT-73" transform="translate(1594.792969 0)"/>
    <use xlink:href="#ArialMT-20" transform="translate(1644.792969 0)"/>
    <use xlink:href="#ArialMT-72" transform="translate(1672.576172 0)"/>
    <use xlink:href="#ArialMT-65" transform="translate(1705.876953 0)"/>
    <use xlink:href="#ArialMT-6c" transform="translate(1761.492188 0)"/>
    <use xlink:href="#ArialMT-65" transform="translate(1783.708984 0)"/>
    <use xlink:href="#ArialMT-61" transform="translate(1839.324219 0)"/>
    <use xlink:href="#ArialMT-73" transform="translate(1894.939453 0)"/>
    <use xlink:href="#ArialMT-65" transform="translate(1944.939453 0)"/>
    <use xlink:href="#ArialMT-73" transform="translate(2000.554688 0)"/>
   </g>
  </g>
 </g>
 <defs>
  <clipPath id="pad1e1930a9">
   <rect x="90.864" y="42.020938" width="491.04" height="243.936"/>
  </clipPath>
 </defs>
</svg>
