<?xml version="1.0" encoding="utf-8" standalone="no"?>
<!DOCTYPE svg PUBLIC "-//W3C//DTD SVG 1.1//EN"
  "http://www.w3.org/Graphics/SVG/1.1/DTD/svg11.dtd">
<svg xmlns:xlink="http://www.w3.org/1999/xlink" width="676.8pt" height="384.425953pt" viewBox="0 0 676.8 384.425953" xmlns="http://www.w3.org/2000/svg" version="1.1">
 <metadata>
  <rdf:RDF xmlns:dc="http://purl.org/dc/elements/1.1/" xmlns:cc="http://creativecommons.org/ns#" xmlns:rdf="http://www.w3.org/1999/02/22-rdf-syntax-ns#">
   <cc:Work>
    <dc:type rdf:resource="http://purl.org/dc/dcmitype/StillImage"/>
    <dc:date>2026-04-21T11:08:33.418794</dc:date>
    <dc:format>image/svg+xml</dc:format>
    <dc:creator>
     <cc:Agent>
      <dc:title>Matplotlib v3.10.8, https://matplotlib.org/</dc:title>
     </cc:Agent>
    </dc:creator>
   </cc:Work>
  </rdf:RDF>
 </metadata>
 <defs>
  <style type="text/css">*{stroke-linejoin: round; stroke-linecap: butt}</style>
 </defs>
 <g id="figure_1">
  <g id="patch_1">
   <path d="M 0 384.425953 
L 676.8 384.425953 
L 676.8 0 
L 0 0 
z
" style="fill: #ffffff"/>
  </g>
  <g id="axes_1">
   <g id="patch_2">
    <path d="M 200.574834 140.472262 
L 267.091391 140.472262 
L 267.091391 84.561862 
L 200.574834 84.561862 
z
" clip-path="url(#p354e328ce6)" style="fill: #fee2e2; stroke: #dc2626; stroke-width: 1.2; stroke-linejoin: miter"/>
   </g>
   <g id="patch_3">
    <path d="M 289.263576 140.472262 
L 355.780132 140.472262 
L 355.780132 84.561862 
L 289.263576 84.561862 
z
" clip-path="url(#p354e328ce6)" style="fill: #fee2e2; stroke: #dc2626; stroke-width: 1.2; stroke-linejoin: miter"/>
   </g>
   <g id="patch_4">
    <path d="M 377.952318 140.472262 
L 444.468874 140.472262 
L 444.468874 84.561862 
L 377.952318 84.561862 
z
" clip-path="url(#p354e328ce6)" style="fill: #fee2e2; stroke: #dc2626; stroke-width: 1.2; stroke-linejoin: miter"/>
   </g>
   <g id="patch_5">
    <path d="M 224.594702 224.337862 
L 280.025166 224.337862 
L 280.025166 175.416262 
L 224.594702 175.416262 
z
" clip-path="url(#p354e328ce6)" style="fill: #fff7d6; stroke: #c9a646; stroke-linejoin: miter"/>
   </g>
   <g id="patch_6">
    <path d="M 291.111258 224.337862 
L 346.541722 224.337862 
L 346.541722 175.416262 
L 291.111258 175.416262 
z
" clip-path="url(#p354e328ce6)" style="fill: #fff7d6; stroke: #c9a646; stroke-linejoin: miter"/>
   </g>
   <g id="patch_7">
    <path d="M 357.627815 224.337862 
L 413.058278 224.337862 
L 413.058278 175.416262 
L 357.627815 175.416262 
z
" clip-path="url(#p354e328ce6)" style="fill: #fff7d6; stroke: #c9a646; stroke-linejoin: miter"/>
   </g>
   <g id="patch_8">
    <path d="M 424.144371 224.337862 
L 479.574834 224.337862 
L 479.574834 175.416262 
L 424.144371 175.416262 
z
" clip-path="url(#p354e328ce6)" style="fill: #fff7d6; stroke: #c9a646; stroke-linejoin: miter"/>
   </g>
   <g id="patch_9">
    <path d="M 490.660927 224.337862 
L 546.091391 224.337862 
L 546.091391 175.416262 
L 490.660927 175.416262 
z
" clip-path="url(#p354e328ce6)" style="fill: #fff7d6; stroke: #c9a646; stroke-linejoin: miter"/>
   </g>
   <g id="patch_10">
    <path d="M 557.177483 224.337862 
L 612.607947 224.337862 
L 612.607947 175.416262 
L 557.177483 175.416262 
z
" clip-path="url(#p354e328ce6)" style="fill: #fff7d6; stroke: #c9a646; stroke-linejoin: miter"/>
   </g>
   <g id="patch_11">
    <path d="M 224.594702 285.489862 
L 280.025166 285.489862 
L 280.025166 236.568262 
L 224.594702 236.568262 
z
" clip-path="url(#p354e328ce6)" style="fill: #fff7d6; stroke: #c9a646; stroke-linejoin: miter"/>
   </g>
   <g id="patch_12">
    <path d="M 291.111258 285.489862 
L 346.541722 285.489862 
L 346.541722 236.568262 
L 291.111258 236.568262 
z
" clip-path="url(#p354e328ce6)" style="fill: #fff7d6; stroke: #c9a646; stroke-linejoin: miter"/>
   </g>
   <g id="patch_13">
    <path d="M 357.627815 285.489862 
L 413.058278 285.489862 
L 413.058278 236.568262 
L 357.627815 236.568262 
z
" clip-path="url(#p354e328ce6)" style="fill: #fff7d6; stroke: #c9a646; stroke-linejoin: miter"/>
   </g>
   <g id="patch_14">
    <path d="M 424.144371 285.489862 
L 479.574834 285.489862 
L 479.574834 236.568262 
L 424.144371 236.568262 
z
" clip-path="url(#p354e328ce6)" style="fill: #fff7d6; stroke: #c9a646; stroke-linejoin: miter"/>
   </g>
   <g id="patch_15">
    <path d="M 490.660927 285.489862 
L 546.091391 285.489862 
L 546.091391 236.568262 
L 490.660927 236.568262 
z
" clip-path="url(#p354e328ce6)" style="fill: #fff7d6; stroke: #c9a646; stroke-linejoin: miter"/>
   </g>
   <g id="patch_16">
    <path d="M 557.177483 285.489862 
L 612.607947 285.489862 
L 612.607947 236.568262 
L 557.177483 236.568262 
z
" clip-path="url(#p354e328ce6)" style="fill: #fff7d6; stroke: #c9a646; stroke-linejoin: miter"/>
   </g>
   <g id="text_1">
    <!-- 북한 -->
    <g style="fill: #991b1b" transform="translate(222.833113 115.392531) scale(0.11 -0.11)">
     <defs>
      <path id="MalgunGothicBold-bd81" d="M 1247 3091 
L 1247 5369 
L 2028 5369 
L 2028 4825 
L 4372 4825 
L 4372 5369 
L 5153 5369 
L 5153 3091 
L 1247 3091 
z
M 4372 4184 
L 2028 4184 
L 2028 3744 
L 4372 3744 
L 4372 4184 
z
M 4384 -563 
L 4384 838 
L 1147 838 
L 1147 1503 
L 2803 1503 
L 2803 1997 
L 403 1997 
L 403 2656 
L 5997 2656 
L 5997 1997 
L 3591 1997 
L 3591 1503 
L 5172 1503 
L 5172 -563 
L 4384 -563 
z
" transform="scale(0.015625)"/>
      <path id="MalgunGothicBold-d55c" d="M 447 4244 
L 447 4872 
L 1900 4872 
L 1900 5550 
L 2688 5550 
L 2688 4872 
L 4141 4872 
L 4141 4244 
L 447 4244 
z
M 5253 2822 
L 5253 1088 
L 4475 1088 
L 4475 5466 
L 5253 5466 
L 5253 3481 
L 6175 3481 
L 6175 2822 
L 5253 2822 
z
M 2303 1684 
Q 1603 1684 1176 2006 
Q 750 2328 750 2828 
Q 750 3322 1173 3645 
Q 1597 3969 2309 3969 
Q 3022 3969 3447 3647 
Q 3872 3325 3872 2828 
Q 3872 2331 3445 2007 
Q 3019 1684 2303 1684 
z
M 2309 3322 
Q 1941 3322 1739 3189 
Q 1538 3056 1538 2828 
Q 1538 2597 1734 2459 
Q 1931 2322 2309 2322 
Q 2694 2322 2892 2458 
Q 3091 2594 3091 2828 
Q 3091 3059 2887 3190 
Q 2684 3322 2309 3322 
z
M 1381 -372 
L 1381 1409 
L 2169 1409 
L 2169 288 
L 5422 288 
L 5422 -372 
L 1381 -372 
z
" transform="scale(0.015625)"/>
     </defs>
     <use xlink:href="#MalgunGothicBold-bd81"/>
     <use xlink:href="#MalgunGothicBold-d55c" transform="translate(100 0)"/>
    </g>
   </g>
   <g id="text_2">
    <!-- 이란 -->
    <g style="fill: #991b1b" transform="translate(311.521854 115.392531) scale(0.11 -0.11)">
     <defs>
      <path id="MalgunGothicBold-c774" d="M 4691 -563 
L 4691 5466 
L 5466 5466 
L 5466 -563 
L 4691 -563 
z
M 2203 903 
Q 1484 903 1050 1468 
Q 616 2034 616 2994 
Q 616 3969 1048 4525 
Q 1481 5081 2203 5081 
Q 2922 5081 3351 4520 
Q 3781 3959 3781 2994 
Q 3781 2025 3353 1464 
Q 2925 903 2203 903 
z
M 2203 4416 
Q 1844 4416 1612 4031 
Q 1381 3647 1381 2988 
Q 1381 2338 1618 1950 
Q 1856 1563 2203 1563 
Q 2547 1563 2784 1945 
Q 3022 2328 3022 2988 
Q 3022 3647 2792 4031 
Q 2563 4416 2203 4416 
z
" transform="scale(0.015625)"/>
      <path id="MalgunGothicBold-b780" d="M 5253 2975 
L 5253 1125 
L 4475 1125 
L 4475 5466 
L 5253 5466 
L 5253 3634 
L 6175 3634 
L 6175 2975 
L 5253 2975 
z
M 4178 2081 
Q 3409 1947 1838 1947 
L 672 1947 
L 672 3897 
L 2784 3897 
L 2784 4500 
L 672 4500 
L 672 5159 
L 3566 5159 
L 3566 3272 
L 1453 3272 
L 1453 2600 
L 2150 2600 
Q 3484 2600 4097 2719 
L 4178 2081 
z
M 1484 -353 
L 1484 1575 
L 2272 1575 
L 2272 306 
L 5422 306 
L 5422 -353 
L 1484 -353 
z
" transform="scale(0.015625)"/>
     </defs>
     <use xlink:href="#MalgunGothicBold-c774"/>
     <use xlink:href="#MalgunGothicBold-b780" transform="translate(100 0)"/>
    </g>
   </g>
   <g id="text_3">
    <!-- 미얀마 -->
    <g style="fill: #991b1b" transform="translate(394.710596 115.392531) scale(0.11 -0.11)">
     <defs>
      <path id="MalgunGothicBold-bbf8" d="M 4678 -563 
L 4678 5466 
L 5447 5466 
L 5447 -563 
L 4678 -563 
z
M 750 1119 
L 750 4947 
L 3669 4947 
L 3669 1119 
L 750 1119 
z
M 2888 4288 
L 1522 4288 
L 1522 1784 
L 2888 1784 
L 2888 4288 
z
" transform="scale(0.015625)"/>
      <path id="MalgunGothicBold-c580" d="M 4475 1125 
L 4475 5466 
L 5253 5466 
L 5253 4563 
L 6175 4563 
L 6175 3903 
L 5253 3903 
L 5253 3078 
L 6175 3078 
L 6175 2425 
L 5253 2425 
L 5253 1125 
L 4475 1125 
z
M 2131 2081 
Q 1434 2081 964 2522 
Q 494 2963 494 3653 
Q 494 4353 962 4790 
Q 1431 5228 2131 5228 
Q 2831 5228 3300 4793 
Q 3769 4359 3769 3653 
Q 3769 2956 3298 2518 
Q 2828 2081 2131 2081 
z
M 2131 4588 
Q 1741 4588 1505 4338 
Q 1269 4088 1269 3653 
Q 1269 3222 1505 2970 
Q 1741 2719 2131 2719 
Q 2525 2719 2764 2972 
Q 3003 3225 3003 3653 
Q 3003 4081 2767 4334 
Q 2531 4588 2131 4588 
z
M 1484 -353 
L 1484 1703 
L 2272 1703 
L 2272 306 
L 5422 306 
L 5422 -353 
L 1484 -353 
z
" transform="scale(0.015625)"/>
      <path id="MalgunGothicBold-b9c8" d="M 5259 2491 
L 5259 -563 
L 4481 -563 
L 4481 5466 
L 5259 5466 
L 5259 3150 
L 6203 3150 
L 6203 2491 
L 5259 2491 
z
M 703 1134 
L 703 4953 
L 3622 4953 
L 3622 1134 
L 703 1134 
z
M 2847 4300 
L 1484 4300 
L 1484 1791 
L 2847 1791 
L 2847 4300 
z
" transform="scale(0.015625)"/>
     </defs>
     <use xlink:href="#MalgunGothicBold-bbf8"/>
     <use xlink:href="#MalgunGothicBold-c580" transform="translate(100 0)"/>
     <use xlink:href="#MalgunGothicBold-b9c8" transform="translate(200 0)"/>
    </g>
   </g>
   <g id="text_4">
    <!-- 케냐 -->
    <g style="fill: #78572d" transform="translate(243.309934 202.229719) scale(0.09 -0.09)">
     <defs>
      <path id="MalgunGothic-cf00" d="M 5044 -563 
L 5044 5466 
L 5509 5466 
L 5509 -563 
L 5044 -563 
z
M 3938 -363 
L 3938 2700 
L 2803 2700 
L 2803 3116 
L 3938 3116 
L 3938 5344 
L 4397 5344 
L 4397 -363 
L 3938 -363 
z
M 3078 4941 
Q 2978 2403 813 872 
L 441 1197 
Q 1059 1538 1543 2113 
Q 2028 2688 2253 3231 
L 722 3034 
L 556 3475 
L 2406 3616 
Q 2556 4047 2584 4531 
L 800 4531 
L 800 4941 
L 3078 4941 
z
" transform="scale(0.015625)"/>
      <path id="MalgunGothic-b0d0" d="M 5094 1697 
L 5094 -563 
L 4628 -563 
L 4628 5466 
L 5094 5466 
L 5094 4078 
L 6081 4078 
L 6081 3659 
L 5094 3659 
L 5094 2113 
L 6081 2113 
L 6081 1697 
L 5094 1697 
z
M 4147 1253 
Q 3559 1100 934 1100 
L 934 4953 
L 1409 4953 
L 1409 1516 
L 1806 1516 
Q 3428 1516 4091 1644 
L 4147 1253 
z
" transform="scale(0.015625)"/>
     </defs>
     <use xlink:href="#MalgunGothic-cf00"/>
     <use xlink:href="#MalgunGothic-b0d0" transform="translate(100 0)"/>
    </g>
   </g>
   <g id="text_5">
    <!-- 나미비아 -->
    <g style="fill: #78572d" transform="translate(300.82649 202.229719) scale(0.09 -0.09)">
     <defs>
      <path id="MalgunGothic-b098" d="M 5094 2600 
L 5094 -563 
L 4628 -563 
L 4628 5466 
L 5094 5466 
L 5094 3016 
L 6138 3016 
L 6138 2600 
L 5094 2600 
z
M 4122 1375 
Q 3816 1300 3300 1279 
Q 2784 1259 844 1259 
L 844 4966 
L 1313 4966 
L 1313 1678 
L 2456 1672 
Q 3066 1672 3456 1698 
Q 3847 1725 4056 1766 
L 4122 1375 
z
" transform="scale(0.015625)"/>
      <path id="MalgunGothic-bbf8" d="M 4884 -563 
L 4884 5466 
L 5350 5466 
L 5350 -563 
L 4884 -563 
z
M 819 1209 
L 819 4934 
L 3688 4934 
L 3688 1209 
L 819 1209 
z
M 3219 4525 
L 1288 4525 
L 1288 1619 
L 3219 1619 
L 3219 4525 
z
" transform="scale(0.015625)"/>
      <path id="MalgunGothic-be44" d="M 4884 -563 
L 4884 5466 
L 5350 5466 
L 5350 -563 
L 4884 -563 
z
M 825 1081 
L 825 5013 
L 1294 5013 
L 1294 3469 
L 3244 3469 
L 3244 5013 
L 3713 5013 
L 3713 1081 
L 825 1081 
z
M 3244 3053 
L 1294 3053 
L 1294 1497 
L 3244 1497 
L 3244 3053 
z
" transform="scale(0.015625)"/>
      <path id="MalgunGothic-c544" d="M 5094 2600 
L 5094 -563 
L 4628 -563 
L 4628 5466 
L 5094 5466 
L 5094 3022 
L 6113 3022 
L 6113 2600 
L 5094 2600 
z
M 2194 966 
Q 1509 966 1087 1512 
Q 666 2059 666 3016 
Q 666 3981 1083 4522 
Q 1500 5063 2194 5063 
Q 2891 5063 3308 4514 
Q 3725 3966 3725 3016 
Q 3725 2063 3306 1514 
Q 2888 966 2194 966 
z
M 2194 4647 
Q 1716 4647 1420 4208 
Q 1125 3769 1125 3016 
Q 1125 2275 1423 1828 
Q 1722 1381 2194 1381 
Q 2663 1381 2963 1831 
Q 3263 2281 3263 3016 
Q 3263 3766 2969 4206 
Q 2675 4647 2194 4647 
z
" transform="scale(0.015625)"/>
     </defs>
     <use xlink:href="#MalgunGothic-b098"/>
     <use xlink:href="#MalgunGothic-bbf8" transform="translate(100 0)"/>
     <use xlink:href="#MalgunGothic-be44" transform="translate(200 0)"/>
     <use xlink:href="#MalgunGothic-c544" transform="translate(300 0)"/>
    </g>
   </g>
   <g id="text_6">
    <!-- 필리핀 -->
    <g style="fill: #78572d" transform="translate(371.843046 202.229719) scale(0.09 -0.09)">
     <defs>
      <path id="MalgunGothic-d544" d="M 4953 2328 
L 4953 5466 
L 5422 5466 
L 5422 2328 
L 4953 2328 
z
M 806 4813 
L 806 5222 
L 4219 5222 
L 4219 4813 
L 806 4813 
z
M 4519 2734 
Q 4175 2656 3456 2656 
L 653 2656 
L 653 3066 
L 1522 3066 
L 1459 4519 
L 1913 4519 
L 1978 3066 
L 3047 3066 
L 3103 4519 
L 3559 4519 
L 3494 3066 
Q 4081 3066 4488 3138 
L 4519 2734 
z
M 1678 -475 
L 1678 1006 
L 4959 1006 
L 4959 1588 
L 1678 1588 
L 1678 1997 
L 5422 1997 
L 5422 603 
L 2138 603 
L 2138 -63 
L 5588 -63 
L 5588 -475 
L 1678 -475 
z
" transform="scale(0.015625)"/>
      <path id="MalgunGothic-b9ac" d="M 4884 -563 
L 4884 5466 
L 5350 5466 
L 5350 -563 
L 4884 -563 
z
M 856 738 
L 856 3128 
L 3150 3128 
L 3150 4519 
L 856 4519 
L 856 4934 
L 3616 4934 
L 3616 2725 
L 1325 2725 
L 1325 1153 
Q 3597 1153 4197 1281 
L 4250 878 
Q 3500 738 856 738 
z
" transform="scale(0.015625)"/>
      <path id="MalgunGothic-d540" d="M 4953 1063 
L 4953 5466 
L 5422 5466 
L 5422 1063 
L 4953 1063 
z
M 806 4647 
L 806 5063 
L 4219 5063 
L 4219 4647 
L 806 4647 
z
M 4519 2253 
Q 4094 2175 3456 2175 
L 653 2175 
L 653 2584 
L 1522 2584 
L 1459 4353 
L 1913 4353 
L 1978 2584 
L 3047 2584 
L 3103 4353 
L 3559 4353 
L 3494 2591 
Q 4103 2591 4488 2656 
L 4519 2253 
z
M 1678 -341 
L 1678 1528 
L 2144 1528 
L 2144 78 
L 5588 78 
L 5588 -341 
L 1678 -341 
z
" transform="scale(0.015625)"/>
     </defs>
     <use xlink:href="#MalgunGothic-d544"/>
     <use xlink:href="#MalgunGothic-b9ac" transform="translate(100 0)"/>
     <use xlink:href="#MalgunGothic-d540" transform="translate(200 0)"/>
    </g>
   </g>
   <g id="text_7">
    <!-- 콩고민주공화국 -->
    <g style="fill: #78572d" transform="translate(420.359603 202.229719) scale(0.09 -0.09)">
     <defs>
      <path id="MalgunGothic-cf69" d="M 1178 3681 
L 1081 4116 
L 4738 4244 
L 4744 4884 
L 1344 4884 
L 1344 5300 
L 5209 5300 
Q 5209 3691 5131 3003 
L 4684 3028 
Q 4706 3213 4722 3859 
L 1178 3681 
z
M 403 2266 
L 403 2681 
L 2778 2681 
L 2778 3534 
L 3238 3534 
L 3238 2681 
L 5997 2681 
L 5997 2266 
L 403 2266 
z
M 3200 -494 
Q 2256 -494 1762 -181 
Q 1269 131 1269 659 
Q 1269 1172 1766 1481 
Q 2263 1791 3200 1791 
Q 4138 1791 4634 1481 
Q 5131 1172 5131 659 
Q 5131 131 4637 -181 
Q 4144 -494 3200 -494 
z
M 3200 1394 
Q 2488 1394 2120 1197 
Q 1753 1000 1753 659 
Q 1753 309 2125 106 
Q 2497 -97 3200 -97 
Q 3900 -97 4273 106 
Q 4647 309 4647 659 
Q 4647 1000 4278 1197 
Q 3909 1394 3200 1394 
z
" transform="scale(0.015625)"/>
      <path id="MalgunGothic-ace0" d="M 4959 1656 
L 4506 1697 
Q 4616 2694 4616 3534 
L 4616 4475 
L 1216 4475 
L 1216 4897 
L 5081 4897 
L 5081 3525 
Q 5081 2613 4959 1656 
z
M 403 513 
L 403 934 
L 2625 934 
L 2625 2900 
L 3091 2900 
L 3091 934 
L 5997 934 
L 5997 513 
L 403 513 
z
" transform="scale(0.015625)"/>
      <path id="MalgunGothic-bbfc" d="M 4947 1063 
L 4947 5466 
L 5416 5466 
L 5416 1063 
L 4947 1063 
z
M 1044 2228 
L 1044 5100 
L 3828 5100 
L 3828 2228 
L 1044 2228 
z
M 3366 4684 
L 1503 4684 
L 1503 2638 
L 3366 2638 
L 3366 4684 
z
M 1703 -331 
L 1703 1594 
L 2169 1594 
L 2169 91 
L 5575 91 
L 5575 -331 
L 1703 -331 
z
" transform="scale(0.015625)"/>
      <path id="MalgunGothic-c8fc" d="M 5491 2969 
Q 4775 3069 4104 3464 
Q 3434 3859 3200 4256 
Q 2981 3869 2317 3459 
Q 1653 3050 922 2931 
L 634 3322 
Q 1463 3406 2152 3843 
Q 2841 4281 2950 4825 
L 1025 4825 
L 1025 5241 
L 5375 5241 
L 5375 4825 
L 3444 4825 
Q 3550 4272 4225 3850 
Q 4900 3428 5766 3347 
L 5491 2969 
z
M 3438 1863 
L 3438 -563 
L 2963 -563 
L 2963 1863 
L 403 1863 
L 403 2278 
L 5997 2278 
L 5997 1863 
L 3438 1863 
z
" transform="scale(0.015625)"/>
      <path id="MalgunGothic-acf5" d="M 5178 5281 
Q 5178 3953 5100 3263 
L 4653 3297 
Q 4709 3956 4709 4863 
L 1375 4863 
L 1375 5281 
L 5178 5281 
z
M 403 2406 
L 403 2822 
L 2778 2822 
L 2778 4044 
L 3238 4044 
L 3238 2822 
L 5997 2822 
L 5997 2406 
L 403 2406 
z
M 3188 -466 
Q 2244 -466 1736 -148 
Q 1228 169 1228 691 
Q 1228 1216 1734 1536 
Q 2241 1856 3188 1856 
Q 4128 1856 4634 1536 
Q 5141 1216 5141 691 
Q 5141 169 4633 -148 
Q 4125 -466 3188 -466 
z
M 3188 1459 
Q 2488 1459 2108 1248 
Q 1728 1038 1728 691 
Q 1728 344 2106 136 
Q 2484 -72 3188 -72 
Q 3891 -72 4269 136 
Q 4647 344 4647 691 
Q 4647 1038 4265 1248 
Q 3884 1459 3188 1459 
z
" transform="scale(0.015625)"/>
      <path id="MalgunGothic-d654" d="M 5228 2363 
L 5228 -563 
L 4763 -563 
L 4763 5466 
L 5228 5466 
L 5228 2778 
L 6156 2778 
L 6156 2363 
L 5228 2363 
z
M 2131 5441 
L 2591 5441 
L 2591 4653 
L 4159 4653 
L 4159 4238 
L 556 4238 
L 556 4653 
L 2131 4653 
L 2131 5441 
z
M 2591 1741 
L 2591 884 
Q 3688 900 4409 947 
L 4441 544 
Q 2791 447 359 447 
L 313 856 
Q 1141 856 2125 878 
L 2125 1734 
Q 1506 1791 1175 2092 
Q 844 2394 844 2828 
Q 844 3316 1250 3627 
Q 1656 3938 2363 3938 
Q 3059 3938 3465 3633 
Q 3872 3328 3872 2859 
Q 3872 2400 3536 2098 
Q 3200 1797 2591 1741 
z
M 2363 3541 
Q 1875 3541 1594 3342 
Q 1313 3144 1313 2828 
Q 1313 2513 1592 2319 
Q 1872 2125 2363 2125 
Q 2847 2125 3126 2320 
Q 3406 2516 3406 2828 
Q 3406 3144 3125 3342 
Q 2844 3541 2363 3541 
z
" transform="scale(0.015625)"/>
      <path id="MalgunGothic-ad6d" d="M 4603 -563 
L 4603 1259 
L 1241 1259 
L 1241 1678 
L 2913 1678 
L 2913 2803 
L 403 2803 
L 403 3219 
L 4581 3219 
Q 4634 3728 4634 4850 
L 1338 4850 
L 1338 5269 
L 5100 5269 
Q 5100 4225 5031 3219 
L 5997 3219 
L 5997 2803 
L 3378 2803 
L 3378 1678 
L 5069 1678 
L 5069 -563 
L 4603 -563 
z
" transform="scale(0.015625)"/>
     </defs>
     <use xlink:href="#MalgunGothic-cf69"/>
     <use xlink:href="#MalgunGothic-ace0" transform="translate(100 0)"/>
     <use xlink:href="#MalgunGothic-bbfc" transform="translate(200 0)"/>
     <use xlink:href="#MalgunGothic-c8fc" transform="translate(300 0)"/>
     <use xlink:href="#MalgunGothic-acf5" transform="translate(400 0)"/>
     <use xlink:href="#MalgunGothic-d654" transform="translate(500 0)"/>
     <use xlink:href="#MalgunGothic-ad6d" transform="translate(600 0)"/>
    </g>
   </g>
   <g id="text_8">
    <!-- 라이베리아 -->
    <g style="fill: #78572d" transform="translate(495.876159 202.229719) scale(0.09 -0.09)">
     <defs>
      <path id="MalgunGothic-b77c" d="M 5094 2503 
L 5094 -563 
L 4628 -563 
L 4628 5466 
L 5094 5466 
L 5094 2925 
L 6138 2925 
L 6138 2503 
L 5094 2503 
z
M 806 794 
L 806 3169 
L 3003 3169 
L 3003 4506 
L 806 4506 
L 806 4922 
L 3469 4922 
L 3469 2759 
L 1275 2759 
L 1275 1203 
Q 3419 1203 4063 1338 
L 4128 928 
Q 3284 794 806 794 
z
" transform="scale(0.015625)"/>
      <path id="MalgunGothic-c774" d="M 4947 -563 
L 4947 5466 
L 5416 5466 
L 5416 -563 
L 4947 -563 
z
M 2284 959 
Q 1597 959 1173 1514 
Q 750 2069 750 3016 
Q 750 3975 1169 4522 
Q 1588 5069 2284 5069 
Q 2978 5069 3403 4522 
Q 3828 3975 3828 3016 
Q 3828 2063 3401 1511 
Q 2975 959 2284 959 
z
M 2284 4653 
Q 1803 4653 1503 4204 
Q 1203 3756 1203 3016 
Q 1203 2278 1506 1826 
Q 1809 1375 2284 1375 
Q 2756 1375 3061 1828 
Q 3366 2281 3366 3016 
Q 3366 3759 3067 4206 
Q 2769 4653 2284 4653 
z
" transform="scale(0.015625)"/>
      <path id="MalgunGothic-bca0" d="M 5069 -563 
L 5069 5466 
L 5544 5466 
L 5544 -563 
L 5069 -563 
z
M 769 1038 
L 769 5081 
L 1228 5081 
L 1228 3481 
L 2741 3481 
L 2741 5081 
L 3200 5081 
L 3200 3219 
L 4006 3219 
L 4006 5344 
L 4475 5344 
L 4475 -378 
L 4006 -378 
L 4006 2803 
L 3200 2803 
L 3200 1038 
L 769 1038 
z
M 2741 3066 
L 1228 3066 
L 1228 1453 
L 2741 1453 
L 2741 3066 
z
" transform="scale(0.015625)"/>
     </defs>
     <use xlink:href="#MalgunGothic-b77c"/>
     <use xlink:href="#MalgunGothic-c774" transform="translate(100 0)"/>
     <use xlink:href="#MalgunGothic-bca0" transform="translate(200 0)"/>
     <use xlink:href="#MalgunGothic-b9ac" transform="translate(300 0)"/>
     <use xlink:href="#MalgunGothic-c544" transform="translate(400 0)"/>
    </g>
   </g>
   <g id="text_9">
    <!-- 시리아 -->
    <g style="fill: #78572d" transform="translate(571.392715 202.229719) scale(0.09 -0.09)">
     <defs>
      <path id="MalgunGothic-c2dc" d="M 4947 -563 
L 4947 5466 
L 5416 5466 
L 5416 -563 
L 4947 -563 
z
M 3769 966 
Q 3263 1353 2820 1939 
Q 2378 2525 2259 2950 
Q 2116 2463 1687 1872 
Q 1259 1281 756 891 
L 397 1203 
Q 1141 1703 1581 2479 
Q 2022 3256 2022 4063 
L 2022 5050 
L 2484 5050 
L 2484 4084 
Q 2484 3303 2920 2556 
Q 3356 1809 4097 1331 
L 3769 966 
z
" transform="scale(0.015625)"/>
     </defs>
     <use xlink:href="#MalgunGothic-c2dc"/>
     <use xlink:href="#MalgunGothic-b9ac" transform="translate(100 0)"/>
     <use xlink:href="#MalgunGothic-c544" transform="translate(200 0)"/>
    </g>
   </g>
   <g id="text_10">
    <!-- 남수단 -->
    <g style="fill: #78572d" transform="translate(238.809934 263.381719) scale(0.09 -0.09)">
     <defs>
      <path id="MalgunGothic-b0a8" d="M 5125 3578 
L 5125 2119 
L 4659 2119 
L 4659 5466 
L 5125 5466 
L 5125 4000 
L 6034 4000 
L 6034 3578 
L 5125 3578 
z
M 4263 2834 
Q 3741 2694 916 2694 
L 916 5222 
L 1381 5222 
L 1381 3109 
L 1794 3109 
Q 3553 3109 4206 3238 
L 4263 2834 
z
M 1466 -422 
L 1466 1784 
L 5125 1784 
L 5125 -422 
L 1466 -422 
z
M 4666 1369 
L 1925 1369 
L 1925 -6 
L 4666 -6 
L 4666 1369 
z
" transform="scale(0.015625)"/>
      <path id="MalgunGothic-c218" d="M 5491 2994 
Q 4750 3097 4078 3498 
Q 3406 3900 3200 4275 
Q 2975 3891 2309 3491 
Q 1644 3091 922 2956 
L 634 3347 
Q 1559 3450 2261 3942 
Q 2963 4434 2963 5013 
L 2963 5275 
L 3431 5275 
L 3431 5013 
Q 3431 4431 4118 3948 
Q 4806 3466 5766 3378 
L 5491 2994 
z
M 3431 1838 
L 3431 -563 
L 2963 -563 
L 2963 1838 
L 403 1838 
L 403 2253 
L 5997 2253 
L 5997 1838 
L 3431 1838 
z
" transform="scale(0.015625)"/>
      <path id="MalgunGothic-b2e8" d="M 5125 3169 
L 5125 1063 
L 4659 1063 
L 4659 5466 
L 5125 5466 
L 5125 3584 
L 6034 3584 
L 6034 3169 
L 5125 3169 
z
M 3903 2363 
Q 3306 2291 850 2291 
L 850 5081 
L 3688 5081 
L 3688 4666 
L 1319 4666 
L 1319 2706 
Q 3244 2706 3872 2766 
L 3903 2363 
z
M 1459 -378 
L 1459 1581 
L 1925 1581 
L 1925 38 
L 5294 38 
L 5294 -378 
L 1459 -378 
z
" transform="scale(0.015625)"/>
     </defs>
     <use xlink:href="#MalgunGothic-b0a8"/>
     <use xlink:href="#MalgunGothic-c218" transform="translate(100 0)"/>
     <use xlink:href="#MalgunGothic-b2e8" transform="translate(200 0)"/>
    </g>
   </g>
   <g id="text_11">
    <!-- 예멘 -->
    <g style="fill: #78572d" transform="translate(309.82649 263.381719) scale(0.09 -0.09)">
     <defs>
      <path id="MalgunGothic-c608" d="M 5069 -563 
L 5069 5466 
L 5538 5466 
L 5538 -563 
L 5069 -563 
z
M 3091 1856 
Q 2775 928 1947 928 
Q 1325 928 986 1470 
Q 647 2013 647 3016 
Q 647 4016 986 4558 
Q 1325 5100 1947 5100 
Q 2763 5100 3078 4206 
L 3981 4206 
L 3981 5344 
L 4447 5344 
L 4447 -500 
L 3981 -500 
L 3981 1856 
L 3091 1856 
z
M 1947 4678 
Q 1094 4678 1094 3016 
Q 1094 1350 1947 1350 
Q 2797 1350 2797 3016 
Q 2797 4678 1947 4678 
z
M 3194 2266 
L 3981 2266 
L 3981 3794 
L 3188 3794 
Q 3250 3413 3250 3016 
Q 3250 2597 3194 2266 
z
" transform="scale(0.015625)"/>
      <path id="MalgunGothic-ba58" d="M 5056 1166 
L 5056 5466 
L 5522 5466 
L 5522 1166 
L 5056 1166 
z
M 763 2144 
L 763 5088 
L 3238 5088 
L 3238 3781 
L 4013 3781 
L 4013 5344 
L 4475 5344 
L 4475 1313 
L 4013 1313 
L 4013 3366 
L 3238 3366 
L 3238 2144 
L 763 2144 
z
M 2778 4666 
L 1222 4666 
L 1222 2559 
L 2778 2559 
L 2778 4666 
z
M 1753 -331 
L 1753 1497 
L 2222 1497 
L 2222 91 
L 5703 91 
L 5703 -331 
L 1753 -331 
z
" transform="scale(0.015625)"/>
     </defs>
     <use xlink:href="#MalgunGothic-c608"/>
     <use xlink:href="#MalgunGothic-ba58" transform="translate(100 0)"/>
    </g>
   </g>
   <g id="text_12">
    <!-- 말리 -->
    <g style="fill: #78572d" transform="translate(376.343046 263.381719) scale(0.09 -0.09)">
     <defs>
      <path id="MalgunGothic-b9d0" d="M 5125 3591 
L 5125 2419 
L 4659 2419 
L 4659 5466 
L 5125 5466 
L 5125 4006 
L 6034 4006 
L 6034 3591 
L 5125 3591 
z
M 756 2747 
L 756 5241 
L 3494 5241 
L 3494 2747 
L 756 2747 
z
M 3034 4825 
L 1216 4825 
L 1216 3156 
L 3034 3156 
L 3034 4825 
z
M 1447 -422 
L 1447 1069 
L 4666 1069 
L 4666 1678 
L 1447 1678 
L 1447 2094 
L 5125 2094 
L 5125 666 
L 1906 666 
L 1906 -6 
L 5294 -6 
L 5294 -422 
L 1447 -422 
z
" transform="scale(0.015625)"/>
     </defs>
     <use xlink:href="#MalgunGothic-b9d0"/>
     <use xlink:href="#MalgunGothic-b9ac" transform="translate(100 0)"/>
    </g>
   </g>
   <g id="text_13">
    <!-- 베네수엘라 -->
    <g style="fill: #78572d" transform="translate(429.359603 263.381719) scale(0.09 -0.09)">
     <defs>
      <path id="MalgunGothic-b124" d="M 5075 -563 
L 5075 5466 
L 5544 5466 
L 5544 -563 
L 5075 -563 
z
M 3878 -366 
L 3878 3072 
L 2478 3072 
L 2478 3481 
L 3878 3481 
L 3878 5344 
L 4341 5344 
L 4341 -366 
L 3878 -366 
z
M 3413 1247 
Q 2881 1141 844 1141 
L 844 5013 
L 1306 5013 
L 1306 1556 
L 1584 1556 
Q 2791 1556 3359 1631 
L 3413 1247 
z
" transform="scale(0.015625)"/>
      <path id="MalgunGothic-c5d8" d="M 5056 2328 
L 5056 5466 
L 5522 5466 
L 5522 2328 
L 5056 2328 
z
M 3384 3688 
Q 3316 3109 2916 2790 
Q 2516 2472 2003 2472 
Q 1428 2472 1018 2856 
Q 609 3241 609 3897 
Q 609 4559 1021 4945 
Q 1434 5331 2003 5331 
Q 2519 5331 2920 5003 
Q 3322 4675 3384 4103 
L 4044 4103 
L 4044 5344 
L 4506 5344 
L 4506 2328 
L 4044 2328 
L 4044 3688 
L 3384 3688 
z
M 2003 4928 
Q 1603 4928 1329 4658 
Q 1056 4388 1056 3897 
Q 1056 3413 1331 3144 
Q 1606 2875 2003 2875 
Q 2400 2875 2675 3144 
Q 2950 3413 2950 3897 
Q 2950 4388 2676 4658 
Q 2403 4928 2003 4928 
z
M 1772 -422 
L 1772 1019 
L 5063 1019 
L 5063 1588 
L 1772 1588 
L 1772 1997 
L 5522 1997 
L 5522 616 
L 2234 616 
L 2234 -6 
L 5684 -6 
L 5684 -422 
L 1772 -422 
z
" transform="scale(0.015625)"/>
     </defs>
     <use xlink:href="#MalgunGothic-bca0"/>
     <use xlink:href="#MalgunGothic-b124" transform="translate(100 0)"/>
     <use xlink:href="#MalgunGothic-c218" transform="translate(200 0)"/>
     <use xlink:href="#MalgunGothic-c5d8" transform="translate(300 0)"/>
     <use xlink:href="#MalgunGothic-b77c" transform="translate(400 0)"/>
    </g>
   </g>
   <g id="text_14">
    <!-- 나이지리아 -->
    <g style="fill: #78572d" transform="translate(495.876159 263.381719) scale(0.09 -0.09)">
     <defs>
      <path id="MalgunGothic-c9c0" d="M 4884 -563 
L 4884 5466 
L 5350 5466 
L 5350 -563 
L 4884 -563 
z
M 3775 909 
Q 3228 1338 2822 1881 
Q 2416 2425 2297 2859 
Q 2178 2397 1756 1814 
Q 1334 1231 825 825 
L 475 1147 
Q 1191 1638 1625 2425 
Q 2059 3213 2059 4019 
L 2059 4525 
L 716 4525 
L 716 4941 
L 3884 4941 
L 3884 4525 
L 2528 4525 
L 2528 4038 
Q 2528 3238 2968 2459 
Q 3409 1681 4097 1269 
L 3775 909 
z
" transform="scale(0.015625)"/>
     </defs>
     <use xlink:href="#MalgunGothic-b098"/>
     <use xlink:href="#MalgunGothic-c774" transform="translate(100 0)"/>
     <use xlink:href="#MalgunGothic-c9c0" transform="translate(200 0)"/>
     <use xlink:href="#MalgunGothic-b9ac" transform="translate(300 0)"/>
     <use xlink:href="#MalgunGothic-c544" transform="translate(400 0)"/>
    </g>
   </g>
   <g id="text_15">
    <!-- 크로아티아 -->
    <g style="fill: #78572d" transform="translate(562.392715 263.381719) scale(0.09 -0.09)">
     <defs>
      <path id="MalgunGothic-d06c" d="M 403 550 
L 403 966 
L 4494 966 
Q 4584 1969 4609 2791 
L 972 2600 
L 872 3059 
L 4616 3188 
L 4616 4475 
L 1178 4475 
L 1178 4891 
L 5075 4891 
L 5075 3138 
Q 5075 2347 4947 966 
L 5997 966 
L 5997 550 
L 403 550 
z
" transform="scale(0.015625)"/>
      <path id="MalgunGothic-b85c" d="M 1247 3641 
L 4659 3641 
L 4659 4531 
L 1259 4531 
L 1259 4941 
L 5125 4941 
L 5125 3238 
L 1722 3238 
L 1722 2241 
L 5300 2241 
L 5300 1825 
L 3438 1825 
L 3438 728 
L 5997 728 
L 5997 313 
L 403 313 
L 403 728 
L 2969 728 
L 2969 1825 
L 1247 1825 
L 1247 3641 
z
" transform="scale(0.015625)"/>
      <path id="MalgunGothic-d2f0" d="M 4947 -563 
L 4947 5466 
L 5416 5466 
L 5416 -563 
L 4947 -563 
z
M 1484 2816 
L 1484 1331 
L 2206 1331 
Q 3581 1331 4206 1409 
L 4238 1006 
Q 3759 950 3206 936 
Q 2653 922 1019 922 
L 1019 4953 
L 3903 4953 
L 3903 4531 
L 1484 4531 
L 1484 3219 
L 3647 3219 
L 3647 2816 
L 1484 2816 
z
" transform="scale(0.015625)"/>
     </defs>
     <use xlink:href="#MalgunGothic-d06c"/>
     <use xlink:href="#MalgunGothic-b85c" transform="translate(100 0)"/>
     <use xlink:href="#MalgunGothic-c544" transform="translate(200 0)"/>
     <use xlink:href="#MalgunGothic-d2f0" transform="translate(300 0)"/>
     <use xlink:href="#MalgunGothic-c544" transform="translate(400 0)"/>
    </g>
   </g>
   <g id="text_16">
    <g id="patch_17">
     <path d="M 124.888587 127.25675 
L 178.402649 127.25675 
Q 182.402649 127.25675 182.402649 123.25675 
L 182.402649 101.825812 
Q 182.402649 97.825812 178.402649 97.825812 
L 124.888587 97.825812 
Q 120.888587 97.825812 120.888587 101.825812 
L 120.888587 123.25675 
Q 120.888587 127.25675 124.888587 127.25675 
z
" style="fill: #ffffff; stroke: #dc2626; stroke-linejoin: miter"/>
    </g>
    <!-- Black -->
    <g style="fill: #991b1b" transform="translate(153.432337 109.369562) scale(0.1 -0.1)">
     <defs>
      <path id="MalgunGothicBold-42" d="M 547 0 
L 547 4600 
L 2113 4600 
Q 2822 4600 3222 4317 
Q 3622 4034 3622 3528 
Q 3622 3159 3387 2876 
Q 3153 2594 2756 2472 
L 2756 2463 
Q 3244 2400 3531 2100 
Q 3819 1800 3819 1356 
Q 3819 738 3375 369 
Q 2931 0 2188 0 
L 547 0 
z
M 1438 3916 
L 1438 2709 
L 1922 2709 
Q 2281 2709 2484 2879 
Q 2688 3050 2688 3359 
Q 2688 3916 1894 3916 
L 1438 3916 
z
M 1438 2022 
L 1438 684 
L 2050 684 
Q 2444 684 2662 865 
Q 2881 1047 2881 1369 
Q 2881 2022 2019 2022 
L 1438 2022 
z
" transform="scale(0.015625)"/>
      <path id="MalgunGothicBold-6c" d="M 444 0 
L 444 4859 
L 1313 4859 
L 1313 0 
L 444 0 
z
" transform="scale(0.015625)"/>
      <path id="MalgunGothicBold-61" d="M 534 3075 
Q 756 3203 1109 3283 
Q 1463 3363 1744 3363 
Q 3075 3363 3075 2013 
L 3075 0 
L 2244 0 
L 2244 484 
L 2228 484 
Q 1897 -81 1244 -81 
Q 769 -81 491 186 
Q 213 453 213 903 
Q 213 1844 1331 1994 
L 2247 2119 
Q 2247 2747 1634 2747 
Q 1050 2747 534 2381 
L 534 3075 
z
M 1594 1500 
Q 1031 1428 1031 997 
Q 1031 803 1165 681 
Q 1300 559 1528 559 
Q 1841 559 2044 779 
Q 2247 1000 2247 1334 
L 2247 1584 
L 1594 1500 
z
" transform="scale(0.015625)"/>
      <path id="MalgunGothicBold-63" d="M 2875 128 
Q 2522 -81 1909 -81 
Q 1172 -81 714 373 
Q 256 828 256 1563 
Q 256 2400 747 2881 
Q 1238 3363 2056 3363 
Q 2591 3363 2875 3206 
L 2875 2441 
Q 2544 2684 2144 2684 
Q 1688 2684 1413 2398 
Q 1138 2113 1138 1625 
Q 1138 1144 1397 872 
Q 1656 600 2109 600 
Q 2506 600 2875 850 
L 2875 128 
z
" transform="scale(0.015625)"/>
      <path id="MalgunGothicBold-6b" d="M 3581 0 
L 2503 0 
L 1338 1616 
L 1328 1616 
L 1328 0 
L 456 0 
L 456 4859 
L 1328 4859 
L 1328 1769 
L 1338 1769 
L 2434 3284 
L 3488 3284 
L 2209 1728 
L 3581 0 
z
" transform="scale(0.015625)"/>
     </defs>
     <use xlink:href="#MalgunGothicBold-42"/>
     <use xlink:href="#MalgunGothicBold-6c" transform="translate(63.720703 0)"/>
     <use xlink:href="#MalgunGothicBold-61" transform="translate(91.162109 0)"/>
     <use xlink:href="#MalgunGothicBold-63" transform="translate(145.458984 0)"/>
     <use xlink:href="#MalgunGothicBold-6b" transform="translate(194.189453 0)"/>
    </g>
    <!-- (High-Risk) -->
    <g style="fill: #991b1b" transform="translate(124.888587 120.84425) scale(0.1 -0.1)">
     <defs>
      <path id="MalgunGothicBold-28" d="M 1513 -1044 
Q 488 94 488 1756 
Q 488 3384 1513 4600 
L 2231 4600 
Q 1250 3334 1250 1759 
Q 1250 197 2231 -1044 
L 1513 -1044 
z
" transform="scale(0.015625)"/>
      <path id="MalgunGothicBold-48" d="M 4372 0 
L 3481 0 
L 3481 1938 
L 1438 1938 
L 1438 0 
L 547 0 
L 547 4600 
L 1438 4600 
L 1438 2709 
L 3481 2709 
L 3481 4600 
L 4372 4600 
L 4372 0 
z
" transform="scale(0.015625)"/>
      <path id="MalgunGothicBold-69" d="M 375 4366 
Q 375 4566 517 4700 
Q 659 4834 884 4834 
Q 1103 4834 1250 4701 
Q 1397 4569 1397 4366 
Q 1397 4163 1251 4028 
Q 1106 3894 884 3894 
Q 663 3894 519 4031 
Q 375 4169 375 4366 
z
M 444 0 
L 444 3284 
L 1313 3284 
L 1313 0 
L 444 0 
z
" transform="scale(0.015625)"/>
      <path id="MalgunGothicBold-67" d="M 3553 341 
Q 3553 -572 3050 -1058 
Q 2547 -1544 1591 -1544 
Q 941 -1544 534 -1341 
L 534 -584 
Q 1050 -881 1569 -881 
Q 2100 -881 2392 -598 
Q 2684 -316 2684 206 
L 2684 497 
L 2672 497 
Q 2316 -81 1619 -81 
Q 1006 -81 631 359 
Q 256 800 256 1547 
Q 256 2375 667 2869 
Q 1078 3363 1750 3363 
Q 2359 3363 2672 2881 
L 2684 2881 
L 2684 3284 
L 3553 3284 
L 3553 341 
z
M 2694 1875 
Q 2694 2209 2484 2446 
Q 2275 2684 1953 2684 
Q 1578 2684 1358 2393 
Q 1138 2103 1138 1581 
Q 1138 1131 1347 865 
Q 1556 600 1903 600 
Q 2256 600 2475 865 
Q 2694 1131 2694 1550 
L 2694 1875 
z
" transform="scale(0.015625)"/>
      <path id="MalgunGothicBold-68" d="M 3481 0 
L 2613 0 
L 2613 1872 
Q 2613 2684 2019 2684 
Q 1713 2684 1520 2454 
Q 1328 2225 1328 1872 
L 1328 0 
L 456 0 
L 456 4859 
L 1328 4859 
L 1328 2778 
L 1338 2778 
Q 1713 3363 2369 3363 
Q 3481 3363 3481 2019 
L 3481 0 
z
" transform="scale(0.015625)"/>
      <path id="MalgunGothicBold-2d" d="M 2213 1463 
L 459 1463 
L 459 2088 
L 2213 2088 
L 2213 1463 
z
" transform="scale(0.015625)"/>
      <path id="MalgunGothicBold-52" d="M 4241 0 
L 3209 0 
L 2478 1216 
Q 2256 1584 2100 1700 
Q 1944 1816 1763 1816 
L 1438 1816 
L 1438 0 
L 547 0 
L 547 4600 
L 2109 4600 
Q 3703 4600 3703 3356 
Q 3703 2900 3436 2564 
Q 3169 2228 2675 2088 
L 2675 2075 
Q 2991 1969 3372 1366 
L 4241 0 
z
M 1438 3906 
L 1438 2513 
L 1969 2513 
Q 2331 2513 2548 2723 
Q 2766 2934 2766 3250 
Q 2766 3906 1984 3906 
L 1438 3906 
z
" transform="scale(0.015625)"/>
      <path id="MalgunGothicBold-73" d="M 347 844 
Q 834 538 1309 538 
Q 1922 538 1922 884 
Q 1922 1125 1438 1291 
Q 731 1528 540 1758 
Q 350 1988 350 2347 
Q 350 2822 737 3092 
Q 1125 3363 1734 3363 
Q 2159 3363 2584 3228 
L 2584 2519 
Q 2200 2747 1744 2747 
Q 1503 2747 1356 2656 
Q 1209 2566 1209 2416 
Q 1209 2169 1619 2025 
Q 2084 1856 2303 1742 
Q 2522 1628 2644 1431 
Q 2766 1234 2766 969 
Q 2766 469 2367 194 
Q 1969 -81 1316 -81 
Q 766 -81 347 94 
L 347 844 
z
" transform="scale(0.015625)"/>
      <path id="MalgunGothicBold-29" d="M 59 -1044 
Q 1047 175 1047 1759 
Q 1047 3328 59 4600 
L 784 4600 
Q 1813 3378 1813 1756 
Q 1813 106 781 -1044 
L 59 -1044 
z
" transform="scale(0.015625)"/>
     </defs>
     <use xlink:href="#MalgunGothicBold-28"/>
     <use xlink:href="#MalgunGothicBold-48" transform="translate(35.791016 0)"/>
     <use xlink:href="#MalgunGothicBold-69" transform="translate(112.744141 0)"/>
     <use xlink:href="#MalgunGothicBold-67" transform="translate(140.185547 0)"/>
     <use xlink:href="#MalgunGothicBold-68" transform="translate(202.783203 0)"/>
     <use xlink:href="#MalgunGothicBold-2d" transform="translate(263.476562 0)"/>
     <use xlink:href="#MalgunGothicBold-52" transform="translate(304.833984 0)"/>
     <use xlink:href="#MalgunGothicBold-69" transform="translate(370.214844 0)"/>
     <use xlink:href="#MalgunGothicBold-73" transform="translate(397.65625 0)"/>
     <use xlink:href="#MalgunGothicBold-6b" transform="translate(443.847656 0)"/>
     <use xlink:href="#MalgunGothicBold-29" transform="translate(499.365234 0)"/>
    </g>
   </g>
   <g id="text_17">
    <g id="patch_18">
     <path d="M 121.104212 250.930094 
L 178.402649 250.930094 
Q 182.402649 250.930094 182.402649 246.930094 
L 182.402649 213.976031 
Q 182.402649 209.976031 178.402649 209.976031 
L 121.104212 209.976031 
Q 117.104212 209.976031 117.104212 213.976031 
L 117.104212 246.930094 
Q 117.104212 250.930094 121.104212 250.930094 
z
" style="fill: #ffffff; stroke: #c9a646; stroke-linejoin: miter"/>
    </g>
    <!-- Grey -->
    <g style="fill: #78572d" transform="translate(156.440149 221.519781) scale(0.1 -0.1)">
     <defs>
      <path id="MalgunGothicBold-47" d="M 4225 313 
Q 3547 -81 2588 -81 
Q 1519 -81 887 539 
Q 256 1159 256 2228 
Q 256 3303 943 3989 
Q 1631 4675 2763 4675 
Q 3500 4675 4044 4463 
L 4044 3597 
Q 3513 3919 2738 3919 
Q 2053 3919 1623 3467 
Q 1194 3016 1194 2275 
Q 1194 1519 1581 1098 
Q 1969 678 2644 678 
Q 3056 678 3331 813 
L 3331 1828 
L 2388 1828 
L 2388 2553 
L 4225 2553 
L 4225 313 
z
" transform="scale(0.015625)"/>
      <path id="MalgunGothicBold-72" d="M 2472 2481 
Q 2300 2584 2050 2584 
Q 1722 2584 1525 2317 
Q 1328 2050 1328 1600 
L 1328 0 
L 456 0 
L 456 3284 
L 1328 3284 
L 1328 2653 
L 1338 2653 
Q 1578 3341 2203 3341 
Q 2381 3341 2472 3297 
L 2472 2481 
z
" transform="scale(0.015625)"/>
      <path id="MalgunGothicBold-65" d="M 3316 1397 
L 1122 1397 
Q 1175 559 2072 559 
Q 2619 559 3047 847 
L 3047 184 
Q 2591 -81 1875 -81 
Q 1109 -81 682 362 
Q 256 806 256 1603 
Q 256 2384 714 2873 
Q 1172 3363 1859 3363 
Q 2547 3363 2931 2941 
Q 3316 2519 3316 1781 
L 3316 1397 
z
M 2494 1969 
Q 2494 2750 1850 2750 
Q 1581 2750 1376 2537 
Q 1172 2325 1122 1969 
L 2494 1969 
z
" transform="scale(0.015625)"/>
      <path id="MalgunGothicBold-79" d="M 3434 3284 
L 2050 -341 
Q 1591 -1544 688 -1544 
Q 375 -1544 159 -1472 
L 159 -763 
Q 347 -863 566 -863 
Q 956 -863 1125 -463 
L 1325 6 
L 6 3284 
L 972 3284 
L 1663 1131 
Q 1694 1028 1747 747 
L 1759 747 
Q 1784 909 1853 1125 
L 2566 3284 
L 3434 3284 
z
" transform="scale(0.015625)"/>
     </defs>
     <use xlink:href="#MalgunGothicBold-47"/>
     <use xlink:href="#MalgunGothicBold-72" transform="translate(72.216797 0)"/>
     <use xlink:href="#MalgunGothicBold-65" transform="translate(111.072266 0)"/>
     <use xlink:href="#MalgunGothicBold-79" transform="translate(166.052734 0)"/>
    </g>
    <!-- (Increased -->
    <g style="fill: #78572d" transform="translate(129.574524 233.042906) scale(0.1 -0.1)">
     <defs>
      <path id="MalgunGothicBold-49" d="M 1434 4600 
L 1434 0 
L 544 0 
L 544 4600 
L 1434 4600 
z
" transform="scale(0.015625)"/>
      <path id="MalgunGothicBold-6e" d="M 3497 0 
L 2628 0 
L 2628 1841 
Q 2628 2684 2019 2684 
Q 1713 2684 1520 2454 
Q 1328 2225 1328 1872 
L 1328 0 
L 456 0 
L 456 3284 
L 1328 3284 
L 1328 2756 
L 1338 2756 
Q 1700 3363 2403 3363 
Q 3497 3363 3497 2009 
L 3497 0 
z
" transform="scale(0.015625)"/>
      <path id="MalgunGothicBold-64" d="M 3550 0 
L 2681 0 
L 2681 484 
L 2666 484 
Q 2316 -81 1619 -81 
Q 1000 -81 628 362 
Q 256 806 256 1569 
Q 256 2378 672 2870 
Q 1088 3363 1753 3363 
Q 2400 3363 2666 2884 
L 2681 2884 
L 2681 4859 
L 3550 4859 
L 3550 0 
z
M 2694 1878 
Q 2694 2225 2481 2454 
Q 2269 2684 1947 2684 
Q 1572 2684 1355 2390 
Q 1138 2097 1138 1594 
Q 1138 1122 1347 861 
Q 1556 600 1913 600 
Q 2256 600 2475 872 
Q 2694 1144 2694 1566 
L 2694 1878 
z
" transform="scale(0.015625)"/>
     </defs>
     <use xlink:href="#MalgunGothicBold-28"/>
     <use xlink:href="#MalgunGothicBold-49" transform="translate(35.791016 0)"/>
     <use xlink:href="#MalgunGothicBold-6e" transform="translate(66.796875 0)"/>
     <use xlink:href="#MalgunGothicBold-63" transform="translate(127.636719 0)"/>
     <use xlink:href="#MalgunGothicBold-72" transform="translate(176.367188 0)"/>
     <use xlink:href="#MalgunGothicBold-65" transform="translate(215.222656 0)"/>
     <use xlink:href="#MalgunGothicBold-61" transform="translate(270.203125 0)"/>
     <use xlink:href="#MalgunGothicBold-73" transform="translate(324.5 0)"/>
     <use xlink:href="#MalgunGothicBold-65" transform="translate(370.691406 0)"/>
     <use xlink:href="#MalgunGothicBold-64" transform="translate(425.671875 0)"/>
    </g>
    <!-- Monitoring) -->
    <g style="fill: #78572d" transform="translate(121.104212 244.517594) scale(0.1 -0.1)">
     <defs>
      <path id="MalgunGothicBold-4d" d="M 4744 0 
L 4744 2850 
Q 4744 3163 4781 3806 
L 4763 3806 
Q 4684 3413 4619 3244 
L 3400 0 
L 2722 0 
L 1488 3216 
Q 1441 3341 1344 3806 
L 1322 3806 
Q 1356 3297 1356 2700 
L 1356 0 
L 547 0 
L 547 4600 
L 1828 4600 
L 2903 1734 
Q 3038 1378 3081 1103 
L 3103 1103 
Q 3172 1375 3297 1741 
L 4381 4600 
L 5625 4600 
L 5625 0 
L 4744 0 
z
" transform="scale(0.015625)"/>
      <path id="MalgunGothicBold-6f" d="M 256 1622 
Q 256 2428 731 2895 
Q 1206 3363 2019 3363 
Q 2803 3363 3258 2905 
Q 3713 2447 3713 1678 
Q 3713 878 3242 398 
Q 2772 -81 1969 -81 
Q 1181 -81 718 380 
Q 256 841 256 1622 
z
M 1138 1634 
Q 1138 600 1997 600 
Q 2825 600 2825 1659 
Q 2825 2684 1994 2684 
Q 1588 2684 1363 2404 
Q 1138 2125 1138 1634 
z
" transform="scale(0.015625)"/>
      <path id="MalgunGothicBold-74" d="M 2303 34 
Q 2081 -78 1684 -78 
Q 675 -78 675 991 
L 675 2622 
L 131 2622 
L 131 3284 
L 675 3284 
L 675 4019 
L 1544 4272 
L 1544 3284 
L 2303 3284 
L 2303 2622 
L 1544 2622 
L 1544 1144 
Q 1544 600 1972 600 
Q 2150 600 2303 700 
L 2303 34 
z
" transform="scale(0.015625)"/>
     </defs>
     <use xlink:href="#MalgunGothicBold-4d"/>
     <use xlink:href="#MalgunGothicBold-6f" transform="translate(96.435547 0)"/>
     <use xlink:href="#MalgunGothicBold-6e" transform="translate(158.398438 0)"/>
     <use xlink:href="#MalgunGothicBold-69" transform="translate(219.238281 0)"/>
     <use xlink:href="#MalgunGothicBold-74" transform="translate(246.679688 0)"/>
     <use xlink:href="#MalgunGothicBold-6f" transform="translate(284.607422 0)"/>
     <use xlink:href="#MalgunGothicBold-72" transform="translate(346.570312 0)"/>
     <use xlink:href="#MalgunGothicBold-69" transform="translate(386.300781 0)"/>
     <use xlink:href="#MalgunGothicBold-6e" transform="translate(413.742188 0)"/>
     <use xlink:href="#MalgunGothicBold-67" transform="translate(474.582031 0)"/>
     <use xlink:href="#MalgunGothicBold-29" transform="translate(537.179688 0)"/>
    </g>
   </g>
   <g id="text_18">
    <!-- FATF 2026 High-Risk · Grey List -->
    <g style="fill: #111418" transform="translate(100.8 28.629062) scale(0.14 -0.14)">
     <defs>
      <path id="MalgunGothicBold-46" d="M 3109 3859 
L 1438 3859 
L 1438 2594 
L 2978 2594 
L 2978 1863 
L 1438 1863 
L 1438 0 
L 547 0 
L 547 4600 
L 3109 4600 
L 3109 3859 
z
" transform="scale(0.015625)"/>
      <path id="MalgunGothicBold-41" d="M 4447 0 
L 3475 0 
L 3103 1100 
L 1375 1100 
L 1013 0 
L 41 0 
L 1744 4600 
L 2772 4600 
L 4447 0 
z
M 2881 1806 
L 2319 3472 
Q 2284 3572 2247 3853 
L 2225 3853 
Q 2200 3644 2147 3478 
L 1581 1806 
L 2881 1806 
z
" transform="scale(0.015625)"/>
      <path id="MalgunGothicBold-54" d="M 3628 3859 
L 2313 3859 
L 2313 0 
L 1419 0 
L 1419 3859 
L 106 3859 
L 106 4600 
L 3628 4600 
L 3628 3859 
z
" transform="scale(0.015625)"/>
      <path id="MalgunGothicBold-20" transform="scale(0.015625)"/>
      <path id="MalgunGothicBold-32" d="M 1322 734 
L 3272 734 
L 3272 0 
L 400 0 
L 400 347 
Q 400 719 526 1033 
Q 653 1347 889 1620 
Q 1125 1894 1881 2459 
Q 2175 2678 2303 2878 
Q 2431 3078 2431 3325 
Q 2431 3631 2251 3801 
Q 2072 3972 1694 3972 
Q 1103 3972 559 3503 
L 559 4288 
Q 1116 4675 1819 4675 
Q 2531 4675 2920 4328 
Q 3309 3981 3309 3369 
Q 3309 3053 3207 2809 
Q 3106 2566 2939 2367 
Q 2772 2169 2555 1998 
Q 2338 1828 2109 1659 
Q 1688 1347 1505 1125 
Q 1322 903 1322 734 
z
" transform="scale(0.015625)"/>
      <path id="MalgunGothicBold-30" d="M 241 2222 
Q 241 3422 670 4048 
Q 1100 4675 1919 4675 
Q 3475 4675 3475 2328 
Q 3475 1172 3051 545 
Q 2628 -81 1825 -81 
Q 241 -81 241 2222 
z
M 1125 2244 
Q 1125 600 1863 600 
Q 2584 600 2584 2288 
Q 2584 3997 1878 3997 
Q 1125 3997 1125 2244 
z
" transform="scale(0.015625)"/>
      <path id="MalgunGothicBold-36" d="M 3166 3803 
Q 2819 3997 2406 3997 
Q 1853 3997 1526 3548 
Q 1200 3100 1200 2400 
L 1219 2400 
Q 1547 2934 2209 2934 
Q 2791 2934 3134 2539 
Q 3478 2144 3478 1509 
Q 3478 813 3040 366 
Q 2603 -81 1931 -81 
Q 1153 -81 742 491 
Q 331 1063 331 2047 
Q 331 3213 868 3944 
Q 1406 4675 2356 4675 
Q 2881 4675 3166 4547 
L 3166 3803 
z
M 1231 1509 
Q 1231 1138 1422 869 
Q 1613 600 1934 600 
Q 2250 600 2434 840 
Q 2619 1081 2619 1447 
Q 2619 2272 1931 2272 
Q 1622 2272 1426 2055 
Q 1231 1838 1231 1509 
z
" transform="scale(0.015625)"/>
      <path id="MalgunGothicBold-b7" d="M 828 1594 
Q 725 1594 631 1630 
Q 538 1666 466 1728 
Q 394 1791 351 1880 
Q 309 1969 309 2075 
Q 309 2184 353 2271 
Q 397 2359 470 2420 
Q 544 2481 641 2515 
Q 738 2550 841 2550 
Q 944 2550 1039 2515 
Q 1134 2481 1206 2420 
Q 1278 2359 1320 2271 
Q 1363 2184 1363 2075 
Q 1363 1963 1320 1873 
Q 1278 1784 1204 1721 
Q 1131 1659 1034 1626 
Q 938 1594 828 1594 
z
" transform="scale(0.015625)"/>
      <path id="MalgunGothicBold-4c" d="M 3178 0 
L 547 0 
L 547 4600 
L 1438 4600 
L 1438 738 
L 3178 738 
L 3178 0 
z
" transform="scale(0.015625)"/>
     </defs>
     <use xlink:href="#MalgunGothicBold-46"/>
     <use xlink:href="#MalgunGothicBold-41" transform="translate(46.441406 0)"/>
     <use xlink:href="#MalgunGothicBold-54" transform="translate(109.177734 0)"/>
     <use xlink:href="#MalgunGothicBold-46" transform="translate(167.429688 0)"/>
     <use xlink:href="#MalgunGothicBold-20" transform="translate(219.871094 0)"/>
     <use xlink:href="#MalgunGothicBold-32" transform="translate(255.027344 0)"/>
     <use xlink:href="#MalgunGothicBold-30" transform="translate(312.986328 0)"/>
     <use xlink:href="#MalgunGothicBold-32" transform="translate(370.945312 0)"/>
     <use xlink:href="#MalgunGothicBold-36" transform="translate(428.904297 0)"/>
     <use xlink:href="#MalgunGothicBold-20" transform="translate(486.863281 0)"/>
     <use xlink:href="#MalgunGothicBold-48" transform="translate(522.019531 0)"/>
     <use xlink:href="#MalgunGothicBold-69" transform="translate(598.972656 0)"/>
     <use xlink:href="#MalgunGothicBold-67" transform="translate(626.414062 0)"/>
     <use xlink:href="#MalgunGothicBold-68" transform="translate(689.011719 0)"/>
     <use xlink:href="#MalgunGothicBold-2d" transform="translate(749.705078 0)"/>
     <use xlink:href="#MalgunGothicBold-52" transform="translate(791.0625 0)"/>
     <use xlink:href="#MalgunGothicBold-69" transform="translate(856.443359 0)"/>
     <use xlink:href="#MalgunGothicBold-73" transform="translate(883.884766 0)"/>
     <use xlink:href="#MalgunGothicBold-6b" transform="translate(930.076172 0)"/>
     <use xlink:href="#MalgunGothicBold-20" transform="translate(985.59375 0)"/>
     <use xlink:href="#MalgunGothicBold-b7" transform="translate(1020.75 0)"/>
     <use xlink:href="#MalgunGothicBold-20" transform="translate(1046.921875 0)"/>
     <use xlink:href="#MalgunGothicBold-47" transform="translate(1082.078125 0)"/>
     <use xlink:href="#MalgunGothicBold-72" transform="translate(1154.294922 0)"/>
     <use xlink:href="#MalgunGothicBold-65" transform="translate(1193.150391 0)"/>
     <use xlink:href="#MalgunGothicBold-79" transform="translate(1248.130859 0)"/>
     <use xlink:href="#MalgunGothicBold-20" transform="translate(1301.695312 0)"/>
     <use xlink:href="#MalgunGothicBold-4c" transform="translate(1336.851562 0)"/>
     <use xlink:href="#MalgunGothicBold-69" transform="translate(1388.072266 0)"/>
     <use xlink:href="#MalgunGothicBold-73" transform="translate(1415.513672 0)"/>
     <use xlink:href="#MalgunGothicBold-74" transform="translate(1461.705078 0)"/>
    </g>
   </g>
  </g>
  <g id="text_19">
   <!-- Source: FATF Plenary (수시 갱신) — 본 자료는 2026-04 기준 -->
   <g style="fill: #6b7280" transform="translate(18 364.613062) scale(0.075 -0.075)">
    <defs>
     <path id="MalgunGothic-53" d="M 394 797 
Q 606 613 964 500 
Q 1322 388 1625 388 
Q 2628 388 2628 1116 
Q 2628 1325 2523 1484 
Q 2419 1644 2250 1756 
Q 2081 1869 1547 2144 
Q 903 2475 651 2754 
Q 400 3034 400 3456 
Q 400 4019 858 4347 
Q 1316 4675 1988 4675 
Q 2669 4675 2963 4513 
L 2963 3928 
Q 2563 4206 1922 4206 
Q 1484 4206 1207 4018 
Q 931 3831 931 3500 
Q 931 3200 1126 3011 
Q 1322 2822 1938 2522 
Q 2656 2163 2906 1844 
Q 3156 1525 3156 1153 
Q 3156 556 2725 239 
Q 2294 -78 1531 -78 
Q 1291 -78 927 -1 
Q 563 75 394 188 
L 394 797 
z
" transform="scale(0.015625)"/>
     <path id="MalgunGothic-6f" d="M 316 1600 
Q 316 2419 761 2889 
Q 1206 3359 1978 3359 
Q 2697 3359 3111 2907 
Q 3525 2456 3525 1650 
Q 3525 869 3078 395 
Q 2631 -78 1900 -78 
Q 1184 -78 750 384 
Q 316 847 316 1600 
z
M 819 1622 
Q 819 1041 1123 692 
Q 1428 344 1934 344 
Q 2459 344 2739 680 
Q 3019 1016 3019 1634 
Q 3019 2256 2737 2598 
Q 2456 2941 1934 2941 
Q 1425 2941 1122 2587 
Q 819 2234 819 1622 
z
" transform="scale(0.015625)"/>
     <path id="MalgunGothic-75" d="M 3166 0 
L 2669 0 
L 2669 519 
L 2656 519 
Q 2331 -78 1644 -78 
Q 469 -78 469 1322 
L 469 3284 
L 959 3284 
L 959 1403 
Q 959 344 1766 344 
Q 2159 344 2414 636 
Q 2669 928 2669 1394 
L 2669 3284 
L 3166 3284 
L 3166 0 
z
" transform="scale(0.015625)"/>
     <path id="MalgunGothic-72" d="M 2225 2775 
Q 2084 2881 1828 2881 
Q 1491 2881 1262 2553 
Q 1034 2225 1034 1681 
L 1034 0 
L 538 0 
L 538 3284 
L 1034 3284 
L 1034 2603 
L 1047 2603 
Q 1159 2950 1389 3145 
Q 1619 3341 1903 3341 
Q 2109 3341 2225 3297 
L 2225 2775 
z
" transform="scale(0.015625)"/>
     <path id="MalgunGothic-63" d="M 2763 153 
Q 2375 -78 1872 -78 
Q 1184 -78 750 372 
Q 316 822 316 1566 
Q 316 2381 777 2870 
Q 1238 3359 2009 3359 
Q 2434 3359 2766 3200 
L 2766 2681 
Q 2397 2941 1981 2941 
Q 1478 2941 1148 2577 
Q 819 2213 819 1609 
Q 819 1034 1120 689 
Q 1422 344 1947 344 
Q 2381 344 2763 631 
L 2763 153 
z
" transform="scale(0.015625)"/>
     <path id="MalgunGothic-65" d="M 3156 1519 
L 828 1519 
Q 844 950 1133 648 
Q 1422 347 1909 347 
Q 2472 347 2934 719 
L 2934 244 
Q 2494 -78 1794 -78 
Q 1100 -78 708 376 
Q 316 831 316 1634 
Q 316 2381 747 2870 
Q 1178 3359 1816 3359 
Q 2453 3359 2804 2942 
Q 3156 2525 3156 1788 
L 3156 1519 
z
M 2644 1956 
Q 2644 2416 2423 2675 
Q 2203 2934 1809 2934 
Q 1438 2934 1169 2667 
Q 900 2400 834 1956 
L 2644 1956 
z
" transform="scale(0.015625)"/>
     <path id="MalgunGothic-3a" d="M 356 3006 
Q 356 3153 459 3254 
Q 563 3356 700 3356 
Q 838 3356 941 3254 
Q 1044 3153 1044 3006 
Q 1044 2863 942 2761 
Q 841 2659 700 2659 
Q 559 2659 457 2761 
Q 356 2863 356 3006 
z
M 356 275 
Q 356 422 459 523 
Q 563 625 700 625 
Q 838 625 941 523 
Q 1044 422 1044 275 
Q 1044 138 942 33 
Q 841 -72 700 -72 
Q 559 -72 457 29 
Q 356 131 356 275 
z
" transform="scale(0.015625)"/>
     <path id="MalgunGothic-20" transform="scale(0.015625)"/>
     <path id="MalgunGothic-46" d="M 2922 4134 
L 1113 4134 
L 1113 2516 
L 2788 2516 
L 2788 2050 
L 1113 2050 
L 1113 0 
L 609 0 
L 609 4600 
L 2922 4600 
L 2922 4134 
z
" transform="scale(0.015625)"/>
     <path id="MalgunGothic-41" d="M 4134 0 
L 3575 0 
L 3075 1306 
L 1103 1306 
L 638 0 
L 75 0 
L 1844 4600 
L 2356 4600 
L 4134 0 
z
M 2903 1769 
L 2169 3756 
Q 2128 3866 2100 4059 
L 2084 4059 
Q 2050 3844 2009 3756 
L 1281 1769 
L 2903 1769 
z
" transform="scale(0.015625)"/>
     <path id="MalgunGothic-54" d="M 3294 4134 
L 1966 4134 
L 1966 0 
L 1456 0 
L 1456 4134 
L 134 4134 
L 134 4600 
L 3294 4600 
L 3294 4134 
z
" transform="scale(0.015625)"/>
     <path id="MalgunGothic-50" d="M 1113 1747 
L 1113 0 
L 609 0 
L 609 4600 
L 1850 4600 
Q 2575 4600 2979 4240 
Q 3384 3881 3384 3231 
Q 3384 2559 2909 2140 
Q 2434 1722 1728 1747 
L 1113 1747 
z
M 1113 4131 
L 1113 2219 
L 1691 2219 
Q 2256 2219 2554 2475 
Q 2853 2731 2853 3206 
Q 2853 4131 1759 4131 
L 1113 4131 
z
" transform="scale(0.015625)"/>
     <path id="MalgunGothic-6c" d="M 541 0 
L 541 4859 
L 1034 4859 
L 1034 0 
L 541 0 
z
" transform="scale(0.015625)"/>
     <path id="MalgunGothic-6e" d="M 3238 0 
L 2741 0 
L 2741 1875 
Q 2741 2941 1963 2941 
Q 1563 2941 1298 2639 
Q 1034 2338 1034 1872 
L 1034 0 
L 538 0 
L 538 3284 
L 1034 3284 
L 1034 2734 
L 1047 2734 
Q 1416 3359 2125 3359 
Q 2666 3359 2952 3012 
Q 3238 2666 3238 2006 
L 3238 0 
z
" transform="scale(0.015625)"/>
     <path id="MalgunGothic-61" d="M 616 3050 
Q 1097 3359 1722 3359 
Q 2866 3359 2866 2147 
L 2866 0 
L 2369 0 
L 2369 516 
L 2350 516 
Q 2009 -78 1341 -78 
Q 859 -78 576 180 
Q 294 438 294 869 
Q 294 1784 1375 1934 
L 2366 2078 
Q 2366 2934 1684 2934 
Q 1084 2934 616 2525 
L 616 3050 
z
M 1563 1559 
Q 1178 1509 993 1371 
Q 809 1234 809 903 
Q 809 653 986 500 
Q 1163 347 1450 347 
Q 1847 347 2106 628 
Q 2366 909 2366 1334 
L 2366 1666 
L 1563 1559 
z
" transform="scale(0.015625)"/>
     <path id="MalgunGothic-79" d="M 3119 3284 
L 1597 -544 
Q 1197 -1547 481 -1547 
Q 313 -1547 156 -1509 
L 156 -1056 
Q 316 -1109 459 -1109 
Q 859 -1109 1059 -628 
L 1328 6 
L 47 3284 
L 597 3284 
L 1503 722 
Q 1513 697 1572 488 
L 1588 488 
L 1650 716 
L 2603 3284 
L 3119 3284 
z
" transform="scale(0.015625)"/>
     <path id="MalgunGothic-28" d="M 1438 -1044 
Q 447 88 447 1753 
Q 447 3431 1438 4600 
L 1888 4600 
Q 878 3372 878 1759 
Q 878 153 1881 -1044 
L 1438 -1044 
z
" transform="scale(0.015625)"/>
     <path id="MalgunGothic-ac31" d="M 5056 1947 
L 5056 3359 
L 4353 3359 
L 4353 2113 
L 3891 2113 
L 3891 5344 
L 4353 5344 
L 4353 3775 
L 5056 3775 
L 5056 5466 
L 5522 5466 
L 5522 1947 
L 5056 1947 
z
M 3225 5100 
Q 3216 4072 2680 3295 
Q 2144 2519 903 1913 
L 550 2266 
Q 1500 2638 2081 3281 
Q 2663 3925 2741 4691 
L 813 4691 
L 813 5100 
L 3225 5100 
z
M 3609 -481 
Q 2644 -481 2119 -161 
Q 1594 159 1594 666 
Q 1594 1172 2123 1489 
Q 2653 1806 3609 1806 
Q 4563 1806 5091 1489 
Q 5619 1172 5619 666 
Q 5619 159 5094 -161 
Q 4569 -481 3609 -481 
z
M 3609 1409 
Q 2881 1409 2487 1201 
Q 2094 994 2094 666 
Q 2094 331 2491 123 
Q 2888 -84 3609 -84 
Q 4328 -84 4726 123 
Q 5125 331 5125 666 
Q 5125 994 4731 1201 
Q 4338 1409 3609 1409 
z
" transform="scale(0.015625)"/>
     <path id="MalgunGothic-c2e0" d="M 4878 1178 
L 4878 5466 
L 5344 5466 
L 5344 1178 
L 4878 1178 
z
M 3675 2069 
Q 3228 2344 2829 2776 
Q 2431 3209 2266 3566 
Q 2091 3150 1662 2648 
Q 1234 2147 819 1913 
L 481 2234 
Q 1125 2559 1573 3198 
Q 2022 3838 2022 4494 
L 2022 5269 
L 2478 5269 
L 2478 4494 
Q 2478 3894 2943 3286 
Q 3409 2678 3988 2406 
L 3675 2069 
z
M 1631 -366 
L 1631 1550 
L 2100 1550 
L 2100 44 
L 5503 44 
L 5503 -366 
L 1631 -366 
z
" transform="scale(0.015625)"/>
     <path id="MalgunGothic-29" d="M 81 -1044 
Q 1081 150 1081 1759 
Q 1081 3378 72 4600 
L 525 4600 
Q 1522 3431 1522 1753 
Q 1522 88 525 -1044 
L 81 -1044 
z
" transform="scale(0.015625)"/>
     <path id="MalgunGothic-2014" d="M 6566 1634 
L 0 1634 
L 0 2031 
L 6566 2031 
L 6566 1634 
z
" transform="scale(0.015625)"/>
     <path id="MalgunGothic-bcf8" d="M 403 1759 
L 403 2181 
L 2963 2181 
L 2963 2956 
L 1356 2956 
L 1356 5288 
L 1819 5288 
L 1819 4519 
L 4581 4519 
L 4581 5288 
L 5044 5288 
L 5044 2956 
L 3438 2956 
L 3438 2181 
L 5997 2181 
L 5997 1759 
L 403 1759 
z
M 4581 4103 
L 1819 4103 
L 1819 3366 
L 4581 3366 
L 4581 4103 
z
M 1319 -359 
L 1319 1375 
L 1784 1375 
L 1784 56 
L 5203 56 
L 5203 -359 
L 1319 -359 
z
" transform="scale(0.015625)"/>
     <path id="MalgunGothic-c790" d="M 5094 2600 
L 5094 -563 
L 4628 -563 
L 4628 5466 
L 5094 5466 
L 5094 3016 
L 6138 3016 
L 6138 2600 
L 5094 2600 
z
M 3675 909 
Q 3228 1250 2808 1812 
Q 2388 2375 2247 2822 
Q 2125 2394 1712 1809 
Q 1300 1225 800 825 
L 441 1134 
Q 1100 1569 1551 2364 
Q 2003 3159 2003 3891 
L 2003 4525 
L 666 4525 
L 666 4941 
L 3775 4941 
L 3775 4525 
L 2463 4525 
L 2463 3922 
Q 2463 3188 2916 2434 
Q 3369 1681 4000 1259 
L 3675 909 
z
" transform="scale(0.015625)"/>
     <path id="MalgunGothic-b8cc" d="M 1234 3681 
L 4672 3681 
L 4672 4538 
L 1247 4538 
L 1247 4953 
L 5147 4953 
L 5147 3278 
L 1709 3278 
L 1709 2356 
L 5288 2356 
L 5288 1941 
L 4378 1941 
L 4378 769 
L 5997 769 
L 5997 353 
L 403 353 
L 403 769 
L 2022 769 
L 2022 1941 
L 1234 1941 
L 1234 3681 
z
M 2491 769 
L 3909 769 
L 3909 1941 
L 2491 1941 
L 2491 769 
z
" transform="scale(0.015625)"/>
     <path id="MalgunGothic-b294" d="M 1409 3225 
L 1409 5247 
L 1875 5247 
L 1875 3641 
L 5172 3641 
L 5172 3225 
L 1409 3225 
z
M 403 1972 
L 403 2394 
L 5997 2394 
L 5997 1972 
L 403 1972 
z
M 1381 -331 
L 1381 1459 
L 1850 1459 
L 1850 91 
L 5184 91 
L 5184 -331 
L 1381 -331 
z
" transform="scale(0.015625)"/>
     <path id="MalgunGothic-32" d="M 2519 3372 
Q 2519 3784 2275 4018 
Q 2031 4253 1628 4253 
Q 1341 4253 1053 4104 
Q 766 3956 534 3697 
L 534 4234 
Q 981 4675 1691 4675 
Q 2281 4675 2642 4334 
Q 3003 3994 3003 3416 
Q 3003 2919 2772 2545 
Q 2541 2172 1984 1775 
Q 1459 1406 1254 1215 
Q 1050 1025 967 854 
Q 884 684 884 450 
L 3116 450 
L 3116 0 
L 356 0 
L 356 225 
Q 356 603 461 870 
Q 566 1138 811 1392 
Q 1056 1647 1597 2022 
Q 2091 2363 2305 2670 
Q 2519 2978 2519 3372 
z
" transform="scale(0.015625)"/>
     <path id="MalgunGothic-30" d="M 278 2206 
Q 278 3425 675 4050 
Q 1072 4675 1819 4675 
Q 3253 4675 3253 2319 
Q 3253 1156 2854 539 
Q 2456 -78 1716 -78 
Q 1016 -78 647 520 
Q 278 1119 278 2206 
z
M 784 2231 
Q 784 344 1769 344 
Q 2747 344 2747 2259 
Q 2747 4250 1794 4250 
Q 784 4250 784 2231 
z
" transform="scale(0.015625)"/>
     <path id="MalgunGothic-36" d="M 2981 4069 
Q 2619 4250 2228 4250 
Q 1591 4250 1228 3689 
Q 866 3128 869 2213 
L 884 2213 
Q 1203 2872 1938 2872 
Q 2547 2872 2903 2478 
Q 3259 2084 3259 1450 
Q 3259 797 2857 359 
Q 2456 -78 1825 -78 
Q 1116 -78 736 478 
Q 356 1034 356 2019 
Q 356 3181 847 3928 
Q 1338 4675 2222 4675 
Q 2700 4675 2981 4544 
L 2981 4069 
z
M 906 1506 
Q 906 1022 1165 683 
Q 1425 344 1844 344 
Q 2247 344 2498 645 
Q 2750 947 2750 1388 
Q 2750 1888 2509 2167 
Q 2269 2447 1838 2447 
Q 1444 2447 1175 2173 
Q 906 1900 906 1506 
z
" transform="scale(0.015625)"/>
     <path id="MalgunGothic-2d" d="M 2213 1634 
L 463 1634 
L 463 2031 
L 2213 2031 
L 2213 1634 
z
" transform="scale(0.015625)"/>
     <path id="MalgunGothic-34" d="M 2703 4600 
L 2703 1563 
L 3309 1563 
L 3309 1113 
L 2703 1113 
L 2703 0 
L 2213 0 
L 2213 1113 
L 50 1113 
L 50 1534 
Q 728 2297 1295 3109 
Q 1863 3922 2172 4600 
L 2703 4600 
z
M 625 1563 
L 2213 1563 
L 2213 3831 
Q 1613 2788 959 1981 
L 625 1563 
z
" transform="scale(0.015625)"/>
     <path id="MalgunGothic-ae30" d="M 4884 -563 
L 4884 5466 
L 5350 5466 
L 5350 -563 
L 4884 -563 
z
M 3675 4909 
Q 3653 3656 2956 2611 
Q 2259 1566 959 844 
L 603 1222 
Q 1559 1619 2293 2478 
Q 3028 3338 3175 4494 
L 850 4494 
L 850 4909 
L 3675 4909 
z
" transform="scale(0.015625)"/>
     <path id="MalgunGothic-c900" d="M 5459 3078 
Q 4725 3191 4092 3536 
Q 3459 3881 3206 4263 
Q 2988 3925 2334 3556 
Q 1681 3188 972 3084 
L 697 3463 
Q 1541 3531 2203 3934 
Q 2866 4338 2963 4800 
L 1025 4800 
L 1025 5222 
L 5375 5222 
L 5375 4800 
L 3438 4800 
Q 3534 4331 4187 3928 
Q 4841 3525 5703 3463 
L 5459 3078 
z
M 3438 2088 
L 3438 603 
L 2963 603 
L 2963 2088 
L 403 2088 
L 403 2503 
L 5997 2503 
L 5997 2088 
L 3438 2088 
z
M 1325 -359 
L 1325 1459 
L 1791 1459 
L 1791 56 
L 5203 56 
L 5203 -359 
L 1325 -359 
z
" transform="scale(0.015625)"/>
    </defs>
    <use xlink:href="#MalgunGothic-53"/>
    <use xlink:href="#MalgunGothic-6f" transform="translate(54.296875 0)"/>
    <use xlink:href="#MalgunGothic-75" transform="translate(114.208984 0)"/>
    <use xlink:href="#MalgunGothic-72" transform="translate(172.021484 0)"/>
    <use xlink:href="#MalgunGothic-63" transform="translate(205.998047 0)"/>
    <use xlink:href="#MalgunGothic-65" transform="translate(253.263672 0)"/>
    <use xlink:href="#MalgunGothic-3a" transform="translate(306.779297 0)"/>
    <use xlink:href="#MalgunGothic-20" transform="translate(328.654297 0)"/>
    <use xlink:href="#MalgunGothic-46" transform="translate(363.810547 0)"/>
    <use xlink:href="#MalgunGothic-41" transform="translate(406.664062 0)"/>
    <use xlink:href="#MalgunGothic-54" transform="translate(464.734375 0)"/>
    <use xlink:href="#MalgunGothic-46" transform="translate(518.103516 0)"/>
    <use xlink:href="#MalgunGothic-20" transform="translate(567.957031 0)"/>
    <use xlink:href="#MalgunGothic-50" transform="translate(603.113281 0)"/>
    <use xlink:href="#MalgunGothic-6c" transform="translate(660.193359 0)"/>
    <use xlink:href="#MalgunGothic-65" transform="translate(684.802734 0)"/>
    <use xlink:href="#MalgunGothic-6e" transform="translate(738.318359 0)"/>
    <use xlink:href="#MalgunGothic-61" transform="translate(796.130859 0)"/>
    <use xlink:href="#MalgunGothic-72" transform="translate(848.132812 0)"/>
    <use xlink:href="#MalgunGothic-79" transform="translate(887.859375 0)"/>
    <use xlink:href="#MalgunGothic-20" transform="translate(937.126953 0)"/>
    <use xlink:href="#MalgunGothic-28" transform="translate(972.283203 0)"/>
    <use xlink:href="#MalgunGothic-c218" transform="translate(1002.751953 0)"/>
    <use xlink:href="#MalgunGothic-c2dc" transform="translate(1102.751953 0)"/>
    <use xlink:href="#MalgunGothic-20" transform="translate(1202.751953 0)"/>
    <use xlink:href="#MalgunGothic-ac31" transform="translate(1237.908203 0)"/>
    <use xlink:href="#MalgunGothic-c2e0" transform="translate(1337.908203 0)"/>
    <use xlink:href="#MalgunGothic-29" transform="translate(1437.908203 0)"/>
    <use xlink:href="#MalgunGothic-20" transform="translate(1468.376953 0)"/>
    <use xlink:href="#MalgunGothic-2014" transform="translate(1503.533203 0)"/>
    <use xlink:href="#MalgunGothic-20" transform="translate(1606.121094 0)"/>
    <use xlink:href="#MalgunGothic-bcf8" transform="translate(1641.277344 0)"/>
    <use xlink:href="#MalgunGothic-20" transform="translate(1741.277344 0)"/>
    <use xlink:href="#MalgunGothic-c790" transform="translate(1776.433594 0)"/>
    <use xlink:href="#MalgunGothic-b8cc" transform="translate(1876.433594 0)"/>
    <use xlink:href="#MalgunGothic-b294" transform="translate(1976.433594 0)"/>
    <use xlink:href="#MalgunGothic-20" transform="translate(2076.433594 0)"/>
    <use xlink:href="#MalgunGothic-32" transform="translate(2111.589844 0)"/>
    <use xlink:href="#MalgunGothic-30" transform="translate(2166.667969 0)"/>
    <use xlink:href="#MalgunGothic-32" transform="translate(2221.746094 0)"/>
    <use xlink:href="#MalgunGothic-36" transform="translate(2276.824219 0)"/>
    <use xlink:href="#MalgunGothic-2d" transform="translate(2331.902344 0)"/>
    <use xlink:href="#MalgunGothic-30" transform="translate(2372.917969 0)"/>
    <use xlink:href="#MalgunGothic-34" transform="translate(2427.996094 0)"/>
    <use xlink:href="#MalgunGothic-20" transform="translate(2483.074219 0)"/>
    <use xlink:href="#MalgunGothic-ae30" transform="translate(2518.230469 0)"/>
    <use xlink:href="#MalgunGothic-c900" transform="translate(2618.230469 0)"/>
   </g>
  </g>
 </g>
 <defs>
  <clipPath id="p354e328ce6">
   <rect x="100.8" y="42.629062" width="558" height="288.288"/>
  </clipPath>
 </defs>
</svg>
