<?xml version="1.0" encoding="utf-8" standalone="no"?>
<!DOCTYPE svg PUBLIC "-//W3C//DTD SVG 1.1//EN"
  "http://www.w3.org/Graphics/SVG/1.1/DTD/svg11.dtd">
<svg xmlns:xlink="http://www.w3.org/1999/xlink" width="379.299688pt" height="338.057953pt" viewBox="0 0 379.299688 338.057953" xmlns="http://www.w3.org/2000/svg" version="1.1">
 <metadata>
  <rdf:RDF xmlns:dc="http://purl.org/dc/elements/1.1/" xmlns:cc="http://creativecommons.org/ns#" xmlns:rdf="http://www.w3.org/1999/02/22-rdf-syntax-ns#">
   <cc:Work>
    <dc:type rdf:resource="http://purl.org/dc/dcmitype/StillImage"/>
    <dc:date>2026-04-21T11:08:26.787369</dc:date>
    <dc:format>image/svg+xml</dc:format>
    <dc:creator>
     <cc:Agent>
      <dc:title>Matplotlib v3.10.8, https://matplotlib.org/</dc:title>
     </cc:Agent>
    </dc:creator>
   </cc:Work>
  </rdf:RDF>
 </metadata>
 <defs>
  <style type="text/css">*{stroke-linejoin: round; stroke-linecap: butt}</style>
 </defs>
 <g id="figure_1">
  <g id="patch_1">
   <path d="M 0 338.057953 
L 379.299688 338.057953 
L 379.299688 0 
L 0 0 
z
" style="fill: #ffffff"/>
  </g>
  <g id="axes_1">
   <g id="matplotlib.axis_1"/>
   <g id="matplotlib.axis_2"/>
   <g id="patch_2">
    <path d="M 189.649844 67.022662 
C 178.896717 67.022662 168.217176 68.800225 158.0438 72.28335 
C 147.870423 75.766475 138.34245 80.90749 129.845812 87.498156 
C 121.349174 94.088823 114.000162 102.038939 108.096448 111.026481 
C 102.192735 120.014023 97.815122 129.915983 95.140927 140.331281 
C 92.466731 150.746578 91.532553 161.532663 92.376232 172.252642 
C 93.21991 182.972621 95.829898 193.479775 100.100478 203.348508 
C 104.371057 213.217241 110.243778 222.312485 117.480765 230.265835 
C 124.717752 238.219184 133.219955 244.921784 142.642991 250.102146 
C 152.066026 255.282508 162.280925 258.869729 172.87393 260.718508 
C 183.466936 262.567287 194.293065 262.652321 204.913804 260.970166 
C 215.534543 259.28801 225.80453 255.861688 235.307777 250.829984 
C 244.811023 245.798279 253.417462 239.230059 260.778488 231.39137 
C 268.139514 223.552681 274.154379 214.550808 278.579451 204.750375 
C 283.004522 194.949942 285.779235 184.485083 286.7912 173.779679 
C 287.803165 163.074275 287.03853 152.274847 284.528269 141.818828 
C 282.018008 131.362809 277.796476 121.393306 272.034668 112.314137 
L 240.728435 132.181649 
C 244.300756 137.810734 246.918105 143.991825 248.474467 150.474557 
C 250.030829 156.957289 250.504903 163.652934 249.877485 170.290285 
C 249.250067 176.927635 247.529744 183.415848 244.7862 189.492116 
C 242.042656 195.568385 238.313439 201.149546 233.749603 206.009533 
C 229.185767 210.86952 223.849775 214.941817 217.957762 218.061474 
C 212.065749 221.18113 205.698357 223.30545 199.113499 224.348387 
C 192.528641 225.391323 185.816441 225.338602 179.248777 224.192359 
C 172.681114 223.046115 166.347877 220.822038 160.505595 217.610214 
C 154.663313 214.39839 149.391947 210.242778 144.905015 205.311701 
C 140.418083 200.380625 136.776996 194.741573 134.129237 188.622959 
C 131.481477 182.504344 129.863285 175.989909 129.340204 169.343522 
C 128.817124 162.697135 129.396314 156.009762 131.054315 149.552278 
C 132.712317 143.094793 135.426436 136.955578 139.086739 131.383302 
C 142.747041 125.811026 147.303429 120.881954 152.571344 116.795741 
C 157.839259 112.709527 163.746603 109.522098 170.054096 107.362561 
C 176.36159 105.203023 182.982905 104.100934 189.649844 104.100934 
z
" style="fill: #1a2e4a; stroke: #ffffff; stroke-width: 2; stroke-linejoin: miter"/>
   </g>
   <g id="patch_3">
    <path d="M 272.034664 112.31413 
C 268.198266 106.268928 263.708122 100.664303 258.645397 95.601573 
C 253.582673 90.538843 247.978054 86.048693 241.932852 82.212289 
L 222.065309 113.518503 
C 225.813334 115.897073 229.288198 118.680966 232.427087 121.819859 
C 235.565976 124.958752 238.349865 128.433619 240.728432 132.181645 
z
" style="fill: #4a5f7e; stroke: #ffffff; stroke-width: 2; stroke-linejoin: miter"/>
   </g>
   <g id="patch_4">
    <path d="M 241.932852 82.212289 
C 237.616983 79.473355 233.092578 77.077803 228.401381 75.047738 
C 223.710184 73.017673 218.86669 71.359366 213.915679 70.088159 
L 204.694662 106.001542 
C 207.764288 106.789691 210.767255 107.817841 213.675797 109.076481 
C 216.584339 110.335121 219.38947 111.820364 222.065309 113.518503 
z
" style="fill: #7e8ba4; stroke: #ffffff; stroke-width: 2; stroke-linejoin: miter"/>
   </g>
   <g id="patch_5">
    <path d="M 213.915679 70.088159 
C 209.955596 69.071379 205.935515 68.304507 201.879223 67.792075 
C 197.822931 67.279643 193.738436 67.022662 189.649904 67.022662 
L 189.649881 104.100934 
C 192.184771 104.100934 194.717158 104.260263 197.232059 104.57797 
C 199.74696 104.895678 202.23941 105.371139 204.694662 106.001542 
z
" style="fill: #c9a646; stroke: #ffffff; stroke-width: 2; stroke-linejoin: miter"/>
   </g>
   <g id="text_1">
    <!-- Stablecoin -->
    <g style="fill: #111418" transform="translate(91.43763 255.52938) scale(0.1 -0.1)">
     <defs>
      <path id="MalgunGothic-53" d="M 394 797 
Q 606 613 964 500 
Q 1322 388 1625 388 
Q 2628 388 2628 1116 
Q 2628 1325 2523 1484 
Q 2419 1644 2250 1756 
Q 2081 1869 1547 2144 
Q 903 2475 651 2754 
Q 400 3034 400 3456 
Q 400 4019 858 4347 
Q 1316 4675 1988 4675 
Q 2669 4675 2963 4513 
L 2963 3928 
Q 2563 4206 1922 4206 
Q 1484 4206 1207 4018 
Q 931 3831 931 3500 
Q 931 3200 1126 3011 
Q 1322 2822 1938 2522 
Q 2656 2163 2906 1844 
Q 3156 1525 3156 1153 
Q 3156 556 2725 239 
Q 2294 -78 1531 -78 
Q 1291 -78 927 -1 
Q 563 75 394 188 
L 394 797 
z
" transform="scale(0.015625)"/>
      <path id="MalgunGothic-74" d="M 2031 31 
Q 1844 -72 1553 -72 
Q 706 -72 706 881 
L 706 2856 
L 138 2856 
L 138 3284 
L 706 3284 
L 706 4091 
L 1200 4250 
L 1200 3284 
L 2031 3284 
L 2031 2856 
L 1200 2856 
L 1200 972 
Q 1200 625 1315 487 
Q 1431 350 1691 350 
Q 1888 350 2031 459 
L 2031 31 
z
" transform="scale(0.015625)"/>
      <path id="MalgunGothic-61" d="M 616 3050 
Q 1097 3359 1722 3359 
Q 2866 3359 2866 2147 
L 2866 0 
L 2369 0 
L 2369 516 
L 2350 516 
Q 2009 -78 1341 -78 
Q 859 -78 576 180 
Q 294 438 294 869 
Q 294 1784 1375 1934 
L 2366 2078 
Q 2366 2934 1684 2934 
Q 1084 2934 616 2525 
L 616 3050 
z
M 1563 1559 
Q 1178 1509 993 1371 
Q 809 1234 809 903 
Q 809 653 986 500 
Q 1163 347 1450 347 
Q 1847 347 2106 628 
Q 2366 909 2366 1334 
L 2366 1666 
L 1563 1559 
z
" transform="scale(0.015625)"/>
      <path id="MalgunGothic-62" d="M 1034 481 
L 1034 0 
L 538 0 
L 538 4859 
L 1034 4859 
L 1034 2703 
L 1047 2703 
Q 1438 3359 2184 3359 
Q 2813 3359 3173 2917 
Q 3534 2475 3534 1738 
Q 3534 906 3126 414 
Q 2719 -78 2034 -78 
Q 1384 -78 1047 481 
L 1034 481 
z
M 1034 1334 
Q 1034 922 1307 633 
Q 1581 344 1991 344 
Q 2475 344 2751 716 
Q 3028 1088 3028 1753 
Q 3028 2303 2767 2622 
Q 2506 2941 2072 2941 
Q 1616 2941 1325 2616 
Q 1034 2291 1034 1803 
L 1034 1334 
z
" transform="scale(0.015625)"/>
      <path id="MalgunGothic-6c" d="M 541 0 
L 541 4859 
L 1034 4859 
L 1034 0 
L 541 0 
z
" transform="scale(0.015625)"/>
      <path id="MalgunGothic-65" d="M 3156 1519 
L 828 1519 
Q 844 950 1133 648 
Q 1422 347 1909 347 
Q 2472 347 2934 719 
L 2934 244 
Q 2494 -78 1794 -78 
Q 1100 -78 708 376 
Q 316 831 316 1634 
Q 316 2381 747 2870 
Q 1178 3359 1816 3359 
Q 2453 3359 2804 2942 
Q 3156 2525 3156 1788 
L 3156 1519 
z
M 2644 1956 
Q 2644 2416 2423 2675 
Q 2203 2934 1809 2934 
Q 1438 2934 1169 2667 
Q 900 2400 834 1956 
L 2644 1956 
z
" transform="scale(0.015625)"/>
      <path id="MalgunGothic-63" d="M 2763 153 
Q 2375 -78 1872 -78 
Q 1184 -78 750 372 
Q 316 822 316 1566 
Q 316 2381 777 2870 
Q 1238 3359 2009 3359 
Q 2434 3359 2766 3200 
L 2766 2681 
Q 2397 2941 1981 2941 
Q 1478 2941 1148 2577 
Q 819 2213 819 1609 
Q 819 1034 1120 689 
Q 1422 344 1947 344 
Q 2381 344 2763 631 
L 2763 153 
z
" transform="scale(0.015625)"/>
      <path id="MalgunGothic-6f" d="M 316 1600 
Q 316 2419 761 2889 
Q 1206 3359 1978 3359 
Q 2697 3359 3111 2907 
Q 3525 2456 3525 1650 
Q 3525 869 3078 395 
Q 2631 -78 1900 -78 
Q 1184 -78 750 384 
Q 316 847 316 1600 
z
M 819 1622 
Q 819 1041 1123 692 
Q 1428 344 1934 344 
Q 2459 344 2739 680 
Q 3019 1016 3019 1634 
Q 3019 2256 2737 2598 
Q 2456 2941 1934 2941 
Q 1425 2941 1122 2587 
Q 819 2234 819 1622 
z
" transform="scale(0.015625)"/>
      <path id="MalgunGothic-69" d="M 472 4466 
Q 472 4606 565 4701 
Q 659 4797 794 4797 
Q 934 4797 1029 4700 
Q 1125 4603 1125 4466 
Q 1125 4325 1029 4231 
Q 934 4138 794 4138 
Q 659 4138 565 4230 
Q 472 4322 472 4466 
z
M 541 0 
L 541 3284 
L 1034 3284 
L 1034 0 
L 541 0 
z
" transform="scale(0.015625)"/>
      <path id="MalgunGothic-6e" d="M 3238 0 
L 2741 0 
L 2741 1875 
Q 2741 2941 1963 2941 
Q 1563 2941 1298 2639 
Q 1034 2338 1034 1872 
L 1034 0 
L 538 0 
L 538 3284 
L 1034 3284 
L 1034 2734 
L 1047 2734 
Q 1416 3359 2125 3359 
Q 2666 3359 2952 3012 
Q 3238 2666 3238 2006 
L 3238 0 
z
" transform="scale(0.015625)"/>
     </defs>
     <use xlink:href="#MalgunGothic-53"/>
     <use xlink:href="#MalgunGothic-74" transform="translate(50.796875 0)"/>
     <use xlink:href="#MalgunGothic-61" transform="translate(85.269531 0)"/>
     <use xlink:href="#MalgunGothic-62" transform="translate(137.271484 0)"/>
     <use xlink:href="#MalgunGothic-6c" transform="translate(197.330078 0)"/>
     <use xlink:href="#MalgunGothic-65" transform="translate(221.939453 0)"/>
     <use xlink:href="#MalgunGothic-63" transform="translate(275.455078 0)"/>
     <use xlink:href="#MalgunGothic-6f" transform="translate(322.720703 0)"/>
     <use xlink:href="#MalgunGothic-69" transform="translate(382.632812 0)"/>
     <use xlink:href="#MalgunGothic-6e" transform="translate(407.242188 0)"/>
    </g>
    <!-- (USDT · USDC) -->
    <g style="fill: #111418" transform="translate(72.172005 267.004067) scale(0.1 -0.1)">
     <defs>
      <path id="MalgunGothic-28" d="M 1438 -1044 
Q 447 88 447 1753 
Q 447 3431 1438 4600 
L 1888 4600 
Q 878 3372 878 1759 
Q 878 153 1881 -1044 
L 1438 -1044 
z
" transform="scale(0.015625)"/>
      <path id="MalgunGothic-55" d="M 3947 1850 
Q 3947 -78 2209 -78 
Q 553 -78 553 1778 
L 553 4600 
L 1056 4600 
L 1056 1813 
Q 1056 381 2272 381 
Q 3441 381 3441 1763 
L 3441 4600 
L 3947 4600 
L 3947 1850 
z
" transform="scale(0.015625)"/>
      <path id="MalgunGothic-44" d="M 609 0 
L 609 4600 
L 1856 4600 
Q 4281 4600 4281 2356 
Q 4281 1288 3587 644 
Q 2894 0 1800 0 
L 609 0 
z
M 1113 4134 
L 1113 463 
L 1813 463 
Q 2734 463 3243 958 
Q 3753 1453 3753 2344 
Q 3753 4134 1844 4134 
L 1113 4134 
z
" transform="scale(0.015625)"/>
      <path id="MalgunGothic-54" d="M 3294 4134 
L 1966 4134 
L 1966 0 
L 1456 0 
L 1456 4134 
L 134 4134 
L 134 4600 
L 3294 4600 
L 3294 4134 
z
" transform="scale(0.015625)"/>
      <path id="MalgunGothic-20" transform="scale(0.015625)"/>
      <path id="MalgunGothic-b7" d="M 700 1644 
Q 628 1644 565 1672 
Q 503 1700 456 1747 
Q 409 1794 382 1858 
Q 356 1922 356 1994 
Q 356 2066 382 2130 
Q 409 2194 456 2241 
Q 503 2288 565 2316 
Q 628 2344 700 2344 
Q 772 2344 834 2316 
Q 897 2288 944 2241 
Q 991 2194 1017 2130 
Q 1044 2066 1044 1994 
Q 1044 1925 1017 1861 
Q 991 1797 944 1748 
Q 897 1700 834 1672 
Q 772 1644 700 1644 
z
" transform="scale(0.015625)"/>
      <path id="MalgunGothic-43" d="M 3725 197 
Q 3216 -78 2459 -78 
Q 1488 -78 897 561 
Q 306 1200 306 2213 
Q 306 3281 959 3978 
Q 1613 4675 2644 4675 
Q 3297 4675 3725 4484 
L 3725 3941 
Q 3234 4213 2634 4213 
Q 1813 4213 1325 3659 
Q 838 3106 838 2241 
Q 838 1413 1297 897 
Q 1756 381 2522 381 
Q 3216 381 3725 688 
L 3725 197 
z
" transform="scale(0.015625)"/>
      <path id="MalgunGothic-29" d="M 81 -1044 
Q 1081 150 1081 1759 
Q 1081 3378 72 4600 
L 525 4600 
Q 1522 3431 1522 1753 
Q 1522 88 525 -1044 
L 81 -1044 
z
" transform="scale(0.015625)"/>
     </defs>
     <use xlink:href="#MalgunGothic-28"/>
     <use xlink:href="#MalgunGothic-55" transform="translate(30.46875 0)"/>
     <use xlink:href="#MalgunGothic-53" transform="translate(100.732422 0)"/>
     <use xlink:href="#MalgunGothic-44" transform="translate(155.029297 0)"/>
     <use xlink:href="#MalgunGothic-54" transform="translate(221.882812 0)"/>
     <use xlink:href="#MalgunGothic-20" transform="translate(275.251953 0)"/>
     <use xlink:href="#MalgunGothic-b7" transform="translate(310.408203 0)"/>
     <use xlink:href="#MalgunGothic-20" transform="translate(332.283203 0)"/>
     <use xlink:href="#MalgunGothic-55" transform="translate(367.439453 0)"/>
     <use xlink:href="#MalgunGothic-53" transform="translate(437.703125 0)"/>
     <use xlink:href="#MalgunGothic-44" transform="translate(492 0)"/>
     <use xlink:href="#MalgunGothic-43" transform="translate(563.728516 0)"/>
     <use xlink:href="#MalgunGothic-29" transform="translate(627.205078 0)"/>
    </g>
   </g>
   <g id="text_2">
    <!-- 84% -->
    <g style="fill: #ffffff" transform="translate(139.914311 237.586705) scale(0.11 -0.11)">
     <defs>
      <path id="MalgunGothicBold-38" d="M 313 1238 
Q 313 1634 536 1945 
Q 759 2256 1181 2409 
Q 847 2581 655 2851 
Q 463 3122 463 3453 
Q 463 3794 645 4073 
Q 828 4353 1159 4514 
Q 1491 4675 1891 4675 
Q 2294 4675 2628 4517 
Q 2963 4359 3145 4082 
Q 3328 3806 3328 3466 
Q 3328 2788 2572 2431 
Q 2991 2281 3223 1972 
Q 3456 1663 3456 1247 
Q 3456 638 3029 278 
Q 2603 -81 1881 -81 
Q 1169 -81 741 276 
Q 313 634 313 1238 
z
M 1147 1294 
Q 1147 947 1344 756 
Q 1541 566 1884 566 
Q 2238 566 2431 758 
Q 2625 950 2625 1294 
Q 2625 1609 2415 1829 
Q 2206 2050 1884 2050 
Q 1569 2050 1358 1836 
Q 1147 1622 1147 1294 
z
M 1288 3391 
Q 1288 3119 1466 2925 
Q 1644 2731 1897 2731 
Q 2156 2731 2334 2926 
Q 2513 3122 2513 3391 
Q 2513 3694 2347 3861 
Q 2181 4028 1897 4028 
Q 1613 4028 1450 3859 
Q 1288 3691 1288 3391 
z
" transform="scale(0.015625)"/>
      <path id="MalgunGothicBold-34" d="M 2969 4600 
L 2969 1653 
L 3519 1653 
L 3519 1016 
L 2969 1016 
L 2969 0 
L 2163 0 
L 2163 1016 
L 159 1016 
L 159 1688 
Q 788 2406 1325 3189 
Q 1863 3972 2147 4600 
L 2969 4600 
z
M 900 1653 
L 2163 1653 
L 2163 3434 
Q 1972 3094 1622 2592 
Q 1272 2091 900 1653 
z
" transform="scale(0.015625)"/>
      <path id="MalgunGothicBold-25" d="M 275 3422 
Q 275 3984 586 4323 
Q 897 4663 1428 4663 
Q 1934 4663 2215 4355 
Q 2497 4047 2497 3503 
Q 2497 2947 2183 2611 
Q 1869 2275 1350 2275 
Q 869 2275 572 2589 
Q 275 2903 275 3422 
z
M 884 3453 
Q 884 2778 1391 2778 
Q 1900 2778 1900 3478 
Q 1900 4163 1406 4163 
Q 884 4163 884 3453 
z
M 4628 4600 
L 1644 -9 
L 959 -9 
L 3934 4600 
L 4628 4600 
z
M 3106 1081 
Q 3106 1644 3417 1984 
Q 3728 2325 4253 2325 
Q 4766 2325 5044 2022 
Q 5322 1719 5322 1163 
Q 5322 613 5009 272 
Q 4697 -69 4181 -69 
Q 3700 -69 3403 245 
Q 3106 559 3106 1081 
z
M 3709 1113 
Q 3709 438 4216 438 
Q 4722 438 4722 1138 
Q 4722 1469 4589 1644 
Q 4456 1819 4228 1819 
Q 3709 1819 3709 1113 
z
" transform="scale(0.015625)"/>
     </defs>
     <use xlink:href="#MalgunGothicBold-38"/>
     <use xlink:href="#MalgunGothicBold-34" transform="translate(57.958984 0)"/>
     <use xlink:href="#MalgunGothicBold-25" transform="translate(115.917969 0)"/>
    </g>
   </g>
   <g id="text_3">
    <!-- BTC -->
    <g style="fill: #111418" transform="translate(265.544914 91.316052) scale(0.1 -0.1)">
     <defs>
      <path id="MalgunGothic-42" d="M 609 0 
L 609 4600 
L 1894 4600 
Q 2466 4600 2817 4311 
Q 3169 4022 3169 3547 
Q 3169 3166 2961 2870 
Q 2753 2575 2378 2453 
L 2378 2441 
Q 2844 2391 3122 2089 
Q 3400 1788 3400 1319 
Q 3400 731 2978 365 
Q 2556 0 1919 0 
L 609 0 
z
M 1113 4128 
L 1113 2619 
L 1672 2619 
Q 2134 2619 2387 2839 
Q 2641 3059 2641 3447 
Q 2641 4128 1750 4128 
L 1113 4128 
z
M 1113 2153 
L 1113 469 
L 1859 469 
Q 2334 469 2603 698 
Q 2872 928 2872 1325 
Q 2872 2153 1738 2153 
L 1113 2153 
z
" transform="scale(0.015625)"/>
     </defs>
     <use xlink:href="#MalgunGothic-42"/>
     <use xlink:href="#MalgunGothic-54" transform="translate(53.474609 0)"/>
     <use xlink:href="#MalgunGothic-43" transform="translate(101.96875 0)"/>
    </g>
   </g>
   <g id="text_4">
    <!-- 7% -->
    <g style="fill: #111418" transform="translate(239.678669 110.373391) scale(0.09 -0.09)">
     <defs>
      <path id="MalgunGothicBold-37" d="M 3428 4119 
Q 2688 2741 2372 1861 
Q 2056 981 1916 0 
L 1016 0 
Q 1163 922 1520 1861 
Q 1878 2800 2522 3875 
L 300 3875 
L 300 4600 
L 3428 4600 
L 3428 4119 
z
" transform="scale(0.015625)"/>
     </defs>
     <use xlink:href="#MalgunGothicBold-37"/>
     <use xlink:href="#MalgunGothicBold-25" transform="translate(57.958984 0)"/>
    </g>
   </g>
   <g id="text_5">
    <!-- ETH -->
    <g style="fill: #111418" transform="translate(232.276488 68.706845) scale(0.1 -0.1)">
     <defs>
      <path id="MalgunGothic-45" d="M 3025 0 
L 609 0 
L 609 4600 
L 2922 4600 
L 2922 4134 
L 1113 4134 
L 1113 2572 
L 2784 2572 
L 2784 2109 
L 1113 2109 
L 1113 463 
L 3025 463 
L 3025 0 
z
" transform="scale(0.015625)"/>
      <path id="MalgunGothic-48" d="M 4028 0 
L 3525 0 
L 3525 2109 
L 1113 2109 
L 1113 0 
L 609 0 
L 609 4600 
L 1113 4600 
L 1113 2569 
L 3525 2569 
L 3525 4600 
L 4028 4600 
L 4028 0 
z
" transform="scale(0.015625)"/>
     </defs>
     <use xlink:href="#MalgunGothic-45"/>
     <use xlink:href="#MalgunGothic-54" transform="translate(51.958984 0)"/>
     <use xlink:href="#MalgunGothic-48" transform="translate(105.328125 0)"/>
    </g>
   </g>
   <g id="text_6">
    <!-- 5% -->
    <g style="fill: #111418" transform="translate(214.878569 93.519256) scale(0.09 -0.09)">
     <defs>
      <path id="MalgunGothicBold-35" d="M 472 138 
L 472 928 
Q 681 769 948 684 
Q 1216 600 1472 600 
Q 1913 600 2166 812 
Q 2419 1025 2419 1403 
Q 2419 1797 2151 1976 
Q 1884 2156 1331 2156 
Q 956 2156 544 2091 
L 716 4600 
L 3097 4600 
L 3097 3875 
L 1434 3875 
L 1356 2806 
Q 1706 2847 1819 2847 
Q 2491 2847 2898 2478 
Q 3306 2109 3306 1497 
Q 3306 756 2837 337 
Q 2369 -81 1556 -81 
Q 875 -81 472 138 
z
" transform="scale(0.015625)"/>
     </defs>
     <use xlink:href="#MalgunGothicBold-35"/>
     <use xlink:href="#MalgunGothicBold-25" transform="translate(57.958984 0)"/>
    </g>
   </g>
   <g id="text_7">
    <!-- Altcoin · Privacy -->
    <g style="fill: #111418" transform="translate(203.102111 60.699069) scale(0.1 -0.1)">
     <defs>
      <path id="MalgunGothic-41" d="M 4134 0 
L 3575 0 
L 3075 1306 
L 1103 1306 
L 638 0 
L 75 0 
L 1844 4600 
L 2356 4600 
L 4134 0 
z
M 2903 1769 
L 2169 3756 
Q 2128 3866 2100 4059 
L 2084 4059 
Q 2050 3844 2009 3756 
L 1281 1769 
L 2903 1769 
z
" transform="scale(0.015625)"/>
      <path id="MalgunGothic-50" d="M 1113 1747 
L 1113 0 
L 609 0 
L 609 4600 
L 1850 4600 
Q 2575 4600 2979 4240 
Q 3384 3881 3384 3231 
Q 3384 2559 2909 2140 
Q 2434 1722 1728 1747 
L 1113 1747 
z
M 1113 4131 
L 1113 2219 
L 1691 2219 
Q 2256 2219 2554 2475 
Q 2853 2731 2853 3206 
Q 2853 4131 1759 4131 
L 1113 4131 
z
" transform="scale(0.015625)"/>
      <path id="MalgunGothic-72" d="M 2225 2775 
Q 2084 2881 1828 2881 
Q 1491 2881 1262 2553 
Q 1034 2225 1034 1681 
L 1034 0 
L 538 0 
L 538 3284 
L 1034 3284 
L 1034 2603 
L 1047 2603 
Q 1159 2950 1389 3145 
Q 1619 3341 1903 3341 
Q 2109 3341 2225 3297 
L 2225 2775 
z
" transform="scale(0.015625)"/>
      <path id="MalgunGothic-76" d="M 3084 3284 
L 1769 0 
L 1294 0 
L 47 3284 
L 594 3284 
L 1441 872 
Q 1531 609 1556 425 
L 1572 425 
Q 1603 669 1672 863 
L 2563 3284 
L 3084 3284 
z
" transform="scale(0.015625)"/>
      <path id="MalgunGothic-79" d="M 3119 3284 
L 1597 -544 
Q 1197 -1547 481 -1547 
Q 313 -1547 156 -1509 
L 156 -1056 
Q 316 -1109 459 -1109 
Q 859 -1109 1059 -628 
L 1328 6 
L 47 3284 
L 597 3284 
L 1503 722 
Q 1513 697 1572 488 
L 1588 488 
L 1650 716 
L 2603 3284 
L 3119 3284 
z
" transform="scale(0.015625)"/>
     </defs>
     <use xlink:href="#MalgunGothic-41"/>
     <use xlink:href="#MalgunGothic-6c" transform="translate(65.820312 0)"/>
     <use xlink:href="#MalgunGothic-74" transform="translate(90.429688 0)"/>
     <use xlink:href="#MalgunGothic-63" transform="translate(123.527344 0)"/>
     <use xlink:href="#MalgunGothic-6f" transform="translate(170.792969 0)"/>
     <use xlink:href="#MalgunGothic-69" transform="translate(230.705078 0)"/>
     <use xlink:href="#MalgunGothic-6e" transform="translate(255.314453 0)"/>
     <use xlink:href="#MalgunGothic-20" transform="translate(313.126953 0)"/>
     <use xlink:href="#MalgunGothic-b7" transform="translate(348.283203 0)"/>
     <use xlink:href="#MalgunGothic-20" transform="translate(370.158203 0)"/>
     <use xlink:href="#MalgunGothic-50" transform="translate(405.314453 0)"/>
     <use xlink:href="#MalgunGothic-72" transform="translate(462.394531 0)"/>
     <use xlink:href="#MalgunGothic-69" transform="translate(497.746094 0)"/>
     <use xlink:href="#MalgunGothic-76" transform="translate(522.355469 0)"/>
     <use xlink:href="#MalgunGothic-61" transform="translate(569.085938 0)"/>
     <use xlink:href="#MalgunGothic-63" transform="translate(621.087891 0)"/>
     <use xlink:href="#MalgunGothic-79" transform="translate(668.353516 0)"/>
    </g>
   </g>
   <g id="text_8">
    <!-- 4% -->
    <g style="fill: #111418" transform="translate(193.130397 87.569623) scale(0.09 -0.09)">
     <use xlink:href="#MalgunGothicBold-34"/>
     <use xlink:href="#MalgunGothicBold-25" transform="translate(57.958984 0)"/>
    </g>
   </g>
   <g id="text_9">
    <!-- 2025 -->
    <g style="fill: #111418" transform="translate(168.786719 161.496423) scale(0.18 -0.18)">
     <defs>
      <path id="MalgunGothicBold-32" d="M 1322 734 
L 3272 734 
L 3272 0 
L 400 0 
L 400 347 
Q 400 719 526 1033 
Q 653 1347 889 1620 
Q 1125 1894 1881 2459 
Q 2175 2678 2303 2878 
Q 2431 3078 2431 3325 
Q 2431 3631 2251 3801 
Q 2072 3972 1694 3972 
Q 1103 3972 559 3503 
L 559 4288 
Q 1116 4675 1819 4675 
Q 2531 4675 2920 4328 
Q 3309 3981 3309 3369 
Q 3309 3053 3207 2809 
Q 3106 2566 2939 2367 
Q 2772 2169 2555 1998 
Q 2338 1828 2109 1659 
Q 1688 1347 1505 1125 
Q 1322 903 1322 734 
z
" transform="scale(0.015625)"/>
      <path id="MalgunGothicBold-30" d="M 241 2222 
Q 241 3422 670 4048 
Q 1100 4675 1919 4675 
Q 3475 4675 3475 2328 
Q 3475 1172 3051 545 
Q 2628 -81 1825 -81 
Q 241 -81 241 2222 
z
M 1125 2244 
Q 1125 600 1863 600 
Q 2584 600 2584 2288 
Q 2584 3997 1878 3997 
Q 1125 3997 1125 2244 
z
" transform="scale(0.015625)"/>
     </defs>
     <use xlink:href="#MalgunGothicBold-32"/>
     <use xlink:href="#MalgunGothicBold-30" transform="translate(57.958984 0)"/>
     <use xlink:href="#MalgunGothicBold-32" transform="translate(115.917969 0)"/>
     <use xlink:href="#MalgunGothicBold-35" transform="translate(173.876953 0)"/>
    </g>
   </g>
   <g id="text_10">
    <!-- Illicit -->
    <g style="fill: #3a414a" transform="translate(180.327109 173.471131) scale(0.09 -0.09)">
     <defs>
      <path id="MalgunGothic-49" d="M 1116 0 
L 613 0 
L 613 4600 
L 1116 4600 
L 1116 0 
z
" transform="scale(0.015625)"/>
     </defs>
     <use xlink:href="#MalgunGothic-49"/>
     <use xlink:href="#MalgunGothic-6c" transform="translate(27.001953 0)"/>
     <use xlink:href="#MalgunGothic-6c" transform="translate(51.611328 0)"/>
     <use xlink:href="#MalgunGothic-69" transform="translate(76.220703 0)"/>
     <use xlink:href="#MalgunGothic-63" transform="translate(100.830078 0)"/>
     <use xlink:href="#MalgunGothic-69" transform="translate(148.095703 0)"/>
     <use xlink:href="#MalgunGothic-74" transform="translate(172.705078 0)"/>
    </g>
    <!-- Crypto -->
    <g style="fill: #3a414a" transform="translate(175.877734 183.79835) scale(0.09 -0.09)">
     <defs>
      <path id="MalgunGothic-70" d="M 1034 481 
L 1034 -1513 
L 538 -1513 
L 538 3284 
L 1034 3284 
L 1034 2703 
L 1047 2703 
Q 1438 3359 2184 3359 
Q 2809 3359 3171 2920 
Q 3534 2481 3534 1738 
Q 3534 906 3126 414 
Q 2719 -78 2034 -78 
Q 1394 -78 1047 481 
L 1034 481 
z
M 1034 1331 
Q 1034 922 1307 633 
Q 1581 344 1991 344 
Q 2475 344 2751 716 
Q 3028 1088 3028 1753 
Q 3028 2300 2767 2620 
Q 2506 2941 2072 2941 
Q 1619 2941 1326 2619 
Q 1034 2297 1034 1806 
L 1034 1331 
z
" transform="scale(0.015625)"/>
     </defs>
     <use xlink:href="#MalgunGothic-43"/>
     <use xlink:href="#MalgunGothic-72" transform="translate(63.476562 0)"/>
     <use xlink:href="#MalgunGothic-79" transform="translate(103.203125 0)"/>
     <use xlink:href="#MalgunGothic-70" transform="translate(152.470703 0)"/>
     <use xlink:href="#MalgunGothic-74" transform="translate(212.529297 0)"/>
     <use xlink:href="#MalgunGothic-6f" transform="translate(246.126953 0)"/>
    </g>
   </g>
   <g id="text_11">
    <!-- 불법 가상자산 거래 자산별 비중 — 스테이블코인 84% -->
    <g style="fill: #111418" transform="translate(18 28.629062) scale(0.14 -0.14)">
     <defs>
      <path id="MalgunGothicBold-bd88" d="M 1253 3359 
L 1253 5381 
L 2034 5381 
L 2034 4934 
L 4372 4934 
L 4372 5381 
L 5153 5381 
L 5153 3359 
L 1253 3359 
z
M 4372 4347 
L 2034 4347 
L 2034 3963 
L 4372 3963 
L 4372 4347 
z
M 1253 -481 
L 1253 1025 
L 4347 1025 
L 4347 1356 
L 1253 1356 
L 1253 1966 
L 2803 1966 
L 2803 2394 
L 403 2394 
L 403 3003 
L 5997 3003 
L 5997 2394 
L 3591 2394 
L 3591 1966 
L 5131 1966 
L 5131 475 
L 2041 475 
L 2041 128 
L 5281 128 
L 5281 -481 
L 1253 -481 
z
" transform="scale(0.015625)"/>
      <path id="MalgunGothicBold-bc95" d="M 716 2541 
L 716 5269 
L 1484 5269 
L 1484 4459 
L 2841 4459 
L 2841 5269 
L 3616 5269 
L 3616 4206 
L 4788 4206 
L 4788 5466 
L 5556 5466 
L 5556 2216 
L 4788 2216 
L 4788 3541 
L 3616 3541 
L 3616 2541 
L 716 2541 
z
M 2841 3803 
L 1484 3803 
L 1484 3194 
L 2841 3194 
L 2841 3803 
z
M 1691 -434 
L 1691 1959 
L 2456 1959 
L 2456 1356 
L 4788 1356 
L 4788 1959 
L 5550 1959 
L 5550 -434 
L 1691 -434 
z
M 4788 703 
L 2456 703 
L 2456 206 
L 4788 206 
L 4788 703 
z
" transform="scale(0.015625)"/>
      <path id="MalgunGothicBold-20" transform="scale(0.015625)"/>
      <path id="MalgunGothicBold-ac00" d="M 5269 2431 
L 5269 -563 
L 4481 -563 
L 4481 5466 
L 5269 5466 
L 5269 3091 
L 6203 3091 
L 6203 2431 
L 5269 2431 
z
M 978 756 
L 391 1306 
Q 2413 2416 2834 4288 
L 738 4288 
L 738 4947 
L 3725 4947 
Q 3478 2297 978 756 
z
" transform="scale(0.015625)"/>
      <path id="MalgunGothicBold-c0c1" d="M 5259 3328 
L 5259 1947 
L 4475 1947 
L 4475 5466 
L 5259 5466 
L 5259 3988 
L 6175 3988 
L 6175 3328 
L 5259 3328 
z
M 3591 2209 
Q 2653 2656 2216 3353 
Q 2053 3028 1625 2615 
Q 1197 2203 872 2028 
L 300 2591 
Q 969 2884 1387 3418 
Q 1806 3953 1806 4525 
L 1806 5275 
L 2591 5275 
L 2591 4550 
Q 2591 3975 3020 3494 
Q 3450 3013 4091 2834 
L 3591 2209 
z
M 3347 -538 
Q 2388 -538 1863 -208 
Q 1338 122 1338 666 
Q 1338 1206 1869 1531 
Q 2400 1856 3347 1856 
Q 4297 1856 4826 1532 
Q 5356 1209 5356 666 
Q 5356 119 4829 -209 
Q 4303 -538 3347 -538 
z
M 3347 1203 
Q 2150 1203 2150 666 
Q 2150 116 3347 116 
Q 4550 116 4550 666 
Q 4550 1203 3347 1203 
z
" transform="scale(0.015625)"/>
      <path id="MalgunGothicBold-c790" d="M 5259 2491 
L 5259 -563 
L 4481 -563 
L 4481 5466 
L 5259 5466 
L 5259 3150 
L 6203 3150 
L 6203 2491 
L 5259 2491 
z
M 3591 928 
Q 2644 1606 2234 2369 
Q 1994 1925 1601 1470 
Q 1209 1016 884 813 
L 306 1313 
Q 894 1597 1366 2281 
Q 1838 2966 1838 3641 
L 1838 4300 
L 531 4300 
L 531 4959 
L 3897 4959 
L 3897 4300 
L 2619 4300 
L 2619 3659 
Q 2619 3022 3072 2390 
Q 3525 1759 4109 1503 
L 3591 928 
z
" transform="scale(0.015625)"/>
      <path id="MalgunGothicBold-c0b0" d="M 5253 2988 
L 5253 1125 
L 4475 1125 
L 4475 5466 
L 5253 5466 
L 5253 3647 
L 6175 3647 
L 6175 2988 
L 5253 2988 
z
M 3591 2016 
Q 2719 2431 2216 3225 
Q 2044 2881 1612 2440 
Q 1181 2000 872 1838 
L 300 2400 
Q 938 2675 1372 3244 
Q 1806 3813 1806 4397 
L 1806 5209 
L 2591 5209 
L 2591 4422 
Q 2591 3841 3030 3328 
Q 3469 2816 4091 2644 
L 3591 2016 
z
M 1484 -353 
L 1484 1638 
L 2272 1638 
L 2272 306 
L 5422 306 
L 5422 -353 
L 1484 -353 
z
" transform="scale(0.015625)"/>
      <path id="MalgunGothicBold-ac70" d="M 4800 -563 
L 4800 2541 
L 3391 2541 
L 3391 3200 
L 4800 3200 
L 4800 5466 
L 5569 5466 
L 5569 -563 
L 4800 -563 
z
M 3681 4947 
Q 3628 3572 2884 2465 
Q 2141 1359 922 722 
L 347 1325 
Q 1197 1638 1939 2466 
Q 2681 3294 2841 4288 
L 709 4288 
L 709 4947 
L 3681 4947 
z
" transform="scale(0.015625)"/>
      <path id="MalgunGothicBold-b798" d="M 4872 -563 
L 4872 2303 
L 4384 2303 
L 4384 -384 
L 3616 -384 
L 3616 5344 
L 4384 5344 
L 4384 2963 
L 4872 2963 
L 4872 5466 
L 5644 5466 
L 5644 -563 
L 4872 -563 
z
M 3359 978 
Q 2750 872 1656 872 
L 634 872 
L 634 3378 
L 2247 3378 
L 2247 4397 
L 634 4397 
L 634 5056 
L 3028 5056 
L 3028 2734 
L 1416 2734 
L 1416 1528 
L 1972 1528 
Q 2897 1528 3291 1613 
L 3359 978 
z
" transform="scale(0.015625)"/>
      <path id="MalgunGothicBold-bcc4" d="M 722 2541 
L 722 5269 
L 1491 5269 
L 1491 4525 
L 2847 4525 
L 2847 5269 
L 3622 5269 
L 3622 4716 
L 4794 4716 
L 4794 5466 
L 5563 5466 
L 5563 2438 
L 4794 2438 
L 4794 2956 
L 3622 2956 
L 3622 2541 
L 722 2541 
z
M 3622 3547 
L 4794 3547 
L 4794 4128 
L 3622 4128 
L 3622 3547 
z
M 2847 3866 
L 1491 3866 
L 1491 3194 
L 2847 3194 
L 2847 3866 
z
M 1663 -466 
L 1663 1166 
L 4794 1166 
L 4794 1538 
L 1663 1538 
L 1663 2175 
L 5563 2175 
L 5563 563 
L 2438 563 
L 2438 172 
L 5716 172 
L 5716 -466 
L 1663 -466 
z
" transform="scale(0.015625)"/>
      <path id="MalgunGothicBold-be44" d="M 4684 -563 
L 4684 5466 
L 5453 5466 
L 5453 -563 
L 4684 -563 
z
M 744 1069 
L 744 5031 
L 1509 5031 
L 1509 3669 
L 2900 3669 
L 2900 5031 
L 3681 5031 
L 3681 1069 
L 744 1069 
z
M 2900 3009 
L 1509 3009 
L 1509 1728 
L 2900 1728 
L 2900 3009 
z
" transform="scale(0.015625)"/>
      <path id="MalgunGothicBold-c911" d="M 5381 3163 
Q 3928 3403 3200 4134 
Q 2931 3825 2300 3542 
Q 1669 3259 1050 3169 
L 609 3750 
Q 1359 3800 1953 4064 
Q 2547 4328 2725 4666 
L 1044 4666 
L 1044 5325 
L 5356 5325 
L 5356 4666 
L 3681 4666 
Q 3881 4325 4479 4051 
Q 5078 3778 5759 3750 
L 5381 3163 
z
M 2803 1747 
L 2803 2188 
L 403 2188 
L 403 2847 
L 5997 2847 
L 5997 2188 
L 3591 2188 
L 3591 1747 
Q 4403 1684 4825 1382 
Q 5247 1081 5247 603 
Q 5247 47 4717 -258 
Q 4188 -563 3200 -563 
Q 2213 -563 1683 -258 
Q 1153 47 1153 603 
Q 1153 1094 1581 1391 
Q 2009 1688 2803 1747 
z
M 3200 1113 
Q 1953 1113 1953 603 
Q 1953 363 2268 220 
Q 2584 78 3200 78 
Q 3816 78 4131 220 
Q 4447 363 4447 603 
Q 4447 1113 3200 1113 
z
" transform="scale(0.015625)"/>
      <path id="MalgunGothicBold-2014" d="M 6566 1463 
L 0 1463 
L 0 2088 
L 6566 2088 
L 6566 1463 
z
" transform="scale(0.015625)"/>
      <path id="MalgunGothicBold-c2a4" d="M 5356 2175 
Q 4713 2366 4109 2766 
Q 3506 3166 3194 3609 
Q 2884 3150 2289 2747 
Q 1694 2344 1031 2169 
L 575 2778 
Q 1650 3013 2226 3564 
Q 2803 4116 2803 4628 
L 2803 5075 
L 3597 5075 
L 3597 4628 
Q 3597 4128 4173 3567 
Q 4750 3006 5813 2778 
L 5356 2175 
z
M 403 334 
L 403 978 
L 5997 978 
L 5997 334 
L 403 334 
z
" transform="scale(0.015625)"/>
      <path id="MalgunGothicBold-d14c" d="M 4856 -563 
L 4856 5466 
L 5638 5466 
L 5638 -563 
L 4856 -563 
z
M 2859 2503 
L 2859 3163 
L 3669 3163 
L 3669 5344 
L 4441 5344 
L 4441 -384 
L 3669 -384 
L 3669 2503 
L 2859 2503 
z
M 3231 1141 
Q 2634 1050 666 1050 
L 666 4953 
L 2969 4953 
L 2969 4294 
L 1434 4294 
L 1434 3488 
L 2484 3488 
L 2484 2853 
L 1434 2853 
L 1434 1697 
L 1772 1697 
Q 2559 1697 3181 1778 
L 3231 1141 
z
" transform="scale(0.015625)"/>
      <path id="MalgunGothicBold-c774" d="M 4691 -563 
L 4691 5466 
L 5466 5466 
L 5466 -563 
L 4691 -563 
z
M 2203 903 
Q 1484 903 1050 1468 
Q 616 2034 616 2994 
Q 616 3969 1048 4525 
Q 1481 5081 2203 5081 
Q 2922 5081 3351 4520 
Q 3781 3959 3781 2994 
Q 3781 2025 3353 1464 
Q 2925 903 2203 903 
z
M 2203 4416 
Q 1844 4416 1612 4031 
Q 1381 3647 1381 2988 
Q 1381 2338 1618 1950 
Q 1856 1563 2203 1563 
Q 2547 1563 2784 1945 
Q 3022 2328 3022 2988 
Q 3022 3647 2792 4031 
Q 2563 4416 2203 4416 
z
" transform="scale(0.015625)"/>
      <path id="MalgunGothicBold-be14" d="M 1253 3341 
L 1253 5381 
L 2034 5381 
L 2034 4916 
L 4372 4916 
L 4372 5381 
L 5153 5381 
L 5153 3341 
L 1253 3341 
z
M 4372 4325 
L 2034 4325 
L 2034 3944 
L 4372 3944 
L 4372 4325 
z
M 403 2338 
L 403 2944 
L 5997 2944 
L 5997 2338 
L 403 2338 
z
M 1253 -481 
L 1253 1025 
L 4347 1025 
L 4347 1356 
L 1253 1356 
L 1253 1966 
L 5131 1966 
L 5131 475 
L 2041 475 
L 2041 128 
L 5281 128 
L 5281 -481 
L 1253 -481 
z
" transform="scale(0.015625)"/>
      <path id="MalgunGothicBold-cf54" d="M 928 2631 
L 728 3303 
L 4459 3481 
L 4459 4281 
L 1069 4281 
L 1069 4928 
L 5253 4928 
L 5253 3731 
Q 5253 2331 5100 1409 
L 4353 1484 
Q 4434 2234 4453 2834 
L 928 2631 
z
M 403 269 
L 403 922 
L 2522 922 
L 2522 2316 
L 3309 2316 
L 3309 922 
L 5997 922 
L 5997 269 
L 403 269 
z
" transform="scale(0.015625)"/>
      <path id="MalgunGothicBold-c778" d="M 4697 1172 
L 4697 5466 
L 5466 5466 
L 5466 1172 
L 4697 1172 
z
M 2222 2034 
Q 1522 2034 1062 2482 
Q 603 2931 603 3628 
Q 603 4331 1062 4779 
Q 1522 5228 2222 5228 
Q 2922 5228 3381 4781 
Q 3841 4334 3841 3628 
Q 3841 2928 3381 2481 
Q 2922 2034 2222 2034 
z
M 2222 4569 
Q 1847 4569 1608 4309 
Q 1369 4050 1369 3628 
Q 1369 3209 1608 2951 
Q 1847 2694 2222 2694 
Q 2603 2694 2837 2951 
Q 3072 3209 3072 3628 
Q 3072 4041 2834 4305 
Q 2597 4569 2222 4569 
z
M 1575 -353 
L 1575 1638 
L 2363 1638 
L 2363 306 
L 5581 306 
L 5581 -353 
L 1575 -353 
z
" transform="scale(0.015625)"/>
     </defs>
     <use xlink:href="#MalgunGothicBold-bd88"/>
     <use xlink:href="#MalgunGothicBold-bc95" transform="translate(100 0)"/>
     <use xlink:href="#MalgunGothicBold-20" transform="translate(200 0)"/>
     <use xlink:href="#MalgunGothicBold-ac00" transform="translate(235.15625 0)"/>
     <use xlink:href="#MalgunGothicBold-c0c1" transform="translate(335.15625 0)"/>
     <use xlink:href="#MalgunGothicBold-c790" transform="translate(435.15625 0)"/>
     <use xlink:href="#MalgunGothicBold-c0b0" transform="translate(535.15625 0)"/>
     <use xlink:href="#MalgunGothicBold-20" transform="translate(635.15625 0)"/>
     <use xlink:href="#MalgunGothicBold-ac70" transform="translate(670.3125 0)"/>
     <use xlink:href="#MalgunGothicBold-b798" transform="translate(770.3125 0)"/>
     <use xlink:href="#MalgunGothicBold-20" transform="translate(870.3125 0)"/>
     <use xlink:href="#MalgunGothicBold-c790" transform="translate(905.46875 0)"/>
     <use xlink:href="#MalgunGothicBold-c0b0" transform="translate(1005.46875 0)"/>
     <use xlink:href="#MalgunGothicBold-bcc4" transform="translate(1105.46875 0)"/>
     <use xlink:href="#MalgunGothicBold-20" transform="translate(1205.46875 0)"/>
     <use xlink:href="#MalgunGothicBold-be44" transform="translate(1240.625 0)"/>
     <use xlink:href="#MalgunGothicBold-c911" transform="translate(1340.625 0)"/>
     <use xlink:href="#MalgunGothicBold-20" transform="translate(1440.625 0)"/>
     <use xlink:href="#MalgunGothicBold-2014" transform="translate(1475.78125 0)"/>
     <use xlink:href="#MalgunGothicBold-20" transform="translate(1578.369141 0)"/>
     <use xlink:href="#MalgunGothicBold-c2a4" transform="translate(1613.525391 0)"/>
     <use xlink:href="#MalgunGothicBold-d14c" transform="translate(1713.525391 0)"/>
     <use xlink:href="#MalgunGothicBold-c774" transform="translate(1813.525391 0)"/>
     <use xlink:href="#MalgunGothicBold-be14" transform="translate(1913.525391 0)"/>
     <use xlink:href="#MalgunGothicBold-cf54" transform="translate(2013.525391 0)"/>
     <use xlink:href="#MalgunGothicBold-c778" transform="translate(2113.525391 0)"/>
     <use xlink:href="#MalgunGothicBold-20" transform="translate(2213.525391 0)"/>
     <use xlink:href="#MalgunGothicBold-38" transform="translate(2248.681641 0)"/>
     <use xlink:href="#MalgunGothicBold-34" transform="translate(2306.640625 0)"/>
     <use xlink:href="#MalgunGothicBold-25" transform="translate(2364.599609 0)"/>
    </g>
   </g>
  </g>
  <g id="text_12">
   <!-- Source: Chainalysis Crypto Crime Report 2026 -->
   <g style="fill: #6b7280" transform="translate(104.680586 318.245062) scale(0.075 -0.075)">
    <defs>
     <path id="MalgunGothic-75" d="M 3166 0 
L 2669 0 
L 2669 519 
L 2656 519 
Q 2331 -78 1644 -78 
Q 469 -78 469 1322 
L 469 3284 
L 959 3284 
L 959 1403 
Q 959 344 1766 344 
Q 2159 344 2414 636 
Q 2669 928 2669 1394 
L 2669 3284 
L 3166 3284 
L 3166 0 
z
" transform="scale(0.015625)"/>
     <path id="MalgunGothic-3a" d="M 356 3006 
Q 356 3153 459 3254 
Q 563 3356 700 3356 
Q 838 3356 941 3254 
Q 1044 3153 1044 3006 
Q 1044 2863 942 2761 
Q 841 2659 700 2659 
Q 559 2659 457 2761 
Q 356 2863 356 3006 
z
M 356 275 
Q 356 422 459 523 
Q 563 625 700 625 
Q 838 625 941 523 
Q 1044 422 1044 275 
Q 1044 138 942 33 
Q 841 -72 700 -72 
Q 559 -72 457 29 
Q 356 131 356 275 
z
" transform="scale(0.015625)"/>
     <path id="MalgunGothic-68" d="M 3238 0 
L 2744 0 
L 2744 1894 
Q 2744 2941 1963 2941 
Q 1572 2941 1303 2637 
Q 1034 2334 1034 1859 
L 1034 0 
L 538 0 
L 538 4859 
L 1034 4859 
L 1034 2734 
L 1047 2734 
Q 1425 3359 2128 3359 
Q 3238 3359 3238 2022 
L 3238 0 
z
" transform="scale(0.015625)"/>
     <path id="MalgunGothic-73" d="M 331 669 
Q 763 350 1278 350 
Q 1978 350 1978 822 
Q 1978 1025 1825 1158 
Q 1672 1291 1222 1459 
Q 703 1666 520 1878 
Q 338 2091 338 2416 
Q 338 2834 700 3096 
Q 1063 3359 1584 3359 
Q 2003 3359 2341 3213 
L 2341 2697 
Q 1975 2934 1506 2934 
Q 1200 2934 1025 2798 
Q 850 2663 850 2459 
Q 850 2241 979 2125 
Q 1109 2009 1544 1838 
Q 2131 1609 2309 1390 
Q 2488 1172 2488 869 
Q 2488 431 2127 176 
Q 1766 -78 1203 -78 
Q 694 -78 331 122 
L 331 669 
z
" transform="scale(0.015625)"/>
     <path id="MalgunGothic-6d" d="M 5166 0 
L 4669 0 
L 4669 1884 
Q 4669 2463 4495 2702 
Q 4322 2941 3922 2941 
Q 3584 2941 3342 2623 
Q 3100 2306 3100 1875 
L 3100 0 
L 2606 0 
L 2606 1953 
Q 2606 2941 1844 2941 
Q 1497 2941 1265 2642 
Q 1034 2344 1034 1875 
L 1034 0 
L 538 0 
L 538 3284 
L 1034 3284 
L 1034 2763 
L 1047 2763 
Q 1391 3359 2063 3359 
Q 2381 3359 2636 3176 
Q 2891 2994 2991 2675 
Q 3356 3359 4081 3359 
Q 5166 3359 5166 2022 
L 5166 0 
z
" transform="scale(0.015625)"/>
     <path id="MalgunGothic-52" d="M 3866 0 
L 3259 0 
L 2488 1294 
Q 2241 1706 2044 1837 
Q 1847 1969 1569 1969 
L 1113 1969 
L 1113 0 
L 609 0 
L 609 4600 
L 1963 4600 
Q 2597 4600 2970 4272 
Q 3344 3944 3344 3375 
Q 3344 2422 2325 2138 
L 2325 2125 
Q 2519 2041 2645 1902 
Q 2772 1763 3006 1381 
L 3866 0 
z
M 1113 4128 
L 1113 2438 
L 1866 2438 
Q 2291 2438 2552 2686 
Q 2813 2934 2813 3334 
Q 2813 3709 2570 3918 
Q 2328 4128 1872 4128 
L 1113 4128 
z
" transform="scale(0.015625)"/>
     <path id="MalgunGothic-32" d="M 2519 3372 
Q 2519 3784 2275 4018 
Q 2031 4253 1628 4253 
Q 1341 4253 1053 4104 
Q 766 3956 534 3697 
L 534 4234 
Q 981 4675 1691 4675 
Q 2281 4675 2642 4334 
Q 3003 3994 3003 3416 
Q 3003 2919 2772 2545 
Q 2541 2172 1984 1775 
Q 1459 1406 1254 1215 
Q 1050 1025 967 854 
Q 884 684 884 450 
L 3116 450 
L 3116 0 
L 356 0 
L 356 225 
Q 356 603 461 870 
Q 566 1138 811 1392 
Q 1056 1647 1597 2022 
Q 2091 2363 2305 2670 
Q 2519 2978 2519 3372 
z
" transform="scale(0.015625)"/>
     <path id="MalgunGothic-30" d="M 278 2206 
Q 278 3425 675 4050 
Q 1072 4675 1819 4675 
Q 3253 4675 3253 2319 
Q 3253 1156 2854 539 
Q 2456 -78 1716 -78 
Q 1016 -78 647 520 
Q 278 1119 278 2206 
z
M 784 2231 
Q 784 344 1769 344 
Q 2747 344 2747 2259 
Q 2747 4250 1794 4250 
Q 784 4250 784 2231 
z
" transform="scale(0.015625)"/>
     <path id="MalgunGothic-36" d="M 2981 4069 
Q 2619 4250 2228 4250 
Q 1591 4250 1228 3689 
Q 866 3128 869 2213 
L 884 2213 
Q 1203 2872 1938 2872 
Q 2547 2872 2903 2478 
Q 3259 2084 3259 1450 
Q 3259 797 2857 359 
Q 2456 -78 1825 -78 
Q 1116 -78 736 478 
Q 356 1034 356 2019 
Q 356 3181 847 3928 
Q 1338 4675 2222 4675 
Q 2700 4675 2981 4544 
L 2981 4069 
z
M 906 1506 
Q 906 1022 1165 683 
Q 1425 344 1844 344 
Q 2247 344 2498 645 
Q 2750 947 2750 1388 
Q 2750 1888 2509 2167 
Q 2269 2447 1838 2447 
Q 1444 2447 1175 2173 
Q 906 1900 906 1506 
z
" transform="scale(0.015625)"/>
    </defs>
    <use xlink:href="#MalgunGothic-53"/>
    <use xlink:href="#MalgunGothic-6f" transform="translate(54.296875 0)"/>
    <use xlink:href="#MalgunGothic-75" transform="translate(114.208984 0)"/>
    <use xlink:href="#MalgunGothic-72" transform="translate(172.021484 0)"/>
    <use xlink:href="#MalgunGothic-63" transform="translate(205.998047 0)"/>
    <use xlink:href="#MalgunGothic-65" transform="translate(253.263672 0)"/>
    <use xlink:href="#MalgunGothic-3a" transform="translate(306.779297 0)"/>
    <use xlink:href="#MalgunGothic-20" transform="translate(328.654297 0)"/>
    <use xlink:href="#MalgunGothic-43" transform="translate(363.810547 0)"/>
    <use xlink:href="#MalgunGothic-68" transform="translate(427.287109 0)"/>
    <use xlink:href="#MalgunGothic-61" transform="translate(485.148438 0)"/>
    <use xlink:href="#MalgunGothic-69" transform="translate(537.150391 0)"/>
    <use xlink:href="#MalgunGothic-6e" transform="translate(561.759766 0)"/>
    <use xlink:href="#MalgunGothic-61" transform="translate(619.572266 0)"/>
    <use xlink:href="#MalgunGothic-6c" transform="translate(671.574219 0)"/>
    <use xlink:href="#MalgunGothic-79" transform="translate(696.183594 0)"/>
    <use xlink:href="#MalgunGothic-73" transform="translate(745.451172 0)"/>
    <use xlink:href="#MalgunGothic-69" transform="translate(788.761719 0)"/>
    <use xlink:href="#MalgunGothic-73" transform="translate(813.371094 0)"/>
    <use xlink:href="#MalgunGothic-20" transform="translate(856.681641 0)"/>
    <use xlink:href="#MalgunGothic-43" transform="translate(891.837891 0)"/>
    <use xlink:href="#MalgunGothic-72" transform="translate(955.314453 0)"/>
    <use xlink:href="#MalgunGothic-79" transform="translate(995.041016 0)"/>
    <use xlink:href="#MalgunGothic-70" transform="translate(1044.308594 0)"/>
    <use xlink:href="#MalgunGothic-74" transform="translate(1104.367188 0)"/>
    <use xlink:href="#MalgunGothic-6f" transform="translate(1137.964844 0)"/>
    <use xlink:href="#MalgunGothic-20" transform="translate(1197.876953 0)"/>
    <use xlink:href="#MalgunGothic-43" transform="translate(1233.033203 0)"/>
    <use xlink:href="#MalgunGothic-72" transform="translate(1296.509766 0)"/>
    <use xlink:href="#MalgunGothic-69" transform="translate(1331.861328 0)"/>
    <use xlink:href="#MalgunGothic-6d" transform="translate(1356.470703 0)"/>
    <use xlink:href="#MalgunGothic-65" transform="translate(1444.458984 0)"/>
    <use xlink:href="#MalgunGothic-20" transform="translate(1497.974609 0)"/>
    <use xlink:href="#MalgunGothic-52" transform="translate(1533.130859 0)"/>
    <use xlink:href="#MalgunGothic-65" transform="translate(1591.117188 0)"/>
    <use xlink:href="#MalgunGothic-70" transform="translate(1644.632812 0)"/>
    <use xlink:href="#MalgunGothic-6f" transform="translate(1704.691406 0)"/>
    <use xlink:href="#MalgunGothic-72" transform="translate(1764.603516 0)"/>
    <use xlink:href="#MalgunGothic-74" transform="translate(1803.080078 0)"/>
    <use xlink:href="#MalgunGothic-20" transform="translate(1837.552734 0)"/>
    <use xlink:href="#MalgunGothic-32" transform="translate(1872.708984 0)"/>
    <use xlink:href="#MalgunGothic-30" transform="translate(1927.787109 0)"/>
    <use xlink:href="#MalgunGothic-32" transform="translate(1982.865234 0)"/>
    <use xlink:href="#MalgunGothic-36" transform="translate(2037.943359 0)"/>
   </g>
  </g>
 </g>
</svg>
