<?xml version="1.0" encoding="utf-8" standalone="no"?>
<!DOCTYPE svg PUBLIC "-//W3C//DTD SVG 1.1//EN"
  "http://www.w3.org/Graphics/SVG/1.1/DTD/svg11.dtd">
<svg xmlns:xlink="http://www.w3.org/1999/xlink" width="599.904pt" height="347.561953pt" viewBox="0 0 599.904 347.561953" xmlns="http://www.w3.org/2000/svg" version="1.1">
 <metadata>
  <rdf:RDF xmlns:dc="http://purl.org/dc/elements/1.1/" xmlns:cc="http://creativecommons.org/ns#" xmlns:rdf="http://www.w3.org/1999/02/22-rdf-syntax-ns#">
   <cc:Work>
    <dc:type rdf:resource="http://purl.org/dc/dcmitype/StillImage"/>
    <dc:date>2026-04-21T11:08:23.092427</dc:date>
    <dc:format>image/svg+xml</dc:format>
    <dc:creator>
     <cc:Agent>
      <dc:title>Matplotlib v3.10.8, https://matplotlib.org/</dc:title>
     </cc:Agent>
    </dc:creator>
   </cc:Work>
  </rdf:RDF>
 </metadata>
 <defs>
  <style type="text/css">*{stroke-linejoin: round; stroke-linecap: butt}</style>
 </defs>
 <g id="figure_1">
  <g id="patch_1">
   <path d="M -0 347.561953 
L 599.904 347.561953 
L 599.904 0 
L -0 0 
z
" style="fill: #ffffff"/>
  </g>
  <g id="axes_1">
   <g id="patch_2">
    <path d="M 90.864 286.565062 
L 581.904 286.565062 
L 581.904 42.629062 
L 90.864 42.629062 
z
" style="fill: #ffffff"/>
   </g>
   <g id="matplotlib.axis_1">
    <g id="xtick_1">
     <g id="line2d_1"/>
     <g id="text_1">
      <!-- 2017 -->
      <g style="fill: #3a414a" transform="translate(120.755652 296.898031) scale(0.09 -0.09)">
       <defs>
        <path id="MalgunGothic-32" d="M 2519 3372 
Q 2519 3784 2275 4018 
Q 2031 4253 1628 4253 
Q 1341 4253 1053 4104 
Q 766 3956 534 3697 
L 534 4234 
Q 981 4675 1691 4675 
Q 2281 4675 2642 4334 
Q 3003 3994 3003 3416 
Q 3003 2919 2772 2545 
Q 2541 2172 1984 1775 
Q 1459 1406 1254 1215 
Q 1050 1025 967 854 
Q 884 684 884 450 
L 3116 450 
L 3116 0 
L 356 0 
L 356 225 
Q 356 603 461 870 
Q 566 1138 811 1392 
Q 1056 1647 1597 2022 
Q 2091 2363 2305 2670 
Q 2519 2978 2519 3372 
z
" transform="scale(0.015625)"/>
        <path id="MalgunGothic-30" d="M 278 2206 
Q 278 3425 675 4050 
Q 1072 4675 1819 4675 
Q 3253 4675 3253 2319 
Q 3253 1156 2854 539 
Q 2456 -78 1716 -78 
Q 1016 -78 647 520 
Q 278 1119 278 2206 
z
M 784 2231 
Q 784 344 1769 344 
Q 2747 344 2747 2259 
Q 2747 4250 1794 4250 
Q 784 4250 784 2231 
z
" transform="scale(0.015625)"/>
        <path id="MalgunGothic-31" d="M 2231 0 
L 1734 0 
L 1734 3972 
Q 1591 3828 1266 3661 
Q 941 3494 672 3428 
L 672 3959 
Q 1016 4056 1409 4275 
Q 1803 4494 2031 4700 
L 2231 4700 
L 2231 0 
z
" transform="scale(0.015625)"/>
        <path id="MalgunGothic-37" d="M 3213 4297 
Q 2478 3006 2064 1918 
Q 1650 831 1550 0 
L 1009 0 
Q 1084 531 1290 1176 
Q 1497 1822 1815 2537 
Q 2134 3253 2631 4147 
L 291 4147 
L 291 4600 
L 3213 4600 
L 3213 4297 
z
" transform="scale(0.015625)"/>
       </defs>
       <use xlink:href="#MalgunGothic-32"/>
       <use xlink:href="#MalgunGothic-30" transform="translate(55.078125 0)"/>
       <use xlink:href="#MalgunGothic-31" transform="translate(110.15625 0)"/>
       <use xlink:href="#MalgunGothic-37" transform="translate(165.234375 0)"/>
      </g>
     </g>
    </g>
    <g id="xtick_2">
     <g id="line2d_2"/>
     <g id="text_2">
      <!-- 2018 -->
      <g style="fill: #3a414a" transform="translate(172.184223 296.898031) scale(0.09 -0.09)">
       <defs>
        <path id="MalgunGothic-38" d="M 303 1281 
Q 303 1669 539 2011 
Q 775 2353 1153 2494 
Q 856 2647 675 2915 
Q 494 3184 494 3500 
Q 494 3828 659 4098 
Q 825 4369 1122 4522 
Q 1419 4675 1778 4675 
Q 2334 4675 2700 4342 
Q 3066 4009 3066 3500 
Q 3066 3181 2881 2914 
Q 2697 2647 2413 2494 
Q 2788 2350 3022 2009 
Q 3256 1669 3256 1281 
Q 3256 672 2843 297 
Q 2431 -78 1778 -78 
Q 1131 -78 717 301 
Q 303 681 303 1281 
z
M 809 1328 
Q 809 878 1081 611 
Q 1353 344 1781 344 
Q 2206 344 2482 619 
Q 2759 894 2759 1328 
Q 2759 1731 2482 2011 
Q 2206 2291 1781 2291 
Q 1372 2291 1090 2020 
Q 809 1750 809 1328 
z
M 1003 3459 
Q 1003 3125 1234 2900 
Q 1466 2675 1781 2675 
Q 2097 2675 2330 2900 
Q 2563 3125 2563 3459 
Q 2563 3803 2341 4026 
Q 2119 4250 1781 4250 
Q 1450 4250 1226 4029 
Q 1003 3809 1003 3459 
z
" transform="scale(0.015625)"/>
       </defs>
       <use xlink:href="#MalgunGothic-32"/>
       <use xlink:href="#MalgunGothic-30" transform="translate(55.078125 0)"/>
       <use xlink:href="#MalgunGothic-31" transform="translate(110.15625 0)"/>
       <use xlink:href="#MalgunGothic-38" transform="translate(165.234375 0)"/>
      </g>
     </g>
    </g>
    <g id="xtick_3">
     <g id="line2d_3"/>
     <g id="text_3">
      <!-- 2019 -->
      <g style="fill: #3a414a" transform="translate(223.612795 296.898031) scale(0.09 -0.09)">
       <defs>
        <path id="MalgunGothic-39" d="M 556 563 
Q 941 344 1366 344 
Q 1994 344 2347 855 
Q 2700 1366 2700 2313 
Q 2694 2306 2688 2313 
Q 2388 1713 1653 1713 
Q 1059 1713 682 2120 
Q 306 2528 306 3144 
Q 306 3806 711 4240 
Q 1116 4675 1772 4675 
Q 2466 4675 2833 4131 
Q 3200 3588 3200 2578 
Q 3200 1319 2717 620 
Q 2234 -78 1344 -78 
Q 881 -78 556 78 
L 556 563 
z
M 813 3219 
Q 813 2741 1063 2450 
Q 1313 2159 1759 2159 
Q 2147 2159 2406 2417 
Q 2666 2675 2666 3047 
Q 2666 3556 2411 3903 
Q 2156 4250 1725 4250 
Q 1322 4250 1067 3948 
Q 813 3647 813 3219 
z
" transform="scale(0.015625)"/>
       </defs>
       <use xlink:href="#MalgunGothic-32"/>
       <use xlink:href="#MalgunGothic-30" transform="translate(55.078125 0)"/>
       <use xlink:href="#MalgunGothic-31" transform="translate(110.15625 0)"/>
       <use xlink:href="#MalgunGothic-39" transform="translate(165.234375 0)"/>
      </g>
     </g>
    </g>
    <g id="xtick_4">
     <g id="line2d_4"/>
     <g id="text_4">
      <!-- 2020 -->
      <g style="fill: #3a414a" transform="translate(275.041366 296.898031) scale(0.09 -0.09)">
       <use xlink:href="#MalgunGothic-32"/>
       <use xlink:href="#MalgunGothic-30" transform="translate(55.078125 0)"/>
       <use xlink:href="#MalgunGothic-32" transform="translate(110.15625 0)"/>
       <use xlink:href="#MalgunGothic-30" transform="translate(165.234375 0)"/>
      </g>
     </g>
    </g>
    <g id="xtick_5">
     <g id="line2d_5"/>
     <g id="text_5">
      <!-- 2021 -->
      <g style="fill: #3a414a" transform="translate(326.469938 296.898031) scale(0.09 -0.09)">
       <use xlink:href="#MalgunGothic-32"/>
       <use xlink:href="#MalgunGothic-30" transform="translate(55.078125 0)"/>
       <use xlink:href="#MalgunGothic-32" transform="translate(110.15625 0)"/>
       <use xlink:href="#MalgunGothic-31" transform="translate(165.234375 0)"/>
      </g>
     </g>
    </g>
    <g id="xtick_6">
     <g id="line2d_6"/>
     <g id="text_6">
      <!-- 2022 -->
      <g style="fill: #3a414a" transform="translate(377.898509 296.898031) scale(0.09 -0.09)">
       <use xlink:href="#MalgunGothic-32"/>
       <use xlink:href="#MalgunGothic-30" transform="translate(55.078125 0)"/>
       <use xlink:href="#MalgunGothic-32" transform="translate(110.15625 0)"/>
       <use xlink:href="#MalgunGothic-32" transform="translate(165.234375 0)"/>
      </g>
     </g>
    </g>
    <g id="xtick_7">
     <g id="line2d_7"/>
     <g id="text_7">
      <!-- 2023 -->
      <g style="fill: #3a414a" transform="translate(429.32708 296.898031) scale(0.09 -0.09)">
       <defs>
        <path id="MalgunGothic-33" d="M 416 719 
Q 891 344 1478 344 
Q 1959 344 2254 587 
Q 2550 831 2550 1247 
Q 2550 2169 1253 2169 
L 872 2169 
L 872 2591 
L 1234 2591 
Q 2388 2591 2388 3453 
Q 2388 4250 1509 4250 
Q 1022 4250 594 3916 
L 594 4413 
Q 1031 4675 1634 4675 
Q 2184 4675 2539 4372 
Q 2894 4069 2894 3581 
Q 2894 2678 1972 2409 
L 1972 2400 
Q 2469 2356 2764 2053 
Q 3059 1750 3059 1300 
Q 3059 672 2604 297 
Q 2150 -78 1450 -78 
Q 806 -78 416 169 
L 416 719 
z
" transform="scale(0.015625)"/>
       </defs>
       <use xlink:href="#MalgunGothic-32"/>
       <use xlink:href="#MalgunGothic-30" transform="translate(55.078125 0)"/>
       <use xlink:href="#MalgunGothic-32" transform="translate(110.15625 0)"/>
       <use xlink:href="#MalgunGothic-33" transform="translate(165.234375 0)"/>
      </g>
     </g>
    </g>
    <g id="xtick_8">
     <g id="line2d_8"/>
     <g id="text_8">
      <!-- 2024 -->
      <g style="fill: #3a414a" transform="translate(480.755652 296.898031) scale(0.09 -0.09)">
       <defs>
        <path id="MalgunGothic-34" d="M 2703 4600 
L 2703 1563 
L 3309 1563 
L 3309 1113 
L 2703 1113 
L 2703 0 
L 2213 0 
L 2213 1113 
L 50 1113 
L 50 1534 
Q 728 2297 1295 3109 
Q 1863 3922 2172 4600 
L 2703 4600 
z
M 625 1563 
L 2213 1563 
L 2213 3831 
Q 1613 2788 959 1981 
L 625 1563 
z
" transform="scale(0.015625)"/>
       </defs>
       <use xlink:href="#MalgunGothic-32"/>
       <use xlink:href="#MalgunGothic-30" transform="translate(55.078125 0)"/>
       <use xlink:href="#MalgunGothic-32" transform="translate(110.15625 0)"/>
       <use xlink:href="#MalgunGothic-34" transform="translate(165.234375 0)"/>
      </g>
     </g>
    </g>
    <g id="xtick_9">
     <g id="line2d_9"/>
     <g id="text_9">
      <!-- 2025 -->
      <g style="fill: #3a414a" transform="translate(532.184223 296.898031) scale(0.09 -0.09)">
       <defs>
        <path id="MalgunGothic-35" d="M 3072 1403 
Q 3072 722 2636 322 
Q 2200 -78 1469 -78 
Q 828 -78 516 113 
L 516 650 
Q 994 344 1475 344 
Q 1969 344 2270 630 
Q 2572 916 2572 1372 
Q 2572 1838 2265 2092 
Q 1959 2347 1381 2347 
Q 994 2347 603 2300 
L 759 4600 
L 2869 4600 
L 2869 4147 
L 1206 4147 
L 1106 2763 
Q 1347 2784 1547 2784 
Q 2263 2784 2667 2414 
Q 3072 2044 3072 1403 
z
" transform="scale(0.015625)"/>
       </defs>
       <use xlink:href="#MalgunGothic-32"/>
       <use xlink:href="#MalgunGothic-30" transform="translate(55.078125 0)"/>
       <use xlink:href="#MalgunGothic-32" transform="translate(110.15625 0)"/>
       <use xlink:href="#MalgunGothic-35" transform="translate(165.234375 0)"/>
      </g>
     </g>
    </g>
   </g>
   <g id="matplotlib.axis_2">
    <g id="ytick_1">
     <g id="line2d_10">
      <path d="M 90.864 286.565062 
L 581.904 286.565062 
" clip-path="url(#p1c557a6804)" style="fill: none; stroke: #d8dbe0; stroke-width: 0.5; stroke-linecap: round"/>
     </g>
     <g id="line2d_11">
      <defs>
       <path id="m692596bea4" d="M 0 0 
L -3.5 0 
" style="stroke: #3a414a; stroke-width: 0.8"/>
      </defs>
      <g>
       <use xlink:href="#m692596bea4" x="90.864" y="286.565062" style="fill: #3a414a; stroke: #3a414a; stroke-width: 0.8"/>
      </g>
     </g>
     <g id="text_10">
      <!-- $0.0B -->
      <g style="fill: #3a414a" transform="translate(61.773219 289.981547) scale(0.09 -0.09)">
       <defs>
        <path id="MalgunGothic-24" d="M 1963 -672 
L 1638 -672 
L 1638 0 
Q 953 0 534 272 
L 534 809 
Q 703 653 1039 537 
Q 1375 422 1638 428 
L 1638 2103 
Q 922 2453 725 2731 
Q 528 3009 528 3400 
Q 528 3841 842 4192 
Q 1156 4544 1638 4603 
L 1638 5181 
L 1963 5181 
L 1963 4616 
Q 2594 4597 2822 4441 
L 2822 3916 
Q 2509 4172 1963 4188 
L 1963 2466 
Q 2497 2200 2803 1912 
Q 3109 1625 3109 1181 
Q 3109 725 2804 420 
Q 2500 116 1963 28 
L 1963 -672 
z
M 1638 4172 
Q 1044 4031 1044 3469 
Q 1044 3222 1136 3056 
Q 1228 2891 1638 2644 
L 1638 4172 
z
M 1963 453 
Q 2591 594 2591 1134 
Q 2591 1588 1963 1934 
L 1963 453 
z
" transform="scale(0.015625)"/>
        <path id="MalgunGothic-2e" d="M 356 275 
Q 356 422 459 523 
Q 563 625 700 625 
Q 838 625 941 523 
Q 1044 422 1044 275 
Q 1044 138 942 33 
Q 841 -72 700 -72 
Q 559 -72 457 29 
Q 356 131 356 275 
z
" transform="scale(0.015625)"/>
        <path id="MalgunGothic-42" d="M 609 0 
L 609 4600 
L 1894 4600 
Q 2466 4600 2817 4311 
Q 3169 4022 3169 3547 
Q 3169 3166 2961 2870 
Q 2753 2575 2378 2453 
L 2378 2441 
Q 2844 2391 3122 2089 
Q 3400 1788 3400 1319 
Q 3400 731 2978 365 
Q 2556 0 1919 0 
L 609 0 
z
M 1113 4128 
L 1113 2619 
L 1672 2619 
Q 2134 2619 2387 2839 
Q 2641 3059 2641 3447 
Q 2641 4128 1750 4128 
L 1113 4128 
z
M 1113 2153 
L 1113 469 
L 1859 469 
Q 2334 469 2603 698 
Q 2872 928 2872 1325 
Q 2872 2153 1738 2153 
L 1113 2153 
z
" transform="scale(0.015625)"/>
       </defs>
       <use xlink:href="#MalgunGothic-24"/>
       <use xlink:href="#MalgunGothic-30" transform="translate(55.078125 0)"/>
       <use xlink:href="#MalgunGothic-2e" transform="translate(110.15625 0)"/>
       <use xlink:href="#MalgunGothic-30" transform="translate(132.03125 0)"/>
       <use xlink:href="#MalgunGothic-42" transform="translate(187.109375 0)"/>
      </g>
     </g>
    </g>
    <g id="ytick_2">
     <g id="line2d_12">
      <path d="M 90.864 238.260904 
L 581.904 238.260904 
" clip-path="url(#p1c557a6804)" style="fill: none; stroke: #d8dbe0; stroke-width: 0.5; stroke-linecap: round"/>
     </g>
     <g id="line2d_13">
      <g>
       <use xlink:href="#m692596bea4" x="90.864" y="238.260904" style="fill: #3a414a; stroke: #3a414a; stroke-width: 0.8"/>
      </g>
     </g>
     <g id="text_11">
      <!-- $0.5B -->
      <g style="fill: #3a414a" transform="translate(61.773219 241.677388) scale(0.09 -0.09)">
       <use xlink:href="#MalgunGothic-24"/>
       <use xlink:href="#MalgunGothic-30" transform="translate(55.078125 0)"/>
       <use xlink:href="#MalgunGothic-2e" transform="translate(110.15625 0)"/>
       <use xlink:href="#MalgunGothic-35" transform="translate(132.03125 0)"/>
       <use xlink:href="#MalgunGothic-42" transform="translate(187.109375 0)"/>
      </g>
     </g>
    </g>
    <g id="ytick_3">
     <g id="line2d_14">
      <path d="M 90.864 189.956746 
L 581.904 189.956746 
" clip-path="url(#p1c557a6804)" style="fill: none; stroke: #d8dbe0; stroke-width: 0.5; stroke-linecap: round"/>
     </g>
     <g id="line2d_15">
      <g>
       <use xlink:href="#m692596bea4" x="90.864" y="189.956746" style="fill: #3a414a; stroke: #3a414a; stroke-width: 0.8"/>
      </g>
     </g>
     <g id="text_12">
      <!-- $1.0B -->
      <g style="fill: #3a414a" transform="translate(61.773219 193.37323) scale(0.09 -0.09)">
       <use xlink:href="#MalgunGothic-24"/>
       <use xlink:href="#MalgunGothic-31" transform="translate(55.078125 0)"/>
       <use xlink:href="#MalgunGothic-2e" transform="translate(110.15625 0)"/>
       <use xlink:href="#MalgunGothic-30" transform="translate(132.03125 0)"/>
       <use xlink:href="#MalgunGothic-42" transform="translate(187.109375 0)"/>
      </g>
     </g>
    </g>
    <g id="ytick_4">
     <g id="line2d_16">
      <path d="M 90.864 141.652587 
L 581.904 141.652587 
" clip-path="url(#p1c557a6804)" style="fill: none; stroke: #d8dbe0; stroke-width: 0.5; stroke-linecap: round"/>
     </g>
     <g id="line2d_17">
      <g>
       <use xlink:href="#m692596bea4" x="90.864" y="141.652587" style="fill: #3a414a; stroke: #3a414a; stroke-width: 0.8"/>
      </g>
     </g>
     <g id="text_13">
      <!-- $1.5B -->
      <g style="fill: #3a414a" transform="translate(61.773219 145.069072) scale(0.09 -0.09)">
       <use xlink:href="#MalgunGothic-24"/>
       <use xlink:href="#MalgunGothic-31" transform="translate(55.078125 0)"/>
       <use xlink:href="#MalgunGothic-2e" transform="translate(110.15625 0)"/>
       <use xlink:href="#MalgunGothic-35" transform="translate(132.03125 0)"/>
       <use xlink:href="#MalgunGothic-42" transform="translate(187.109375 0)"/>
      </g>
     </g>
    </g>
    <g id="ytick_5">
     <g id="line2d_18">
      <path d="M 90.864 93.348429 
L 581.904 93.348429 
" clip-path="url(#p1c557a6804)" style="fill: none; stroke: #d8dbe0; stroke-width: 0.5; stroke-linecap: round"/>
     </g>
     <g id="line2d_19">
      <g>
       <use xlink:href="#m692596bea4" x="90.864" y="93.348429" style="fill: #3a414a; stroke: #3a414a; stroke-width: 0.8"/>
      </g>
     </g>
     <g id="text_14">
      <!-- $2.0B -->
      <g style="fill: #3a414a" transform="translate(61.773219 96.764913) scale(0.09 -0.09)">
       <use xlink:href="#MalgunGothic-24"/>
       <use xlink:href="#MalgunGothic-32" transform="translate(55.078125 0)"/>
       <use xlink:href="#MalgunGothic-2e" transform="translate(110.15625 0)"/>
       <use xlink:href="#MalgunGothic-30" transform="translate(132.03125 0)"/>
       <use xlink:href="#MalgunGothic-42" transform="translate(187.109375 0)"/>
      </g>
     </g>
    </g>
    <g id="ytick_6">
     <g id="line2d_20">
      <path d="M 90.864 45.04427 
L 581.904 45.04427 
" clip-path="url(#p1c557a6804)" style="fill: none; stroke: #d8dbe0; stroke-width: 0.5; stroke-linecap: round"/>
     </g>
     <g id="line2d_21">
      <g>
       <use xlink:href="#m692596bea4" x="90.864" y="45.04427" style="fill: #3a414a; stroke: #3a414a; stroke-width: 0.8"/>
      </g>
     </g>
     <g id="text_15">
      <!-- $2.5B -->
      <g style="fill: #3a414a" transform="translate(61.773219 48.460755) scale(0.09 -0.09)">
       <use xlink:href="#MalgunGothic-24"/>
       <use xlink:href="#MalgunGothic-32" transform="translate(55.078125 0)"/>
       <use xlink:href="#MalgunGothic-2e" transform="translate(110.15625 0)"/>
       <use xlink:href="#MalgunGothic-35" transform="translate(132.03125 0)"/>
       <use xlink:href="#MalgunGothic-42" transform="translate(187.109375 0)"/>
      </g>
     </g>
    </g>
    <g id="text_16">
     <!-- 탈취 금액 (USD Billion) -->
     <g style="fill: #111418" transform="translate(55.409156 216.457219) rotate(-90) scale(0.1 -0.1)">
      <defs>
       <path id="MalgunGothic-d0c8" d="M 5119 3622 
L 5119 2338 
L 4653 2338 
L 4653 5466 
L 5119 5466 
L 5119 4038 
L 6028 4038 
L 6028 3622 
L 5119 3622 
z
M 1294 3756 
L 1294 3059 
L 1697 3059 
Q 3122 3059 3866 3116 
L 3897 2734 
Q 3213 2663 831 2663 
L 831 5222 
L 3681 5222 
L 3681 4831 
L 1294 4831 
L 1294 4141 
L 3372 4141 
L 3372 3756 
L 1294 3756 
z
M 1466 -494 
L 1466 959 
L 4659 959 
L 4659 1606 
L 1466 1606 
L 1466 2003 
L 5119 2003 
L 5119 588 
L 1925 588 
L 1925 -103 
L 5281 -103 
L 5281 -494 
L 1466 -494 
z
" transform="scale(0.015625)"/>
       <path id="MalgunGothic-cde8" d="M 4197 2834 
Q 3700 2925 3233 3214 
Q 2766 3503 2597 3788 
Q 2441 3484 1958 3170 
Q 1475 2856 978 2725 
L 678 3091 
Q 1319 3184 1803 3548 
Q 2288 3913 2344 4353 
L 922 4353 
L 922 4769 
L 2363 4769 
L 2363 5472 
L 2828 5472 
L 2828 4769 
L 4225 4769 
L 4225 4353 
L 2841 4353 
Q 2894 3950 3355 3626 
Q 3816 3303 4481 3225 
L 4197 2834 
z
M 4997 -563 
L 4997 5466 
L 5466 5466 
L 5466 -563 
L 4997 -563 
z
M 2375 -391 
L 2375 1856 
Q 878 1831 453 1831 
L 409 2241 
Q 1131 2241 2622 2267 
Q 4113 2294 4647 2328 
L 4672 1925 
Q 3984 1881 2841 1869 
L 2841 -391 
L 2375 -391 
z
" transform="scale(0.015625)"/>
       <path id="MalgunGothic-20" transform="scale(0.015625)"/>
       <path id="MalgunGothic-ae08" d="M 403 2663 
L 403 3084 
L 4563 3084 
Q 4634 3803 4634 4819 
L 1338 4819 
L 1338 5234 
L 5100 5234 
Q 5100 4081 5019 3084 
L 5997 3084 
L 5997 2663 
L 403 2663 
z
M 1350 -416 
L 1350 1856 
L 5075 1856 
L 5075 -416 
L 1350 -416 
z
M 4616 1447 
L 1813 1447 
L 1813 0 
L 4616 0 
L 4616 1447 
z
" transform="scale(0.015625)"/>
       <path id="MalgunGothic-c561" d="M 5056 2081 
L 5056 3444 
L 4353 3444 
L 4353 2081 
L 3891 2081 
L 3891 5344 
L 4353 5344 
L 4353 3859 
L 5056 3859 
L 5056 5466 
L 5522 5466 
L 5522 2081 
L 5056 2081 
z
M 1972 2369 
Q 1400 2369 1001 2758 
Q 603 3147 603 3809 
Q 603 4469 1001 4858 
Q 1400 5247 1972 5247 
Q 2544 5247 2942 4858 
Q 3341 4469 3341 3809 
Q 3341 3147 2942 2758 
Q 2544 2369 1972 2369 
z
M 1972 4850 
Q 1578 4850 1314 4573 
Q 1050 4297 1050 3809 
Q 1050 3325 1314 3048 
Q 1578 2772 1972 2772 
Q 2366 2772 2633 3045 
Q 2900 3319 2900 3809 
Q 2900 4300 2633 4575 
Q 2366 4850 1972 4850 
z
M 5056 -563 
L 5056 1331 
L 1581 1331 
L 1581 1747 
L 5522 1747 
L 5522 -563 
L 5056 -563 
z
" transform="scale(0.015625)"/>
       <path id="MalgunGothic-28" d="M 1438 -1044 
Q 447 88 447 1753 
Q 447 3431 1438 4600 
L 1888 4600 
Q 878 3372 878 1759 
Q 878 153 1881 -1044 
L 1438 -1044 
z
" transform="scale(0.015625)"/>
       <path id="MalgunGothic-55" d="M 3947 1850 
Q 3947 -78 2209 -78 
Q 553 -78 553 1778 
L 553 4600 
L 1056 4600 
L 1056 1813 
Q 1056 381 2272 381 
Q 3441 381 3441 1763 
L 3441 4600 
L 3947 4600 
L 3947 1850 
z
" transform="scale(0.015625)"/>
       <path id="MalgunGothic-53" d="M 394 797 
Q 606 613 964 500 
Q 1322 388 1625 388 
Q 2628 388 2628 1116 
Q 2628 1325 2523 1484 
Q 2419 1644 2250 1756 
Q 2081 1869 1547 2144 
Q 903 2475 651 2754 
Q 400 3034 400 3456 
Q 400 4019 858 4347 
Q 1316 4675 1988 4675 
Q 2669 4675 2963 4513 
L 2963 3928 
Q 2563 4206 1922 4206 
Q 1484 4206 1207 4018 
Q 931 3831 931 3500 
Q 931 3200 1126 3011 
Q 1322 2822 1938 2522 
Q 2656 2163 2906 1844 
Q 3156 1525 3156 1153 
Q 3156 556 2725 239 
Q 2294 -78 1531 -78 
Q 1291 -78 927 -1 
Q 563 75 394 188 
L 394 797 
z
" transform="scale(0.015625)"/>
       <path id="MalgunGothic-44" d="M 609 0 
L 609 4600 
L 1856 4600 
Q 4281 4600 4281 2356 
Q 4281 1288 3587 644 
Q 2894 0 1800 0 
L 609 0 
z
M 1113 4134 
L 1113 463 
L 1813 463 
Q 2734 463 3243 958 
Q 3753 1453 3753 2344 
Q 3753 4134 1844 4134 
L 1113 4134 
z
" transform="scale(0.015625)"/>
       <path id="MalgunGothic-69" d="M 472 4466 
Q 472 4606 565 4701 
Q 659 4797 794 4797 
Q 934 4797 1029 4700 
Q 1125 4603 1125 4466 
Q 1125 4325 1029 4231 
Q 934 4138 794 4138 
Q 659 4138 565 4230 
Q 472 4322 472 4466 
z
M 541 0 
L 541 3284 
L 1034 3284 
L 1034 0 
L 541 0 
z
" transform="scale(0.015625)"/>
       <path id="MalgunGothic-6c" d="M 541 0 
L 541 4859 
L 1034 4859 
L 1034 0 
L 541 0 
z
" transform="scale(0.015625)"/>
       <path id="MalgunGothic-6f" d="M 316 1600 
Q 316 2419 761 2889 
Q 1206 3359 1978 3359 
Q 2697 3359 3111 2907 
Q 3525 2456 3525 1650 
Q 3525 869 3078 395 
Q 2631 -78 1900 -78 
Q 1184 -78 750 384 
Q 316 847 316 1600 
z
M 819 1622 
Q 819 1041 1123 692 
Q 1428 344 1934 344 
Q 2459 344 2739 680 
Q 3019 1016 3019 1634 
Q 3019 2256 2737 2598 
Q 2456 2941 1934 2941 
Q 1425 2941 1122 2587 
Q 819 2234 819 1622 
z
" transform="scale(0.015625)"/>
       <path id="MalgunGothic-6e" d="M 3238 0 
L 2741 0 
L 2741 1875 
Q 2741 2941 1963 2941 
Q 1563 2941 1298 2639 
Q 1034 2338 1034 1872 
L 1034 0 
L 538 0 
L 538 3284 
L 1034 3284 
L 1034 2734 
L 1047 2734 
Q 1416 3359 2125 3359 
Q 2666 3359 2952 3012 
Q 3238 2666 3238 2006 
L 3238 0 
z
" transform="scale(0.015625)"/>
       <path id="MalgunGothic-29" d="M 81 -1044 
Q 1081 150 1081 1759 
Q 1081 3378 72 4600 
L 525 4600 
Q 1522 3431 1522 1753 
Q 1522 88 525 -1044 
L 81 -1044 
z
" transform="scale(0.015625)"/>
      </defs>
      <use xlink:href="#MalgunGothic-d0c8"/>
      <use xlink:href="#MalgunGothic-cde8" transform="translate(100 0)"/>
      <use xlink:href="#MalgunGothic-20" transform="translate(200 0)"/>
      <use xlink:href="#MalgunGothic-ae08" transform="translate(235.15625 0)"/>
      <use xlink:href="#MalgunGothic-c561" transform="translate(335.15625 0)"/>
      <use xlink:href="#MalgunGothic-20" transform="translate(435.15625 0)"/>
      <use xlink:href="#MalgunGothic-28" transform="translate(470.3125 0)"/>
      <use xlink:href="#MalgunGothic-55" transform="translate(500.78125 0)"/>
      <use xlink:href="#MalgunGothic-53" transform="translate(571.044922 0)"/>
      <use xlink:href="#MalgunGothic-44" transform="translate(625.341797 0)"/>
      <use xlink:href="#MalgunGothic-20" transform="translate(697.070312 0)"/>
      <use xlink:href="#MalgunGothic-42" transform="translate(732.226562 0)"/>
      <use xlink:href="#MalgunGothic-69" transform="translate(790.576172 0)"/>
      <use xlink:href="#MalgunGothic-6c" transform="translate(815.185547 0)"/>
      <use xlink:href="#MalgunGothic-6c" transform="translate(839.794922 0)"/>
      <use xlink:href="#MalgunGothic-69" transform="translate(864.404297 0)"/>
      <use xlink:href="#MalgunGothic-6f" transform="translate(889.013672 0)"/>
      <use xlink:href="#MalgunGothic-6e" transform="translate(948.925781 0)"/>
      <use xlink:href="#MalgunGothic-29" transform="translate(1006.738281 0)"/>
     </g>
    </g>
   </g>
   <g id="patch_3">
    <path d="M 113.184 286.565062 
L 148.155429 286.565062 
L 148.155429 278.643181 
L 113.184 278.643181 
z
" clip-path="url(#p1c557a6804)" style="fill: #1a2e4a; stroke: #111418; stroke-width: 0.6; stroke-linejoin: miter"/>
   </g>
   <g id="patch_4">
    <path d="M 164.612571 286.565062 
L 199.584 286.565062 
L 199.584 231.498322 
L 164.612571 231.498322 
z
" clip-path="url(#p1c557a6804)" style="fill: #1a2e4a; stroke: #111418; stroke-width: 0.6; stroke-linejoin: miter"/>
   </g>
   <g id="patch_5">
    <path d="M 216.041143 286.565062 
L 251.012571 286.565062 
L 251.012571 281.734647 
L 216.041143 281.734647 
z
" clip-path="url(#p1c557a6804)" style="fill: #1a2e4a; stroke: #111418; stroke-width: 0.6; stroke-linejoin: miter"/>
   </g>
   <g id="patch_6">
    <path d="M 267.469714 286.565062 
L 302.441143 286.565062 
L 302.441143 259.514734 
L 267.469714 259.514734 
z
" clip-path="url(#p1c557a6804)" style="fill: #1a2e4a; stroke: #111418; stroke-width: 0.6; stroke-linejoin: miter"/>
   </g>
   <g id="patch_7">
    <path d="M 318.898286 286.565062 
L 353.869714 286.565062 
L 353.869714 247.921736 
L 318.898286 247.921736 
z
" clip-path="url(#p1c557a6804)" style="fill: #1a2e4a; stroke: #111418; stroke-width: 0.6; stroke-linejoin: miter"/>
   </g>
   <g id="patch_8">
    <path d="M 370.326857 286.565062 
L 405.298286 286.565062 
L 405.298286 127.16134 
L 370.326857 127.16134 
z
" clip-path="url(#p1c557a6804)" style="fill: #1a2e4a; stroke: #111418; stroke-width: 0.6; stroke-linejoin: miter"/>
   </g>
   <g id="patch_9">
    <path d="M 421.755429 286.565062 
L 456.726857 286.565062 
L 456.726857 122.330924 
L 421.755429 122.330924 
z
" clip-path="url(#p1c557a6804)" style="fill: #1a2e4a; stroke: #111418; stroke-width: 0.6; stroke-linejoin: miter"/>
   </g>
   <g id="patch_10">
    <path d="M 473.184 286.565062 
L 508.155429 286.565062 
L 508.155429 209.278409 
L 473.184 209.278409 
z
" clip-path="url(#p1c557a6804)" style="fill: #1a2e4a; stroke: #111418; stroke-width: 0.6; stroke-linejoin: miter"/>
   </g>
   <g id="patch_11">
    <path d="M 524.612571 286.565062 
L 559.584 286.565062 
L 559.584 91.416262 
L 524.612571 91.416262 
z
" clip-path="url(#p1c557a6804)" style="fill: #c9a646; stroke: #111418; stroke-width: 0.6; stroke-linejoin: miter"/>
   </g>
   <g id="patch_12">
    <path d="M 90.864 286.565062 
L 90.864 42.629062 
" style="fill: none; stroke: #111418; stroke-width: 0.8; stroke-linejoin: miter; stroke-linecap: square"/>
   </g>
   <g id="patch_13">
    <path d="M 90.864 286.565062 
L 581.904 286.565062 
" style="fill: none; stroke: #111418; stroke-width: 0.8; stroke-linejoin: miter; stroke-linecap: square"/>
   </g>
   <g id="text_17">
    <!-- $82M -->
    <g style="fill: #3a414a" transform="translate(120.392214 273.751931) scale(0.08 -0.08)">
     <defs>
      <path id="MalgunGothic-4d" d="M 4756 0 
L 4756 3106 
Q 4756 3466 4803 3994 
L 4788 3994 
Q 4713 3684 4653 3559 
L 3050 0 
L 2822 0 
L 1222 3534 
Q 1159 3669 1091 3994 
L 1075 3994 
Q 1100 3822 1100 3116 
L 1100 0 
L 609 0 
L 609 4600 
L 1269 4600 
L 2706 1359 
Q 2881 966 2922 816 
L 2941 816 
Q 2988 944 3166 1375 
L 4638 4600 
L 5259 4600 
L 5259 0 
L 4756 0 
z
" transform="scale(0.015625)"/>
     </defs>
     <use xlink:href="#MalgunGothic-24"/>
     <use xlink:href="#MalgunGothic-38" transform="translate(55.078125 0)"/>
     <use xlink:href="#MalgunGothic-32" transform="translate(110.15625 0)"/>
     <use xlink:href="#MalgunGothic-4d" transform="translate(165.234375 0)"/>
    </g>
   </g>
   <g id="text_18">
    <!-- $570M -->
    <g style="fill: #3a414a" transform="translate(169.617661 226.607072) scale(0.08 -0.08)">
     <use xlink:href="#MalgunGothic-24"/>
     <use xlink:href="#MalgunGothic-35" transform="translate(55.078125 0)"/>
     <use xlink:href="#MalgunGothic-37" transform="translate(110.15625 0)"/>
     <use xlink:href="#MalgunGothic-30" transform="translate(165.234375 0)"/>
     <use xlink:href="#MalgunGothic-4d" transform="translate(220.3125 0)"/>
    </g>
   </g>
   <g id="text_19">
    <!-- $50M -->
    <g style="fill: #3a414a" transform="translate(223.249357 276.843397) scale(0.08 -0.08)">
     <use xlink:href="#MalgunGothic-24"/>
     <use xlink:href="#MalgunGothic-35" transform="translate(55.078125 0)"/>
     <use xlink:href="#MalgunGothic-30" transform="translate(110.15625 0)"/>
     <use xlink:href="#MalgunGothic-4d" transform="translate(165.234375 0)"/>
    </g>
   </g>
   <g id="text_20">
    <!-- $280M -->
    <g style="fill: #3a414a" transform="translate(272.474804 254.623484) scale(0.08 -0.08)">
     <use xlink:href="#MalgunGothic-24"/>
     <use xlink:href="#MalgunGothic-32" transform="translate(55.078125 0)"/>
     <use xlink:href="#MalgunGothic-38" transform="translate(110.15625 0)"/>
     <use xlink:href="#MalgunGothic-30" transform="translate(165.234375 0)"/>
     <use xlink:href="#MalgunGothic-4d" transform="translate(220.3125 0)"/>
    </g>
   </g>
   <g id="text_21">
    <!-- $400M -->
    <g style="fill: #3a414a" transform="translate(323.903375 243.030486) scale(0.08 -0.08)">
     <use xlink:href="#MalgunGothic-24"/>
     <use xlink:href="#MalgunGothic-34" transform="translate(55.078125 0)"/>
     <use xlink:href="#MalgunGothic-30" transform="translate(110.15625 0)"/>
     <use xlink:href="#MalgunGothic-30" transform="translate(165.234375 0)"/>
     <use xlink:href="#MalgunGothic-4d" transform="translate(220.3125 0)"/>
    </g>
   </g>
   <g id="text_22">
    <!-- $1650M -->
    <g style="fill: #3a414a" transform="translate(373.128821 122.27009) scale(0.08 -0.08)">
     <defs>
      <path id="MalgunGothic-36" d="M 2981 4069 
Q 2619 4250 2228 4250 
Q 1591 4250 1228 3689 
Q 866 3128 869 2213 
L 884 2213 
Q 1203 2872 1938 2872 
Q 2547 2872 2903 2478 
Q 3259 2084 3259 1450 
Q 3259 797 2857 359 
Q 2456 -78 1825 -78 
Q 1116 -78 736 478 
Q 356 1034 356 2019 
Q 356 3181 847 3928 
Q 1338 4675 2222 4675 
Q 2700 4675 2981 4544 
L 2981 4069 
z
M 906 1506 
Q 906 1022 1165 683 
Q 1425 344 1844 344 
Q 2247 344 2498 645 
Q 2750 947 2750 1388 
Q 2750 1888 2509 2167 
Q 2269 2447 1838 2447 
Q 1444 2447 1175 2173 
Q 906 1900 906 1506 
z
" transform="scale(0.015625)"/>
     </defs>
     <use xlink:href="#MalgunGothic-24"/>
     <use xlink:href="#MalgunGothic-31" transform="translate(55.078125 0)"/>
     <use xlink:href="#MalgunGothic-36" transform="translate(110.15625 0)"/>
     <use xlink:href="#MalgunGothic-35" transform="translate(165.234375 0)"/>
     <use xlink:href="#MalgunGothic-30" transform="translate(220.3125 0)"/>
     <use xlink:href="#MalgunGothic-4d" transform="translate(275.390625 0)"/>
    </g>
   </g>
   <g id="text_23">
    <!-- $1700M -->
    <g style="fill: #3a414a" transform="translate(424.557393 117.439674) scale(0.08 -0.08)">
     <use xlink:href="#MalgunGothic-24"/>
     <use xlink:href="#MalgunGothic-31" transform="translate(55.078125 0)"/>
     <use xlink:href="#MalgunGothic-37" transform="translate(110.15625 0)"/>
     <use xlink:href="#MalgunGothic-30" transform="translate(165.234375 0)"/>
     <use xlink:href="#MalgunGothic-30" transform="translate(220.3125 0)"/>
     <use xlink:href="#MalgunGothic-4d" transform="translate(275.390625 0)"/>
    </g>
   </g>
   <g id="text_24">
    <!-- $800M -->
    <g style="fill: #3a414a" transform="translate(478.189089 204.387159) scale(0.08 -0.08)">
     <use xlink:href="#MalgunGothic-24"/>
     <use xlink:href="#MalgunGothic-38" transform="translate(55.078125 0)"/>
     <use xlink:href="#MalgunGothic-30" transform="translate(110.15625 0)"/>
     <use xlink:href="#MalgunGothic-30" transform="translate(165.234375 0)"/>
     <use xlink:href="#MalgunGothic-4d" transform="translate(220.3125 0)"/>
    </g>
   </g>
   <g id="text_25">
    <!-- Bybit + 다수 -->
    <g style="fill: #8c6b2f" transform="translate(515.637583 72.917794) scale(0.09 -0.09)">
     <defs>
      <path id="MalgunGothicBold-42" d="M 547 0 
L 547 4600 
L 2113 4600 
Q 2822 4600 3222 4317 
Q 3622 4034 3622 3528 
Q 3622 3159 3387 2876 
Q 3153 2594 2756 2472 
L 2756 2463 
Q 3244 2400 3531 2100 
Q 3819 1800 3819 1356 
Q 3819 738 3375 369 
Q 2931 0 2188 0 
L 547 0 
z
M 1438 3916 
L 1438 2709 
L 1922 2709 
Q 2281 2709 2484 2879 
Q 2688 3050 2688 3359 
Q 2688 3916 1894 3916 
L 1438 3916 
z
M 1438 2022 
L 1438 684 
L 2050 684 
Q 2444 684 2662 865 
Q 2881 1047 2881 1369 
Q 2881 2022 2019 2022 
L 1438 2022 
z
" transform="scale(0.015625)"/>
      <path id="MalgunGothicBold-79" d="M 3434 3284 
L 2050 -341 
Q 1591 -1544 688 -1544 
Q 375 -1544 159 -1472 
L 159 -763 
Q 347 -863 566 -863 
Q 956 -863 1125 -463 
L 1325 6 
L 6 3284 
L 972 3284 
L 1663 1131 
Q 1694 1028 1747 747 
L 1759 747 
Q 1784 909 1853 1125 
L 2566 3284 
L 3434 3284 
z
" transform="scale(0.015625)"/>
      <path id="MalgunGothicBold-62" d="M 1328 409 
L 1328 0 
L 456 0 
L 456 4859 
L 1328 4859 
L 1328 2766 
L 1338 2766 
Q 1719 3363 2425 3363 
Q 3050 3363 3403 2925 
Q 3756 2488 3756 1734 
Q 3756 913 3351 416 
Q 2947 -81 2275 -81 
Q 1659 -81 1338 409 
L 1328 409 
z
M 1316 1403 
Q 1316 1063 1525 831 
Q 1734 600 2050 600 
Q 2431 600 2647 897 
Q 2863 1194 2863 1731 
Q 2863 2178 2666 2431 
Q 2469 2684 2109 2684 
Q 1763 2684 1539 2428 
Q 1316 2172 1316 1775 
L 1316 1403 
z
" transform="scale(0.015625)"/>
      <path id="MalgunGothicBold-69" d="M 375 4366 
Q 375 4566 517 4700 
Q 659 4834 884 4834 
Q 1103 4834 1250 4701 
Q 1397 4569 1397 4366 
Q 1397 4163 1251 4028 
Q 1106 3894 884 3894 
Q 663 3894 519 4031 
Q 375 4169 375 4366 
z
M 444 0 
L 444 3284 
L 1313 3284 
L 1313 0 
L 444 0 
z
" transform="scale(0.015625)"/>
      <path id="MalgunGothicBold-74" d="M 2303 34 
Q 2081 -78 1684 -78 
Q 675 -78 675 991 
L 675 2622 
L 131 2622 
L 131 3284 
L 675 3284 
L 675 4019 
L 1544 4272 
L 1544 3284 
L 2303 3284 
L 2303 2622 
L 1544 2622 
L 1544 1144 
Q 1544 600 1972 600 
Q 2150 600 2303 700 
L 2303 34 
z
" transform="scale(0.015625)"/>
      <path id="MalgunGothicBold-20" transform="scale(0.015625)"/>
      <path id="MalgunGothicBold-2b" d="M 3847 1597 
L 2594 1597 
L 2594 344 
L 2013 344 
L 2013 1597 
L 756 1597 
L 756 2181 
L 2013 2181 
L 2013 3438 
L 2594 3438 
L 2594 2181 
L 3847 2181 
L 3847 1597 
z
" transform="scale(0.015625)"/>
      <path id="MalgunGothicBold-b2e4" d="M 5197 2522 
L 5197 -563 
L 4416 -563 
L 4416 5466 
L 5197 5466 
L 5197 3181 
L 6203 3181 
L 6203 2522 
L 5197 2522 
z
M 3969 1197 
Q 3269 1100 1619 1100 
L 709 1100 
L 709 4953 
L 3584 4953 
L 3584 4294 
L 1491 4294 
L 1491 1753 
L 1794 1753 
Q 3253 1753 3897 1844 
L 3969 1197 
z
" transform="scale(0.015625)"/>
      <path id="MalgunGothicBold-c218" d="M 5363 2906 
Q 4656 3053 4053 3393 
Q 3450 3734 3194 4103 
Q 2938 3716 2331 3372 
Q 1725 3028 1075 2906 
L 609 3500 
Q 1597 3619 2200 4072 
Q 2803 4525 2803 5063 
L 2803 5338 
L 3584 5338 
L 3584 5063 
Q 3584 4519 4181 4062 
Q 4778 3606 5766 3494 
L 5363 2906 
z
M 3584 1678 
L 3584 -563 
L 2803 -563 
L 2803 1678 
L 403 1678 
L 403 2338 
L 5997 2338 
L 5997 1678 
L 3584 1678 
z
" transform="scale(0.015625)"/>
     </defs>
     <use xlink:href="#MalgunGothicBold-42"/>
     <use xlink:href="#MalgunGothicBold-79" transform="translate(63.720703 0)"/>
     <use xlink:href="#MalgunGothicBold-62" transform="translate(117.285156 0)"/>
     <use xlink:href="#MalgunGothicBold-69" transform="translate(179.931641 0)"/>
     <use xlink:href="#MalgunGothicBold-74" transform="translate(207.373047 0)"/>
     <use xlink:href="#MalgunGothicBold-20" transform="translate(245.800781 0)"/>
     <use xlink:href="#MalgunGothicBold-2b" transform="translate(280.957031 0)"/>
     <use xlink:href="#MalgunGothicBold-20" transform="translate(352.880859 0)"/>
     <use xlink:href="#MalgunGothicBold-b2e4" transform="translate(388.037109 0)"/>
     <use xlink:href="#MalgunGothicBold-c218" transform="translate(488.037109 0)"/>
    </g>
    <!-- $2.02B -->
    <g style="fill: #8c6b2f" transform="translate(527.621645 83.288606) scale(0.09 -0.09)">
     <defs>
      <path id="MalgunGothicBold-24" d="M 2109 -672 
L 1678 -672 
L 1678 3 
Q 1019 9 497 294 
L 497 1088 
Q 678 934 1036 809 
Q 1394 684 1678 672 
L 1678 1978 
Q 1019 2228 725 2547 
Q 431 2866 431 3350 
Q 431 3841 784 4195 
Q 1138 4550 1678 4603 
L 1678 5194 
L 2109 5194 
L 2109 4613 
Q 2772 4584 3075 4406 
L 3075 3634 
Q 2659 3903 2109 3950 
L 2109 2594 
Q 2759 2334 3065 2031 
Q 3372 1728 3372 1253 
Q 3372 744 3037 420 
Q 2703 97 2109 28 
L 2109 -672 
z
M 1678 3938 
Q 1191 3844 1191 3406 
Q 1191 3213 1292 3073 
Q 1394 2934 1678 2778 
L 1678 3938 
z
M 2109 688 
Q 2613 778 2613 1209 
Q 2613 1556 2109 1800 
L 2109 688 
z
" transform="scale(0.015625)"/>
      <path id="MalgunGothicBold-32" d="M 1322 734 
L 3272 734 
L 3272 0 
L 400 0 
L 400 347 
Q 400 719 526 1033 
Q 653 1347 889 1620 
Q 1125 1894 1881 2459 
Q 2175 2678 2303 2878 
Q 2431 3078 2431 3325 
Q 2431 3631 2251 3801 
Q 2072 3972 1694 3972 
Q 1103 3972 559 3503 
L 559 4288 
Q 1116 4675 1819 4675 
Q 2531 4675 2920 4328 
Q 3309 3981 3309 3369 
Q 3309 3053 3207 2809 
Q 3106 2566 2939 2367 
Q 2772 2169 2555 1998 
Q 2338 1828 2109 1659 
Q 1688 1347 1505 1125 
Q 1322 903 1322 734 
z
" transform="scale(0.015625)"/>
      <path id="MalgunGothicBold-2e" d="M 309 400 
Q 309 609 467 743 
Q 625 878 841 878 
Q 1056 878 1209 743 
Q 1363 609 1363 400 
Q 1363 188 1209 55 
Q 1056 -78 828 -78 
Q 613 -78 461 59 
Q 309 197 309 400 
z
" transform="scale(0.015625)"/>
      <path id="MalgunGothicBold-30" d="M 241 2222 
Q 241 3422 670 4048 
Q 1100 4675 1919 4675 
Q 3475 4675 3475 2328 
Q 3475 1172 3051 545 
Q 2628 -81 1825 -81 
Q 241 -81 241 2222 
z
M 1125 2244 
Q 1125 600 1863 600 
Q 2584 600 2584 2288 
Q 2584 3997 1878 3997 
Q 1125 3997 1125 2244 
z
" transform="scale(0.015625)"/>
     </defs>
     <use xlink:href="#MalgunGothicBold-24"/>
     <use xlink:href="#MalgunGothicBold-32" transform="translate(57.958984 0)"/>
     <use xlink:href="#MalgunGothicBold-2e" transform="translate(115.917969 0)"/>
     <use xlink:href="#MalgunGothicBold-30" transform="translate(142.089844 0)"/>
     <use xlink:href="#MalgunGothicBold-32" transform="translate(200.048828 0)"/>
     <use xlink:href="#MalgunGothicBold-42" transform="translate(258.007812 0)"/>
    </g>
   </g>
   <g id="text_26">
    <!-- DPRK · Lazarus 연도별 가상자산 탈취 -->
    <g style="fill: #111418" transform="translate(90.864 28.629062) scale(0.14 -0.14)">
     <defs>
      <path id="MalgunGothicBold-44" d="M 547 0 
L 547 4600 
L 2072 4600 
Q 4516 4600 4516 2356 
Q 4516 1288 3827 644 
Q 3138 0 2053 0 
L 547 0 
z
M 1438 3859 
L 1438 738 
L 2000 738 
Q 2741 738 3159 1167 
Q 3578 1597 3578 2344 
Q 3578 3078 3159 3468 
Q 2741 3859 2006 3859 
L 1438 3859 
z
" transform="scale(0.015625)"/>
      <path id="MalgunGothicBold-50" d="M 1438 1631 
L 1438 0 
L 547 0 
L 547 4600 
L 2066 4600 
Q 3747 4600 3747 3159 
Q 3747 2463 3239 2038 
Q 2731 1613 1963 1631 
L 1438 1631 
z
M 1438 3891 
L 1438 2328 
L 1891 2328 
Q 2813 2328 2813 3125 
Q 2813 3891 1909 3891 
L 1438 3891 
z
" transform="scale(0.015625)"/>
      <path id="MalgunGothicBold-52" d="M 4241 0 
L 3209 0 
L 2478 1216 
Q 2256 1584 2100 1700 
Q 1944 1816 1763 1816 
L 1438 1816 
L 1438 0 
L 547 0 
L 547 4600 
L 2109 4600 
Q 3703 4600 3703 3356 
Q 3703 2900 3436 2564 
Q 3169 2228 2675 2088 
L 2675 2075 
Q 2991 1969 3372 1366 
L 4241 0 
z
M 1438 3906 
L 1438 2513 
L 1969 2513 
Q 2331 2513 2548 2723 
Q 2766 2934 2766 3250 
Q 2766 3906 1984 3906 
L 1438 3906 
z
" transform="scale(0.015625)"/>
      <path id="MalgunGothicBold-4b" d="M 4188 0 
L 3041 0 
L 1575 2028 
Q 1525 2100 1453 2253 
L 1438 2253 
L 1438 0 
L 547 0 
L 547 4600 
L 1438 4600 
L 1438 2425 
L 1453 2425 
Q 1491 2513 1578 2656 
L 2978 4600 
L 4050 4600 
L 2338 2403 
L 4188 0 
z
" transform="scale(0.015625)"/>
      <path id="MalgunGothicBold-b7" d="M 828 1594 
Q 725 1594 631 1630 
Q 538 1666 466 1728 
Q 394 1791 351 1880 
Q 309 1969 309 2075 
Q 309 2184 353 2271 
Q 397 2359 470 2420 
Q 544 2481 641 2515 
Q 738 2550 841 2550 
Q 944 2550 1039 2515 
Q 1134 2481 1206 2420 
Q 1278 2359 1320 2271 
Q 1363 2184 1363 2075 
Q 1363 1963 1320 1873 
Q 1278 1784 1204 1721 
Q 1131 1659 1034 1626 
Q 938 1594 828 1594 
z
" transform="scale(0.015625)"/>
      <path id="MalgunGothicBold-4c" d="M 3178 0 
L 547 0 
L 547 4600 
L 1438 4600 
L 1438 738 
L 3178 738 
L 3178 0 
z
" transform="scale(0.015625)"/>
      <path id="MalgunGothicBold-61" d="M 534 3075 
Q 756 3203 1109 3283 
Q 1463 3363 1744 3363 
Q 3075 3363 3075 2013 
L 3075 0 
L 2244 0 
L 2244 484 
L 2228 484 
Q 1897 -81 1244 -81 
Q 769 -81 491 186 
Q 213 453 213 903 
Q 213 1844 1331 1994 
L 2247 2119 
Q 2247 2747 1634 2747 
Q 1050 2747 534 2381 
L 534 3075 
z
M 1594 1500 
Q 1031 1428 1031 997 
Q 1031 803 1165 681 
Q 1300 559 1528 559 
Q 1841 559 2044 779 
Q 2247 1000 2247 1334 
L 2247 1584 
L 1594 1500 
z
" transform="scale(0.015625)"/>
      <path id="MalgunGothicBold-7a" d="M 2963 0 
L 91 0 
L 91 344 
L 1822 2622 
L 256 2622 
L 256 3284 
L 2956 3284 
L 2956 2881 
L 1284 663 
L 2963 663 
L 2963 0 
z
" transform="scale(0.015625)"/>
      <path id="MalgunGothicBold-72" d="M 2472 2481 
Q 2300 2584 2050 2584 
Q 1722 2584 1525 2317 
Q 1328 2050 1328 1600 
L 1328 0 
L 456 0 
L 456 3284 
L 1328 3284 
L 1328 2653 
L 1338 2653 
Q 1578 3341 2203 3341 
Q 2381 3341 2472 3297 
L 2472 2481 
z
" transform="scale(0.015625)"/>
      <path id="MalgunGothicBold-75" d="M 3444 0 
L 2575 0 
L 2575 506 
L 2559 506 
Q 2197 -81 1553 -81 
Q 400 -81 400 1306 
L 400 3284 
L 1272 3284 
L 1272 1397 
Q 1272 600 1891 600 
Q 2194 600 2384 817 
Q 2575 1034 2575 1400 
L 2575 3284 
L 3444 3284 
L 3444 0 
z
" transform="scale(0.015625)"/>
      <path id="MalgunGothicBold-73" d="M 347 844 
Q 834 538 1309 538 
Q 1922 538 1922 884 
Q 1922 1125 1438 1291 
Q 731 1528 540 1758 
Q 350 1988 350 2347 
Q 350 2822 737 3092 
Q 1125 3363 1734 3363 
Q 2159 3363 2584 3228 
L 2584 2519 
Q 2200 2747 1744 2747 
Q 1503 2747 1356 2656 
Q 1209 2566 1209 2416 
Q 1209 2169 1619 2025 
Q 2084 1856 2303 1742 
Q 2522 1628 2644 1431 
Q 2766 1234 2766 969 
Q 2766 469 2367 194 
Q 1969 -81 1316 -81 
Q 766 -81 347 94 
L 347 844 
z
" transform="scale(0.015625)"/>
      <path id="MalgunGothicBold-c5f0" d="M 3506 2528 
Q 3034 1947 2222 1947 
Q 1519 1947 1047 2401 
Q 575 2856 575 3597 
Q 575 4338 1045 4792 
Q 1516 5247 2222 5247 
Q 3063 5247 3541 4628 
L 4781 4628 
L 4781 5466 
L 5556 5466 
L 5556 1106 
L 4781 1106 
L 4781 2528 
L 3506 2528 
z
M 2222 4594 
Q 1825 4594 1587 4330 
Q 1350 4066 1350 3597 
Q 1350 3128 1589 2864 
Q 1828 2600 2222 2600 
Q 2609 2600 2850 2865 
Q 3091 3131 3091 3597 
Q 3091 4063 2852 4328 
Q 2613 4594 2222 4594 
z
M 3809 3150 
L 4781 3150 
L 4781 4000 
L 3822 4000 
Q 3859 3806 3859 3597 
Q 3859 3363 3809 3150 
z
M 1672 -353 
L 1672 1638 
L 2456 1638 
L 2456 306 
L 5678 306 
L 5678 -353 
L 1672 -353 
z
" transform="scale(0.015625)"/>
      <path id="MalgunGothicBold-b3c4" d="M 403 263 
L 403 916 
L 2803 916 
L 2803 2113 
L 1294 2113 
L 1294 4934 
L 5106 4934 
L 5106 4281 
L 2081 4281 
L 2081 2766 
L 5197 2766 
L 5197 2113 
L 3591 2113 
L 3591 916 
L 5997 916 
L 5997 263 
L 403 263 
z
" transform="scale(0.015625)"/>
      <path id="MalgunGothicBold-bcc4" d="M 722 2541 
L 722 5269 
L 1491 5269 
L 1491 4525 
L 2847 4525 
L 2847 5269 
L 3622 5269 
L 3622 4716 
L 4794 4716 
L 4794 5466 
L 5563 5466 
L 5563 2438 
L 4794 2438 
L 4794 2956 
L 3622 2956 
L 3622 2541 
L 722 2541 
z
M 3622 3547 
L 4794 3547 
L 4794 4128 
L 3622 4128 
L 3622 3547 
z
M 2847 3866 
L 1491 3866 
L 1491 3194 
L 2847 3194 
L 2847 3866 
z
M 1663 -466 
L 1663 1166 
L 4794 1166 
L 4794 1538 
L 1663 1538 
L 1663 2175 
L 5563 2175 
L 5563 563 
L 2438 563 
L 2438 172 
L 5716 172 
L 5716 -466 
L 1663 -466 
z
" transform="scale(0.015625)"/>
      <path id="MalgunGothicBold-ac00" d="M 5269 2431 
L 5269 -563 
L 4481 -563 
L 4481 5466 
L 5269 5466 
L 5269 3091 
L 6203 3091 
L 6203 2431 
L 5269 2431 
z
M 978 756 
L 391 1306 
Q 2413 2416 2834 4288 
L 738 4288 
L 738 4947 
L 3725 4947 
Q 3478 2297 978 756 
z
" transform="scale(0.015625)"/>
      <path id="MalgunGothicBold-c0c1" d="M 5259 3328 
L 5259 1947 
L 4475 1947 
L 4475 5466 
L 5259 5466 
L 5259 3988 
L 6175 3988 
L 6175 3328 
L 5259 3328 
z
M 3591 2209 
Q 2653 2656 2216 3353 
Q 2053 3028 1625 2615 
Q 1197 2203 872 2028 
L 300 2591 
Q 969 2884 1387 3418 
Q 1806 3953 1806 4525 
L 1806 5275 
L 2591 5275 
L 2591 4550 
Q 2591 3975 3020 3494 
Q 3450 3013 4091 2834 
L 3591 2209 
z
M 3347 -538 
Q 2388 -538 1863 -208 
Q 1338 122 1338 666 
Q 1338 1206 1869 1531 
Q 2400 1856 3347 1856 
Q 4297 1856 4826 1532 
Q 5356 1209 5356 666 
Q 5356 119 4829 -209 
Q 4303 -538 3347 -538 
z
M 3347 1203 
Q 2150 1203 2150 666 
Q 2150 116 3347 116 
Q 4550 116 4550 666 
Q 4550 1203 3347 1203 
z
" transform="scale(0.015625)"/>
      <path id="MalgunGothicBold-c790" d="M 5259 2491 
L 5259 -563 
L 4481 -563 
L 4481 5466 
L 5259 5466 
L 5259 3150 
L 6203 3150 
L 6203 2491 
L 5259 2491 
z
M 3591 928 
Q 2644 1606 2234 2369 
Q 1994 1925 1601 1470 
Q 1209 1016 884 813 
L 306 1313 
Q 894 1597 1366 2281 
Q 1838 2966 1838 3641 
L 1838 4300 
L 531 4300 
L 531 4959 
L 3897 4959 
L 3897 4300 
L 2619 4300 
L 2619 3659 
Q 2619 3022 3072 2390 
Q 3525 1759 4109 1503 
L 3591 928 
z
" transform="scale(0.015625)"/>
      <path id="MalgunGothicBold-c0b0" d="M 5253 2988 
L 5253 1125 
L 4475 1125 
L 4475 5466 
L 5253 5466 
L 5253 3647 
L 6175 3647 
L 6175 2988 
L 5253 2988 
z
M 3591 2016 
Q 2719 2431 2216 3225 
Q 2044 2881 1612 2440 
Q 1181 2000 872 1838 
L 300 2400 
Q 938 2675 1372 3244 
Q 1806 3813 1806 4397 
L 1806 5209 
L 2591 5209 
L 2591 4422 
Q 2591 3841 3030 3328 
Q 3469 2816 4091 2644 
L 3591 2016 
z
M 1484 -353 
L 1484 1638 
L 2272 1638 
L 2272 306 
L 5422 306 
L 5422 -353 
L 1484 -353 
z
" transform="scale(0.015625)"/>
      <path id="MalgunGothicBold-d0c8" d="M 5259 3534 
L 5259 2522 
L 4481 2522 
L 4481 5466 
L 5259 5466 
L 5259 4191 
L 6175 4191 
L 6175 3534 
L 5259 3534 
z
M 1453 3659 
L 1453 3278 
Q 3084 3278 3909 3353 
L 3963 2694 
Q 2856 2619 672 2619 
L 672 5338 
L 3688 5338 
L 3688 4672 
L 1453 4672 
L 1453 4294 
L 3425 4294 
L 3425 3659 
L 1453 3659 
z
M 1478 -428 
L 1478 1228 
L 4481 1228 
L 4481 1606 
L 1478 1606 
L 1478 2266 
L 5259 2266 
L 5259 609 
L 2259 609 
L 2259 231 
L 5416 231 
L 5416 -428 
L 1478 -428 
z
" transform="scale(0.015625)"/>
      <path id="MalgunGothicBold-cde8" d="M 3975 2747 
Q 3053 2934 2456 3578 
Q 1934 2953 928 2681 
L 453 3284 
Q 1784 3528 2016 4238 
L 716 4238 
L 716 4863 
L 2059 4863 
L 2059 5503 
L 2841 5503 
L 2841 4863 
L 4147 4863 
L 4147 4238 
L 2913 4238 
Q 3022 3897 3423 3656 
Q 3825 3416 4391 3347 
L 3975 2747 
z
M 4744 -563 
L 4744 5466 
L 5522 5466 
L 5522 -563 
L 4744 -563 
z
M 2100 -397 
L 2100 1703 
Q 872 1672 397 1672 
L 319 2322 
Q 1066 2322 2609 2369 
L 4513 2444 
L 4544 1800 
Q 3813 1750 2875 1728 
L 2875 -397 
L 2100 -397 
z
" transform="scale(0.015625)"/>
     </defs>
     <use xlink:href="#MalgunGothicBold-44"/>
     <use xlink:href="#MalgunGothicBold-50" transform="translate(74.560547 0)"/>
     <use xlink:href="#MalgunGothicBold-52" transform="translate(136.035156 0)"/>
     <use xlink:href="#MalgunGothicBold-4b" transform="translate(201.416016 0)"/>
     <use xlink:href="#MalgunGothicBold-20" transform="translate(265.917969 0)"/>
     <use xlink:href="#MalgunGothicBold-b7" transform="translate(301.074219 0)"/>
     <use xlink:href="#MalgunGothicBold-20" transform="translate(327.246094 0)"/>
     <use xlink:href="#MalgunGothicBold-4c" transform="translate(362.402344 0)"/>
     <use xlink:href="#MalgunGothicBold-61" transform="translate(413.623047 0)"/>
     <use xlink:href="#MalgunGothicBold-7a" transform="translate(467.919922 0)"/>
     <use xlink:href="#MalgunGothicBold-61" transform="translate(516.259766 0)"/>
     <use xlink:href="#MalgunGothicBold-72" transform="translate(570.556641 0)"/>
     <use xlink:href="#MalgunGothicBold-75" transform="translate(610.162109 0)"/>
     <use xlink:href="#MalgunGothicBold-73" transform="translate(671.001953 0)"/>
     <use xlink:href="#MalgunGothicBold-20" transform="translate(717.193359 0)"/>
     <use xlink:href="#MalgunGothicBold-c5f0" transform="translate(752.349609 0)"/>
     <use xlink:href="#MalgunGothicBold-b3c4" transform="translate(852.349609 0)"/>
     <use xlink:href="#MalgunGothicBold-bcc4" transform="translate(952.349609 0)"/>
     <use xlink:href="#MalgunGothicBold-20" transform="translate(1052.349609 0)"/>
     <use xlink:href="#MalgunGothicBold-ac00" transform="translate(1087.505859 0)"/>
     <use xlink:href="#MalgunGothicBold-c0c1" transform="translate(1187.505859 0)"/>
     <use xlink:href="#MalgunGothicBold-c790" transform="translate(1287.505859 0)"/>
     <use xlink:href="#MalgunGothicBold-c0b0" transform="translate(1387.505859 0)"/>
     <use xlink:href="#MalgunGothicBold-20" transform="translate(1487.505859 0)"/>
     <use xlink:href="#MalgunGothicBold-d0c8" transform="translate(1522.662109 0)"/>
     <use xlink:href="#MalgunGothicBold-cde8" transform="translate(1622.662109 0)"/>
    </g>
   </g>
  </g>
  <g id="text_27">
   <!-- Source: Chainalysis · TRM Labs · UN Panel of Experts (~2025) -->
   <g style="fill: #6b7280" transform="translate(18 327.749062) scale(0.075 -0.075)">
    <defs>
     <path id="MalgunGothic-75" d="M 3166 0 
L 2669 0 
L 2669 519 
L 2656 519 
Q 2331 -78 1644 -78 
Q 469 -78 469 1322 
L 469 3284 
L 959 3284 
L 959 1403 
Q 959 344 1766 344 
Q 2159 344 2414 636 
Q 2669 928 2669 1394 
L 2669 3284 
L 3166 3284 
L 3166 0 
z
" transform="scale(0.015625)"/>
     <path id="MalgunGothic-72" d="M 2225 2775 
Q 2084 2881 1828 2881 
Q 1491 2881 1262 2553 
Q 1034 2225 1034 1681 
L 1034 0 
L 538 0 
L 538 3284 
L 1034 3284 
L 1034 2603 
L 1047 2603 
Q 1159 2950 1389 3145 
Q 1619 3341 1903 3341 
Q 2109 3341 2225 3297 
L 2225 2775 
z
" transform="scale(0.015625)"/>
     <path id="MalgunGothic-63" d="M 2763 153 
Q 2375 -78 1872 -78 
Q 1184 -78 750 372 
Q 316 822 316 1566 
Q 316 2381 777 2870 
Q 1238 3359 2009 3359 
Q 2434 3359 2766 3200 
L 2766 2681 
Q 2397 2941 1981 2941 
Q 1478 2941 1148 2577 
Q 819 2213 819 1609 
Q 819 1034 1120 689 
Q 1422 344 1947 344 
Q 2381 344 2763 631 
L 2763 153 
z
" transform="scale(0.015625)"/>
     <path id="MalgunGothic-65" d="M 3156 1519 
L 828 1519 
Q 844 950 1133 648 
Q 1422 347 1909 347 
Q 2472 347 2934 719 
L 2934 244 
Q 2494 -78 1794 -78 
Q 1100 -78 708 376 
Q 316 831 316 1634 
Q 316 2381 747 2870 
Q 1178 3359 1816 3359 
Q 2453 3359 2804 2942 
Q 3156 2525 3156 1788 
L 3156 1519 
z
M 2644 1956 
Q 2644 2416 2423 2675 
Q 2203 2934 1809 2934 
Q 1438 2934 1169 2667 
Q 900 2400 834 1956 
L 2644 1956 
z
" transform="scale(0.015625)"/>
     <path id="MalgunGothic-3a" d="M 356 3006 
Q 356 3153 459 3254 
Q 563 3356 700 3356 
Q 838 3356 941 3254 
Q 1044 3153 1044 3006 
Q 1044 2863 942 2761 
Q 841 2659 700 2659 
Q 559 2659 457 2761 
Q 356 2863 356 3006 
z
M 356 275 
Q 356 422 459 523 
Q 563 625 700 625 
Q 838 625 941 523 
Q 1044 422 1044 275 
Q 1044 138 942 33 
Q 841 -72 700 -72 
Q 559 -72 457 29 
Q 356 131 356 275 
z
" transform="scale(0.015625)"/>
     <path id="MalgunGothic-43" d="M 3725 197 
Q 3216 -78 2459 -78 
Q 1488 -78 897 561 
Q 306 1200 306 2213 
Q 306 3281 959 3978 
Q 1613 4675 2644 4675 
Q 3297 4675 3725 4484 
L 3725 3941 
Q 3234 4213 2634 4213 
Q 1813 4213 1325 3659 
Q 838 3106 838 2241 
Q 838 1413 1297 897 
Q 1756 381 2522 381 
Q 3216 381 3725 688 
L 3725 197 
z
" transform="scale(0.015625)"/>
     <path id="MalgunGothic-68" d="M 3238 0 
L 2744 0 
L 2744 1894 
Q 2744 2941 1963 2941 
Q 1572 2941 1303 2637 
Q 1034 2334 1034 1859 
L 1034 0 
L 538 0 
L 538 4859 
L 1034 4859 
L 1034 2734 
L 1047 2734 
Q 1425 3359 2128 3359 
Q 3238 3359 3238 2022 
L 3238 0 
z
" transform="scale(0.015625)"/>
     <path id="MalgunGothic-61" d="M 616 3050 
Q 1097 3359 1722 3359 
Q 2866 3359 2866 2147 
L 2866 0 
L 2369 0 
L 2369 516 
L 2350 516 
Q 2009 -78 1341 -78 
Q 859 -78 576 180 
Q 294 438 294 869 
Q 294 1784 1375 1934 
L 2366 2078 
Q 2366 2934 1684 2934 
Q 1084 2934 616 2525 
L 616 3050 
z
M 1563 1559 
Q 1178 1509 993 1371 
Q 809 1234 809 903 
Q 809 653 986 500 
Q 1163 347 1450 347 
Q 1847 347 2106 628 
Q 2366 909 2366 1334 
L 2366 1666 
L 1563 1559 
z
" transform="scale(0.015625)"/>
     <path id="MalgunGothic-79" d="M 3119 3284 
L 1597 -544 
Q 1197 -1547 481 -1547 
Q 313 -1547 156 -1509 
L 156 -1056 
Q 316 -1109 459 -1109 
Q 859 -1109 1059 -628 
L 1328 6 
L 47 3284 
L 597 3284 
L 1503 722 
Q 1513 697 1572 488 
L 1588 488 
L 1650 716 
L 2603 3284 
L 3119 3284 
z
" transform="scale(0.015625)"/>
     <path id="MalgunGothic-73" d="M 331 669 
Q 763 350 1278 350 
Q 1978 350 1978 822 
Q 1978 1025 1825 1158 
Q 1672 1291 1222 1459 
Q 703 1666 520 1878 
Q 338 2091 338 2416 
Q 338 2834 700 3096 
Q 1063 3359 1584 3359 
Q 2003 3359 2341 3213 
L 2341 2697 
Q 1975 2934 1506 2934 
Q 1200 2934 1025 2798 
Q 850 2663 850 2459 
Q 850 2241 979 2125 
Q 1109 2009 1544 1838 
Q 2131 1609 2309 1390 
Q 2488 1172 2488 869 
Q 2488 431 2127 176 
Q 1766 -78 1203 -78 
Q 694 -78 331 122 
L 331 669 
z
" transform="scale(0.015625)"/>
     <path id="MalgunGothic-b7" d="M 700 1644 
Q 628 1644 565 1672 
Q 503 1700 456 1747 
Q 409 1794 382 1858 
Q 356 1922 356 1994 
Q 356 2066 382 2130 
Q 409 2194 456 2241 
Q 503 2288 565 2316 
Q 628 2344 700 2344 
Q 772 2344 834 2316 
Q 897 2288 944 2241 
Q 991 2194 1017 2130 
Q 1044 2066 1044 1994 
Q 1044 1925 1017 1861 
Q 991 1797 944 1748 
Q 897 1700 834 1672 
Q 772 1644 700 1644 
z
" transform="scale(0.015625)"/>
     <path id="MalgunGothic-54" d="M 3294 4134 
L 1966 4134 
L 1966 0 
L 1456 0 
L 1456 4134 
L 134 4134 
L 134 4600 
L 3294 4600 
L 3294 4134 
z
" transform="scale(0.015625)"/>
     <path id="MalgunGothic-52" d="M 3866 0 
L 3259 0 
L 2488 1294 
Q 2241 1706 2044 1837 
Q 1847 1969 1569 1969 
L 1113 1969 
L 1113 0 
L 609 0 
L 609 4600 
L 1963 4600 
Q 2597 4600 2970 4272 
Q 3344 3944 3344 3375 
Q 3344 2422 2325 2138 
L 2325 2125 
Q 2519 2041 2645 1902 
Q 2772 1763 3006 1381 
L 3866 0 
z
M 1113 4128 
L 1113 2438 
L 1866 2438 
Q 2291 2438 2552 2686 
Q 2813 2934 2813 3334 
Q 2813 3709 2570 3918 
Q 2328 4128 1872 4128 
L 1113 4128 
z
" transform="scale(0.015625)"/>
     <path id="MalgunGothic-4c" d="M 2972 0 
L 609 0 
L 609 4600 
L 1113 4600 
L 1113 463 
L 2972 463 
L 2972 0 
z
" transform="scale(0.015625)"/>
     <path id="MalgunGothic-62" d="M 1034 481 
L 1034 0 
L 538 0 
L 538 4859 
L 1034 4859 
L 1034 2703 
L 1047 2703 
Q 1438 3359 2184 3359 
Q 2813 3359 3173 2917 
Q 3534 2475 3534 1738 
Q 3534 906 3126 414 
Q 2719 -78 2034 -78 
Q 1384 -78 1047 481 
L 1034 481 
z
M 1034 1334 
Q 1034 922 1307 633 
Q 1581 344 1991 344 
Q 2475 344 2751 716 
Q 3028 1088 3028 1753 
Q 3028 2303 2767 2622 
Q 2506 2941 2072 2941 
Q 1616 2941 1325 2616 
Q 1034 2291 1034 1803 
L 1034 1334 
z
" transform="scale(0.015625)"/>
     <path id="MalgunGothic-4e" d="M 4288 0 
L 3653 0 
L 1253 3713 
Q 1178 3828 1109 4000 
L 1094 4000 
Q 1116 3822 1116 3372 
L 1116 0 
L 609 0 
L 609 4600 
L 1278 4600 
L 3613 938 
Q 3775 684 3797 634 
L 3809 634 
Q 3775 863 3775 1316 
L 3775 4600 
L 4288 4600 
L 4288 0 
z
" transform="scale(0.015625)"/>
     <path id="MalgunGothic-50" d="M 1113 1747 
L 1113 0 
L 609 0 
L 609 4600 
L 1850 4600 
Q 2575 4600 2979 4240 
Q 3384 3881 3384 3231 
Q 3384 2559 2909 2140 
Q 2434 1722 1728 1747 
L 1113 1747 
z
M 1113 4131 
L 1113 2219 
L 1691 2219 
Q 2256 2219 2554 2475 
Q 2853 2731 2853 3206 
Q 2853 4131 1759 4131 
L 1113 4131 
z
" transform="scale(0.015625)"/>
     <path id="MalgunGothic-66" d="M 2128 4422 
Q 1975 4506 1778 4506 
Q 1222 4506 1222 3800 
L 1222 3284 
L 1991 3284 
L 1991 2856 
L 1222 2856 
L 1222 0 
L 734 0 
L 734 2856 
L 172 2856 
L 172 3284 
L 734 3284 
L 734 3825 
Q 734 4341 1026 4636 
Q 1319 4931 1753 4931 
Q 1994 4931 2128 4875 
L 2128 4422 
z
" transform="scale(0.015625)"/>
     <path id="MalgunGothic-45" d="M 3025 0 
L 609 0 
L 609 4600 
L 2922 4600 
L 2922 4134 
L 1113 4134 
L 1113 2572 
L 2784 2572 
L 2784 2109 
L 1113 2109 
L 1113 463 
L 3025 463 
L 3025 0 
z
" transform="scale(0.015625)"/>
     <path id="MalgunGothic-78" d="M 2884 3284 
L 1784 1616 
L 2869 0 
L 2288 0 
L 1634 1078 
Q 1563 1197 1491 1325 
L 1475 1325 
Q 1456 1284 1328 1078 
L 656 0 
L 88 0 
L 1209 1606 
L 134 3284 
L 713 3284 
L 1494 1897 
L 1506 1897 
Q 1525 1925 1641 2119 
L 2344 3284 
L 2884 3284 
z
" transform="scale(0.015625)"/>
     <path id="MalgunGothic-70" d="M 1034 481 
L 1034 -1513 
L 538 -1513 
L 538 3284 
L 1034 3284 
L 1034 2703 
L 1047 2703 
Q 1438 3359 2184 3359 
Q 2809 3359 3171 2920 
Q 3534 2481 3534 1738 
Q 3534 906 3126 414 
Q 2719 -78 2034 -78 
Q 1394 -78 1047 481 
L 1034 481 
z
M 1034 1331 
Q 1034 922 1307 633 
Q 1581 344 1991 344 
Q 2475 344 2751 716 
Q 3028 1088 3028 1753 
Q 3028 2300 2767 2620 
Q 2506 2941 2072 2941 
Q 1619 2941 1326 2619 
Q 1034 2297 1034 1806 
L 1034 1331 
z
" transform="scale(0.015625)"/>
     <path id="MalgunGothic-74" d="M 2031 31 
Q 1844 -72 1553 -72 
Q 706 -72 706 881 
L 706 2856 
L 138 2856 
L 138 3284 
L 706 3284 
L 706 4091 
L 1200 4250 
L 1200 3284 
L 2031 3284 
L 2031 2856 
L 1200 2856 
L 1200 972 
Q 1200 625 1315 487 
Q 1431 350 1691 350 
Q 1888 350 2031 459 
L 2031 31 
z
" transform="scale(0.015625)"/>
     <path id="MalgunGothic-7e" d="M 3819 2400 
Q 3794 1925 3559 1670 
Q 3325 1416 2925 1416 
Q 2572 1416 2075 1772 
Q 1766 1988 1563 1988 
Q 1106 1988 1094 1419 
L 675 1419 
Q 691 1888 933 2145 
Q 1175 2403 1566 2403 
Q 1903 2403 2319 2116 
Q 2747 1825 2953 1825 
Q 3153 1825 3273 1983 
Q 3394 2141 3400 2400 
L 3819 2400 
z
" transform="scale(0.015625)"/>
    </defs>
    <use xlink:href="#MalgunGothic-53"/>
    <use xlink:href="#MalgunGothic-6f" transform="translate(54.296875 0)"/>
    <use xlink:href="#MalgunGothic-75" transform="translate(114.208984 0)"/>
    <use xlink:href="#MalgunGothic-72" transform="translate(172.021484 0)"/>
    <use xlink:href="#MalgunGothic-63" transform="translate(205.998047 0)"/>
    <use xlink:href="#MalgunGothic-65" transform="translate(253.263672 0)"/>
    <use xlink:href="#MalgunGothic-3a" transform="translate(306.779297 0)"/>
    <use xlink:href="#MalgunGothic-20" transform="translate(328.654297 0)"/>
    <use xlink:href="#MalgunGothic-43" transform="translate(363.810547 0)"/>
    <use xlink:href="#MalgunGothic-68" transform="translate(427.287109 0)"/>
    <use xlink:href="#MalgunGothic-61" transform="translate(485.148438 0)"/>
    <use xlink:href="#MalgunGothic-69" transform="translate(537.150391 0)"/>
    <use xlink:href="#MalgunGothic-6e" transform="translate(561.759766 0)"/>
    <use xlink:href="#MalgunGothic-61" transform="translate(619.572266 0)"/>
    <use xlink:href="#MalgunGothic-6c" transform="translate(671.574219 0)"/>
    <use xlink:href="#MalgunGothic-79" transform="translate(696.183594 0)"/>
    <use xlink:href="#MalgunGothic-73" transform="translate(745.451172 0)"/>
    <use xlink:href="#MalgunGothic-69" transform="translate(788.761719 0)"/>
    <use xlink:href="#MalgunGothic-73" transform="translate(813.371094 0)"/>
    <use xlink:href="#MalgunGothic-20" transform="translate(856.681641 0)"/>
    <use xlink:href="#MalgunGothic-b7" transform="translate(891.837891 0)"/>
    <use xlink:href="#MalgunGothic-20" transform="translate(913.712891 0)"/>
    <use xlink:href="#MalgunGothic-54" transform="translate(948.869141 0)"/>
    <use xlink:href="#MalgunGothic-52" transform="translate(1002.238281 0)"/>
    <use xlink:href="#MalgunGothic-4d" transform="translate(1063.224609 0)"/>
    <use xlink:href="#MalgunGothic-20" transform="translate(1154.923828 0)"/>
    <use xlink:href="#MalgunGothic-4c" transform="translate(1190.080078 0)"/>
    <use xlink:href="#MalgunGothic-61" transform="translate(1238.078125 0)"/>
    <use xlink:href="#MalgunGothic-62" transform="translate(1290.080078 0)"/>
    <use xlink:href="#MalgunGothic-73" transform="translate(1350.138672 0)"/>
    <use xlink:href="#MalgunGothic-20" transform="translate(1393.449219 0)"/>
    <use xlink:href="#MalgunGothic-b7" transform="translate(1428.605469 0)"/>
    <use xlink:href="#MalgunGothic-20" transform="translate(1450.480469 0)"/>
    <use xlink:href="#MalgunGothic-55" transform="translate(1485.636719 0)"/>
    <use xlink:href="#MalgunGothic-4e" transform="translate(1555.900391 0)"/>
    <use xlink:href="#MalgunGothic-20" transform="translate(1632.414062 0)"/>
    <use xlink:href="#MalgunGothic-50" transform="translate(1667.570312 0)"/>
    <use xlink:href="#MalgunGothic-61" transform="translate(1721.150391 0)"/>
    <use xlink:href="#MalgunGothic-6e" transform="translate(1773.152344 0)"/>
    <use xlink:href="#MalgunGothic-65" transform="translate(1830.964844 0)"/>
    <use xlink:href="#MalgunGothic-6c" transform="translate(1884.480469 0)"/>
    <use xlink:href="#MalgunGothic-20" transform="translate(1909.089844 0)"/>
    <use xlink:href="#MalgunGothic-6f" transform="translate(1944.246094 0)"/>
    <use xlink:href="#MalgunGothic-66" transform="translate(2002.158203 0)"/>
    <use xlink:href="#MalgunGothic-20" transform="translate(2033.798828 0)"/>
    <use xlink:href="#MalgunGothic-45" transform="translate(2068.955078 0)"/>
    <use xlink:href="#MalgunGothic-78" transform="translate(2120.664062 0)"/>
    <use xlink:href="#MalgunGothic-70" transform="translate(2167.148438 0)"/>
    <use xlink:href="#MalgunGothic-65" transform="translate(2227.207031 0)"/>
    <use xlink:href="#MalgunGothic-72" transform="translate(2280.722656 0)"/>
    <use xlink:href="#MalgunGothic-74" transform="translate(2319.199219 0)"/>
    <use xlink:href="#MalgunGothic-73" transform="translate(2353.671875 0)"/>
    <use xlink:href="#MalgunGothic-20" transform="translate(2396.982422 0)"/>
    <use xlink:href="#MalgunGothic-28" transform="translate(2432.138672 0)"/>
    <use xlink:href="#MalgunGothic-7e" transform="translate(2462.607422 0)"/>
    <use xlink:href="#MalgunGothic-32" transform="translate(2532.675781 0)"/>
    <use xlink:href="#MalgunGothic-30" transform="translate(2587.753906 0)"/>
    <use xlink:href="#MalgunGothic-32" transform="translate(2642.832031 0)"/>
    <use xlink:href="#MalgunGothic-35" transform="translate(2697.910156 0)"/>
    <use xlink:href="#MalgunGothic-29" transform="translate(2752.988281 0)"/>
   </g>
  </g>
 </g>
 <defs>
  <clipPath id="p1c557a6804">
   <rect x="90.864" y="42.629062" width="491.04" height="243.936"/>
  </clipPath>
 </defs>
</svg>
