<?xml version="1.0" encoding="utf-8" standalone="no"?>
<!DOCTYPE svg PUBLIC "-//W3C//DTD SVG 1.1//EN"
  "http://www.w3.org/Graphics/SVG/1.1/DTD/svg11.dtd">
<svg xmlns:xlink="http://www.w3.org/1999/xlink" width="532.8432pt" height="757.020313pt" viewBox="0 0 532.8432 757.020313" xmlns="http://www.w3.org/2000/svg" version="1.1">
 <metadata>
  <rdf:RDF xmlns:dc="http://purl.org/dc/elements/1.1/" xmlns:cc="http://creativecommons.org/ns#" xmlns:rdf="http://www.w3.org/1999/02/22-rdf-syntax-ns#">
   <cc:Work>
    <dc:type rdf:resource="http://purl.org/dc/dcmitype/StillImage"/>
    <dc:date>2026-04-21T10:28:36.814377</dc:date>
    <dc:format>image/svg+xml</dc:format>
    <dc:creator>
     <cc:Agent>
      <dc:title>Matplotlib v3.10.8, https://matplotlib.org/</dc:title>
     </cc:Agent>
    </dc:creator>
   </cc:Work>
  </rdf:RDF>
 </metadata>
 <defs>
  <style type="text/css">*{stroke-linejoin: round; stroke-linecap: butt}</style>
 </defs>
 <g id="figure_1">
  <g id="patch_1">
   <path d="M 0 757.020313 
L 532.8432 757.020313 
L 532.8432 0 
L 0 0 
z
" style="fill: #ffffff"/>
  </g>
  <g id="axes_1">
   <g id="line2d_1">
    <path d="M 259.177745 74.706345 
L 259.177745 658.031563 
" clip-path="url(#p0723b442be)" style="fill: none; stroke: #111418; stroke-width: 1.4; stroke-linecap: round"/>
   </g>
   <g id="line2d_2">
    <path d="M 69.5592 409.322902 
L 491.4072 409.322902 
" clip-path="url(#p0723b442be)" style="fill: none; stroke-dasharray: 4.07,1.76; stroke-dashoffset: 0; stroke: #c9a646; stroke-opacity: 0.7; stroke-width: 1.1"/>
   </g>
   <g id="PathCollection_1">
    <defs>
     <path id="m4b5cf9202f" d="M 0 5.700877 
C 1.51189 5.700877 2.962061 5.100197 4.031129 4.031129 
C 5.100197 2.962061 5.700877 1.51189 5.700877 0 
C 5.700877 -1.51189 5.100197 -2.962061 4.031129 -4.031129 
C 2.962061 -5.100197 1.51189 -5.700877 0 -5.700877 
C -1.51189 -5.700877 -2.962061 -5.100197 -4.031129 -4.031129 
C -5.100197 -2.962061 -5.700877 -1.51189 -5.700877 0 
C -5.700877 1.51189 -5.100197 2.962061 -4.031129 4.031129 
C -2.962061 5.100197 -1.51189 5.700877 0 5.700877 
z
" style="stroke: #1a2e4a; stroke-width: 1.8"/>
    </defs>
    <g clip-path="url(#p0723b442be)">
     <use xlink:href="#m4b5cf9202f" x="259.177745" y="85.312258" style="fill: #1a2e4a; stroke: #1a2e4a; stroke-width: 1.8"/>
    </g>
   </g>
   <g id="text_1">
    <!-- 2020-02 -->
    <g style="fill: #6b7280" transform="translate(189.291595 87.819602) scale(0.09 -0.09)">
     <defs>
      <path id="DejaVuSansMono-32" d="M 1166 531 
L 3309 531 
L 3309 0 
L 475 0 
L 475 531 
Q 1059 1147 1496 1619 
Q 1934 2091 2100 2284 
Q 2413 2666 2522 2902 
Q 2631 3138 2631 3384 
Q 2631 3775 2401 3997 
Q 2172 4219 1772 4219 
Q 1488 4219 1175 4116 
Q 863 4013 513 3803 
L 513 4441 
Q 834 4594 1145 4672 
Q 1456 4750 1759 4750 
Q 2444 4750 2861 4386 
Q 3278 4022 3278 3431 
Q 3278 3131 3139 2831 
Q 3000 2531 2688 2169 
Q 2513 1966 2180 1606 
Q 1847 1247 1166 531 
z
" transform="scale(0.015625)"/>
      <path id="DejaVuSansMono-30" d="M 1509 2344 
Q 1509 2516 1629 2641 
Q 1750 2766 1919 2766 
Q 2094 2766 2219 2641 
Q 2344 2516 2344 2344 
Q 2344 2169 2220 2047 
Q 2097 1925 1919 1925 
Q 1744 1925 1626 2044 
Q 1509 2163 1509 2344 
z
M 1925 4250 
Q 1484 4250 1267 3775 
Q 1050 3300 1050 2328 
Q 1050 1359 1267 884 
Q 1484 409 1925 409 
Q 2369 409 2586 884 
Q 2803 1359 2803 2328 
Q 2803 3300 2586 3775 
Q 2369 4250 1925 4250 
z
M 1925 4750 
Q 2672 4750 3055 4137 
Q 3438 3525 3438 2328 
Q 3438 1134 3055 521 
Q 2672 -91 1925 -91 
Q 1178 -91 797 521 
Q 416 1134 416 2328 
Q 416 3525 797 4137 
Q 1178 4750 1925 4750 
z
" transform="scale(0.015625)"/>
      <path id="DejaVuSansMono-2d" d="M 1113 2009 
L 2741 2009 
L 2741 1497 
L 1113 1497 
L 1113 2009 
z
" transform="scale(0.015625)"/>
     </defs>
     <use xlink:href="#DejaVuSansMono-32"/>
     <use xlink:href="#DejaVuSansMono-30" transform="translate(60.205078 0)"/>
     <use xlink:href="#DejaVuSansMono-32" transform="translate(120.410156 0)"/>
     <use xlink:href="#DejaVuSansMono-30" transform="translate(180.615234 0)"/>
     <use xlink:href="#DejaVuSansMono-2d" transform="translate(240.820312 0)"/>
     <use xlink:href="#DejaVuSansMono-30" transform="translate(301.025391 0)"/>
     <use xlink:href="#DejaVuSansMono-32" transform="translate(361.230469 0)"/>
    </g>
   </g>
   <g id="text_2">
    <!-- 🇰🇷  한국 특금법 개정 공포 -->
    <g style="fill: #111418; opacity: 0.78" transform="translate(284.744291 87.897414) scale(0.1 -0.1)">
     <defs>
      <path id="ArialMT-1f1f0" d="M 800 0 
L 800 4000 
L 4000 4000 
L 4000 0 
L 800 0 
z
M 900 100 
L 3900 100 
L 3900 3900 
L 900 3900 
L 900 100 
z
" transform="scale(0.015625)"/>
      <path id="ArialMT-1f1f7" d="M 800 0 
L 800 4000 
L 4000 4000 
L 4000 0 
L 800 0 
z
M 900 100 
L 3900 100 
L 3900 3900 
L 900 3900 
L 900 100 
z
" transform="scale(0.015625)"/>
      <path id="ArialMT-20" transform="scale(0.015625)"/>
      <path id="ArialMT-d55c" d="M 800 0 
L 800 4000 
L 4000 4000 
L 4000 0 
L 800 0 
z
M 900 100 
L 3900 100 
L 3900 3900 
L 900 3900 
L 900 100 
z
" transform="scale(0.015625)"/>
      <path id="ArialMT-ad6d" d="M 800 0 
L 800 4000 
L 4000 4000 
L 4000 0 
L 800 0 
z
M 900 100 
L 3900 100 
L 3900 3900 
L 900 3900 
L 900 100 
z
" transform="scale(0.015625)"/>
      <path id="ArialMT-d2b9" d="M 800 0 
L 800 4000 
L 4000 4000 
L 4000 0 
L 800 0 
z
M 900 100 
L 3900 100 
L 3900 3900 
L 900 3900 
L 900 100 
z
" transform="scale(0.015625)"/>
      <path id="ArialMT-ae08" d="M 800 0 
L 800 4000 
L 4000 4000 
L 4000 0 
L 800 0 
z
M 900 100 
L 3900 100 
L 3900 3900 
L 900 3900 
L 900 100 
z
" transform="scale(0.015625)"/>
      <path id="ArialMT-bc95" d="M 800 0 
L 800 4000 
L 4000 4000 
L 4000 0 
L 800 0 
z
M 900 100 
L 3900 100 
L 3900 3900 
L 900 3900 
L 900 100 
z
" transform="scale(0.015625)"/>
      <path id="ArialMT-ac1c" d="M 800 0 
L 800 4000 
L 4000 4000 
L 4000 0 
L 800 0 
z
M 900 100 
L 3900 100 
L 3900 3900 
L 900 3900 
L 900 100 
z
" transform="scale(0.015625)"/>
      <path id="ArialMT-c815" d="M 800 0 
L 800 4000 
L 4000 4000 
L 4000 0 
L 800 0 
z
M 900 100 
L 3900 100 
L 3900 3900 
L 900 3900 
L 900 100 
z
" transform="scale(0.015625)"/>
      <path id="ArialMT-acf5" d="M 800 0 
L 800 4000 
L 4000 4000 
L 4000 0 
L 800 0 
z
M 900 100 
L 3900 100 
L 3900 3900 
L 900 3900 
L 900 100 
z
" transform="scale(0.015625)"/>
      <path id="ArialMT-d3ec" d="M 800 0 
L 800 4000 
L 4000 4000 
L 4000 0 
L 800 0 
z
M 900 100 
L 3900 100 
L 3900 3900 
L 900 3900 
L 900 100 
z
" transform="scale(0.015625)"/>
     </defs>
     <use xlink:href="#ArialMT-1f1f0"/>
     <use xlink:href="#ArialMT-1f1f7" transform="translate(75 0)"/>
     <use xlink:href="#ArialMT-20" transform="translate(150 0)"/>
     <use xlink:href="#ArialMT-20" transform="translate(177.783203 0)"/>
     <use xlink:href="#ArialMT-d55c" transform="translate(205.566406 0)"/>
     <use xlink:href="#ArialMT-ad6d" transform="translate(280.566406 0)"/>
     <use xlink:href="#ArialMT-20" transform="translate(355.566406 0)"/>
     <use xlink:href="#ArialMT-d2b9" transform="translate(383.349609 0)"/>
     <use xlink:href="#ArialMT-ae08" transform="translate(458.349609 0)"/>
     <use xlink:href="#ArialMT-bc95" transform="translate(533.349609 0)"/>
     <use xlink:href="#ArialMT-20" transform="translate(608.349609 0)"/>
     <use xlink:href="#ArialMT-ac1c" transform="translate(636.132812 0)"/>
     <use xlink:href="#ArialMT-c815" transform="translate(711.132812 0)"/>
     <use xlink:href="#ArialMT-20" transform="translate(786.132812 0)"/>
     <use xlink:href="#ArialMT-acf5" transform="translate(813.916016 0)"/>
     <use xlink:href="#ArialMT-d3ec" transform="translate(888.916016 0)"/>
    </g>
   </g>
   <g id="PathCollection_2">
    <g clip-path="url(#p0723b442be)">
     <use xlink:href="#m4b5cf9202f" x="259.177745" y="143.64478" style="fill: #1a2e4a; stroke: #1a2e4a; stroke-width: 1.8"/>
    </g>
   </g>
   <g id="text_3">
    <!-- 2021-04 -->
    <g style="fill: #6b7280" transform="translate(189.291595 146.152124) scale(0.09 -0.09)">
     <defs>
      <path id="DejaVuSansMono-31" d="M 844 531 
L 1825 531 
L 1825 4097 
L 769 3859 
L 769 4434 
L 1819 4666 
L 2450 4666 
L 2450 531 
L 3419 531 
L 3419 0 
L 844 0 
L 844 531 
z
" transform="scale(0.015625)"/>
      <path id="DejaVuSansMono-34" d="M 2297 4091 
L 825 1625 
L 2297 1625 
L 2297 4091 
z
M 2194 4666 
L 2925 4666 
L 2925 1625 
L 3547 1625 
L 3547 1113 
L 2925 1113 
L 2925 0 
L 2297 0 
L 2297 1113 
L 319 1113 
L 319 1709 
L 2194 4666 
z
" transform="scale(0.015625)"/>
     </defs>
     <use xlink:href="#DejaVuSansMono-32"/>
     <use xlink:href="#DejaVuSansMono-30" transform="translate(60.205078 0)"/>
     <use xlink:href="#DejaVuSansMono-32" transform="translate(120.410156 0)"/>
     <use xlink:href="#DejaVuSansMono-31" transform="translate(180.615234 0)"/>
     <use xlink:href="#DejaVuSansMono-2d" transform="translate(240.820312 0)"/>
     <use xlink:href="#DejaVuSansMono-30" transform="translate(301.025391 0)"/>
     <use xlink:href="#DejaVuSansMono-34" transform="translate(361.230469 0)"/>
    </g>
   </g>
   <g id="text_4">
    <!-- 🇰🇷  한국 VASP 신고제 시행 -->
    <g style="fill: #111418; opacity: 0.78" transform="translate(284.744291 146.229936) scale(0.1 -0.1)">
     <defs>
      <path id="ArialMT-56" d="M 1803 0 
L 28 4581 
L 684 4581 
L 1875 1253 
Q 2019 853 2116 503 
Q 2222 878 2363 1253 
L 3600 4581 
L 4219 4581 
L 2425 0 
L 1803 0 
z
" transform="scale(0.015625)"/>
      <path id="ArialMT-41" d="M -9 0 
L 1750 4581 
L 2403 4581 
L 4278 0 
L 3588 0 
L 3053 1388 
L 1138 1388 
L 634 0 
L -9 0 
z
M 1313 1881 
L 2866 1881 
L 2388 3150 
Q 2169 3728 2063 4100 
Q 1975 3659 1816 3225 
L 1313 1881 
z
" transform="scale(0.015625)"/>
      <path id="ArialMT-53" d="M 288 1472 
L 859 1522 
Q 900 1178 1048 958 
Q 1197 738 1509 602 
Q 1822 466 2213 466 
Q 2559 466 2825 569 
Q 3091 672 3220 851 
Q 3350 1031 3350 1244 
Q 3350 1459 3225 1620 
Q 3100 1781 2813 1891 
Q 2628 1963 1997 2114 
Q 1366 2266 1113 2400 
Q 784 2572 623 2826 
Q 463 3081 463 3397 
Q 463 3744 659 4045 
Q 856 4347 1234 4503 
Q 1613 4659 2075 4659 
Q 2584 4659 2973 4495 
Q 3363 4331 3572 4012 
Q 3781 3694 3797 3291 
L 3216 3247 
Q 3169 3681 2898 3903 
Q 2628 4125 2100 4125 
Q 1550 4125 1298 3923 
Q 1047 3722 1047 3438 
Q 1047 3191 1225 3031 
Q 1400 2872 2139 2705 
Q 2878 2538 3153 2413 
Q 3553 2228 3743 1945 
Q 3934 1663 3934 1294 
Q 3934 928 3725 604 
Q 3516 281 3123 101 
Q 2731 -78 2241 -78 
Q 1619 -78 1198 103 
Q 778 284 539 648 
Q 300 1013 288 1472 
z
" transform="scale(0.015625)"/>
      <path id="ArialMT-50" d="M 494 0 
L 494 4581 
L 2222 4581 
Q 2678 4581 2919 4538 
Q 3256 4481 3484 4323 
Q 3713 4166 3852 3881 
Q 3991 3597 3991 3256 
Q 3991 2672 3619 2267 
Q 3247 1863 2275 1863 
L 1100 1863 
L 1100 0 
L 494 0 
z
M 1100 2403 
L 2284 2403 
Q 2872 2403 3119 2622 
Q 3366 2841 3366 3238 
Q 3366 3525 3220 3729 
Q 3075 3934 2838 4000 
Q 2684 4041 2272 4041 
L 1100 4041 
L 1100 2403 
z
" transform="scale(0.015625)"/>
      <path id="ArialMT-c2e0" d="M 800 0 
L 800 4000 
L 4000 4000 
L 4000 0 
L 800 0 
z
M 900 100 
L 3900 100 
L 3900 3900 
L 900 3900 
L 900 100 
z
" transform="scale(0.015625)"/>
      <path id="ArialMT-ace0" d="M 800 0 
L 800 4000 
L 4000 4000 
L 4000 0 
L 800 0 
z
M 900 100 
L 3900 100 
L 3900 3900 
L 900 3900 
L 900 100 
z
" transform="scale(0.015625)"/>
      <path id="ArialMT-c81c" d="M 800 0 
L 800 4000 
L 4000 4000 
L 4000 0 
L 800 0 
z
M 900 100 
L 3900 100 
L 3900 3900 
L 900 3900 
L 900 100 
z
" transform="scale(0.015625)"/>
      <path id="ArialMT-c2dc" d="M 800 0 
L 800 4000 
L 4000 4000 
L 4000 0 
L 800 0 
z
M 900 100 
L 3900 100 
L 3900 3900 
L 900 3900 
L 900 100 
z
" transform="scale(0.015625)"/>
      <path id="ArialMT-d589" d="M 800 0 
L 800 4000 
L 4000 4000 
L 4000 0 
L 800 0 
z
M 900 100 
L 3900 100 
L 3900 3900 
L 900 3900 
L 900 100 
z
" transform="scale(0.015625)"/>
     </defs>
     <use xlink:href="#ArialMT-1f1f0"/>
     <use xlink:href="#ArialMT-1f1f7" transform="translate(75 0)"/>
     <use xlink:href="#ArialMT-20" transform="translate(150 0)"/>
     <use xlink:href="#ArialMT-20" transform="translate(177.783203 0)"/>
     <use xlink:href="#ArialMT-d55c" transform="translate(205.566406 0)"/>
     <use xlink:href="#ArialMT-ad6d" transform="translate(280.566406 0)"/>
     <use xlink:href="#ArialMT-20" transform="translate(355.566406 0)"/>
     <use xlink:href="#ArialMT-56" transform="translate(383.349609 0)"/>
     <use xlink:href="#ArialMT-41" transform="translate(442.673828 0)"/>
     <use xlink:href="#ArialMT-53" transform="translate(509.373047 0)"/>
     <use xlink:href="#ArialMT-50" transform="translate(576.072266 0)"/>
     <use xlink:href="#ArialMT-20" transform="translate(641.021484 0)"/>
     <use xlink:href="#ArialMT-c2e0" transform="translate(668.804688 0)"/>
     <use xlink:href="#ArialMT-ace0" transform="translate(743.804688 0)"/>
     <use xlink:href="#ArialMT-c81c" transform="translate(818.804688 0)"/>
     <use xlink:href="#ArialMT-20" transform="translate(893.804688 0)"/>
     <use xlink:href="#ArialMT-c2dc" transform="translate(921.587891 0)"/>
     <use xlink:href="#ArialMT-d589" transform="translate(996.587891 0)"/>
    </g>
   </g>
   <g id="PathCollection_3">
    <g clip-path="url(#p0723b442be)">
     <use xlink:href="#m4b5cf9202f" x="259.177745" y="196.674345" style="fill: #1a2e4a; stroke: #1a2e4a; stroke-width: 1.8"/>
    </g>
   </g>
   <g id="text_5">
    <!-- 2022-04 -->
    <g style="fill: #6b7280" transform="translate(189.291595 199.181689) scale(0.09 -0.09)">
     <use xlink:href="#DejaVuSansMono-32"/>
     <use xlink:href="#DejaVuSansMono-30" transform="translate(60.205078 0)"/>
     <use xlink:href="#DejaVuSansMono-32" transform="translate(120.410156 0)"/>
     <use xlink:href="#DejaVuSansMono-32" transform="translate(180.615234 0)"/>
     <use xlink:href="#DejaVuSansMono-2d" transform="translate(240.820312 0)"/>
     <use xlink:href="#DejaVuSansMono-30" transform="translate(301.025391 0)"/>
     <use xlink:href="#DejaVuSansMono-34" transform="translate(361.230469 0)"/>
    </g>
   </g>
   <g id="text_6">
    <!-- 🇰🇷  한국 Travel Rule 시행 -->
    <g style="fill: #111418; opacity: 0.78" transform="translate(284.744291 199.259501) scale(0.1 -0.1)">
     <defs>
      <path id="ArialMT-54" d="M 1659 0 
L 1659 4041 
L 150 4041 
L 150 4581 
L 3781 4581 
L 3781 4041 
L 2266 4041 
L 2266 0 
L 1659 0 
z
" transform="scale(0.015625)"/>
      <path id="ArialMT-72" d="M 416 0 
L 416 3319 
L 922 3319 
L 922 2816 
Q 1116 3169 1280 3281 
Q 1444 3394 1641 3394 
Q 1925 3394 2219 3213 
L 2025 2691 
Q 1819 2813 1613 2813 
Q 1428 2813 1281 2702 
Q 1134 2591 1072 2394 
Q 978 2094 978 1738 
L 978 0 
L 416 0 
z
" transform="scale(0.015625)"/>
      <path id="ArialMT-61" d="M 2588 409 
Q 2275 144 1986 34 
Q 1697 -75 1366 -75 
Q 819 -75 525 192 
Q 231 459 231 875 
Q 231 1119 342 1320 
Q 453 1522 633 1644 
Q 813 1766 1038 1828 
Q 1203 1872 1538 1913 
Q 2219 1994 2541 2106 
Q 2544 2222 2544 2253 
Q 2544 2597 2384 2738 
Q 2169 2928 1744 2928 
Q 1347 2928 1158 2789 
Q 969 2650 878 2297 
L 328 2372 
Q 403 2725 575 2942 
Q 747 3159 1072 3276 
Q 1397 3394 1825 3394 
Q 2250 3394 2515 3294 
Q 2781 3194 2906 3042 
Q 3031 2891 3081 2659 
Q 3109 2516 3109 2141 
L 3109 1391 
Q 3109 606 3145 398 
Q 3181 191 3288 0 
L 2700 0 
Q 2613 175 2588 409 
z
M 2541 1666 
Q 2234 1541 1622 1453 
Q 1275 1403 1131 1340 
Q 988 1278 909 1158 
Q 831 1038 831 891 
Q 831 666 1001 516 
Q 1172 366 1500 366 
Q 1825 366 2078 508 
Q 2331 650 2450 897 
Q 2541 1088 2541 1459 
L 2541 1666 
z
" transform="scale(0.015625)"/>
      <path id="ArialMT-76" d="M 1344 0 
L 81 3319 
L 675 3319 
L 1388 1331 
Q 1503 1009 1600 663 
Q 1675 925 1809 1294 
L 2547 3319 
L 3125 3319 
L 1869 0 
L 1344 0 
z
" transform="scale(0.015625)"/>
      <path id="ArialMT-65" d="M 2694 1069 
L 3275 997 
Q 3138 488 2766 206 
Q 2394 -75 1816 -75 
Q 1088 -75 661 373 
Q 234 822 234 1631 
Q 234 2469 665 2931 
Q 1097 3394 1784 3394 
Q 2450 3394 2872 2941 
Q 3294 2488 3294 1666 
Q 3294 1616 3291 1516 
L 816 1516 
Q 847 969 1125 678 
Q 1403 388 1819 388 
Q 2128 388 2347 550 
Q 2566 713 2694 1069 
z
M 847 1978 
L 2700 1978 
Q 2663 2397 2488 2606 
Q 2219 2931 1791 2931 
Q 1403 2931 1139 2672 
Q 875 2413 847 1978 
z
" transform="scale(0.015625)"/>
      <path id="ArialMT-6c" d="M 409 0 
L 409 4581 
L 972 4581 
L 972 0 
L 409 0 
z
" transform="scale(0.015625)"/>
      <path id="ArialMT-52" d="M 503 0 
L 503 4581 
L 2534 4581 
Q 3147 4581 3465 4457 
Q 3784 4334 3975 4021 
Q 4166 3709 4166 3331 
Q 4166 2844 3850 2509 
Q 3534 2175 2875 2084 
Q 3116 1969 3241 1856 
Q 3506 1613 3744 1247 
L 4541 0 
L 3778 0 
L 3172 953 
Q 2906 1366 2734 1584 
Q 2563 1803 2427 1890 
Q 2291 1978 2150 2013 
Q 2047 2034 1813 2034 
L 1109 2034 
L 1109 0 
L 503 0 
z
M 1109 2559 
L 2413 2559 
Q 2828 2559 3062 2645 
Q 3297 2731 3419 2920 
Q 3541 3109 3541 3331 
Q 3541 3656 3305 3865 
Q 3069 4075 2559 4075 
L 1109 4075 
L 1109 2559 
z
" transform="scale(0.015625)"/>
      <path id="ArialMT-75" d="M 2597 0 
L 2597 488 
Q 2209 -75 1544 -75 
Q 1250 -75 995 37 
Q 741 150 617 320 
Q 494 491 444 738 
Q 409 903 409 1263 
L 409 3319 
L 972 3319 
L 972 1478 
Q 972 1038 1006 884 
Q 1059 663 1231 536 
Q 1403 409 1656 409 
Q 1909 409 2131 539 
Q 2353 669 2445 892 
Q 2538 1116 2538 1541 
L 2538 3319 
L 3100 3319 
L 3100 0 
L 2597 0 
z
" transform="scale(0.015625)"/>
     </defs>
     <use xlink:href="#ArialMT-1f1f0"/>
     <use xlink:href="#ArialMT-1f1f7" transform="translate(75 0)"/>
     <use xlink:href="#ArialMT-20" transform="translate(150 0)"/>
     <use xlink:href="#ArialMT-20" transform="translate(177.783203 0)"/>
     <use xlink:href="#ArialMT-d55c" transform="translate(205.566406 0)"/>
     <use xlink:href="#ArialMT-ad6d" transform="translate(280.566406 0)"/>
     <use xlink:href="#ArialMT-20" transform="translate(355.566406 0)"/>
     <use xlink:href="#ArialMT-54" transform="translate(381.599609 0)"/>
     <use xlink:href="#ArialMT-72" transform="translate(438.933594 0)"/>
     <use xlink:href="#ArialMT-61" transform="translate(472.234375 0)"/>
     <use xlink:href="#ArialMT-76" transform="translate(527.849609 0)"/>
     <use xlink:href="#ArialMT-65" transform="translate(577.849609 0)"/>
     <use xlink:href="#ArialMT-6c" transform="translate(633.464844 0)"/>
     <use xlink:href="#ArialMT-20" transform="translate(655.681641 0)"/>
     <use xlink:href="#ArialMT-52" transform="translate(683.464844 0)"/>
     <use xlink:href="#ArialMT-75" transform="translate(755.681641 0)"/>
     <use xlink:href="#ArialMT-6c" transform="translate(811.296875 0)"/>
     <use xlink:href="#ArialMT-65" transform="translate(833.513672 0)"/>
     <use xlink:href="#ArialMT-20" transform="translate(889.128906 0)"/>
     <use xlink:href="#ArialMT-c2dc" transform="translate(916.912109 0)"/>
     <use xlink:href="#ArialMT-d589" transform="translate(991.912109 0)"/>
    </g>
   </g>
   <g id="PathCollection_4">
    <defs>
     <path id="m25db0bfa2c" d="M 0 5.700877 
C 1.51189 5.700877 2.962061 5.100197 4.031129 4.031129 
C 5.100197 2.962061 5.700877 1.51189 5.700877 0 
C 5.700877 -1.51189 5.100197 -2.962061 4.031129 -4.031129 
C 2.962061 -5.100197 1.51189 -5.700877 0 -5.700877 
C -1.51189 -5.700877 -2.962061 -5.100197 -4.031129 -4.031129 
C -5.100197 -2.962061 -5.700877 -1.51189 -5.700877 0 
C -5.700877 1.51189 -5.100197 2.962061 -4.031129 4.031129 
C -2.962061 5.100197 -1.51189 5.700877 0 5.700877 
z
" style="stroke: #8c6b2f; stroke-width: 1.8"/>
    </defs>
    <g clip-path="url(#p0723b442be)">
     <use xlink:href="#m25db0bfa2c" x="259.177745" y="223.189128" style="fill: #8c6b2f; stroke: #8c6b2f; stroke-width: 1.8"/>
    </g>
   </g>
   <g id="text_7">
    <!-- 2022-10 -->
    <g style="fill: #6b7280" transform="translate(189.291595 225.696471) scale(0.09 -0.09)">
     <use xlink:href="#DejaVuSansMono-32"/>
     <use xlink:href="#DejaVuSansMono-30" transform="translate(60.205078 0)"/>
     <use xlink:href="#DejaVuSansMono-32" transform="translate(120.410156 0)"/>
     <use xlink:href="#DejaVuSansMono-32" transform="translate(180.615234 0)"/>
     <use xlink:href="#DejaVuSansMono-2d" transform="translate(240.820312 0)"/>
     <use xlink:href="#DejaVuSansMono-31" transform="translate(301.025391 0)"/>
     <use xlink:href="#DejaVuSansMono-30" transform="translate(361.230469 0)"/>
    </g>
   </g>
   <g id="text_8">
    <!-- 🇺🇸  OFAC Tornado Cash 제재 -->
    <g style="fill: #111418; opacity: 0.78" transform="translate(284.744291 225.774284) scale(0.1 -0.1)">
     <defs>
      <path id="ArialMT-1f1fa" d="M 800 0 
L 800 4000 
L 4000 4000 
L 4000 0 
L 800 0 
z
M 900 100 
L 3900 100 
L 3900 3900 
L 900 3900 
L 900 100 
z
" transform="scale(0.015625)"/>
      <path id="ArialMT-1f1f8" d="M 800 0 
L 800 4000 
L 4000 4000 
L 4000 0 
L 800 0 
z
M 900 100 
L 3900 100 
L 3900 3900 
L 900 3900 
L 900 100 
z
" transform="scale(0.015625)"/>
      <path id="ArialMT-4f" d="M 309 2231 
Q 309 3372 921 4017 
Q 1534 4663 2503 4663 
Q 3138 4663 3647 4359 
Q 4156 4056 4423 3514 
Q 4691 2972 4691 2284 
Q 4691 1588 4409 1038 
Q 4128 488 3612 205 
Q 3097 -78 2500 -78 
Q 1853 -78 1343 234 
Q 834 547 571 1087 
Q 309 1628 309 2231 
z
M 934 2222 
Q 934 1394 1379 917 
Q 1825 441 2497 441 
Q 3181 441 3623 922 
Q 4066 1403 4066 2288 
Q 4066 2847 3877 3264 
Q 3688 3681 3323 3911 
Q 2959 4141 2506 4141 
Q 1863 4141 1398 3698 
Q 934 3256 934 2222 
z
" transform="scale(0.015625)"/>
      <path id="ArialMT-46" d="M 525 0 
L 525 4581 
L 3616 4581 
L 3616 4041 
L 1131 4041 
L 1131 2622 
L 3281 2622 
L 3281 2081 
L 1131 2081 
L 1131 0 
L 525 0 
z
" transform="scale(0.015625)"/>
      <path id="ArialMT-43" d="M 3763 1606 
L 4369 1453 
Q 4178 706 3683 314 
Q 3188 -78 2472 -78 
Q 1731 -78 1267 223 
Q 803 525 561 1097 
Q 319 1669 319 2325 
Q 319 3041 592 3573 
Q 866 4106 1370 4382 
Q 1875 4659 2481 4659 
Q 3169 4659 3637 4309 
Q 4106 3959 4291 3325 
L 3694 3184 
Q 3534 3684 3231 3912 
Q 2928 4141 2469 4141 
Q 1941 4141 1586 3887 
Q 1231 3634 1087 3207 
Q 944 2781 944 2328 
Q 944 1744 1114 1308 
Q 1284 872 1643 656 
Q 2003 441 2422 441 
Q 2931 441 3284 734 
Q 3638 1028 3763 1606 
z
" transform="scale(0.015625)"/>
      <path id="ArialMT-6f" d="M 213 1659 
Q 213 2581 725 3025 
Q 1153 3394 1769 3394 
Q 2453 3394 2887 2945 
Q 3322 2497 3322 1706 
Q 3322 1066 3130 698 
Q 2938 331 2570 128 
Q 2203 -75 1769 -75 
Q 1072 -75 642 372 
Q 213 819 213 1659 
z
M 791 1659 
Q 791 1022 1069 705 
Q 1347 388 1769 388 
Q 2188 388 2466 706 
Q 2744 1025 2744 1678 
Q 2744 2294 2464 2611 
Q 2184 2928 1769 2928 
Q 1347 2928 1069 2612 
Q 791 2297 791 1659 
z
" transform="scale(0.015625)"/>
      <path id="ArialMT-6e" d="M 422 0 
L 422 3319 
L 928 3319 
L 928 2847 
Q 1294 3394 1984 3394 
Q 2284 3394 2536 3286 
Q 2788 3178 2913 3003 
Q 3038 2828 3088 2588 
Q 3119 2431 3119 2041 
L 3119 0 
L 2556 0 
L 2556 2019 
Q 2556 2363 2490 2533 
Q 2425 2703 2258 2804 
Q 2091 2906 1866 2906 
Q 1506 2906 1245 2678 
Q 984 2450 984 1813 
L 984 0 
L 422 0 
z
" transform="scale(0.015625)"/>
      <path id="ArialMT-64" d="M 2575 0 
L 2575 419 
Q 2259 -75 1647 -75 
Q 1250 -75 917 144 
Q 584 363 401 755 
Q 219 1147 219 1656 
Q 219 2153 384 2558 
Q 550 2963 881 3178 
Q 1213 3394 1622 3394 
Q 1922 3394 2156 3267 
Q 2391 3141 2538 2938 
L 2538 4581 
L 3097 4581 
L 3097 0 
L 2575 0 
z
M 797 1656 
Q 797 1019 1065 703 
Q 1334 388 1700 388 
Q 2069 388 2326 689 
Q 2584 991 2584 1609 
Q 2584 2291 2321 2609 
Q 2059 2928 1675 2928 
Q 1300 2928 1048 2622 
Q 797 2316 797 1656 
z
" transform="scale(0.015625)"/>
      <path id="ArialMT-73" d="M 197 991 
L 753 1078 
Q 800 744 1014 566 
Q 1228 388 1613 388 
Q 2000 388 2187 545 
Q 2375 703 2375 916 
Q 2375 1106 2209 1216 
Q 2094 1291 1634 1406 
Q 1016 1563 777 1677 
Q 538 1791 414 1992 
Q 291 2194 291 2438 
Q 291 2659 392 2848 
Q 494 3038 669 3163 
Q 800 3259 1026 3326 
Q 1253 3394 1513 3394 
Q 1903 3394 2198 3281 
Q 2494 3169 2634 2976 
Q 2775 2784 2828 2463 
L 2278 2388 
Q 2241 2644 2061 2787 
Q 1881 2931 1553 2931 
Q 1166 2931 1000 2803 
Q 834 2675 834 2503 
Q 834 2394 903 2306 
Q 972 2216 1119 2156 
Q 1203 2125 1616 2013 
Q 2213 1853 2448 1751 
Q 2684 1650 2818 1456 
Q 2953 1263 2953 975 
Q 2953 694 2789 445 
Q 2625 197 2315 61 
Q 2006 -75 1616 -75 
Q 969 -75 630 194 
Q 291 463 197 991 
z
" transform="scale(0.015625)"/>
      <path id="ArialMT-68" d="M 422 0 
L 422 4581 
L 984 4581 
L 984 2938 
Q 1378 3394 1978 3394 
Q 2347 3394 2619 3248 
Q 2891 3103 3008 2847 
Q 3125 2591 3125 2103 
L 3125 0 
L 2563 0 
L 2563 2103 
Q 2563 2525 2380 2717 
Q 2197 2909 1863 2909 
Q 1613 2909 1392 2779 
Q 1172 2650 1078 2428 
Q 984 2206 984 1816 
L 984 0 
L 422 0 
z
" transform="scale(0.015625)"/>
      <path id="ArialMT-c7ac" d="M 800 0 
L 800 4000 
L 4000 4000 
L 4000 0 
L 800 0 
z
M 900 100 
L 3900 100 
L 3900 3900 
L 900 3900 
L 900 100 
z
" transform="scale(0.015625)"/>
     </defs>
     <use xlink:href="#ArialMT-1f1fa"/>
     <use xlink:href="#ArialMT-1f1f8" transform="translate(75 0)"/>
     <use xlink:href="#ArialMT-20" transform="translate(150 0)"/>
     <use xlink:href="#ArialMT-20" transform="translate(177.783203 0)"/>
     <use xlink:href="#ArialMT-4f" transform="translate(205.566406 0)"/>
     <use xlink:href="#ArialMT-46" transform="translate(283.349609 0)"/>
     <use xlink:href="#ArialMT-41" transform="translate(338.933594 0)"/>
     <use xlink:href="#ArialMT-43" transform="translate(405.632812 0)"/>
     <use xlink:href="#ArialMT-20" transform="translate(477.849609 0)"/>
     <use xlink:href="#ArialMT-54" transform="translate(503.882812 0)"/>
     <use xlink:href="#ArialMT-6f" transform="translate(553.841797 0)"/>
     <use xlink:href="#ArialMT-72" transform="translate(609.457031 0)"/>
     <use xlink:href="#ArialMT-6e" transform="translate(642.757812 0)"/>
     <use xlink:href="#ArialMT-61" transform="translate(698.373047 0)"/>
     <use xlink:href="#ArialMT-64" transform="translate(753.988281 0)"/>
     <use xlink:href="#ArialMT-6f" transform="translate(809.603516 0)"/>
     <use xlink:href="#ArialMT-20" transform="translate(865.21875 0)"/>
     <use xlink:href="#ArialMT-43" transform="translate(893.001953 0)"/>
     <use xlink:href="#ArialMT-61" transform="translate(965.21875 0)"/>
     <use xlink:href="#ArialMT-73" transform="translate(1020.833984 0)"/>
     <use xlink:href="#ArialMT-68" transform="translate(1070.833984 0)"/>
     <use xlink:href="#ArialMT-20" transform="translate(1126.449219 0)"/>
     <use xlink:href="#ArialMT-c81c" transform="translate(1154.232422 0)"/>
     <use xlink:href="#ArialMT-c7ac" transform="translate(1229.232422 0)"/>
    </g>
   </g>
   <g id="PathCollection_5">
    <g clip-path="url(#p0723b442be)">
     <use xlink:href="#m4b5cf9202f" x="259.177745" y="323.945302" style="fill: #1a2e4a; stroke: #1a2e4a; stroke-width: 1.8"/>
    </g>
   </g>
   <g id="text_9">
    <!-- 2024-08 -->
    <g style="fill: #6b7280" transform="translate(189.291595 326.452645) scale(0.09 -0.09)">
     <defs>
      <path id="DejaVuSansMono-38" d="M 1925 2216 
Q 1503 2216 1273 1980 
Q 1044 1744 1044 1313 
Q 1044 881 1276 642 
Q 1509 403 1925 403 
Q 2350 403 2579 639 
Q 2809 875 2809 1313 
Q 2809 1741 2576 1978 
Q 2344 2216 1925 2216 
z
M 1375 2478 
Q 972 2581 745 2862 
Q 519 3144 519 3541 
Q 519 4097 897 4423 
Q 1275 4750 1925 4750 
Q 2578 4750 2956 4423 
Q 3334 4097 3334 3541 
Q 3334 3144 3107 2862 
Q 2881 2581 2478 2478 
Q 2947 2375 3195 2062 
Q 3444 1750 3444 1253 
Q 3444 622 3041 265 
Q 2638 -91 1925 -91 
Q 1213 -91 811 264 
Q 409 619 409 1247 
Q 409 1747 657 2061 
Q 906 2375 1375 2478 
z
M 1147 3481 
Q 1147 3106 1347 2909 
Q 1547 2713 1925 2713 
Q 2306 2713 2506 2909 
Q 2706 3106 2706 3481 
Q 2706 3863 2507 4063 
Q 2309 4263 1925 4263 
Q 1547 4263 1347 4061 
Q 1147 3859 1147 3481 
z
" transform="scale(0.015625)"/>
     </defs>
     <use xlink:href="#DejaVuSansMono-32"/>
     <use xlink:href="#DejaVuSansMono-30" transform="translate(60.205078 0)"/>
     <use xlink:href="#DejaVuSansMono-32" transform="translate(120.410156 0)"/>
     <use xlink:href="#DejaVuSansMono-34" transform="translate(180.615234 0)"/>
     <use xlink:href="#DejaVuSansMono-2d" transform="translate(240.820312 0)"/>
     <use xlink:href="#DejaVuSansMono-30" transform="translate(301.025391 0)"/>
     <use xlink:href="#DejaVuSansMono-38" transform="translate(361.230469 0)"/>
    </g>
   </g>
   <g id="text_10">
    <!-- 🇰🇷  한국 이용자보호법 시행 -->
    <g style="fill: #111418; opacity: 0.78" transform="translate(284.744291 326.530458) scale(0.1 -0.1)">
     <defs>
      <path id="ArialMT-c774" d="M 800 0 
L 800 4000 
L 4000 4000 
L 4000 0 
L 800 0 
z
M 900 100 
L 3900 100 
L 3900 3900 
L 900 3900 
L 900 100 
z
" transform="scale(0.015625)"/>
      <path id="ArialMT-c6a9" d="M 800 0 
L 800 4000 
L 4000 4000 
L 4000 0 
L 800 0 
z
M 900 100 
L 3900 100 
L 3900 3900 
L 900 3900 
L 900 100 
z
" transform="scale(0.015625)"/>
      <path id="ArialMT-c790" d="M 800 0 
L 800 4000 
L 4000 4000 
L 4000 0 
L 800 0 
z
M 900 100 
L 3900 100 
L 3900 3900 
L 900 3900 
L 900 100 
z
" transform="scale(0.015625)"/>
      <path id="ArialMT-bcf4" d="M 800 0 
L 800 4000 
L 4000 4000 
L 4000 0 
L 800 0 
z
M 900 100 
L 3900 100 
L 3900 3900 
L 900 3900 
L 900 100 
z
" transform="scale(0.015625)"/>
      <path id="ArialMT-d638" d="M 800 0 
L 800 4000 
L 4000 4000 
L 4000 0 
L 800 0 
z
M 900 100 
L 3900 100 
L 3900 3900 
L 900 3900 
L 900 100 
z
" transform="scale(0.015625)"/>
     </defs>
     <use xlink:href="#ArialMT-1f1f0"/>
     <use xlink:href="#ArialMT-1f1f7" transform="translate(75 0)"/>
     <use xlink:href="#ArialMT-20" transform="translate(150 0)"/>
     <use xlink:href="#ArialMT-20" transform="translate(177.783203 0)"/>
     <use xlink:href="#ArialMT-d55c" transform="translate(205.566406 0)"/>
     <use xlink:href="#ArialMT-ad6d" transform="translate(280.566406 0)"/>
     <use xlink:href="#ArialMT-20" transform="translate(355.566406 0)"/>
     <use xlink:href="#ArialMT-c774" transform="translate(383.349609 0)"/>
     <use xlink:href="#ArialMT-c6a9" transform="translate(458.349609 0)"/>
     <use xlink:href="#ArialMT-c790" transform="translate(533.349609 0)"/>
     <use xlink:href="#ArialMT-bcf4" transform="translate(608.349609 0)"/>
     <use xlink:href="#ArialMT-d638" transform="translate(683.349609 0)"/>
     <use xlink:href="#ArialMT-bc95" transform="translate(758.349609 0)"/>
     <use xlink:href="#ArialMT-20" transform="translate(833.349609 0)"/>
     <use xlink:href="#ArialMT-c2dc" transform="translate(861.132812 0)"/>
     <use xlink:href="#ArialMT-d589" transform="translate(936.132812 0)"/>
    </g>
   </g>
   <g id="PathCollection_6">
    <defs>
     <path id="ma6c67e1891" d="M 0 5.700877 
C 1.51189 5.700877 2.962061 5.100197 4.031129 4.031129 
C 5.100197 2.962061 5.700877 1.51189 5.700877 0 
C 5.700877 -1.51189 5.100197 -2.962061 4.031129 -4.031129 
C 2.962061 -5.100197 1.51189 -5.700877 0 -5.700877 
C -1.51189 -5.700877 -2.962061 -5.100197 -4.031129 -4.031129 
C -5.100197 -2.962061 -5.700877 -1.51189 -5.700877 0 
C -5.700877 1.51189 -5.100197 2.962061 -4.031129 4.031129 
C -2.962061 5.100197 -1.51189 5.700877 0 5.700877 
z
" style="stroke: #4a5f7e; stroke-width: 1.8"/>
    </defs>
    <g clip-path="url(#p0723b442be)">
     <use xlink:href="#ma6c67e1891" x="259.177745" y="293.188154" style="fill: #4a5f7e; stroke: #4a5f7e; stroke-width: 1.8"/>
    </g>
   </g>
   <g id="text_11">
    <!-- 2024-01 -->
    <g style="fill: #6b7280" transform="translate(189.291595 295.695498) scale(0.09 -0.09)">
     <use xlink:href="#DejaVuSansMono-32"/>
     <use xlink:href="#DejaVuSansMono-30" transform="translate(60.205078 0)"/>
     <use xlink:href="#DejaVuSansMono-32" transform="translate(120.410156 0)"/>
     <use xlink:href="#DejaVuSansMono-34" transform="translate(180.615234 0)"/>
     <use xlink:href="#DejaVuSansMono-2d" transform="translate(240.820312 0)"/>
     <use xlink:href="#DejaVuSansMono-30" transform="translate(301.025391 0)"/>
     <use xlink:href="#DejaVuSansMono-31" transform="translate(361.230469 0)"/>
    </g>
   </g>
   <g id="text_12">
    <!-- 🇪🇺  EU MiCA + TFR 전면 시행 -->
    <g style="fill: #111418; opacity: 0.78" transform="translate(284.744291 295.77331) scale(0.1 -0.1)">
     <defs>
      <path id="ArialMT-1f1ea" d="M 800 0 
L 800 4000 
L 4000 4000 
L 4000 0 
L 800 0 
z
M 900 100 
L 3900 100 
L 3900 3900 
L 900 3900 
L 900 100 
z
" transform="scale(0.015625)"/>
      <path id="ArialMT-45" d="M 506 0 
L 506 4581 
L 3819 4581 
L 3819 4041 
L 1113 4041 
L 1113 2638 
L 3647 2638 
L 3647 2100 
L 1113 2100 
L 1113 541 
L 3925 541 
L 3925 0 
L 506 0 
z
" transform="scale(0.015625)"/>
      <path id="ArialMT-55" d="M 3500 4581 
L 4106 4581 
L 4106 1934 
Q 4106 1244 3950 837 
Q 3794 431 3386 176 
Q 2978 -78 2316 -78 
Q 1672 -78 1262 144 
Q 853 366 678 786 
Q 503 1206 503 1934 
L 503 4581 
L 1109 4581 
L 1109 1938 
Q 1109 1341 1220 1058 
Q 1331 775 1601 622 
Q 1872 469 2263 469 
Q 2931 469 3215 772 
Q 3500 1075 3500 1938 
L 3500 4581 
z
" transform="scale(0.015625)"/>
      <path id="ArialMT-4d" d="M 475 0 
L 475 4581 
L 1388 4581 
L 2472 1338 
Q 2622 884 2691 659 
Q 2769 909 2934 1394 
L 4031 4581 
L 4847 4581 
L 4847 0 
L 4263 0 
L 4263 3834 
L 2931 0 
L 2384 0 
L 1059 3900 
L 1059 0 
L 475 0 
z
" transform="scale(0.015625)"/>
      <path id="ArialMT-69" d="M 425 3934 
L 425 4581 
L 988 4581 
L 988 3934 
L 425 3934 
z
M 425 0 
L 425 3319 
L 988 3319 
L 988 0 
L 425 0 
z
" transform="scale(0.015625)"/>
      <path id="ArialMT-2b" d="M 1603 741 
L 1603 1997 
L 356 1997 
L 356 2522 
L 1603 2522 
L 1603 3769 
L 2134 3769 
L 2134 2522 
L 3381 2522 
L 3381 1997 
L 2134 1997 
L 2134 741 
L 1603 741 
z
" transform="scale(0.015625)"/>
      <path id="ArialMT-c804" d="M 800 0 
L 800 4000 
L 4000 4000 
L 4000 0 
L 800 0 
z
M 900 100 
L 3900 100 
L 3900 3900 
L 900 3900 
L 900 100 
z
" transform="scale(0.015625)"/>
      <path id="ArialMT-ba74" d="M 800 0 
L 800 4000 
L 4000 4000 
L 4000 0 
L 800 0 
z
M 900 100 
L 3900 100 
L 3900 3900 
L 900 3900 
L 900 100 
z
" transform="scale(0.015625)"/>
     </defs>
     <use xlink:href="#ArialMT-1f1ea"/>
     <use xlink:href="#ArialMT-1f1fa" transform="translate(75 0)"/>
     <use xlink:href="#ArialMT-20" transform="translate(150 0)"/>
     <use xlink:href="#ArialMT-20" transform="translate(177.783203 0)"/>
     <use xlink:href="#ArialMT-45" transform="translate(205.566406 0)"/>
     <use xlink:href="#ArialMT-55" transform="translate(272.265625 0)"/>
     <use xlink:href="#ArialMT-20" transform="translate(344.482422 0)"/>
     <use xlink:href="#ArialMT-4d" transform="translate(372.265625 0)"/>
     <use xlink:href="#ArialMT-69" transform="translate(455.566406 0)"/>
     <use xlink:href="#ArialMT-43" transform="translate(477.783203 0)"/>
     <use xlink:href="#ArialMT-41" transform="translate(550 0)"/>
     <use xlink:href="#ArialMT-20" transform="translate(611.199219 0)"/>
     <use xlink:href="#ArialMT-2b" transform="translate(638.982422 0)"/>
     <use xlink:href="#ArialMT-20" transform="translate(697.380859 0)"/>
     <use xlink:href="#ArialMT-54" transform="translate(723.414062 0)"/>
     <use xlink:href="#ArialMT-46" transform="translate(784.498047 0)"/>
     <use xlink:href="#ArialMT-52" transform="translate(845.582031 0)"/>
     <use xlink:href="#ArialMT-20" transform="translate(917.798828 0)"/>
     <use xlink:href="#ArialMT-c804" transform="translate(945.582031 0)"/>
     <use xlink:href="#ArialMT-ba74" transform="translate(1020.582031 0)"/>
     <use xlink:href="#ArialMT-20" transform="translate(1095.582031 0)"/>
     <use xlink:href="#ArialMT-c2dc" transform="translate(1123.365234 0)"/>
     <use xlink:href="#ArialMT-d589" transform="translate(1198.365234 0)"/>
    </g>
   </g>
   <g id="PathCollection_7">
    <g clip-path="url(#p0723b442be)">
     <use xlink:href="#m25db0bfa2c" x="259.177745" y="355.763041" style="fill: #8c6b2f; stroke: #8c6b2f; stroke-width: 1.8"/>
    </g>
   </g>
   <g id="text_13">
    <!-- 2025-04 -->
    <g style="fill: #6b7280" transform="translate(189.291595 358.270385) scale(0.09 -0.09)">
     <defs>
      <path id="DejaVuSansMono-35" d="M 647 4666 
L 3009 4666 
L 3009 4134 
L 1222 4134 
L 1222 2988 
Q 1356 3038 1492 3061 
Q 1628 3084 1766 3084 
Q 2491 3084 2916 2656 
Q 3341 2228 3341 1497 
Q 3341 759 2895 334 
Q 2450 -91 1678 -91 
Q 1306 -91 998 -41 
Q 691 9 447 109 
L 447 750 
Q 734 594 1025 517 
Q 1316 441 1619 441 
Q 2141 441 2423 716 
Q 2706 991 2706 1497 
Q 2706 1997 2414 2275 
Q 2122 2553 1600 2553 
Q 1347 2553 1106 2495 
Q 866 2438 647 2322 
L 647 4666 
z
" transform="scale(0.015625)"/>
     </defs>
     <use xlink:href="#DejaVuSansMono-32"/>
     <use xlink:href="#DejaVuSansMono-30" transform="translate(60.205078 0)"/>
     <use xlink:href="#DejaVuSansMono-32" transform="translate(120.410156 0)"/>
     <use xlink:href="#DejaVuSansMono-35" transform="translate(180.615234 0)"/>
     <use xlink:href="#DejaVuSansMono-2d" transform="translate(240.820312 0)"/>
     <use xlink:href="#DejaVuSansMono-30" transform="translate(301.025391 0)"/>
     <use xlink:href="#DejaVuSansMono-34" transform="translate(361.230469 0)"/>
    </g>
   </g>
   <g id="text_14">
    <!-- 🇺🇸  OFAC Tornado 제재 해제 -->
    <g style="fill: #111418; opacity: 0.78" transform="translate(284.744291 358.348197) scale(0.1 -0.1)">
     <defs>
      <path id="ArialMT-d574" d="M 800 0 
L 800 4000 
L 4000 4000 
L 4000 0 
L 800 0 
z
M 900 100 
L 3900 100 
L 3900 3900 
L 900 3900 
L 900 100 
z
" transform="scale(0.015625)"/>
     </defs>
     <use xlink:href="#ArialMT-1f1fa"/>
     <use xlink:href="#ArialMT-1f1f8" transform="translate(75 0)"/>
     <use xlink:href="#ArialMT-20" transform="translate(150 0)"/>
     <use xlink:href="#ArialMT-20" transform="translate(177.783203 0)"/>
     <use xlink:href="#ArialMT-4f" transform="translate(205.566406 0)"/>
     <use xlink:href="#ArialMT-46" transform="translate(283.349609 0)"/>
     <use xlink:href="#ArialMT-41" transform="translate(338.933594 0)"/>
     <use xlink:href="#ArialMT-43" transform="translate(405.632812 0)"/>
     <use xlink:href="#ArialMT-20" transform="translate(477.849609 0)"/>
     <use xlink:href="#ArialMT-54" transform="translate(503.882812 0)"/>
     <use xlink:href="#ArialMT-6f" transform="translate(553.841797 0)"/>
     <use xlink:href="#ArialMT-72" transform="translate(609.457031 0)"/>
     <use xlink:href="#ArialMT-6e" transform="translate(642.757812 0)"/>
     <use xlink:href="#ArialMT-61" transform="translate(698.373047 0)"/>
     <use xlink:href="#ArialMT-64" transform="translate(753.988281 0)"/>
     <use xlink:href="#ArialMT-6f" transform="translate(809.603516 0)"/>
     <use xlink:href="#ArialMT-20" transform="translate(865.21875 0)"/>
     <use xlink:href="#ArialMT-c81c" transform="translate(893.001953 0)"/>
     <use xlink:href="#ArialMT-c7ac" transform="translate(968.001953 0)"/>
     <use xlink:href="#ArialMT-20" transform="translate(1043.001953 0)"/>
     <use xlink:href="#ArialMT-d574" transform="translate(1070.785156 0)"/>
     <use xlink:href="#ArialMT-c81c" transform="translate(1145.785156 0)"/>
    </g>
   </g>
   <g id="PathCollection_8">
    <defs>
     <path id="m9fad0e1b6d" d="M 0 5.700877 
C 1.51189 5.700877 2.962061 5.100197 4.031129 4.031129 
C 5.100197 2.962061 5.700877 1.51189 5.700877 0 
C 5.700877 -1.51189 5.100197 -2.962061 4.031129 -4.031129 
C 2.962061 -5.100197 1.51189 -5.700877 0 -5.700877 
C -1.51189 -5.700877 -2.962061 -5.100197 -4.031129 -4.031129 
C -5.100197 -2.962061 -5.700877 -1.51189 -5.700877 0 
C -5.700877 1.51189 -5.100197 2.962061 -4.031129 4.031129 
C -2.962061 5.100197 -1.51189 5.700877 0 5.700877 
z
" style="stroke: #c9a646; stroke-width: 1.8"/>
    </defs>
    <g clip-path="url(#p0723b442be)">
     <use xlink:href="#m9fad0e1b6d" x="259.177745" y="371.67191" style="fill: #c9a646; stroke: #c9a646; stroke-width: 1.8"/>
    </g>
   </g>
   <g id="text_15">
    <!-- 2025-07 -->
    <g style="fill: #6b7280" transform="translate(189.291595 374.179254) scale(0.09 -0.09)">
     <defs>
      <path id="DejaVuSansMono-37" d="M 434 4666 
L 3372 4666 
L 3372 4397 
L 1703 0 
L 1044 0 
L 2669 4134 
L 434 4134 
L 434 4666 
z
" transform="scale(0.015625)"/>
     </defs>
     <use xlink:href="#DejaVuSansMono-32"/>
     <use xlink:href="#DejaVuSansMono-30" transform="translate(60.205078 0)"/>
     <use xlink:href="#DejaVuSansMono-32" transform="translate(120.410156 0)"/>
     <use xlink:href="#DejaVuSansMono-35" transform="translate(180.615234 0)"/>
     <use xlink:href="#DejaVuSansMono-2d" transform="translate(240.820312 0)"/>
     <use xlink:href="#DejaVuSansMono-30" transform="translate(301.025391 0)"/>
     <use xlink:href="#DejaVuSansMono-37" transform="translate(361.230469 0)"/>
    </g>
   </g>
   <g id="text_16">
    <!-- 🌍  FATF R.16 개정 -->
    <g style="fill: #111418; opacity: 0.78" transform="translate(284.744291 374.257067) scale(0.1 -0.1)">
     <defs>
      <path id="ArialMT-1f30d" d="M 800 0 
L 800 4000 
L 4000 4000 
L 4000 0 
L 800 0 
z
M 900 100 
L 3900 100 
L 3900 3900 
L 900 3900 
L 900 100 
z
" transform="scale(0.015625)"/>
      <path id="ArialMT-2e" d="M 581 0 
L 581 641 
L 1222 641 
L 1222 0 
L 581 0 
z
" transform="scale(0.015625)"/>
      <path id="ArialMT-31" d="M 2384 0 
L 1822 0 
L 1822 3584 
Q 1619 3391 1289 3197 
Q 959 3003 697 2906 
L 697 3450 
Q 1169 3672 1522 3987 
Q 1875 4303 2022 4600 
L 2384 4600 
L 2384 0 
z
" transform="scale(0.015625)"/>
      <path id="ArialMT-36" d="M 3184 3459 
L 2625 3416 
Q 2550 3747 2413 3897 
Q 2184 4138 1850 4138 
Q 1581 4138 1378 3988 
Q 1113 3794 959 3422 
Q 806 3050 800 2363 
Q 1003 2672 1297 2822 
Q 1591 2972 1913 2972 
Q 2475 2972 2870 2558 
Q 3266 2144 3266 1488 
Q 3266 1056 3080 686 
Q 2894 316 2569 119 
Q 2244 -78 1831 -78 
Q 1128 -78 684 439 
Q 241 956 241 2144 
Q 241 3472 731 4075 
Q 1159 4600 1884 4600 
Q 2425 4600 2770 4297 
Q 3116 3994 3184 3459 
z
M 888 1484 
Q 888 1194 1011 928 
Q 1134 663 1356 523 
Q 1578 384 1822 384 
Q 2178 384 2434 671 
Q 2691 959 2691 1453 
Q 2691 1928 2437 2201 
Q 2184 2475 1800 2475 
Q 1419 2475 1153 2201 
Q 888 1928 888 1484 
z
" transform="scale(0.015625)"/>
     </defs>
     <use xlink:href="#ArialMT-1f30d"/>
     <use xlink:href="#ArialMT-20" transform="translate(75 0)"/>
     <use xlink:href="#ArialMT-20" transform="translate(102.783203 0)"/>
     <use xlink:href="#ArialMT-46" transform="translate(130.566406 0)"/>
     <use xlink:href="#ArialMT-41" transform="translate(186.150391 0)"/>
     <use xlink:href="#ArialMT-54" transform="translate(245.474609 0)"/>
     <use xlink:href="#ArialMT-46" transform="translate(306.558594 0)"/>
     <use xlink:href="#ArialMT-20" transform="translate(367.642578 0)"/>
     <use xlink:href="#ArialMT-52" transform="translate(395.425781 0)"/>
     <use xlink:href="#ArialMT-2e" transform="translate(467.642578 0)"/>
     <use xlink:href="#ArialMT-31" transform="translate(495.425781 0)"/>
     <use xlink:href="#ArialMT-36" transform="translate(551.041016 0)"/>
     <use xlink:href="#ArialMT-20" transform="translate(606.65625 0)"/>
     <use xlink:href="#ArialMT-ac1c" transform="translate(634.439453 0)"/>
     <use xlink:href="#ArialMT-c815" transform="translate(709.439453 0)"/>
    </g>
   </g>
   <g id="PathCollection_9">
    <g clip-path="url(#p0723b442be)">
     <use xlink:href="#m25db0bfa2c" x="259.177745" y="376.974867" style="fill: #8c6b2f; stroke: #8c6b2f; stroke-width: 1.8"/>
    </g>
   </g>
   <g id="text_17">
    <!-- 2025-08 -->
    <g style="fill: #6b7280" transform="translate(189.291595 379.482211) scale(0.09 -0.09)">
     <use xlink:href="#DejaVuSansMono-32"/>
     <use xlink:href="#DejaVuSansMono-30" transform="translate(60.205078 0)"/>
     <use xlink:href="#DejaVuSansMono-32" transform="translate(120.410156 0)"/>
     <use xlink:href="#DejaVuSansMono-35" transform="translate(180.615234 0)"/>
     <use xlink:href="#DejaVuSansMono-2d" transform="translate(240.820312 0)"/>
     <use xlink:href="#DejaVuSansMono-30" transform="translate(301.025391 0)"/>
     <use xlink:href="#DejaVuSansMono-38" transform="translate(361.230469 0)"/>
    </g>
   </g>
   <g id="text_18">
    <!-- 🇺🇸  미국 GENIUS Act 통과 -->
    <g style="fill: #111418; opacity: 0.78" transform="translate(284.744291 379.560023) scale(0.1 -0.1)">
     <defs>
      <path id="ArialMT-bbf8" d="M 800 0 
L 800 4000 
L 4000 4000 
L 4000 0 
L 800 0 
z
M 900 100 
L 3900 100 
L 3900 3900 
L 900 3900 
L 900 100 
z
" transform="scale(0.015625)"/>
      <path id="ArialMT-47" d="M 2638 1797 
L 2638 2334 
L 4578 2338 
L 4578 638 
Q 4131 281 3656 101 
Q 3181 -78 2681 -78 
Q 2006 -78 1454 211 
Q 903 500 622 1047 
Q 341 1594 341 2269 
Q 341 2938 620 3517 
Q 900 4097 1425 4378 
Q 1950 4659 2634 4659 
Q 3131 4659 3532 4498 
Q 3934 4338 4162 4050 
Q 4391 3763 4509 3300 
L 3963 3150 
Q 3859 3500 3706 3700 
Q 3553 3900 3268 4020 
Q 2984 4141 2638 4141 
Q 2222 4141 1919 4014 
Q 1616 3888 1430 3681 
Q 1244 3475 1141 3228 
Q 966 2803 966 2306 
Q 966 1694 1177 1281 
Q 1388 869 1791 669 
Q 2194 469 2647 469 
Q 3041 469 3416 620 
Q 3791 772 3984 944 
L 3984 1797 
L 2638 1797 
z
" transform="scale(0.015625)"/>
      <path id="ArialMT-4e" d="M 488 0 
L 488 4581 
L 1109 4581 
L 3516 984 
L 3516 4581 
L 4097 4581 
L 4097 0 
L 3475 0 
L 1069 3600 
L 1069 0 
L 488 0 
z
" transform="scale(0.015625)"/>
      <path id="ArialMT-49" d="M 597 0 
L 597 4581 
L 1203 4581 
L 1203 0 
L 597 0 
z
" transform="scale(0.015625)"/>
      <path id="ArialMT-63" d="M 2588 1216 
L 3141 1144 
Q 3050 572 2676 248 
Q 2303 -75 1759 -75 
Q 1078 -75 664 370 
Q 250 816 250 1647 
Q 250 2184 428 2587 
Q 606 2991 970 3192 
Q 1334 3394 1763 3394 
Q 2303 3394 2647 3120 
Q 2991 2847 3088 2344 
L 2541 2259 
Q 2463 2594 2264 2762 
Q 2066 2931 1784 2931 
Q 1359 2931 1093 2626 
Q 828 2322 828 1663 
Q 828 994 1084 691 
Q 1341 388 1753 388 
Q 2084 388 2306 591 
Q 2528 794 2588 1216 
z
" transform="scale(0.015625)"/>
      <path id="ArialMT-74" d="M 1650 503 
L 1731 6 
Q 1494 -44 1306 -44 
Q 1000 -44 831 53 
Q 663 150 594 308 
Q 525 466 525 972 
L 525 2881 
L 113 2881 
L 113 3319 
L 525 3319 
L 525 4141 
L 1084 4478 
L 1084 3319 
L 1650 3319 
L 1650 2881 
L 1084 2881 
L 1084 941 
Q 1084 700 1114 631 
Q 1144 563 1211 522 
Q 1278 481 1403 481 
Q 1497 481 1650 503 
z
" transform="scale(0.015625)"/>
      <path id="ArialMT-d1b5" d="M 800 0 
L 800 4000 
L 4000 4000 
L 4000 0 
L 800 0 
z
M 900 100 
L 3900 100 
L 3900 3900 
L 900 3900 
L 900 100 
z
" transform="scale(0.015625)"/>
      <path id="ArialMT-acfc" d="M 800 0 
L 800 4000 
L 4000 4000 
L 4000 0 
L 800 0 
z
M 900 100 
L 3900 100 
L 3900 3900 
L 900 3900 
L 900 100 
z
" transform="scale(0.015625)"/>
     </defs>
     <use xlink:href="#ArialMT-1f1fa"/>
     <use xlink:href="#ArialMT-1f1f8" transform="translate(75 0)"/>
     <use xlink:href="#ArialMT-20" transform="translate(150 0)"/>
     <use xlink:href="#ArialMT-20" transform="translate(177.783203 0)"/>
     <use xlink:href="#ArialMT-bbf8" transform="translate(205.566406 0)"/>
     <use xlink:href="#ArialMT-ad6d" transform="translate(280.566406 0)"/>
     <use xlink:href="#ArialMT-20" transform="translate(355.566406 0)"/>
     <use xlink:href="#ArialMT-47" transform="translate(383.349609 0)"/>
     <use xlink:href="#ArialMT-45" transform="translate(461.132812 0)"/>
     <use xlink:href="#ArialMT-4e" transform="translate(527.832031 0)"/>
     <use xlink:href="#ArialMT-49" transform="translate(600.048828 0)"/>
     <use xlink:href="#ArialMT-55" transform="translate(627.832031 0)"/>
     <use xlink:href="#ArialMT-53" transform="translate(700.048828 0)"/>
     <use xlink:href="#ArialMT-20" transform="translate(766.748047 0)"/>
     <use xlink:href="#ArialMT-41" transform="translate(789.03125 0)"/>
     <use xlink:href="#ArialMT-63" transform="translate(855.730469 0)"/>
     <use xlink:href="#ArialMT-74" transform="translate(905.730469 0)"/>
     <use xlink:href="#ArialMT-20" transform="translate(933.513672 0)"/>
     <use xlink:href="#ArialMT-d1b5" transform="translate(961.296875 0)"/>
     <use xlink:href="#ArialMT-acfc" transform="translate(1036.296875 0)"/>
    </g>
   </g>
   <g id="PathCollection_10">
    <g clip-path="url(#p0723b442be)">
     <use xlink:href="#m4b5cf9202f" x="259.177745" y="398.186693" style="fill: #1a2e4a; stroke: #1a2e4a; stroke-width: 1.8"/>
    </g>
   </g>
   <g id="text_19">
    <!-- 2026-01 -->
    <g style="fill: #6b7280" transform="translate(189.291595 400.694037) scale(0.09 -0.09)">
     <defs>
      <path id="DejaVuSansMono-36" d="M 3097 4563 
L 3097 3981 
Q 2900 4097 2678 4158 
Q 2456 4219 2216 4219 
Q 1616 4219 1306 3767 
Q 997 3316 997 2438 
Q 1147 2750 1412 2917 
Q 1678 3084 2022 3084 
Q 2697 3084 3067 2670 
Q 3438 2256 3438 1497 
Q 3438 741 3056 325 
Q 2675 -91 1984 -91 
Q 1172 -91 794 492 
Q 416 1075 416 2328 
Q 416 3509 870 4129 
Q 1325 4750 2188 4750 
Q 2419 4750 2650 4701 
Q 2881 4653 3097 4563 
z
M 1972 2591 
Q 1569 2591 1337 2300 
Q 1106 2009 1106 1497 
Q 1106 984 1337 693 
Q 1569 403 1972 403 
Q 2391 403 2603 679 
Q 2816 956 2816 1497 
Q 2816 2041 2603 2316 
Q 2391 2591 1972 2591 
z
" transform="scale(0.015625)"/>
     </defs>
     <use xlink:href="#DejaVuSansMono-32"/>
     <use xlink:href="#DejaVuSansMono-30" transform="translate(60.205078 0)"/>
     <use xlink:href="#DejaVuSansMono-32" transform="translate(120.410156 0)"/>
     <use xlink:href="#DejaVuSansMono-36" transform="translate(180.615234 0)"/>
     <use xlink:href="#DejaVuSansMono-2d" transform="translate(240.820312 0)"/>
     <use xlink:href="#DejaVuSansMono-30" transform="translate(301.025391 0)"/>
     <use xlink:href="#DejaVuSansMono-31" transform="translate(361.230469 0)"/>
    </g>
   </g>
   <g id="text_20">
    <!-- 🇰🇷  한국 특금법 개정 (대주주) -->
    <g style="fill: #111418; opacity: 0.78" transform="translate(284.744291 400.774193) scale(0.1 -0.1)">
     <defs>
      <path id="ArialMT-28" d="M 1497 -1347 
Q 1031 -759 709 28 
Q 388 816 388 1659 
Q 388 2403 628 3084 
Q 909 3875 1497 4659 
L 1900 4659 
Q 1522 4009 1400 3731 
Q 1209 3300 1100 2831 
Q 966 2247 966 1656 
Q 966 153 1900 -1347 
L 1497 -1347 
z
" transform="scale(0.015625)"/>
      <path id="ArialMT-b300" d="M 800 0 
L 800 4000 
L 4000 4000 
L 4000 0 
L 800 0 
z
M 900 100 
L 3900 100 
L 3900 3900 
L 900 3900 
L 900 100 
z
" transform="scale(0.015625)"/>
      <path id="ArialMT-c8fc" d="M 800 0 
L 800 4000 
L 4000 4000 
L 4000 0 
L 800 0 
z
M 900 100 
L 3900 100 
L 3900 3900 
L 900 3900 
L 900 100 
z
" transform="scale(0.015625)"/>
      <path id="ArialMT-29" d="M 791 -1347 
L 388 -1347 
Q 1322 153 1322 1656 
Q 1322 2244 1188 2822 
Q 1081 3291 891 3722 
Q 769 4003 388 4659 
L 791 4659 
Q 1378 3875 1659 3084 
Q 1900 2403 1900 1659 
Q 1900 816 1576 28 
Q 1253 -759 791 -1347 
z
" transform="scale(0.015625)"/>
     </defs>
     <use xlink:href="#ArialMT-1f1f0"/>
     <use xlink:href="#ArialMT-1f1f7" transform="translate(75 0)"/>
     <use xlink:href="#ArialMT-20" transform="translate(150 0)"/>
     <use xlink:href="#ArialMT-20" transform="translate(177.783203 0)"/>
     <use xlink:href="#ArialMT-d55c" transform="translate(205.566406 0)"/>
     <use xlink:href="#ArialMT-ad6d" transform="translate(280.566406 0)"/>
     <use xlink:href="#ArialMT-20" transform="translate(355.566406 0)"/>
     <use xlink:href="#ArialMT-d2b9" transform="translate(383.349609 0)"/>
     <use xlink:href="#ArialMT-ae08" transform="translate(458.349609 0)"/>
     <use xlink:href="#ArialMT-bc95" transform="translate(533.349609 0)"/>
     <use xlink:href="#ArialMT-20" transform="translate(608.349609 0)"/>
     <use xlink:href="#ArialMT-ac1c" transform="translate(636.132812 0)"/>
     <use xlink:href="#ArialMT-c815" transform="translate(711.132812 0)"/>
     <use xlink:href="#ArialMT-20" transform="translate(786.132812 0)"/>
     <use xlink:href="#ArialMT-28" transform="translate(813.916016 0)"/>
     <use xlink:href="#ArialMT-b300" transform="translate(847.216797 0)"/>
     <use xlink:href="#ArialMT-c8fc" transform="translate(922.216797 0)"/>
     <use xlink:href="#ArialMT-c8fc" transform="translate(997.216797 0)"/>
     <use xlink:href="#ArialMT-29" transform="translate(1072.216797 0)"/>
    </g>
   </g>
   <g id="PathCollection_11">
    <defs>
     <path id="m66b357f7d9" d="M 0 5.700877 
C 1.51189 5.700877 2.962061 5.100197 4.031129 4.031129 
C 5.100197 2.962061 5.700877 1.51189 5.700877 0 
C 5.700877 -1.51189 5.100197 -2.962061 4.031129 -4.031129 
C 2.962061 -5.100197 1.51189 -5.700877 0 -5.700877 
C -1.51189 -5.700877 -2.962061 -5.100197 -4.031129 -4.031129 
C -5.100197 -2.962061 -5.700877 -1.51189 -5.700877 0 
C -5.700877 1.51189 -5.100197 2.962061 -4.031129 4.031129 
C -2.962061 5.100197 -1.51189 5.700877 0 5.700877 
z
" style="stroke: #4a5f7e; stroke-width: 1.8"/>
    </defs>
    <g clip-path="url(#p0723b442be)">
     <use xlink:href="#m66b357f7d9" x="259.177745" y="430.004432" style="fill: #ffffff; stroke: #4a5f7e; stroke-width: 1.8"/>
    </g>
   </g>
   <g id="text_21">
    <!-- 2026-08 -->
    <g style="fill: #6b7280" transform="translate(189.291595 432.511776) scale(0.09 -0.09)">
     <use xlink:href="#DejaVuSansMono-32"/>
     <use xlink:href="#DejaVuSansMono-30" transform="translate(60.205078 0)"/>
     <use xlink:href="#DejaVuSansMono-32" transform="translate(120.410156 0)"/>
     <use xlink:href="#DejaVuSansMono-36" transform="translate(180.615234 0)"/>
     <use xlink:href="#DejaVuSansMono-2d" transform="translate(240.820312 0)"/>
     <use xlink:href="#DejaVuSansMono-30" transform="translate(301.025391 0)"/>
     <use xlink:href="#DejaVuSansMono-38" transform="translate(361.230469 0)"/>
    </g>
   </g>
   <g id="text_22">
    <!-- 🇪🇺  EU MiCA grandfathering 종료 -->
    <g style="fill: #111418" transform="translate(284.744291 432.591932) scale(0.1 -0.1)">
     <defs>
      <path id="Arial-BoldMT-1f1ea" d="M 800 0 
L 800 4000 
L 4000 4000 
L 4000 0 
L 800 0 
z
M 900 100 
L 3900 100 
L 3900 3900 
L 900 3900 
L 900 100 
z
" transform="scale(0.015625)"/>
      <path id="Arial-BoldMT-1f1fa" d="M 800 0 
L 800 4000 
L 4000 4000 
L 4000 0 
L 800 0 
z
M 900 100 
L 3900 100 
L 3900 3900 
L 900 3900 
L 900 100 
z
" transform="scale(0.015625)"/>
      <path id="Arial-BoldMT-20" transform="scale(0.015625)"/>
      <path id="Arial-BoldMT-45" d="M 466 0 
L 466 4581 
L 3863 4581 
L 3863 3806 
L 1391 3806 
L 1391 2791 
L 3691 2791 
L 3691 2019 
L 1391 2019 
L 1391 772 
L 3950 772 
L 3950 0 
L 466 0 
z
" transform="scale(0.015625)"/>
      <path id="Arial-BoldMT-55" d="M 459 4581 
L 1384 4581 
L 1384 2100 
Q 1384 1509 1419 1334 
Q 1478 1053 1701 883 
Q 1925 713 2313 713 
Q 2706 713 2906 873 
Q 3106 1034 3147 1268 
Q 3188 1503 3188 2047 
L 3188 4581 
L 4113 4581 
L 4113 2175 
Q 4113 1350 4038 1009 
Q 3963 669 3761 434 
Q 3559 200 3221 61 
Q 2884 -78 2341 -78 
Q 1684 -78 1345 73 
Q 1006 225 809 467 
Q 613 709 550 975 
Q 459 1369 459 2138 
L 459 4581 
z
" transform="scale(0.015625)"/>
      <path id="Arial-BoldMT-4d" d="M 453 0 
L 453 4581 
L 1838 4581 
L 2669 1456 
L 3491 4581 
L 4878 4581 
L 4878 0 
L 4019 0 
L 4019 3606 
L 3109 0 
L 2219 0 
L 1313 3606 
L 1313 0 
L 453 0 
z
" transform="scale(0.015625)"/>
      <path id="Arial-BoldMT-69" d="M 459 3769 
L 459 4581 
L 1338 4581 
L 1338 3769 
L 459 3769 
z
M 459 0 
L 459 3319 
L 1338 3319 
L 1338 0 
L 459 0 
z
" transform="scale(0.015625)"/>
      <path id="Arial-BoldMT-43" d="M 3397 1684 
L 4294 1400 
Q 4088 650 3608 286 
Q 3128 -78 2391 -78 
Q 1478 -78 890 545 
Q 303 1169 303 2250 
Q 303 3394 893 4026 
Q 1484 4659 2447 4659 
Q 3288 4659 3813 4163 
Q 4125 3869 4281 3319 
L 3366 3100 
Q 3284 3456 3026 3662 
Q 2769 3869 2400 3869 
Q 1891 3869 1573 3503 
Q 1256 3138 1256 2319 
Q 1256 1450 1568 1081 
Q 1881 713 2381 713 
Q 2750 713 3015 947 
Q 3281 1181 3397 1684 
z
" transform="scale(0.015625)"/>
      <path id="Arial-BoldMT-41" d="M 4597 0 
L 3591 0 
L 3191 1041 
L 1359 1041 
L 981 0 
L 0 0 
L 1784 4581 
L 2763 4581 
L 4597 0 
z
M 2894 1813 
L 2263 3513 
L 1644 1813 
L 2894 1813 
z
" transform="scale(0.015625)"/>
      <path id="Arial-BoldMT-67" d="M 378 -219 
L 1381 -341 
Q 1406 -516 1497 -581 
Q 1622 -675 1891 -675 
Q 2234 -675 2406 -572 
Q 2522 -503 2581 -350 
Q 2622 -241 2622 53 
L 2622 538 
Q 2228 0 1628 0 
Q 959 0 569 566 
Q 263 1013 263 1678 
Q 263 2513 664 2953 
Q 1066 3394 1663 3394 
Q 2278 3394 2678 2853 
L 2678 3319 
L 3500 3319 
L 3500 341 
Q 3500 -247 3403 -537 
Q 3306 -828 3131 -993 
Q 2956 -1159 2664 -1253 
Q 2372 -1347 1925 -1347 
Q 1081 -1347 728 -1058 
Q 375 -769 375 -325 
Q 375 -281 378 -219 
z
M 1163 1728 
Q 1163 1200 1367 954 
Q 1572 709 1872 709 
Q 2194 709 2416 961 
Q 2638 1213 2638 1706 
Q 2638 2222 2425 2472 
Q 2213 2722 1888 2722 
Q 1572 2722 1367 2476 
Q 1163 2231 1163 1728 
z
" transform="scale(0.015625)"/>
      <path id="Arial-BoldMT-72" d="M 1300 0 
L 422 0 
L 422 3319 
L 1238 3319 
L 1238 2847 
Q 1447 3181 1614 3287 
Q 1781 3394 1994 3394 
Q 2294 3394 2572 3228 
L 2300 2463 
Q 2078 2606 1888 2606 
Q 1703 2606 1575 2504 
Q 1447 2403 1373 2137 
Q 1300 1872 1300 1025 
L 1300 0 
z
" transform="scale(0.015625)"/>
      <path id="Arial-BoldMT-61" d="M 1116 2306 
L 319 2450 
Q 453 2931 781 3162 
Q 1109 3394 1756 3394 
Q 2344 3394 2631 3255 
Q 2919 3116 3036 2902 
Q 3153 2688 3153 2116 
L 3144 1091 
Q 3144 653 3186 445 
Q 3228 238 3344 0 
L 2475 0 
Q 2441 88 2391 259 
Q 2369 338 2359 363 
Q 2134 144 1878 34 
Q 1622 -75 1331 -75 
Q 819 -75 523 203 
Q 228 481 228 906 
Q 228 1188 362 1408 
Q 497 1628 739 1745 
Q 981 1863 1438 1950 
Q 2053 2066 2291 2166 
L 2291 2253 
Q 2291 2506 2166 2614 
Q 2041 2722 1694 2722 
Q 1459 2722 1328 2630 
Q 1197 2538 1116 2306 
z
M 2291 1594 
Q 2122 1538 1756 1459 
Q 1391 1381 1278 1306 
Q 1106 1184 1106 997 
Q 1106 813 1243 678 
Q 1381 544 1594 544 
Q 1831 544 2047 700 
Q 2206 819 2256 991 
Q 2291 1103 2291 1419 
L 2291 1594 
z
" transform="scale(0.015625)"/>
      <path id="Arial-BoldMT-6e" d="M 3478 0 
L 2600 0 
L 2600 1694 
Q 2600 2231 2544 2389 
Q 2488 2547 2361 2634 
Q 2234 2722 2056 2722 
Q 1828 2722 1647 2597 
Q 1466 2472 1398 2265 
Q 1331 2059 1331 1503 
L 1331 0 
L 453 0 
L 453 3319 
L 1269 3319 
L 1269 2831 
Q 1703 3394 2363 3394 
Q 2653 3394 2893 3289 
Q 3134 3184 3257 3021 
Q 3381 2859 3429 2653 
Q 3478 2447 3478 2063 
L 3478 0 
z
" transform="scale(0.015625)"/>
      <path id="Arial-BoldMT-64" d="M 3503 0 
L 2688 0 
L 2688 488 
Q 2484 203 2207 64 
Q 1931 -75 1650 -75 
Q 1078 -75 670 386 
Q 263 847 263 1672 
Q 263 2516 659 2955 
Q 1056 3394 1663 3394 
Q 2219 3394 2625 2931 
L 2625 4581 
L 3503 4581 
L 3503 0 
z
M 1159 1731 
Q 1159 1200 1306 963 
Q 1519 619 1900 619 
Q 2203 619 2415 876 
Q 2628 1134 2628 1647 
Q 2628 2219 2422 2470 
Q 2216 2722 1894 2722 
Q 1581 2722 1370 2473 
Q 1159 2225 1159 1731 
z
" transform="scale(0.015625)"/>
      <path id="Arial-BoldMT-66" d="M 75 3319 
L 563 3319 
L 563 3569 
Q 563 3988 652 4194 
Q 741 4400 980 4529 
Q 1219 4659 1584 4659 
Q 1959 4659 2319 4547 
L 2200 3934 
Q 1991 3984 1797 3984 
Q 1606 3984 1523 3895 
Q 1441 3806 1441 3553 
L 1441 3319 
L 2097 3319 
L 2097 2628 
L 1441 2628 
L 1441 0 
L 563 0 
L 563 2628 
L 75 2628 
L 75 3319 
z
" transform="scale(0.015625)"/>
      <path id="Arial-BoldMT-74" d="M 1981 3319 
L 1981 2619 
L 1381 2619 
L 1381 1281 
Q 1381 875 1398 808 
Q 1416 741 1477 697 
Q 1538 653 1625 653 
Q 1747 653 1978 738 
L 2053 56 
Q 1747 -75 1359 -75 
Q 1122 -75 931 4 
Q 741 84 652 211 
Q 563 338 528 553 
Q 500 706 500 1172 
L 500 2619 
L 97 2619 
L 97 3319 
L 500 3319 
L 500 3978 
L 1381 4491 
L 1381 3319 
L 1981 3319 
z
" transform="scale(0.015625)"/>
      <path id="Arial-BoldMT-68" d="M 1334 4581 
L 1334 2897 
Q 1759 3394 2350 3394 
Q 2653 3394 2897 3281 
Q 3141 3169 3264 2994 
Q 3388 2819 3433 2606 
Q 3478 2394 3478 1947 
L 3478 0 
L 2600 0 
L 2600 1753 
Q 2600 2275 2550 2415 
Q 2500 2556 2373 2639 
Q 2247 2722 2056 2722 
Q 1838 2722 1666 2615 
Q 1494 2509 1414 2295 
Q 1334 2081 1334 1663 
L 1334 0 
L 456 0 
L 456 4581 
L 1334 4581 
z
" transform="scale(0.015625)"/>
      <path id="Arial-BoldMT-65" d="M 2381 1056 
L 3256 909 
Q 3088 428 2723 176 
Q 2359 -75 1813 -75 
Q 947 -75 531 491 
Q 203 944 203 1634 
Q 203 2459 634 2926 
Q 1066 3394 1725 3394 
Q 2466 3394 2894 2905 
Q 3322 2416 3303 1406 
L 1103 1406 
Q 1113 1016 1316 798 
Q 1519 581 1822 581 
Q 2028 581 2168 693 
Q 2309 806 2381 1056 
z
M 2431 1944 
Q 2422 2325 2234 2523 
Q 2047 2722 1778 2722 
Q 1491 2722 1303 2513 
Q 1116 2303 1119 1944 
L 2431 1944 
z
" transform="scale(0.015625)"/>
      <path id="Arial-BoldMT-c885" d="M 800 0 
L 800 4000 
L 4000 4000 
L 4000 0 
L 800 0 
z
M 900 100 
L 3900 100 
L 3900 3900 
L 900 3900 
L 900 100 
z
" transform="scale(0.015625)"/>
      <path id="Arial-BoldMT-b8cc" d="M 800 0 
L 800 4000 
L 4000 4000 
L 4000 0 
L 800 0 
z
M 900 100 
L 3900 100 
L 3900 3900 
L 900 3900 
L 900 100 
z
" transform="scale(0.015625)"/>
     </defs>
     <use xlink:href="#Arial-BoldMT-1f1ea"/>
     <use xlink:href="#Arial-BoldMT-1f1fa" transform="translate(75 0)"/>
     <use xlink:href="#Arial-BoldMT-20" transform="translate(150 0)"/>
     <use xlink:href="#Arial-BoldMT-20" transform="translate(177.783203 0)"/>
     <use xlink:href="#Arial-BoldMT-45" transform="translate(205.566406 0)"/>
     <use xlink:href="#Arial-BoldMT-55" transform="translate(272.265625 0)"/>
     <use xlink:href="#Arial-BoldMT-20" transform="translate(344.482422 0)"/>
     <use xlink:href="#Arial-BoldMT-4d" transform="translate(372.265625 0)"/>
     <use xlink:href="#Arial-BoldMT-69" transform="translate(455.566406 0)"/>
     <use xlink:href="#Arial-BoldMT-43" transform="translate(483.349609 0)"/>
     <use xlink:href="#Arial-BoldMT-41" transform="translate(555.566406 0)"/>
     <use xlink:href="#Arial-BoldMT-20" transform="translate(624.033203 0)"/>
     <use xlink:href="#Arial-BoldMT-67" transform="translate(651.816406 0)"/>
     <use xlink:href="#Arial-BoldMT-72" transform="translate(712.900391 0)"/>
     <use xlink:href="#Arial-BoldMT-61" transform="translate(751.816406 0)"/>
     <use xlink:href="#Arial-BoldMT-6e" transform="translate(807.431641 0)"/>
     <use xlink:href="#Arial-BoldMT-64" transform="translate(868.515625 0)"/>
     <use xlink:href="#Arial-BoldMT-66" transform="translate(929.599609 0)"/>
     <use xlink:href="#Arial-BoldMT-61" transform="translate(962.900391 0)"/>
     <use xlink:href="#Arial-BoldMT-74" transform="translate(1018.515625 0)"/>
     <use xlink:href="#Arial-BoldMT-68" transform="translate(1051.816406 0)"/>
     <use xlink:href="#Arial-BoldMT-65" transform="translate(1112.900391 0)"/>
     <use xlink:href="#Arial-BoldMT-72" transform="translate(1168.515625 0)"/>
     <use xlink:href="#Arial-BoldMT-69" transform="translate(1207.431641 0)"/>
     <use xlink:href="#Arial-BoldMT-6e" transform="translate(1235.214844 0)"/>
     <use xlink:href="#Arial-BoldMT-67" transform="translate(1296.298828 0)"/>
     <use xlink:href="#Arial-BoldMT-20" transform="translate(1357.382812 0)"/>
     <use xlink:href="#Arial-BoldMT-c885" transform="translate(1385.166016 0)"/>
     <use xlink:href="#Arial-BoldMT-b8cc" transform="translate(1460.166016 0)"/>
    </g>
   </g>
   <g id="PathCollection_12">
    <defs>
     <path id="m995f596f76" d="M 0 5.700877 
C 1.51189 5.700877 2.962061 5.100197 4.031129 4.031129 
C 5.100197 2.962061 5.700877 1.51189 5.700877 0 
C 5.700877 -1.51189 5.100197 -2.962061 4.031129 -4.031129 
C 2.962061 -5.100197 1.51189 -5.700877 0 -5.700877 
C -1.51189 -5.700877 -2.962061 -5.100197 -4.031129 -4.031129 
C -5.100197 -2.962061 -5.700877 -1.51189 -5.700877 0 
C -5.700877 1.51189 -5.100197 2.962061 -4.031129 4.031129 
C -2.962061 5.100197 -1.51189 5.700877 0 5.700877 
z
" style="stroke: #8c6b2f; stroke-width: 1.8"/>
    </defs>
    <g clip-path="url(#p0723b442be)">
     <use xlink:href="#m995f596f76" x="259.177745" y="451.216258" style="fill: #ffffff; stroke: #8c6b2f; stroke-width: 1.8"/>
    </g>
   </g>
   <g id="text_23">
    <!-- 2027-01 -->
    <g style="fill: #6b7280" transform="translate(189.291595 453.723602) scale(0.09 -0.09)">
     <use xlink:href="#DejaVuSansMono-32"/>
     <use xlink:href="#DejaVuSansMono-30" transform="translate(60.205078 0)"/>
     <use xlink:href="#DejaVuSansMono-32" transform="translate(120.410156 0)"/>
     <use xlink:href="#DejaVuSansMono-37" transform="translate(180.615234 0)"/>
     <use xlink:href="#DejaVuSansMono-2d" transform="translate(240.820312 0)"/>
     <use xlink:href="#DejaVuSansMono-30" transform="translate(301.025391 0)"/>
     <use xlink:href="#DejaVuSansMono-31" transform="translate(361.230469 0)"/>
    </g>
   </g>
   <g id="text_24">
    <!-- 🇺🇸  GENIUS Act 전면 시행 -->
    <g style="fill: #111418" transform="translate(284.744291 453.808446) scale(0.1 -0.1)">
     <defs>
      <path id="Arial-BoldMT-1f1f8" d="M 800 0 
L 800 4000 
L 4000 4000 
L 4000 0 
L 800 0 
z
M 900 100 
L 3900 100 
L 3900 3900 
L 900 3900 
L 900 100 
z
" transform="scale(0.015625)"/>
      <path id="Arial-BoldMT-47" d="M 2597 1684 
L 2597 2456 
L 4591 2456 
L 4591 631 
Q 4300 350 3748 136 
Q 3197 -78 2631 -78 
Q 1913 -78 1378 223 
Q 844 525 575 1086 
Q 306 1647 306 2306 
Q 306 3022 606 3578 
Q 906 4134 1484 4431 
Q 1925 4659 2581 4659 
Q 3434 4659 3914 4301 
Q 4394 3944 4531 3313 
L 3613 3141 
Q 3516 3478 3248 3673 
Q 2981 3869 2581 3869 
Q 1975 3869 1617 3484 
Q 1259 3100 1259 2344 
Q 1259 1528 1621 1120 
Q 1984 713 2572 713 
Q 2863 713 3155 827 
Q 3447 941 3656 1103 
L 3656 1684 
L 2597 1684 
z
" transform="scale(0.015625)"/>
      <path id="Arial-BoldMT-4e" d="M 475 0 
L 475 4581 
L 1375 4581 
L 3250 1522 
L 3250 4581 
L 4109 4581 
L 4109 0 
L 3181 0 
L 1334 2988 
L 1334 0 
L 475 0 
z
" transform="scale(0.015625)"/>
      <path id="Arial-BoldMT-49" d="M 438 0 
L 438 4581 
L 1363 4581 
L 1363 0 
L 438 0 
z
" transform="scale(0.015625)"/>
      <path id="Arial-BoldMT-53" d="M 231 1491 
L 1131 1578 
Q 1213 1125 1461 912 
Q 1709 700 2131 700 
Q 2578 700 2804 889 
Q 3031 1078 3031 1331 
Q 3031 1494 2936 1608 
Q 2841 1722 2603 1806 
Q 2441 1863 1863 2006 
Q 1119 2191 819 2459 
Q 397 2838 397 3381 
Q 397 3731 595 4036 
Q 794 4341 1167 4500 
Q 1541 4659 2069 4659 
Q 2931 4659 3367 4281 
Q 3803 3903 3825 3272 
L 2900 3231 
Q 2841 3584 2645 3739 
Q 2450 3894 2059 3894 
Q 1656 3894 1428 3728 
Q 1281 3622 1281 3444 
Q 1281 3281 1419 3166 
Q 1594 3019 2269 2859 
Q 2944 2700 3267 2529 
Q 3591 2359 3773 2064 
Q 3956 1769 3956 1334 
Q 3956 941 3737 597 
Q 3519 253 3119 86 
Q 2719 -81 2122 -81 
Q 1253 -81 787 320 
Q 322 722 231 1491 
z
" transform="scale(0.015625)"/>
      <path id="Arial-BoldMT-63" d="M 3353 2338 
L 2488 2181 
Q 2444 2441 2289 2572 
Q 2134 2703 1888 2703 
Q 1559 2703 1364 2476 
Q 1169 2250 1169 1719 
Q 1169 1128 1367 884 
Q 1566 641 1900 641 
Q 2150 641 2309 783 
Q 2469 925 2534 1272 
L 3397 1125 
Q 3263 531 2881 228 
Q 2500 -75 1859 -75 
Q 1131 -75 698 384 
Q 266 844 266 1656 
Q 266 2478 700 2936 
Q 1134 3394 1875 3394 
Q 2481 3394 2839 3133 
Q 3197 2872 3353 2338 
z
" transform="scale(0.015625)"/>
      <path id="Arial-BoldMT-c804" d="M 800 0 
L 800 4000 
L 4000 4000 
L 4000 0 
L 800 0 
z
M 900 100 
L 3900 100 
L 3900 3900 
L 900 3900 
L 900 100 
z
" transform="scale(0.015625)"/>
      <path id="Arial-BoldMT-ba74" d="M 800 0 
L 800 4000 
L 4000 4000 
L 4000 0 
L 800 0 
z
M 900 100 
L 3900 100 
L 3900 3900 
L 900 3900 
L 900 100 
z
" transform="scale(0.015625)"/>
      <path id="Arial-BoldMT-c2dc" d="M 800 0 
L 800 4000 
L 4000 4000 
L 4000 0 
L 800 0 
z
M 900 100 
L 3900 100 
L 3900 3900 
L 900 3900 
L 900 100 
z
" transform="scale(0.015625)"/>
      <path id="Arial-BoldMT-d589" d="M 800 0 
L 800 4000 
L 4000 4000 
L 4000 0 
L 800 0 
z
M 900 100 
L 3900 100 
L 3900 3900 
L 900 3900 
L 900 100 
z
" transform="scale(0.015625)"/>
     </defs>
     <use xlink:href="#Arial-BoldMT-1f1fa"/>
     <use xlink:href="#Arial-BoldMT-1f1f8" transform="translate(75 0)"/>
     <use xlink:href="#Arial-BoldMT-20" transform="translate(150 0)"/>
     <use xlink:href="#Arial-BoldMT-20" transform="translate(177.783203 0)"/>
     <use xlink:href="#Arial-BoldMT-47" transform="translate(205.566406 0)"/>
     <use xlink:href="#Arial-BoldMT-45" transform="translate(283.349609 0)"/>
     <use xlink:href="#Arial-BoldMT-4e" transform="translate(350.048828 0)"/>
     <use xlink:href="#Arial-BoldMT-49" transform="translate(422.265625 0)"/>
     <use xlink:href="#Arial-BoldMT-55" transform="translate(450.048828 0)"/>
     <use xlink:href="#Arial-BoldMT-53" transform="translate(522.265625 0)"/>
     <use xlink:href="#Arial-BoldMT-20" transform="translate(588.964844 0)"/>
     <use xlink:href="#Arial-BoldMT-41" transform="translate(612.998047 0)"/>
     <use xlink:href="#Arial-BoldMT-63" transform="translate(685.214844 0)"/>
     <use xlink:href="#Arial-BoldMT-74" transform="translate(740.830078 0)"/>
     <use xlink:href="#Arial-BoldMT-20" transform="translate(774.130859 0)"/>
     <use xlink:href="#Arial-BoldMT-c804" transform="translate(801.914062 0)"/>
     <use xlink:href="#Arial-BoldMT-ba74" transform="translate(876.914062 0)"/>
     <use xlink:href="#Arial-BoldMT-20" transform="translate(951.914062 0)"/>
     <use xlink:href="#Arial-BoldMT-c2dc" transform="translate(979.697266 0)"/>
     <use xlink:href="#Arial-BoldMT-d589" transform="translate(1054.697266 0)"/>
    </g>
   </g>
   <g id="PathCollection_13">
    <g clip-path="url(#p0723b442be)">
     <use xlink:href="#m66b357f7d9" x="259.177745" y="483.033997" style="fill: #ffffff; stroke: #4a5f7e; stroke-width: 1.8"/>
    </g>
   </g>
   <g id="text_25">
    <!-- 2027-08 -->
    <g style="fill: #6b7280" transform="translate(189.291595 485.541341) scale(0.09 -0.09)">
     <use xlink:href="#DejaVuSansMono-32"/>
     <use xlink:href="#DejaVuSansMono-30" transform="translate(60.205078 0)"/>
     <use xlink:href="#DejaVuSansMono-32" transform="translate(120.410156 0)"/>
     <use xlink:href="#DejaVuSansMono-37" transform="translate(180.615234 0)"/>
     <use xlink:href="#DejaVuSansMono-2d" transform="translate(240.820312 0)"/>
     <use xlink:href="#DejaVuSansMono-30" transform="translate(301.025391 0)"/>
     <use xlink:href="#DejaVuSansMono-38" transform="translate(361.230469 0)"/>
    </g>
   </g>
   <g id="text_26">
    <!-- 🇪🇺  EU AMLR + AMLD6 적용 -->
    <g style="fill: #111418" transform="translate(284.744291 485.626185) scale(0.1 -0.1)">
     <defs>
      <path id="Arial-BoldMT-4c" d="M 491 0 
L 491 4544 
L 1416 4544 
L 1416 772 
L 3716 772 
L 3716 0 
L 491 0 
z
" transform="scale(0.015625)"/>
      <path id="Arial-BoldMT-52" d="M 469 0 
L 469 4581 
L 2416 4581 
Q 3150 4581 3483 4457 
Q 3816 4334 4016 4018 
Q 4216 3703 4216 3297 
Q 4216 2781 3912 2445 
Q 3609 2109 3006 2022 
Q 3306 1847 3501 1637 
Q 3697 1428 4028 894 
L 4588 0 
L 3481 0 
L 2813 997 
Q 2456 1531 2325 1670 
Q 2194 1809 2047 1861 
Q 1900 1913 1581 1913 
L 1394 1913 
L 1394 0 
L 469 0 
z
M 1394 2644 
L 2078 2644 
Q 2744 2644 2909 2700 
Q 3075 2756 3169 2893 
Q 3263 3031 3263 3238 
Q 3263 3469 3139 3611 
Q 3016 3753 2791 3791 
Q 2678 3806 2116 3806 
L 1394 3806 
L 1394 2644 
z
" transform="scale(0.015625)"/>
      <path id="Arial-BoldMT-2b" d="M 1466 659 
L 1466 1850 
L 266 1850 
L 266 2672 
L 1466 2672 
L 1466 3863 
L 2266 3863 
L 2266 2672 
L 3469 2672 
L 3469 1850 
L 2266 1850 
L 2266 659 
L 1466 659 
z
" transform="scale(0.015625)"/>
      <path id="Arial-BoldMT-44" d="M 463 4581 
L 2153 4581 
Q 2725 4581 3025 4494 
Q 3428 4375 3715 4072 
Q 4003 3769 4153 3330 
Q 4303 2891 4303 2247 
Q 4303 1681 4163 1272 
Q 3991 772 3672 463 
Q 3431 228 3022 97 
Q 2716 0 2203 0 
L 463 0 
L 463 4581 
z
M 1388 3806 
L 1388 772 
L 2078 772 
Q 2466 772 2638 816 
Q 2863 872 3011 1006 
Q 3159 1141 3253 1448 
Q 3347 1756 3347 2288 
Q 3347 2819 3253 3103 
Q 3159 3388 2990 3547 
Q 2822 3706 2563 3763 
Q 2369 3806 1803 3806 
L 1388 3806 
z
" transform="scale(0.015625)"/>
      <path id="Arial-BoldMT-36" d="M 3247 3459 
L 2397 3366 
Q 2366 3628 2234 3753 
Q 2103 3878 1894 3878 
Q 1616 3878 1423 3628 
Q 1231 3378 1181 2588 
Q 1509 2975 1997 2975 
Q 2547 2975 2939 2556 
Q 3331 2138 3331 1475 
Q 3331 772 2918 347 
Q 2506 -78 1859 -78 
Q 1166 -78 719 461 
Q 272 1000 272 2228 
Q 272 3488 737 4044 
Q 1203 4600 1947 4600 
Q 2469 4600 2811 4308 
Q 3153 4016 3247 3459 
z
M 1256 1544 
Q 1256 1116 1453 883 
Q 1650 650 1903 650 
Q 2147 650 2309 840 
Q 2472 1031 2472 1466 
Q 2472 1913 2297 2120 
Q 2122 2328 1859 2328 
Q 1606 2328 1431 2129 
Q 1256 1931 1256 1544 
z
" transform="scale(0.015625)"/>
      <path id="Arial-BoldMT-c801" d="M 800 0 
L 800 4000 
L 4000 4000 
L 4000 0 
L 800 0 
z
M 900 100 
L 3900 100 
L 3900 3900 
L 900 3900 
L 900 100 
z
" transform="scale(0.015625)"/>
      <path id="Arial-BoldMT-c6a9" d="M 800 0 
L 800 4000 
L 4000 4000 
L 4000 0 
L 800 0 
z
M 900 100 
L 3900 100 
L 3900 3900 
L 900 3900 
L 900 100 
z
" transform="scale(0.015625)"/>
     </defs>
     <use xlink:href="#Arial-BoldMT-1f1ea"/>
     <use xlink:href="#Arial-BoldMT-1f1fa" transform="translate(75 0)"/>
     <use xlink:href="#Arial-BoldMT-20" transform="translate(150 0)"/>
     <use xlink:href="#Arial-BoldMT-20" transform="translate(177.783203 0)"/>
     <use xlink:href="#Arial-BoldMT-45" transform="translate(205.566406 0)"/>
     <use xlink:href="#Arial-BoldMT-55" transform="translate(272.265625 0)"/>
     <use xlink:href="#Arial-BoldMT-20" transform="translate(344.482422 0)"/>
     <use xlink:href="#Arial-BoldMT-41" transform="translate(368.515625 0)"/>
     <use xlink:href="#Arial-BoldMT-4d" transform="translate(440.732422 0)"/>
     <use xlink:href="#Arial-BoldMT-4c" transform="translate(524.033203 0)"/>
     <use xlink:href="#Arial-BoldMT-52" transform="translate(585.117188 0)"/>
     <use xlink:href="#Arial-BoldMT-20" transform="translate(657.333984 0)"/>
     <use xlink:href="#Arial-BoldMT-2b" transform="translate(685.117188 0)"/>
     <use xlink:href="#Arial-BoldMT-20" transform="translate(743.515625 0)"/>
     <use xlink:href="#Arial-BoldMT-41" transform="translate(767.548828 0)"/>
     <use xlink:href="#Arial-BoldMT-4d" transform="translate(839.765625 0)"/>
     <use xlink:href="#Arial-BoldMT-4c" transform="translate(923.066406 0)"/>
     <use xlink:href="#Arial-BoldMT-44" transform="translate(984.150391 0)"/>
     <use xlink:href="#Arial-BoldMT-36" transform="translate(1056.367188 0)"/>
     <use xlink:href="#Arial-BoldMT-20" transform="translate(1111.982422 0)"/>
     <use xlink:href="#Arial-BoldMT-c801" transform="translate(1139.765625 0)"/>
     <use xlink:href="#Arial-BoldMT-c6a9" transform="translate(1214.765625 0)"/>
    </g>
   </g>
   <g id="PathCollection_14">
    <g clip-path="url(#p0723b442be)">
     <use xlink:href="#m66b357f7d9" x="259.177745" y="504.245823" style="fill: #ffffff; stroke: #4a5f7e; stroke-width: 1.8"/>
    </g>
   </g>
   <g id="text_27">
    <!-- 2028-01 -->
    <g style="fill: #6b7280" transform="translate(189.291595 506.753167) scale(0.09 -0.09)">
     <use xlink:href="#DejaVuSansMono-32"/>
     <use xlink:href="#DejaVuSansMono-30" transform="translate(60.205078 0)"/>
     <use xlink:href="#DejaVuSansMono-32" transform="translate(120.410156 0)"/>
     <use xlink:href="#DejaVuSansMono-38" transform="translate(180.615234 0)"/>
     <use xlink:href="#DejaVuSansMono-2d" transform="translate(240.820312 0)"/>
     <use xlink:href="#DejaVuSansMono-30" transform="translate(301.025391 0)"/>
     <use xlink:href="#DejaVuSansMono-31" transform="translate(361.230469 0)"/>
    </g>
   </g>
   <g id="text_28">
    <!-- 🇪🇺  EU AMLA 직접 감독 개시 -->
    <g style="fill: #111418" transform="translate(284.744291 506.838011) scale(0.1 -0.1)">
     <defs>
      <path id="Arial-BoldMT-c9c1" d="M 800 0 
L 800 4000 
L 4000 4000 
L 4000 0 
L 800 0 
z
M 900 100 
L 3900 100 
L 3900 3900 
L 900 3900 
L 900 100 
z
" transform="scale(0.015625)"/>
      <path id="Arial-BoldMT-c811" d="M 800 0 
L 800 4000 
L 4000 4000 
L 4000 0 
L 800 0 
z
M 900 100 
L 3900 100 
L 3900 3900 
L 900 3900 
L 900 100 
z
" transform="scale(0.015625)"/>
      <path id="Arial-BoldMT-ac10" d="M 800 0 
L 800 4000 
L 4000 4000 
L 4000 0 
L 800 0 
z
M 900 100 
L 3900 100 
L 3900 3900 
L 900 3900 
L 900 100 
z
" transform="scale(0.015625)"/>
      <path id="Arial-BoldMT-b3c5" d="M 800 0 
L 800 4000 
L 4000 4000 
L 4000 0 
L 800 0 
z
M 900 100 
L 3900 100 
L 3900 3900 
L 900 3900 
L 900 100 
z
" transform="scale(0.015625)"/>
      <path id="Arial-BoldMT-ac1c" d="M 800 0 
L 800 4000 
L 4000 4000 
L 4000 0 
L 800 0 
z
M 900 100 
L 3900 100 
L 3900 3900 
L 900 3900 
L 900 100 
z
" transform="scale(0.015625)"/>
     </defs>
     <use xlink:href="#Arial-BoldMT-1f1ea"/>
     <use xlink:href="#Arial-BoldMT-1f1fa" transform="translate(75 0)"/>
     <use xlink:href="#Arial-BoldMT-20" transform="translate(150 0)"/>
     <use xlink:href="#Arial-BoldMT-20" transform="translate(177.783203 0)"/>
     <use xlink:href="#Arial-BoldMT-45" transform="translate(205.566406 0)"/>
     <use xlink:href="#Arial-BoldMT-55" transform="translate(272.265625 0)"/>
     <use xlink:href="#Arial-BoldMT-20" transform="translate(344.482422 0)"/>
     <use xlink:href="#Arial-BoldMT-41" transform="translate(368.515625 0)"/>
     <use xlink:href="#Arial-BoldMT-4d" transform="translate(440.732422 0)"/>
     <use xlink:href="#Arial-BoldMT-4c" transform="translate(524.033203 0)"/>
     <use xlink:href="#Arial-BoldMT-41" transform="translate(585.117188 0)"/>
     <use xlink:href="#Arial-BoldMT-20" transform="translate(653.583984 0)"/>
     <use xlink:href="#Arial-BoldMT-c9c1" transform="translate(681.367188 0)"/>
     <use xlink:href="#Arial-BoldMT-c811" transform="translate(756.367188 0)"/>
     <use xlink:href="#Arial-BoldMT-20" transform="translate(831.367188 0)"/>
     <use xlink:href="#Arial-BoldMT-ac10" transform="translate(859.150391 0)"/>
     <use xlink:href="#Arial-BoldMT-b3c5" transform="translate(934.150391 0)"/>
     <use xlink:href="#Arial-BoldMT-20" transform="translate(1009.150391 0)"/>
     <use xlink:href="#Arial-BoldMT-ac1c" transform="translate(1036.933594 0)"/>
     <use xlink:href="#Arial-BoldMT-c2dc" transform="translate(1111.933594 0)"/>
    </g>
   </g>
   <g id="PathCollection_15">
    <defs>
     <path id="m135aef2371" d="M 0 5.700877 
C 1.51189 5.700877 2.962061 5.100197 4.031129 4.031129 
C 5.100197 2.962061 5.700877 1.51189 5.700877 0 
C 5.700877 -1.51189 5.100197 -2.962061 4.031129 -4.031129 
C 2.962061 -5.100197 1.51189 -5.700877 0 -5.700877 
C -1.51189 -5.700877 -2.962061 -5.100197 -4.031129 -4.031129 
C -5.100197 -2.962061 -5.700877 -1.51189 -5.700877 0 
C -5.700877 1.51189 -5.100197 2.962061 -4.031129 4.031129 
C -2.962061 5.100197 -1.51189 5.700877 0 5.700877 
z
" style="stroke: #c9a646; stroke-width: 1.8"/>
    </defs>
    <g clip-path="url(#p0723b442be)">
     <use xlink:href="#m135aef2371" x="259.177745" y="611.365545" style="fill: #ffffff; stroke: #c9a646; stroke-width: 1.8"/>
    </g>
   </g>
   <g id="text_29">
    <!-- 2030-01 -->
    <g style="fill: #6b7280" transform="translate(189.291595 613.872889) scale(0.09 -0.09)">
     <defs>
      <path id="DejaVuSansMono-33" d="M 2425 2497 
Q 2884 2375 3128 2064 
Q 3372 1753 3372 1288 
Q 3372 644 2939 276 
Q 2506 -91 1741 -91 
Q 1419 -91 1084 -31 
Q 750 28 428 141 
L 428 769 
Q 747 603 1056 522 
Q 1366 441 1672 441 
Q 2191 441 2469 675 
Q 2747 909 2747 1350 
Q 2747 1756 2469 1995 
Q 2191 2234 1716 2234 
L 1234 2234 
L 1234 2753 
L 1716 2753 
Q 2150 2753 2394 2943 
Q 2638 3134 2638 3475 
Q 2638 3834 2411 4026 
Q 2184 4219 1766 4219 
Q 1488 4219 1191 4156 
Q 894 4094 569 3969 
L 569 4550 
Q 947 4650 1242 4700 
Q 1538 4750 1766 4750 
Q 2447 4750 2855 4408 
Q 3263 4066 3263 3500 
Q 3263 3116 3048 2859 
Q 2834 2603 2425 2497 
z
" transform="scale(0.015625)"/>
     </defs>
     <use xlink:href="#DejaVuSansMono-32"/>
     <use xlink:href="#DejaVuSansMono-30" transform="translate(60.205078 0)"/>
     <use xlink:href="#DejaVuSansMono-33" transform="translate(120.410156 0)"/>
     <use xlink:href="#DejaVuSansMono-30" transform="translate(180.615234 0)"/>
     <use xlink:href="#DejaVuSansMono-2d" transform="translate(240.820312 0)"/>
     <use xlink:href="#DejaVuSansMono-30" transform="translate(301.025391 0)"/>
     <use xlink:href="#DejaVuSansMono-31" transform="translate(361.230469 0)"/>
    </g>
   </g>
   <g id="text_30">
    <!-- 🌍  FATF R.16 발효 -->
    <g style="fill: #111418" transform="translate(284.744291 613.957733) scale(0.1 -0.1)">
     <defs>
      <path id="Arial-BoldMT-1f30d" d="M 800 0 
L 800 4000 
L 4000 4000 
L 4000 0 
L 800 0 
z
M 900 100 
L 3900 100 
L 3900 3900 
L 900 3900 
L 900 100 
z
" transform="scale(0.015625)"/>
      <path id="Arial-BoldMT-46" d="M 472 0 
L 472 4581 
L 3613 4581 
L 3613 3806 
L 1397 3806 
L 1397 2722 
L 3309 2722 
L 3309 1947 
L 1397 1947 
L 1397 0 
L 472 0 
z
" transform="scale(0.015625)"/>
      <path id="Arial-BoldMT-54" d="M 1497 0 
L 1497 3806 
L 138 3806 
L 138 4581 
L 3778 4581 
L 3778 3806 
L 2422 3806 
L 2422 0 
L 1497 0 
z
" transform="scale(0.015625)"/>
      <path id="Arial-BoldMT-2e" d="M 459 0 
L 459 878 
L 1338 878 
L 1338 0 
L 459 0 
z
" transform="scale(0.015625)"/>
      <path id="Arial-BoldMT-31" d="M 2519 0 
L 1641 0 
L 1641 3309 
Q 1159 2859 506 2644 
L 506 3441 
Q 850 3553 1253 3867 
Q 1656 4181 1806 4600 
L 2519 4600 
L 2519 0 
z
" transform="scale(0.015625)"/>
      <path id="Arial-BoldMT-bc1c" d="M 800 0 
L 800 4000 
L 4000 4000 
L 4000 0 
L 800 0 
z
M 900 100 
L 3900 100 
L 3900 3900 
L 900 3900 
L 900 100 
z
" transform="scale(0.015625)"/>
      <path id="Arial-BoldMT-d6a8" d="M 800 0 
L 800 4000 
L 4000 4000 
L 4000 0 
L 800 0 
z
M 900 100 
L 3900 100 
L 3900 3900 
L 900 3900 
L 900 100 
z
" transform="scale(0.015625)"/>
     </defs>
     <use xlink:href="#Arial-BoldMT-1f30d"/>
     <use xlink:href="#Arial-BoldMT-20" transform="translate(75 0)"/>
     <use xlink:href="#Arial-BoldMT-20" transform="translate(102.783203 0)"/>
     <use xlink:href="#Arial-BoldMT-46" transform="translate(130.566406 0)"/>
     <use xlink:href="#Arial-BoldMT-41" transform="translate(186.150391 0)"/>
     <use xlink:href="#Arial-BoldMT-54" transform="translate(250.992188 0)"/>
     <use xlink:href="#Arial-BoldMT-46" transform="translate(312.076172 0)"/>
     <use xlink:href="#Arial-BoldMT-20" transform="translate(373.160156 0)"/>
     <use xlink:href="#Arial-BoldMT-52" transform="translate(400.943359 0)"/>
     <use xlink:href="#Arial-BoldMT-2e" transform="translate(473.160156 0)"/>
     <use xlink:href="#Arial-BoldMT-31" transform="translate(500.943359 0)"/>
     <use xlink:href="#Arial-BoldMT-36" transform="translate(556.558594 0)"/>
     <use xlink:href="#Arial-BoldMT-20" transform="translate(612.173828 0)"/>
     <use xlink:href="#Arial-BoldMT-bc1c" transform="translate(639.957031 0)"/>
     <use xlink:href="#Arial-BoldMT-d6a8" transform="translate(714.957031 0)"/>
    </g>
   </g>
   <g id="text_31">
    <!--   ← 오늘 (2026-04) -->
    <g style="fill: #8c6b2f" transform="translate(361.443927 411.651652) scale(0.09 -0.09)">
     <defs>
      <path id="Arial-BoldMT-2190" d="M 1538 2738 
L 1775 2738 
Q 1591 2369 1497 2220 
Q 1403 2072 1166 1772 
L 6150 1772 
L 6150 1456 
L 1166 1456 
Q 1491 1119 1784 491 
L 1541 491 
Q 1138 941 847 1173 
Q 556 1406 247 1556 
L 247 1697 
Q 519 1813 822 2050 
Q 1125 2288 1538 2738 
z
" transform="scale(0.015625)"/>
      <path id="Arial-BoldMT-c624" d="M 800 0 
L 800 4000 
L 4000 4000 
L 4000 0 
L 800 0 
z
M 900 100 
L 3900 100 
L 3900 3900 
L 900 3900 
L 900 100 
z
" transform="scale(0.015625)"/>
      <path id="Arial-BoldMT-b298" d="M 800 0 
L 800 4000 
L 4000 4000 
L 4000 0 
L 800 0 
z
M 900 100 
L 3900 100 
L 3900 3900 
L 900 3900 
L 900 100 
z
" transform="scale(0.015625)"/>
      <path id="Arial-BoldMT-28" d="M 1916 -1347 
L 1313 -1347 
Q 834 -625 584 153 
Q 334 931 334 1659 
Q 334 2563 644 3369 
Q 913 4069 1325 4659 
L 1925 4659 
Q 1497 3713 1336 3048 
Q 1175 2384 1175 1641 
Q 1175 1128 1270 590 
Q 1366 53 1531 -431 
Q 1641 -750 1916 -1347 
z
" transform="scale(0.015625)"/>
      <path id="Arial-BoldMT-32" d="M 3238 816 
L 3238 0 
L 159 0 
Q 209 463 459 877 
Q 709 1291 1447 1975 
Q 2041 2528 2175 2725 
Q 2356 2997 2356 3263 
Q 2356 3556 2198 3714 
Q 2041 3872 1763 3872 
Q 1488 3872 1325 3706 
Q 1163 3541 1138 3156 
L 263 3244 
Q 341 3969 753 4284 
Q 1166 4600 1784 4600 
Q 2463 4600 2850 4234 
Q 3238 3869 3238 3325 
Q 3238 3016 3127 2736 
Q 3016 2456 2775 2150 
Q 2616 1947 2200 1565 
Q 1784 1184 1673 1059 
Q 1563 934 1494 816 
L 3238 816 
z
" transform="scale(0.015625)"/>
      <path id="Arial-BoldMT-30" d="M 1756 4600 
Q 2422 4600 2797 4125 
Q 3244 3563 3244 2259 
Q 3244 959 2794 391 
Q 2422 -78 1756 -78 
Q 1088 -78 678 436 
Q 269 950 269 2269 
Q 269 3563 719 4131 
Q 1091 4600 1756 4600 
z
M 1756 3872 
Q 1597 3872 1472 3770 
Q 1347 3669 1278 3406 
Q 1188 3066 1188 2259 
Q 1188 1453 1269 1151 
Q 1350 850 1473 750 
Q 1597 650 1756 650 
Q 1916 650 2041 751 
Q 2166 853 2234 1116 
Q 2325 1453 2325 2259 
Q 2325 3066 2244 3367 
Q 2163 3669 2039 3770 
Q 1916 3872 1756 3872 
z
" transform="scale(0.015625)"/>
      <path id="Arial-BoldMT-2d" d="M 359 1222 
L 359 2100 
L 2084 2100 
L 2084 1222 
L 359 1222 
z
" transform="scale(0.015625)"/>
      <path id="Arial-BoldMT-34" d="M 1994 0 
L 1994 922 
L 119 922 
L 119 1691 
L 2106 4600 
L 2844 4600 
L 2844 1694 
L 3413 1694 
L 3413 922 
L 2844 922 
L 2844 0 
L 1994 0 
z
M 1994 1694 
L 1994 3259 
L 941 1694 
L 1994 1694 
z
" transform="scale(0.015625)"/>
      <path id="Arial-BoldMT-29" d="M 216 -1347 
Q 475 -791 581 -494 
Q 688 -197 778 190 
Q 869 578 912 926 
Q 956 1275 956 1641 
Q 956 2384 797 3048 
Q 638 3713 209 4659 
L 806 4659 
Q 1278 3988 1539 3234 
Q 1800 2481 1800 1706 
Q 1800 1053 1594 306 
Q 1359 -531 822 -1347 
L 216 -1347 
z
" transform="scale(0.015625)"/>
     </defs>
     <use xlink:href="#Arial-BoldMT-20"/>
     <use xlink:href="#Arial-BoldMT-20" transform="translate(27.783203 0)"/>
     <use xlink:href="#Arial-BoldMT-2190" transform="translate(55.566406 0)"/>
     <use xlink:href="#Arial-BoldMT-20" transform="translate(155.566406 0)"/>
     <use xlink:href="#Arial-BoldMT-c624" transform="translate(183.349609 0)"/>
     <use xlink:href="#Arial-BoldMT-b298" transform="translate(258.349609 0)"/>
     <use xlink:href="#Arial-BoldMT-20" transform="translate(333.349609 0)"/>
     <use xlink:href="#Arial-BoldMT-28" transform="translate(361.132812 0)"/>
     <use xlink:href="#Arial-BoldMT-32" transform="translate(394.433594 0)"/>
     <use xlink:href="#Arial-BoldMT-30" transform="translate(450.048828 0)"/>
     <use xlink:href="#Arial-BoldMT-32" transform="translate(505.664062 0)"/>
     <use xlink:href="#Arial-BoldMT-36" transform="translate(561.279297 0)"/>
     <use xlink:href="#Arial-BoldMT-2d" transform="translate(616.894531 0)"/>
     <use xlink:href="#Arial-BoldMT-30" transform="translate(650.195312 0)"/>
     <use xlink:href="#Arial-BoldMT-34" transform="translate(705.810547 0)"/>
     <use xlink:href="#Arial-BoldMT-29" transform="translate(761.425781 0)"/>
    </g>
   </g>
   <g id="text_32">
    <!-- 가상자산 AML 규제 타임라인 (2020~2030) -->
    <g style="fill: #111418" transform="translate(18 28.191563) scale(0.14 -0.14)">
     <defs>
      <path id="Arial-BoldMT-ac00" d="M 800 0 
L 800 4000 
L 4000 4000 
L 4000 0 
L 800 0 
z
M 900 100 
L 3900 100 
L 3900 3900 
L 900 3900 
L 900 100 
z
" transform="scale(0.015625)"/>
      <path id="Arial-BoldMT-c0c1" d="M 800 0 
L 800 4000 
L 4000 4000 
L 4000 0 
L 800 0 
z
M 900 100 
L 3900 100 
L 3900 3900 
L 900 3900 
L 900 100 
z
" transform="scale(0.015625)"/>
      <path id="Arial-BoldMT-c790" d="M 800 0 
L 800 4000 
L 4000 4000 
L 4000 0 
L 800 0 
z
M 900 100 
L 3900 100 
L 3900 3900 
L 900 3900 
L 900 100 
z
" transform="scale(0.015625)"/>
      <path id="Arial-BoldMT-c0b0" d="M 800 0 
L 800 4000 
L 4000 4000 
L 4000 0 
L 800 0 
z
M 900 100 
L 3900 100 
L 3900 3900 
L 900 3900 
L 900 100 
z
" transform="scale(0.015625)"/>
      <path id="Arial-BoldMT-addc" d="M 800 0 
L 800 4000 
L 4000 4000 
L 4000 0 
L 800 0 
z
M 900 100 
L 3900 100 
L 3900 3900 
L 900 3900 
L 900 100 
z
" transform="scale(0.015625)"/>
      <path id="Arial-BoldMT-c81c" d="M 800 0 
L 800 4000 
L 4000 4000 
L 4000 0 
L 800 0 
z
M 900 100 
L 3900 100 
L 3900 3900 
L 900 3900 
L 900 100 
z
" transform="scale(0.015625)"/>
      <path id="Arial-BoldMT-d0c0" d="M 800 0 
L 800 4000 
L 4000 4000 
L 4000 0 
L 800 0 
z
M 900 100 
L 3900 100 
L 3900 3900 
L 900 3900 
L 900 100 
z
" transform="scale(0.015625)"/>
      <path id="Arial-BoldMT-c784" d="M 800 0 
L 800 4000 
L 4000 4000 
L 4000 0 
L 800 0 
z
M 900 100 
L 3900 100 
L 3900 3900 
L 900 3900 
L 900 100 
z
" transform="scale(0.015625)"/>
      <path id="Arial-BoldMT-b77c" d="M 800 0 
L 800 4000 
L 4000 4000 
L 4000 0 
L 800 0 
z
M 900 100 
L 3900 100 
L 3900 3900 
L 900 3900 
L 900 100 
z
" transform="scale(0.015625)"/>
      <path id="Arial-BoldMT-c778" d="M 800 0 
L 800 4000 
L 4000 4000 
L 4000 0 
L 800 0 
z
M 900 100 
L 3900 100 
L 3900 3900 
L 900 3900 
L 900 100 
z
" transform="scale(0.015625)"/>
      <path id="Arial-BoldMT-7e" d="M 209 1622 
L 209 2431 
Q 606 2863 1134 2863 
Q 1331 2863 1497 2823 
Q 1663 2784 2092 2611 
Q 2522 2438 2675 2438 
Q 2850 2438 3079 2545 
Q 3309 2653 3528 2888 
L 3528 2044 
Q 3384 1894 3126 1762 
Q 2869 1631 2594 1631 
Q 2438 1631 2289 1668 
Q 2141 1706 1819 1847 
Q 1338 2056 1063 2056 
Q 625 2056 209 1622 
z
" transform="scale(0.015625)"/>
      <path id="Arial-BoldMT-33" d="M 241 1216 
L 1091 1319 
Q 1131 994 1309 822 
Q 1488 650 1741 650 
Q 2013 650 2198 856 
Q 2384 1063 2384 1413 
Q 2384 1744 2206 1937 
Q 2028 2131 1772 2131 
Q 1603 2131 1369 2066 
L 1466 2781 
Q 1822 2772 2009 2936 
Q 2197 3100 2197 3372 
Q 2197 3603 2059 3740 
Q 1922 3878 1694 3878 
Q 1469 3878 1309 3722 
Q 1150 3566 1116 3266 
L 306 3403 
Q 391 3819 561 4067 
Q 731 4316 1036 4458 
Q 1341 4600 1719 4600 
Q 2366 4600 2756 4188 
Q 3078 3850 3078 3425 
Q 3078 2822 2419 2463 
Q 2813 2378 3048 2084 
Q 3284 1791 3284 1375 
Q 3284 772 2843 347 
Q 2403 -78 1747 -78 
Q 1125 -78 715 280 
Q 306 638 241 1216 
z
" transform="scale(0.015625)"/>
     </defs>
     <use xlink:href="#Arial-BoldMT-ac00"/>
     <use xlink:href="#Arial-BoldMT-c0c1" transform="translate(75 0)"/>
     <use xlink:href="#Arial-BoldMT-c790" transform="translate(150 0)"/>
     <use xlink:href="#Arial-BoldMT-c0b0" transform="translate(225 0)"/>
     <use xlink:href="#Arial-BoldMT-20" transform="translate(300 0)"/>
     <use xlink:href="#Arial-BoldMT-41" transform="translate(324.033203 0)"/>
     <use xlink:href="#Arial-BoldMT-4d" transform="translate(396.25 0)"/>
     <use xlink:href="#Arial-BoldMT-4c" transform="translate(479.550781 0)"/>
     <use xlink:href="#Arial-BoldMT-20" transform="translate(538.884766 0)"/>
     <use xlink:href="#Arial-BoldMT-addc" transform="translate(566.667969 0)"/>
     <use xlink:href="#Arial-BoldMT-c81c" transform="translate(641.667969 0)"/>
     <use xlink:href="#Arial-BoldMT-20" transform="translate(716.667969 0)"/>
     <use xlink:href="#Arial-BoldMT-d0c0" transform="translate(744.451172 0)"/>
     <use xlink:href="#Arial-BoldMT-c784" transform="translate(819.451172 0)"/>
     <use xlink:href="#Arial-BoldMT-b77c" transform="translate(894.451172 0)"/>
     <use xlink:href="#Arial-BoldMT-c778" transform="translate(969.451172 0)"/>
     <use xlink:href="#Arial-BoldMT-20" transform="translate(1044.451172 0)"/>
     <use xlink:href="#Arial-BoldMT-28" transform="translate(1072.234375 0)"/>
     <use xlink:href="#Arial-BoldMT-32" transform="translate(1105.535156 0)"/>
     <use xlink:href="#Arial-BoldMT-30" transform="translate(1161.150391 0)"/>
     <use xlink:href="#Arial-BoldMT-32" transform="translate(1216.765625 0)"/>
     <use xlink:href="#Arial-BoldMT-30" transform="translate(1272.380859 0)"/>
     <use xlink:href="#Arial-BoldMT-7e" transform="translate(1327.996094 0)"/>
     <use xlink:href="#Arial-BoldMT-32" transform="translate(1386.394531 0)"/>
     <use xlink:href="#Arial-BoldMT-30" transform="translate(1442.009766 0)"/>
     <use xlink:href="#Arial-BoldMT-33" transform="translate(1497.625 0)"/>
     <use xlink:href="#Arial-BoldMT-30" transform="translate(1553.240234 0)"/>
     <use xlink:href="#Arial-BoldMT-29" transform="translate(1608.855469 0)"/>
    </g>
   </g>
  </g>
  <g id="text_33">
   <!-- 🇰🇷 한국 · 🇺🇸 미국 · 🇪🇺 EU · 🌍 FATF -->
   <g style="fill: #6b7280" transform="translate(201.882263 737.231562) scale(0.09 -0.09)">
    <defs>
     <path id="ArialMT-b7" d="M 744 1991 
L 744 2631 
L 1384 2631 
L 1384 1991 
L 744 1991 
z
" transform="scale(0.015625)"/>
    </defs>
    <use xlink:href="#ArialMT-1f1f0"/>
    <use xlink:href="#ArialMT-1f1f7" transform="translate(75 0)"/>
    <use xlink:href="#ArialMT-20" transform="translate(150 0)"/>
    <use xlink:href="#ArialMT-d55c" transform="translate(177.783203 0)"/>
    <use xlink:href="#ArialMT-ad6d" transform="translate(252.783203 0)"/>
    <use xlink:href="#ArialMT-20" transform="translate(327.783203 0)"/>
    <use xlink:href="#ArialMT-b7" transform="translate(355.566406 0)"/>
    <use xlink:href="#ArialMT-20" transform="translate(388.867188 0)"/>
    <use xlink:href="#ArialMT-1f1fa" transform="translate(416.650391 0)"/>
    <use xlink:href="#ArialMT-1f1f8" transform="translate(491.650391 0)"/>
    <use xlink:href="#ArialMT-20" transform="translate(566.650391 0)"/>
    <use xlink:href="#ArialMT-bbf8" transform="translate(594.433594 0)"/>
    <use xlink:href="#ArialMT-ad6d" transform="translate(669.433594 0)"/>
    <use xlink:href="#ArialMT-20" transform="translate(744.433594 0)"/>
    <use xlink:href="#ArialMT-b7" transform="translate(772.216797 0)"/>
    <use xlink:href="#ArialMT-20" transform="translate(805.517578 0)"/>
    <use xlink:href="#ArialMT-1f1ea" transform="translate(833.300781 0)"/>
    <use xlink:href="#ArialMT-1f1fa" transform="translate(908.300781 0)"/>
    <use xlink:href="#ArialMT-20" transform="translate(983.300781 0)"/>
    <use xlink:href="#ArialMT-45" transform="translate(1011.083984 0)"/>
    <use xlink:href="#ArialMT-55" transform="translate(1077.783203 0)"/>
    <use xlink:href="#ArialMT-20" transform="translate(1150 0)"/>
    <use xlink:href="#ArialMT-b7" transform="translate(1177.783203 0)"/>
    <use xlink:href="#ArialMT-20" transform="translate(1211.083984 0)"/>
    <use xlink:href="#ArialMT-1f30d" transform="translate(1238.867188 0)"/>
    <use xlink:href="#ArialMT-20" transform="translate(1313.867188 0)"/>
    <use xlink:href="#ArialMT-46" transform="translate(1341.650391 0)"/>
    <use xlink:href="#ArialMT-41" transform="translate(1397.234375 0)"/>
    <use xlink:href="#ArialMT-54" transform="translate(1456.558594 0)"/>
    <use xlink:href="#ArialMT-46" transform="translate(1517.642578 0)"/>
   </g>
  </g>
 </g>
 <defs>
  <clipPath id="p0723b442be">
   <rect x="46.1232" y="48.191563" width="468.72" height="609.84"/>
  </clipPath>
 </defs>
</svg>
