<?xml version="1.0" encoding="utf-8" standalone="no"?>
<!DOCTYPE svg PUBLIC "-//W3C//DTD SVG 1.1//EN"
  "http://www.w3.org/Graphics/SVG/1.1/DTD/svg11.dtd">
<svg xmlns:xlink="http://www.w3.org/1999/xlink" width="639.298266pt" height="372.810078pt" viewBox="0 0 639.298266 372.810078" xmlns="http://www.w3.org/2000/svg" version="1.1">
 <metadata>
  <rdf:RDF xmlns:dc="http://purl.org/dc/elements/1.1/" xmlns:cc="http://creativecommons.org/ns#" xmlns:rdf="http://www.w3.org/1999/02/22-rdf-syntax-ns#">
   <cc:Work>
    <dc:type rdf:resource="http://purl.org/dc/dcmitype/StillImage"/>
    <dc:date>2026-04-21T10:28:35.586825</dc:date>
    <dc:format>image/svg+xml</dc:format>
    <dc:creator>
     <cc:Agent>
      <dc:title>Matplotlib v3.10.8, https://matplotlib.org/</dc:title>
     </cc:Agent>
    </dc:creator>
   </cc:Work>
  </rdf:RDF>
 </metadata>
 <defs>
  <style type="text/css">*{stroke-linejoin: round; stroke-linecap: butt}</style>
 </defs>
 <g id="figure_1">
  <g id="patch_1">
   <path d="M 0 372.810078 
L 639.298266 372.810078 
L 639.298266 0 
L 0 0 
z
" style="fill: #ffffff"/>
  </g>
  <g id="axes_1">
   <g id="patch_2">
    <path d="M 94.176 308.303562 
L 607.536 308.303562 
L 607.536 42.191562 
L 94.176 42.191562 
z
" style="fill: #ffffff"/>
   </g>
   <g id="matplotlib.axis_1">
    <g id="xtick_1">
     <g id="line2d_1">
      <path d="M 94.176 308.303562 
L 94.176 42.191562 
" clip-path="url(#p1fb9ce19e3)" style="fill: none; stroke: #d8dbe0; stroke-width: 0.5; stroke-linecap: round"/>
     </g>
     <g id="line2d_2">
      <defs>
       <path id="m077c6a1046" d="M 0 0 
L 0 3.5 
" style="stroke: #262626; stroke-width: 0.8"/>
      </defs>
      <g>
       <use xlink:href="#m077c6a1046" x="94.176" y="308.303562" style="fill: #262626; stroke: #262626; stroke-width: 0.8"/>
      </g>
     </g>
     <g id="text_1">
      <!-- $0 -->
      <g style="fill: #262626" transform="translate(89.171156 321.745594) scale(0.09 -0.09)">
       <defs>
        <path id="ArialMT-24" d="M 1594 -659 
L 1594 -97 
Q 1172 -44 908 92 
Q 644 228 451 531 
Q 259 834 228 1272 
L 794 1378 
Q 859 925 1025 713 
Q 1263 413 1594 378 
L 1594 2169 
Q 1247 2234 884 2438 
Q 616 2588 470 2853 
Q 325 3119 325 3456 
Q 325 4056 750 4428 
Q 1034 4678 1594 4734 
L 1594 5003 
L 1925 5003 
L 1925 4734 
Q 2416 4688 2703 4447 
Q 3072 4141 3147 3606 
L 2566 3519 
Q 2516 3850 2358 4026 
Q 2200 4203 1925 4259 
L 1925 2638 
Q 2350 2531 2488 2472 
Q 2750 2356 2915 2190 
Q 3081 2025 3170 1797 
Q 3259 1569 3259 1303 
Q 3259 719 2887 328 
Q 2516 -63 1925 -91 
L 1925 -659 
L 1594 -659 
z
M 1594 4266 
Q 1266 4216 1077 4003 
Q 888 3791 888 3500 
Q 888 3213 1048 3019 
Q 1209 2825 1594 2709 
L 1594 4266 
z
M 1925 378 
Q 2253 419 2467 662 
Q 2681 906 2681 1266 
Q 2681 1572 2529 1758 
Q 2378 1944 1925 2091 
L 1925 378 
z
" transform="scale(0.015625)"/>
        <path id="ArialMT-30" d="M 266 2259 
Q 266 3072 433 3567 
Q 600 4063 929 4331 
Q 1259 4600 1759 4600 
Q 2128 4600 2406 4451 
Q 2684 4303 2865 4023 
Q 3047 3744 3150 3342 
Q 3253 2941 3253 2259 
Q 3253 1453 3087 958 
Q 2922 463 2592 192 
Q 2263 -78 1759 -78 
Q 1097 -78 719 397 
Q 266 969 266 2259 
z
M 844 2259 
Q 844 1131 1108 757 
Q 1372 384 1759 384 
Q 2147 384 2411 759 
Q 2675 1134 2675 2259 
Q 2675 3391 2411 3762 
Q 2147 4134 1753 4134 
Q 1366 4134 1134 3806 
Q 844 3388 844 2259 
z
" transform="scale(0.015625)"/>
       </defs>
       <use xlink:href="#ArialMT-24"/>
       <use xlink:href="#ArialMT-30" transform="translate(55.615234 0)"/>
      </g>
     </g>
    </g>
    <g id="xtick_2">
     <g id="line2d_3">
      <path d="M 158.346 308.303562 
L 158.346 42.191562 
" clip-path="url(#p1fb9ce19e3)" style="fill: none; stroke: #d8dbe0; stroke-width: 0.5; stroke-linecap: round"/>
     </g>
     <g id="line2d_4">
      <g>
       <use xlink:href="#m077c6a1046" x="158.346" y="308.303562" style="fill: #262626; stroke: #262626; stroke-width: 0.8"/>
      </g>
     </g>
     <g id="text_2">
      <!-- $500 -->
      <g style="fill: #262626" transform="translate(148.336312 321.745594) scale(0.09 -0.09)">
       <defs>
        <path id="ArialMT-35" d="M 266 1200 
L 856 1250 
Q 922 819 1161 601 
Q 1400 384 1738 384 
Q 2144 384 2425 690 
Q 2706 997 2706 1503 
Q 2706 1984 2436 2262 
Q 2166 2541 1728 2541 
Q 1456 2541 1237 2417 
Q 1019 2294 894 2097 
L 366 2166 
L 809 4519 
L 3088 4519 
L 3088 3981 
L 1259 3981 
L 1013 2750 
Q 1425 3038 1878 3038 
Q 2478 3038 2890 2622 
Q 3303 2206 3303 1553 
Q 3303 931 2941 478 
Q 2500 -78 1738 -78 
Q 1113 -78 717 272 
Q 322 622 266 1200 
z
" transform="scale(0.015625)"/>
       </defs>
       <use xlink:href="#ArialMT-24"/>
       <use xlink:href="#ArialMT-35" transform="translate(55.615234 0)"/>
       <use xlink:href="#ArialMT-30" transform="translate(111.230469 0)"/>
       <use xlink:href="#ArialMT-30" transform="translate(166.845703 0)"/>
      </g>
     </g>
    </g>
    <g id="xtick_3">
     <g id="line2d_5">
      <path d="M 222.516 308.303562 
L 222.516 42.191562 
" clip-path="url(#p1fb9ce19e3)" style="fill: none; stroke: #d8dbe0; stroke-width: 0.5; stroke-linecap: round"/>
     </g>
     <g id="line2d_6">
      <g>
       <use xlink:href="#m077c6a1046" x="222.516" y="308.303562" style="fill: #262626; stroke: #262626; stroke-width: 0.8"/>
      </g>
     </g>
     <g id="text_3">
      <!-- $1,000 -->
      <g style="fill: #262626" transform="translate(208.753734 321.824344) scale(0.09 -0.09)">
       <defs>
        <path id="ArialMT-31" d="M 2384 0 
L 1822 0 
L 1822 3584 
Q 1619 3391 1289 3197 
Q 959 3003 697 2906 
L 697 3450 
Q 1169 3672 1522 3987 
Q 1875 4303 2022 4600 
L 2384 4600 
L 2384 0 
z
" transform="scale(0.015625)"/>
        <path id="ArialMT-2c" d="M 569 0 
L 569 641 
L 1209 641 
L 1209 0 
Q 1209 -353 1084 -570 
Q 959 -788 688 -906 
L 531 -666 
Q 709 -588 793 -436 
Q 878 -284 888 0 
L 569 0 
z
" transform="scale(0.015625)"/>
       </defs>
       <use xlink:href="#ArialMT-24"/>
       <use xlink:href="#ArialMT-31" transform="translate(55.615234 0)"/>
       <use xlink:href="#ArialMT-2c" transform="translate(111.230469 0)"/>
       <use xlink:href="#ArialMT-30" transform="translate(139.013672 0)"/>
       <use xlink:href="#ArialMT-30" transform="translate(194.628906 0)"/>
       <use xlink:href="#ArialMT-30" transform="translate(250.244141 0)"/>
      </g>
     </g>
    </g>
    <g id="xtick_4">
     <g id="line2d_7">
      <path d="M 286.686 308.303562 
L 286.686 42.191562 
" clip-path="url(#p1fb9ce19e3)" style="fill: none; stroke: #d8dbe0; stroke-width: 0.5; stroke-linecap: round"/>
     </g>
     <g id="line2d_8">
      <g>
       <use xlink:href="#m077c6a1046" x="286.686" y="308.303562" style="fill: #262626; stroke: #262626; stroke-width: 0.8"/>
      </g>
     </g>
     <g id="text_4">
      <!-- $1,500 -->
      <g style="fill: #262626" transform="translate(272.923734 321.824344) scale(0.09 -0.09)">
       <use xlink:href="#ArialMT-24"/>
       <use xlink:href="#ArialMT-31" transform="translate(55.615234 0)"/>
       <use xlink:href="#ArialMT-2c" transform="translate(111.230469 0)"/>
       <use xlink:href="#ArialMT-35" transform="translate(139.013672 0)"/>
       <use xlink:href="#ArialMT-30" transform="translate(194.628906 0)"/>
       <use xlink:href="#ArialMT-30" transform="translate(250.244141 0)"/>
      </g>
     </g>
    </g>
    <g id="xtick_5">
     <g id="line2d_9">
      <path d="M 350.856 308.303562 
L 350.856 42.191562 
" clip-path="url(#p1fb9ce19e3)" style="fill: none; stroke: #d8dbe0; stroke-width: 0.5; stroke-linecap: round"/>
     </g>
     <g id="line2d_10">
      <g>
       <use xlink:href="#m077c6a1046" x="350.856" y="308.303562" style="fill: #262626; stroke: #262626; stroke-width: 0.8"/>
      </g>
     </g>
     <g id="text_5">
      <!-- $2,000 -->
      <g style="fill: #262626" transform="translate(337.093734 321.824344) scale(0.09 -0.09)">
       <defs>
        <path id="ArialMT-32" d="M 3222 541 
L 3222 0 
L 194 0 
Q 188 203 259 391 
Q 375 700 629 1000 
Q 884 1300 1366 1694 
Q 2113 2306 2375 2664 
Q 2638 3022 2638 3341 
Q 2638 3675 2398 3904 
Q 2159 4134 1775 4134 
Q 1369 4134 1125 3890 
Q 881 3647 878 3216 
L 300 3275 
Q 359 3922 746 4261 
Q 1134 4600 1788 4600 
Q 2447 4600 2831 4234 
Q 3216 3869 3216 3328 
Q 3216 3053 3103 2787 
Q 2991 2522 2730 2228 
Q 2469 1934 1863 1422 
Q 1356 997 1212 845 
Q 1069 694 975 541 
L 3222 541 
z
" transform="scale(0.015625)"/>
       </defs>
       <use xlink:href="#ArialMT-24"/>
       <use xlink:href="#ArialMT-32" transform="translate(55.615234 0)"/>
       <use xlink:href="#ArialMT-2c" transform="translate(111.230469 0)"/>
       <use xlink:href="#ArialMT-30" transform="translate(139.013672 0)"/>
       <use xlink:href="#ArialMT-30" transform="translate(194.628906 0)"/>
       <use xlink:href="#ArialMT-30" transform="translate(250.244141 0)"/>
      </g>
     </g>
    </g>
    <g id="xtick_6">
     <g id="line2d_11">
      <path d="M 415.026 308.303562 
L 415.026 42.191562 
" clip-path="url(#p1fb9ce19e3)" style="fill: none; stroke: #d8dbe0; stroke-width: 0.5; stroke-linecap: round"/>
     </g>
     <g id="line2d_12">
      <g>
       <use xlink:href="#m077c6a1046" x="415.026" y="308.303562" style="fill: #262626; stroke: #262626; stroke-width: 0.8"/>
      </g>
     </g>
     <g id="text_6">
      <!-- $2,500 -->
      <g style="fill: #262626" transform="translate(401.263734 321.824344) scale(0.09 -0.09)">
       <use xlink:href="#ArialMT-24"/>
       <use xlink:href="#ArialMT-32" transform="translate(55.615234 0)"/>
       <use xlink:href="#ArialMT-2c" transform="translate(111.230469 0)"/>
       <use xlink:href="#ArialMT-35" transform="translate(139.013672 0)"/>
       <use xlink:href="#ArialMT-30" transform="translate(194.628906 0)"/>
       <use xlink:href="#ArialMT-30" transform="translate(250.244141 0)"/>
      </g>
     </g>
    </g>
    <g id="xtick_7">
     <g id="line2d_13">
      <path d="M 479.196 308.303562 
L 479.196 42.191562 
" clip-path="url(#p1fb9ce19e3)" style="fill: none; stroke: #d8dbe0; stroke-width: 0.5; stroke-linecap: round"/>
     </g>
     <g id="line2d_14">
      <g>
       <use xlink:href="#m077c6a1046" x="479.196" y="308.303562" style="fill: #262626; stroke: #262626; stroke-width: 0.8"/>
      </g>
     </g>
     <g id="text_7">
      <!-- $3,000 -->
      <g style="fill: #262626" transform="translate(465.433734 321.824344) scale(0.09 -0.09)">
       <defs>
        <path id="ArialMT-33" d="M 269 1209 
L 831 1284 
Q 928 806 1161 595 
Q 1394 384 1728 384 
Q 2125 384 2398 659 
Q 2672 934 2672 1341 
Q 2672 1728 2419 1979 
Q 2166 2231 1775 2231 
Q 1616 2231 1378 2169 
L 1441 2663 
Q 1497 2656 1531 2656 
Q 1891 2656 2178 2843 
Q 2466 3031 2466 3422 
Q 2466 3731 2256 3934 
Q 2047 4138 1716 4138 
Q 1388 4138 1169 3931 
Q 950 3725 888 3313 
L 325 3413 
Q 428 3978 793 4289 
Q 1159 4600 1703 4600 
Q 2078 4600 2393 4439 
Q 2709 4278 2876 4000 
Q 3044 3722 3044 3409 
Q 3044 3113 2884 2869 
Q 2725 2625 2413 2481 
Q 2819 2388 3044 2092 
Q 3269 1797 3269 1353 
Q 3269 753 2831 336 
Q 2394 -81 1725 -81 
Q 1122 -81 723 278 
Q 325 638 269 1209 
z
" transform="scale(0.015625)"/>
       </defs>
       <use xlink:href="#ArialMT-24"/>
       <use xlink:href="#ArialMT-33" transform="translate(55.615234 0)"/>
       <use xlink:href="#ArialMT-2c" transform="translate(111.230469 0)"/>
       <use xlink:href="#ArialMT-30" transform="translate(139.013672 0)"/>
       <use xlink:href="#ArialMT-30" transform="translate(194.628906 0)"/>
       <use xlink:href="#ArialMT-30" transform="translate(250.244141 0)"/>
      </g>
     </g>
    </g>
    <g id="xtick_8">
     <g id="line2d_15">
      <path d="M 543.366 308.303562 
L 543.366 42.191562 
" clip-path="url(#p1fb9ce19e3)" style="fill: none; stroke: #d8dbe0; stroke-width: 0.5; stroke-linecap: round"/>
     </g>
     <g id="line2d_16">
      <g>
       <use xlink:href="#m077c6a1046" x="543.366" y="308.303562" style="fill: #262626; stroke: #262626; stroke-width: 0.8"/>
      </g>
     </g>
     <g id="text_8">
      <!-- $3,500 -->
      <g style="fill: #262626" transform="translate(529.603734 321.824344) scale(0.09 -0.09)">
       <use xlink:href="#ArialMT-24"/>
       <use xlink:href="#ArialMT-33" transform="translate(55.615234 0)"/>
       <use xlink:href="#ArialMT-2c" transform="translate(111.230469 0)"/>
       <use xlink:href="#ArialMT-35" transform="translate(139.013672 0)"/>
       <use xlink:href="#ArialMT-30" transform="translate(194.628906 0)"/>
       <use xlink:href="#ArialMT-30" transform="translate(250.244141 0)"/>
      </g>
     </g>
    </g>
    <g id="xtick_9">
     <g id="line2d_17">
      <path d="M 607.536 308.303562 
L 607.536 42.191562 
" clip-path="url(#p1fb9ce19e3)" style="fill: none; stroke: #d8dbe0; stroke-width: 0.5; stroke-linecap: round"/>
     </g>
     <g id="line2d_18">
      <g>
       <use xlink:href="#m077c6a1046" x="607.536" y="308.303562" style="fill: #262626; stroke: #262626; stroke-width: 0.8"/>
      </g>
     </g>
     <g id="text_9">
      <!-- $4,000 -->
      <g style="fill: #262626" transform="translate(593.773734 321.824344) scale(0.09 -0.09)">
       <defs>
        <path id="ArialMT-34" d="M 2069 0 
L 2069 1097 
L 81 1097 
L 81 1613 
L 2172 4581 
L 2631 4581 
L 2631 1613 
L 3250 1613 
L 3250 1097 
L 2631 1097 
L 2631 0 
L 2069 0 
z
M 2069 1613 
L 2069 3678 
L 634 1613 
L 2069 1613 
z
" transform="scale(0.015625)"/>
       </defs>
       <use xlink:href="#ArialMT-24"/>
       <use xlink:href="#ArialMT-34" transform="translate(55.615234 0)"/>
       <use xlink:href="#ArialMT-2c" transform="translate(111.230469 0)"/>
       <use xlink:href="#ArialMT-30" transform="translate(139.013672 0)"/>
       <use xlink:href="#ArialMT-30" transform="translate(194.628906 0)"/>
       <use xlink:href="#ArialMT-30" transform="translate(250.244141 0)"/>
      </g>
     </g>
    </g>
    <g id="text_10">
     <!-- USD 환산 임계금액 -->
     <g style="fill: #262626" transform="translate(315.020844 334.770906) scale(0.1 -0.1)">
      <defs>
       <path id="ArialMT-55" d="M 3500 4581 
L 4106 4581 
L 4106 1934 
Q 4106 1244 3950 837 
Q 3794 431 3386 176 
Q 2978 -78 2316 -78 
Q 1672 -78 1262 144 
Q 853 366 678 786 
Q 503 1206 503 1934 
L 503 4581 
L 1109 4581 
L 1109 1938 
Q 1109 1341 1220 1058 
Q 1331 775 1601 622 
Q 1872 469 2263 469 
Q 2931 469 3215 772 
Q 3500 1075 3500 1938 
L 3500 4581 
z
" transform="scale(0.015625)"/>
       <path id="ArialMT-53" d="M 288 1472 
L 859 1522 
Q 900 1178 1048 958 
Q 1197 738 1509 602 
Q 1822 466 2213 466 
Q 2559 466 2825 569 
Q 3091 672 3220 851 
Q 3350 1031 3350 1244 
Q 3350 1459 3225 1620 
Q 3100 1781 2813 1891 
Q 2628 1963 1997 2114 
Q 1366 2266 1113 2400 
Q 784 2572 623 2826 
Q 463 3081 463 3397 
Q 463 3744 659 4045 
Q 856 4347 1234 4503 
Q 1613 4659 2075 4659 
Q 2584 4659 2973 4495 
Q 3363 4331 3572 4012 
Q 3781 3694 3797 3291 
L 3216 3247 
Q 3169 3681 2898 3903 
Q 2628 4125 2100 4125 
Q 1550 4125 1298 3923 
Q 1047 3722 1047 3438 
Q 1047 3191 1225 3031 
Q 1400 2872 2139 2705 
Q 2878 2538 3153 2413 
Q 3553 2228 3743 1945 
Q 3934 1663 3934 1294 
Q 3934 928 3725 604 
Q 3516 281 3123 101 
Q 2731 -78 2241 -78 
Q 1619 -78 1198 103 
Q 778 284 539 648 
Q 300 1013 288 1472 
z
" transform="scale(0.015625)"/>
       <path id="ArialMT-44" d="M 494 0 
L 494 4581 
L 2072 4581 
Q 2606 4581 2888 4516 
Q 3281 4425 3559 4188 
Q 3922 3881 4101 3404 
Q 4281 2928 4281 2316 
Q 4281 1794 4159 1391 
Q 4038 988 3847 723 
Q 3656 459 3429 307 
Q 3203 156 2883 78 
Q 2563 0 2147 0 
L 494 0 
z
M 1100 541 
L 2078 541 
Q 2531 541 2789 625 
Q 3047 709 3200 863 
Q 3416 1078 3536 1442 
Q 3656 1806 3656 2325 
Q 3656 3044 3420 3430 
Q 3184 3816 2847 3947 
Q 2603 4041 2063 4041 
L 1100 4041 
L 1100 541 
z
" transform="scale(0.015625)"/>
       <path id="ArialMT-20" transform="scale(0.015625)"/>
       <path id="ArialMT-d658" d="M 800 0 
L 800 4000 
L 4000 4000 
L 4000 0 
L 800 0 
z
M 900 100 
L 3900 100 
L 3900 3900 
L 900 3900 
L 900 100 
z
" transform="scale(0.015625)"/>
       <path id="ArialMT-c0b0" d="M 800 0 
L 800 4000 
L 4000 4000 
L 4000 0 
L 800 0 
z
M 900 100 
L 3900 100 
L 3900 3900 
L 900 3900 
L 900 100 
z
" transform="scale(0.015625)"/>
       <path id="ArialMT-c784" d="M 800 0 
L 800 4000 
L 4000 4000 
L 4000 0 
L 800 0 
z
M 900 100 
L 3900 100 
L 3900 3900 
L 900 3900 
L 900 100 
z
" transform="scale(0.015625)"/>
       <path id="ArialMT-acc4" d="M 800 0 
L 800 4000 
L 4000 4000 
L 4000 0 
L 800 0 
z
M 900 100 
L 3900 100 
L 3900 3900 
L 900 3900 
L 900 100 
z
" transform="scale(0.015625)"/>
       <path id="ArialMT-ae08" d="M 800 0 
L 800 4000 
L 4000 4000 
L 4000 0 
L 800 0 
z
M 900 100 
L 3900 100 
L 3900 3900 
L 900 3900 
L 900 100 
z
" transform="scale(0.015625)"/>
       <path id="ArialMT-c561" d="M 800 0 
L 800 4000 
L 4000 4000 
L 4000 0 
L 800 0 
z
M 900 100 
L 3900 100 
L 3900 3900 
L 900 3900 
L 900 100 
z
" transform="scale(0.015625)"/>
      </defs>
      <use xlink:href="#ArialMT-55"/>
      <use xlink:href="#ArialMT-53" transform="translate(72.216797 0)"/>
      <use xlink:href="#ArialMT-44" transform="translate(138.916016 0)"/>
      <use xlink:href="#ArialMT-20" transform="translate(211.132812 0)"/>
      <use xlink:href="#ArialMT-d658" transform="translate(238.916016 0)"/>
      <use xlink:href="#ArialMT-c0b0" transform="translate(313.916016 0)"/>
      <use xlink:href="#ArialMT-20" transform="translate(388.916016 0)"/>
      <use xlink:href="#ArialMT-c784" transform="translate(416.699219 0)"/>
      <use xlink:href="#ArialMT-acc4" transform="translate(491.699219 0)"/>
      <use xlink:href="#ArialMT-ae08" transform="translate(566.699219 0)"/>
      <use xlink:href="#ArialMT-c561" transform="translate(641.699219 0)"/>
     </g>
    </g>
   </g>
   <g id="matplotlib.axis_2">
    <g id="ytick_1">
     <g id="line2d_19"/>
     <g id="text_11">
      <!-- EU (TFR) -->
      <g style="fill: #262626" transform="translate(47.908812 286.503065) scale(0.1 -0.1)">
       <defs>
        <path id="ArialMT-45" d="M 506 0 
L 506 4581 
L 3819 4581 
L 3819 4041 
L 1113 4041 
L 1113 2638 
L 3647 2638 
L 3647 2100 
L 1113 2100 
L 1113 541 
L 3925 541 
L 3925 0 
L 506 0 
z
" transform="scale(0.015625)"/>
        <path id="ArialMT-28" d="M 1497 -1347 
Q 1031 -759 709 28 
Q 388 816 388 1659 
Q 388 2403 628 3084 
Q 909 3875 1497 4659 
L 1900 4659 
Q 1522 4009 1400 3731 
Q 1209 3300 1100 2831 
Q 966 2247 966 1656 
Q 966 153 1900 -1347 
L 1497 -1347 
z
" transform="scale(0.015625)"/>
        <path id="ArialMT-54" d="M 1659 0 
L 1659 4041 
L 150 4041 
L 150 4581 
L 3781 4581 
L 3781 4041 
L 2266 4041 
L 2266 0 
L 1659 0 
z
" transform="scale(0.015625)"/>
        <path id="ArialMT-46" d="M 525 0 
L 525 4581 
L 3616 4581 
L 3616 4041 
L 1131 4041 
L 1131 2622 
L 3281 2622 
L 3281 2081 
L 1131 2081 
L 1131 0 
L 525 0 
z
" transform="scale(0.015625)"/>
        <path id="ArialMT-52" d="M 503 0 
L 503 4581 
L 2534 4581 
Q 3147 4581 3465 4457 
Q 3784 4334 3975 4021 
Q 4166 3709 4166 3331 
Q 4166 2844 3850 2509 
Q 3534 2175 2875 2084 
Q 3116 1969 3241 1856 
Q 3506 1613 3744 1247 
L 4541 0 
L 3778 0 
L 3172 953 
Q 2906 1366 2734 1584 
Q 2563 1803 2427 1890 
Q 2291 1978 2150 2013 
Q 2047 2034 1813 2034 
L 1109 2034 
L 1109 0 
L 503 0 
z
M 1109 2559 
L 2413 2559 
Q 2828 2559 3062 2645 
Q 3297 2731 3419 2920 
Q 3541 3109 3541 3331 
Q 3541 3656 3305 3865 
Q 3069 4075 2559 4075 
L 1109 4075 
L 1109 2559 
z
" transform="scale(0.015625)"/>
        <path id="ArialMT-29" d="M 791 -1347 
L 388 -1347 
Q 1322 153 1322 1656 
Q 1322 2244 1188 2822 
Q 1081 3291 891 3722 
Q 769 4003 388 4659 
L 791 4659 
Q 1378 3875 1659 3084 
Q 1900 2403 1900 1659 
Q 1900 816 1576 28 
Q 1253 -759 791 -1347 
z
" transform="scale(0.015625)"/>
       </defs>
       <use xlink:href="#ArialMT-45"/>
       <use xlink:href="#ArialMT-55" transform="translate(66.699219 0)"/>
       <use xlink:href="#ArialMT-20" transform="translate(138.916016 0)"/>
       <use xlink:href="#ArialMT-28" transform="translate(166.699219 0)"/>
       <use xlink:href="#ArialMT-54" transform="translate(200 0)"/>
       <use xlink:href="#ArialMT-46" transform="translate(261.083984 0)"/>
       <use xlink:href="#ArialMT-52" transform="translate(322.167969 0)"/>
       <use xlink:href="#ArialMT-29" transform="translate(394.384766 0)"/>
      </g>
     </g>
    </g>
    <g id="ytick_2">
     <g id="line2d_20"/>
     <g id="text_12">
      <!-- 한국 -->
      <g style="fill: #262626" transform="translate(75.676 243.395864) scale(0.1 -0.1)">
       <defs>
        <path id="ArialMT-d55c" d="M 800 0 
L 800 4000 
L 4000 4000 
L 4000 0 
L 800 0 
z
M 900 100 
L 3900 100 
L 3900 3900 
L 900 3900 
L 900 100 
z
" transform="scale(0.015625)"/>
        <path id="ArialMT-ad6d" d="M 800 0 
L 800 4000 
L 4000 4000 
L 4000 0 
L 800 0 
z
M 900 100 
L 3900 100 
L 3900 3900 
L 900 3900 
L 900 100 
z
" transform="scale(0.015625)"/>
       </defs>
       <use xlink:href="#ArialMT-d55c"/>
       <use xlink:href="#ArialMT-ad6d" transform="translate(75 0)"/>
      </g>
     </g>
    </g>
    <g id="ytick_3">
     <g id="line2d_21"/>
     <g id="text_13">
      <!-- 일본 -->
      <g style="fill: #262626" transform="translate(75.676 200.3496) scale(0.1 -0.1)">
       <defs>
        <path id="ArialMT-c77c" d="M 800 0 
L 800 4000 
L 4000 4000 
L 4000 0 
L 800 0 
z
M 900 100 
L 3900 100 
L 3900 3900 
L 900 3900 
L 900 100 
z
" transform="scale(0.015625)"/>
        <path id="ArialMT-bcf8" d="M 800 0 
L 800 4000 
L 4000 4000 
L 4000 0 
L 800 0 
z
M 900 100 
L 3900 100 
L 3900 3900 
L 900 3900 
L 900 100 
z
" transform="scale(0.015625)"/>
       </defs>
       <use xlink:href="#ArialMT-c77c"/>
       <use xlink:href="#ArialMT-bcf8" transform="translate(75 0)"/>
      </g>
     </g>
    </g>
    <g id="ytick_4">
     <g id="line2d_22"/>
     <g id="text_14">
      <!-- 🌍 FATF 권고 -->
      <g style="fill: #262626" transform="translate(38.9135 157.303337) scale(0.1 -0.1)">
       <defs>
        <path id="ArialMT-1f30d" d="M 800 0 
L 800 4000 
L 4000 4000 
L 4000 0 
L 800 0 
z
M 900 100 
L 3900 100 
L 3900 3900 
L 900 3900 
L 900 100 
z
" transform="scale(0.015625)"/>
        <path id="ArialMT-41" d="M -9 0 
L 1750 4581 
L 2403 4581 
L 4278 0 
L 3588 0 
L 3053 1388 
L 1138 1388 
L 634 0 
L -9 0 
z
M 1313 1881 
L 2866 1881 
L 2388 3150 
Q 2169 3728 2063 4100 
Q 1975 3659 1816 3225 
L 1313 1881 
z
" transform="scale(0.015625)"/>
        <path id="ArialMT-ad8c" d="M 800 0 
L 800 4000 
L 4000 4000 
L 4000 0 
L 800 0 
z
M 900 100 
L 3900 100 
L 3900 3900 
L 900 3900 
L 900 100 
z
" transform="scale(0.015625)"/>
        <path id="ArialMT-ace0" d="M 800 0 
L 800 4000 
L 4000 4000 
L 4000 0 
L 800 0 
z
M 900 100 
L 3900 100 
L 3900 3900 
L 900 3900 
L 900 100 
z
" transform="scale(0.015625)"/>
       </defs>
       <use xlink:href="#ArialMT-1f30d"/>
       <use xlink:href="#ArialMT-20" transform="translate(75 0)"/>
       <use xlink:href="#ArialMT-46" transform="translate(102.783203 0)"/>
       <use xlink:href="#ArialMT-41" transform="translate(158.367188 0)"/>
       <use xlink:href="#ArialMT-54" transform="translate(217.691406 0)"/>
       <use xlink:href="#ArialMT-46" transform="translate(278.775391 0)"/>
       <use xlink:href="#ArialMT-20" transform="translate(339.859375 0)"/>
       <use xlink:href="#ArialMT-ad8c" transform="translate(367.642578 0)"/>
       <use xlink:href="#ArialMT-ace0" transform="translate(442.642578 0)"/>
      </g>
     </g>
    </g>
    <g id="ytick_5">
     <g id="line2d_23"/>
     <g id="text_15">
      <!-- 싱가포르 -->
      <g style="fill: #262626" transform="translate(60.676 114.257074) scale(0.1 -0.1)">
       <defs>
        <path id="ArialMT-c2f1" d="M 800 0 
L 800 4000 
L 4000 4000 
L 4000 0 
L 800 0 
z
M 900 100 
L 3900 100 
L 3900 3900 
L 900 3900 
L 900 100 
z
" transform="scale(0.015625)"/>
        <path id="ArialMT-ac00" d="M 800 0 
L 800 4000 
L 4000 4000 
L 4000 0 
L 800 0 
z
M 900 100 
L 3900 100 
L 3900 3900 
L 900 3900 
L 900 100 
z
" transform="scale(0.015625)"/>
        <path id="ArialMT-d3ec" d="M 800 0 
L 800 4000 
L 4000 4000 
L 4000 0 
L 800 0 
z
M 900 100 
L 3900 100 
L 3900 3900 
L 900 3900 
L 900 100 
z
" transform="scale(0.015625)"/>
        <path id="ArialMT-b974" d="M 800 0 
L 800 4000 
L 4000 4000 
L 4000 0 
L 800 0 
z
M 900 100 
L 3900 100 
L 3900 3900 
L 900 3900 
L 900 100 
z
" transform="scale(0.015625)"/>
       </defs>
       <use xlink:href="#ArialMT-c2f1"/>
       <use xlink:href="#ArialMT-ac00" transform="translate(75 0)"/>
       <use xlink:href="#ArialMT-d3ec" transform="translate(150 0)"/>
       <use xlink:href="#ArialMT-b974" transform="translate(225 0)"/>
      </g>
     </g>
    </g>
    <g id="ytick_6">
     <g id="line2d_24"/>
     <g id="text_16">
      <!-- 미국 (BSA) -->
      <g style="fill: #262626" transform="translate(46.227562 71.271748) scale(0.1 -0.1)">
       <defs>
        <path id="ArialMT-bbf8" d="M 800 0 
L 800 4000 
L 4000 4000 
L 4000 0 
L 800 0 
z
M 900 100 
L 3900 100 
L 3900 3900 
L 900 3900 
L 900 100 
z
" transform="scale(0.015625)"/>
        <path id="ArialMT-42" d="M 469 0 
L 469 4581 
L 2188 4581 
Q 2713 4581 3030 4442 
Q 3347 4303 3526 4014 
Q 3706 3725 3706 3409 
Q 3706 3116 3547 2856 
Q 3388 2597 3066 2438 
Q 3481 2316 3704 2022 
Q 3928 1728 3928 1328 
Q 3928 1006 3792 729 
Q 3656 453 3456 303 
Q 3256 153 2954 76 
Q 2653 0 2216 0 
L 469 0 
z
M 1075 2656 
L 2066 2656 
Q 2469 2656 2644 2709 
Q 2875 2778 2992 2937 
Q 3109 3097 3109 3338 
Q 3109 3566 3000 3739 
Q 2891 3913 2687 3977 
Q 2484 4041 1991 4041 
L 1075 4041 
L 1075 2656 
z
M 1075 541 
L 2216 541 
Q 2509 541 2628 563 
Q 2838 600 2978 687 
Q 3119 775 3209 942 
Q 3300 1109 3300 1328 
Q 3300 1584 3169 1773 
Q 3038 1963 2805 2039 
Q 2572 2116 2134 2116 
L 1075 2116 
L 1075 541 
z
" transform="scale(0.015625)"/>
       </defs>
       <use xlink:href="#ArialMT-bbf8"/>
       <use xlink:href="#ArialMT-ad6d" transform="translate(75 0)"/>
       <use xlink:href="#ArialMT-20" transform="translate(150 0)"/>
       <use xlink:href="#ArialMT-28" transform="translate(177.783203 0)"/>
       <use xlink:href="#ArialMT-42" transform="translate(211.083984 0)"/>
       <use xlink:href="#ArialMT-53" transform="translate(277.783203 0)"/>
       <use xlink:href="#ArialMT-41" transform="translate(344.482422 0)"/>
       <use xlink:href="#ArialMT-29" transform="translate(411.181641 0)"/>
      </g>
     </g>
    </g>
   </g>
   <g id="patch_3">
    <path d="M 94.176 296.207562 
L 94.176 296.207562 
L 94.176 269.518879 
L 94.176 269.518879 
z
" clip-path="url(#p1fb9ce19e3)" style="fill: #1a2e4a; stroke: #111418; stroke-width: 0.6; stroke-linejoin: miter"/>
   </g>
   <g id="patch_4">
    <path d="M 94.176 253.161299 
L 192.9978 253.161299 
L 192.9978 226.472616 
L 94.176 226.472616 
z
" clip-path="url(#p1fb9ce19e3)" style="fill: #1a2e4a; stroke: #111418; stroke-width: 0.6; stroke-linejoin: miter"/>
   </g>
   <g id="patch_5">
    <path d="M 94.176 210.115036 
L 194.2812 210.115036 
L 194.2812 183.426353 
L 94.176 183.426353 
z
" clip-path="url(#p1fb9ce19e3)" style="fill: #1a2e4a; stroke: #111418; stroke-width: 0.6; stroke-linejoin: miter"/>
   </g>
   <g id="patch_6">
    <path d="M 94.176 167.068772 
L 222.516 167.068772 
L 222.516 140.380089 
L 94.176 140.380089 
z
" clip-path="url(#p1fb9ce19e3)" style="fill: #c9a646; stroke: #111418; stroke-width: 0.6; stroke-linejoin: miter"/>
   </g>
   <g id="patch_7">
    <path d="M 94.176 124.022509 
L 239.2002 124.022509 
L 239.2002 97.333826 
L 94.176 97.333826 
z
" clip-path="url(#p1fb9ce19e3)" style="fill: #1a2e4a; stroke: #111418; stroke-width: 0.6; stroke-linejoin: miter"/>
   </g>
   <g id="patch_8">
    <path d="M 94.176 80.976246 
L 479.196 80.976246 
L 479.196 54.287562 
L 94.176 54.287562 
z
" clip-path="url(#p1fb9ce19e3)" style="fill: #1a2e4a; stroke: #111418; stroke-width: 0.6; stroke-linejoin: miter"/>
   </g>
   <g id="patch_9">
    <path d="M 94.176 308.303562 
L 94.176 42.191562 
" style="fill: none; stroke: #262626; stroke-width: 0.8; stroke-linejoin: miter; stroke-linecap: square"/>
   </g>
   <g id="patch_10">
    <path d="M 607.536 308.303562 
L 607.536 42.191562 
" style="fill: none; stroke: #262626; stroke-width: 0.8; stroke-linejoin: miter; stroke-linecap: square"/>
   </g>
   <g id="patch_11">
    <path d="M 94.176 308.303562 
L 607.536 308.303562 
" style="fill: none; stroke: #262626; stroke-width: 0.8; stroke-linejoin: miter; stroke-linecap: square"/>
   </g>
   <g id="patch_12">
    <path d="M 94.176 42.191562 
L 607.536 42.191562 
" style="fill: none; stroke: #262626; stroke-width: 0.8; stroke-linejoin: miter; stroke-linecap: square"/>
   </g>
   <g id="text_17">
    <!-- €0 (모든 거래) -->
    <g style="fill: #111418" transform="translate(104.4432 285.321346) scale(0.095 -0.095)">
     <defs>
      <path id="Arial-BoldMT-20ac" d="M 3359 4469 
L 3175 3603 
Q 2909 3869 2400 3869 
Q 1891 3869 1575 3503 
Q 1397 3297 1322 2988 
L 3041 2988 
L 2941 2503 
L 1259 2503 
Q 1256 2431 1256 2319 
Q 1256 2209 1263 2091 
L 2853 2091 
L 2753 1606 
L 1328 1606 
Q 1406 1272 1569 1081 
Q 1881 713 2381 713 
Q 2981 713 3338 1081 
L 3338 125 
Q 2931 -78 2391 -78 
Q 1478 -78 891 547 
Q 491 972 363 1606 
L -100 1606 
L 0 2091 
L 306 2091 
Q 303 2166 303 2250 
Q 303 2394 309 2503 
L -100 2503 
L 0 2988 
L 372 2988 
Q 503 3609 894 4028 
Q 1484 4659 2447 4659 
Q 2972 4659 3359 4469 
z
" transform="scale(0.015625)"/>
      <path id="Arial-BoldMT-30" d="M 1756 4600 
Q 2422 4600 2797 4125 
Q 3244 3563 3244 2259 
Q 3244 959 2794 391 
Q 2422 -78 1756 -78 
Q 1088 -78 678 436 
Q 269 950 269 2269 
Q 269 3563 719 4131 
Q 1091 4600 1756 4600 
z
M 1756 3872 
Q 1597 3872 1472 3770 
Q 1347 3669 1278 3406 
Q 1188 3066 1188 2259 
Q 1188 1453 1269 1151 
Q 1350 850 1473 750 
Q 1597 650 1756 650 
Q 1916 650 2041 751 
Q 2166 853 2234 1116 
Q 2325 1453 2325 2259 
Q 2325 3066 2244 3367 
Q 2163 3669 2039 3770 
Q 1916 3872 1756 3872 
z
" transform="scale(0.015625)"/>
      <path id="Arial-BoldMT-20" transform="scale(0.015625)"/>
      <path id="Arial-BoldMT-28" d="M 1916 -1347 
L 1313 -1347 
Q 834 -625 584 153 
Q 334 931 334 1659 
Q 334 2563 644 3369 
Q 913 4069 1325 4659 
L 1925 4659 
Q 1497 3713 1336 3048 
Q 1175 2384 1175 1641 
Q 1175 1128 1270 590 
Q 1366 53 1531 -431 
Q 1641 -750 1916 -1347 
z
" transform="scale(0.015625)"/>
      <path id="Arial-BoldMT-baa8" d="M 800 0 
L 800 4000 
L 4000 4000 
L 4000 0 
L 800 0 
z
M 900 100 
L 3900 100 
L 3900 3900 
L 900 3900 
L 900 100 
z
" transform="scale(0.015625)"/>
      <path id="Arial-BoldMT-b4e0" d="M 800 0 
L 800 4000 
L 4000 4000 
L 4000 0 
L 800 0 
z
M 900 100 
L 3900 100 
L 3900 3900 
L 900 3900 
L 900 100 
z
" transform="scale(0.015625)"/>
      <path id="Arial-BoldMT-ac70" d="M 800 0 
L 800 4000 
L 4000 4000 
L 4000 0 
L 800 0 
z
M 900 100 
L 3900 100 
L 3900 3900 
L 900 3900 
L 900 100 
z
" transform="scale(0.015625)"/>
      <path id="Arial-BoldMT-b798" d="M 800 0 
L 800 4000 
L 4000 4000 
L 4000 0 
L 800 0 
z
M 900 100 
L 3900 100 
L 3900 3900 
L 900 3900 
L 900 100 
z
" transform="scale(0.015625)"/>
      <path id="Arial-BoldMT-29" d="M 216 -1347 
Q 475 -791 581 -494 
Q 688 -197 778 190 
Q 869 578 912 926 
Q 956 1275 956 1641 
Q 956 2384 797 3048 
Q 638 3713 209 4659 
L 806 4659 
Q 1278 3988 1539 3234 
Q 1800 2481 1800 1706 
Q 1800 1053 1594 306 
Q 1359 -531 822 -1347 
L 216 -1347 
z
" transform="scale(0.015625)"/>
     </defs>
     <use xlink:href="#Arial-BoldMT-20ac"/>
     <use xlink:href="#Arial-BoldMT-30" transform="translate(55.615234 0)"/>
     <use xlink:href="#Arial-BoldMT-20" transform="translate(111.230469 0)"/>
     <use xlink:href="#Arial-BoldMT-28" transform="translate(139.013672 0)"/>
     <use xlink:href="#Arial-BoldMT-baa8" transform="translate(172.314453 0)"/>
     <use xlink:href="#Arial-BoldMT-b4e0" transform="translate(247.314453 0)"/>
     <use xlink:href="#Arial-BoldMT-20" transform="translate(322.314453 0)"/>
     <use xlink:href="#Arial-BoldMT-ac70" transform="translate(350.097656 0)"/>
     <use xlink:href="#Arial-BoldMT-b798" transform="translate(425.097656 0)"/>
     <use xlink:href="#Arial-BoldMT-29" transform="translate(500.097656 0)"/>
    </g>
   </g>
   <g id="text_18">
    <!-- ₩1,000,000 -->
    <g style="fill: #111418" transform="translate(203.265 242.279536) scale(0.095 -0.095)">
     <defs>
      <path id="Arial-BoldMT-20a9" d="M 6034 1038 
L 5175 1038 
L 4922 0 
L 3941 0 
L 3666 1038 
L 2394 1038 
L 2119 0 
L 1116 0 
L 869 1038 
L 22 1038 
L 22 1847 
L 675 1847 
L 478 2675 
L 22 2675 
L 22 3481 
L 284 3481 
L 22 4581 
L 969 4581 
L 1209 3481 
L 2203 3481 
L 2497 4581 
L 3597 4581 
L 3872 3481 
L 4863 3481 
L 5103 4581 
L 6034 4581 
L 5769 3481 
L 6034 3481 
L 6034 2675 
L 5572 2675 
L 5372 1847 
L 6034 1847 
L 6034 1038 
z
M 4684 2675 
L 4075 2675 
L 4284 1847 
L 4503 1847 
L 4684 2675 
z
M 3450 1847 
L 3228 2675 
L 2828 2675 
L 2609 1847 
L 3450 1847 
z
M 1991 2675 
L 1388 2675 
L 1569 1847 
L 1769 1847 
L 1991 2675 
z
" transform="scale(0.015625)"/>
      <path id="Arial-BoldMT-31" d="M 2519 0 
L 1641 0 
L 1641 3309 
Q 1159 2859 506 2644 
L 506 3441 
Q 850 3553 1253 3867 
Q 1656 4181 1806 4600 
L 2519 4600 
L 2519 0 
z
" transform="scale(0.015625)"/>
      <path id="Arial-BoldMT-2c" d="M 438 878 
L 1316 878 
L 1316 250 
Q 1316 -131 1250 -351 
Q 1184 -572 1001 -747 
Q 819 -922 538 -1022 
L 366 -659 
Q 631 -572 743 -419 
Q 856 -266 863 0 
L 438 0 
L 438 878 
z
" transform="scale(0.015625)"/>
     </defs>
     <use xlink:href="#Arial-BoldMT-20a9"/>
     <use xlink:href="#Arial-BoldMT-31" transform="translate(94.384766 0)"/>
     <use xlink:href="#Arial-BoldMT-2c" transform="translate(150 0)"/>
     <use xlink:href="#Arial-BoldMT-30" transform="translate(177.783203 0)"/>
     <use xlink:href="#Arial-BoldMT-30" transform="translate(233.398438 0)"/>
     <use xlink:href="#Arial-BoldMT-30" transform="translate(289.013672 0)"/>
     <use xlink:href="#Arial-BoldMT-2c" transform="translate(344.628906 0)"/>
     <use xlink:href="#Arial-BoldMT-30" transform="translate(372.412109 0)"/>
     <use xlink:href="#Arial-BoldMT-30" transform="translate(428.027344 0)"/>
     <use xlink:href="#Arial-BoldMT-30" transform="translate(483.642578 0)"/>
    </g>
   </g>
   <g id="text_19">
    <!-- ¥100,000 -->
    <g style="fill: #111418" transform="translate(204.5484 199.233272) scale(0.095 -0.095)">
     <defs>
      <path id="Arial-BoldMT-a5" d="M 1319 853 
L 159 853 
L 159 1544 
L 1319 1544 
L 1319 1919 
L 159 1919 
L 159 2609 
L 975 2609 
L 3 4581 
L 966 4581 
L 1591 3250 
Q 1709 3000 1759 2809 
Q 1819 3016 1928 3250 
L 2566 4581 
L 3528 4581 
L 2544 2609 
L 3372 2609 
L 3372 1919 
L 2197 1919 
L 2197 1544 
L 3372 1544 
L 3372 853 
L 2197 853 
L 2197 0 
L 1319 0 
L 1319 853 
z
" transform="scale(0.015625)"/>
     </defs>
     <use xlink:href="#Arial-BoldMT-a5"/>
     <use xlink:href="#Arial-BoldMT-31" transform="translate(55.615234 0)"/>
     <use xlink:href="#Arial-BoldMT-30" transform="translate(111.230469 0)"/>
     <use xlink:href="#Arial-BoldMT-30" transform="translate(166.845703 0)"/>
     <use xlink:href="#Arial-BoldMT-2c" transform="translate(222.460938 0)"/>
     <use xlink:href="#Arial-BoldMT-30" transform="translate(250.244141 0)"/>
     <use xlink:href="#Arial-BoldMT-30" transform="translate(305.859375 0)"/>
     <use xlink:href="#Arial-BoldMT-30" transform="translate(361.474609 0)"/>
    </g>
   </g>
   <g id="text_20">
    <!-- USD/EUR 1,000 -->
    <g style="fill: #111418" transform="translate(232.7832 156.187009) scale(0.095 -0.095)">
     <defs>
      <path id="Arial-BoldMT-55" d="M 459 4581 
L 1384 4581 
L 1384 2100 
Q 1384 1509 1419 1334 
Q 1478 1053 1701 883 
Q 1925 713 2313 713 
Q 2706 713 2906 873 
Q 3106 1034 3147 1268 
Q 3188 1503 3188 2047 
L 3188 4581 
L 4113 4581 
L 4113 2175 
Q 4113 1350 4038 1009 
Q 3963 669 3761 434 
Q 3559 200 3221 61 
Q 2884 -78 2341 -78 
Q 1684 -78 1345 73 
Q 1006 225 809 467 
Q 613 709 550 975 
Q 459 1369 459 2138 
L 459 4581 
z
" transform="scale(0.015625)"/>
      <path id="Arial-BoldMT-53" d="M 231 1491 
L 1131 1578 
Q 1213 1125 1461 912 
Q 1709 700 2131 700 
Q 2578 700 2804 889 
Q 3031 1078 3031 1331 
Q 3031 1494 2936 1608 
Q 2841 1722 2603 1806 
Q 2441 1863 1863 2006 
Q 1119 2191 819 2459 
Q 397 2838 397 3381 
Q 397 3731 595 4036 
Q 794 4341 1167 4500 
Q 1541 4659 2069 4659 
Q 2931 4659 3367 4281 
Q 3803 3903 3825 3272 
L 2900 3231 
Q 2841 3584 2645 3739 
Q 2450 3894 2059 3894 
Q 1656 3894 1428 3728 
Q 1281 3622 1281 3444 
Q 1281 3281 1419 3166 
Q 1594 3019 2269 2859 
Q 2944 2700 3267 2529 
Q 3591 2359 3773 2064 
Q 3956 1769 3956 1334 
Q 3956 941 3737 597 
Q 3519 253 3119 86 
Q 2719 -81 2122 -81 
Q 1253 -81 787 320 
Q 322 722 231 1491 
z
" transform="scale(0.015625)"/>
      <path id="Arial-BoldMT-44" d="M 463 4581 
L 2153 4581 
Q 2725 4581 3025 4494 
Q 3428 4375 3715 4072 
Q 4003 3769 4153 3330 
Q 4303 2891 4303 2247 
Q 4303 1681 4163 1272 
Q 3991 772 3672 463 
Q 3431 228 3022 97 
Q 2716 0 2203 0 
L 463 0 
L 463 4581 
z
M 1388 3806 
L 1388 772 
L 2078 772 
Q 2466 772 2638 816 
Q 2863 872 3011 1006 
Q 3159 1141 3253 1448 
Q 3347 1756 3347 2288 
Q 3347 2819 3253 3103 
Q 3159 3388 2990 3547 
Q 2822 3706 2563 3763 
Q 2369 3806 1803 3806 
L 1388 3806 
z
" transform="scale(0.015625)"/>
      <path id="Arial-BoldMT-2f" d="M -9 -78 
L 1125 4659 
L 1784 4659 
L 638 -78 
L -9 -78 
z
" transform="scale(0.015625)"/>
      <path id="Arial-BoldMT-45" d="M 466 0 
L 466 4581 
L 3863 4581 
L 3863 3806 
L 1391 3806 
L 1391 2791 
L 3691 2791 
L 3691 2019 
L 1391 2019 
L 1391 772 
L 3950 772 
L 3950 0 
L 466 0 
z
" transform="scale(0.015625)"/>
      <path id="Arial-BoldMT-52" d="M 469 0 
L 469 4581 
L 2416 4581 
Q 3150 4581 3483 4457 
Q 3816 4334 4016 4018 
Q 4216 3703 4216 3297 
Q 4216 2781 3912 2445 
Q 3609 2109 3006 2022 
Q 3306 1847 3501 1637 
Q 3697 1428 4028 894 
L 4588 0 
L 3481 0 
L 2813 997 
Q 2456 1531 2325 1670 
Q 2194 1809 2047 1861 
Q 1900 1913 1581 1913 
L 1394 1913 
L 1394 0 
L 469 0 
z
M 1394 2644 
L 2078 2644 
Q 2744 2644 2909 2700 
Q 3075 2756 3169 2893 
Q 3263 3031 3263 3238 
Q 3263 3469 3139 3611 
Q 3016 3753 2791 3791 
Q 2678 3806 2116 3806 
L 1394 3806 
L 1394 2644 
z
" transform="scale(0.015625)"/>
     </defs>
     <use xlink:href="#Arial-BoldMT-55"/>
     <use xlink:href="#Arial-BoldMT-53" transform="translate(72.216797 0)"/>
     <use xlink:href="#Arial-BoldMT-44" transform="translate(138.916016 0)"/>
     <use xlink:href="#Arial-BoldMT-2f" transform="translate(211.132812 0)"/>
     <use xlink:href="#Arial-BoldMT-45" transform="translate(238.916016 0)"/>
     <use xlink:href="#Arial-BoldMT-55" transform="translate(305.615234 0)"/>
     <use xlink:href="#Arial-BoldMT-52" transform="translate(377.832031 0)"/>
     <use xlink:href="#Arial-BoldMT-20" transform="translate(450.048828 0)"/>
     <use xlink:href="#Arial-BoldMT-31" transform="translate(477.832031 0)"/>
     <use xlink:href="#Arial-BoldMT-2c" transform="translate(533.447266 0)"/>
     <use xlink:href="#Arial-BoldMT-30" transform="translate(561.230469 0)"/>
     <use xlink:href="#Arial-BoldMT-30" transform="translate(616.845703 0)"/>
     <use xlink:href="#Arial-BoldMT-30" transform="translate(672.460938 0)"/>
    </g>
   </g>
   <g id="text_21">
    <!-- SGD 1,500 -->
    <g style="fill: #111418" transform="translate(249.4674 113.140746) scale(0.095 -0.095)">
     <defs>
      <path id="Arial-BoldMT-47" d="M 2597 1684 
L 2597 2456 
L 4591 2456 
L 4591 631 
Q 4300 350 3748 136 
Q 3197 -78 2631 -78 
Q 1913 -78 1378 223 
Q 844 525 575 1086 
Q 306 1647 306 2306 
Q 306 3022 606 3578 
Q 906 4134 1484 4431 
Q 1925 4659 2581 4659 
Q 3434 4659 3914 4301 
Q 4394 3944 4531 3313 
L 3613 3141 
Q 3516 3478 3248 3673 
Q 2981 3869 2581 3869 
Q 1975 3869 1617 3484 
Q 1259 3100 1259 2344 
Q 1259 1528 1621 1120 
Q 1984 713 2572 713 
Q 2863 713 3155 827 
Q 3447 941 3656 1103 
L 3656 1684 
L 2597 1684 
z
" transform="scale(0.015625)"/>
      <path id="Arial-BoldMT-35" d="M 284 1178 
L 1159 1269 
Q 1197 972 1381 798 
Q 1566 625 1806 625 
Q 2081 625 2272 848 
Q 2463 1072 2463 1522 
Q 2463 1944 2273 2155 
Q 2084 2366 1781 2366 
Q 1403 2366 1103 2031 
L 391 2134 
L 841 4519 
L 3163 4519 
L 3163 3697 
L 1506 3697 
L 1369 2919 
Q 1663 3066 1969 3066 
Q 2553 3066 2959 2641 
Q 3366 2216 3366 1538 
Q 3366 972 3038 528 
Q 2591 -78 1797 -78 
Q 1163 -78 763 262 
Q 363 603 284 1178 
z
" transform="scale(0.015625)"/>
     </defs>
     <use xlink:href="#Arial-BoldMT-53"/>
     <use xlink:href="#Arial-BoldMT-47" transform="translate(66.699219 0)"/>
     <use xlink:href="#Arial-BoldMT-44" transform="translate(144.482422 0)"/>
     <use xlink:href="#Arial-BoldMT-20" transform="translate(216.699219 0)"/>
     <use xlink:href="#Arial-BoldMT-31" transform="translate(244.482422 0)"/>
     <use xlink:href="#Arial-BoldMT-2c" transform="translate(300.097656 0)"/>
     <use xlink:href="#Arial-BoldMT-35" transform="translate(327.880859 0)"/>
     <use xlink:href="#Arial-BoldMT-30" transform="translate(383.496094 0)"/>
     <use xlink:href="#Arial-BoldMT-30" transform="translate(439.111328 0)"/>
    </g>
   </g>
   <g id="text_22">
    <!-- $3,000 -->
    <g style="fill: #111418" transform="translate(489.4632 70.189482) scale(0.095 -0.095)">
     <defs>
      <path id="Arial-BoldMT-24" d="M 1528 678 
L 1528 1988 
Q 916 2163 630 2517 
Q 344 2872 344 3378 
Q 344 3891 667 4239 
Q 991 4588 1528 4641 
L 1528 4950 
L 1981 4950 
L 1981 4641 
Q 2478 4581 2772 4301 
Q 3066 4022 3147 3553 
L 2356 3450 
Q 2284 3819 1981 3950 
L 1981 2728 
Q 2731 2525 3003 2201 
Q 3275 1878 3275 1372 
Q 3275 806 2933 418 
Q 2591 31 1981 -56 
L 1981 -641 
L 1528 -641 
L 1528 -72 
Q 988 -6 650 331 
Q 313 669 219 1284 
L 1034 1372 
Q 1084 1122 1221 940 
Q 1359 759 1528 678 
z
M 1528 3959 
Q 1344 3897 1234 3747 
Q 1125 3597 1125 3416 
Q 1125 3250 1225 3108 
Q 1325 2966 1528 2878 
L 1528 3959 
z
M 1981 634 
Q 2216 678 2362 851 
Q 2509 1025 2509 1259 
Q 2509 1469 2386 1620 
Q 2263 1772 1981 1853 
L 1981 634 
z
" transform="scale(0.015625)"/>
      <path id="Arial-BoldMT-33" d="M 241 1216 
L 1091 1319 
Q 1131 994 1309 822 
Q 1488 650 1741 650 
Q 2013 650 2198 856 
Q 2384 1063 2384 1413 
Q 2384 1744 2206 1937 
Q 2028 2131 1772 2131 
Q 1603 2131 1369 2066 
L 1466 2781 
Q 1822 2772 2009 2936 
Q 2197 3100 2197 3372 
Q 2197 3603 2059 3740 
Q 1922 3878 1694 3878 
Q 1469 3878 1309 3722 
Q 1150 3566 1116 3266 
L 306 3403 
Q 391 3819 561 4067 
Q 731 4316 1036 4458 
Q 1341 4600 1719 4600 
Q 2366 4600 2756 4188 
Q 3078 3850 3078 3425 
Q 3078 2822 2419 2463 
Q 2813 2378 3048 2084 
Q 3284 1791 3284 1375 
Q 3284 772 2843 347 
Q 2403 -78 1747 -78 
Q 1125 -78 715 280 
Q 306 638 241 1216 
z
" transform="scale(0.015625)"/>
     </defs>
     <use xlink:href="#Arial-BoldMT-24"/>
     <use xlink:href="#Arial-BoldMT-33" transform="translate(55.615234 0)"/>
     <use xlink:href="#Arial-BoldMT-2c" transform="translate(111.230469 0)"/>
     <use xlink:href="#Arial-BoldMT-30" transform="translate(139.013672 0)"/>
     <use xlink:href="#Arial-BoldMT-30" transform="translate(194.628906 0)"/>
     <use xlink:href="#Arial-BoldMT-30" transform="translate(250.244141 0)"/>
    </g>
   </g>
   <g id="text_23">
    <!-- 관할별 Travel Rule 임계금액 — EU가 가장 엄격 (임계 0) -->
    <g style="fill: #111418" transform="translate(94.176 28.191562) scale(0.14 -0.14)">
     <defs>
      <path id="Arial-BoldMT-ad00" d="M 800 0 
L 800 4000 
L 4000 4000 
L 4000 0 
L 800 0 
z
M 900 100 
L 3900 100 
L 3900 3900 
L 900 3900 
L 900 100 
z
" transform="scale(0.015625)"/>
      <path id="Arial-BoldMT-d560" d="M 800 0 
L 800 4000 
L 4000 4000 
L 4000 0 
L 800 0 
z
M 900 100 
L 3900 100 
L 3900 3900 
L 900 3900 
L 900 100 
z
" transform="scale(0.015625)"/>
      <path id="Arial-BoldMT-bcc4" d="M 800 0 
L 800 4000 
L 4000 4000 
L 4000 0 
L 800 0 
z
M 900 100 
L 3900 100 
L 3900 3900 
L 900 3900 
L 900 100 
z
" transform="scale(0.015625)"/>
      <path id="Arial-BoldMT-54" d="M 1497 0 
L 1497 3806 
L 138 3806 
L 138 4581 
L 3778 4581 
L 3778 3806 
L 2422 3806 
L 2422 0 
L 1497 0 
z
" transform="scale(0.015625)"/>
      <path id="Arial-BoldMT-72" d="M 1300 0 
L 422 0 
L 422 3319 
L 1238 3319 
L 1238 2847 
Q 1447 3181 1614 3287 
Q 1781 3394 1994 3394 
Q 2294 3394 2572 3228 
L 2300 2463 
Q 2078 2606 1888 2606 
Q 1703 2606 1575 2504 
Q 1447 2403 1373 2137 
Q 1300 1872 1300 1025 
L 1300 0 
z
" transform="scale(0.015625)"/>
      <path id="Arial-BoldMT-61" d="M 1116 2306 
L 319 2450 
Q 453 2931 781 3162 
Q 1109 3394 1756 3394 
Q 2344 3394 2631 3255 
Q 2919 3116 3036 2902 
Q 3153 2688 3153 2116 
L 3144 1091 
Q 3144 653 3186 445 
Q 3228 238 3344 0 
L 2475 0 
Q 2441 88 2391 259 
Q 2369 338 2359 363 
Q 2134 144 1878 34 
Q 1622 -75 1331 -75 
Q 819 -75 523 203 
Q 228 481 228 906 
Q 228 1188 362 1408 
Q 497 1628 739 1745 
Q 981 1863 1438 1950 
Q 2053 2066 2291 2166 
L 2291 2253 
Q 2291 2506 2166 2614 
Q 2041 2722 1694 2722 
Q 1459 2722 1328 2630 
Q 1197 2538 1116 2306 
z
M 2291 1594 
Q 2122 1538 1756 1459 
Q 1391 1381 1278 1306 
Q 1106 1184 1106 997 
Q 1106 813 1243 678 
Q 1381 544 1594 544 
Q 1831 544 2047 700 
Q 2206 819 2256 991 
Q 2291 1103 2291 1419 
L 2291 1594 
z
" transform="scale(0.015625)"/>
      <path id="Arial-BoldMT-76" d="M 1372 0 
L 34 3319 
L 956 3319 
L 1581 1625 
L 1763 1059 
Q 1834 1275 1853 1344 
Q 1897 1484 1947 1625 
L 2578 3319 
L 3481 3319 
L 2163 0 
L 1372 0 
z
" transform="scale(0.015625)"/>
      <path id="Arial-BoldMT-65" d="M 2381 1056 
L 3256 909 
Q 3088 428 2723 176 
Q 2359 -75 1813 -75 
Q 947 -75 531 491 
Q 203 944 203 1634 
Q 203 2459 634 2926 
Q 1066 3394 1725 3394 
Q 2466 3394 2894 2905 
Q 3322 2416 3303 1406 
L 1103 1406 
Q 1113 1016 1316 798 
Q 1519 581 1822 581 
Q 2028 581 2168 693 
Q 2309 806 2381 1056 
z
M 2431 1944 
Q 2422 2325 2234 2523 
Q 2047 2722 1778 2722 
Q 1491 2722 1303 2513 
Q 1116 2303 1119 1944 
L 2431 1944 
z
" transform="scale(0.015625)"/>
      <path id="Arial-BoldMT-6c" d="M 459 0 
L 459 4581 
L 1338 4581 
L 1338 0 
L 459 0 
z
" transform="scale(0.015625)"/>
      <path id="Arial-BoldMT-75" d="M 2644 0 
L 2644 497 
Q 2463 231 2167 78 
Q 1872 -75 1544 -75 
Q 1209 -75 943 72 
Q 678 219 559 484 
Q 441 750 441 1219 
L 441 3319 
L 1319 3319 
L 1319 1794 
Q 1319 1094 1367 936 
Q 1416 778 1544 686 
Q 1672 594 1869 594 
Q 2094 594 2272 717 
Q 2450 841 2515 1023 
Q 2581 1206 2581 1919 
L 2581 3319 
L 3459 3319 
L 3459 0 
L 2644 0 
z
" transform="scale(0.015625)"/>
      <path id="Arial-BoldMT-c784" d="M 800 0 
L 800 4000 
L 4000 4000 
L 4000 0 
L 800 0 
z
M 900 100 
L 3900 100 
L 3900 3900 
L 900 3900 
L 900 100 
z
" transform="scale(0.015625)"/>
      <path id="Arial-BoldMT-acc4" d="M 800 0 
L 800 4000 
L 4000 4000 
L 4000 0 
L 800 0 
z
M 900 100 
L 3900 100 
L 3900 3900 
L 900 3900 
L 900 100 
z
" transform="scale(0.015625)"/>
      <path id="Arial-BoldMT-ae08" d="M 800 0 
L 800 4000 
L 4000 4000 
L 4000 0 
L 800 0 
z
M 900 100 
L 3900 100 
L 3900 3900 
L 900 3900 
L 900 100 
z
" transform="scale(0.015625)"/>
      <path id="Arial-BoldMT-c561" d="M 800 0 
L 800 4000 
L 4000 4000 
L 4000 0 
L 800 0 
z
M 900 100 
L 3900 100 
L 3900 3900 
L 900 3900 
L 900 100 
z
" transform="scale(0.015625)"/>
      <path id="Arial-BoldMT-2014" d="M 0 1331 
L 0 1988 
L 6400 1988 
L 6400 1331 
L 0 1331 
z
" transform="scale(0.015625)"/>
      <path id="Arial-BoldMT-ac00" d="M 800 0 
L 800 4000 
L 4000 4000 
L 4000 0 
L 800 0 
z
M 900 100 
L 3900 100 
L 3900 3900 
L 900 3900 
L 900 100 
z
" transform="scale(0.015625)"/>
      <path id="Arial-BoldMT-c7a5" d="M 800 0 
L 800 4000 
L 4000 4000 
L 4000 0 
L 800 0 
z
M 900 100 
L 3900 100 
L 3900 3900 
L 900 3900 
L 900 100 
z
" transform="scale(0.015625)"/>
      <path id="Arial-BoldMT-c5c4" d="M 800 0 
L 800 4000 
L 4000 4000 
L 4000 0 
L 800 0 
z
M 900 100 
L 3900 100 
L 3900 3900 
L 900 3900 
L 900 100 
z
" transform="scale(0.015625)"/>
      <path id="Arial-BoldMT-aca9" d="M 800 0 
L 800 4000 
L 4000 4000 
L 4000 0 
L 800 0 
z
M 900 100 
L 3900 100 
L 3900 3900 
L 900 3900 
L 900 100 
z
" transform="scale(0.015625)"/>
     </defs>
     <use xlink:href="#Arial-BoldMT-ad00"/>
     <use xlink:href="#Arial-BoldMT-d560" transform="translate(75 0)"/>
     <use xlink:href="#Arial-BoldMT-bcc4" transform="translate(150 0)"/>
     <use xlink:href="#Arial-BoldMT-20" transform="translate(225 0)"/>
     <use xlink:href="#Arial-BoldMT-54" transform="translate(252.783203 0)"/>
     <use xlink:href="#Arial-BoldMT-72" transform="translate(308.367188 0)"/>
     <use xlink:href="#Arial-BoldMT-61" transform="translate(347.283203 0)"/>
     <use xlink:href="#Arial-BoldMT-76" transform="translate(402.898438 0)"/>
     <use xlink:href="#Arial-BoldMT-65" transform="translate(458.513672 0)"/>
     <use xlink:href="#Arial-BoldMT-6c" transform="translate(514.128906 0)"/>
     <use xlink:href="#Arial-BoldMT-20" transform="translate(541.912109 0)"/>
     <use xlink:href="#Arial-BoldMT-52" transform="translate(569.695312 0)"/>
     <use xlink:href="#Arial-BoldMT-75" transform="translate(641.912109 0)"/>
     <use xlink:href="#Arial-BoldMT-6c" transform="translate(702.996094 0)"/>
     <use xlink:href="#Arial-BoldMT-65" transform="translate(730.779297 0)"/>
     <use xlink:href="#Arial-BoldMT-20" transform="translate(786.394531 0)"/>
     <use xlink:href="#Arial-BoldMT-c784" transform="translate(814.177734 0)"/>
     <use xlink:href="#Arial-BoldMT-acc4" transform="translate(889.177734 0)"/>
     <use xlink:href="#Arial-BoldMT-ae08" transform="translate(964.177734 0)"/>
     <use xlink:href="#Arial-BoldMT-c561" transform="translate(1039.177734 0)"/>
     <use xlink:href="#Arial-BoldMT-20" transform="translate(1114.177734 0)"/>
     <use xlink:href="#Arial-BoldMT-2014" transform="translate(1141.960938 0)"/>
     <use xlink:href="#Arial-BoldMT-20" transform="translate(1241.960938 0)"/>
     <use xlink:href="#Arial-BoldMT-45" transform="translate(1269.744141 0)"/>
     <use xlink:href="#Arial-BoldMT-55" transform="translate(1336.443359 0)"/>
     <use xlink:href="#Arial-BoldMT-ac00" transform="translate(1408.660156 0)"/>
     <use xlink:href="#Arial-BoldMT-20" transform="translate(1483.660156 0)"/>
     <use xlink:href="#Arial-BoldMT-ac00" transform="translate(1511.443359 0)"/>
     <use xlink:href="#Arial-BoldMT-c7a5" transform="translate(1586.443359 0)"/>
     <use xlink:href="#Arial-BoldMT-20" transform="translate(1661.443359 0)"/>
     <use xlink:href="#Arial-BoldMT-c5c4" transform="translate(1689.226562 0)"/>
     <use xlink:href="#Arial-BoldMT-aca9" transform="translate(1764.226562 0)"/>
     <use xlink:href="#Arial-BoldMT-20" transform="translate(1839.226562 0)"/>
     <use xlink:href="#Arial-BoldMT-28" transform="translate(1867.009766 0)"/>
     <use xlink:href="#Arial-BoldMT-c784" transform="translate(1900.310547 0)"/>
     <use xlink:href="#Arial-BoldMT-acc4" transform="translate(1975.310547 0)"/>
     <use xlink:href="#Arial-BoldMT-20" transform="translate(2050.310547 0)"/>
     <use xlink:href="#Arial-BoldMT-30" transform="translate(2078.09375 0)"/>
     <use xlink:href="#Arial-BoldMT-29" transform="translate(2133.708984 0)"/>
    </g>
   </g>
  </g>
  <g id="text_24">
   <!-- Source: FATF R.16 · 한국 특금법 시행령 §10의10 · BSA 1996 · EU TFR 2023/1113 -->
   <g style="fill: #6b7280" transform="translate(18 353.231562) scale(0.075 -0.075)">
    <defs>
     <path id="ArialMT-6f" d="M 213 1659 
Q 213 2581 725 3025 
Q 1153 3394 1769 3394 
Q 2453 3394 2887 2945 
Q 3322 2497 3322 1706 
Q 3322 1066 3130 698 
Q 2938 331 2570 128 
Q 2203 -75 1769 -75 
Q 1072 -75 642 372 
Q 213 819 213 1659 
z
M 791 1659 
Q 791 1022 1069 705 
Q 1347 388 1769 388 
Q 2188 388 2466 706 
Q 2744 1025 2744 1678 
Q 2744 2294 2464 2611 
Q 2184 2928 1769 2928 
Q 1347 2928 1069 2612 
Q 791 2297 791 1659 
z
" transform="scale(0.015625)"/>
     <path id="ArialMT-75" d="M 2597 0 
L 2597 488 
Q 2209 -75 1544 -75 
Q 1250 -75 995 37 
Q 741 150 617 320 
Q 494 491 444 738 
Q 409 903 409 1263 
L 409 3319 
L 972 3319 
L 972 1478 
Q 972 1038 1006 884 
Q 1059 663 1231 536 
Q 1403 409 1656 409 
Q 1909 409 2131 539 
Q 2353 669 2445 892 
Q 2538 1116 2538 1541 
L 2538 3319 
L 3100 3319 
L 3100 0 
L 2597 0 
z
" transform="scale(0.015625)"/>
     <path id="ArialMT-72" d="M 416 0 
L 416 3319 
L 922 3319 
L 922 2816 
Q 1116 3169 1280 3281 
Q 1444 3394 1641 3394 
Q 1925 3394 2219 3213 
L 2025 2691 
Q 1819 2813 1613 2813 
Q 1428 2813 1281 2702 
Q 1134 2591 1072 2394 
Q 978 2094 978 1738 
L 978 0 
L 416 0 
z
" transform="scale(0.015625)"/>
     <path id="ArialMT-63" d="M 2588 1216 
L 3141 1144 
Q 3050 572 2676 248 
Q 2303 -75 1759 -75 
Q 1078 -75 664 370 
Q 250 816 250 1647 
Q 250 2184 428 2587 
Q 606 2991 970 3192 
Q 1334 3394 1763 3394 
Q 2303 3394 2647 3120 
Q 2991 2847 3088 2344 
L 2541 2259 
Q 2463 2594 2264 2762 
Q 2066 2931 1784 2931 
Q 1359 2931 1093 2626 
Q 828 2322 828 1663 
Q 828 994 1084 691 
Q 1341 388 1753 388 
Q 2084 388 2306 591 
Q 2528 794 2588 1216 
z
" transform="scale(0.015625)"/>
     <path id="ArialMT-65" d="M 2694 1069 
L 3275 997 
Q 3138 488 2766 206 
Q 2394 -75 1816 -75 
Q 1088 -75 661 373 
Q 234 822 234 1631 
Q 234 2469 665 2931 
Q 1097 3394 1784 3394 
Q 2450 3394 2872 2941 
Q 3294 2488 3294 1666 
Q 3294 1616 3291 1516 
L 816 1516 
Q 847 969 1125 678 
Q 1403 388 1819 388 
Q 2128 388 2347 550 
Q 2566 713 2694 1069 
z
M 847 1978 
L 2700 1978 
Q 2663 2397 2488 2606 
Q 2219 2931 1791 2931 
Q 1403 2931 1139 2672 
Q 875 2413 847 1978 
z
" transform="scale(0.015625)"/>
     <path id="ArialMT-3a" d="M 578 2678 
L 578 3319 
L 1219 3319 
L 1219 2678 
L 578 2678 
z
M 578 0 
L 578 641 
L 1219 641 
L 1219 0 
L 578 0 
z
" transform="scale(0.015625)"/>
     <path id="ArialMT-2e" d="M 581 0 
L 581 641 
L 1222 641 
L 1222 0 
L 581 0 
z
" transform="scale(0.015625)"/>
     <path id="ArialMT-36" d="M 3184 3459 
L 2625 3416 
Q 2550 3747 2413 3897 
Q 2184 4138 1850 4138 
Q 1581 4138 1378 3988 
Q 1113 3794 959 3422 
Q 806 3050 800 2363 
Q 1003 2672 1297 2822 
Q 1591 2972 1913 2972 
Q 2475 2972 2870 2558 
Q 3266 2144 3266 1488 
Q 3266 1056 3080 686 
Q 2894 316 2569 119 
Q 2244 -78 1831 -78 
Q 1128 -78 684 439 
Q 241 956 241 2144 
Q 241 3472 731 4075 
Q 1159 4600 1884 4600 
Q 2425 4600 2770 4297 
Q 3116 3994 3184 3459 
z
M 888 1484 
Q 888 1194 1011 928 
Q 1134 663 1356 523 
Q 1578 384 1822 384 
Q 2178 384 2434 671 
Q 2691 959 2691 1453 
Q 2691 1928 2437 2201 
Q 2184 2475 1800 2475 
Q 1419 2475 1153 2201 
Q 888 1928 888 1484 
z
" transform="scale(0.015625)"/>
     <path id="ArialMT-b7" d="M 744 1991 
L 744 2631 
L 1384 2631 
L 1384 1991 
L 744 1991 
z
" transform="scale(0.015625)"/>
     <path id="ArialMT-d2b9" d="M 800 0 
L 800 4000 
L 4000 4000 
L 4000 0 
L 800 0 
z
M 900 100 
L 3900 100 
L 3900 3900 
L 900 3900 
L 900 100 
z
" transform="scale(0.015625)"/>
     <path id="ArialMT-bc95" d="M 800 0 
L 800 4000 
L 4000 4000 
L 4000 0 
L 800 0 
z
M 900 100 
L 3900 100 
L 3900 3900 
L 900 3900 
L 900 100 
z
" transform="scale(0.015625)"/>
     <path id="ArialMT-c2dc" d="M 800 0 
L 800 4000 
L 4000 4000 
L 4000 0 
L 800 0 
z
M 900 100 
L 3900 100 
L 3900 3900 
L 900 3900 
L 900 100 
z
" transform="scale(0.015625)"/>
     <path id="ArialMT-d589" d="M 800 0 
L 800 4000 
L 4000 4000 
L 4000 0 
L 800 0 
z
M 900 100 
L 3900 100 
L 3900 3900 
L 900 3900 
L 900 100 
z
" transform="scale(0.015625)"/>
     <path id="ArialMT-b839" d="M 800 0 
L 800 4000 
L 4000 4000 
L 4000 0 
L 800 0 
z
M 900 100 
L 3900 100 
L 3900 3900 
L 900 3900 
L 900 100 
z
" transform="scale(0.015625)"/>
     <path id="ArialMT-a7" d="M 447 -219 
L 1013 -138 
Q 1100 -544 1290 -708 
Q 1481 -872 1809 -872 
Q 2128 -872 2308 -709 
Q 2488 -547 2488 -328 
Q 2488 -169 2375 -34 
Q 2181 200 1313 731 
Q 850 1016 667 1177 
Q 484 1338 368 1556 
Q 253 1775 253 2013 
Q 253 2313 440 2556 
Q 628 2800 956 2897 
Q 734 3109 643 3289 
Q 553 3469 553 3672 
Q 553 4072 865 4365 
Q 1178 4659 1694 4659 
Q 2278 4659 2606 4381 
Q 2934 4103 3000 3575 
L 2416 3516 
Q 2350 3897 2186 4047 
Q 2022 4197 1744 4197 
Q 1456 4197 1279 4042 
Q 1103 3888 1103 3700 
Q 1103 3538 1216 3400 
Q 1391 3188 2172 2713 
Q 2663 2413 2834 2272 
Q 3056 2084 3161 1884 
Q 3266 1684 3266 1450 
Q 3266 1097 3038 847 
Q 2906 703 2556 556 
Q 2806 366 2929 147 
Q 3053 -72 3053 -322 
Q 3053 -597 2897 -842 
Q 2741 -1088 2447 -1217 
Q 2153 -1347 1813 -1347 
Q 1216 -1347 866 -1048 
Q 516 -750 447 -219 
z
M 2275 763 
Q 2506 881 2620 1039 
Q 2734 1197 2734 1347 
Q 2734 1525 2572 1722 
Q 2406 1919 1869 2250 
Q 1441 2513 1231 2681 
Q 978 2538 870 2394 
Q 763 2250 763 2075 
Q 763 1878 906 1700 
Q 1050 1522 1553 1225 
Q 1972 978 2275 763 
z
" transform="scale(0.015625)"/>
     <path id="ArialMT-c758" d="M 800 0 
L 800 4000 
L 4000 4000 
L 4000 0 
L 800 0 
z
M 900 100 
L 3900 100 
L 3900 3900 
L 900 3900 
L 900 100 
z
" transform="scale(0.015625)"/>
     <path id="ArialMT-39" d="M 350 1059 
L 891 1109 
Q 959 728 1153 556 
Q 1347 384 1650 384 
Q 1909 384 2104 503 
Q 2300 622 2425 820 
Q 2550 1019 2634 1356 
Q 2719 1694 2719 2044 
Q 2719 2081 2716 2156 
Q 2547 1888 2255 1720 
Q 1963 1553 1622 1553 
Q 1053 1553 659 1965 
Q 266 2378 266 3053 
Q 266 3750 677 4175 
Q 1088 4600 1706 4600 
Q 2153 4600 2523 4359 
Q 2894 4119 3086 3673 
Q 3278 3228 3278 2384 
Q 3278 1506 3087 986 
Q 2897 466 2520 194 
Q 2144 -78 1638 -78 
Q 1100 -78 759 220 
Q 419 519 350 1059 
z
M 2653 3081 
Q 2653 3566 2395 3850 
Q 2138 4134 1775 4134 
Q 1400 4134 1122 3828 
Q 844 3522 844 3034 
Q 844 2597 1108 2323 
Q 1372 2050 1759 2050 
Q 2150 2050 2401 2323 
Q 2653 2597 2653 3081 
z
" transform="scale(0.015625)"/>
     <path id="ArialMT-2f" d="M 0 -78 
L 1328 4659 
L 1778 4659 
L 453 -78 
L 0 -78 
z
" transform="scale(0.015625)"/>
    </defs>
    <use xlink:href="#ArialMT-53"/>
    <use xlink:href="#ArialMT-6f" transform="translate(66.699219 0)"/>
    <use xlink:href="#ArialMT-75" transform="translate(122.314453 0)"/>
    <use xlink:href="#ArialMT-72" transform="translate(177.929688 0)"/>
    <use xlink:href="#ArialMT-63" transform="translate(211.230469 0)"/>
    <use xlink:href="#ArialMT-65" transform="translate(261.230469 0)"/>
    <use xlink:href="#ArialMT-3a" transform="translate(316.845703 0)"/>
    <use xlink:href="#ArialMT-20" transform="translate(344.628906 0)"/>
    <use xlink:href="#ArialMT-46" transform="translate(372.412109 0)"/>
    <use xlink:href="#ArialMT-41" transform="translate(427.996094 0)"/>
    <use xlink:href="#ArialMT-54" transform="translate(487.320312 0)"/>
    <use xlink:href="#ArialMT-46" transform="translate(548.404297 0)"/>
    <use xlink:href="#ArialMT-20" transform="translate(609.488281 0)"/>
    <use xlink:href="#ArialMT-52" transform="translate(637.271484 0)"/>
    <use xlink:href="#ArialMT-2e" transform="translate(709.488281 0)"/>
    <use xlink:href="#ArialMT-31" transform="translate(737.271484 0)"/>
    <use xlink:href="#ArialMT-36" transform="translate(792.886719 0)"/>
    <use xlink:href="#ArialMT-20" transform="translate(848.501953 0)"/>
    <use xlink:href="#ArialMT-b7" transform="translate(876.285156 0)"/>
    <use xlink:href="#ArialMT-20" transform="translate(909.585938 0)"/>
    <use xlink:href="#ArialMT-d55c" transform="translate(937.369141 0)"/>
    <use xlink:href="#ArialMT-ad6d" transform="translate(1012.369141 0)"/>
    <use xlink:href="#ArialMT-20" transform="translate(1087.369141 0)"/>
    <use xlink:href="#ArialMT-d2b9" transform="translate(1115.152344 0)"/>
    <use xlink:href="#ArialMT-ae08" transform="translate(1190.152344 0)"/>
    <use xlink:href="#ArialMT-bc95" transform="translate(1265.152344 0)"/>
    <use xlink:href="#ArialMT-20" transform="translate(1340.152344 0)"/>
    <use xlink:href="#ArialMT-c2dc" transform="translate(1367.935547 0)"/>
    <use xlink:href="#ArialMT-d589" transform="translate(1442.935547 0)"/>
    <use xlink:href="#ArialMT-b839" transform="translate(1517.935547 0)"/>
    <use xlink:href="#ArialMT-20" transform="translate(1592.935547 0)"/>
    <use xlink:href="#ArialMT-a7" transform="translate(1620.71875 0)"/>
    <use xlink:href="#ArialMT-31" transform="translate(1676.333984 0)"/>
    <use xlink:href="#ArialMT-30" transform="translate(1731.949219 0)"/>
    <use xlink:href="#ArialMT-c758" transform="translate(1787.564453 0)"/>
    <use xlink:href="#ArialMT-31" transform="translate(1862.564453 0)"/>
    <use xlink:href="#ArialMT-30" transform="translate(1918.179688 0)"/>
    <use xlink:href="#ArialMT-20" transform="translate(1973.794922 0)"/>
    <use xlink:href="#ArialMT-b7" transform="translate(2001.578125 0)"/>
    <use xlink:href="#ArialMT-20" transform="translate(2034.878906 0)"/>
    <use xlink:href="#ArialMT-42" transform="translate(2062.662109 0)"/>
    <use xlink:href="#ArialMT-53" transform="translate(2129.361328 0)"/>
    <use xlink:href="#ArialMT-41" transform="translate(2196.060547 0)"/>
    <use xlink:href="#ArialMT-20" transform="translate(2257.259766 0)"/>
    <use xlink:href="#ArialMT-31" transform="translate(2285.042969 0)"/>
    <use xlink:href="#ArialMT-39" transform="translate(2340.658203 0)"/>
    <use xlink:href="#ArialMT-39" transform="translate(2396.273438 0)"/>
    <use xlink:href="#ArialMT-36" transform="translate(2451.888672 0)"/>
    <use xlink:href="#ArialMT-20" transform="translate(2507.503906 0)"/>
    <use xlink:href="#ArialMT-b7" transform="translate(2535.287109 0)"/>
    <use xlink:href="#ArialMT-20" transform="translate(2568.587891 0)"/>
    <use xlink:href="#ArialMT-45" transform="translate(2596.371094 0)"/>
    <use xlink:href="#ArialMT-55" transform="translate(2663.070312 0)"/>
    <use xlink:href="#ArialMT-20" transform="translate(2735.287109 0)"/>
    <use xlink:href="#ArialMT-54" transform="translate(2761.320312 0)"/>
    <use xlink:href="#ArialMT-46" transform="translate(2822.404297 0)"/>
    <use xlink:href="#ArialMT-52" transform="translate(2883.488281 0)"/>
    <use xlink:href="#ArialMT-20" transform="translate(2955.705078 0)"/>
    <use xlink:href="#ArialMT-32" transform="translate(2983.488281 0)"/>
    <use xlink:href="#ArialMT-30" transform="translate(3039.103516 0)"/>
    <use xlink:href="#ArialMT-32" transform="translate(3094.71875 0)"/>
    <use xlink:href="#ArialMT-33" transform="translate(3150.333984 0)"/>
    <use xlink:href="#ArialMT-2f" transform="translate(3205.949219 0)"/>
    <use xlink:href="#ArialMT-31" transform="translate(3233.732422 0)"/>
    <use xlink:href="#ArialMT-31" transform="translate(3281.972656 0)"/>
    <use xlink:href="#ArialMT-31" transform="translate(3330.212891 0)"/>
    <use xlink:href="#ArialMT-33" transform="translate(3385.828125 0)"/>
   </g>
  </g>
 </g>
 <defs>
  <clipPath id="p1fb9ce19e3">
   <rect x="94.176" y="42.191562" width="513.36" height="266.112"/>
  </clipPath>
 </defs>
</svg>
