<?xml version="1.0" encoding="utf-8" standalone="no"?>
<!DOCTYPE svg PUBLIC "-//W3C//DTD SVG 1.1//EN"
  "http://www.w3.org/Graphics/SVG/1.1/DTD/svg11.dtd">
<svg xmlns:xlink="http://www.w3.org/1999/xlink" width="638.912953pt" height="373.995547pt" viewBox="0 0 638.912953 373.995547" xmlns="http://www.w3.org/2000/svg" version="1.1">
 <metadata>
  <rdf:RDF xmlns:dc="http://purl.org/dc/elements/1.1/" xmlns:cc="http://creativecommons.org/ns#" xmlns:rdf="http://www.w3.org/1999/02/22-rdf-syntax-ns#">
   <cc:Work>
    <dc:type rdf:resource="http://purl.org/dc/dcmitype/StillImage"/>
    <dc:date>2026-04-21T11:08:31.797997</dc:date>
    <dc:format>image/svg+xml</dc:format>
    <dc:creator>
     <cc:Agent>
      <dc:title>Matplotlib v3.10.8, https://matplotlib.org/</dc:title>
     </cc:Agent>
    </dc:creator>
   </cc:Work>
  </rdf:RDF>
 </metadata>
 <defs>
  <style type="text/css">*{stroke-linejoin: round; stroke-linecap: butt}</style>
 </defs>
 <g id="figure_1">
  <g id="patch_1">
   <path d="M 0 373.995547 
L 638.912953 373.995547 
L 638.912953 0 
L 0 0 
z
" style="fill: #ffffff"/>
  </g>
  <g id="axes_1">
   <g id="patch_2">
    <path d="M 94.176 309.2945 
L 607.536 309.2945 
L 607.536 43.1825 
L 94.176 43.1825 
z
" style="fill: #ffffff"/>
   </g>
   <g id="matplotlib.axis_1">
    <g id="xtick_1">
     <g id="line2d_1">
      <path d="M 94.176 309.2945 
L 94.176 43.1825 
" clip-path="url(#p9cf2a9d584)" style="fill: none; stroke: #d8dbe0; stroke-width: 0.5; stroke-linecap: round"/>
     </g>
     <g id="line2d_2">
      <defs>
       <path id="mf5a725eae6" d="M 0 0 
L 0 3.5 
" style="stroke: #3a414a; stroke-width: 0.8"/>
      </defs>
      <g>
       <use xlink:href="#mf5a725eae6" x="94.176" y="309.2945" style="fill: #3a414a; stroke: #3a414a; stroke-width: 0.8"/>
      </g>
     </g>
     <g id="text_1">
      <!-- $0 -->
      <g style="fill: #3a414a" transform="translate(89.218969 323.127469) scale(0.09 -0.09)">
       <defs>
        <path id="MalgunGothic-24" d="M 1963 -672 
L 1638 -672 
L 1638 0 
Q 953 0 534 272 
L 534 809 
Q 703 653 1039 537 
Q 1375 422 1638 428 
L 1638 2103 
Q 922 2453 725 2731 
Q 528 3009 528 3400 
Q 528 3841 842 4192 
Q 1156 4544 1638 4603 
L 1638 5181 
L 1963 5181 
L 1963 4616 
Q 2594 4597 2822 4441 
L 2822 3916 
Q 2509 4172 1963 4188 
L 1963 2466 
Q 2497 2200 2803 1912 
Q 3109 1625 3109 1181 
Q 3109 725 2804 420 
Q 2500 116 1963 28 
L 1963 -672 
z
M 1638 4172 
Q 1044 4031 1044 3469 
Q 1044 3222 1136 3056 
Q 1228 2891 1638 2644 
L 1638 4172 
z
M 1963 453 
Q 2591 594 2591 1134 
Q 2591 1588 1963 1934 
L 1963 453 
z
" transform="scale(0.015625)"/>
        <path id="MalgunGothic-30" d="M 278 2206 
Q 278 3425 675 4050 
Q 1072 4675 1819 4675 
Q 3253 4675 3253 2319 
Q 3253 1156 2854 539 
Q 2456 -78 1716 -78 
Q 1016 -78 647 520 
Q 278 1119 278 2206 
z
M 784 2231 
Q 784 344 1769 344 
Q 2747 344 2747 2259 
Q 2747 4250 1794 4250 
Q 784 4250 784 2231 
z
" transform="scale(0.015625)"/>
       </defs>
       <use xlink:href="#MalgunGothic-24"/>
       <use xlink:href="#MalgunGothic-30" transform="translate(55.078125 0)"/>
      </g>
     </g>
    </g>
    <g id="xtick_2">
     <g id="line2d_3">
      <path d="M 158.346 309.2945 
L 158.346 43.1825 
" clip-path="url(#p9cf2a9d584)" style="fill: none; stroke: #d8dbe0; stroke-width: 0.5; stroke-linecap: round"/>
     </g>
     <g id="line2d_4">
      <g>
       <use xlink:href="#mf5a725eae6" x="158.346" y="309.2945" style="fill: #3a414a; stroke: #3a414a; stroke-width: 0.8"/>
      </g>
     </g>
     <g id="text_2">
      <!-- $500 -->
      <g style="fill: #3a414a" transform="translate(148.431938 323.127469) scale(0.09 -0.09)">
       <defs>
        <path id="MalgunGothic-35" d="M 3072 1403 
Q 3072 722 2636 322 
Q 2200 -78 1469 -78 
Q 828 -78 516 113 
L 516 650 
Q 994 344 1475 344 
Q 1969 344 2270 630 
Q 2572 916 2572 1372 
Q 2572 1838 2265 2092 
Q 1959 2347 1381 2347 
Q 994 2347 603 2300 
L 759 4600 
L 2869 4600 
L 2869 4147 
L 1206 4147 
L 1106 2763 
Q 1347 2784 1547 2784 
Q 2263 2784 2667 2414 
Q 3072 2044 3072 1403 
z
" transform="scale(0.015625)"/>
       </defs>
       <use xlink:href="#MalgunGothic-24"/>
       <use xlink:href="#MalgunGothic-35" transform="translate(55.078125 0)"/>
       <use xlink:href="#MalgunGothic-30" transform="translate(110.15625 0)"/>
       <use xlink:href="#MalgunGothic-30" transform="translate(165.234375 0)"/>
      </g>
     </g>
    </g>
    <g id="xtick_3">
     <g id="line2d_5">
      <path d="M 222.516 309.2945 
L 222.516 43.1825 
" clip-path="url(#p9cf2a9d584)" style="fill: none; stroke: #d8dbe0; stroke-width: 0.5; stroke-linecap: round"/>
     </g>
     <g id="line2d_6">
      <g>
       <use xlink:href="#mf5a725eae6" x="222.516" y="309.2945" style="fill: #3a414a; stroke: #3a414a; stroke-width: 0.8"/>
      </g>
     </g>
     <g id="text_3">
      <!-- $1,000 -->
      <g style="fill: #3a414a" transform="translate(209.139047 323.127469) scale(0.09 -0.09)">
       <defs>
        <path id="MalgunGothic-31" d="M 2231 0 
L 1734 0 
L 1734 3972 
Q 1591 3828 1266 3661 
Q 941 3494 672 3428 
L 672 3959 
Q 1016 4056 1409 4275 
Q 1803 4494 2031 4700 
L 2231 4700 
L 2231 0 
z
" transform="scale(0.015625)"/>
        <path id="MalgunGothic-2c" d="M 988 725 
L 472 -850 
L 125 -850 
L 503 725 
L 988 725 
z
" transform="scale(0.015625)"/>
       </defs>
       <use xlink:href="#MalgunGothic-24"/>
       <use xlink:href="#MalgunGothic-31" transform="translate(55.078125 0)"/>
       <use xlink:href="#MalgunGothic-2c" transform="translate(110.15625 0)"/>
       <use xlink:href="#MalgunGothic-30" transform="translate(132.03125 0)"/>
       <use xlink:href="#MalgunGothic-30" transform="translate(187.109375 0)"/>
       <use xlink:href="#MalgunGothic-30" transform="translate(242.1875 0)"/>
      </g>
     </g>
    </g>
    <g id="xtick_4">
     <g id="line2d_7">
      <path d="M 286.686 309.2945 
L 286.686 43.1825 
" clip-path="url(#p9cf2a9d584)" style="fill: none; stroke: #d8dbe0; stroke-width: 0.5; stroke-linecap: round"/>
     </g>
     <g id="line2d_8">
      <g>
       <use xlink:href="#mf5a725eae6" x="286.686" y="309.2945" style="fill: #3a414a; stroke: #3a414a; stroke-width: 0.8"/>
      </g>
     </g>
     <g id="text_4">
      <!-- $1,500 -->
      <g style="fill: #3a414a" transform="translate(273.309047 323.127469) scale(0.09 -0.09)">
       <use xlink:href="#MalgunGothic-24"/>
       <use xlink:href="#MalgunGothic-31" transform="translate(55.078125 0)"/>
       <use xlink:href="#MalgunGothic-2c" transform="translate(110.15625 0)"/>
       <use xlink:href="#MalgunGothic-35" transform="translate(132.03125 0)"/>
       <use xlink:href="#MalgunGothic-30" transform="translate(187.109375 0)"/>
       <use xlink:href="#MalgunGothic-30" transform="translate(242.1875 0)"/>
      </g>
     </g>
    </g>
    <g id="xtick_5">
     <g id="line2d_9">
      <path d="M 350.856 309.2945 
L 350.856 43.1825 
" clip-path="url(#p9cf2a9d584)" style="fill: none; stroke: #d8dbe0; stroke-width: 0.5; stroke-linecap: round"/>
     </g>
     <g id="line2d_10">
      <g>
       <use xlink:href="#mf5a725eae6" x="350.856" y="309.2945" style="fill: #3a414a; stroke: #3a414a; stroke-width: 0.8"/>
      </g>
     </g>
     <g id="text_5">
      <!-- $2,000 -->
      <g style="fill: #3a414a" transform="translate(337.479047 323.127469) scale(0.09 -0.09)">
       <defs>
        <path id="MalgunGothic-32" d="M 2519 3372 
Q 2519 3784 2275 4018 
Q 2031 4253 1628 4253 
Q 1341 4253 1053 4104 
Q 766 3956 534 3697 
L 534 4234 
Q 981 4675 1691 4675 
Q 2281 4675 2642 4334 
Q 3003 3994 3003 3416 
Q 3003 2919 2772 2545 
Q 2541 2172 1984 1775 
Q 1459 1406 1254 1215 
Q 1050 1025 967 854 
Q 884 684 884 450 
L 3116 450 
L 3116 0 
L 356 0 
L 356 225 
Q 356 603 461 870 
Q 566 1138 811 1392 
Q 1056 1647 1597 2022 
Q 2091 2363 2305 2670 
Q 2519 2978 2519 3372 
z
" transform="scale(0.015625)"/>
       </defs>
       <use xlink:href="#MalgunGothic-24"/>
       <use xlink:href="#MalgunGothic-32" transform="translate(55.078125 0)"/>
       <use xlink:href="#MalgunGothic-2c" transform="translate(110.15625 0)"/>
       <use xlink:href="#MalgunGothic-30" transform="translate(132.03125 0)"/>
       <use xlink:href="#MalgunGothic-30" transform="translate(187.109375 0)"/>
       <use xlink:href="#MalgunGothic-30" transform="translate(242.1875 0)"/>
      </g>
     </g>
    </g>
    <g id="xtick_6">
     <g id="line2d_11">
      <path d="M 415.026 309.2945 
L 415.026 43.1825 
" clip-path="url(#p9cf2a9d584)" style="fill: none; stroke: #d8dbe0; stroke-width: 0.5; stroke-linecap: round"/>
     </g>
     <g id="line2d_12">
      <g>
       <use xlink:href="#mf5a725eae6" x="415.026" y="309.2945" style="fill: #3a414a; stroke: #3a414a; stroke-width: 0.8"/>
      </g>
     </g>
     <g id="text_6">
      <!-- $2,500 -->
      <g style="fill: #3a414a" transform="translate(401.649047 323.127469) scale(0.09 -0.09)">
       <use xlink:href="#MalgunGothic-24"/>
       <use xlink:href="#MalgunGothic-32" transform="translate(55.078125 0)"/>
       <use xlink:href="#MalgunGothic-2c" transform="translate(110.15625 0)"/>
       <use xlink:href="#MalgunGothic-35" transform="translate(132.03125 0)"/>
       <use xlink:href="#MalgunGothic-30" transform="translate(187.109375 0)"/>
       <use xlink:href="#MalgunGothic-30" transform="translate(242.1875 0)"/>
      </g>
     </g>
    </g>
    <g id="xtick_7">
     <g id="line2d_13">
      <path d="M 479.196 309.2945 
L 479.196 43.1825 
" clip-path="url(#p9cf2a9d584)" style="fill: none; stroke: #d8dbe0; stroke-width: 0.5; stroke-linecap: round"/>
     </g>
     <g id="line2d_14">
      <g>
       <use xlink:href="#mf5a725eae6" x="479.196" y="309.2945" style="fill: #3a414a; stroke: #3a414a; stroke-width: 0.8"/>
      </g>
     </g>
     <g id="text_7">
      <!-- $3,000 -->
      <g style="fill: #3a414a" transform="translate(465.819047 323.127469) scale(0.09 -0.09)">
       <defs>
        <path id="MalgunGothic-33" d="M 416 719 
Q 891 344 1478 344 
Q 1959 344 2254 587 
Q 2550 831 2550 1247 
Q 2550 2169 1253 2169 
L 872 2169 
L 872 2591 
L 1234 2591 
Q 2388 2591 2388 3453 
Q 2388 4250 1509 4250 
Q 1022 4250 594 3916 
L 594 4413 
Q 1031 4675 1634 4675 
Q 2184 4675 2539 4372 
Q 2894 4069 2894 3581 
Q 2894 2678 1972 2409 
L 1972 2400 
Q 2469 2356 2764 2053 
Q 3059 1750 3059 1300 
Q 3059 672 2604 297 
Q 2150 -78 1450 -78 
Q 806 -78 416 169 
L 416 719 
z
" transform="scale(0.015625)"/>
       </defs>
       <use xlink:href="#MalgunGothic-24"/>
       <use xlink:href="#MalgunGothic-33" transform="translate(55.078125 0)"/>
       <use xlink:href="#MalgunGothic-2c" transform="translate(110.15625 0)"/>
       <use xlink:href="#MalgunGothic-30" transform="translate(132.03125 0)"/>
       <use xlink:href="#MalgunGothic-30" transform="translate(187.109375 0)"/>
       <use xlink:href="#MalgunGothic-30" transform="translate(242.1875 0)"/>
      </g>
     </g>
    </g>
    <g id="xtick_8">
     <g id="line2d_15">
      <path d="M 543.366 309.2945 
L 543.366 43.1825 
" clip-path="url(#p9cf2a9d584)" style="fill: none; stroke: #d8dbe0; stroke-width: 0.5; stroke-linecap: round"/>
     </g>
     <g id="line2d_16">
      <g>
       <use xlink:href="#mf5a725eae6" x="543.366" y="309.2945" style="fill: #3a414a; stroke: #3a414a; stroke-width: 0.8"/>
      </g>
     </g>
     <g id="text_8">
      <!-- $3,500 -->
      <g style="fill: #3a414a" transform="translate(529.989047 323.127469) scale(0.09 -0.09)">
       <use xlink:href="#MalgunGothic-24"/>
       <use xlink:href="#MalgunGothic-33" transform="translate(55.078125 0)"/>
       <use xlink:href="#MalgunGothic-2c" transform="translate(110.15625 0)"/>
       <use xlink:href="#MalgunGothic-35" transform="translate(132.03125 0)"/>
       <use xlink:href="#MalgunGothic-30" transform="translate(187.109375 0)"/>
       <use xlink:href="#MalgunGothic-30" transform="translate(242.1875 0)"/>
      </g>
     </g>
    </g>
    <g id="xtick_9">
     <g id="line2d_17">
      <path d="M 607.536 309.2945 
L 607.536 43.1825 
" clip-path="url(#p9cf2a9d584)" style="fill: none; stroke: #d8dbe0; stroke-width: 0.5; stroke-linecap: round"/>
     </g>
     <g id="line2d_18">
      <g>
       <use xlink:href="#mf5a725eae6" x="607.536" y="309.2945" style="fill: #3a414a; stroke: #3a414a; stroke-width: 0.8"/>
      </g>
     </g>
     <g id="text_9">
      <!-- $4,000 -->
      <g style="fill: #3a414a" transform="translate(594.159047 323.127469) scale(0.09 -0.09)">
       <defs>
        <path id="MalgunGothic-34" d="M 2703 4600 
L 2703 1563 
L 3309 1563 
L 3309 1113 
L 2703 1113 
L 2703 0 
L 2213 0 
L 2213 1113 
L 50 1113 
L 50 1534 
Q 728 2297 1295 3109 
Q 1863 3922 2172 4600 
L 2703 4600 
z
M 625 1563 
L 2213 1563 
L 2213 3831 
Q 1613 2788 959 1981 
L 625 1563 
z
" transform="scale(0.015625)"/>
       </defs>
       <use xlink:href="#MalgunGothic-24"/>
       <use xlink:href="#MalgunGothic-34" transform="translate(55.078125 0)"/>
       <use xlink:href="#MalgunGothic-2c" transform="translate(110.15625 0)"/>
       <use xlink:href="#MalgunGothic-30" transform="translate(132.03125 0)"/>
       <use xlink:href="#MalgunGothic-30" transform="translate(187.109375 0)"/>
       <use xlink:href="#MalgunGothic-30" transform="translate(242.1875 0)"/>
      </g>
     </g>
    </g>
    <g id="text_10">
     <!-- USD 환산 임계금액 -->
     <g style="fill: #111418" transform="translate(307.525531 336.847312) scale(0.1 -0.1)">
      <defs>
       <path id="MalgunGothic-55" d="M 3947 1850 
Q 3947 -78 2209 -78 
Q 553 -78 553 1778 
L 553 4600 
L 1056 4600 
L 1056 1813 
Q 1056 381 2272 381 
Q 3441 381 3441 1763 
L 3441 4600 
L 3947 4600 
L 3947 1850 
z
" transform="scale(0.015625)"/>
       <path id="MalgunGothic-53" d="M 394 797 
Q 606 613 964 500 
Q 1322 388 1625 388 
Q 2628 388 2628 1116 
Q 2628 1325 2523 1484 
Q 2419 1644 2250 1756 
Q 2081 1869 1547 2144 
Q 903 2475 651 2754 
Q 400 3034 400 3456 
Q 400 4019 858 4347 
Q 1316 4675 1988 4675 
Q 2669 4675 2963 4513 
L 2963 3928 
Q 2563 4206 1922 4206 
Q 1484 4206 1207 4018 
Q 931 3831 931 3500 
Q 931 3200 1126 3011 
Q 1322 2822 1938 2522 
Q 2656 2163 2906 1844 
Q 3156 1525 3156 1153 
Q 3156 556 2725 239 
Q 2294 -78 1531 -78 
Q 1291 -78 927 -1 
Q 563 75 394 188 
L 394 797 
z
" transform="scale(0.015625)"/>
       <path id="MalgunGothic-44" d="M 609 0 
L 609 4600 
L 1856 4600 
Q 4281 4600 4281 2356 
Q 4281 1288 3587 644 
Q 2894 0 1800 0 
L 609 0 
z
M 1113 4134 
L 1113 463 
L 1813 463 
Q 2734 463 3243 958 
Q 3753 1453 3753 2344 
Q 3753 4134 1844 4134 
L 1113 4134 
z
" transform="scale(0.015625)"/>
       <path id="MalgunGothic-20" transform="scale(0.015625)"/>
       <path id="MalgunGothic-d658" d="M 5216 2663 
L 5216 838 
L 4750 838 
L 4750 5466 
L 5216 5466 
L 5216 3078 
L 6119 3078 
L 6119 2663 
L 5216 2663 
z
M 609 4378 
L 609 4788 
L 2156 4788 
L 2156 5453 
L 2619 5453 
L 2619 4788 
L 4159 4788 
L 4159 4378 
L 609 4378 
z
M 4347 1491 
Q 2450 1381 469 1381 
L 422 1791 
Q 1059 1791 2150 1819 
L 2150 2272 
Q 1544 2316 1214 2570 
Q 884 2825 884 3200 
Q 884 3625 1284 3883 
Q 1684 4141 2381 4141 
Q 3069 4141 3473 3870 
Q 3878 3600 3878 3200 
Q 3878 2825 3550 2570 
Q 3222 2316 2613 2272 
L 2613 1825 
Q 3663 1850 4319 1894 
L 4347 1491 
z
M 2381 3763 
Q 1897 3763 1620 3603 
Q 1344 3444 1344 3200 
Q 1344 2956 1623 2800 
Q 1903 2644 2381 2644 
Q 2859 2644 3139 2800 
Q 3419 2956 3419 3200 
Q 3419 3444 3142 3603 
Q 2866 3763 2381 3763 
z
M 1409 -488 
L 1409 1056 
L 1869 1056 
L 1869 -78 
L 5356 -78 
L 5356 -488 
L 1409 -488 
z
" transform="scale(0.015625)"/>
       <path id="MalgunGothic-c0b0" d="M 5125 3169 
L 5125 1081 
L 4659 1081 
L 4659 5466 
L 5125 5466 
L 5125 3584 
L 6034 3584 
L 6034 3169 
L 5125 3169 
z
M 3597 2081 
Q 3206 2294 2778 2731 
Q 2350 3169 2188 3525 
Q 2038 3125 1603 2642 
Q 1169 2159 750 1925 
L 409 2247 
Q 1041 2553 1492 3173 
Q 1944 3794 1953 4453 
L 1953 5228 
L 2400 5228 
L 2400 4453 
Q 2400 3841 2853 3259 
Q 3306 2678 3909 2419 
L 3597 2081 
z
M 1478 -353 
L 1478 1528 
L 1953 1528 
L 1953 72 
L 5325 72 
L 5325 -353 
L 1478 -353 
z
" transform="scale(0.015625)"/>
       <path id="MalgunGothic-c784" d="M 4947 2138 
L 4947 5466 
L 5416 5466 
L 5416 2138 
L 4947 2138 
z
M 2406 2419 
Q 1731 2419 1304 2825 
Q 878 3231 878 3853 
Q 878 4472 1304 4876 
Q 1731 5281 2406 5281 
Q 3081 5281 3512 4879 
Q 3944 4478 3944 3853 
Q 3944 3228 3514 2823 
Q 3084 2419 2406 2419 
z
M 2406 4878 
Q 1928 4878 1636 4593 
Q 1344 4309 1344 3853 
Q 1344 3391 1636 3106 
Q 1928 2822 2406 2822 
Q 2891 2822 3183 3109 
Q 3475 3397 3475 3853 
Q 3475 4303 3183 4590 
Q 2891 4878 2406 4878 
z
M 1703 -397 
L 1703 1806 
L 5416 1806 
L 5416 -397 
L 1703 -397 
z
M 4953 1394 
L 2163 1394 
L 2163 13 
L 4953 13 
L 4953 1394 
z
" transform="scale(0.015625)"/>
       <path id="MalgunGothic-acc4" d="M 5044 -563 
L 5044 5466 
L 5509 5466 
L 5509 -563 
L 5044 -563 
z
M 3938 -366 
L 3938 1925 
L 2700 1925 
L 2700 2344 
L 3938 2344 
L 3938 3616 
L 2869 3616 
Q 2366 1953 813 878 
L 441 1197 
Q 1263 1634 1891 2575 
Q 2519 3516 2584 4531 
L 800 4531 
L 800 4941 
L 3078 4941 
Q 3056 4409 2969 4031 
L 3938 4031 
L 3938 5344 
L 4397 5344 
L 4397 -366 
L 3938 -366 
z
" transform="scale(0.015625)"/>
       <path id="MalgunGothic-ae08" d="M 403 2663 
L 403 3084 
L 4563 3084 
Q 4634 3803 4634 4819 
L 1338 4819 
L 1338 5234 
L 5100 5234 
Q 5100 4081 5019 3084 
L 5997 3084 
L 5997 2663 
L 403 2663 
z
M 1350 -416 
L 1350 1856 
L 5075 1856 
L 5075 -416 
L 1350 -416 
z
M 4616 1447 
L 1813 1447 
L 1813 0 
L 4616 0 
L 4616 1447 
z
" transform="scale(0.015625)"/>
       <path id="MalgunGothic-c561" d="M 5056 2081 
L 5056 3444 
L 4353 3444 
L 4353 2081 
L 3891 2081 
L 3891 5344 
L 4353 5344 
L 4353 3859 
L 5056 3859 
L 5056 5466 
L 5522 5466 
L 5522 2081 
L 5056 2081 
z
M 1972 2369 
Q 1400 2369 1001 2758 
Q 603 3147 603 3809 
Q 603 4469 1001 4858 
Q 1400 5247 1972 5247 
Q 2544 5247 2942 4858 
Q 3341 4469 3341 3809 
Q 3341 3147 2942 2758 
Q 2544 2369 1972 2369 
z
M 1972 4850 
Q 1578 4850 1314 4573 
Q 1050 4297 1050 3809 
Q 1050 3325 1314 3048 
Q 1578 2772 1972 2772 
Q 2366 2772 2633 3045 
Q 2900 3319 2900 3809 
Q 2900 4300 2633 4575 
Q 2366 4850 1972 4850 
z
M 5056 -563 
L 5056 1331 
L 1581 1331 
L 1581 1747 
L 5522 1747 
L 5522 -563 
L 5056 -563 
z
" transform="scale(0.015625)"/>
      </defs>
      <use xlink:href="#MalgunGothic-55"/>
      <use xlink:href="#MalgunGothic-53" transform="translate(70.263672 0)"/>
      <use xlink:href="#MalgunGothic-44" transform="translate(124.560547 0)"/>
      <use xlink:href="#MalgunGothic-20" transform="translate(196.289062 0)"/>
      <use xlink:href="#MalgunGothic-d658" transform="translate(231.445312 0)"/>
      <use xlink:href="#MalgunGothic-c0b0" transform="translate(331.445312 0)"/>
      <use xlink:href="#MalgunGothic-20" transform="translate(431.445312 0)"/>
      <use xlink:href="#MalgunGothic-c784" transform="translate(466.601562 0)"/>
      <use xlink:href="#MalgunGothic-acc4" transform="translate(566.601562 0)"/>
      <use xlink:href="#MalgunGothic-ae08" transform="translate(666.601562 0)"/>
      <use xlink:href="#MalgunGothic-c561" transform="translate(766.601562 0)"/>
     </g>
    </g>
   </g>
   <g id="matplotlib.axis_2">
    <g id="ytick_1">
     <g id="line2d_19"/>
     <g id="text_11">
      <!-- EU (TFR) -->
      <g style="fill: #3a414a" transform="translate(52.447875 287.650252) scale(0.1 -0.1)">
       <defs>
        <path id="MalgunGothic-45" d="M 3025 0 
L 609 0 
L 609 4600 
L 2922 4600 
L 2922 4134 
L 1113 4134 
L 1113 2572 
L 2784 2572 
L 2784 2109 
L 1113 2109 
L 1113 463 
L 3025 463 
L 3025 0 
z
" transform="scale(0.015625)"/>
        <path id="MalgunGothic-28" d="M 1438 -1044 
Q 447 88 447 1753 
Q 447 3431 1438 4600 
L 1888 4600 
Q 878 3372 878 1759 
Q 878 153 1881 -1044 
L 1438 -1044 
z
" transform="scale(0.015625)"/>
        <path id="MalgunGothic-54" d="M 3294 4134 
L 1966 4134 
L 1966 0 
L 1456 0 
L 1456 4134 
L 134 4134 
L 134 4600 
L 3294 4600 
L 3294 4134 
z
" transform="scale(0.015625)"/>
        <path id="MalgunGothic-46" d="M 2922 4134 
L 1113 4134 
L 1113 2516 
L 2788 2516 
L 2788 2050 
L 1113 2050 
L 1113 0 
L 609 0 
L 609 4600 
L 2922 4600 
L 2922 4134 
z
" transform="scale(0.015625)"/>
        <path id="MalgunGothic-52" d="M 3866 0 
L 3259 0 
L 2488 1294 
Q 2241 1706 2044 1837 
Q 1847 1969 1569 1969 
L 1113 1969 
L 1113 0 
L 609 0 
L 609 4600 
L 1963 4600 
Q 2597 4600 2970 4272 
Q 3344 3944 3344 3375 
Q 3344 2422 2325 2138 
L 2325 2125 
Q 2519 2041 2645 1902 
Q 2772 1763 3006 1381 
L 3866 0 
z
M 1113 4128 
L 1113 2438 
L 1866 2438 
Q 2291 2438 2552 2686 
Q 2813 2934 2813 3334 
Q 2813 3709 2570 3918 
Q 2328 4128 1872 4128 
L 1113 4128 
z
" transform="scale(0.015625)"/>
        <path id="MalgunGothic-29" d="M 81 -1044 
Q 1081 150 1081 1759 
Q 1081 3378 72 4600 
L 525 4600 
Q 1522 3431 1522 1753 
Q 1522 88 525 -1044 
L 81 -1044 
z
" transform="scale(0.015625)"/>
       </defs>
       <use xlink:href="#MalgunGothic-45"/>
       <use xlink:href="#MalgunGothic-55" transform="translate(51.708984 0)"/>
       <use xlink:href="#MalgunGothic-20" transform="translate(121.972656 0)"/>
       <use xlink:href="#MalgunGothic-28" transform="translate(157.128906 0)"/>
       <use xlink:href="#MalgunGothic-54" transform="translate(187.597656 0)"/>
       <use xlink:href="#MalgunGothic-46" transform="translate(240.966797 0)"/>
       <use xlink:href="#MalgunGothic-52" transform="translate(290.820312 0)"/>
       <use xlink:href="#MalgunGothic-29" transform="translate(351.806641 0)"/>
      </g>
     </g>
    </g>
    <g id="ytick_2">
     <g id="line2d_20"/>
     <g id="text_12">
      <!-- 한국 -->
      <g style="fill: #3a414a" transform="translate(70.676 244.603989) scale(0.1 -0.1)">
       <defs>
        <path id="MalgunGothic-d55c" d="M 5125 2713 
L 5125 978 
L 4659 978 
L 4659 5466 
L 5125 5466 
L 5125 3138 
L 6034 3138 
L 6034 2713 
L 5125 2713 
z
M 447 4244 
L 447 4659 
L 2003 4659 
L 2003 5441 
L 2478 5441 
L 2478 4659 
L 4031 4659 
L 4031 4244 
L 447 4244 
z
M 2241 1650 
Q 1559 1650 1161 1979 
Q 763 2309 763 2791 
Q 763 3266 1161 3594 
Q 1559 3922 2247 3922 
Q 2931 3922 3331 3595 
Q 3731 3269 3731 2791 
Q 3731 2316 3329 1983 
Q 2928 1650 2241 1650 
z
M 2247 3525 
Q 1772 3525 1497 3319 
Q 1222 3113 1222 2791 
Q 1222 2466 1498 2256 
Q 1775 2047 2247 2047 
Q 2719 2047 2995 2256 
Q 3272 2466 3272 2791 
Q 3272 3113 2997 3319 
Q 2722 3525 2247 3525 
z
M 1459 -453 
L 1459 1216 
L 1919 1216 
L 1919 -38 
L 5313 -38 
L 5313 -453 
L 1459 -453 
z
" transform="scale(0.015625)"/>
        <path id="MalgunGothic-ad6d" d="M 4603 -563 
L 4603 1259 
L 1241 1259 
L 1241 1678 
L 2913 1678 
L 2913 2803 
L 403 2803 
L 403 3219 
L 4581 3219 
Q 4634 3728 4634 4850 
L 1338 4850 
L 1338 5269 
L 5100 5269 
Q 5100 4225 5031 3219 
L 5997 3219 
L 5997 2803 
L 3378 2803 
L 3378 1678 
L 5069 1678 
L 5069 -563 
L 4603 -563 
z
" transform="scale(0.015625)"/>
       </defs>
       <use xlink:href="#MalgunGothic-d55c"/>
       <use xlink:href="#MalgunGothic-ad6d" transform="translate(100 0)"/>
      </g>
     </g>
    </g>
    <g id="ytick_3">
     <g id="line2d_21"/>
     <g id="text_13">
      <!-- 일본 -->
      <g style="fill: #3a414a" transform="translate(70.676 201.557725) scale(0.1 -0.1)">
       <defs>
        <path id="MalgunGothic-c77c" d="M 4947 2363 
L 4947 5466 
L 5422 5466 
L 5422 2363 
L 4947 2363 
z
M 2419 2578 
Q 1738 2578 1314 2970 
Q 891 3363 891 3969 
Q 891 4572 1314 4961 
Q 1738 5350 2419 5350 
Q 3097 5350 3523 4959 
Q 3950 4569 3950 3969 
Q 3950 3366 3522 2972 
Q 3094 2578 2419 2578 
z
M 2419 4947 
Q 1931 4947 1643 4680 
Q 1356 4413 1356 3969 
Q 1356 3522 1643 3248 
Q 1931 2975 2419 2975 
Q 2906 2975 3193 3248 
Q 3481 3522 3481 3969 
Q 3481 4413 3193 4680 
Q 2906 4947 2419 4947 
z
M 1703 -422 
L 1703 1038 
L 4959 1038 
L 4959 1613 
L 1703 1613 
L 1703 2028 
L 5422 2028 
L 5422 634 
L 2163 634 
L 2163 -6 
L 5588 -6 
L 5588 -422 
L 1703 -422 
z
" transform="scale(0.015625)"/>
        <path id="MalgunGothic-bcf8" d="M 403 1759 
L 403 2181 
L 2963 2181 
L 2963 2956 
L 1356 2956 
L 1356 5288 
L 1819 5288 
L 1819 4519 
L 4581 4519 
L 4581 5288 
L 5044 5288 
L 5044 2956 
L 3438 2956 
L 3438 2181 
L 5997 2181 
L 5997 1759 
L 403 1759 
z
M 4581 4103 
L 1819 4103 
L 1819 3366 
L 4581 3366 
L 4581 4103 
z
M 1319 -359 
L 1319 1375 
L 1784 1375 
L 1784 56 
L 5203 56 
L 5203 -359 
L 1319 -359 
z
" transform="scale(0.015625)"/>
       </defs>
       <use xlink:href="#MalgunGothic-c77c"/>
       <use xlink:href="#MalgunGothic-bcf8" transform="translate(100 0)"/>
      </g>
     </g>
    </g>
    <g id="ytick_4">
     <g id="line2d_22"/>
     <g id="text_14">
      <!-- FATF 권고 -->
      <g style="fill: #3a414a" transform="translate(46.743187 158.511462) scale(0.1 -0.1)">
       <defs>
        <path id="MalgunGothic-41" d="M 4134 0 
L 3575 0 
L 3075 1306 
L 1103 1306 
L 638 0 
L 75 0 
L 1844 4600 
L 2356 4600 
L 4134 0 
z
M 2903 1769 
L 2169 3756 
Q 2128 3866 2100 4059 
L 2084 4059 
Q 2050 3844 2009 3756 
L 1281 1769 
L 2903 1769 
z
" transform="scale(0.015625)"/>
        <path id="MalgunGothic-ad8c" d="M 4978 781 
L 4978 1759 
L 3675 1759 
L 3675 2163 
L 4978 2163 
L 4978 5466 
L 5453 5466 
L 5453 781 
L 4978 781 
z
M 4519 2791 
Q 4144 2763 2828 2719 
L 2828 1094 
L 2369 1094 
L 2369 2700 
Q 1188 2656 616 2656 
L 550 3097 
Q 2169 3097 3463 3144 
Q 3500 3744 3500 4744 
L 1113 4744 
L 1113 5159 
L 3969 5159 
Q 3969 3897 3916 3163 
Q 4284 3175 4494 3194 
L 4519 2791 
z
M 1491 -384 
L 1491 1422 
L 1959 1422 
L 1959 31 
L 5600 31 
L 5600 -384 
L 1491 -384 
z
" transform="scale(0.015625)"/>
        <path id="MalgunGothic-ace0" d="M 4959 1656 
L 4506 1697 
Q 4616 2694 4616 3534 
L 4616 4475 
L 1216 4475 
L 1216 4897 
L 5081 4897 
L 5081 3525 
Q 5081 2613 4959 1656 
z
M 403 513 
L 403 934 
L 2625 934 
L 2625 2900 
L 3091 2900 
L 3091 934 
L 5997 934 
L 5997 513 
L 403 513 
z
" transform="scale(0.015625)"/>
       </defs>
       <use xlink:href="#MalgunGothic-46"/>
       <use xlink:href="#MalgunGothic-41" transform="translate(42.853516 0)"/>
       <use xlink:href="#MalgunGothic-54" transform="translate(100.923828 0)"/>
       <use xlink:href="#MalgunGothic-46" transform="translate(154.292969 0)"/>
       <use xlink:href="#MalgunGothic-20" transform="translate(204.146484 0)"/>
       <use xlink:href="#MalgunGothic-ad8c" transform="translate(239.302734 0)"/>
       <use xlink:href="#MalgunGothic-ace0" transform="translate(339.302734 0)"/>
      </g>
     </g>
    </g>
    <g id="ytick_5">
     <g id="line2d_23"/>
     <g id="text_15">
      <!-- 싱가포르 -->
      <g style="fill: #3a414a" transform="translate(50.676 115.465199) scale(0.1 -0.1)">
       <defs>
        <path id="MalgunGothic-c2f1" d="M 4947 1984 
L 4947 5466 
L 5416 5466 
L 5416 1984 
L 4947 1984 
z
M 3653 2328 
Q 3244 2550 2831 2950 
Q 2419 3350 2253 3700 
Q 2075 3303 1659 2858 
Q 1244 2413 819 2175 
L 488 2497 
Q 1134 2806 1571 3393 
Q 2009 3981 2009 4628 
L 2009 5269 
L 2463 5269 
L 2463 4628 
Q 2463 4025 2916 3472 
Q 3369 2919 3969 2669 
L 3653 2328 
z
M 3566 -475 
Q 2622 -475 2108 -148 
Q 1594 178 1594 697 
Q 1594 1216 2106 1539 
Q 2619 1863 3566 1863 
Q 4513 1863 5025 1539 
Q 5538 1216 5538 697 
Q 5538 178 5023 -148 
Q 4509 -475 3566 -475 
z
M 3566 1466 
Q 2850 1466 2472 1248 
Q 2094 1031 2094 697 
Q 2094 359 2473 143 
Q 2853 -72 3566 -72 
Q 4275 -72 4656 142 
Q 5038 356 5038 697 
Q 5038 1034 4659 1250 
Q 4281 1466 3566 1466 
z
" transform="scale(0.015625)"/>
        <path id="MalgunGothic-ac00" d="M 5094 2566 
L 5094 -563 
L 4628 -563 
L 4628 5466 
L 5094 5466 
L 5094 2981 
L 6175 2981 
L 6175 2566 
L 5094 2566 
z
M 3609 4928 
Q 3541 2363 897 863 
L 538 1241 
Q 1484 1631 2234 2506 
Q 2984 3381 3109 4513 
L 794 4513 
L 794 4928 
L 3609 4928 
z
" transform="scale(0.015625)"/>
        <path id="MalgunGothic-d3ec" d="M 997 4897 
L 5403 4897 
L 5403 4488 
L 997 4488 
L 997 4897 
z
M 4494 2478 
L 5478 2478 
L 5478 2059 
L 3438 2059 
L 3438 756 
L 5997 756 
L 5997 341 
L 403 341 
L 403 756 
L 2963 756 
L 2963 2059 
L 922 2059 
L 922 2478 
L 1906 2478 
L 1831 4172 
L 2291 4172 
L 2375 2478 
L 4025 2478 
L 4109 4172 
L 4569 4172 
L 4494 2478 
z
" transform="scale(0.015625)"/>
        <path id="MalgunGothic-b974" d="M 1294 1847 
L 1294 3631 
L 4647 3631 
L 4647 4528 
L 1300 4528 
L 1300 4944 
L 5113 4944 
L 5113 3228 
L 1759 3228 
L 1759 2263 
L 5288 2263 
L 5288 1847 
L 1294 1847 
z
M 403 366 
L 403 781 
L 5997 781 
L 5997 366 
L 403 366 
z
" transform="scale(0.015625)"/>
       </defs>
       <use xlink:href="#MalgunGothic-c2f1"/>
       <use xlink:href="#MalgunGothic-ac00" transform="translate(100 0)"/>
       <use xlink:href="#MalgunGothic-d3ec" transform="translate(200 0)"/>
       <use xlink:href="#MalgunGothic-b974" transform="translate(300 0)"/>
      </g>
     </g>
    </g>
    <g id="ytick_6">
     <g id="line2d_24"/>
     <g id="text_16">
      <!-- 미국 (BSA) -->
      <g style="fill: #3a414a" transform="translate(43.21975 72.526748) scale(0.1 -0.1)">
       <defs>
        <path id="MalgunGothic-bbf8" d="M 4884 -563 
L 4884 5466 
L 5350 5466 
L 5350 -563 
L 4884 -563 
z
M 819 1209 
L 819 4934 
L 3688 4934 
L 3688 1209 
L 819 1209 
z
M 3219 4525 
L 1288 4525 
L 1288 1619 
L 3219 1619 
L 3219 4525 
z
" transform="scale(0.015625)"/>
        <path id="MalgunGothic-42" d="M 609 0 
L 609 4600 
L 1894 4600 
Q 2466 4600 2817 4311 
Q 3169 4022 3169 3547 
Q 3169 3166 2961 2870 
Q 2753 2575 2378 2453 
L 2378 2441 
Q 2844 2391 3122 2089 
Q 3400 1788 3400 1319 
Q 3400 731 2978 365 
Q 2556 0 1919 0 
L 609 0 
z
M 1113 4128 
L 1113 2619 
L 1672 2619 
Q 2134 2619 2387 2839 
Q 2641 3059 2641 3447 
Q 2641 4128 1750 4128 
L 1113 4128 
z
M 1113 2153 
L 1113 469 
L 1859 469 
Q 2334 469 2603 698 
Q 2872 928 2872 1325 
Q 2872 2153 1738 2153 
L 1113 2153 
z
" transform="scale(0.015625)"/>
       </defs>
       <use xlink:href="#MalgunGothic-bbf8"/>
       <use xlink:href="#MalgunGothic-ad6d" transform="translate(100 0)"/>
       <use xlink:href="#MalgunGothic-20" transform="translate(200 0)"/>
       <use xlink:href="#MalgunGothic-28" transform="translate(235.15625 0)"/>
       <use xlink:href="#MalgunGothic-42" transform="translate(265.625 0)"/>
       <use xlink:href="#MalgunGothic-53" transform="translate(323.974609 0)"/>
       <use xlink:href="#MalgunGothic-41" transform="translate(378.271484 0)"/>
       <use xlink:href="#MalgunGothic-29" transform="translate(444.091797 0)"/>
      </g>
     </g>
    </g>
   </g>
   <g id="patch_3">
    <path d="M 94.176 297.1985 
L 94.176 297.1985 
L 94.176 270.509817 
L 94.176 270.509817 
z
" clip-path="url(#p9cf2a9d584)" style="fill: #1a2e4a; stroke: #111418; stroke-width: 0.6; stroke-linejoin: miter"/>
   </g>
   <g id="patch_4">
    <path d="M 94.176 254.152237 
L 192.9978 254.152237 
L 192.9978 227.463553 
L 94.176 227.463553 
z
" clip-path="url(#p9cf2a9d584)" style="fill: #1a2e4a; stroke: #111418; stroke-width: 0.6; stroke-linejoin: miter"/>
   </g>
   <g id="patch_5">
    <path d="M 94.176 211.105973 
L 194.2812 211.105973 
L 194.2812 184.41729 
L 94.176 184.41729 
z
" clip-path="url(#p9cf2a9d584)" style="fill: #1a2e4a; stroke: #111418; stroke-width: 0.6; stroke-linejoin: miter"/>
   </g>
   <g id="patch_6">
    <path d="M 94.176 168.05971 
L 222.516 168.05971 
L 222.516 141.371027 
L 94.176 141.371027 
z
" clip-path="url(#p9cf2a9d584)" style="fill: #c9a646; stroke: #111418; stroke-width: 0.6; stroke-linejoin: miter"/>
   </g>
   <g id="patch_7">
    <path d="M 94.176 125.013447 
L 239.2002 125.013447 
L 239.2002 98.324763 
L 94.176 98.324763 
z
" clip-path="url(#p9cf2a9d584)" style="fill: #1a2e4a; stroke: #111418; stroke-width: 0.6; stroke-linejoin: miter"/>
   </g>
   <g id="patch_8">
    <path d="M 94.176 81.967183 
L 479.196 81.967183 
L 479.196 55.2785 
L 94.176 55.2785 
z
" clip-path="url(#p9cf2a9d584)" style="fill: #1a2e4a; stroke: #111418; stroke-width: 0.6; stroke-linejoin: miter"/>
   </g>
   <g id="patch_9">
    <path d="M 94.176 309.2945 
L 94.176 43.1825 
" style="fill: none; stroke: #111418; stroke-width: 0.8; stroke-linejoin: miter; stroke-linecap: square"/>
   </g>
   <g id="patch_10">
    <path d="M 94.176 309.2945 
L 607.536 309.2945 
" style="fill: none; stroke: #111418; stroke-width: 0.8; stroke-linejoin: miter; stroke-linecap: square"/>
   </g>
   <g id="text_17">
    <!-- €0 (모든 거래) -->
    <g style="fill: #111418" transform="translate(104.4432 286.43994) scale(0.095 -0.095)">
     <defs>
      <path id="MalgunGothicBold-20ac" d="M 3434 150 
Q 3047 -84 2472 -84 
Q 1038 -84 734 1478 
L 344 1478 
L 344 2044 
L 663 2044 
L 659 2138 
Q 656 2272 672 2534 
L 344 2534 
L 344 3091 
L 756 3091 
Q 925 3841 1414 4258 
Q 1903 4675 2594 4675 
Q 3103 4675 3434 4497 
L 3434 3756 
Q 3078 4025 2619 4025 
Q 2266 4025 1980 3776 
Q 1694 3528 1575 3091 
L 3006 3091 
L 3006 2534 
L 1488 2534 
Q 1466 2334 1481 2044 
L 3006 2044 
L 3006 1478 
L 1563 1478 
Q 1800 566 2569 566 
Q 3016 566 3434 850 
L 3434 150 
z
" transform="scale(0.015625)"/>
      <path id="MalgunGothicBold-30" d="M 241 2222 
Q 241 3422 670 4048 
Q 1100 4675 1919 4675 
Q 3475 4675 3475 2328 
Q 3475 1172 3051 545 
Q 2628 -81 1825 -81 
Q 241 -81 241 2222 
z
M 1125 2244 
Q 1125 600 1863 600 
Q 2584 600 2584 2288 
Q 2584 3997 1878 3997 
Q 1125 3997 1125 2244 
z
" transform="scale(0.015625)"/>
      <path id="MalgunGothicBold-20" transform="scale(0.015625)"/>
      <path id="MalgunGothicBold-28" d="M 1513 -1044 
Q 488 94 488 1756 
Q 488 3384 1513 4600 
L 2231 4600 
Q 1250 3334 1250 1759 
Q 1250 197 2231 -1044 
L 1513 -1044 
z
" transform="scale(0.015625)"/>
      <path id="MalgunGothicBold-baa8" d="M 403 269 
L 403 922 
L 2803 922 
L 2803 2119 
L 1275 2119 
L 1275 4941 
L 5119 4941 
L 5119 2119 
L 3591 2119 
L 3591 922 
L 5997 922 
L 5997 269 
L 403 269 
z
M 4331 4294 
L 2059 4294 
L 2059 2766 
L 4331 2766 
L 4331 4294 
z
" transform="scale(0.015625)"/>
      <path id="MalgunGothicBold-b4e0" d="M 1247 3003 
L 1247 5253 
L 5166 5253 
L 5166 4594 
L 2041 4594 
L 2041 3659 
L 5228 3659 
L 5228 3003 
L 1247 3003 
z
M 403 1791 
L 403 2456 
L 5997 2456 
L 5997 1791 
L 403 1791 
z
M 1222 -359 
L 1222 1416 
L 2009 1416 
L 2009 300 
L 5253 300 
L 5253 -359 
L 1222 -359 
z
" transform="scale(0.015625)"/>
      <path id="MalgunGothicBold-ac70" d="M 4800 -563 
L 4800 2541 
L 3391 2541 
L 3391 3200 
L 4800 3200 
L 4800 5466 
L 5569 5466 
L 5569 -563 
L 4800 -563 
z
M 3681 4947 
Q 3628 3572 2884 2465 
Q 2141 1359 922 722 
L 347 1325 
Q 1197 1638 1939 2466 
Q 2681 3294 2841 4288 
L 709 4288 
L 709 4947 
L 3681 4947 
z
" transform="scale(0.015625)"/>
      <path id="MalgunGothicBold-b798" d="M 4872 -563 
L 4872 2303 
L 4384 2303 
L 4384 -384 
L 3616 -384 
L 3616 5344 
L 4384 5344 
L 4384 2963 
L 4872 2963 
L 4872 5466 
L 5644 5466 
L 5644 -563 
L 4872 -563 
z
M 3359 978 
Q 2750 872 1656 872 
L 634 872 
L 634 3378 
L 2247 3378 
L 2247 4397 
L 634 4397 
L 634 5056 
L 3028 5056 
L 3028 2734 
L 1416 2734 
L 1416 1528 
L 1972 1528 
Q 2897 1528 3291 1613 
L 3359 978 
z
" transform="scale(0.015625)"/>
      <path id="MalgunGothicBold-29" d="M 59 -1044 
Q 1047 175 1047 1759 
Q 1047 3328 59 4600 
L 784 4600 
Q 1813 3378 1813 1756 
Q 1813 106 781 -1044 
L 59 -1044 
z
" transform="scale(0.015625)"/>
     </defs>
     <use xlink:href="#MalgunGothicBold-20ac"/>
     <use xlink:href="#MalgunGothicBold-30" transform="translate(57.958984 0)"/>
     <use xlink:href="#MalgunGothicBold-20" transform="translate(115.917969 0)"/>
     <use xlink:href="#MalgunGothicBold-28" transform="translate(151.074219 0)"/>
     <use xlink:href="#MalgunGothicBold-baa8" transform="translate(186.865234 0)"/>
     <use xlink:href="#MalgunGothicBold-b4e0" transform="translate(286.865234 0)"/>
     <use xlink:href="#MalgunGothicBold-20" transform="translate(386.865234 0)"/>
     <use xlink:href="#MalgunGothicBold-ac70" transform="translate(422.021484 0)"/>
     <use xlink:href="#MalgunGothicBold-b798" transform="translate(522.021484 0)"/>
     <use xlink:href="#MalgunGothicBold-29" transform="translate(622.021484 0)"/>
    </g>
   </g>
   <g id="text_18">
    <!-- ₩1,000,000 -->
    <g style="fill: #111418" transform="translate(203.265 243.291254) scale(0.095 -0.095)">
     <defs>
      <path id="MalgunGothicBold-20a9" d="M 5163 3034 
L 5163 2503 
L 4547 2503 
L 4481 2134 
L 5159 2134 
L 5163 1603 
L 4378 1603 
L 4075 0 
L 3269 0 
L 2972 1603 
L 2288 1603 
L 1991 0 
L 1156 0 
L 850 1603 
L 91 1603 
L 91 2134 
L 747 2134 
L 681 2503 
L 91 2503 
L 91 3034 
L 581 3034 
L 284 4600 
L 1019 4600 
L 1278 3034 
L 1997 3034 
L 2303 4600 
L 3041 4600 
L 3319 3034 
L 4000 3034 
L 4250 4600 
L 4947 4600 
L 4650 3034 
L 5163 3034 
z
M 2628 3594 
Q 2622 3403 2556 3034 
L 2709 3034 
Q 2653 3316 2641 3594 
L 2628 3594 
z
M 1425 2134 
L 1825 2134 
L 1894 2503 
L 1366 2503 
L 1425 2134 
z
M 2388 2134 
L 2875 2134 
L 2806 2503 
L 2456 2503 
L 2388 2134 
z
M 3475 2134 
L 3850 2134 
L 3913 2503 
L 3416 2503 
L 3475 2134 
z
M 1556 1384 
Q 1588 1225 1600 875 
L 1616 875 
Q 1631 1153 1681 1394 
L 1719 1603 
L 1516 1603 
L 1556 1384 
z
M 3619 1356 
Q 3641 1231 3669 881 
L 3678 881 
Q 3691 1100 3728 1375 
L 3769 1603 
L 3575 1603 
L 3619 1356 
z
" transform="scale(0.015625)"/>
      <path id="MalgunGothicBold-31" d="M 2534 4675 
L 2534 0 
L 1663 0 
L 1663 3616 
Q 1516 3481 1247 3365 
Q 978 3250 688 3216 
L 688 3988 
Q 1375 4194 1984 4675 
L 2534 4675 
z
" transform="scale(0.015625)"/>
      <path id="MalgunGothicBold-2c" d="M 1278 784 
L 797 -822 
L 128 -822 
L 466 784 
L 1278 784 
z
" transform="scale(0.015625)"/>
     </defs>
     <use xlink:href="#MalgunGothicBold-20a9"/>
     <use xlink:href="#MalgunGothicBold-31" transform="translate(82.03125 0)"/>
     <use xlink:href="#MalgunGothicBold-2c" transform="translate(139.990234 0)"/>
     <use xlink:href="#MalgunGothicBold-30" transform="translate(166.162109 0)"/>
     <use xlink:href="#MalgunGothicBold-30" transform="translate(224.121094 0)"/>
     <use xlink:href="#MalgunGothicBold-30" transform="translate(282.080078 0)"/>
     <use xlink:href="#MalgunGothicBold-2c" transform="translate(340.039062 0)"/>
     <use xlink:href="#MalgunGothicBold-30" transform="translate(366.210938 0)"/>
     <use xlink:href="#MalgunGothicBold-30" transform="translate(424.169922 0)"/>
     <use xlink:href="#MalgunGothicBold-30" transform="translate(482.128906 0)"/>
    </g>
   </g>
   <g id="text_19">
    <!-- ¥100,000 -->
    <g style="fill: #111418" transform="translate(204.5484 200.244991) scale(0.095 -0.095)">
     <defs>
      <path id="MalgunGothicBold-a5" d="M 3600 4600 
L 2466 2525 
L 3300 2525 
L 3300 1969 
L 2297 1969 
L 2297 1428 
L 3300 1428 
L 3300 869 
L 2297 869 
L 2297 0 
L 1444 0 
L 1444 869 
L 406 869 
L 406 1428 
L 1444 1428 
L 1444 1969 
L 406 1969 
L 406 2525 
L 1263 2525 
L 153 4600 
L 1063 4600 
L 1772 3019 
Q 1875 2784 1900 2719 
L 1913 2719 
Q 1956 2838 2044 3031 
L 2741 4600 
L 3600 4600 
z
" transform="scale(0.015625)"/>
     </defs>
     <use xlink:href="#MalgunGothicBold-a5"/>
     <use xlink:href="#MalgunGothicBold-31" transform="translate(57.958984 0)"/>
     <use xlink:href="#MalgunGothicBold-30" transform="translate(115.917969 0)"/>
     <use xlink:href="#MalgunGothicBold-30" transform="translate(173.876953 0)"/>
     <use xlink:href="#MalgunGothicBold-2c" transform="translate(231.835938 0)"/>
     <use xlink:href="#MalgunGothicBold-30" transform="translate(258.007812 0)"/>
     <use xlink:href="#MalgunGothicBold-30" transform="translate(315.966797 0)"/>
     <use xlink:href="#MalgunGothicBold-30" transform="translate(373.925781 0)"/>
    </g>
   </g>
   <g id="text_20">
    <!-- USD/EUR 1,000 -->
    <g style="fill: #111418" transform="translate(232.7832 157.198728) scale(0.095 -0.095)">
     <defs>
      <path id="MalgunGothicBold-55" d="M 4188 1953 
Q 4188 -81 2306 -81 
Q 497 -81 497 1897 
L 497 4600 
L 1391 4600 
L 1391 1897 
Q 1391 694 2353 694 
Q 3297 694 3297 1856 
L 3297 4600 
L 4188 4600 
L 4188 1953 
z
" transform="scale(0.015625)"/>
      <path id="MalgunGothicBold-53" d="M 334 1091 
Q 881 638 1588 638 
Q 2013 638 2222 786 
Q 2431 934 2431 1175 
Q 2431 1384 2256 1559 
Q 2081 1734 1409 2022 
Q 838 2278 580 2598 
Q 322 2919 322 3350 
Q 322 3972 803 4323 
Q 1284 4675 2066 4675 
Q 2766 4675 3169 4500 
L 3169 3647 
Q 2722 3953 2091 3953 
Q 1719 3953 1489 3812 
Q 1259 3672 1259 3425 
Q 1259 3228 1418 3065 
Q 1578 2903 2166 2644 
Q 2841 2350 3103 2026 
Q 3366 1703 3366 1253 
Q 3366 603 2902 261 
Q 2438 -81 1600 -81 
Q 822 -81 334 178 
L 334 1091 
z
" transform="scale(0.015625)"/>
      <path id="MalgunGothicBold-44" d="M 547 0 
L 547 4600 
L 2072 4600 
Q 4516 4600 4516 2356 
Q 4516 1288 3827 644 
Q 3138 0 2053 0 
L 547 0 
z
M 1438 3859 
L 1438 738 
L 2000 738 
Q 2741 738 3159 1167 
Q 3578 1597 3578 2344 
Q 3578 3078 3159 3468 
Q 2741 3859 2006 3859 
L 1438 3859 
z
" transform="scale(0.015625)"/>
      <path id="MalgunGothicBold-2f" d="M 2878 4600 
L 647 -763 
L -138 -763 
L 2088 4600 
L 2878 4600 
z
" transform="scale(0.015625)"/>
      <path id="MalgunGothicBold-45" d="M 3209 0 
L 547 0 
L 547 4600 
L 3106 4600 
L 3106 3859 
L 1438 3859 
L 1438 2688 
L 2988 2688 
L 2988 1950 
L 1438 1950 
L 1438 738 
L 3209 738 
L 3209 0 
z
" transform="scale(0.015625)"/>
      <path id="MalgunGothicBold-52" d="M 4241 0 
L 3209 0 
L 2478 1216 
Q 2256 1584 2100 1700 
Q 1944 1816 1763 1816 
L 1438 1816 
L 1438 0 
L 547 0 
L 547 4600 
L 2109 4600 
Q 3703 4600 3703 3356 
Q 3703 2900 3436 2564 
Q 3169 2228 2675 2088 
L 2675 2075 
Q 2991 1969 3372 1366 
L 4241 0 
z
M 1438 3906 
L 1438 2513 
L 1969 2513 
Q 2331 2513 2548 2723 
Q 2766 2934 2766 3250 
Q 2766 3906 1984 3906 
L 1438 3906 
z
" transform="scale(0.015625)"/>
     </defs>
     <use xlink:href="#MalgunGothicBold-55"/>
     <use xlink:href="#MalgunGothicBold-53" transform="translate(73.095703 0)"/>
     <use xlink:href="#MalgunGothicBold-44" transform="translate(129.6875 0)"/>
     <use xlink:href="#MalgunGothicBold-2f" transform="translate(204.248047 0)"/>
     <use xlink:href="#MalgunGothicBold-45" transform="translate(248.144531 0)"/>
     <use xlink:href="#MalgunGothicBold-55" transform="translate(302.001953 0)"/>
     <use xlink:href="#MalgunGothicBold-52" transform="translate(375.097656 0)"/>
     <use xlink:href="#MalgunGothicBold-20" transform="translate(440.478516 0)"/>
     <use xlink:href="#MalgunGothicBold-31" transform="translate(475.634766 0)"/>
     <use xlink:href="#MalgunGothicBold-2c" transform="translate(533.59375 0)"/>
     <use xlink:href="#MalgunGothicBold-30" transform="translate(559.765625 0)"/>
     <use xlink:href="#MalgunGothicBold-30" transform="translate(617.724609 0)"/>
     <use xlink:href="#MalgunGothicBold-30" transform="translate(675.683594 0)"/>
    </g>
   </g>
   <g id="text_21">
    <!-- SGD 1,500 -->
    <g style="fill: #111418" transform="translate(249.4674 114.152464) scale(0.095 -0.095)">
     <defs>
      <path id="MalgunGothicBold-47" d="M 4225 313 
Q 3547 -81 2588 -81 
Q 1519 -81 887 539 
Q 256 1159 256 2228 
Q 256 3303 943 3989 
Q 1631 4675 2763 4675 
Q 3500 4675 4044 4463 
L 4044 3597 
Q 3513 3919 2738 3919 
Q 2053 3919 1623 3467 
Q 1194 3016 1194 2275 
Q 1194 1519 1581 1098 
Q 1969 678 2644 678 
Q 3056 678 3331 813 
L 3331 1828 
L 2388 1828 
L 2388 2553 
L 4225 2553 
L 4225 313 
z
" transform="scale(0.015625)"/>
      <path id="MalgunGothicBold-35" d="M 472 138 
L 472 928 
Q 681 769 948 684 
Q 1216 600 1472 600 
Q 1913 600 2166 812 
Q 2419 1025 2419 1403 
Q 2419 1797 2151 1976 
Q 1884 2156 1331 2156 
Q 956 2156 544 2091 
L 716 4600 
L 3097 4600 
L 3097 3875 
L 1434 3875 
L 1356 2806 
Q 1706 2847 1819 2847 
Q 2491 2847 2898 2478 
Q 3306 2109 3306 1497 
Q 3306 756 2837 337 
Q 2369 -81 1556 -81 
Q 875 -81 472 138 
z
" transform="scale(0.015625)"/>
     </defs>
     <use xlink:href="#MalgunGothicBold-53"/>
     <use xlink:href="#MalgunGothicBold-47" transform="translate(56.591797 0)"/>
     <use xlink:href="#MalgunGothicBold-44" transform="translate(128.808594 0)"/>
     <use xlink:href="#MalgunGothicBold-20" transform="translate(203.369141 0)"/>
     <use xlink:href="#MalgunGothicBold-31" transform="translate(238.525391 0)"/>
     <use xlink:href="#MalgunGothicBold-2c" transform="translate(296.484375 0)"/>
     <use xlink:href="#MalgunGothicBold-35" transform="translate(322.65625 0)"/>
     <use xlink:href="#MalgunGothicBold-30" transform="translate(380.615234 0)"/>
     <use xlink:href="#MalgunGothicBold-30" transform="translate(438.574219 0)"/>
    </g>
   </g>
   <g id="text_22">
    <!-- $3,000 -->
    <g style="fill: #111418" transform="translate(489.4632 71.106201) scale(0.095 -0.095)">
     <defs>
      <path id="MalgunGothicBold-24" d="M 2109 -672 
L 1678 -672 
L 1678 3 
Q 1019 9 497 294 
L 497 1088 
Q 678 934 1036 809 
Q 1394 684 1678 672 
L 1678 1978 
Q 1019 2228 725 2547 
Q 431 2866 431 3350 
Q 431 3841 784 4195 
Q 1138 4550 1678 4603 
L 1678 5194 
L 2109 5194 
L 2109 4613 
Q 2772 4584 3075 4406 
L 3075 3634 
Q 2659 3903 2109 3950 
L 2109 2594 
Q 2759 2334 3065 2031 
Q 3372 1728 3372 1253 
Q 3372 744 3037 420 
Q 2703 97 2109 28 
L 2109 -672 
z
M 1678 3938 
Q 1191 3844 1191 3406 
Q 1191 3213 1292 3073 
Q 1394 2934 1678 2778 
L 1678 3938 
z
M 2109 688 
Q 2613 778 2613 1209 
Q 2613 1556 2109 1800 
L 2109 688 
z
" transform="scale(0.015625)"/>
      <path id="MalgunGothicBold-33" d="M 456 947 
Q 922 600 1531 600 
Q 1931 600 2175 783 
Q 2419 966 2419 1306 
Q 2419 2022 1338 2022 
L 931 2022 
L 931 2703 
L 1309 2703 
Q 2278 2703 2278 3372 
Q 2278 3997 1534 3997 
Q 1069 3997 631 3691 
L 631 4425 
Q 1100 4675 1738 4675 
Q 2372 4675 2769 4375 
Q 3166 4075 3166 3544 
Q 3166 2647 2250 2406 
L 2250 2394 
Q 2728 2344 3018 2042 
Q 3309 1741 3309 1313 
Q 3309 659 2836 289 
Q 2363 -81 1581 -81 
Q 894 -81 456 156 
L 456 947 
z
" transform="scale(0.015625)"/>
     </defs>
     <use xlink:href="#MalgunGothicBold-24"/>
     <use xlink:href="#MalgunGothicBold-33" transform="translate(57.958984 0)"/>
     <use xlink:href="#MalgunGothicBold-2c" transform="translate(115.917969 0)"/>
     <use xlink:href="#MalgunGothicBold-30" transform="translate(142.089844 0)"/>
     <use xlink:href="#MalgunGothicBold-30" transform="translate(200.048828 0)"/>
     <use xlink:href="#MalgunGothicBold-30" transform="translate(258.007812 0)"/>
    </g>
   </g>
   <g id="text_23">
    <!-- 관할별 Travel Rule 임계금액 — EU가 가장 엄격 (임계 0) -->
    <g style="fill: #111418" transform="translate(94.176 29.1825) scale(0.14 -0.14)">
     <defs>
      <path id="MalgunGothicBold-ad00" d="M 5325 2828 
L 5325 1044 
L 4538 1044 
L 4538 5466 
L 5325 5466 
L 5325 3494 
L 6216 3494 
L 6216 2828 
L 5325 2828 
z
M 3897 5147 
Q 3897 3872 3788 2975 
L 3022 3047 
Q 3091 3678 3109 4488 
L 794 4488 
L 794 5147 
L 3897 5147 
z
M 4341 2003 
Q 2478 1894 341 1894 
L 263 2553 
Q 1103 2553 1581 2566 
L 1581 3763 
L 2369 3763 
L 2369 2572 
Q 3738 2603 4294 2644 
L 4341 2003 
z
M 1234 -359 
L 1234 1563 
L 2022 1563 
L 2022 300 
L 5403 300 
L 5403 -359 
L 1234 -359 
z
" transform="scale(0.015625)"/>
      <path id="MalgunGothicBold-d560" d="M 1906 5581 
L 2688 5581 
L 2688 4991 
L 4141 4991 
L 4141 4384 
L 447 4384 
L 447 4991 
L 1906 4991 
L 1906 5581 
z
M 5259 3175 
L 5259 2100 
L 4475 2100 
L 4475 5466 
L 5259 5466 
L 5259 3834 
L 6169 3834 
L 6169 3175 
L 5259 3175 
z
M 3872 3169 
Q 3872 2694 3445 2416 
Q 3019 2138 2291 2138 
Q 1563 2138 1139 2417 
Q 716 2697 716 3169 
Q 716 3650 1145 3925 
Q 1575 4200 2297 4200 
Q 3025 4200 3448 3923 
Q 3872 3647 3872 3169 
z
M 1509 3169 
Q 1509 2753 2297 2753 
Q 3084 2753 3084 3169 
Q 3084 3584 2297 3584 
Q 1509 3584 1509 3169 
z
M 1447 -538 
L 1447 941 
L 4488 941 
L 4488 1241 
L 1447 1241 
L 1447 1856 
L 5259 1856 
L 5259 397 
L 2228 397 
L 2228 78 
L 5409 78 
L 5409 -538 
L 1447 -538 
z
" transform="scale(0.015625)"/>
      <path id="MalgunGothicBold-bcc4" d="M 722 2541 
L 722 5269 
L 1491 5269 
L 1491 4525 
L 2847 4525 
L 2847 5269 
L 3622 5269 
L 3622 4716 
L 4794 4716 
L 4794 5466 
L 5563 5466 
L 5563 2438 
L 4794 2438 
L 4794 2956 
L 3622 2956 
L 3622 2541 
L 722 2541 
z
M 3622 3547 
L 4794 3547 
L 4794 4128 
L 3622 4128 
L 3622 3547 
z
M 2847 3866 
L 1491 3866 
L 1491 3194 
L 2847 3194 
L 2847 3866 
z
M 1663 -466 
L 1663 1166 
L 4794 1166 
L 4794 1538 
L 1663 1538 
L 1663 2175 
L 5563 2175 
L 5563 563 
L 2438 563 
L 2438 172 
L 5716 172 
L 5716 -466 
L 1663 -466 
z
" transform="scale(0.015625)"/>
      <path id="MalgunGothicBold-54" d="M 3628 3859 
L 2313 3859 
L 2313 0 
L 1419 0 
L 1419 3859 
L 106 3859 
L 106 4600 
L 3628 4600 
L 3628 3859 
z
" transform="scale(0.015625)"/>
      <path id="MalgunGothicBold-72" d="M 2472 2481 
Q 2300 2584 2050 2584 
Q 1722 2584 1525 2317 
Q 1328 2050 1328 1600 
L 1328 0 
L 456 0 
L 456 3284 
L 1328 3284 
L 1328 2653 
L 1338 2653 
Q 1578 3341 2203 3341 
Q 2381 3341 2472 3297 
L 2472 2481 
z
" transform="scale(0.015625)"/>
      <path id="MalgunGothicBold-61" d="M 534 3075 
Q 756 3203 1109 3283 
Q 1463 3363 1744 3363 
Q 3075 3363 3075 2013 
L 3075 0 
L 2244 0 
L 2244 484 
L 2228 484 
Q 1897 -81 1244 -81 
Q 769 -81 491 186 
Q 213 453 213 903 
Q 213 1844 1331 1994 
L 2247 2119 
Q 2247 2747 1634 2747 
Q 1050 2747 534 2381 
L 534 3075 
z
M 1594 1500 
Q 1031 1428 1031 997 
Q 1031 803 1165 681 
Q 1300 559 1528 559 
Q 1841 559 2044 779 
Q 2247 1000 2247 1334 
L 2247 1584 
L 1594 1500 
z
" transform="scale(0.015625)"/>
      <path id="MalgunGothicBold-76" d="M 3425 3284 
L 2175 0 
L 1209 0 
L 22 3284 
L 959 3284 
L 1606 1153 
Q 1697 850 1719 609 
L 1734 609 
Q 1759 844 1847 1138 
L 2513 3284 
L 3425 3284 
z
" transform="scale(0.015625)"/>
      <path id="MalgunGothicBold-65" d="M 3316 1397 
L 1122 1397 
Q 1175 559 2072 559 
Q 2619 559 3047 847 
L 3047 184 
Q 2591 -81 1875 -81 
Q 1109 -81 682 362 
Q 256 806 256 1603 
Q 256 2384 714 2873 
Q 1172 3363 1859 3363 
Q 2547 3363 2931 2941 
Q 3316 2519 3316 1781 
L 3316 1397 
z
M 2494 1969 
Q 2494 2750 1850 2750 
Q 1581 2750 1376 2537 
Q 1172 2325 1122 1969 
L 2494 1969 
z
" transform="scale(0.015625)"/>
      <path id="MalgunGothicBold-6c" d="M 444 0 
L 444 4859 
L 1313 4859 
L 1313 0 
L 444 0 
z
" transform="scale(0.015625)"/>
      <path id="MalgunGothicBold-75" d="M 3444 0 
L 2575 0 
L 2575 506 
L 2559 506 
Q 2197 -81 1553 -81 
Q 400 -81 400 1306 
L 400 3284 
L 1272 3284 
L 1272 1397 
Q 1272 600 1891 600 
Q 2194 600 2384 817 
Q 2575 1034 2575 1400 
L 2575 3284 
L 3444 3284 
L 3444 0 
z
" transform="scale(0.015625)"/>
      <path id="MalgunGothicBold-c784" d="M 4703 2053 
L 4703 5466 
L 5472 5466 
L 5472 2053 
L 4703 2053 
z
M 2247 2291 
Q 1547 2291 1090 2708 
Q 634 3125 634 3809 
Q 634 4481 1090 4900 
Q 1547 5319 2247 5319 
Q 2953 5319 3406 4898 
Q 3859 4478 3859 3809 
Q 3859 3131 3406 2711 
Q 2953 2291 2247 2291 
z
M 2247 4666 
Q 1866 4666 1637 4433 
Q 1409 4200 1409 3809 
Q 1409 3428 1642 3186 
Q 1875 2944 2247 2944 
Q 2622 2944 2853 3184 
Q 3084 3425 3084 3809 
Q 3084 4200 2856 4433 
Q 2628 4666 2247 4666 
z
M 1581 -434 
L 1581 1800 
L 5472 1800 
L 5472 -434 
L 1581 -434 
z
M 4709 1147 
L 2350 1147 
L 2350 219 
L 4709 219 
L 4709 1147 
z
" transform="scale(0.015625)"/>
      <path id="MalgunGothicBold-acc4" d="M 4872 -563 
L 4872 5466 
L 5650 5466 
L 5650 -563 
L 4872 -563 
z
M 3122 4959 
Q 3063 4391 2975 4013 
L 3628 4013 
L 3628 5344 
L 4403 5344 
L 4403 -384 
L 3628 -384 
L 3628 1747 
L 2463 1747 
L 2463 2400 
L 3628 2400 
L 3628 3359 
L 2791 3359 
Q 2575 2675 2037 1919 
Q 1500 1163 1013 781 
L 353 1275 
Q 909 1597 1503 2431 
Q 2097 3266 2284 4306 
L 684 4306 
L 684 4959 
L 3122 4959 
z
" transform="scale(0.015625)"/>
      <path id="MalgunGothicBold-ae08" d="M 403 2578 
L 403 3238 
L 4319 3238 
Q 4372 4069 4372 4672 
L 1216 4672 
L 1216 5331 
L 5159 5331 
Q 5159 4513 5075 3238 
L 5997 3238 
L 5997 2578 
L 403 2578 
z
M 1228 -434 
L 1228 1838 
L 5172 1838 
L 5172 -434 
L 1228 -434 
z
M 4391 1178 
L 2009 1178 
L 2009 219 
L 4391 219 
L 4391 1178 
z
" transform="scale(0.015625)"/>
      <path id="MalgunGothicBold-c561" d="M 4856 1991 
L 4856 3272 
L 4409 3272 
L 4409 1991 
L 3641 1991 
L 3641 5344 
L 4409 5344 
L 4409 3928 
L 4856 3928 
L 4856 5466 
L 5631 5466 
L 5631 1991 
L 4856 1991 
z
M 1863 2241 
Q 1272 2241 844 2647 
Q 416 3053 416 3750 
Q 416 4447 844 4853 
Q 1272 5259 1863 5259 
Q 2453 5259 2881 4853 
Q 3309 4447 3309 3750 
Q 3309 3053 2881 2647 
Q 2453 2241 1863 2241 
z
M 1863 4616 
Q 1569 4616 1370 4389 
Q 1172 4163 1172 3750 
Q 1172 3338 1370 3113 
Q 1569 2888 1863 2888 
Q 2150 2888 2348 3109 
Q 2547 3331 2547 3750 
Q 2547 4172 2348 4394 
Q 2150 4616 1863 4616 
z
M 4850 -563 
L 4850 1069 
L 1631 1069 
L 1631 1734 
L 5631 1734 
L 5631 -563 
L 4850 -563 
z
" transform="scale(0.015625)"/>
      <path id="MalgunGothicBold-2014" d="M 6566 1463 
L 0 1463 
L 0 2088 
L 6566 2088 
L 6566 1463 
z
" transform="scale(0.015625)"/>
      <path id="MalgunGothicBold-ac00" d="M 5269 2431 
L 5269 -563 
L 4481 -563 
L 4481 5466 
L 5269 5466 
L 5269 3091 
L 6203 3091 
L 6203 2431 
L 5269 2431 
z
M 978 756 
L 391 1306 
Q 2413 2416 2834 4288 
L 738 4288 
L 738 4947 
L 3725 4947 
Q 3478 2297 978 756 
z
" transform="scale(0.015625)"/>
      <path id="MalgunGothicBold-c7a5" d="M 5259 3328 
L 5259 1947 
L 4475 1947 
L 4475 5466 
L 5259 5466 
L 5259 3988 
L 6175 3988 
L 6175 3328 
L 5259 3328 
z
M 3566 2113 
Q 2672 2556 2222 3213 
Q 2056 2869 1640 2476 
Q 1225 2084 856 1906 
L 300 2456 
Q 928 2694 1367 3217 
Q 1806 3741 1806 4300 
L 1806 4544 
L 563 4544 
L 563 5197 
L 3803 5197 
L 3803 4544 
L 2591 4544 
L 2591 4325 
Q 2591 3788 3002 3353 
Q 3413 2919 4063 2706 
L 3566 2113 
z
M 3347 -538 
Q 2388 -538 1863 -208 
Q 1338 122 1338 666 
Q 1338 1206 1869 1531 
Q 2400 1856 3347 1856 
Q 4297 1856 4826 1532 
Q 5356 1209 5356 666 
Q 5356 119 4829 -209 
Q 4303 -538 3347 -538 
z
M 3347 1203 
Q 2150 1203 2150 666 
Q 2150 116 3347 116 
Q 4550 116 4550 666 
Q 4550 1203 3347 1203 
z
" transform="scale(0.015625)"/>
      <path id="MalgunGothicBold-c5c4" d="M 3788 3488 
Q 3672 2909 3233 2587 
Q 2794 2266 2203 2266 
Q 1506 2266 1047 2692 
Q 588 3119 588 3809 
Q 588 4494 1052 4919 
Q 1516 5344 2203 5344 
Q 2791 5344 3228 5023 
Q 3666 4703 3781 4153 
L 4769 4153 
L 4769 5466 
L 5538 5466 
L 5538 2053 
L 4769 2053 
L 4769 3488 
L 3788 3488 
z
M 2203 4691 
Q 1825 4691 1594 4448 
Q 1363 4206 1363 3809 
Q 1363 3425 1598 3172 
Q 1834 2919 2203 2919 
Q 2575 2919 2808 3170 
Q 3041 3422 3041 3809 
Q 3041 4203 2809 4447 
Q 2578 4691 2203 4691 
z
M 1644 -434 
L 1644 1800 
L 5538 1800 
L 5538 -434 
L 1644 -434 
z
M 4775 1147 
L 2413 1147 
L 2413 219 
L 4775 219 
L 4775 1147 
z
" transform="scale(0.015625)"/>
      <path id="MalgunGothicBold-aca9" d="M 3463 2528 
L 3463 3156 
L 4794 3156 
L 4794 3897 
L 3622 3897 
L 3622 4525 
L 4794 4525 
L 4794 5466 
L 5563 5466 
L 5563 1966 
L 4794 1966 
L 4794 2528 
L 3463 2528 
z
M 3700 5203 
Q 3609 4153 2898 3276 
Q 2188 2400 1013 1875 
L 453 2463 
Q 1225 2722 1873 3287 
Q 2522 3853 2753 4544 
L 813 4544 
L 813 5203 
L 3700 5203 
z
M 4781 -563 
L 4781 1050 
L 1544 1050 
L 1544 1709 
L 5563 1709 
L 5563 -563 
L 4781 -563 
z
" transform="scale(0.015625)"/>
     </defs>
     <use xlink:href="#MalgunGothicBold-ad00"/>
     <use xlink:href="#MalgunGothicBold-d560" transform="translate(100 0)"/>
     <use xlink:href="#MalgunGothicBold-bcc4" transform="translate(200 0)"/>
     <use xlink:href="#MalgunGothicBold-20" transform="translate(300 0)"/>
     <use xlink:href="#MalgunGothicBold-54" transform="translate(335.15625 0)"/>
     <use xlink:href="#MalgunGothicBold-72" transform="translate(385.158203 0)"/>
     <use xlink:href="#MalgunGothicBold-61" transform="translate(424.513672 0)"/>
     <use xlink:href="#MalgunGothicBold-76" transform="translate(478.810547 0)"/>
     <use xlink:href="#MalgunGothicBold-65" transform="translate(531.347656 0)"/>
     <use xlink:href="#MalgunGothicBold-6c" transform="translate(586.328125 0)"/>
     <use xlink:href="#MalgunGothicBold-20" transform="translate(613.769531 0)"/>
     <use xlink:href="#MalgunGothicBold-52" transform="translate(648.925781 0)"/>
     <use xlink:href="#MalgunGothicBold-75" transform="translate(714.306641 0)"/>
     <use xlink:href="#MalgunGothicBold-6c" transform="translate(775.146484 0)"/>
     <use xlink:href="#MalgunGothicBold-65" transform="translate(802.587891 0)"/>
     <use xlink:href="#MalgunGothicBold-20" transform="translate(857.568359 0)"/>
     <use xlink:href="#MalgunGothicBold-c784" transform="translate(892.724609 0)"/>
     <use xlink:href="#MalgunGothicBold-acc4" transform="translate(992.724609 0)"/>
     <use xlink:href="#MalgunGothicBold-ae08" transform="translate(1092.724609 0)"/>
     <use xlink:href="#MalgunGothicBold-c561" transform="translate(1192.724609 0)"/>
     <use xlink:href="#MalgunGothicBold-20" transform="translate(1292.724609 0)"/>
     <use xlink:href="#MalgunGothicBold-2014" transform="translate(1327.880859 0)"/>
     <use xlink:href="#MalgunGothicBold-20" transform="translate(1430.46875 0)"/>
     <use xlink:href="#MalgunGothicBold-45" transform="translate(1465.625 0)"/>
     <use xlink:href="#MalgunGothicBold-55" transform="translate(1519.482422 0)"/>
     <use xlink:href="#MalgunGothicBold-ac00" transform="translate(1592.578125 0)"/>
     <use xlink:href="#MalgunGothicBold-20" transform="translate(1692.578125 0)"/>
     <use xlink:href="#MalgunGothicBold-ac00" transform="translate(1727.734375 0)"/>
     <use xlink:href="#MalgunGothicBold-c7a5" transform="translate(1827.734375 0)"/>
     <use xlink:href="#MalgunGothicBold-20" transform="translate(1927.734375 0)"/>
     <use xlink:href="#MalgunGothicBold-c5c4" transform="translate(1962.890625 0)"/>
     <use xlink:href="#MalgunGothicBold-aca9" transform="translate(2062.890625 0)"/>
     <use xlink:href="#MalgunGothicBold-20" transform="translate(2162.890625 0)"/>
     <use xlink:href="#MalgunGothicBold-28" transform="translate(2198.046875 0)"/>
     <use xlink:href="#MalgunGothicBold-c784" transform="translate(2233.837891 0)"/>
     <use xlink:href="#MalgunGothicBold-acc4" transform="translate(2333.837891 0)"/>
     <use xlink:href="#MalgunGothicBold-20" transform="translate(2433.837891 0)"/>
     <use xlink:href="#MalgunGothicBold-30" transform="translate(2468.994141 0)"/>
     <use xlink:href="#MalgunGothicBold-29" transform="translate(2526.953125 0)"/>
    </g>
   </g>
  </g>
  <g id="text_24">
   <!-- Source: FATF R.16 · 한국 특금법 시행령 §10의10 · BSA 1996 · EU TFR 2023/1113 -->
   <g style="fill: #6b7280" transform="translate(18 354.2225) scale(0.075 -0.075)">
    <defs>
     <path id="MalgunGothic-6f" d="M 316 1600 
Q 316 2419 761 2889 
Q 1206 3359 1978 3359 
Q 2697 3359 3111 2907 
Q 3525 2456 3525 1650 
Q 3525 869 3078 395 
Q 2631 -78 1900 -78 
Q 1184 -78 750 384 
Q 316 847 316 1600 
z
M 819 1622 
Q 819 1041 1123 692 
Q 1428 344 1934 344 
Q 2459 344 2739 680 
Q 3019 1016 3019 1634 
Q 3019 2256 2737 2598 
Q 2456 2941 1934 2941 
Q 1425 2941 1122 2587 
Q 819 2234 819 1622 
z
" transform="scale(0.015625)"/>
     <path id="MalgunGothic-75" d="M 3166 0 
L 2669 0 
L 2669 519 
L 2656 519 
Q 2331 -78 1644 -78 
Q 469 -78 469 1322 
L 469 3284 
L 959 3284 
L 959 1403 
Q 959 344 1766 344 
Q 2159 344 2414 636 
Q 2669 928 2669 1394 
L 2669 3284 
L 3166 3284 
L 3166 0 
z
" transform="scale(0.015625)"/>
     <path id="MalgunGothic-72" d="M 2225 2775 
Q 2084 2881 1828 2881 
Q 1491 2881 1262 2553 
Q 1034 2225 1034 1681 
L 1034 0 
L 538 0 
L 538 3284 
L 1034 3284 
L 1034 2603 
L 1047 2603 
Q 1159 2950 1389 3145 
Q 1619 3341 1903 3341 
Q 2109 3341 2225 3297 
L 2225 2775 
z
" transform="scale(0.015625)"/>
     <path id="MalgunGothic-63" d="M 2763 153 
Q 2375 -78 1872 -78 
Q 1184 -78 750 372 
Q 316 822 316 1566 
Q 316 2381 777 2870 
Q 1238 3359 2009 3359 
Q 2434 3359 2766 3200 
L 2766 2681 
Q 2397 2941 1981 2941 
Q 1478 2941 1148 2577 
Q 819 2213 819 1609 
Q 819 1034 1120 689 
Q 1422 344 1947 344 
Q 2381 344 2763 631 
L 2763 153 
z
" transform="scale(0.015625)"/>
     <path id="MalgunGothic-65" d="M 3156 1519 
L 828 1519 
Q 844 950 1133 648 
Q 1422 347 1909 347 
Q 2472 347 2934 719 
L 2934 244 
Q 2494 -78 1794 -78 
Q 1100 -78 708 376 
Q 316 831 316 1634 
Q 316 2381 747 2870 
Q 1178 3359 1816 3359 
Q 2453 3359 2804 2942 
Q 3156 2525 3156 1788 
L 3156 1519 
z
M 2644 1956 
Q 2644 2416 2423 2675 
Q 2203 2934 1809 2934 
Q 1438 2934 1169 2667 
Q 900 2400 834 1956 
L 2644 1956 
z
" transform="scale(0.015625)"/>
     <path id="MalgunGothic-3a" d="M 356 3006 
Q 356 3153 459 3254 
Q 563 3356 700 3356 
Q 838 3356 941 3254 
Q 1044 3153 1044 3006 
Q 1044 2863 942 2761 
Q 841 2659 700 2659 
Q 559 2659 457 2761 
Q 356 2863 356 3006 
z
M 356 275 
Q 356 422 459 523 
Q 563 625 700 625 
Q 838 625 941 523 
Q 1044 422 1044 275 
Q 1044 138 942 33 
Q 841 -72 700 -72 
Q 559 -72 457 29 
Q 356 131 356 275 
z
" transform="scale(0.015625)"/>
     <path id="MalgunGothic-2e" d="M 356 275 
Q 356 422 459 523 
Q 563 625 700 625 
Q 838 625 941 523 
Q 1044 422 1044 275 
Q 1044 138 942 33 
Q 841 -72 700 -72 
Q 559 -72 457 29 
Q 356 131 356 275 
z
" transform="scale(0.015625)"/>
     <path id="MalgunGothic-36" d="M 2981 4069 
Q 2619 4250 2228 4250 
Q 1591 4250 1228 3689 
Q 866 3128 869 2213 
L 884 2213 
Q 1203 2872 1938 2872 
Q 2547 2872 2903 2478 
Q 3259 2084 3259 1450 
Q 3259 797 2857 359 
Q 2456 -78 1825 -78 
Q 1116 -78 736 478 
Q 356 1034 356 2019 
Q 356 3181 847 3928 
Q 1338 4675 2222 4675 
Q 2700 4675 2981 4544 
L 2981 4069 
z
M 906 1506 
Q 906 1022 1165 683 
Q 1425 344 1844 344 
Q 2247 344 2498 645 
Q 2750 947 2750 1388 
Q 2750 1888 2509 2167 
Q 2269 2447 1838 2447 
Q 1444 2447 1175 2173 
Q 906 1900 906 1506 
z
" transform="scale(0.015625)"/>
     <path id="MalgunGothic-b7" d="M 700 1644 
Q 628 1644 565 1672 
Q 503 1700 456 1747 
Q 409 1794 382 1858 
Q 356 1922 356 1994 
Q 356 2066 382 2130 
Q 409 2194 456 2241 
Q 503 2288 565 2316 
Q 628 2344 700 2344 
Q 772 2344 834 2316 
Q 897 2288 944 2241 
Q 991 2194 1017 2130 
Q 1044 2066 1044 1994 
Q 1044 1925 1017 1861 
Q 991 1797 944 1748 
Q 897 1700 834 1672 
Q 772 1644 700 1644 
z
" transform="scale(0.015625)"/>
     <path id="MalgunGothic-d2b9" d="M 1344 2969 
L 1344 5331 
L 5081 5331 
L 5081 4928 
L 1806 4928 
L 1806 4359 
L 4978 4359 
L 4978 3981 
L 1806 3981 
L 1806 3372 
L 5153 3372 
L 5153 2969 
L 1344 2969 
z
M 403 1978 
L 403 2381 
L 5997 2381 
L 5997 1978 
L 403 1978 
z
M 4594 -563 
L 4594 934 
L 1228 934 
L 1228 1344 
L 5069 1344 
L 5069 -563 
L 4594 -563 
z
" transform="scale(0.015625)"/>
     <path id="MalgunGothic-bc95" d="M 1038 2578 
L 1038 5269 
L 1497 5269 
L 1497 4300 
L 3353 4300 
L 3353 5269 
L 3822 5269 
L 3822 4109 
L 4953 4109 
L 4953 5466 
L 5422 5466 
L 5422 2350 
L 4953 2350 
L 4953 3688 
L 3822 3688 
L 3822 2578 
L 1038 2578 
z
M 3353 3891 
L 1497 3891 
L 1497 2994 
L 3353 2994 
L 3353 3891 
z
M 1709 -397 
L 1709 2016 
L 2169 2016 
L 2169 1184 
L 4953 1184 
L 4953 2016 
L 5416 2016 
L 5416 -397 
L 1709 -397 
z
M 4953 775 
L 2169 775 
L 2169 13 
L 4953 13 
L 4953 775 
z
" transform="scale(0.015625)"/>
     <path id="MalgunGothic-c2dc" d="M 4947 -563 
L 4947 5466 
L 5416 5466 
L 5416 -563 
L 4947 -563 
z
M 3769 966 
Q 3263 1353 2820 1939 
Q 2378 2525 2259 2950 
Q 2116 2463 1687 1872 
Q 1259 1281 756 891 
L 397 1203 
Q 1141 1703 1581 2479 
Q 2022 3256 2022 4063 
L 2022 5050 
L 2484 5050 
L 2484 4084 
Q 2484 3303 2920 2556 
Q 3356 1809 4097 1331 
L 3769 966 
z
" transform="scale(0.015625)"/>
     <path id="MalgunGothic-d589" d="M 5075 1772 
L 5075 3231 
L 4372 3231 
L 4372 1947 
L 3909 1947 
L 3909 5344 
L 4372 5344 
L 4372 3641 
L 5075 3641 
L 5075 5466 
L 5538 5466 
L 5538 1772 
L 5075 1772 
z
M 459 4275 
L 459 4684 
L 1784 4684 
L 1784 5416 
L 2247 5416 
L 2247 4684 
L 3559 4684 
L 3559 4275 
L 459 4275 
z
M 2022 1997 
Q 1431 1997 1070 2284 
Q 709 2572 709 3003 
Q 709 3438 1071 3722 
Q 1434 4006 2022 4006 
Q 2609 4006 2971 3722 
Q 3334 3438 3334 3003 
Q 3334 2569 2976 2283 
Q 2619 1997 2022 1997 
z
M 2022 3622 
Q 1656 3622 1404 3448 
Q 1153 3275 1153 3003 
Q 1153 2738 1406 2563 
Q 1659 2388 2022 2388 
Q 2391 2388 2645 2563 
Q 2900 2738 2900 3003 
Q 2900 3275 2644 3448 
Q 2388 3622 2022 3622 
z
M 3547 -513 
Q 2556 -513 2036 -227 
Q 1516 59 1516 569 
Q 1516 1084 2037 1367 
Q 2559 1650 3547 1650 
Q 4534 1650 5054 1364 
Q 5575 1078 5575 569 
Q 5575 63 5056 -225 
Q 4538 -513 3547 -513 
z
M 3547 1253 
Q 2016 1253 2016 569 
Q 2016 -116 3547 -116 
Q 5081 -116 5081 569 
Q 5081 1253 3547 1253 
z
" transform="scale(0.015625)"/>
     <path id="MalgunGothic-b839" d="M 3834 3003 
L 3834 3406 
L 4947 3406 
L 4947 4091 
L 3847 4091 
L 3847 4500 
L 4947 4500 
L 4947 5466 
L 5416 5466 
L 5416 1831 
L 4947 1831 
L 4947 3003 
L 3834 3003 
z
M 3731 2272 
Q 3247 2191 2811 2173 
Q 2375 2156 991 2156 
L 991 3944 
L 2975 3944 
L 2975 4763 
L 991 4763 
L 991 5172 
L 3444 5172 
L 3444 3534 
L 1459 3534 
L 1459 2572 
L 2166 2572 
Q 3122 2572 3669 2675 
L 3731 2272 
z
M 3488 -481 
Q 2531 -481 2020 -189 
Q 1509 103 1509 603 
Q 1509 1100 2017 1395 
Q 2525 1691 3488 1691 
Q 4463 1691 4967 1397 
Q 5472 1103 5472 603 
Q 5472 100 4964 -190 
Q 4456 -481 3488 -481 
z
M 3488 1294 
Q 2756 1294 2382 1108 
Q 2009 922 2009 603 
Q 2009 278 2389 97 
Q 2769 -84 3488 -84 
Q 4203 -84 4590 94 
Q 4978 272 4978 603 
Q 4978 928 4597 1111 
Q 4216 1294 3488 1294 
z
" transform="scale(0.015625)"/>
     <path id="MalgunGothic-a7" d="M 2091 1331 
Q 2381 1097 2381 731 
Q 2381 319 2064 55 
Q 1747 -209 1250 -209 
Q 838 -209 494 -34 
L 494 453 
Q 903 222 1281 222 
Q 1556 222 1706 351 
Q 1856 481 1856 678 
Q 1856 856 1751 968 
Q 1647 1081 1166 1334 
Q 419 1725 419 2350 
Q 419 2878 897 3134 
Q 553 3403 553 3850 
Q 553 4259 858 4520 
Q 1163 4781 1634 4781 
Q 2041 4781 2328 4647 
L 2328 4156 
Q 2022 4350 1622 4350 
Q 1072 4350 1072 3878 
Q 1072 3525 1547 3303 
L 1800 3184 
Q 2203 2997 2386 2761 
Q 2569 2525 2569 2216 
Q 2569 1678 2091 1331 
z
M 1272 2909 
Q 938 2744 938 2391 
Q 938 2156 1114 1981 
Q 1291 1806 1756 1597 
Q 2044 1828 2044 2163 
Q 2044 2425 1847 2589 
Q 1650 2753 1272 2909 
z
" transform="scale(0.015625)"/>
     <path id="MalgunGothic-c758" d="M 5013 -563 
L 5013 5466 
L 5478 5466 
L 5478 -563 
L 5013 -563 
z
M 2450 2131 
Q 1775 2131 1315 2540 
Q 856 2950 856 3572 
Q 856 4181 1312 4593 
Q 1769 5006 2450 5006 
Q 3128 5006 3586 4590 
Q 4044 4175 4044 3572 
Q 4044 2947 3587 2539 
Q 3131 2131 2450 2131 
z
M 2450 4594 
Q 1975 4594 1656 4306 
Q 1338 4019 1338 3572 
Q 1338 3119 1664 2833 
Q 1991 2547 2450 2547 
Q 2922 2547 3244 2833 
Q 3566 3119 3566 3572 
Q 3566 4025 3247 4309 
Q 2928 4594 2450 4594 
z
M 459 531 
L 416 934 
Q 1222 934 2667 965 
Q 4113 997 4588 1038 
L 4616 634 
Q 4125 594 2679 562 
Q 1234 531 459 531 
z
" transform="scale(0.015625)"/>
     <path id="MalgunGothic-39" d="M 556 563 
Q 941 344 1366 344 
Q 1994 344 2347 855 
Q 2700 1366 2700 2313 
Q 2694 2306 2688 2313 
Q 2388 1713 1653 1713 
Q 1059 1713 682 2120 
Q 306 2528 306 3144 
Q 306 3806 711 4240 
Q 1116 4675 1772 4675 
Q 2466 4675 2833 4131 
Q 3200 3588 3200 2578 
Q 3200 1319 2717 620 
Q 2234 -78 1344 -78 
Q 881 -78 556 78 
L 556 563 
z
M 813 3219 
Q 813 2741 1063 2450 
Q 1313 2159 1759 2159 
Q 2147 2159 2406 2417 
Q 2666 2675 2666 3047 
Q 2666 3556 2411 3903 
Q 2156 4250 1725 4250 
Q 1322 4250 1067 3948 
Q 813 3647 813 3219 
z
" transform="scale(0.015625)"/>
     <path id="MalgunGothic-2f" d="M 2584 4600 
L 378 -763 
L -84 -763 
L 2113 4600 
L 2584 4600 
z
" transform="scale(0.015625)"/>
    </defs>
    <use xlink:href="#MalgunGothic-53"/>
    <use xlink:href="#MalgunGothic-6f" transform="translate(54.296875 0)"/>
    <use xlink:href="#MalgunGothic-75" transform="translate(114.208984 0)"/>
    <use xlink:href="#MalgunGothic-72" transform="translate(172.021484 0)"/>
    <use xlink:href="#MalgunGothic-63" transform="translate(205.998047 0)"/>
    <use xlink:href="#MalgunGothic-65" transform="translate(253.263672 0)"/>
    <use xlink:href="#MalgunGothic-3a" transform="translate(306.779297 0)"/>
    <use xlink:href="#MalgunGothic-20" transform="translate(328.654297 0)"/>
    <use xlink:href="#MalgunGothic-46" transform="translate(363.810547 0)"/>
    <use xlink:href="#MalgunGothic-41" transform="translate(406.664062 0)"/>
    <use xlink:href="#MalgunGothic-54" transform="translate(464.734375 0)"/>
    <use xlink:href="#MalgunGothic-46" transform="translate(518.103516 0)"/>
    <use xlink:href="#MalgunGothic-20" transform="translate(567.957031 0)"/>
    <use xlink:href="#MalgunGothic-52" transform="translate(603.113281 0)"/>
    <use xlink:href="#MalgunGothic-2e" transform="translate(664.099609 0)"/>
    <use xlink:href="#MalgunGothic-31" transform="translate(685.974609 0)"/>
    <use xlink:href="#MalgunGothic-36" transform="translate(741.052734 0)"/>
    <use xlink:href="#MalgunGothic-20" transform="translate(796.130859 0)"/>
    <use xlink:href="#MalgunGothic-b7" transform="translate(831.287109 0)"/>
    <use xlink:href="#MalgunGothic-20" transform="translate(853.162109 0)"/>
    <use xlink:href="#MalgunGothic-d55c" transform="translate(888.318359 0)"/>
    <use xlink:href="#MalgunGothic-ad6d" transform="translate(988.318359 0)"/>
    <use xlink:href="#MalgunGothic-20" transform="translate(1088.318359 0)"/>
    <use xlink:href="#MalgunGothic-d2b9" transform="translate(1123.474609 0)"/>
    <use xlink:href="#MalgunGothic-ae08" transform="translate(1223.474609 0)"/>
    <use xlink:href="#MalgunGothic-bc95" transform="translate(1323.474609 0)"/>
    <use xlink:href="#MalgunGothic-20" transform="translate(1423.474609 0)"/>
    <use xlink:href="#MalgunGothic-c2dc" transform="translate(1458.630859 0)"/>
    <use xlink:href="#MalgunGothic-d589" transform="translate(1558.630859 0)"/>
    <use xlink:href="#MalgunGothic-b839" transform="translate(1658.630859 0)"/>
    <use xlink:href="#MalgunGothic-20" transform="translate(1758.630859 0)"/>
    <use xlink:href="#MalgunGothic-a7" transform="translate(1793.787109 0)"/>
    <use xlink:href="#MalgunGothic-31" transform="translate(1839.539062 0)"/>
    <use xlink:href="#MalgunGothic-30" transform="translate(1894.617188 0)"/>
    <use xlink:href="#MalgunGothic-c758" transform="translate(1949.695312 0)"/>
    <use xlink:href="#MalgunGothic-31" transform="translate(2049.695312 0)"/>
    <use xlink:href="#MalgunGothic-30" transform="translate(2104.773438 0)"/>
    <use xlink:href="#MalgunGothic-20" transform="translate(2159.851562 0)"/>
    <use xlink:href="#MalgunGothic-b7" transform="translate(2195.007812 0)"/>
    <use xlink:href="#MalgunGothic-20" transform="translate(2216.882812 0)"/>
    <use xlink:href="#MalgunGothic-42" transform="translate(2252.039062 0)"/>
    <use xlink:href="#MalgunGothic-53" transform="translate(2310.388672 0)"/>
    <use xlink:href="#MalgunGothic-41" transform="translate(2364.685547 0)"/>
    <use xlink:href="#MalgunGothic-20" transform="translate(2430.505859 0)"/>
    <use xlink:href="#MalgunGothic-31" transform="translate(2465.662109 0)"/>
    <use xlink:href="#MalgunGothic-39" transform="translate(2520.740234 0)"/>
    <use xlink:href="#MalgunGothic-39" transform="translate(2575.818359 0)"/>
    <use xlink:href="#MalgunGothic-36" transform="translate(2630.896484 0)"/>
    <use xlink:href="#MalgunGothic-20" transform="translate(2685.974609 0)"/>
    <use xlink:href="#MalgunGothic-b7" transform="translate(2721.130859 0)"/>
    <use xlink:href="#MalgunGothic-20" transform="translate(2743.005859 0)"/>
    <use xlink:href="#MalgunGothic-45" transform="translate(2778.162109 0)"/>
    <use xlink:href="#MalgunGothic-55" transform="translate(2829.871094 0)"/>
    <use xlink:href="#MalgunGothic-20" transform="translate(2900.134766 0)"/>
    <use xlink:href="#MalgunGothic-54" transform="translate(2935.291016 0)"/>
    <use xlink:href="#MalgunGothic-46" transform="translate(2988.660156 0)"/>
    <use xlink:href="#MalgunGothic-52" transform="translate(3038.513672 0)"/>
    <use xlink:href="#MalgunGothic-20" transform="translate(3099.5 0)"/>
    <use xlink:href="#MalgunGothic-32" transform="translate(3134.65625 0)"/>
    <use xlink:href="#MalgunGothic-30" transform="translate(3189.734375 0)"/>
    <use xlink:href="#MalgunGothic-32" transform="translate(3244.8125 0)"/>
    <use xlink:href="#MalgunGothic-33" transform="translate(3299.890625 0)"/>
    <use xlink:href="#MalgunGothic-2f" transform="translate(3354.96875 0)"/>
    <use xlink:href="#MalgunGothic-31" transform="translate(3394.568359 0)"/>
    <use xlink:href="#MalgunGothic-31" transform="translate(3449.646484 0)"/>
    <use xlink:href="#MalgunGothic-31" transform="translate(3504.724609 0)"/>
    <use xlink:href="#MalgunGothic-33" transform="translate(3559.802734 0)"/>
   </g>
  </g>
 </g>
 <defs>
  <clipPath id="p9cf2a9d584">
   <rect x="94.176" y="43.1825" width="513.36" height="266.112"/>
  </clipPath>
 </defs>
</svg>
