<?xml version="1.0" encoding="utf-8" standalone="no"?>
<!DOCTYPE svg PUBLIC "-//W3C//DTD SVG 1.1//EN"
  "http://www.w3.org/Graphics/SVG/1.1/DTD/svg11.dtd">
<svg xmlns:xlink="http://www.w3.org/1999/xlink" width="878.4pt" height="272.820891pt" viewBox="0 0 878.4 272.820891" xmlns="http://www.w3.org/2000/svg" version="1.1">
 <metadata>
  <rdf:RDF xmlns:dc="http://purl.org/dc/elements/1.1/" xmlns:cc="http://creativecommons.org/ns#" xmlns:rdf="http://www.w3.org/1999/02/22-rdf-syntax-ns#">
   <cc:Work>
    <dc:type rdf:resource="http://purl.org/dc/dcmitype/StillImage"/>
    <dc:date>2026-04-21T11:08:30.192282</dc:date>
    <dc:format>image/svg+xml</dc:format>
    <dc:creator>
     <cc:Agent>
      <dc:title>Matplotlib v3.10.8, https://matplotlib.org/</dc:title>
     </cc:Agent>
    </dc:creator>
   </cc:Work>
  </rdf:RDF>
 </metadata>
 <defs>
  <style type="text/css">*{stroke-linejoin: round; stroke-linecap: butt}</style>
 </defs>
 <g id="figure_1">
  <g id="patch_1">
   <path d="M 0 272.820891 
L 878.4 272.820891 
L 878.4 -0 
L 0 -0 
z
" style="fill: #ffffff"/>
  </g>
  <g id="axes_1">
   <g id="patch_2">
    <path d="M 24.075 229.768364 
L 214.425 229.768364 
L 214.425 56.569091 
L 24.075 56.569091 
L 24.075 229.768364 
z
" clip-path="url(#p4f1064c939)" style="fill: none; stroke: #111418; stroke-width: 1.2; stroke-linejoin: miter"/>
   </g>
   <g id="patch_3">
    <path d="M 24.075 229.768364 
L 214.425 229.768364 
L 214.425 202.130182 
L 24.075 202.130182 
z
" clip-path="url(#p4f1064c939)" style="fill: #1a2e4a; stroke: #1a2e4a; stroke-linejoin: miter"/>
   </g>
   <g id="text_1">
    <!-- $154B -->
    <g style="fill: #111418" transform="translate(77.875625 128.377557) scale(0.28 -0.28)">
     <defs>
      <path id="MalgunGothicBold-24" d="M 2109 -672 
L 1678 -672 
L 1678 3 
Q 1019 9 497 294 
L 497 1088 
Q 678 934 1036 809 
Q 1394 684 1678 672 
L 1678 1978 
Q 1019 2228 725 2547 
Q 431 2866 431 3350 
Q 431 3841 784 4195 
Q 1138 4550 1678 4603 
L 1678 5194 
L 2109 5194 
L 2109 4613 
Q 2772 4584 3075 4406 
L 3075 3634 
Q 2659 3903 2109 3950 
L 2109 2594 
Q 2759 2334 3065 2031 
Q 3372 1728 3372 1253 
Q 3372 744 3037 420 
Q 2703 97 2109 28 
L 2109 -672 
z
M 1678 3938 
Q 1191 3844 1191 3406 
Q 1191 3213 1292 3073 
Q 1394 2934 1678 2778 
L 1678 3938 
z
M 2109 688 
Q 2613 778 2613 1209 
Q 2613 1556 2109 1800 
L 2109 688 
z
" transform="scale(0.015625)"/>
      <path id="MalgunGothicBold-31" d="M 2534 4675 
L 2534 0 
L 1663 0 
L 1663 3616 
Q 1516 3481 1247 3365 
Q 978 3250 688 3216 
L 688 3988 
Q 1375 4194 1984 4675 
L 2534 4675 
z
" transform="scale(0.015625)"/>
      <path id="MalgunGothicBold-35" d="M 472 138 
L 472 928 
Q 681 769 948 684 
Q 1216 600 1472 600 
Q 1913 600 2166 812 
Q 2419 1025 2419 1403 
Q 2419 1797 2151 1976 
Q 1884 2156 1331 2156 
Q 956 2156 544 2091 
L 716 4600 
L 3097 4600 
L 3097 3875 
L 1434 3875 
L 1356 2806 
Q 1706 2847 1819 2847 
Q 2491 2847 2898 2478 
Q 3306 2109 3306 1497 
Q 3306 756 2837 337 
Q 2369 -81 1556 -81 
Q 875 -81 472 138 
z
" transform="scale(0.015625)"/>
      <path id="MalgunGothicBold-34" d="M 2969 4600 
L 2969 1653 
L 3519 1653 
L 3519 1016 
L 2969 1016 
L 2969 0 
L 2163 0 
L 2163 1016 
L 159 1016 
L 159 1688 
Q 788 2406 1325 3189 
Q 1863 3972 2147 4600 
L 2969 4600 
z
M 900 1653 
L 2163 1653 
L 2163 3434 
Q 1972 3094 1622 2592 
Q 1272 2091 900 1653 
z
" transform="scale(0.015625)"/>
      <path id="MalgunGothicBold-42" d="M 547 0 
L 547 4600 
L 2113 4600 
Q 2822 4600 3222 4317 
Q 3622 4034 3622 3528 
Q 3622 3159 3387 2876 
Q 3153 2594 2756 2472 
L 2756 2463 
Q 3244 2400 3531 2100 
Q 3819 1800 3819 1356 
Q 3819 738 3375 369 
Q 2931 0 2188 0 
L 547 0 
z
M 1438 3916 
L 1438 2709 
L 1922 2709 
Q 2281 2709 2484 2879 
Q 2688 3050 2688 3359 
Q 2688 3916 1894 3916 
L 1438 3916 
z
M 1438 2022 
L 1438 684 
L 2050 684 
Q 2444 684 2662 865 
Q 2881 1047 2881 1369 
Q 2881 2022 2019 2022 
L 1438 2022 
z
" transform="scale(0.015625)"/>
     </defs>
     <use xlink:href="#MalgunGothicBold-24"/>
     <use xlink:href="#MalgunGothicBold-31" transform="translate(57.958984 0)"/>
     <use xlink:href="#MalgunGothicBold-35" transform="translate(115.917969 0)"/>
     <use xlink:href="#MalgunGothicBold-34" transform="translate(173.876953 0)"/>
     <use xlink:href="#MalgunGothicBold-42" transform="translate(231.835938 0)"/>
    </g>
   </g>
   <g id="text_2">
    <!-- 2025 불법 거래 -->
    <g style="fill: #3a414a" transform="translate(84.71875 167.893335) scale(0.1 -0.1)">
     <defs>
      <path id="MalgunGothic-32" d="M 2519 3372 
Q 2519 3784 2275 4018 
Q 2031 4253 1628 4253 
Q 1341 4253 1053 4104 
Q 766 3956 534 3697 
L 534 4234 
Q 981 4675 1691 4675 
Q 2281 4675 2642 4334 
Q 3003 3994 3003 3416 
Q 3003 2919 2772 2545 
Q 2541 2172 1984 1775 
Q 1459 1406 1254 1215 
Q 1050 1025 967 854 
Q 884 684 884 450 
L 3116 450 
L 3116 0 
L 356 0 
L 356 225 
Q 356 603 461 870 
Q 566 1138 811 1392 
Q 1056 1647 1597 2022 
Q 2091 2363 2305 2670 
Q 2519 2978 2519 3372 
z
" transform="scale(0.015625)"/>
      <path id="MalgunGothic-30" d="M 278 2206 
Q 278 3425 675 4050 
Q 1072 4675 1819 4675 
Q 3253 4675 3253 2319 
Q 3253 1156 2854 539 
Q 2456 -78 1716 -78 
Q 1016 -78 647 520 
Q 278 1119 278 2206 
z
M 784 2231 
Q 784 344 1769 344 
Q 2747 344 2747 2259 
Q 2747 4250 1794 4250 
Q 784 4250 784 2231 
z
" transform="scale(0.015625)"/>
      <path id="MalgunGothic-35" d="M 3072 1403 
Q 3072 722 2636 322 
Q 2200 -78 1469 -78 
Q 828 -78 516 113 
L 516 650 
Q 994 344 1475 344 
Q 1969 344 2270 630 
Q 2572 916 2572 1372 
Q 2572 1838 2265 2092 
Q 1959 2347 1381 2347 
Q 994 2347 603 2300 
L 759 4600 
L 2869 4600 
L 2869 4147 
L 1206 4147 
L 1106 2763 
Q 1347 2784 1547 2784 
Q 2263 2784 2667 2414 
Q 3072 2044 3072 1403 
z
" transform="scale(0.015625)"/>
      <path id="MalgunGothic-20" transform="scale(0.015625)"/>
      <path id="MalgunGothic-bd88" d="M 1356 3372 
L 1356 5381 
L 1819 5381 
L 1819 4716 
L 4581 4716 
L 4581 5381 
L 5044 5381 
L 5044 3372 
L 1356 3372 
z
M 4581 4334 
L 1819 4334 
L 1819 3763 
L 4581 3763 
L 4581 4334 
z
M 1313 -506 
L 1313 831 
L 4609 831 
L 4609 1363 
L 1313 1363 
L 1313 1753 
L 2969 1753 
L 2969 2413 
L 403 2413 
L 403 2803 
L 5997 2803 
L 5997 2413 
L 3431 2413 
L 3431 1753 
L 5075 1753 
L 5075 469 
L 1778 469 
L 1778 -116 
L 5234 -116 
L 5234 -506 
L 1313 -506 
z
" transform="scale(0.015625)"/>
      <path id="MalgunGothic-bc95" d="M 1038 2578 
L 1038 5269 
L 1497 5269 
L 1497 4300 
L 3353 4300 
L 3353 5269 
L 3822 5269 
L 3822 4109 
L 4953 4109 
L 4953 5466 
L 5422 5466 
L 5422 2350 
L 4953 2350 
L 4953 3688 
L 3822 3688 
L 3822 2578 
L 1038 2578 
z
M 3353 3891 
L 1497 3891 
L 1497 2994 
L 3353 2994 
L 3353 3891 
z
M 1709 -397 
L 1709 2016 
L 2169 2016 
L 2169 1184 
L 4953 1184 
L 4953 2016 
L 5416 2016 
L 5416 -397 
L 1709 -397 
z
M 4953 775 
L 2169 775 
L 2169 13 
L 4953 13 
L 4953 775 
z
" transform="scale(0.015625)"/>
      <path id="MalgunGothic-ac70" d="M 4897 -563 
L 4897 2663 
L 3419 2663 
L 3419 3078 
L 4897 3078 
L 4897 5466 
L 5363 5466 
L 5363 -563 
L 4897 -563 
z
M 3547 4928 
Q 3481 2356 831 863 
L 481 1241 
Q 1438 1638 2178 2516 
Q 2919 3394 3047 4513 
L 728 4513 
L 728 4928 
L 3547 4928 
z
" transform="scale(0.015625)"/>
      <path id="MalgunGothic-b798" d="M 5088 -563 
L 5088 2431 
L 4319 2431 
L 4319 -378 
L 3859 -378 
L 3859 5344 
L 4319 5344 
L 4319 2847 
L 5088 2847 
L 5088 5466 
L 5556 5466 
L 5556 -563 
L 5088 -563 
z
M 763 819 
L 763 3169 
L 2606 3169 
L 2606 4500 
L 763 4500 
L 763 4916 
L 3072 4916 
L 3072 2766 
L 1228 2766 
L 1228 1228 
L 1916 1228 
Q 3134 1228 3481 1288 
L 3541 897 
Q 3316 847 2852 833 
Q 2388 819 763 819 
z
" transform="scale(0.015625)"/>
     </defs>
     <use xlink:href="#MalgunGothic-32"/>
     <use xlink:href="#MalgunGothic-30" transform="translate(55.078125 0)"/>
     <use xlink:href="#MalgunGothic-32" transform="translate(110.15625 0)"/>
     <use xlink:href="#MalgunGothic-35" transform="translate(165.234375 0)"/>
     <use xlink:href="#MalgunGothic-20" transform="translate(220.3125 0)"/>
     <use xlink:href="#MalgunGothic-bd88" transform="translate(255.46875 0)"/>
     <use xlink:href="#MalgunGothic-bc95" transform="translate(355.46875 0)"/>
     <use xlink:href="#MalgunGothic-20" transform="translate(455.46875 0)"/>
     <use xlink:href="#MalgunGothic-ac70" transform="translate(490.625 0)"/>
     <use xlink:href="#MalgunGothic-b798" transform="translate(590.625 0)"/>
    </g>
   </g>
   <g id="text_3">
    <!-- +162% YoY -->
    <g style="fill: #ffffff" transform="translate(96.215664 218.171226) scale(0.085 -0.085)">
     <defs>
      <path id="MalgunGothicBold-2b" d="M 3847 1597 
L 2594 1597 
L 2594 344 
L 2013 344 
L 2013 1597 
L 756 1597 
L 756 2181 
L 2013 2181 
L 2013 3438 
L 2594 3438 
L 2594 2181 
L 3847 2181 
L 3847 1597 
z
" transform="scale(0.015625)"/>
      <path id="MalgunGothicBold-36" d="M 3166 3803 
Q 2819 3997 2406 3997 
Q 1853 3997 1526 3548 
Q 1200 3100 1200 2400 
L 1219 2400 
Q 1547 2934 2209 2934 
Q 2791 2934 3134 2539 
Q 3478 2144 3478 1509 
Q 3478 813 3040 366 
Q 2603 -81 1931 -81 
Q 1153 -81 742 491 
Q 331 1063 331 2047 
Q 331 3213 868 3944 
Q 1406 4675 2356 4675 
Q 2881 4675 3166 4547 
L 3166 3803 
z
M 1231 1509 
Q 1231 1138 1422 869 
Q 1613 600 1934 600 
Q 2250 600 2434 840 
Q 2619 1081 2619 1447 
Q 2619 2272 1931 2272 
Q 1622 2272 1426 2055 
Q 1231 1838 1231 1509 
z
" transform="scale(0.015625)"/>
      <path id="MalgunGothicBold-32" d="M 1322 734 
L 3272 734 
L 3272 0 
L 400 0 
L 400 347 
Q 400 719 526 1033 
Q 653 1347 889 1620 
Q 1125 1894 1881 2459 
Q 2175 2678 2303 2878 
Q 2431 3078 2431 3325 
Q 2431 3631 2251 3801 
Q 2072 3972 1694 3972 
Q 1103 3972 559 3503 
L 559 4288 
Q 1116 4675 1819 4675 
Q 2531 4675 2920 4328 
Q 3309 3981 3309 3369 
Q 3309 3053 3207 2809 
Q 3106 2566 2939 2367 
Q 2772 2169 2555 1998 
Q 2338 1828 2109 1659 
Q 1688 1347 1505 1125 
Q 1322 903 1322 734 
z
" transform="scale(0.015625)"/>
      <path id="MalgunGothicBold-25" d="M 275 3422 
Q 275 3984 586 4323 
Q 897 4663 1428 4663 
Q 1934 4663 2215 4355 
Q 2497 4047 2497 3503 
Q 2497 2947 2183 2611 
Q 1869 2275 1350 2275 
Q 869 2275 572 2589 
Q 275 2903 275 3422 
z
M 884 3453 
Q 884 2778 1391 2778 
Q 1900 2778 1900 3478 
Q 1900 4163 1406 4163 
Q 884 4163 884 3453 
z
M 4628 4600 
L 1644 -9 
L 959 -9 
L 3934 4600 
L 4628 4600 
z
M 3106 1081 
Q 3106 1644 3417 1984 
Q 3728 2325 4253 2325 
Q 4766 2325 5044 2022 
Q 5322 1719 5322 1163 
Q 5322 613 5009 272 
Q 4697 -69 4181 -69 
Q 3700 -69 3403 245 
Q 3106 559 3106 1081 
z
M 3709 1113 
Q 3709 438 4216 438 
Q 4722 438 4722 1138 
Q 4722 1469 4589 1644 
Q 4456 1819 4228 1819 
Q 3709 1819 3709 1113 
z
" transform="scale(0.015625)"/>
      <path id="MalgunGothicBold-20" transform="scale(0.015625)"/>
      <path id="MalgunGothicBold-59" d="M 3878 4600 
L 2372 1653 
L 2372 0 
L 1481 0 
L 1481 1634 
L 19 4600 
L 1038 4600 
L 1859 2775 
Q 1878 2731 1966 2428 
L 1978 2428 
Q 2016 2622 2081 2769 
L 2931 4600 
L 3878 4600 
z
" transform="scale(0.015625)"/>
      <path id="MalgunGothicBold-6f" d="M 256 1622 
Q 256 2428 731 2895 
Q 1206 3363 2019 3363 
Q 2803 3363 3258 2905 
Q 3713 2447 3713 1678 
Q 3713 878 3242 398 
Q 2772 -81 1969 -81 
Q 1181 -81 718 380 
Q 256 841 256 1622 
z
M 1138 1634 
Q 1138 600 1997 600 
Q 2825 600 2825 1659 
Q 2825 2684 1994 2684 
Q 1588 2684 1363 2404 
Q 1138 2125 1138 1634 
z
" transform="scale(0.015625)"/>
     </defs>
     <use xlink:href="#MalgunGothicBold-2b"/>
     <use xlink:href="#MalgunGothicBold-31" transform="translate(71.923828 0)"/>
     <use xlink:href="#MalgunGothicBold-36" transform="translate(129.882812 0)"/>
     <use xlink:href="#MalgunGothicBold-32" transform="translate(187.841797 0)"/>
     <use xlink:href="#MalgunGothicBold-25" transform="translate(245.800781 0)"/>
     <use xlink:href="#MalgunGothicBold-20" transform="translate(333.349609 0)"/>
     <use xlink:href="#MalgunGothicBold-59" transform="translate(368.505859 0)"/>
     <use xlink:href="#MalgunGothicBold-6f" transform="translate(419.400391 0)"/>
     <use xlink:href="#MalgunGothicBold-59" transform="translate(481.363281 0)"/>
    </g>
   </g>
  </g>
  <g id="axes_2">
   <g id="patch_4">
    <path d="M 237.375 229.768364 
L 427.725 229.768364 
L 427.725 56.569091 
L 237.375 56.569091 
L 237.375 229.768364 
z
" clip-path="url(#p7961ea50cb)" style="fill: none; stroke: #111418; stroke-width: 1.2; stroke-linejoin: miter"/>
   </g>
   <g id="patch_5">
    <path d="M 237.375 229.768364 
L 427.725 229.768364 
L 427.725 202.130182 
L 237.375 202.130182 
z
" clip-path="url(#p7961ea50cb)" style="fill: #c9a646; stroke: #c9a646; stroke-linejoin: miter"/>
   </g>
   <g id="text_4">
    <!-- 84% -->
    <g style="fill: #111418" transform="translate(304.066563 128.377557) scale(0.28 -0.28)">
     <defs>
      <path id="MalgunGothicBold-38" d="M 313 1238 
Q 313 1634 536 1945 
Q 759 2256 1181 2409 
Q 847 2581 655 2851 
Q 463 3122 463 3453 
Q 463 3794 645 4073 
Q 828 4353 1159 4514 
Q 1491 4675 1891 4675 
Q 2294 4675 2628 4517 
Q 2963 4359 3145 4082 
Q 3328 3806 3328 3466 
Q 3328 2788 2572 2431 
Q 2991 2281 3223 1972 
Q 3456 1663 3456 1247 
Q 3456 638 3029 278 
Q 2603 -81 1881 -81 
Q 1169 -81 741 276 
Q 313 634 313 1238 
z
M 1147 1294 
Q 1147 947 1344 756 
Q 1541 566 1884 566 
Q 2238 566 2431 758 
Q 2625 950 2625 1294 
Q 2625 1609 2415 1829 
Q 2206 2050 1884 2050 
Q 1569 2050 1358 1836 
Q 1147 1622 1147 1294 
z
M 1288 3391 
Q 1288 3119 1466 2925 
Q 1644 2731 1897 2731 
Q 2156 2731 2334 2926 
Q 2513 3122 2513 3391 
Q 2513 3694 2347 3861 
Q 2181 4028 1897 4028 
Q 1613 4028 1450 3859 
Q 1288 3691 1288 3391 
z
" transform="scale(0.015625)"/>
     </defs>
     <use xlink:href="#MalgunGothicBold-38"/>
     <use xlink:href="#MalgunGothicBold-34" transform="translate(57.958984 0)"/>
     <use xlink:href="#MalgunGothicBold-25" transform="translate(115.917969 0)"/>
    </g>
   </g>
   <g id="text_5">
    <!-- 스테이블코인 비중 -->
    <g style="fill: #3a414a" transform="translate(290.792188 167.893335) scale(0.1 -0.1)">
     <defs>
      <path id="MalgunGothic-c2a4" d="M 3194 3897 
Q 2969 3416 2328 2930 
Q 1688 2444 959 2247 
L 641 2619 
Q 1703 2841 2329 3472 
Q 2956 4103 2956 4659 
L 2956 4978 
L 3438 4978 
L 3438 4659 
Q 3438 4094 4073 3476 
Q 4709 2859 5759 2625 
L 5428 2253 
Q 4694 2481 4058 2956 
Q 3422 3431 3194 3897 
z
M 5997 447 
L 403 447 
L 403 863 
L 5997 863 
L 5997 447 
z
" transform="scale(0.015625)"/>
      <path id="MalgunGothic-d14c" d="M 5044 -563 
L 5044 5466 
L 5509 5466 
L 5509 -563 
L 5044 -563 
z
M 3897 -366 
L 3897 2503 
L 2963 2503 
L 2963 2919 
L 3897 2919 
L 3897 5344 
L 4359 5344 
L 4359 -366 
L 3897 -366 
z
M 1313 2828 
L 1313 1363 
Q 2809 1363 3263 1434 
L 3297 1031 
Q 2781 953 844 953 
L 844 4966 
L 3072 4966 
L 3072 4550 
L 1313 4550 
L 1313 3238 
L 2528 3238 
L 2528 2828 
L 1313 2828 
z
" transform="scale(0.015625)"/>
      <path id="MalgunGothic-c774" d="M 4947 -563 
L 4947 5466 
L 5416 5466 
L 5416 -563 
L 4947 -563 
z
M 2284 959 
Q 1597 959 1173 1514 
Q 750 2069 750 3016 
Q 750 3975 1169 4522 
Q 1588 5069 2284 5069 
Q 2978 5069 3403 4522 
Q 3828 3975 3828 3016 
Q 3828 2063 3401 1511 
Q 2975 959 2284 959 
z
M 2284 4653 
Q 1803 4653 1503 4204 
Q 1203 3756 1203 3016 
Q 1203 2278 1506 1826 
Q 1809 1375 2284 1375 
Q 2756 1375 3061 1828 
Q 3366 2281 3366 3016 
Q 3366 3759 3067 4206 
Q 2769 4653 2284 4653 
z
" transform="scale(0.015625)"/>
      <path id="MalgunGothic-be14" d="M 1356 3366 
L 1356 5381 
L 1819 5381 
L 1819 4703 
L 4581 4703 
L 4581 5381 
L 5044 5381 
L 5044 3366 
L 1356 3366 
z
M 4581 4325 
L 1819 4325 
L 1819 3756 
L 4581 3756 
L 4581 4325 
z
M 403 2406 
L 403 2797 
L 5997 2797 
L 5997 2406 
L 403 2406 
z
M 1313 -506 
L 1313 863 
L 4609 863 
L 4609 1409 
L 1313 1409 
L 1313 1800 
L 5075 1800 
L 5075 494 
L 1778 494 
L 1778 -116 
L 5234 -116 
L 5234 -506 
L 1313 -506 
z
" transform="scale(0.015625)"/>
      <path id="MalgunGothic-cf54" d="M 5006 1478 
L 4563 1528 
Q 4656 2344 4666 3047 
L 959 2797 
L 863 3244 
L 4666 3438 
L 4672 4481 
L 1147 4481 
L 1147 4891 
L 5141 4891 
L 5141 3481 
Q 5141 2375 5006 1478 
z
M 403 416 
L 403 838 
L 2656 838 
L 2656 2309 
L 3122 2309 
L 3122 838 
L 5997 838 
L 5997 416 
L 403 416 
z
" transform="scale(0.015625)"/>
      <path id="MalgunGothic-c778" d="M 4947 1063 
L 4947 5466 
L 5416 5466 
L 5416 1063 
L 4947 1063 
z
M 2438 2175 
Q 1763 2175 1309 2601 
Q 856 3028 856 3706 
Q 856 4388 1307 4811 
Q 1759 5234 2438 5234 
Q 3116 5234 3564 4812 
Q 4013 4391 4013 3706 
Q 4013 3028 3563 2601 
Q 3113 2175 2438 2175 
z
M 2438 4819 
Q 1944 4819 1634 4516 
Q 1325 4213 1325 3706 
Q 1325 3200 1633 2895 
Q 1941 2591 2438 2591 
Q 2934 2591 3243 2895 
Q 3553 3200 3553 3706 
Q 3553 4213 3243 4516 
Q 2934 4819 2438 4819 
z
M 1613 -331 
L 1613 1625 
L 2081 1625 
L 2081 91 
L 5575 91 
L 5575 -331 
L 1613 -331 
z
" transform="scale(0.015625)"/>
      <path id="MalgunGothic-be44" d="M 4884 -563 
L 4884 5466 
L 5350 5466 
L 5350 -563 
L 4884 -563 
z
M 825 1081 
L 825 5013 
L 1294 5013 
L 1294 3469 
L 3244 3469 
L 3244 5013 
L 3713 5013 
L 3713 1081 
L 825 1081 
z
M 3244 3053 
L 1294 3053 
L 1294 1497 
L 3244 1497 
L 3244 3053 
z
" transform="scale(0.015625)"/>
      <path id="MalgunGothic-c911" d="M 5459 3272 
Q 4750 3372 4097 3714 
Q 3444 4056 3206 4422 
Q 2984 4094 2328 3736 
Q 1672 3378 972 3278 
L 697 3653 
Q 1478 3713 2139 4083 
Q 2800 4453 2950 4878 
L 1025 4878 
L 1025 5300 
L 5375 5300 
L 5375 4878 
L 3456 4878 
Q 3597 4456 4251 4090 
Q 4906 3725 5703 3653 
L 5459 3272 
z
M 2963 1734 
L 2963 2431 
L 403 2431 
L 403 2853 
L 5997 2853 
L 5997 2431 
L 3438 2431 
L 3438 1734 
Q 4269 1697 4700 1400 
Q 5131 1103 5131 628 
Q 5131 100 4634 -200 
Q 4138 -500 3200 -500 
Q 2263 -500 1766 -200 
Q 1269 100 1269 628 
Q 1269 1103 1700 1400 
Q 2131 1697 2963 1734 
z
M 3200 1344 
Q 2481 1344 2117 1155 
Q 1753 966 1753 628 
Q 1753 284 2123 90 
Q 2494 -103 3200 -103 
Q 3903 -103 4275 90 
Q 4647 284 4647 628 
Q 4647 966 4281 1155 
Q 3916 1344 3200 1344 
z
" transform="scale(0.015625)"/>
     </defs>
     <use xlink:href="#MalgunGothic-c2a4"/>
     <use xlink:href="#MalgunGothic-d14c" transform="translate(100 0)"/>
     <use xlink:href="#MalgunGothic-c774" transform="translate(200 0)"/>
     <use xlink:href="#MalgunGothic-be14" transform="translate(300 0)"/>
     <use xlink:href="#MalgunGothic-cf54" transform="translate(400 0)"/>
     <use xlink:href="#MalgunGothic-c778" transform="translate(500 0)"/>
     <use xlink:href="#MalgunGothic-20" transform="translate(600 0)"/>
     <use xlink:href="#MalgunGothic-be44" transform="translate(635.15625 0)"/>
     <use xlink:href="#MalgunGothic-c911" transform="translate(735.15625 0)"/>
    </g>
   </g>
   <g id="text_6">
    <!-- USDT 우세 -->
    <g style="fill: #ffffff" transform="translate(311.564297 218.171226) scale(0.085 -0.085)">
     <defs>
      <path id="MalgunGothicBold-55" d="M 4188 1953 
Q 4188 -81 2306 -81 
Q 497 -81 497 1897 
L 497 4600 
L 1391 4600 
L 1391 1897 
Q 1391 694 2353 694 
Q 3297 694 3297 1856 
L 3297 4600 
L 4188 4600 
L 4188 1953 
z
" transform="scale(0.015625)"/>
      <path id="MalgunGothicBold-53" d="M 334 1091 
Q 881 638 1588 638 
Q 2013 638 2222 786 
Q 2431 934 2431 1175 
Q 2431 1384 2256 1559 
Q 2081 1734 1409 2022 
Q 838 2278 580 2598 
Q 322 2919 322 3350 
Q 322 3972 803 4323 
Q 1284 4675 2066 4675 
Q 2766 4675 3169 4500 
L 3169 3647 
Q 2722 3953 2091 3953 
Q 1719 3953 1489 3812 
Q 1259 3672 1259 3425 
Q 1259 3228 1418 3065 
Q 1578 2903 2166 2644 
Q 2841 2350 3103 2026 
Q 3366 1703 3366 1253 
Q 3366 603 2902 261 
Q 2438 -81 1600 -81 
Q 822 -81 334 178 
L 334 1091 
z
" transform="scale(0.015625)"/>
      <path id="MalgunGothicBold-44" d="M 547 0 
L 547 4600 
L 2072 4600 
Q 4516 4600 4516 2356 
Q 4516 1288 3827 644 
Q 3138 0 2053 0 
L 547 0 
z
M 1438 3859 
L 1438 738 
L 2000 738 
Q 2741 738 3159 1167 
Q 3578 1597 3578 2344 
Q 3578 3078 3159 3468 
Q 2741 3859 2006 3859 
L 1438 3859 
z
" transform="scale(0.015625)"/>
      <path id="MalgunGothicBold-54" d="M 3628 3859 
L 2313 3859 
L 2313 0 
L 1419 0 
L 1419 3859 
L 106 3859 
L 106 4600 
L 3628 4600 
L 3628 3859 
z
" transform="scale(0.015625)"/>
      <path id="MalgunGothicBold-c6b0" d="M 3200 2619 
Q 2272 2619 1731 3000 
Q 1191 3381 1191 4013 
Q 1191 4625 1730 4997 
Q 2269 5369 3188 5369 
Q 4125 5369 4661 5000 
Q 5197 4631 5197 4013 
Q 5197 3384 4665 3001 
Q 4134 2619 3200 2619 
z
M 3188 4744 
Q 2597 4744 2294 4548 
Q 1991 4353 1991 4013 
Q 1991 3675 2295 3479 
Q 2600 3284 3188 3284 
Q 3769 3284 4076 3478 
Q 4384 3672 4384 4013 
Q 4384 4353 4076 4548 
Q 3769 4744 3188 4744 
z
M 3591 1478 
L 3591 -563 
L 2803 -563 
L 2803 1478 
L 403 1478 
L 403 2144 
L 5997 2144 
L 5997 1478 
L 3591 1478 
z
" transform="scale(0.015625)"/>
      <path id="MalgunGothicBold-c138" d="M 4872 -563 
L 4872 5466 
L 5650 5466 
L 5650 -563 
L 4872 -563 
z
M 3653 -384 
L 3653 2913 
L 2784 2913 
L 2784 3572 
L 3653 3572 
L 3653 5344 
L 4428 5344 
L 4428 -384 
L 3653 -384 
z
M 2900 878 
Q 2241 1425 1919 2094 
Q 1778 1759 1443 1346 
Q 1109 934 819 722 
L 256 1228 
Q 1544 2034 1544 3659 
L 1544 5056 
L 2291 5056 
L 2291 3641 
Q 2291 2184 3450 1422 
L 2900 878 
z
" transform="scale(0.015625)"/>
     </defs>
     <use xlink:href="#MalgunGothicBold-55"/>
     <use xlink:href="#MalgunGothicBold-53" transform="translate(73.095703 0)"/>
     <use xlink:href="#MalgunGothicBold-44" transform="translate(129.6875 0)"/>
     <use xlink:href="#MalgunGothicBold-54" transform="translate(200.373047 0)"/>
     <use xlink:href="#MalgunGothicBold-20" transform="translate(258.625 0)"/>
     <use xlink:href="#MalgunGothicBold-c6b0" transform="translate(293.78125 0)"/>
     <use xlink:href="#MalgunGothicBold-c138" transform="translate(393.78125 0)"/>
    </g>
   </g>
  </g>
  <g id="axes_3">
   <g id="patch_6">
    <path d="M 450.675 229.768364 
L 641.025 229.768364 
L 641.025 56.569091 
L 450.675 56.569091 
L 450.675 229.768364 
z
" clip-path="url(#pef7b487633)" style="fill: none; stroke: #111418; stroke-width: 1.2; stroke-linejoin: miter"/>
   </g>
   <g id="patch_7">
    <path d="M 450.675 229.768364 
L 641.025 229.768364 
L 641.025 202.130182 
L 450.675 202.130182 
z
" clip-path="url(#pef7b487633)" style="fill: #4a5f7e; stroke: #4a5f7e; stroke-linejoin: miter"/>
   </g>
   <g id="text_7">
    <!-- $2.02B -->
    <g style="fill: #111418" transform="translate(500.811563 128.377557) scale(0.28 -0.28)">
     <defs>
      <path id="MalgunGothicBold-2e" d="M 309 400 
Q 309 609 467 743 
Q 625 878 841 878 
Q 1056 878 1209 743 
Q 1363 609 1363 400 
Q 1363 188 1209 55 
Q 1056 -78 828 -78 
Q 613 -78 461 59 
Q 309 197 309 400 
z
" transform="scale(0.015625)"/>
      <path id="MalgunGothicBold-30" d="M 241 2222 
Q 241 3422 670 4048 
Q 1100 4675 1919 4675 
Q 3475 4675 3475 2328 
Q 3475 1172 3051 545 
Q 2628 -81 1825 -81 
Q 241 -81 241 2222 
z
M 1125 2244 
Q 1125 600 1863 600 
Q 2584 600 2584 2288 
Q 2584 3997 1878 3997 
Q 1125 3997 1125 2244 
z
" transform="scale(0.015625)"/>
     </defs>
     <use xlink:href="#MalgunGothicBold-24"/>
     <use xlink:href="#MalgunGothicBold-32" transform="translate(57.958984 0)"/>
     <use xlink:href="#MalgunGothicBold-2e" transform="translate(115.917969 0)"/>
     <use xlink:href="#MalgunGothicBold-30" transform="translate(142.089844 0)"/>
     <use xlink:href="#MalgunGothicBold-32" transform="translate(200.048828 0)"/>
     <use xlink:href="#MalgunGothicBold-42" transform="translate(258.007812 0)"/>
    </g>
   </g>
   <g id="text_8">
    <!-- DPRK 탈취 -->
    <g style="fill: #3a414a" transform="translate(521.650781 167.893335) scale(0.1 -0.1)">
     <defs>
      <path id="MalgunGothic-44" d="M 609 0 
L 609 4600 
L 1856 4600 
Q 4281 4600 4281 2356 
Q 4281 1288 3587 644 
Q 2894 0 1800 0 
L 609 0 
z
M 1113 4134 
L 1113 463 
L 1813 463 
Q 2734 463 3243 958 
Q 3753 1453 3753 2344 
Q 3753 4134 1844 4134 
L 1113 4134 
z
" transform="scale(0.015625)"/>
      <path id="MalgunGothic-50" d="M 1113 1747 
L 1113 0 
L 609 0 
L 609 4600 
L 1850 4600 
Q 2575 4600 2979 4240 
Q 3384 3881 3384 3231 
Q 3384 2559 2909 2140 
Q 2434 1722 1728 1747 
L 1113 1747 
z
M 1113 4131 
L 1113 2219 
L 1691 2219 
Q 2256 2219 2554 2475 
Q 2853 2731 2853 3206 
Q 2853 4131 1759 4131 
L 1113 4131 
z
" transform="scale(0.015625)"/>
      <path id="MalgunGothic-52" d="M 3866 0 
L 3259 0 
L 2488 1294 
Q 2241 1706 2044 1837 
Q 1847 1969 1569 1969 
L 1113 1969 
L 1113 0 
L 609 0 
L 609 4600 
L 1963 4600 
Q 2597 4600 2970 4272 
Q 3344 3944 3344 3375 
Q 3344 2422 2325 2138 
L 2325 2125 
Q 2519 2041 2645 1902 
Q 2772 1763 3006 1381 
L 3866 0 
z
M 1113 4128 
L 1113 2438 
L 1866 2438 
Q 2291 2438 2552 2686 
Q 2813 2934 2813 3334 
Q 2813 3709 2570 3918 
Q 2328 4128 1872 4128 
L 1113 4128 
z
" transform="scale(0.015625)"/>
      <path id="MalgunGothic-4b" d="M 3769 0 
L 3053 0 
L 1250 2109 
Q 1150 2225 1128 2263 
L 1113 2263 
L 1113 0 
L 609 0 
L 609 4600 
L 1113 4600 
L 1113 2438 
L 1128 2438 
Q 1175 2509 1250 2588 
L 3000 4600 
L 3628 4600 
L 1634 2394 
L 3769 0 
z
" transform="scale(0.015625)"/>
      <path id="MalgunGothic-d0c8" d="M 5119 3622 
L 5119 2338 
L 4653 2338 
L 4653 5466 
L 5119 5466 
L 5119 4038 
L 6028 4038 
L 6028 3622 
L 5119 3622 
z
M 1294 3756 
L 1294 3059 
L 1697 3059 
Q 3122 3059 3866 3116 
L 3897 2734 
Q 3213 2663 831 2663 
L 831 5222 
L 3681 5222 
L 3681 4831 
L 1294 4831 
L 1294 4141 
L 3372 4141 
L 3372 3756 
L 1294 3756 
z
M 1466 -494 
L 1466 959 
L 4659 959 
L 4659 1606 
L 1466 1606 
L 1466 2003 
L 5119 2003 
L 5119 588 
L 1925 588 
L 1925 -103 
L 5281 -103 
L 5281 -494 
L 1466 -494 
z
" transform="scale(0.015625)"/>
      <path id="MalgunGothic-cde8" d="M 4197 2834 
Q 3700 2925 3233 3214 
Q 2766 3503 2597 3788 
Q 2441 3484 1958 3170 
Q 1475 2856 978 2725 
L 678 3091 
Q 1319 3184 1803 3548 
Q 2288 3913 2344 4353 
L 922 4353 
L 922 4769 
L 2363 4769 
L 2363 5472 
L 2828 5472 
L 2828 4769 
L 4225 4769 
L 4225 4353 
L 2841 4353 
Q 2894 3950 3355 3626 
Q 3816 3303 4481 3225 
L 4197 2834 
z
M 4997 -563 
L 4997 5466 
L 5466 5466 
L 5466 -563 
L 4997 -563 
z
M 2375 -391 
L 2375 1856 
Q 878 1831 453 1831 
L 409 2241 
Q 1131 2241 2622 2267 
Q 4113 2294 4647 2328 
L 4672 1925 
Q 3984 1881 2841 1869 
L 2841 -391 
L 2375 -391 
z
" transform="scale(0.015625)"/>
     </defs>
     <use xlink:href="#MalgunGothic-44"/>
     <use xlink:href="#MalgunGothic-50" transform="translate(71.728516 0)"/>
     <use xlink:href="#MalgunGothic-52" transform="translate(128.808594 0)"/>
     <use xlink:href="#MalgunGothic-4b" transform="translate(189.794922 0)"/>
     <use xlink:href="#MalgunGothic-20" transform="translate(248.828125 0)"/>
     <use xlink:href="#MalgunGothic-d0c8" transform="translate(283.984375 0)"/>
     <use xlink:href="#MalgunGothic-cde8" transform="translate(383.984375 0)"/>
    </g>
   </g>
   <g id="text_9">
    <!-- +51% YoY -->
    <g style="fill: #ffffff" transform="translate(525.278672 218.171226) scale(0.085 -0.085)">
     <use xlink:href="#MalgunGothicBold-2b"/>
     <use xlink:href="#MalgunGothicBold-35" transform="translate(71.923828 0)"/>
     <use xlink:href="#MalgunGothicBold-31" transform="translate(129.882812 0)"/>
     <use xlink:href="#MalgunGothicBold-25" transform="translate(187.841797 0)"/>
     <use xlink:href="#MalgunGothicBold-20" transform="translate(275.390625 0)"/>
     <use xlink:href="#MalgunGothicBold-59" transform="translate(310.546875 0)"/>
     <use xlink:href="#MalgunGothicBold-6f" transform="translate(361.441406 0)"/>
     <use xlink:href="#MalgunGothicBold-59" transform="translate(423.404297 0)"/>
    </g>
   </g>
  </g>
  <g id="axes_4">
   <g id="patch_8">
    <path d="M 663.975 229.768364 
L 854.325 229.768364 
L 854.325 56.569091 
L 663.975 56.569091 
L 663.975 229.768364 
z
" clip-path="url(#p6f67c0dada)" style="fill: none; stroke: #111418; stroke-width: 1.2; stroke-linejoin: miter"/>
   </g>
   <g id="patch_9">
    <path d="M 663.975 229.768364 
L 854.325 229.768364 
L 854.325 202.130182 
L 663.975 202.130182 
z
" clip-path="url(#p6f67c0dada)" style="fill: #7e8ba4; stroke: #7e8ba4; stroke-linejoin: miter"/>
   </g>
   <g id="text_10">
    <!-- $16.1B -->
    <g style="fill: #111418" transform="translate(714.111562 128.377557) scale(0.28 -0.28)">
     <use xlink:href="#MalgunGothicBold-24"/>
     <use xlink:href="#MalgunGothicBold-31" transform="translate(57.958984 0)"/>
     <use xlink:href="#MalgunGothicBold-36" transform="translate(115.917969 0)"/>
     <use xlink:href="#MalgunGothicBold-2e" transform="translate(173.876953 0)"/>
     <use xlink:href="#MalgunGothicBold-31" transform="translate(200.048828 0)"/>
     <use xlink:href="#MalgunGothicBold-42" transform="translate(258.007812 0)"/>
    </g>
   </g>
   <g id="text_11">
    <!-- CMLN 처리 -->
    <g style="fill: #3a414a" transform="translate(733.407031 167.893335) scale(0.1 -0.1)">
     <defs>
      <path id="MalgunGothic-43" d="M 3725 197 
Q 3216 -78 2459 -78 
Q 1488 -78 897 561 
Q 306 1200 306 2213 
Q 306 3281 959 3978 
Q 1613 4675 2644 4675 
Q 3297 4675 3725 4484 
L 3725 3941 
Q 3234 4213 2634 4213 
Q 1813 4213 1325 3659 
Q 838 3106 838 2241 
Q 838 1413 1297 897 
Q 1756 381 2522 381 
Q 3216 381 3725 688 
L 3725 197 
z
" transform="scale(0.015625)"/>
      <path id="MalgunGothic-4d" d="M 4756 0 
L 4756 3106 
Q 4756 3466 4803 3994 
L 4788 3994 
Q 4713 3684 4653 3559 
L 3050 0 
L 2822 0 
L 1222 3534 
Q 1159 3669 1091 3994 
L 1075 3994 
Q 1100 3822 1100 3116 
L 1100 0 
L 609 0 
L 609 4600 
L 1269 4600 
L 2706 1359 
Q 2881 966 2922 816 
L 2941 816 
Q 2988 944 3166 1375 
L 4638 4600 
L 5259 4600 
L 5259 0 
L 4756 0 
z
" transform="scale(0.015625)"/>
      <path id="MalgunGothic-4c" d="M 2972 0 
L 609 0 
L 609 4600 
L 1113 4600 
L 1113 463 
L 2972 463 
L 2972 0 
z
" transform="scale(0.015625)"/>
      <path id="MalgunGothic-4e" d="M 4288 0 
L 3653 0 
L 1253 3713 
Q 1178 3828 1109 4000 
L 1094 4000 
Q 1116 3822 1116 3372 
L 1116 0 
L 609 0 
L 609 4600 
L 1278 4600 
L 3613 938 
Q 3775 684 3797 634 
L 3809 634 
Q 3775 863 3775 1316 
L 3775 4600 
L 4288 4600 
L 4288 0 
z
" transform="scale(0.015625)"/>
      <path id="MalgunGothic-cc98" d="M 4947 -563 
L 4947 2803 
L 3634 2803 
L 3634 3219 
L 4947 3219 
L 4947 5466 
L 5416 5466 
L 5416 -563 
L 4947 -563 
z
M 3853 966 
Q 3369 1244 2919 1747 
Q 2469 2250 2316 2656 
Q 2188 2250 1736 1679 
Q 1284 1109 825 831 
L 469 1197 
Q 1131 1516 1606 2239 
Q 2081 2963 2081 3628 
L 2081 4206 
L 616 4206 
L 616 4622 
L 2075 4622 
L 2075 5466 
L 2541 5466 
L 2541 4622 
L 4006 4622 
L 4006 4206 
L 2547 4206 
L 2541 3603 
Q 2534 2991 3012 2312 
Q 3491 1634 4184 1338 
L 3853 966 
z
" transform="scale(0.015625)"/>
      <path id="MalgunGothic-b9ac" d="M 4884 -563 
L 4884 5466 
L 5350 5466 
L 5350 -563 
L 4884 -563 
z
M 856 738 
L 856 3128 
L 3150 3128 
L 3150 4519 
L 856 4519 
L 856 4934 
L 3616 4934 
L 3616 2725 
L 1325 2725 
L 1325 1153 
Q 3597 1153 4197 1281 
L 4250 878 
Q 3500 738 856 738 
z
" transform="scale(0.015625)"/>
     </defs>
     <use xlink:href="#MalgunGothic-43"/>
     <use xlink:href="#MalgunGothic-4d" transform="translate(63.476562 0)"/>
     <use xlink:href="#MalgunGothic-4c" transform="translate(155.175781 0)"/>
     <use xlink:href="#MalgunGothic-4e" transform="translate(203.173828 0)"/>
     <use xlink:href="#MalgunGothic-20" transform="translate(279.6875 0)"/>
     <use xlink:href="#MalgunGothic-cc98" transform="translate(314.84375 0)"/>
     <use xlink:href="#MalgunGothic-b9ac" transform="translate(414.84375 0)"/>
    </g>
   </g>
   <g id="text_12">
    <!-- 1,800+ wallet -->
    <g style="fill: #ffffff" transform="translate(731.644531 218.171226) scale(0.085 -0.085)">
     <defs>
      <path id="MalgunGothicBold-2c" d="M 1278 784 
L 797 -822 
L 128 -822 
L 466 784 
L 1278 784 
z
" transform="scale(0.015625)"/>
      <path id="MalgunGothicBold-77" d="M 5028 3284 
L 4072 0 
L 3159 0 
L 2619 2050 
Q 2578 2200 2566 2434 
L 2547 2434 
Q 2528 2200 2484 2056 
L 1903 0 
L 1003 0 
L 56 3284 
L 950 3284 
L 1466 1044 
Q 1506 863 1516 700 
L 1534 700 
Q 1544 859 1591 1056 
L 2216 3284 
L 3041 3284 
L 3594 1041 
Q 3616 950 3641 694 
L 3663 694 
Q 3672 828 3716 1041 
L 4213 3284 
L 5028 3284 
z
" transform="scale(0.015625)"/>
      <path id="MalgunGothicBold-61" d="M 534 3075 
Q 756 3203 1109 3283 
Q 1463 3363 1744 3363 
Q 3075 3363 3075 2013 
L 3075 0 
L 2244 0 
L 2244 484 
L 2228 484 
Q 1897 -81 1244 -81 
Q 769 -81 491 186 
Q 213 453 213 903 
Q 213 1844 1331 1994 
L 2247 2119 
Q 2247 2747 1634 2747 
Q 1050 2747 534 2381 
L 534 3075 
z
M 1594 1500 
Q 1031 1428 1031 997 
Q 1031 803 1165 681 
Q 1300 559 1528 559 
Q 1841 559 2044 779 
Q 2247 1000 2247 1334 
L 2247 1584 
L 1594 1500 
z
" transform="scale(0.015625)"/>
      <path id="MalgunGothicBold-6c" d="M 444 0 
L 444 4859 
L 1313 4859 
L 1313 0 
L 444 0 
z
" transform="scale(0.015625)"/>
      <path id="MalgunGothicBold-65" d="M 3316 1397 
L 1122 1397 
Q 1175 559 2072 559 
Q 2619 559 3047 847 
L 3047 184 
Q 2591 -81 1875 -81 
Q 1109 -81 682 362 
Q 256 806 256 1603 
Q 256 2384 714 2873 
Q 1172 3363 1859 3363 
Q 2547 3363 2931 2941 
Q 3316 2519 3316 1781 
L 3316 1397 
z
M 2494 1969 
Q 2494 2750 1850 2750 
Q 1581 2750 1376 2537 
Q 1172 2325 1122 1969 
L 2494 1969 
z
" transform="scale(0.015625)"/>
      <path id="MalgunGothicBold-74" d="M 2303 34 
Q 2081 -78 1684 -78 
Q 675 -78 675 991 
L 675 2622 
L 131 2622 
L 131 3284 
L 675 3284 
L 675 4019 
L 1544 4272 
L 1544 3284 
L 2303 3284 
L 2303 2622 
L 1544 2622 
L 1544 1144 
Q 1544 600 1972 600 
Q 2150 600 2303 700 
L 2303 34 
z
" transform="scale(0.015625)"/>
     </defs>
     <use xlink:href="#MalgunGothicBold-31"/>
     <use xlink:href="#MalgunGothicBold-2c" transform="translate(57.958984 0)"/>
     <use xlink:href="#MalgunGothicBold-38" transform="translate(84.130859 0)"/>
     <use xlink:href="#MalgunGothicBold-30" transform="translate(142.089844 0)"/>
     <use xlink:href="#MalgunGothicBold-30" transform="translate(200.048828 0)"/>
     <use xlink:href="#MalgunGothicBold-2b" transform="translate(258.007812 0)"/>
     <use xlink:href="#MalgunGothicBold-20" transform="translate(329.931641 0)"/>
     <use xlink:href="#MalgunGothicBold-77" transform="translate(365.087891 0)"/>
     <use xlink:href="#MalgunGothicBold-61" transform="translate(444.628906 0)"/>
     <use xlink:href="#MalgunGothicBold-6c" transform="translate(498.925781 0)"/>
     <use xlink:href="#MalgunGothicBold-6c" transform="translate(526.367188 0)"/>
     <use xlink:href="#MalgunGothicBold-65" transform="translate(553.808594 0)"/>
     <use xlink:href="#MalgunGothicBold-74" transform="translate(608.789062 0)"/>
    </g>
   </g>
  </g>
  <g id="text_13">
   <!-- 2025 가상자산 범죄 · 규모 스냅샷 -->
   <g style="fill: #111418" transform="translate(24.48 28.629062) scale(0.14 -0.14)">
    <defs>
     <path id="MalgunGothicBold-ac00" d="M 5269 2431 
L 5269 -563 
L 4481 -563 
L 4481 5466 
L 5269 5466 
L 5269 3091 
L 6203 3091 
L 6203 2431 
L 5269 2431 
z
M 978 756 
L 391 1306 
Q 2413 2416 2834 4288 
L 738 4288 
L 738 4947 
L 3725 4947 
Q 3478 2297 978 756 
z
" transform="scale(0.015625)"/>
     <path id="MalgunGothicBold-c0c1" d="M 5259 3328 
L 5259 1947 
L 4475 1947 
L 4475 5466 
L 5259 5466 
L 5259 3988 
L 6175 3988 
L 6175 3328 
L 5259 3328 
z
M 3591 2209 
Q 2653 2656 2216 3353 
Q 2053 3028 1625 2615 
Q 1197 2203 872 2028 
L 300 2591 
Q 969 2884 1387 3418 
Q 1806 3953 1806 4525 
L 1806 5275 
L 2591 5275 
L 2591 4550 
Q 2591 3975 3020 3494 
Q 3450 3013 4091 2834 
L 3591 2209 
z
M 3347 -538 
Q 2388 -538 1863 -208 
Q 1338 122 1338 666 
Q 1338 1206 1869 1531 
Q 2400 1856 3347 1856 
Q 4297 1856 4826 1532 
Q 5356 1209 5356 666 
Q 5356 119 4829 -209 
Q 4303 -538 3347 -538 
z
M 3347 1203 
Q 2150 1203 2150 666 
Q 2150 116 3347 116 
Q 4550 116 4550 666 
Q 4550 1203 3347 1203 
z
" transform="scale(0.015625)"/>
     <path id="MalgunGothicBold-c790" d="M 5259 2491 
L 5259 -563 
L 4481 -563 
L 4481 5466 
L 5259 5466 
L 5259 3150 
L 6203 3150 
L 6203 2491 
L 5259 2491 
z
M 3591 928 
Q 2644 1606 2234 2369 
Q 1994 1925 1601 1470 
Q 1209 1016 884 813 
L 306 1313 
Q 894 1597 1366 2281 
Q 1838 2966 1838 3641 
L 1838 4300 
L 531 4300 
L 531 4959 
L 3897 4959 
L 3897 4300 
L 2619 4300 
L 2619 3659 
Q 2619 3022 3072 2390 
Q 3525 1759 4109 1503 
L 3591 928 
z
" transform="scale(0.015625)"/>
     <path id="MalgunGothicBold-c0b0" d="M 5253 2988 
L 5253 1125 
L 4475 1125 
L 4475 5466 
L 5253 5466 
L 5253 3647 
L 6175 3647 
L 6175 2988 
L 5253 2988 
z
M 3591 2016 
Q 2719 2431 2216 3225 
Q 2044 2881 1612 2440 
Q 1181 2000 872 1838 
L 300 2400 
Q 938 2675 1372 3244 
Q 1806 3813 1806 4397 
L 1806 5209 
L 2591 5209 
L 2591 4422 
Q 2591 3841 3030 3328 
Q 3469 2816 4091 2644 
L 3591 2016 
z
M 1484 -353 
L 1484 1638 
L 2272 1638 
L 2272 306 
L 5422 306 
L 5422 -353 
L 1484 -353 
z
" transform="scale(0.015625)"/>
     <path id="MalgunGothicBold-bc94" d="M 716 2478 
L 716 5269 
L 1484 5269 
L 1484 4459 
L 2841 4459 
L 2841 5269 
L 3616 5269 
L 3616 4141 
L 4788 4141 
L 4788 5466 
L 5556 5466 
L 5556 2053 
L 4788 2053 
L 4788 3475 
L 3616 3475 
L 3616 2478 
L 716 2478 
z
M 2841 3803 
L 1484 3803 
L 1484 3128 
L 2841 3128 
L 2841 3803 
z
M 1663 -434 
L 1663 1800 
L 5556 1800 
L 5556 -434 
L 1663 -434 
z
M 4794 1147 
L 2431 1147 
L 2431 219 
L 4794 219 
L 4794 1147 
z
" transform="scale(0.015625)"/>
     <path id="MalgunGothicBold-c8c4" d="M 4788 -563 
L 4788 5466 
L 5569 5466 
L 5569 -563 
L 4788 -563 
z
M 4038 2234 
Q 3556 2403 3100 2733 
Q 2644 3063 2444 3384 
Q 2263 3053 1805 2697 
Q 1347 2341 897 2175 
L 403 2759 
Q 1144 2956 1598 3426 
Q 2053 3897 2053 4281 
L 2053 4416 
L 756 4416 
L 756 5081 
L 4147 5081 
L 4147 4416 
L 2834 4416 
L 2834 4269 
Q 2834 3919 3286 3459 
Q 3738 3000 4459 2853 
L 4038 2234 
z
M 4609 488 
Q 4103 453 2636 415 
Q 1169 378 347 378 
L 256 1044 
Q 1241 1044 2047 1063 
L 2047 2309 
L 2828 2309 
L 2828 1075 
Q 3850 1088 4563 1134 
L 4609 488 
z
" transform="scale(0.015625)"/>
     <path id="MalgunGothicBold-b7" d="M 828 1594 
Q 725 1594 631 1630 
Q 538 1666 466 1728 
Q 394 1791 351 1880 
Q 309 1969 309 2075 
Q 309 2184 353 2271 
Q 397 2359 470 2420 
Q 544 2481 641 2515 
Q 738 2550 841 2550 
Q 944 2550 1039 2515 
Q 1134 2481 1206 2420 
Q 1278 2359 1320 2271 
Q 1363 2184 1363 2075 
Q 1363 1963 1320 1873 
Q 1278 1784 1204 1721 
Q 1131 1659 1034 1626 
Q 938 1594 828 1594 
z
" transform="scale(0.015625)"/>
     <path id="MalgunGothicBold-addc" d="M 1778 -563 
L 1778 2034 
L 403 2034 
L 403 2700 
L 4319 2700 
Q 4378 3472 4378 4550 
L 1253 4550 
L 1253 5209 
L 5166 5209 
Q 5166 3953 5081 2700 
L 5997 2700 
L 5997 2034 
L 4622 2034 
L 4622 -563 
L 3834 -563 
L 3834 2034 
L 2566 2034 
L 2566 -563 
L 1778 -563 
z
" transform="scale(0.015625)"/>
     <path id="MalgunGothicBold-baa8" d="M 403 269 
L 403 922 
L 2803 922 
L 2803 2119 
L 1275 2119 
L 1275 4941 
L 5119 4941 
L 5119 2119 
L 3591 2119 
L 3591 922 
L 5997 922 
L 5997 269 
L 403 269 
z
M 4331 4294 
L 2059 4294 
L 2059 2766 
L 4331 2766 
L 4331 4294 
z
" transform="scale(0.015625)"/>
     <path id="MalgunGothicBold-c2a4" d="M 5356 2175 
Q 4713 2366 4109 2766 
Q 3506 3166 3194 3609 
Q 2884 3150 2289 2747 
Q 1694 2344 1031 2169 
L 575 2778 
Q 1650 3013 2226 3564 
Q 2803 4116 2803 4628 
L 2803 5075 
L 3597 5075 
L 3597 4628 
Q 3597 4128 4173 3567 
Q 4750 3006 5813 2778 
L 5356 2175 
z
M 403 334 
L 403 978 
L 5997 978 
L 5997 334 
L 403 334 
z
" transform="scale(0.015625)"/>
     <path id="MalgunGothicBold-b0c5" d="M 4856 2100 
L 4856 3272 
L 4319 3272 
L 4319 2100 
L 3553 2100 
L 3553 5344 
L 4319 5344 
L 4319 3928 
L 4856 3928 
L 4856 5466 
L 5631 5466 
L 5631 2100 
L 4856 2100 
z
M 3278 2725 
Q 2431 2625 794 2625 
L 794 5234 
L 1563 5234 
L 1563 3284 
Q 2494 3284 3206 3384 
L 3278 2725 
z
M 1784 -434 
L 1784 1844 
L 2559 1844 
L 2559 1294 
L 4856 1294 
L 4856 1844 
L 5631 1844 
L 5631 -434 
L 1784 -434 
z
M 4856 653 
L 2559 653 
L 2559 206 
L 4856 206 
L 4856 653 
z
" transform="scale(0.015625)"/>
     <path id="MalgunGothicBold-c0f7" d="M 5259 2534 
L 5259 1672 
L 4475 1672 
L 4475 5466 
L 5259 5466 
L 5259 4538 
L 6175 4538 
L 6175 3903 
L 5259 3903 
L 5259 3169 
L 6181 3169 
L 6181 2534 
L 5259 2534 
z
M 3591 2188 
Q 2650 2644 2216 3334 
Q 2053 3009 1625 2596 
Q 1197 2184 872 2009 
L 300 2572 
Q 969 2866 1387 3400 
Q 1806 3934 1806 4506 
L 1806 5253 
L 2591 5253 
L 2591 4531 
Q 2591 3956 3023 3473 
Q 3456 2991 4091 2816 
L 3591 2188 
z
M 5294 -569 
Q 4725 -478 4115 -95 
Q 3506 288 3250 678 
Q 3025 303 2426 -69 
Q 1828 -441 1253 -569 
L 781 50 
Q 1684 166 2271 642 
Q 2859 1119 2859 1606 
L 2859 1875 
L 3641 1875 
L 3641 1613 
Q 3641 1128 4230 650 
Q 4819 172 5728 44 
L 5294 -569 
z
" transform="scale(0.015625)"/>
    </defs>
    <use xlink:href="#MalgunGothicBold-32"/>
    <use xlink:href="#MalgunGothicBold-30" transform="translate(57.958984 0)"/>
    <use xlink:href="#MalgunGothicBold-32" transform="translate(115.917969 0)"/>
    <use xlink:href="#MalgunGothicBold-35" transform="translate(173.876953 0)"/>
    <use xlink:href="#MalgunGothicBold-20" transform="translate(231.835938 0)"/>
    <use xlink:href="#MalgunGothicBold-ac00" transform="translate(266.992188 0)"/>
    <use xlink:href="#MalgunGothicBold-c0c1" transform="translate(366.992188 0)"/>
    <use xlink:href="#MalgunGothicBold-c790" transform="translate(466.992188 0)"/>
    <use xlink:href="#MalgunGothicBold-c0b0" transform="translate(566.992188 0)"/>
    <use xlink:href="#MalgunGothicBold-20" transform="translate(666.992188 0)"/>
    <use xlink:href="#MalgunGothicBold-bc94" transform="translate(702.148438 0)"/>
    <use xlink:href="#MalgunGothicBold-c8c4" transform="translate(802.148438 0)"/>
    <use xlink:href="#MalgunGothicBold-20" transform="translate(902.148438 0)"/>
    <use xlink:href="#MalgunGothicBold-b7" transform="translate(937.304688 0)"/>
    <use xlink:href="#MalgunGothicBold-20" transform="translate(963.476562 0)"/>
    <use xlink:href="#MalgunGothicBold-addc" transform="translate(998.632812 0)"/>
    <use xlink:href="#MalgunGothicBold-baa8" transform="translate(1098.632812 0)"/>
    <use xlink:href="#MalgunGothicBold-20" transform="translate(1198.632812 0)"/>
    <use xlink:href="#MalgunGothicBold-c2a4" transform="translate(1233.789062 0)"/>
    <use xlink:href="#MalgunGothicBold-b0c5" transform="translate(1333.789062 0)"/>
    <use xlink:href="#MalgunGothicBold-c0f7" transform="translate(1433.789062 0)"/>
   </g>
  </g>
  <g id="text_14">
   <!-- Source: Chainalysis 2026 Crypto Crime Report -->
   <g style="fill: #6b7280" transform="translate(24.48 253.008) scale(0.075 -0.075)">
    <defs>
     <path id="MalgunGothic-53" d="M 394 797 
Q 606 613 964 500 
Q 1322 388 1625 388 
Q 2628 388 2628 1116 
Q 2628 1325 2523 1484 
Q 2419 1644 2250 1756 
Q 2081 1869 1547 2144 
Q 903 2475 651 2754 
Q 400 3034 400 3456 
Q 400 4019 858 4347 
Q 1316 4675 1988 4675 
Q 2669 4675 2963 4513 
L 2963 3928 
Q 2563 4206 1922 4206 
Q 1484 4206 1207 4018 
Q 931 3831 931 3500 
Q 931 3200 1126 3011 
Q 1322 2822 1938 2522 
Q 2656 2163 2906 1844 
Q 3156 1525 3156 1153 
Q 3156 556 2725 239 
Q 2294 -78 1531 -78 
Q 1291 -78 927 -1 
Q 563 75 394 188 
L 394 797 
z
" transform="scale(0.015625)"/>
     <path id="MalgunGothic-6f" d="M 316 1600 
Q 316 2419 761 2889 
Q 1206 3359 1978 3359 
Q 2697 3359 3111 2907 
Q 3525 2456 3525 1650 
Q 3525 869 3078 395 
Q 2631 -78 1900 -78 
Q 1184 -78 750 384 
Q 316 847 316 1600 
z
M 819 1622 
Q 819 1041 1123 692 
Q 1428 344 1934 344 
Q 2459 344 2739 680 
Q 3019 1016 3019 1634 
Q 3019 2256 2737 2598 
Q 2456 2941 1934 2941 
Q 1425 2941 1122 2587 
Q 819 2234 819 1622 
z
" transform="scale(0.015625)"/>
     <path id="MalgunGothic-75" d="M 3166 0 
L 2669 0 
L 2669 519 
L 2656 519 
Q 2331 -78 1644 -78 
Q 469 -78 469 1322 
L 469 3284 
L 959 3284 
L 959 1403 
Q 959 344 1766 344 
Q 2159 344 2414 636 
Q 2669 928 2669 1394 
L 2669 3284 
L 3166 3284 
L 3166 0 
z
" transform="scale(0.015625)"/>
     <path id="MalgunGothic-72" d="M 2225 2775 
Q 2084 2881 1828 2881 
Q 1491 2881 1262 2553 
Q 1034 2225 1034 1681 
L 1034 0 
L 538 0 
L 538 3284 
L 1034 3284 
L 1034 2603 
L 1047 2603 
Q 1159 2950 1389 3145 
Q 1619 3341 1903 3341 
Q 2109 3341 2225 3297 
L 2225 2775 
z
" transform="scale(0.015625)"/>
     <path id="MalgunGothic-63" d="M 2763 153 
Q 2375 -78 1872 -78 
Q 1184 -78 750 372 
Q 316 822 316 1566 
Q 316 2381 777 2870 
Q 1238 3359 2009 3359 
Q 2434 3359 2766 3200 
L 2766 2681 
Q 2397 2941 1981 2941 
Q 1478 2941 1148 2577 
Q 819 2213 819 1609 
Q 819 1034 1120 689 
Q 1422 344 1947 344 
Q 2381 344 2763 631 
L 2763 153 
z
" transform="scale(0.015625)"/>
     <path id="MalgunGothic-65" d="M 3156 1519 
L 828 1519 
Q 844 950 1133 648 
Q 1422 347 1909 347 
Q 2472 347 2934 719 
L 2934 244 
Q 2494 -78 1794 -78 
Q 1100 -78 708 376 
Q 316 831 316 1634 
Q 316 2381 747 2870 
Q 1178 3359 1816 3359 
Q 2453 3359 2804 2942 
Q 3156 2525 3156 1788 
L 3156 1519 
z
M 2644 1956 
Q 2644 2416 2423 2675 
Q 2203 2934 1809 2934 
Q 1438 2934 1169 2667 
Q 900 2400 834 1956 
L 2644 1956 
z
" transform="scale(0.015625)"/>
     <path id="MalgunGothic-3a" d="M 356 3006 
Q 356 3153 459 3254 
Q 563 3356 700 3356 
Q 838 3356 941 3254 
Q 1044 3153 1044 3006 
Q 1044 2863 942 2761 
Q 841 2659 700 2659 
Q 559 2659 457 2761 
Q 356 2863 356 3006 
z
M 356 275 
Q 356 422 459 523 
Q 563 625 700 625 
Q 838 625 941 523 
Q 1044 422 1044 275 
Q 1044 138 942 33 
Q 841 -72 700 -72 
Q 559 -72 457 29 
Q 356 131 356 275 
z
" transform="scale(0.015625)"/>
     <path id="MalgunGothic-68" d="M 3238 0 
L 2744 0 
L 2744 1894 
Q 2744 2941 1963 2941 
Q 1572 2941 1303 2637 
Q 1034 2334 1034 1859 
L 1034 0 
L 538 0 
L 538 4859 
L 1034 4859 
L 1034 2734 
L 1047 2734 
Q 1425 3359 2128 3359 
Q 3238 3359 3238 2022 
L 3238 0 
z
" transform="scale(0.015625)"/>
     <path id="MalgunGothic-61" d="M 616 3050 
Q 1097 3359 1722 3359 
Q 2866 3359 2866 2147 
L 2866 0 
L 2369 0 
L 2369 516 
L 2350 516 
Q 2009 -78 1341 -78 
Q 859 -78 576 180 
Q 294 438 294 869 
Q 294 1784 1375 1934 
L 2366 2078 
Q 2366 2934 1684 2934 
Q 1084 2934 616 2525 
L 616 3050 
z
M 1563 1559 
Q 1178 1509 993 1371 
Q 809 1234 809 903 
Q 809 653 986 500 
Q 1163 347 1450 347 
Q 1847 347 2106 628 
Q 2366 909 2366 1334 
L 2366 1666 
L 1563 1559 
z
" transform="scale(0.015625)"/>
     <path id="MalgunGothic-69" d="M 472 4466 
Q 472 4606 565 4701 
Q 659 4797 794 4797 
Q 934 4797 1029 4700 
Q 1125 4603 1125 4466 
Q 1125 4325 1029 4231 
Q 934 4138 794 4138 
Q 659 4138 565 4230 
Q 472 4322 472 4466 
z
M 541 0 
L 541 3284 
L 1034 3284 
L 1034 0 
L 541 0 
z
" transform="scale(0.015625)"/>
     <path id="MalgunGothic-6e" d="M 3238 0 
L 2741 0 
L 2741 1875 
Q 2741 2941 1963 2941 
Q 1563 2941 1298 2639 
Q 1034 2338 1034 1872 
L 1034 0 
L 538 0 
L 538 3284 
L 1034 3284 
L 1034 2734 
L 1047 2734 
Q 1416 3359 2125 3359 
Q 2666 3359 2952 3012 
Q 3238 2666 3238 2006 
L 3238 0 
z
" transform="scale(0.015625)"/>
     <path id="MalgunGothic-6c" d="M 541 0 
L 541 4859 
L 1034 4859 
L 1034 0 
L 541 0 
z
" transform="scale(0.015625)"/>
     <path id="MalgunGothic-79" d="M 3119 3284 
L 1597 -544 
Q 1197 -1547 481 -1547 
Q 313 -1547 156 -1509 
L 156 -1056 
Q 316 -1109 459 -1109 
Q 859 -1109 1059 -628 
L 1328 6 
L 47 3284 
L 597 3284 
L 1503 722 
Q 1513 697 1572 488 
L 1588 488 
L 1650 716 
L 2603 3284 
L 3119 3284 
z
" transform="scale(0.015625)"/>
     <path id="MalgunGothic-73" d="M 331 669 
Q 763 350 1278 350 
Q 1978 350 1978 822 
Q 1978 1025 1825 1158 
Q 1672 1291 1222 1459 
Q 703 1666 520 1878 
Q 338 2091 338 2416 
Q 338 2834 700 3096 
Q 1063 3359 1584 3359 
Q 2003 3359 2341 3213 
L 2341 2697 
Q 1975 2934 1506 2934 
Q 1200 2934 1025 2798 
Q 850 2663 850 2459 
Q 850 2241 979 2125 
Q 1109 2009 1544 1838 
Q 2131 1609 2309 1390 
Q 2488 1172 2488 869 
Q 2488 431 2127 176 
Q 1766 -78 1203 -78 
Q 694 -78 331 122 
L 331 669 
z
" transform="scale(0.015625)"/>
     <path id="MalgunGothic-36" d="M 2981 4069 
Q 2619 4250 2228 4250 
Q 1591 4250 1228 3689 
Q 866 3128 869 2213 
L 884 2213 
Q 1203 2872 1938 2872 
Q 2547 2872 2903 2478 
Q 3259 2084 3259 1450 
Q 3259 797 2857 359 
Q 2456 -78 1825 -78 
Q 1116 -78 736 478 
Q 356 1034 356 2019 
Q 356 3181 847 3928 
Q 1338 4675 2222 4675 
Q 2700 4675 2981 4544 
L 2981 4069 
z
M 906 1506 
Q 906 1022 1165 683 
Q 1425 344 1844 344 
Q 2247 344 2498 645 
Q 2750 947 2750 1388 
Q 2750 1888 2509 2167 
Q 2269 2447 1838 2447 
Q 1444 2447 1175 2173 
Q 906 1900 906 1506 
z
" transform="scale(0.015625)"/>
     <path id="MalgunGothic-70" d="M 1034 481 
L 1034 -1513 
L 538 -1513 
L 538 3284 
L 1034 3284 
L 1034 2703 
L 1047 2703 
Q 1438 3359 2184 3359 
Q 2809 3359 3171 2920 
Q 3534 2481 3534 1738 
Q 3534 906 3126 414 
Q 2719 -78 2034 -78 
Q 1394 -78 1047 481 
L 1034 481 
z
M 1034 1331 
Q 1034 922 1307 633 
Q 1581 344 1991 344 
Q 2475 344 2751 716 
Q 3028 1088 3028 1753 
Q 3028 2300 2767 2620 
Q 2506 2941 2072 2941 
Q 1619 2941 1326 2619 
Q 1034 2297 1034 1806 
L 1034 1331 
z
" transform="scale(0.015625)"/>
     <path id="MalgunGothic-74" d="M 2031 31 
Q 1844 -72 1553 -72 
Q 706 -72 706 881 
L 706 2856 
L 138 2856 
L 138 3284 
L 706 3284 
L 706 4091 
L 1200 4250 
L 1200 3284 
L 2031 3284 
L 2031 2856 
L 1200 2856 
L 1200 972 
Q 1200 625 1315 487 
Q 1431 350 1691 350 
Q 1888 350 2031 459 
L 2031 31 
z
" transform="scale(0.015625)"/>
     <path id="MalgunGothic-6d" d="M 5166 0 
L 4669 0 
L 4669 1884 
Q 4669 2463 4495 2702 
Q 4322 2941 3922 2941 
Q 3584 2941 3342 2623 
Q 3100 2306 3100 1875 
L 3100 0 
L 2606 0 
L 2606 1953 
Q 2606 2941 1844 2941 
Q 1497 2941 1265 2642 
Q 1034 2344 1034 1875 
L 1034 0 
L 538 0 
L 538 3284 
L 1034 3284 
L 1034 2763 
L 1047 2763 
Q 1391 3359 2063 3359 
Q 2381 3359 2636 3176 
Q 2891 2994 2991 2675 
Q 3356 3359 4081 3359 
Q 5166 3359 5166 2022 
L 5166 0 
z
" transform="scale(0.015625)"/>
    </defs>
    <use xlink:href="#MalgunGothic-53"/>
    <use xlink:href="#MalgunGothic-6f" transform="translate(54.296875 0)"/>
    <use xlink:href="#MalgunGothic-75" transform="translate(114.208984 0)"/>
    <use xlink:href="#MalgunGothic-72" transform="translate(172.021484 0)"/>
    <use xlink:href="#MalgunGothic-63" transform="translate(205.998047 0)"/>
    <use xlink:href="#MalgunGothic-65" transform="translate(253.263672 0)"/>
    <use xlink:href="#MalgunGothic-3a" transform="translate(306.779297 0)"/>
    <use xlink:href="#MalgunGothic-20" transform="translate(328.654297 0)"/>
    <use xlink:href="#MalgunGothic-43" transform="translate(363.810547 0)"/>
    <use xlink:href="#MalgunGothic-68" transform="translate(427.287109 0)"/>
    <use xlink:href="#MalgunGothic-61" transform="translate(485.148438 0)"/>
    <use xlink:href="#MalgunGothic-69" transform="translate(537.150391 0)"/>
    <use xlink:href="#MalgunGothic-6e" transform="translate(561.759766 0)"/>
    <use xlink:href="#MalgunGothic-61" transform="translate(619.572266 0)"/>
    <use xlink:href="#MalgunGothic-6c" transform="translate(671.574219 0)"/>
    <use xlink:href="#MalgunGothic-79" transform="translate(696.183594 0)"/>
    <use xlink:href="#MalgunGothic-73" transform="translate(745.451172 0)"/>
    <use xlink:href="#MalgunGothic-69" transform="translate(788.761719 0)"/>
    <use xlink:href="#MalgunGothic-73" transform="translate(813.371094 0)"/>
    <use xlink:href="#MalgunGothic-20" transform="translate(856.681641 0)"/>
    <use xlink:href="#MalgunGothic-32" transform="translate(891.837891 0)"/>
    <use xlink:href="#MalgunGothic-30" transform="translate(946.916016 0)"/>
    <use xlink:href="#MalgunGothic-32" transform="translate(1001.994141 0)"/>
    <use xlink:href="#MalgunGothic-36" transform="translate(1057.072266 0)"/>
    <use xlink:href="#MalgunGothic-20" transform="translate(1112.150391 0)"/>
    <use xlink:href="#MalgunGothic-43" transform="translate(1147.306641 0)"/>
    <use xlink:href="#MalgunGothic-72" transform="translate(1210.783203 0)"/>
    <use xlink:href="#MalgunGothic-79" transform="translate(1250.509766 0)"/>
    <use xlink:href="#MalgunGothic-70" transform="translate(1299.777344 0)"/>
    <use xlink:href="#MalgunGothic-74" transform="translate(1359.835938 0)"/>
    <use xlink:href="#MalgunGothic-6f" transform="translate(1393.433594 0)"/>
    <use xlink:href="#MalgunGothic-20" transform="translate(1453.345703 0)"/>
    <use xlink:href="#MalgunGothic-43" transform="translate(1488.501953 0)"/>
    <use xlink:href="#MalgunGothic-72" transform="translate(1551.978516 0)"/>
    <use xlink:href="#MalgunGothic-69" transform="translate(1587.330078 0)"/>
    <use xlink:href="#MalgunGothic-6d" transform="translate(1611.939453 0)"/>
    <use xlink:href="#MalgunGothic-65" transform="translate(1699.927734 0)"/>
    <use xlink:href="#MalgunGothic-20" transform="translate(1753.443359 0)"/>
    <use xlink:href="#MalgunGothic-52" transform="translate(1788.599609 0)"/>
    <use xlink:href="#MalgunGothic-65" transform="translate(1846.585938 0)"/>
    <use xlink:href="#MalgunGothic-70" transform="translate(1900.101562 0)"/>
    <use xlink:href="#MalgunGothic-6f" transform="translate(1960.160156 0)"/>
    <use xlink:href="#MalgunGothic-72" transform="translate(2020.072266 0)"/>
    <use xlink:href="#MalgunGothic-74" transform="translate(2058.548828 0)"/>
   </g>
  </g>
 </g>
 <defs>
  <clipPath id="p4f1064c939">
   <rect x="18" y="51.041455" width="202.5" height="184.254545"/>
  </clipPath>
  <clipPath id="p7961ea50cb">
   <rect x="231.3" y="51.041455" width="202.5" height="184.254545"/>
  </clipPath>
  <clipPath id="pef7b487633">
   <rect x="444.6" y="51.041455" width="202.5" height="184.254545"/>
  </clipPath>
  <clipPath id="p6f67c0dada">
   <rect x="657.9" y="51.041455" width="202.5" height="184.254545"/>
  </clipPath>
 </defs>
</svg>
