<?xml version="1.0" encoding="utf-8" standalone="no"?>
<!DOCTYPE svg PUBLIC "-//W3C//DTD SVG 1.1//EN"
  "http://www.w3.org/Graphics/SVG/1.1/DTD/svg11.dtd">
<svg xmlns:xlink="http://www.w3.org/1999/xlink" width="497.37552pt" height="471.175734pt" viewBox="0 0 497.37552 471.175734" xmlns="http://www.w3.org/2000/svg" version="1.1">
 <metadata>
  <rdf:RDF xmlns:dc="http://purl.org/dc/elements/1.1/" xmlns:cc="http://creativecommons.org/ns#" xmlns:rdf="http://www.w3.org/1999/02/22-rdf-syntax-ns#">
   <cc:Work>
    <dc:type rdf:resource="http://purl.org/dc/dcmitype/StillImage"/>
    <dc:date>2026-04-21T11:08:28.681457</dc:date>
    <dc:format>image/svg+xml</dc:format>
    <dc:creator>
     <cc:Agent>
      <dc:title>Matplotlib v3.10.8, https://matplotlib.org/</dc:title>
     </cc:Agent>
    </dc:creator>
   </cc:Work>
  </rdf:RDF>
 </metadata>
 <defs>
  <style type="text/css">*{stroke-linejoin: round; stroke-linecap: butt}</style>
 </defs>
 <g id="figure_1">
  <g id="patch_1">
   <path d="M -0 471.175734 
L 497.37552 471.175734 
L 497.37552 -0 
L -0 -0 
z
" style="fill: #ffffff"/>
  </g>
  <g id="axes_1">
   <g id="patch_2">
    <path d="M 405.816 232.522687 
C 405.816 209.225682 401.226998 186.155211 392.31162 164.631585 
C 383.396242 143.107959 370.32787 123.549758 353.8544 107.076288 
C 337.38093 90.602817 317.822729 77.534445 296.299102 68.619067 
C 274.775476 59.70369 251.705005 55.114687 228.408 55.114687 
C 205.110995 55.114687 182.040524 59.70369 160.516898 68.619067 
C 138.993271 77.534445 119.43507 90.602817 102.9616 107.076288 
C 86.48813 123.549758 73.419758 143.107959 64.50438 164.631585 
C 55.589002 186.155211 51 209.225682 51 232.522687 
C 51 255.819693 55.589002 278.890164 64.50438 300.41379 
C 73.419758 321.937416 86.48813 341.495617 102.9616 357.969087 
C 119.43507 374.442558 138.993271 387.51093 160.516898 396.426308 
C 182.040524 405.341685 205.110995 409.930687 228.408 409.930687 
C 251.705005 409.930687 274.775476 405.341685 296.299102 396.426308 
C 317.822729 387.51093 337.38093 374.442558 353.8544 357.969087 
C 370.32787 341.495617 383.396242 321.937416 392.31162 300.41379 
C 401.226998 278.890164 405.816 255.819693 405.816 232.522687 
M 228.408 232.522687 
C 228.408 232.522687 228.408 232.522687 228.408 232.522687 
C 228.408 232.522687 228.408 232.522687 228.408 232.522687 
C 228.408 232.522687 228.408 232.522687 228.408 232.522687 
C 228.408 232.522687 228.408 232.522687 228.408 232.522687 
C 228.408 232.522687 228.408 232.522687 228.408 232.522687 
C 228.408 232.522687 228.408 232.522687 228.408 232.522687 
C 228.408 232.522687 228.408 232.522687 228.408 232.522687 
C 228.408 232.522687 228.408 232.522687 228.408 232.522687 
C 228.408 232.522687 228.408 232.522687 228.408 232.522687 
C 228.408 232.522687 228.408 232.522687 228.408 232.522687 
C 228.408 232.522687 228.408 232.522687 228.408 232.522687 
C 228.408 232.522687 228.408 232.522687 228.408 232.522687 
C 228.408 232.522687 228.408 232.522687 228.408 232.522687 
C 228.408 232.522687 228.408 232.522687 228.408 232.522687 
C 228.408 232.522687 228.408 232.522687 228.408 232.522687 
C 228.408 232.522687 228.408 232.522687 228.408 232.522687 
z
" style="fill: #ffffff"/>
   </g>
   <g id="matplotlib.axis_1">
    <g id="xtick_1">
     <g id="line2d_1">
      <path d="M 228.408 232.522687 
L 405.816 232.522687 
" clip-path="url(#p1e3661fbe7)" style="fill: none; stroke: #d8dbe0; stroke-width: 0.6; stroke-linecap: round"/>
     </g>
     <g id="text_1">
      <!-- KYC -->
      <g style="fill: #111418" transform="translate(411.432992 235.006047) scale(0.095 -0.095)">
       <defs>
        <path id="MalgunGothic-4b" d="M 3769 0 
L 3053 0 
L 1250 2109 
Q 1150 2225 1128 2263 
L 1113 2263 
L 1113 0 
L 609 0 
L 609 4600 
L 1113 4600 
L 1113 2438 
L 1128 2438 
Q 1175 2509 1250 2588 
L 3000 4600 
L 3628 4600 
L 1634 2394 
L 3769 0 
z
" transform="scale(0.015625)"/>
        <path id="MalgunGothic-59" d="M 3566 4600 
L 2050 1700 
L 2050 0 
L 1541 0 
L 1541 1694 
L 59 4600 
L 638 4600 
L 1684 2497 
Q 1703 2459 1797 2222 
L 1806 2222 
Q 1838 2322 1931 2497 
L 3028 4600 
L 3566 4600 
z
" transform="scale(0.015625)"/>
        <path id="MalgunGothic-43" d="M 3725 197 
Q 3216 -78 2459 -78 
Q 1488 -78 897 561 
Q 306 1200 306 2213 
Q 306 3281 959 3978 
Q 1613 4675 2644 4675 
Q 3297 4675 3725 4484 
L 3725 3941 
Q 3234 4213 2634 4213 
Q 1813 4213 1325 3659 
Q 838 3106 838 2241 
Q 838 1413 1297 897 
Q 1756 381 2522 381 
Q 3216 381 3725 688 
L 3725 197 
z
" transform="scale(0.015625)"/>
       </defs>
       <use xlink:href="#MalgunGothic-4b"/>
       <use xlink:href="#MalgunGothic-59" transform="translate(59.033203 0)"/>
       <use xlink:href="#MalgunGothic-43" transform="translate(113.005859 0)"/>
      </g>
     </g>
    </g>
    <g id="xtick_2">
     <g id="line2d_2">
      <path d="M 228.408 232.522687 
L 317.112 78.882853 
" clip-path="url(#p1e3661fbe7)" style="fill: none; stroke: #d8dbe0; stroke-width: 0.6; stroke-linecap: round"/>
     </g>
     <g id="text_2">
      <!-- KYT -->
      <g style="fill: #111418" transform="translate(316.001375 69.241856) scale(0.095 -0.095)">
       <defs>
        <path id="MalgunGothic-54" d="M 3294 4134 
L 1966 4134 
L 1966 0 
L 1456 0 
L 1456 4134 
L 134 4134 
L 134 4600 
L 3294 4600 
L 3294 4134 
z
" transform="scale(0.015625)"/>
       </defs>
       <use xlink:href="#MalgunGothic-4b"/>
       <use xlink:href="#MalgunGothic-59" transform="translate(59.033203 0)"/>
       <use xlink:href="#MalgunGothic-54" transform="translate(117.380859 0)"/>
      </g>
     </g>
    </g>
    <g id="xtick_3">
     <g id="line2d_3">
      <path d="M 228.408 232.522687 
L 139.704 78.882853 
" clip-path="url(#p1e3661fbe7)" style="fill: none; stroke: #d8dbe0; stroke-width: 0.6; stroke-linecap: round"/>
     </g>
     <g id="text_3">
      <!-- Travel -->
      <g style="fill: #111418" transform="translate(120.468297 63.79138) scale(0.095 -0.095)">
       <defs>
        <path id="MalgunGothic-72" d="M 2225 2775 
Q 2084 2881 1828 2881 
Q 1491 2881 1262 2553 
Q 1034 2225 1034 1681 
L 1034 0 
L 538 0 
L 538 3284 
L 1034 3284 
L 1034 2603 
L 1047 2603 
Q 1159 2950 1389 3145 
Q 1619 3341 1903 3341 
Q 2109 3341 2225 3297 
L 2225 2775 
z
" transform="scale(0.015625)"/>
        <path id="MalgunGothic-61" d="M 616 3050 
Q 1097 3359 1722 3359 
Q 2866 3359 2866 2147 
L 2866 0 
L 2369 0 
L 2369 516 
L 2350 516 
Q 2009 -78 1341 -78 
Q 859 -78 576 180 
Q 294 438 294 869 
Q 294 1784 1375 1934 
L 2366 2078 
Q 2366 2934 1684 2934 
Q 1084 2934 616 2525 
L 616 3050 
z
M 1563 1559 
Q 1178 1509 993 1371 
Q 809 1234 809 903 
Q 809 653 986 500 
Q 1163 347 1450 347 
Q 1847 347 2106 628 
Q 2366 909 2366 1334 
L 2366 1666 
L 1563 1559 
z
" transform="scale(0.015625)"/>
        <path id="MalgunGothic-76" d="M 3084 3284 
L 1769 0 
L 1294 0 
L 47 3284 
L 594 3284 
L 1441 872 
Q 1531 609 1556 425 
L 1572 425 
Q 1603 669 1672 863 
L 2563 3284 
L 3084 3284 
z
" transform="scale(0.015625)"/>
        <path id="MalgunGothic-65" d="M 3156 1519 
L 828 1519 
Q 844 950 1133 648 
Q 1422 347 1909 347 
Q 2472 347 2934 719 
L 2934 244 
Q 2494 -78 1794 -78 
Q 1100 -78 708 376 
Q 316 831 316 1634 
Q 316 2381 747 2870 
Q 1178 3359 1816 3359 
Q 2453 3359 2804 2942 
Q 3156 2525 3156 1788 
L 3156 1519 
z
M 2644 1956 
Q 2644 2416 2423 2675 
Q 2203 2934 1809 2934 
Q 1438 2934 1169 2667 
Q 900 2400 834 1956 
L 2644 1956 
z
" transform="scale(0.015625)"/>
        <path id="MalgunGothic-6c" d="M 541 0 
L 541 4859 
L 1034 4859 
L 1034 0 
L 541 0 
z
" transform="scale(0.015625)"/>
       </defs>
       <use xlink:href="#MalgunGothic-54"/>
       <use xlink:href="#MalgunGothic-72" transform="translate(43.994141 0)"/>
       <use xlink:href="#MalgunGothic-61" transform="translate(79.345703 0)"/>
       <use xlink:href="#MalgunGothic-76" transform="translate(131.347656 0)"/>
       <use xlink:href="#MalgunGothic-65" transform="translate(179.453125 0)"/>
       <use xlink:href="#MalgunGothic-6c" transform="translate(232.96875 0)"/>
      </g>
      <!-- Rule -->
      <g style="fill: #111418" transform="translate(123.350211 74.692333) scale(0.095 -0.095)">
       <defs>
        <path id="MalgunGothic-52" d="M 3866 0 
L 3259 0 
L 2488 1294 
Q 2241 1706 2044 1837 
Q 1847 1969 1569 1969 
L 1113 1969 
L 1113 0 
L 609 0 
L 609 4600 
L 1963 4600 
Q 2597 4600 2970 4272 
Q 3344 3944 3344 3375 
Q 3344 2422 2325 2138 
L 2325 2125 
Q 2519 2041 2645 1902 
Q 2772 1763 3006 1381 
L 3866 0 
z
M 1113 4128 
L 1113 2438 
L 1866 2438 
Q 2291 2438 2552 2686 
Q 2813 2934 2813 3334 
Q 2813 3709 2570 3918 
Q 2328 4128 1872 4128 
L 1113 4128 
z
" transform="scale(0.015625)"/>
        <path id="MalgunGothic-75" d="M 3166 0 
L 2669 0 
L 2669 519 
L 2656 519 
Q 2331 -78 1644 -78 
Q 469 -78 469 1322 
L 469 3284 
L 959 3284 
L 959 1403 
Q 959 344 1766 344 
Q 2159 344 2414 636 
Q 2669 928 2669 1394 
L 2669 3284 
L 3166 3284 
L 3166 0 
z
" transform="scale(0.015625)"/>
       </defs>
       <use xlink:href="#MalgunGothic-52"/>
       <use xlink:href="#MalgunGothic-75" transform="translate(60.986328 0)"/>
       <use xlink:href="#MalgunGothic-6c" transform="translate(118.798828 0)"/>
       <use xlink:href="#MalgunGothic-65" transform="translate(143.408203 0)"/>
      </g>
     </g>
    </g>
    <g id="xtick_4">
     <g id="line2d_4">
      <path d="M 228.408 232.522687 
L 51 232.522687 
" clip-path="url(#p1e3661fbe7)" style="fill: none; stroke: #d8dbe0; stroke-width: 0.6; stroke-linecap: round"/>
     </g>
     <g id="text_4">
      <!-- 제재 -->
      <g style="fill: #111418" transform="translate(27.5 229.55557) scale(0.095 -0.095)">
       <defs>
        <path id="MalgunGothic-c81c" d="M 5038 -563 
L 5038 5466 
L 5503 5466 
L 5503 -563 
L 5038 -563 
z
M 3944 -378 
L 3944 2975 
L 2894 2975 
L 2894 3391 
L 3944 3391 
L 3944 5344 
L 4403 5344 
L 4403 -378 
L 3944 -378 
z
M 3116 850 
Q 2306 1647 1984 2734 
Q 1881 2291 1529 1722 
Q 1178 1153 775 769 
L 409 1063 
Q 941 1438 1350 2248 
Q 1759 3059 1759 3834 
L 1759 4525 
L 634 4525 
L 634 4941 
L 3359 4941 
L 3359 4525 
L 2222 4525 
L 2222 3828 
Q 2222 3075 2589 2328 
Q 2956 1581 3469 1153 
L 3116 850 
z
" transform="scale(0.015625)"/>
        <path id="MalgunGothic-c7ac" d="M 5069 -563 
L 5069 2375 
L 4353 2375 
L 4353 -378 
L 3891 -378 
L 3891 5344 
L 4353 5344 
L 4353 2791 
L 5069 2791 
L 5069 5466 
L 5538 5466 
L 5538 -563 
L 5069 -563 
z
M 3181 884 
Q 2791 1266 2461 1781 
Q 2131 2297 2041 2681 
Q 1959 2263 1606 1722 
Q 1253 1181 838 800 
L 475 1088 
Q 1016 1478 1420 2233 
Q 1825 2988 1825 3750 
L 1825 4525 
L 691 4525 
L 691 4941 
L 3425 4941 
L 3425 4525 
L 2284 4525 
L 2284 3756 
Q 2284 3006 2648 2281 
Q 3013 1556 3531 1184 
L 3181 884 
z
" transform="scale(0.015625)"/>
       </defs>
       <use xlink:href="#MalgunGothic-c81c"/>
       <use xlink:href="#MalgunGothic-c7ac" transform="translate(100 0)"/>
      </g>
      <!-- 스크리닝 -->
      <g style="fill: #111418" transform="translate(18 240.456523) scale(0.095 -0.095)">
       <defs>
        <path id="MalgunGothic-c2a4" d="M 3194 3897 
Q 2969 3416 2328 2930 
Q 1688 2444 959 2247 
L 641 2619 
Q 1703 2841 2329 3472 
Q 2956 4103 2956 4659 
L 2956 4978 
L 3438 4978 
L 3438 4659 
Q 3438 4094 4073 3476 
Q 4709 2859 5759 2625 
L 5428 2253 
Q 4694 2481 4058 2956 
Q 3422 3431 3194 3897 
z
M 5997 447 
L 403 447 
L 403 863 
L 5997 863 
L 5997 447 
z
" transform="scale(0.015625)"/>
        <path id="MalgunGothic-d06c" d="M 403 550 
L 403 966 
L 4494 966 
Q 4584 1969 4609 2791 
L 972 2600 
L 872 3059 
L 4616 3188 
L 4616 4475 
L 1178 4475 
L 1178 4891 
L 5075 4891 
L 5075 3138 
Q 5075 2347 4947 966 
L 5997 966 
L 5997 550 
L 403 550 
z
" transform="scale(0.015625)"/>
        <path id="MalgunGothic-b9ac" d="M 4884 -563 
L 4884 5466 
L 5350 5466 
L 5350 -563 
L 4884 -563 
z
M 856 738 
L 856 3128 
L 3150 3128 
L 3150 4519 
L 856 4519 
L 856 4934 
L 3616 4934 
L 3616 2725 
L 1325 2725 
L 1325 1153 
Q 3597 1153 4197 1281 
L 4250 878 
Q 3500 738 856 738 
z
" transform="scale(0.015625)"/>
        <path id="MalgunGothic-b2dd" d="M 4959 2047 
L 4959 5466 
L 5428 5466 
L 5428 2047 
L 4959 2047 
z
M 4469 2719 
Q 3881 2572 1131 2572 
L 1131 5178 
L 1600 5178 
L 1600 2988 
L 2009 2988 
Q 3700 2988 4409 3116 
L 4469 2719 
z
M 3559 -513 
Q 2616 -513 2105 -175 
Q 1594 163 1594 684 
Q 1594 1206 2105 1543 
Q 2616 1881 3559 1881 
Q 4509 1881 5018 1542 
Q 5528 1203 5528 684 
Q 5528 166 5018 -173 
Q 4509 -513 3559 -513 
z
M 3559 1478 
Q 2850 1478 2465 1253 
Q 2081 1028 2081 684 
Q 2081 341 2465 116 
Q 2850 -109 3559 -109 
Q 4272 -109 4651 116 
Q 5031 341 5031 684 
Q 5031 1028 4651 1253 
Q 4272 1478 3559 1478 
z
" transform="scale(0.015625)"/>
       </defs>
       <use xlink:href="#MalgunGothic-c2a4"/>
       <use xlink:href="#MalgunGothic-d06c" transform="translate(100 0)"/>
       <use xlink:href="#MalgunGothic-b9ac" transform="translate(200 0)"/>
       <use xlink:href="#MalgunGothic-b2dd" transform="translate(300 0)"/>
      </g>
     </g>
    </g>
    <g id="xtick_5">
     <g id="line2d_5">
      <path d="M 228.408 232.522687 
L 139.704 386.162522 
" clip-path="url(#p1e3661fbe7)" style="fill: none; stroke: #d8dbe0; stroke-width: 0.6; stroke-linecap: round"/>
     </g>
     <g id="text_5">
      <!-- 자산 -->
      <g style="fill: #111418" transform="translate(123.204 395.319761) scale(0.095 -0.095)">
       <defs>
        <path id="MalgunGothic-c790" d="M 5094 2600 
L 5094 -563 
L 4628 -563 
L 4628 5466 
L 5094 5466 
L 5094 3016 
L 6138 3016 
L 6138 2600 
L 5094 2600 
z
M 3675 909 
Q 3228 1250 2808 1812 
Q 2388 2375 2247 2822 
Q 2125 2394 1712 1809 
Q 1300 1225 800 825 
L 441 1134 
Q 1100 1569 1551 2364 
Q 2003 3159 2003 3891 
L 2003 4525 
L 666 4525 
L 666 4941 
L 3775 4941 
L 3775 4525 
L 2463 4525 
L 2463 3922 
Q 2463 3188 2916 2434 
Q 3369 1681 4000 1259 
L 3675 909 
z
" transform="scale(0.015625)"/>
        <path id="MalgunGothic-c0b0" d="M 5125 3169 
L 5125 1081 
L 4659 1081 
L 4659 5466 
L 5125 5466 
L 5125 3584 
L 6034 3584 
L 6034 3169 
L 5125 3169 
z
M 3597 2081 
Q 3206 2294 2778 2731 
Q 2350 3169 2188 3525 
Q 2038 3125 1603 2642 
Q 1169 2159 750 1925 
L 409 2247 
Q 1041 2553 1492 3173 
Q 1944 3794 1953 4453 
L 1953 5228 
L 2400 5228 
L 2400 4453 
Q 2400 3841 2853 3259 
Q 3306 2678 3909 2419 
L 3597 2081 
z
M 1478 -353 
L 1478 1528 
L 1953 1528 
L 1953 72 
L 5325 72 
L 5325 -353 
L 1478 -353 
z
" transform="scale(0.015625)"/>
       </defs>
       <use xlink:href="#MalgunGothic-c790"/>
       <use xlink:href="#MalgunGothic-c0b0" transform="translate(100 0)"/>
      </g>
      <!-- 분리보관 -->
      <g style="fill: #111418" transform="translate(113.704 406.220714) scale(0.095 -0.095)">
       <defs>
        <path id="MalgunGothic-bd84" d="M 1338 2994 
L 1338 5306 
L 1806 5306 
L 1806 4525 
L 4594 4525 
L 4594 5306 
L 5056 5306 
L 5056 2994 
L 1338 2994 
z
M 4594 4109 
L 1806 4109 
L 1806 3406 
L 4594 3406 
L 4594 4109 
z
M 3456 1863 
L 3456 494 
L 2988 494 
L 2988 1863 
L 403 1863 
L 403 2278 
L 5997 2278 
L 5997 1863 
L 3456 1863 
z
M 1288 -384 
L 1288 1344 
L 1753 1344 
L 1753 31 
L 5216 31 
L 5216 -384 
L 1288 -384 
z
" transform="scale(0.015625)"/>
        <path id="MalgunGothic-bcf4" d="M 3438 2053 
L 3438 756 
L 5997 756 
L 5997 341 
L 403 341 
L 403 756 
L 2963 756 
L 2963 2053 
L 1306 2053 
L 1306 4947 
L 1772 4947 
L 1772 3903 
L 4628 3903 
L 4628 4947 
L 5088 4947 
L 5088 2053 
L 3438 2053 
z
M 4628 3481 
L 1772 3481 
L 1772 2478 
L 4628 2478 
L 4628 3481 
z
" transform="scale(0.015625)"/>
        <path id="MalgunGothic-ad00" d="M 5191 2816 
L 5191 972 
L 4722 972 
L 4722 5466 
L 5191 5466 
L 5191 3238 
L 6094 3238 
L 6094 2816 
L 5191 2816 
z
M 3872 5056 
Q 3872 3828 3775 2950 
L 3322 2981 
Q 3406 3822 3406 4641 
L 872 4641 
L 872 5056 
L 3872 5056 
z
M 4281 2069 
Q 3859 2034 2501 2000 
Q 1144 1966 409 1966 
L 366 2381 
Q 1166 2381 1850 2400 
L 1850 3738 
L 2316 3738 
L 2316 2406 
Q 3481 2422 4256 2472 
L 4281 2069 
z
M 1428 -359 
L 1428 1381 
L 1894 1381 
L 1894 56 
L 5350 56 
L 5350 -359 
L 1428 -359 
z
" transform="scale(0.015625)"/>
       </defs>
       <use xlink:href="#MalgunGothic-bd84"/>
       <use xlink:href="#MalgunGothic-b9ac" transform="translate(100 0)"/>
       <use xlink:href="#MalgunGothic-bcf4" transform="translate(200 0)"/>
       <use xlink:href="#MalgunGothic-ad00" transform="translate(300 0)"/>
      </g>
     </g>
    </g>
    <g id="xtick_6">
     <g id="line2d_6">
      <path d="M 228.408 232.522687 
L 317.112 386.162522 
" clip-path="url(#p1e3661fbe7)" style="fill: none; stroke: #d8dbe0; stroke-width: 0.6; stroke-linecap: round"/>
     </g>
     <g id="text_6">
      <!-- STR -->
      <g style="fill: #111418" transform="translate(316.100828 400.770237) scale(0.095 -0.095)">
       <defs>
        <path id="MalgunGothic-53" d="M 394 797 
Q 606 613 964 500 
Q 1322 388 1625 388 
Q 2628 388 2628 1116 
Q 2628 1325 2523 1484 
Q 2419 1644 2250 1756 
Q 2081 1869 1547 2144 
Q 903 2475 651 2754 
Q 400 3034 400 3456 
Q 400 4019 858 4347 
Q 1316 4675 1988 4675 
Q 2669 4675 2963 4513 
L 2963 3928 
Q 2563 4206 1922 4206 
Q 1484 4206 1207 4018 
Q 931 3831 931 3500 
Q 931 3200 1126 3011 
Q 1322 2822 1938 2522 
Q 2656 2163 2906 1844 
Q 3156 1525 3156 1153 
Q 3156 556 2725 239 
Q 2294 -78 1531 -78 
Q 1291 -78 927 -1 
Q 563 75 394 188 
L 394 797 
z
" transform="scale(0.015625)"/>
       </defs>
       <use xlink:href="#MalgunGothic-53"/>
       <use xlink:href="#MalgunGothic-54" transform="translate(54.296875 0)"/>
       <use xlink:href="#MalgunGothic-52" transform="translate(107.666016 0)"/>
      </g>
     </g>
    </g>
   </g>
   <g id="matplotlib.axis_2">
    <g id="ytick_1">
     <g id="line2d_7">
      <path d="M 283.848 232.522687 
C 283.848 225.242373 282.413937 218.032851 279.627881 211.306718 
C 276.841826 204.580585 272.757959 198.468647 267.61 193.320688 
C 262.46204 188.172728 256.350103 184.088862 249.623969 181.302806 
C 242.897836 178.516751 235.688314 177.082687 228.408 177.082687 
C 221.127686 177.082687 213.918164 178.516751 207.192031 181.302806 
C 200.465897 184.088862 194.35396 188.172728 189.206 193.320688 
C 184.058041 198.468647 179.974174 204.580585 177.188119 211.306718 
C 174.402063 218.032851 172.968 225.242373 172.968 232.522687 
C 172.968 239.803002 174.402063 247.012524 177.188119 253.738657 
C 179.974174 260.46479 184.058041 266.576728 189.206 271.724687 
C 194.35396 276.872647 200.465897 280.956513 207.192031 283.742569 
C 213.918164 286.528624 221.127686 287.962688 228.408 287.962688 
C 235.688314 287.962688 242.897836 286.528624 249.623969 283.742569 
C 256.350103 280.956513 262.46204 276.872647 267.61 271.724687 
C 272.757959 266.576728 276.841826 260.46479 279.627881 253.738657 
C 282.413937 247.012524 283.848 239.803002 283.848 232.522687 
" clip-path="url(#p1e3661fbe7)" style="fill: none; stroke: #d8dbe0; stroke-width: 0.6; stroke-linecap: round"/>
     </g>
     <g id="text_7">
      <!-- 약 -->
      <g style="fill: #6b7280" transform="translate(228.408 175.191437) scale(0.08 -0.08)">
       <defs>
        <path id="MalgunGothic-c57d" d="M 5125 2828 
L 5125 2100 
L 4659 2100 
L 4659 5466 
L 5125 5466 
L 5125 4588 
L 6034 4588 
L 6034 4178 
L 5125 4178 
L 5125 3238 
L 6034 3238 
L 6034 2828 
L 5125 2828 
z
M 2150 2394 
Q 1478 2394 1050 2808 
Q 622 3222 622 3847 
Q 622 4469 1047 4881 
Q 1472 5294 2150 5294 
Q 2828 5294 3258 4883 
Q 3688 4472 3688 3847 
Q 3688 3216 3256 2805 
Q 2825 2394 2150 2394 
z
M 2150 4897 
Q 1678 4897 1383 4601 
Q 1088 4306 1088 3847 
Q 1088 3381 1381 3089 
Q 1675 2797 2150 2797 
Q 2628 2797 2923 3090 
Q 3219 3384 3219 3847 
Q 3219 4300 2923 4598 
Q 2628 4897 2150 4897 
z
M 4659 -563 
L 4659 1350 
L 1259 1350 
L 1259 1766 
L 5125 1766 
L 5125 -563 
L 4659 -563 
z
" transform="scale(0.015625)"/>
       </defs>
       <use xlink:href="#MalgunGothic-c57d"/>
      </g>
     </g>
    </g>
    <g id="ytick_2">
     <g id="line2d_8">
      <path d="M 339.288 232.522687 
C 339.288 217.962059 336.419874 203.543015 330.847763 190.090749 
C 325.275651 176.638482 317.107919 164.414607 306.812 154.118688 
C 296.516081 143.822769 284.292205 135.655036 270.839939 130.082925 
C 257.387673 124.510814 242.968628 121.642687 228.408 121.642687 
C 213.847372 121.642687 199.428327 124.510814 185.976061 130.082925 
C 172.523795 135.655036 160.299919 143.822769 150.004 154.118688 
C 139.708081 164.414607 131.540349 176.638482 125.968237 190.090749 
C 120.396126 203.543015 117.528 217.962059 117.528 232.522687 
C 117.528 247.083316 120.396126 261.50236 125.968237 274.954626 
C 131.540349 288.406893 139.708081 300.630768 150.004 310.926687 
C 160.299919 321.222606 172.523795 329.390339 185.976061 334.96245 
C 199.428327 340.534561 213.847372 343.402688 228.408 343.402688 
C 242.968628 343.402688 257.387673 340.534561 270.839939 334.96245 
C 284.292205 329.390339 296.516081 321.222606 306.812 310.926687 
C 317.107919 300.630768 325.275651 288.406893 330.847763 274.954626 
C 336.419874 261.50236 339.288 247.083316 339.288 232.522688 
" clip-path="url(#p1e3661fbe7)" style="fill: none; stroke: #d8dbe0; stroke-width: 0.6; stroke-linecap: round"/>
     </g>
     <g id="text_8">
      <!-- 중 -->
      <g style="fill: #6b7280" transform="translate(228.408 119.751437) scale(0.08 -0.08)">
       <defs>
        <path id="MalgunGothic-c911" d="M 5459 3272 
Q 4750 3372 4097 3714 
Q 3444 4056 3206 4422 
Q 2984 4094 2328 3736 
Q 1672 3378 972 3278 
L 697 3653 
Q 1478 3713 2139 4083 
Q 2800 4453 2950 4878 
L 1025 4878 
L 1025 5300 
L 5375 5300 
L 5375 4878 
L 3456 4878 
Q 3597 4456 4251 4090 
Q 4906 3725 5703 3653 
L 5459 3272 
z
M 2963 1734 
L 2963 2431 
L 403 2431 
L 403 2853 
L 5997 2853 
L 5997 2431 
L 3438 2431 
L 3438 1734 
Q 4269 1697 4700 1400 
Q 5131 1103 5131 628 
Q 5131 100 4634 -200 
Q 4138 -500 3200 -500 
Q 2263 -500 1766 -200 
Q 1269 100 1269 628 
Q 1269 1103 1700 1400 
Q 2131 1697 2963 1734 
z
M 3200 1344 
Q 2481 1344 2117 1155 
Q 1753 966 1753 628 
Q 1753 284 2123 90 
Q 2494 -103 3200 -103 
Q 3903 -103 4275 90 
Q 4647 284 4647 628 
Q 4647 966 4281 1155 
Q 3916 1344 3200 1344 
z
" transform="scale(0.015625)"/>
       </defs>
       <use xlink:href="#MalgunGothic-c911"/>
      </g>
     </g>
    </g>
    <g id="ytick_3">
     <g id="line2d_9">
      <path d="M 394.728 232.522687 
C 394.728 210.681745 390.425811 189.053179 382.067644 168.874779 
C 373.709477 148.696379 361.457878 130.360566 346.014 114.916688 
C 330.570121 99.472809 312.234308 87.22121 292.055908 78.863044 
C 271.877509 70.504877 250.248942 66.202687 228.408 66.202687 
C 206.567058 66.202687 184.938491 70.504877 164.760092 78.863044 
C 144.581692 87.22121 126.245879 99.472809 110.802 114.916688 
C 95.358122 130.360566 83.106523 148.696379 74.748356 168.874779 
C 66.390189 189.053179 62.088 210.681745 62.088 232.522687 
C 62.088 254.36363 66.390189 275.992196 74.748356 296.170596 
C 83.106523 316.348996 95.358122 334.684809 110.802 350.128687 
C 126.245879 365.572566 144.581692 377.824165 164.760092 386.182331 
C 184.938491 394.540498 206.567058 398.842688 228.408 398.842688 
C 250.248942 398.842688 271.877509 394.540498 292.055908 386.182331 
C 312.234308 377.824165 330.570121 365.572566 346.014 350.128687 
C 361.457878 334.684809 373.709477 316.348996 382.067644 296.170596 
C 390.425811 275.992196 394.728 254.36363 394.728 232.522688 
" clip-path="url(#p1e3661fbe7)" style="fill: none; stroke: #d8dbe0; stroke-width: 0.6; stroke-linecap: round"/>
     </g>
     <g id="text_9">
      <!-- 강 -->
      <g style="fill: #6b7280" transform="translate(228.408 64.311437) scale(0.08 -0.08)">
       <defs>
        <path id="MalgunGothic-ac15" d="M 5125 3372 
L 5125 2009 
L 4659 2009 
L 4659 5466 
L 5125 5466 
L 5125 3809 
L 6034 3809 
L 6034 3372 
L 5125 3372 
z
M 3513 5113 
Q 3397 3850 2551 3039 
Q 1706 2228 794 1869 
L 459 2247 
Q 1388 2541 2108 3225 
Q 2828 3909 2963 4697 
L 831 4697 
L 831 5113 
L 3513 5113 
z
M 3263 -453 
Q 2325 -453 1806 -128 
Q 1288 197 1288 716 
Q 1288 1231 1803 1556 
Q 2319 1881 3263 1881 
Q 4216 1881 4731 1557 
Q 5247 1234 5247 716 
Q 5247 197 4726 -128 
Q 4206 -453 3263 -453 
z
M 3263 1478 
Q 2559 1478 2168 1265 
Q 1778 1053 1778 716 
Q 1778 378 2162 164 
Q 2547 -50 3263 -50 
Q 3981 -50 4365 164 
Q 4750 378 4750 716 
Q 4750 1053 4359 1265 
Q 3969 1478 3263 1478 
z
" transform="scale(0.015625)"/>
       </defs>
       <use xlink:href="#MalgunGothic-ac15"/>
      </g>
     </g>
    </g>
   </g>
   <g id="patch_3">
    <path d="M 394.728 232.522687 
L 311.568 88.485342 
L 145.248 88.485342 
L 62.088 232.522687 
L 145.248 376.560033 
L 311.568 376.560033 
z
" clip-path="url(#p1e3661fbe7)" style="fill: #1a2e4a; opacity: 0.12; stroke: #1a2e4a; stroke-linejoin: miter"/>
   </g>
   <g id="patch_4">
    <path d="M 394.728 232.522687 
L 283.848 136.497791 
L 172.968 136.497791 
L 117.528 232.522687 
L 145.248 376.560033 
L 283.848 328.547584 
z
" clip-path="url(#p1e3661fbe7)" style="fill: #c9a646; opacity: 0.12; stroke: #c9a646; stroke-linejoin: miter"/>
   </g>
   <g id="patch_5">
    <path d="M 394.728 232.522687 
L 283.848 136.497791 
L 145.248 88.485342 
L 117.528 232.522687 
L 200.688 280.535136 
L 311.568 376.560033 
z
" clip-path="url(#p1e3661fbe7)" style="fill: #4a5f7e; opacity: 0.12; stroke: #4a5f7e; stroke-linejoin: miter"/>
   </g>
   <g id="patch_6">
    <path d="M 339.288 232.522687 
L 283.848 136.497791 
L 200.688 184.510239 
L 117.528 232.522687 
L 200.688 280.535136 
L 283.848 328.547584 
z
" clip-path="url(#p1e3661fbe7)" style="fill: #7e8ba4; opacity: 0.12; stroke: #7e8ba4; stroke-linejoin: miter"/>
   </g>
   <g id="line2d_10">
    <path d="M 394.728 232.522687 
L 311.568 88.485342 
L 145.248 88.485342 
L 62.088 232.522687 
L 145.248 376.560033 
L 311.568 376.560033 
L 394.728 232.522687 
" clip-path="url(#p1e3661fbe7)" style="fill: none; stroke: #1a2e4a; stroke-width: 1.8; stroke-linecap: round"/>
   </g>
   <g id="line2d_11">
    <path d="M 394.728 232.522687 
L 283.848 136.497791 
L 172.968 136.497791 
L 117.528 232.522687 
L 145.248 376.560033 
L 283.848 328.547584 
L 394.728 232.522687 
" clip-path="url(#p1e3661fbe7)" style="fill: none; stroke: #c9a646; stroke-width: 1.8; stroke-linecap: round"/>
   </g>
   <g id="line2d_12">
    <path d="M 394.728 232.522687 
L 283.848 136.497791 
L 145.248 88.485342 
L 117.528 232.522687 
L 200.688 280.535136 
L 311.568 376.560033 
L 394.728 232.522687 
" clip-path="url(#p1e3661fbe7)" style="fill: none; stroke: #4a5f7e; stroke-width: 1.8; stroke-linecap: round"/>
   </g>
   <g id="line2d_13">
    <path d="M 339.288 232.522687 
L 283.848 136.497791 
L 200.688 184.510239 
L 117.528 232.522687 
L 200.688 280.535136 
L 283.848 328.547584 
L 339.288 232.522687 
" clip-path="url(#p1e3661fbe7)" style="fill: none; stroke: #7e8ba4; stroke-width: 1.8; stroke-linecap: round"/>
   </g>
   <g id="patch_7">
    <path d="M 405.816 232.522687 
C 405.816 209.225682 401.226998 186.155211 392.31162 164.631585 
C 383.396242 143.107959 370.32787 123.549758 353.8544 107.076288 
C 337.38093 90.602817 317.822729 77.534445 296.299102 68.619067 
C 274.775476 59.70369 251.705005 55.114687 228.408 55.114687 
C 205.110995 55.114687 182.040524 59.70369 160.516898 68.619067 
C 138.993271 77.534445 119.43507 90.602817 102.9616 107.076288 
C 86.48813 123.549758 73.419758 143.107959 64.50438 164.631585 
C 55.589002 186.155211 51 209.225682 51 232.522687 
C 51 255.819693 55.589002 278.890164 64.50438 300.41379 
C 73.419758 321.937416 86.48813 341.495617 102.9616 357.969087 
C 119.43507 374.442558 138.993271 387.51093 160.516898 396.426308 
C 182.040524 405.341685 205.110995 409.930687 228.408 409.930687 
C 251.705005 409.930687 274.775476 405.341685 296.299102 396.426308 
C 317.822729 387.51093 337.38093 374.442558 353.8544 357.969087 
C 370.32787 341.495617 383.396242 321.937416 392.31162 300.41379 
C 401.226998 278.890164 405.816 255.819693 405.816 232.522688 
" style="fill: none; stroke: #d8dbe0; stroke-width: 0.8; stroke-linejoin: miter; stroke-linecap: square"/>
   </g>
   <g id="text_10">
    <!-- 사업 유형별 VASP 의무 강도 (RBA) -->
    <g style="fill: #111418" transform="translate(116.637687 29.114688) scale(0.14 -0.14)">
     <defs>
      <path id="MalgunGothicBold-c0ac" d="M 5259 2491 
L 5259 -563 
L 4481 -563 
L 4481 5466 
L 5259 5466 
L 5259 3150 
L 6203 3150 
L 6203 2491 
L 5259 2491 
z
M 3609 934 
Q 2650 1594 2228 2419 
Q 1744 1469 838 831 
L 231 1356 
Q 925 1713 1381 2422 
Q 1838 3131 1838 3878 
L 1838 5063 
L 2619 5063 
L 2619 3897 
Q 2619 3163 3069 2481 
Q 3519 1800 4159 1528 
L 3609 934 
z
" transform="scale(0.015625)"/>
      <path id="MalgunGothicBold-c5c5" d="M 3725 3541 
Q 3606 3019 3179 2697 
Q 2753 2375 2169 2375 
Q 1491 2375 1039 2804 
Q 588 3234 588 3884 
Q 588 4528 1038 4965 
Q 1488 5403 2169 5403 
Q 2750 5403 3183 5076 
Q 3616 4750 3731 4206 
L 4788 4206 
L 4788 5466 
L 5556 5466 
L 5556 2228 
L 4788 2228 
L 4788 3541 
L 3725 3541 
z
M 2169 4750 
Q 1800 4750 1578 4509 
Q 1356 4269 1356 3884 
Q 1356 3500 1576 3258 
Q 1797 3016 2169 3016 
Q 2544 3016 2766 3259 
Q 2988 3503 2988 3884 
Q 2988 4266 2764 4508 
Q 2541 4750 2169 4750 
z
M 1663 -434 
L 1663 1972 
L 2431 1972 
L 2431 1356 
L 4788 1356 
L 4788 1972 
L 5550 1972 
L 5550 -434 
L 1663 -434 
z
M 4788 703 
L 2431 703 
L 2431 206 
L 4788 206 
L 4788 703 
z
" transform="scale(0.015625)"/>
      <path id="MalgunGothicBold-20" transform="scale(0.015625)"/>
      <path id="MalgunGothicBold-c720" d="M 3200 2606 
Q 2288 2606 1739 3006 
Q 1191 3406 1191 4013 
Q 1191 4613 1736 4997 
Q 2281 5381 3188 5381 
Q 4106 5381 4651 4998 
Q 5197 4616 5197 4013 
Q 5197 3422 4642 3014 
Q 4088 2606 3200 2606 
z
M 3188 4744 
Q 2619 4744 2305 4537 
Q 1991 4331 1991 4013 
Q 1991 3697 2309 3490 
Q 2628 3284 3188 3284 
Q 3747 3284 4065 3490 
Q 4384 3697 4384 4013 
Q 4384 4338 4064 4541 
Q 3744 4744 3188 4744 
z
M 1819 -556 
L 1819 1441 
L 403 1441 
L 403 2100 
L 5997 2100 
L 5997 1441 
L 4581 1441 
L 4581 -556 
L 3803 -556 
L 3803 1441 
L 2597 1441 
L 2597 -556 
L 1819 -556 
z
" transform="scale(0.015625)"/>
      <path id="MalgunGothicBold-d615" d="M 447 4306 
L 447 4934 
L 1900 4934 
L 1900 5550 
L 2688 5550 
L 2688 4934 
L 4141 4934 
L 4141 4306 
L 447 4306 
z
M 3891 2272 
L 3891 2906 
L 4756 2906 
L 4756 3366 
L 3891 3366 
L 3891 4000 
L 4756 4000 
L 4756 5466 
L 5538 5466 
L 5538 1753 
L 4756 1753 
L 4756 2272 
L 3891 2272 
z
M 2241 1913 
Q 1525 1913 1131 2209 
Q 738 2506 738 3003 
Q 738 3494 1134 3792 
Q 1531 4091 2247 4091 
Q 2963 4091 3359 3792 
Q 3756 3494 3756 3003 
Q 3756 2503 3353 2208 
Q 2950 1913 2241 1913 
z
M 2247 3463 
Q 1491 3463 1491 3003 
Q 1491 2534 2247 2534 
Q 3009 2534 3009 3003 
Q 3009 3463 2247 3463 
z
M 3578 -556 
Q 2609 -556 2068 -237 
Q 1528 81 1528 616 
Q 1528 1147 2075 1469 
Q 2622 1791 3578 1791 
Q 4528 1791 5073 1466 
Q 5619 1141 5619 616 
Q 5619 88 5081 -234 
Q 4544 -556 3578 -556 
z
M 3578 1147 
Q 2956 1147 2642 1000 
Q 2328 853 2328 616 
Q 2328 369 2648 226 
Q 2969 84 3578 84 
Q 4184 84 4501 225 
Q 4819 366 4819 616 
Q 4819 856 4506 1001 
Q 4194 1147 3578 1147 
z
" transform="scale(0.015625)"/>
      <path id="MalgunGothicBold-bcc4" d="M 722 2541 
L 722 5269 
L 1491 5269 
L 1491 4525 
L 2847 4525 
L 2847 5269 
L 3622 5269 
L 3622 4716 
L 4794 4716 
L 4794 5466 
L 5563 5466 
L 5563 2438 
L 4794 2438 
L 4794 2956 
L 3622 2956 
L 3622 2541 
L 722 2541 
z
M 3622 3547 
L 4794 3547 
L 4794 4128 
L 3622 4128 
L 3622 3547 
z
M 2847 3866 
L 1491 3866 
L 1491 3194 
L 2847 3194 
L 2847 3866 
z
M 1663 -466 
L 1663 1166 
L 4794 1166 
L 4794 1538 
L 1663 1538 
L 1663 2175 
L 5563 2175 
L 5563 563 
L 2438 563 
L 2438 172 
L 5716 172 
L 5716 -466 
L 1663 -466 
z
" transform="scale(0.015625)"/>
      <path id="MalgunGothicBold-56" d="M 4253 4600 
L 2638 0 
L 1634 0 
L 38 4600 
L 1003 4600 
L 2053 1269 
Q 2119 1059 2147 822 
L 2166 822 
Q 2178 997 2266 1278 
L 3319 4600 
L 4253 4600 
z
" transform="scale(0.015625)"/>
      <path id="MalgunGothicBold-41" d="M 4447 0 
L 3475 0 
L 3103 1100 
L 1375 1100 
L 1013 0 
L 41 0 
L 1744 4600 
L 2772 4600 
L 4447 0 
z
M 2881 1806 
L 2319 3472 
Q 2284 3572 2247 3853 
L 2225 3853 
Q 2200 3644 2147 3478 
L 1581 1806 
L 2881 1806 
z
" transform="scale(0.015625)"/>
      <path id="MalgunGothicBold-53" d="M 334 1091 
Q 881 638 1588 638 
Q 2013 638 2222 786 
Q 2431 934 2431 1175 
Q 2431 1384 2256 1559 
Q 2081 1734 1409 2022 
Q 838 2278 580 2598 
Q 322 2919 322 3350 
Q 322 3972 803 4323 
Q 1284 4675 2066 4675 
Q 2766 4675 3169 4500 
L 3169 3647 
Q 2722 3953 2091 3953 
Q 1719 3953 1489 3812 
Q 1259 3672 1259 3425 
Q 1259 3228 1418 3065 
Q 1578 2903 2166 2644 
Q 2841 2350 3103 2026 
Q 3366 1703 3366 1253 
Q 3366 603 2902 261 
Q 2438 -81 1600 -81 
Q 822 -81 334 178 
L 334 1091 
z
" transform="scale(0.015625)"/>
      <path id="MalgunGothicBold-50" d="M 1438 1631 
L 1438 0 
L 547 0 
L 547 4600 
L 2066 4600 
Q 3747 4600 3747 3159 
Q 3747 2463 3239 2038 
Q 2731 1613 1963 1631 
L 1438 1631 
z
M 1438 3891 
L 1438 2328 
L 1891 2328 
Q 2813 2328 2813 3125 
Q 2813 3891 1909 3891 
L 1438 3891 
z
" transform="scale(0.015625)"/>
      <path id="MalgunGothicBold-c758" d="M 4800 -563 
L 4800 5466 
L 5575 5466 
L 5575 -563 
L 4800 -563 
z
M 2328 2059 
Q 1619 2059 1139 2479 
Q 659 2900 659 3572 
Q 659 4250 1150 4672 
Q 1641 5094 2363 5094 
Q 3078 5094 3545 4672 
Q 4013 4250 4013 3572 
Q 4013 2903 3528 2481 
Q 3044 2059 2328 2059 
z
M 2338 4434 
Q 1941 4434 1700 4190 
Q 1459 3947 1459 3572 
Q 1459 3203 1706 2961 
Q 1953 2719 2338 2719 
Q 2728 2719 2970 2964 
Q 3213 3209 3213 3572 
Q 3213 3938 2967 4186 
Q 2722 4434 2338 4434 
z
M 319 434 
L 238 1094 
Q 3100 1094 4525 1184 
L 4569 538 
Q 2584 434 319 434 
z
" transform="scale(0.015625)"/>
      <path id="MalgunGothicBold-bb34" d="M 1269 2859 
L 1269 5247 
L 5119 5247 
L 5119 2859 
L 1269 2859 
z
M 4341 4588 
L 2053 4588 
L 2053 3513 
L 4341 3513 
L 4341 4588 
z
M 3591 1503 
L 3591 -563 
L 2803 -563 
L 2803 1503 
L 403 1503 
L 403 2169 
L 5997 2169 
L 5997 1503 
L 3591 1503 
z
" transform="scale(0.015625)"/>
      <path id="MalgunGothicBold-ac15" d="M 5259 3328 
L 5259 1947 
L 4475 1947 
L 4475 5466 
L 5259 5466 
L 5259 3988 
L 6175 3988 
L 6175 3328 
L 5259 3328 
z
M 3694 5141 
Q 3378 3013 953 1919 
L 397 2528 
Q 1194 2750 1822 3289 
Q 2450 3828 2700 4481 
L 775 4481 
L 775 5141 
L 3694 5141 
z
M 3347 -538 
Q 2388 -538 1863 -208 
Q 1338 122 1338 666 
Q 1338 1206 1869 1531 
Q 2400 1856 3347 1856 
Q 4297 1856 4826 1532 
Q 5356 1209 5356 666 
Q 5356 119 4829 -209 
Q 4303 -538 3347 -538 
z
M 3347 1203 
Q 2150 1203 2150 666 
Q 2150 116 3347 116 
Q 4550 116 4550 666 
Q 4550 1203 3347 1203 
z
" transform="scale(0.015625)"/>
      <path id="MalgunGothicBold-b3c4" d="M 403 263 
L 403 916 
L 2803 916 
L 2803 2113 
L 1294 2113 
L 1294 4934 
L 5106 4934 
L 5106 4281 
L 2081 4281 
L 2081 2766 
L 5197 2766 
L 5197 2113 
L 3591 2113 
L 3591 916 
L 5997 916 
L 5997 263 
L 403 263 
z
" transform="scale(0.015625)"/>
      <path id="MalgunGothicBold-28" d="M 1513 -1044 
Q 488 94 488 1756 
Q 488 3384 1513 4600 
L 2231 4600 
Q 1250 3334 1250 1759 
Q 1250 197 2231 -1044 
L 1513 -1044 
z
" transform="scale(0.015625)"/>
      <path id="MalgunGothicBold-52" d="M 4241 0 
L 3209 0 
L 2478 1216 
Q 2256 1584 2100 1700 
Q 1944 1816 1763 1816 
L 1438 1816 
L 1438 0 
L 547 0 
L 547 4600 
L 2109 4600 
Q 3703 4600 3703 3356 
Q 3703 2900 3436 2564 
Q 3169 2228 2675 2088 
L 2675 2075 
Q 2991 1969 3372 1366 
L 4241 0 
z
M 1438 3906 
L 1438 2513 
L 1969 2513 
Q 2331 2513 2548 2723 
Q 2766 2934 2766 3250 
Q 2766 3906 1984 3906 
L 1438 3906 
z
" transform="scale(0.015625)"/>
      <path id="MalgunGothicBold-42" d="M 547 0 
L 547 4600 
L 2113 4600 
Q 2822 4600 3222 4317 
Q 3622 4034 3622 3528 
Q 3622 3159 3387 2876 
Q 3153 2594 2756 2472 
L 2756 2463 
Q 3244 2400 3531 2100 
Q 3819 1800 3819 1356 
Q 3819 738 3375 369 
Q 2931 0 2188 0 
L 547 0 
z
M 1438 3916 
L 1438 2709 
L 1922 2709 
Q 2281 2709 2484 2879 
Q 2688 3050 2688 3359 
Q 2688 3916 1894 3916 
L 1438 3916 
z
M 1438 2022 
L 1438 684 
L 2050 684 
Q 2444 684 2662 865 
Q 2881 1047 2881 1369 
Q 2881 2022 2019 2022 
L 1438 2022 
z
" transform="scale(0.015625)"/>
      <path id="MalgunGothicBold-29" d="M 59 -1044 
Q 1047 175 1047 1759 
Q 1047 3328 59 4600 
L 784 4600 
Q 1813 3378 1813 1756 
Q 1813 106 781 -1044 
L 59 -1044 
z
" transform="scale(0.015625)"/>
     </defs>
     <use xlink:href="#MalgunGothicBold-c0ac"/>
     <use xlink:href="#MalgunGothicBold-c5c5" transform="translate(100 0)"/>
     <use xlink:href="#MalgunGothicBold-20" transform="translate(200 0)"/>
     <use xlink:href="#MalgunGothicBold-c720" transform="translate(235.15625 0)"/>
     <use xlink:href="#MalgunGothicBold-d615" transform="translate(335.15625 0)"/>
     <use xlink:href="#MalgunGothicBold-bcc4" transform="translate(435.15625 0)"/>
     <use xlink:href="#MalgunGothicBold-20" transform="translate(535.15625 0)"/>
     <use xlink:href="#MalgunGothicBold-56" transform="translate(570.3125 0)"/>
     <use xlink:href="#MalgunGothicBold-41" transform="translate(631.777344 0)"/>
     <use xlink:href="#MalgunGothicBold-53" transform="translate(702.138672 0)"/>
     <use xlink:href="#MalgunGothicBold-50" transform="translate(758.730469 0)"/>
     <use xlink:href="#MalgunGothicBold-20" transform="translate(820.205078 0)"/>
     <use xlink:href="#MalgunGothicBold-c758" transform="translate(855.361328 0)"/>
     <use xlink:href="#MalgunGothicBold-bb34" transform="translate(955.361328 0)"/>
     <use xlink:href="#MalgunGothicBold-20" transform="translate(1055.361328 0)"/>
     <use xlink:href="#MalgunGothicBold-ac15" transform="translate(1090.517578 0)"/>
     <use xlink:href="#MalgunGothicBold-b3c4" transform="translate(1190.517578 0)"/>
     <use xlink:href="#MalgunGothicBold-20" transform="translate(1290.517578 0)"/>
     <use xlink:href="#MalgunGothicBold-28" transform="translate(1325.673828 0)"/>
     <use xlink:href="#MalgunGothicBold-52" transform="translate(1361.464844 0)"/>
     <use xlink:href="#MalgunGothicBold-42" transform="translate(1426.845703 0)"/>
     <use xlink:href="#MalgunGothicBold-41" transform="translate(1490.566406 0)"/>
     <use xlink:href="#MalgunGothicBold-29" transform="translate(1560.927734 0)"/>
    </g>
   </g>
   <g id="legend_1">
    <g id="line2d_14">
     <path d="M 412.124426 38.512376 
L 421.124426 38.512376 
L 430.124426 38.512376 
" style="fill: none; stroke: #1a2e4a; stroke-width: 1.8; stroke-linecap: round"/>
    </g>
    <g id="text_11">
     <!-- 거래소 -->
     <g style="fill: #262626" transform="translate(437.324426 41.662376) scale(0.09 -0.09)">
      <defs>
       <path id="MalgunGothic-ac70" d="M 4897 -563 
L 4897 2663 
L 3419 2663 
L 3419 3078 
L 4897 3078 
L 4897 5466 
L 5363 5466 
L 5363 -563 
L 4897 -563 
z
M 3547 4928 
Q 3481 2356 831 863 
L 481 1241 
Q 1438 1638 2178 2516 
Q 2919 3394 3047 4513 
L 728 4513 
L 728 4928 
L 3547 4928 
z
" transform="scale(0.015625)"/>
       <path id="MalgunGothic-b798" d="M 5088 -563 
L 5088 2431 
L 4319 2431 
L 4319 -378 
L 3859 -378 
L 3859 5344 
L 4319 5344 
L 4319 2847 
L 5088 2847 
L 5088 5466 
L 5556 5466 
L 5556 -563 
L 5088 -563 
z
M 763 819 
L 763 3169 
L 2606 3169 
L 2606 4500 
L 763 4500 
L 763 4916 
L 3072 4916 
L 3072 2766 
L 1228 2766 
L 1228 1228 
L 1916 1228 
Q 3134 1228 3481 1288 
L 3541 897 
Q 3316 847 2852 833 
Q 2388 819 763 819 
z
" transform="scale(0.015625)"/>
       <path id="MalgunGothic-c18c" d="M 3194 3909 
Q 2963 3416 2330 2941 
Q 1697 2466 959 2259 
L 641 2631 
Q 1700 2872 2328 3497 
Q 2956 4122 2956 4666 
L 2956 4984 
L 3438 4984 
L 3438 4666 
Q 3438 4131 4069 3506 
Q 4700 2881 5759 2631 
L 5428 2266 
Q 4719 2481 4072 2957 
Q 3425 3434 3194 3909 
z
M 403 384 
L 403 800 
L 2963 800 
L 2963 2266 
L 3438 2266 
L 3438 800 
L 5997 800 
L 5997 384 
L 403 384 
z
" transform="scale(0.015625)"/>
      </defs>
      <use xlink:href="#MalgunGothic-ac70"/>
      <use xlink:href="#MalgunGothic-b798" transform="translate(100 0)"/>
      <use xlink:href="#MalgunGothic-c18c" transform="translate(200 0)"/>
     </g>
    </g>
    <g id="line2d_15">
     <path d="M 412.124426 51.973001 
L 421.124426 51.973001 
L 430.124426 51.973001 
" style="fill: none; stroke: #c9a646; stroke-width: 1.8; stroke-linecap: round"/>
    </g>
    <g id="text_12">
     <!-- 수탁업 -->
     <g style="fill: #262626" transform="translate(437.324426 55.123001) scale(0.09 -0.09)">
      <defs>
       <path id="MalgunGothic-c218" d="M 5491 2994 
Q 4750 3097 4078 3498 
Q 3406 3900 3200 4275 
Q 2975 3891 2309 3491 
Q 1644 3091 922 2956 
L 634 3347 
Q 1559 3450 2261 3942 
Q 2963 4434 2963 5013 
L 2963 5275 
L 3431 5275 
L 3431 5013 
Q 3431 4431 4118 3948 
Q 4806 3466 5766 3378 
L 5491 2994 
z
M 3431 1838 
L 3431 -563 
L 2963 -563 
L 2963 1838 
L 403 1838 
L 403 2253 
L 5997 2253 
L 5997 1838 
L 3431 1838 
z
" transform="scale(0.015625)"/>
       <path id="MalgunGothic-d0c1" d="M 5125 3519 
L 5125 1984 
L 4659 1984 
L 4659 5466 
L 5125 5466 
L 5125 3938 
L 6034 3938 
L 6034 3519 
L 5125 3519 
z
M 1300 3559 
L 1300 2706 
Q 3163 2706 3872 2778 
L 3903 2369 
Q 2947 2291 831 2291 
L 831 5191 
L 3622 5191 
L 3622 4775 
L 1300 4775 
L 1300 3969 
L 3372 3969 
L 3372 3559 
L 1300 3559 
z
M 4659 -563 
L 4659 1228 
L 1253 1228 
L 1253 1650 
L 5125 1650 
L 5125 -563 
L 4659 -563 
z
" transform="scale(0.015625)"/>
       <path id="MalgunGothic-c5c5" d="M 3928 3744 
Q 3847 3181 3422 2842 
Q 2997 2503 2400 2503 
Q 1734 2503 1306 2918 
Q 878 3334 878 3950 
Q 878 4559 1303 4976 
Q 1728 5394 2400 5394 
Q 2994 5394 3419 5055 
Q 3844 4716 3922 4159 
L 4959 4159 
L 4959 5459 
L 5428 5459 
L 5428 2431 
L 4959 2431 
L 4959 3744 
L 3928 3744 
z
M 2400 4991 
Q 1928 4991 1633 4697 
Q 1338 4403 1338 3950 
Q 1338 3488 1630 3194 
Q 1922 2900 2400 2900 
Q 2884 2900 3176 3194 
Q 3469 3488 3469 3950 
Q 3469 4403 3173 4697 
Q 2878 4991 2400 4991 
z
M 1709 -422 
L 1709 2100 
L 2169 2100 
L 2169 1184 
L 4966 1184 
L 4966 2100 
L 5428 2100 
L 5428 -422 
L 1709 -422 
z
M 4966 775 
L 2169 775 
L 2169 -6 
L 4966 -6 
L 4966 775 
z
" transform="scale(0.015625)"/>
      </defs>
      <use xlink:href="#MalgunGothic-c218"/>
      <use xlink:href="#MalgunGothic-d0c1" transform="translate(100 0)"/>
      <use xlink:href="#MalgunGothic-c5c5" transform="translate(200 0)"/>
     </g>
    </g>
    <g id="line2d_16">
     <path d="M 412.124426 65.433626 
L 421.124426 65.433626 
L 430.124426 65.433626 
" style="fill: none; stroke: #4a5f7e; stroke-width: 1.8; stroke-linecap: round"/>
    </g>
    <g id="text_13">
     <!-- OTC desk -->
     <g style="fill: #262626" transform="translate(437.324426 68.583626) scale(0.09 -0.09)">
      <defs>
       <path id="MalgunGothic-4f" d="M 306 2244 
Q 306 3350 903 4012 
Q 1500 4675 2531 4675 
Q 3481 4675 4062 4029 
Q 4644 3384 4644 2359 
Q 4644 1256 4056 589 
Q 3469 -78 2456 -78 
Q 1488 -78 897 570 
Q 306 1219 306 2244 
z
M 838 2291 
Q 838 1456 1278 918 
Q 1719 381 2453 381 
Q 3238 381 3677 889 
Q 4116 1397 4116 2284 
Q 4116 3188 3692 3700 
Q 3269 4213 2494 4213 
Q 1741 4213 1289 3670 
Q 838 3128 838 2291 
z
" transform="scale(0.015625)"/>
       <path id="MalgunGothic-20" transform="scale(0.015625)"/>
       <path id="MalgunGothic-64" d="M 3313 0 
L 2822 0 
L 2822 566 
L 2809 566 
Q 2444 -78 1675 -78 
Q 1056 -78 686 364 
Q 316 806 316 1566 
Q 316 2375 728 2867 
Q 1141 3359 1816 3359 
Q 2494 3359 2809 2822 
L 2822 2822 
L 2822 4859 
L 3313 4859 
L 3313 0 
z
M 2822 1978 
Q 2822 2378 2550 2659 
Q 2278 2941 1872 2941 
Q 1384 2941 1101 2577 
Q 819 2213 819 1591 
Q 819 1025 1086 684 
Q 1353 344 1813 344 
Q 2250 344 2536 666 
Q 2822 988 2822 1478 
L 2822 1978 
z
" transform="scale(0.015625)"/>
       <path id="MalgunGothic-73" d="M 331 669 
Q 763 350 1278 350 
Q 1978 350 1978 822 
Q 1978 1025 1825 1158 
Q 1672 1291 1222 1459 
Q 703 1666 520 1878 
Q 338 2091 338 2416 
Q 338 2834 700 3096 
Q 1063 3359 1584 3359 
Q 2003 3359 2341 3213 
L 2341 2697 
Q 1975 2934 1506 2934 
Q 1200 2934 1025 2798 
Q 850 2663 850 2459 
Q 850 2241 979 2125 
Q 1109 2009 1544 1838 
Q 2131 1609 2309 1390 
Q 2488 1172 2488 869 
Q 2488 431 2127 176 
Q 1766 -78 1203 -78 
Q 694 -78 331 122 
L 331 669 
z
" transform="scale(0.015625)"/>
       <path id="MalgunGothic-6b" d="M 3228 0 
L 2525 0 
L 1047 1575 
L 1034 1575 
L 1034 0 
L 538 0 
L 538 4859 
L 1034 4859 
L 1034 1778 
L 1047 1778 
L 2450 3284 
L 3106 3284 
L 1563 1694 
L 3228 0 
z
" transform="scale(0.015625)"/>
      </defs>
      <use xlink:href="#MalgunGothic-4f"/>
      <use xlink:href="#MalgunGothic-54" transform="translate(72.46875 0)"/>
      <use xlink:href="#MalgunGothic-43" transform="translate(120.962891 0)"/>
      <use xlink:href="#MalgunGothic-20" transform="translate(184.439453 0)"/>
      <use xlink:href="#MalgunGothic-64" transform="translate(219.595703 0)"/>
      <use xlink:href="#MalgunGothic-65" transform="translate(279.800781 0)"/>
      <use xlink:href="#MalgunGothic-73" transform="translate(333.316406 0)"/>
      <use xlink:href="#MalgunGothic-6b" transform="translate(376.626953 0)"/>
     </g>
    </g>
    <g id="line2d_17">
     <path d="M 412.124426 78.894251 
L 421.124426 78.894251 
L 430.124426 78.894251 
" style="fill: none; stroke: #7e8ba4; stroke-width: 1.8; stroke-linecap: round"/>
    </g>
    <g id="text_14">
     <!-- NFT 마켓 -->
     <g style="fill: #262626" transform="translate(437.324426 82.044251) scale(0.09 -0.09)">
      <defs>
       <path id="MalgunGothic-4e" d="M 4288 0 
L 3653 0 
L 1253 3713 
Q 1178 3828 1109 4000 
L 1094 4000 
Q 1116 3822 1116 3372 
L 1116 0 
L 609 0 
L 609 4600 
L 1278 4600 
L 3613 938 
Q 3775 684 3797 634 
L 3809 634 
Q 3775 863 3775 1316 
L 3775 4600 
L 4288 4600 
L 4288 0 
z
" transform="scale(0.015625)"/>
       <path id="MalgunGothic-46" d="M 2922 4134 
L 1113 4134 
L 1113 2516 
L 2788 2516 
L 2788 2050 
L 1113 2050 
L 1113 0 
L 609 0 
L 609 4600 
L 2922 4600 
L 2922 4134 
z
" transform="scale(0.015625)"/>
       <path id="MalgunGothic-b9c8" d="M 5094 2631 
L 5094 -563 
L 4628 -563 
L 4628 5466 
L 5094 5466 
L 5094 3047 
L 6138 3047 
L 6138 2631 
L 5094 2631 
z
M 800 1209 
L 800 4934 
L 3647 4934 
L 3647 1209 
L 800 1209 
z
M 3188 4525 
L 1269 4525 
L 1269 1619 
L 3188 1619 
L 3188 4525 
z
" transform="scale(0.015625)"/>
       <path id="MalgunGothic-cf13" d="M 5056 1556 
L 5056 5466 
L 5522 5466 
L 5522 1556 
L 5056 1556 
z
M 3981 1941 
L 3981 3284 
L 2994 3284 
L 2994 3700 
L 3981 3700 
L 3981 5344 
L 4441 5344 
L 4441 1941 
L 3981 1941 
z
M 722 3341 
L 563 3763 
L 2553 3916 
Q 2713 4269 2753 4634 
L 878 4634 
L 878 5044 
L 3256 5044 
Q 3169 2794 897 1697 
L 544 2053 
Q 1691 2509 2350 3525 
L 722 3341 
z
M 5619 -428 
Q 4994 -288 4391 137 
Q 3788 563 3506 1050 
Q 3288 591 2673 153 
Q 2059 -284 1428 -428 
L 1131 -25 
Q 1953 91 2611 656 
Q 3269 1222 3278 1772 
L 3278 1913 
L 3744 1913 
L 3744 1778 
Q 3744 1241 4395 669 
Q 5047 97 5888 -25 
L 5619 -428 
z
" transform="scale(0.015625)"/>
      </defs>
      <use xlink:href="#MalgunGothic-4e"/>
      <use xlink:href="#MalgunGothic-46" transform="translate(76.513672 0)"/>
      <use xlink:href="#MalgunGothic-54" transform="translate(127.117188 0)"/>
      <use xlink:href="#MalgunGothic-20" transform="translate(180.486328 0)"/>
      <use xlink:href="#MalgunGothic-b9c8" transform="translate(215.642578 0)"/>
      <use xlink:href="#MalgunGothic-cf13" transform="translate(315.642578 0)"/>
     </g>
    </g>
   </g>
  </g>
  <g id="text_15">
   <!-- Source: 특금법 §2 · §5의2~§5의4 + 가상자산이용자보호법 §10 -->
   <g style="fill: #6b7280" transform="translate(116.729367 451.402688) scale(0.075 -0.075)">
    <defs>
     <path id="MalgunGothic-6f" d="M 316 1600 
Q 316 2419 761 2889 
Q 1206 3359 1978 3359 
Q 2697 3359 3111 2907 
Q 3525 2456 3525 1650 
Q 3525 869 3078 395 
Q 2631 -78 1900 -78 
Q 1184 -78 750 384 
Q 316 847 316 1600 
z
M 819 1622 
Q 819 1041 1123 692 
Q 1428 344 1934 344 
Q 2459 344 2739 680 
Q 3019 1016 3019 1634 
Q 3019 2256 2737 2598 
Q 2456 2941 1934 2941 
Q 1425 2941 1122 2587 
Q 819 2234 819 1622 
z
" transform="scale(0.015625)"/>
     <path id="MalgunGothic-63" d="M 2763 153 
Q 2375 -78 1872 -78 
Q 1184 -78 750 372 
Q 316 822 316 1566 
Q 316 2381 777 2870 
Q 1238 3359 2009 3359 
Q 2434 3359 2766 3200 
L 2766 2681 
Q 2397 2941 1981 2941 
Q 1478 2941 1148 2577 
Q 819 2213 819 1609 
Q 819 1034 1120 689 
Q 1422 344 1947 344 
Q 2381 344 2763 631 
L 2763 153 
z
" transform="scale(0.015625)"/>
     <path id="MalgunGothic-3a" d="M 356 3006 
Q 356 3153 459 3254 
Q 563 3356 700 3356 
Q 838 3356 941 3254 
Q 1044 3153 1044 3006 
Q 1044 2863 942 2761 
Q 841 2659 700 2659 
Q 559 2659 457 2761 
Q 356 2863 356 3006 
z
M 356 275 
Q 356 422 459 523 
Q 563 625 700 625 
Q 838 625 941 523 
Q 1044 422 1044 275 
Q 1044 138 942 33 
Q 841 -72 700 -72 
Q 559 -72 457 29 
Q 356 131 356 275 
z
" transform="scale(0.015625)"/>
     <path id="MalgunGothic-d2b9" d="M 1344 2969 
L 1344 5331 
L 5081 5331 
L 5081 4928 
L 1806 4928 
L 1806 4359 
L 4978 4359 
L 4978 3981 
L 1806 3981 
L 1806 3372 
L 5153 3372 
L 5153 2969 
L 1344 2969 
z
M 403 1978 
L 403 2381 
L 5997 2381 
L 5997 1978 
L 403 1978 
z
M 4594 -563 
L 4594 934 
L 1228 934 
L 1228 1344 
L 5069 1344 
L 5069 -563 
L 4594 -563 
z
" transform="scale(0.015625)"/>
     <path id="MalgunGothic-ae08" d="M 403 2663 
L 403 3084 
L 4563 3084 
Q 4634 3803 4634 4819 
L 1338 4819 
L 1338 5234 
L 5100 5234 
Q 5100 4081 5019 3084 
L 5997 3084 
L 5997 2663 
L 403 2663 
z
M 1350 -416 
L 1350 1856 
L 5075 1856 
L 5075 -416 
L 1350 -416 
z
M 4616 1447 
L 1813 1447 
L 1813 0 
L 4616 0 
L 4616 1447 
z
" transform="scale(0.015625)"/>
     <path id="MalgunGothic-bc95" d="M 1038 2578 
L 1038 5269 
L 1497 5269 
L 1497 4300 
L 3353 4300 
L 3353 5269 
L 3822 5269 
L 3822 4109 
L 4953 4109 
L 4953 5466 
L 5422 5466 
L 5422 2350 
L 4953 2350 
L 4953 3688 
L 3822 3688 
L 3822 2578 
L 1038 2578 
z
M 3353 3891 
L 1497 3891 
L 1497 2994 
L 3353 2994 
L 3353 3891 
z
M 1709 -397 
L 1709 2016 
L 2169 2016 
L 2169 1184 
L 4953 1184 
L 4953 2016 
L 5416 2016 
L 5416 -397 
L 1709 -397 
z
M 4953 775 
L 2169 775 
L 2169 13 
L 4953 13 
L 4953 775 
z
" transform="scale(0.015625)"/>
     <path id="MalgunGothic-a7" d="M 2091 1331 
Q 2381 1097 2381 731 
Q 2381 319 2064 55 
Q 1747 -209 1250 -209 
Q 838 -209 494 -34 
L 494 453 
Q 903 222 1281 222 
Q 1556 222 1706 351 
Q 1856 481 1856 678 
Q 1856 856 1751 968 
Q 1647 1081 1166 1334 
Q 419 1725 419 2350 
Q 419 2878 897 3134 
Q 553 3403 553 3850 
Q 553 4259 858 4520 
Q 1163 4781 1634 4781 
Q 2041 4781 2328 4647 
L 2328 4156 
Q 2022 4350 1622 4350 
Q 1072 4350 1072 3878 
Q 1072 3525 1547 3303 
L 1800 3184 
Q 2203 2997 2386 2761 
Q 2569 2525 2569 2216 
Q 2569 1678 2091 1331 
z
M 1272 2909 
Q 938 2744 938 2391 
Q 938 2156 1114 1981 
Q 1291 1806 1756 1597 
Q 2044 1828 2044 2163 
Q 2044 2425 1847 2589 
Q 1650 2753 1272 2909 
z
" transform="scale(0.015625)"/>
     <path id="MalgunGothic-32" d="M 2519 3372 
Q 2519 3784 2275 4018 
Q 2031 4253 1628 4253 
Q 1341 4253 1053 4104 
Q 766 3956 534 3697 
L 534 4234 
Q 981 4675 1691 4675 
Q 2281 4675 2642 4334 
Q 3003 3994 3003 3416 
Q 3003 2919 2772 2545 
Q 2541 2172 1984 1775 
Q 1459 1406 1254 1215 
Q 1050 1025 967 854 
Q 884 684 884 450 
L 3116 450 
L 3116 0 
L 356 0 
L 356 225 
Q 356 603 461 870 
Q 566 1138 811 1392 
Q 1056 1647 1597 2022 
Q 2091 2363 2305 2670 
Q 2519 2978 2519 3372 
z
" transform="scale(0.015625)"/>
     <path id="MalgunGothic-b7" d="M 700 1644 
Q 628 1644 565 1672 
Q 503 1700 456 1747 
Q 409 1794 382 1858 
Q 356 1922 356 1994 
Q 356 2066 382 2130 
Q 409 2194 456 2241 
Q 503 2288 565 2316 
Q 628 2344 700 2344 
Q 772 2344 834 2316 
Q 897 2288 944 2241 
Q 991 2194 1017 2130 
Q 1044 2066 1044 1994 
Q 1044 1925 1017 1861 
Q 991 1797 944 1748 
Q 897 1700 834 1672 
Q 772 1644 700 1644 
z
" transform="scale(0.015625)"/>
     <path id="MalgunGothic-35" d="M 3072 1403 
Q 3072 722 2636 322 
Q 2200 -78 1469 -78 
Q 828 -78 516 113 
L 516 650 
Q 994 344 1475 344 
Q 1969 344 2270 630 
Q 2572 916 2572 1372 
Q 2572 1838 2265 2092 
Q 1959 2347 1381 2347 
Q 994 2347 603 2300 
L 759 4600 
L 2869 4600 
L 2869 4147 
L 1206 4147 
L 1106 2763 
Q 1347 2784 1547 2784 
Q 2263 2784 2667 2414 
Q 3072 2044 3072 1403 
z
" transform="scale(0.015625)"/>
     <path id="MalgunGothic-c758" d="M 5013 -563 
L 5013 5466 
L 5478 5466 
L 5478 -563 
L 5013 -563 
z
M 2450 2131 
Q 1775 2131 1315 2540 
Q 856 2950 856 3572 
Q 856 4181 1312 4593 
Q 1769 5006 2450 5006 
Q 3128 5006 3586 4590 
Q 4044 4175 4044 3572 
Q 4044 2947 3587 2539 
Q 3131 2131 2450 2131 
z
M 2450 4594 
Q 1975 4594 1656 4306 
Q 1338 4019 1338 3572 
Q 1338 3119 1664 2833 
Q 1991 2547 2450 2547 
Q 2922 2547 3244 2833 
Q 3566 3119 3566 3572 
Q 3566 4025 3247 4309 
Q 2928 4594 2450 4594 
z
M 459 531 
L 416 934 
Q 1222 934 2667 965 
Q 4113 997 4588 1038 
L 4616 634 
Q 4125 594 2679 562 
Q 1234 531 459 531 
z
" transform="scale(0.015625)"/>
     <path id="MalgunGothic-7e" d="M 3819 2400 
Q 3794 1925 3559 1670 
Q 3325 1416 2925 1416 
Q 2572 1416 2075 1772 
Q 1766 1988 1563 1988 
Q 1106 1988 1094 1419 
L 675 1419 
Q 691 1888 933 2145 
Q 1175 2403 1566 2403 
Q 1903 2403 2319 2116 
Q 2747 1825 2953 1825 
Q 3153 1825 3273 1983 
Q 3394 2141 3400 2400 
L 3819 2400 
z
" transform="scale(0.015625)"/>
     <path id="MalgunGothic-34" d="M 2703 4600 
L 2703 1563 
L 3309 1563 
L 3309 1113 
L 2703 1113 
L 2703 0 
L 2213 0 
L 2213 1113 
L 50 1113 
L 50 1534 
Q 728 2297 1295 3109 
Q 1863 3922 2172 4600 
L 2703 4600 
z
M 625 1563 
L 2213 1563 
L 2213 3831 
Q 1613 2788 959 1981 
L 625 1563 
z
" transform="scale(0.015625)"/>
     <path id="MalgunGothic-2b" d="M 3750 1706 
L 2450 1706 
L 2450 413 
L 2041 413 
L 2041 1706 
L 744 1706 
L 744 2122 
L 2041 2122 
L 2041 3416 
L 2450 3416 
L 2450 2122 
L 3750 2122 
L 3750 1706 
z
" transform="scale(0.015625)"/>
     <path id="MalgunGothic-ac00" d="M 5094 2566 
L 5094 -563 
L 4628 -563 
L 4628 5466 
L 5094 5466 
L 5094 2981 
L 6175 2981 
L 6175 2566 
L 5094 2566 
z
M 3609 4928 
Q 3541 2363 897 863 
L 538 1241 
Q 1484 1631 2234 2506 
Q 2984 3381 3109 4513 
L 794 4513 
L 794 4928 
L 3609 4928 
z
" transform="scale(0.015625)"/>
     <path id="MalgunGothic-c0c1" d="M 5125 3391 
L 5125 1991 
L 4659 1991 
L 4659 5466 
L 5125 5466 
L 5125 3816 
L 6034 3816 
L 6034 3391 
L 5125 3391 
z
M 3603 2316 
Q 3206 2528 2778 2934 
Q 2350 3341 2188 3681 
Q 2022 3291 1609 2852 
Q 1197 2413 750 2163 
L 409 2484 
Q 1072 2806 1512 3397 
Q 1953 3988 1953 4628 
L 1953 5259 
L 2400 5259 
L 2400 4628 
Q 2400 4025 2845 3472 
Q 3291 2919 3909 2656 
L 3603 2316 
z
M 3263 -513 
Q 2322 -513 1811 -186 
Q 1300 141 1300 659 
Q 1300 1175 1812 1500 
Q 2325 1825 3263 1825 
Q 4203 1825 4715 1501 
Q 5228 1178 5228 659 
Q 5228 138 4717 -187 
Q 4206 -513 3263 -513 
z
M 3263 1428 
Q 2563 1428 2180 1215 
Q 1797 1003 1797 659 
Q 1797 309 2181 96 
Q 2566 -116 3263 -116 
Q 3969 -116 4353 98 
Q 4738 313 4738 659 
Q 4738 1000 4353 1214 
Q 3969 1428 3263 1428 
z
" transform="scale(0.015625)"/>
     <path id="MalgunGothic-c774" d="M 4947 -563 
L 4947 5466 
L 5416 5466 
L 5416 -563 
L 4947 -563 
z
M 2284 959 
Q 1597 959 1173 1514 
Q 750 2069 750 3016 
Q 750 3975 1169 4522 
Q 1588 5069 2284 5069 
Q 2978 5069 3403 4522 
Q 3828 3975 3828 3016 
Q 3828 2063 3401 1511 
Q 2975 959 2284 959 
z
M 2284 4653 
Q 1803 4653 1503 4204 
Q 1203 3756 1203 3016 
Q 1203 2278 1506 1826 
Q 1809 1375 2284 1375 
Q 2756 1375 3061 1828 
Q 3366 2281 3366 3016 
Q 3366 3759 3067 4206 
Q 2769 4653 2284 4653 
z
" transform="scale(0.015625)"/>
     <path id="MalgunGothic-c6a9" d="M 1900 3378 
Q 1288 3678 1288 4269 
Q 1288 4803 1784 5095 
Q 2281 5388 3200 5388 
Q 4119 5388 4616 5095 
Q 5113 4803 5113 4269 
Q 5113 3669 4494 3378 
L 4494 2522 
L 5997 2522 
L 5997 2106 
L 403 2106 
L 403 2522 
L 1900 2522 
L 1900 3378 
z
M 3200 4991 
Q 1772 4991 1772 4269 
Q 1772 3928 2126 3737 
Q 2481 3547 3200 3547 
Q 3919 3547 4273 3737 
Q 4628 3928 4628 4269 
Q 4628 4991 3200 4991 
z
M 2369 2522 
L 4025 2522 
L 4025 3225 
Q 3678 3150 3200 3150 
Q 2756 3150 2369 3231 
L 2369 2522 
z
M 3200 -531 
Q 2259 -531 1764 -234 
Q 1269 63 1269 581 
Q 1269 1106 1767 1404 
Q 2266 1703 3200 1703 
Q 4134 1703 4632 1404 
Q 5131 1106 5131 581 
Q 5131 63 4636 -234 
Q 4141 -531 3200 -531 
z
M 3200 1306 
Q 2484 1306 2118 1112 
Q 1753 919 1753 581 
Q 1753 244 2117 55 
Q 2481 -134 3200 -134 
Q 3916 -134 4281 55 
Q 4647 244 4647 581 
Q 4647 922 4280 1114 
Q 3913 1306 3200 1306 
z
" transform="scale(0.015625)"/>
     <path id="MalgunGothic-d638" d="M 897 4256 
L 897 4666 
L 2969 4666 
L 2969 5403 
L 3431 5403 
L 3431 4666 
L 5503 4666 
L 5503 4256 
L 897 4256 
z
M 403 359 
L 403 769 
L 2969 769 
L 2969 1656 
Q 2147 1694 1694 2009 
Q 1241 2325 1241 2797 
Q 1241 3294 1748 3616 
Q 2256 3938 3200 3938 
Q 4134 3938 4643 3619 
Q 5153 3300 5153 2797 
Q 5153 2325 4700 2009 
Q 4247 1694 3431 1656 
L 3431 769 
L 5997 769 
L 5997 359 
L 403 359 
z
M 3200 3541 
Q 2484 3541 2109 3337 
Q 1734 3134 1734 2797 
Q 1734 2456 2109 2251 
Q 2484 2047 3200 2047 
Q 3916 2047 4287 2251 
Q 4659 2456 4659 2797 
Q 4659 3134 4286 3337 
Q 3913 3541 3200 3541 
z
" transform="scale(0.015625)"/>
     <path id="MalgunGothic-31" d="M 2231 0 
L 1734 0 
L 1734 3972 
Q 1591 3828 1266 3661 
Q 941 3494 672 3428 
L 672 3959 
Q 1016 4056 1409 4275 
Q 1803 4494 2031 4700 
L 2231 4700 
L 2231 0 
z
" transform="scale(0.015625)"/>
     <path id="MalgunGothic-30" d="M 278 2206 
Q 278 3425 675 4050 
Q 1072 4675 1819 4675 
Q 3253 4675 3253 2319 
Q 3253 1156 2854 539 
Q 2456 -78 1716 -78 
Q 1016 -78 647 520 
Q 278 1119 278 2206 
z
M 784 2231 
Q 784 344 1769 344 
Q 2747 344 2747 2259 
Q 2747 4250 1794 4250 
Q 784 4250 784 2231 
z
" transform="scale(0.015625)"/>
    </defs>
    <use xlink:href="#MalgunGothic-53"/>
    <use xlink:href="#MalgunGothic-6f" transform="translate(54.296875 0)"/>
    <use xlink:href="#MalgunGothic-75" transform="translate(114.208984 0)"/>
    <use xlink:href="#MalgunGothic-72" transform="translate(172.021484 0)"/>
    <use xlink:href="#MalgunGothic-63" transform="translate(205.998047 0)"/>
    <use xlink:href="#MalgunGothic-65" transform="translate(253.263672 0)"/>
    <use xlink:href="#MalgunGothic-3a" transform="translate(306.779297 0)"/>
    <use xlink:href="#MalgunGothic-20" transform="translate(328.654297 0)"/>
    <use xlink:href="#MalgunGothic-d2b9" transform="translate(363.810547 0)"/>
    <use xlink:href="#MalgunGothic-ae08" transform="translate(463.810547 0)"/>
    <use xlink:href="#MalgunGothic-bc95" transform="translate(563.810547 0)"/>
    <use xlink:href="#MalgunGothic-20" transform="translate(663.810547 0)"/>
    <use xlink:href="#MalgunGothic-a7" transform="translate(698.966797 0)"/>
    <use xlink:href="#MalgunGothic-32" transform="translate(744.71875 0)"/>
    <use xlink:href="#MalgunGothic-20" transform="translate(799.796875 0)"/>
    <use xlink:href="#MalgunGothic-b7" transform="translate(834.953125 0)"/>
    <use xlink:href="#MalgunGothic-20" transform="translate(856.828125 0)"/>
    <use xlink:href="#MalgunGothic-a7" transform="translate(891.984375 0)"/>
    <use xlink:href="#MalgunGothic-35" transform="translate(937.736328 0)"/>
    <use xlink:href="#MalgunGothic-c758" transform="translate(992.814453 0)"/>
    <use xlink:href="#MalgunGothic-32" transform="translate(1092.814453 0)"/>
    <use xlink:href="#MalgunGothic-7e" transform="translate(1147.892578 0)"/>
    <use xlink:href="#MalgunGothic-a7" transform="translate(1217.960938 0)"/>
    <use xlink:href="#MalgunGothic-35" transform="translate(1263.712891 0)"/>
    <use xlink:href="#MalgunGothic-c758" transform="translate(1318.791016 0)"/>
    <use xlink:href="#MalgunGothic-34" transform="translate(1418.791016 0)"/>
    <use xlink:href="#MalgunGothic-20" transform="translate(1473.869141 0)"/>
    <use xlink:href="#MalgunGothic-2b" transform="translate(1509.025391 0)"/>
    <use xlink:href="#MalgunGothic-20" transform="translate(1579.09375 0)"/>
    <use xlink:href="#MalgunGothic-ac00" transform="translate(1614.25 0)"/>
    <use xlink:href="#MalgunGothic-c0c1" transform="translate(1714.25 0)"/>
    <use xlink:href="#MalgunGothic-c790" transform="translate(1814.25 0)"/>
    <use xlink:href="#MalgunGothic-c0b0" transform="translate(1914.25 0)"/>
    <use xlink:href="#MalgunGothic-c774" transform="translate(2014.25 0)"/>
    <use xlink:href="#MalgunGothic-c6a9" transform="translate(2114.25 0)"/>
    <use xlink:href="#MalgunGothic-c790" transform="translate(2214.25 0)"/>
    <use xlink:href="#MalgunGothic-bcf4" transform="translate(2314.25 0)"/>
    <use xlink:href="#MalgunGothic-d638" transform="translate(2414.25 0)"/>
    <use xlink:href="#MalgunGothic-bc95" transform="translate(2514.25 0)"/>
    <use xlink:href="#MalgunGothic-20" transform="translate(2614.25 0)"/>
    <use xlink:href="#MalgunGothic-a7" transform="translate(2649.40625 0)"/>
    <use xlink:href="#MalgunGothic-31" transform="translate(2695.158203 0)"/>
    <use xlink:href="#MalgunGothic-30" transform="translate(2750.236328 0)"/>
   </g>
  </g>
 </g>
 <defs>
  <clipPath id="p1e3661fbe7">
   <path d="M 405.816 232.522687 
C 405.816 209.225682 401.226998 186.155211 392.31162 164.631585 
C 383.396242 143.107959 370.32787 123.549758 353.8544 107.076288 
C 337.38093 90.602817 317.822729 77.534445 296.299102 68.619067 
C 274.775476 59.70369 251.705005 55.114687 228.408 55.114687 
C 205.110995 55.114687 182.040524 59.70369 160.516898 68.619067 
C 138.993271 77.534445 119.43507 90.602817 102.9616 107.076288 
C 86.48813 123.549758 73.419758 143.107959 64.50438 164.631585 
C 55.589002 186.155211 51 209.225682 51 232.522687 
C 51 255.819693 55.589002 278.890164 64.50438 300.41379 
C 73.419758 321.937416 86.48813 341.495617 102.9616 357.969087 
C 119.43507 374.442558 138.993271 387.51093 160.516898 396.426308 
C 182.040524 405.341685 205.110995 409.930687 228.408 409.930687 
C 251.705005 409.930687 274.775476 405.341685 296.299102 396.426308 
C 317.822729 387.51093 337.38093 374.442558 353.8544 357.969087 
C 370.32787 341.495617 383.396242 321.937416 392.31162 300.41379 
C 401.226998 278.890164 405.816 255.819693 405.816 232.522687 
M 228.408 232.522687 
C 228.408 232.522687 228.408 232.522687 228.408 232.522687 
C 228.408 232.522687 228.408 232.522687 228.408 232.522687 
C 228.408 232.522687 228.408 232.522687 228.408 232.522687 
C 228.408 232.522687 228.408 232.522687 228.408 232.522687 
C 228.408 232.522687 228.408 232.522687 228.408 232.522687 
C 228.408 232.522687 228.408 232.522687 228.408 232.522687 
C 228.408 232.522687 228.408 232.522687 228.408 232.522687 
C 228.408 232.522687 228.408 232.522687 228.408 232.522687 
C 228.408 232.522687 228.408 232.522687 228.408 232.522687 
C 228.408 232.522687 228.408 232.522687 228.408 232.522687 
C 228.408 232.522687 228.408 232.522687 228.408 232.522687 
C 228.408 232.522687 228.408 232.522687 228.408 232.522687 
C 228.408 232.522687 228.408 232.522687 228.408 232.522687 
C 228.408 232.522687 228.408 232.522687 228.408 232.522687 
C 228.408 232.522687 228.408 232.522687 228.408 232.522687 
C 228.408 232.522687 228.408 232.522687 228.408 232.522687 
z
"/>
  </clipPath>
 </defs>
</svg>
