<?xml version="1.0" encoding="utf-8" standalone="no"?>
<!DOCTYPE svg PUBLIC "-//W3C//DTD SVG 1.1//EN"
  "http://www.w3.org/Graphics/SVG/1.1/DTD/svg11.dtd">
<svg xmlns:xlink="http://www.w3.org/1999/xlink" width="492.62552pt" height="470.058078pt" viewBox="0 0 492.62552 470.058078" xmlns="http://www.w3.org/2000/svg" version="1.1">
 <metadata>
  <rdf:RDF xmlns:dc="http://purl.org/dc/elements/1.1/" xmlns:cc="http://creativecommons.org/ns#" xmlns:rdf="http://www.w3.org/1999/02/22-rdf-syntax-ns#">
   <cc:Work>
    <dc:type rdf:resource="http://purl.org/dc/dcmitype/StillImage"/>
    <dc:date>2026-04-21T10:28:34.622764</dc:date>
    <dc:format>image/svg+xml</dc:format>
    <dc:creator>
     <cc:Agent>
      <dc:title>Matplotlib v3.10.8, https://matplotlib.org/</dc:title>
     </cc:Agent>
    </dc:creator>
   </cc:Work>
  </rdf:RDF>
 </metadata>
 <defs>
  <style type="text/css">*{stroke-linejoin: round; stroke-linecap: butt}</style>
 </defs>
 <g id="figure_1">
  <g id="patch_1">
   <path d="M 0 470.058078 
L 492.62552 470.058078 
L 492.62552 0 
L 0 0 
z
" style="fill: #ffffff"/>
  </g>
  <g id="axes_1">
   <g id="patch_2">
    <path d="M 401.066 231.599562 
C 401.066 208.302557 396.476998 185.232086 387.56162 163.70846 
C 378.646242 142.184834 365.57787 122.626633 349.1044 106.153163 
C 332.63093 89.679692 313.072729 76.61132 291.549102 67.695942 
C 270.025476 58.780565 246.955005 54.191562 223.658 54.191562 
C 200.360995 54.191562 177.290524 58.780565 155.766898 67.695942 
C 134.243271 76.61132 114.68507 89.679692 98.2116 106.153163 
C 81.73813 122.626633 68.669758 142.184834 59.75438 163.70846 
C 50.839002 185.232086 46.25 208.302557 46.25 231.599562 
C 46.25 254.896568 50.839002 277.967039 59.75438 299.490665 
C 68.669758 321.014291 81.73813 340.572492 98.2116 357.045962 
C 114.68507 373.519433 134.243271 386.587805 155.766898 395.503183 
C 177.290524 404.41856 200.360995 409.007562 223.658 409.007562 
C 246.955005 409.007562 270.025476 404.41856 291.549102 395.503183 
C 313.072729 386.587805 332.63093 373.519433 349.1044 357.045962 
C 365.57787 340.572492 378.646242 321.014291 387.56162 299.490665 
C 396.476998 277.967039 401.066 254.896568 401.066 231.599562 
M 223.658 231.599562 
C 223.658 231.599562 223.658 231.599562 223.658 231.599562 
C 223.658 231.599562 223.658 231.599562 223.658 231.599562 
C 223.658 231.599562 223.658 231.599562 223.658 231.599562 
C 223.658 231.599562 223.658 231.599562 223.658 231.599562 
C 223.658 231.599562 223.658 231.599562 223.658 231.599562 
C 223.658 231.599562 223.658 231.599562 223.658 231.599562 
C 223.658 231.599562 223.658 231.599562 223.658 231.599562 
C 223.658 231.599562 223.658 231.599562 223.658 231.599562 
C 223.658 231.599562 223.658 231.599562 223.658 231.599562 
C 223.658 231.599562 223.658 231.599562 223.658 231.599562 
C 223.658 231.599562 223.658 231.599562 223.658 231.599562 
C 223.658 231.599562 223.658 231.599562 223.658 231.599562 
C 223.658 231.599562 223.658 231.599562 223.658 231.599562 
C 223.658 231.599562 223.658 231.599562 223.658 231.599562 
C 223.658 231.599562 223.658 231.599562 223.658 231.599562 
C 223.658 231.599562 223.658 231.599562 223.658 231.599562 
z
" style="fill: #ffffff"/>
   </g>
   <g id="matplotlib.axis_1">
    <g id="xtick_1">
     <g id="line2d_1">
      <path d="M 223.658 231.599562 
L 401.066 231.599562 
" clip-path="url(#p4476b3561b)" style="fill: none; stroke: #d8dbe0; stroke-width: 0.6; stroke-linecap: round"/>
     </g>
     <g id="text_1">
      <!-- KYC -->
      <g style="fill: #111418" transform="translate(405.298813 234.055461) scale(0.095 -0.095)">
       <defs>
        <path id="ArialMT-4b" d="M 469 0 
L 469 4581 
L 1075 4581 
L 1075 2309 
L 3350 4581 
L 4172 4581 
L 2250 2725 
L 4256 0 
L 3456 0 
L 1825 2319 
L 1075 1588 
L 1075 0 
L 469 0 
z
" transform="scale(0.015625)"/>
        <path id="ArialMT-59" d="M 1784 0 
L 1784 1941 
L 19 4581 
L 756 4581 
L 1659 3200 
Q 1909 2813 2125 2425 
Q 2331 2784 2625 3234 
L 3513 4581 
L 4219 4581 
L 2391 1941 
L 2391 0 
L 1784 0 
z
" transform="scale(0.015625)"/>
        <path id="ArialMT-43" d="M 3763 1606 
L 4369 1453 
Q 4178 706 3683 314 
Q 3188 -78 2472 -78 
Q 1731 -78 1267 223 
Q 803 525 561 1097 
Q 319 1669 319 2325 
Q 319 3041 592 3573 
Q 866 4106 1370 4382 
Q 1875 4659 2481 4659 
Q 3169 4659 3637 4309 
Q 4106 3959 4291 3325 
L 3694 3184 
Q 3534 3684 3231 3912 
Q 2928 4141 2469 4141 
Q 1941 4141 1586 3887 
Q 1231 3634 1087 3207 
Q 944 2781 944 2328 
Q 944 1744 1114 1308 
Q 1284 872 1643 656 
Q 2003 441 2422 441 
Q 2931 441 3284 734 
Q 3638 1028 3763 1606 
z
" transform="scale(0.015625)"/>
       </defs>
       <use xlink:href="#ArialMT-4b"/>
       <use xlink:href="#ArialMT-59" transform="translate(66.699219 0)"/>
       <use xlink:href="#ArialMT-43" transform="translate(133.398438 0)"/>
      </g>
     </g>
    </g>
    <g id="xtick_2">
     <g id="line2d_2">
      <path d="M 223.658 231.599562 
L 312.362 77.959728 
" clip-path="url(#p4476b3561b)" style="fill: none; stroke: #d8dbe0; stroke-width: 0.6; stroke-linecap: round"/>
     </g>
     <g id="text_2">
      <!-- KYT -->
      <g style="fill: #111418" transform="translate(310.123992 68.29127) scale(0.095 -0.095)">
       <defs>
        <path id="ArialMT-54" d="M 1659 0 
L 1659 4041 
L 150 4041 
L 150 4581 
L 3781 4581 
L 3781 4041 
L 2266 4041 
L 2266 0 
L 1659 0 
z
" transform="scale(0.015625)"/>
       </defs>
       <use xlink:href="#ArialMT-4b"/>
       <use xlink:href="#ArialMT-59" transform="translate(66.699219 0)"/>
       <use xlink:href="#ArialMT-54" transform="translate(133.398438 0)"/>
      </g>
     </g>
    </g>
    <g id="xtick_3">
     <g id="line2d_3">
      <path d="M 223.658 231.599562 
L 134.954 77.959728 
" clip-path="url(#p4476b3561b)" style="fill: none; stroke: #d8dbe0; stroke-width: 0.6; stroke-linecap: round"/>
     </g>
     <g id="text_3">
      <!-- Travel -->
      <g style="fill: #111418" transform="translate(114.936031 63.267255) scale(0.095 -0.095)">
       <defs>
        <path id="ArialMT-72" d="M 416 0 
L 416 3319 
L 922 3319 
L 922 2816 
Q 1116 3169 1280 3281 
Q 1444 3394 1641 3394 
Q 1925 3394 2219 3213 
L 2025 2691 
Q 1819 2813 1613 2813 
Q 1428 2813 1281 2702 
Q 1134 2591 1072 2394 
Q 978 2094 978 1738 
L 978 0 
L 416 0 
z
" transform="scale(0.015625)"/>
        <path id="ArialMT-61" d="M 2588 409 
Q 2275 144 1986 34 
Q 1697 -75 1366 -75 
Q 819 -75 525 192 
Q 231 459 231 875 
Q 231 1119 342 1320 
Q 453 1522 633 1644 
Q 813 1766 1038 1828 
Q 1203 1872 1538 1913 
Q 2219 1994 2541 2106 
Q 2544 2222 2544 2253 
Q 2544 2597 2384 2738 
Q 2169 2928 1744 2928 
Q 1347 2928 1158 2789 
Q 969 2650 878 2297 
L 328 2372 
Q 403 2725 575 2942 
Q 747 3159 1072 3276 
Q 1397 3394 1825 3394 
Q 2250 3394 2515 3294 
Q 2781 3194 2906 3042 
Q 3031 2891 3081 2659 
Q 3109 2516 3109 2141 
L 3109 1391 
Q 3109 606 3145 398 
Q 3181 191 3288 0 
L 2700 0 
Q 2613 175 2588 409 
z
M 2541 1666 
Q 2234 1541 1622 1453 
Q 1275 1403 1131 1340 
Q 988 1278 909 1158 
Q 831 1038 831 891 
Q 831 666 1001 516 
Q 1172 366 1500 366 
Q 1825 366 2078 508 
Q 2331 650 2450 897 
Q 2541 1088 2541 1459 
L 2541 1666 
z
" transform="scale(0.015625)"/>
        <path id="ArialMT-76" d="M 1344 0 
L 81 3319 
L 675 3319 
L 1388 1331 
Q 1503 1009 1600 663 
Q 1675 925 1809 1294 
L 2547 3319 
L 3125 3319 
L 1869 0 
L 1344 0 
z
" transform="scale(0.015625)"/>
        <path id="ArialMT-65" d="M 2694 1069 
L 3275 997 
Q 3138 488 2766 206 
Q 2394 -75 1816 -75 
Q 1088 -75 661 373 
Q 234 822 234 1631 
Q 234 2469 665 2931 
Q 1097 3394 1784 3394 
Q 2450 3394 2872 2941 
Q 3294 2488 3294 1666 
Q 3294 1616 3291 1516 
L 816 1516 
Q 847 969 1125 678 
Q 1403 388 1819 388 
Q 2128 388 2347 550 
Q 2566 713 2694 1069 
z
M 847 1978 
L 2700 1978 
Q 2663 2397 2488 2606 
Q 2219 2931 1791 2931 
Q 1403 2931 1139 2672 
Q 875 2413 847 1978 
z
" transform="scale(0.015625)"/>
        <path id="ArialMT-6c" d="M 409 0 
L 409 4581 
L 972 4581 
L 972 0 
L 409 0 
z
" transform="scale(0.015625)"/>
       </defs>
       <use xlink:href="#ArialMT-54"/>
       <use xlink:href="#ArialMT-72" transform="translate(57.333984 0)"/>
       <use xlink:href="#ArialMT-61" transform="translate(90.634766 0)"/>
       <use xlink:href="#ArialMT-76" transform="translate(146.25 0)"/>
       <use xlink:href="#ArialMT-65" transform="translate(196.25 0)"/>
       <use xlink:href="#ArialMT-6c" transform="translate(251.865234 0)"/>
      </g>
      <!-- Rule -->
      <g style="fill: #111418" transform="translate(118.185328 73.315286) scale(0.095 -0.095)">
       <defs>
        <path id="ArialMT-52" d="M 503 0 
L 503 4581 
L 2534 4581 
Q 3147 4581 3465 4457 
Q 3784 4334 3975 4021 
Q 4166 3709 4166 3331 
Q 4166 2844 3850 2509 
Q 3534 2175 2875 2084 
Q 3116 1969 3241 1856 
Q 3506 1613 3744 1247 
L 4541 0 
L 3778 0 
L 3172 953 
Q 2906 1366 2734 1584 
Q 2563 1803 2427 1890 
Q 2291 1978 2150 2013 
Q 2047 2034 1813 2034 
L 1109 2034 
L 1109 0 
L 503 0 
z
M 1109 2559 
L 2413 2559 
Q 2828 2559 3062 2645 
Q 3297 2731 3419 2920 
Q 3541 3109 3541 3331 
Q 3541 3656 3305 3865 
Q 3069 4075 2559 4075 
L 1109 4075 
L 1109 2559 
z
" transform="scale(0.015625)"/>
        <path id="ArialMT-75" d="M 2597 0 
L 2597 488 
Q 2209 -75 1544 -75 
Q 1250 -75 995 37 
Q 741 150 617 320 
Q 494 491 444 738 
Q 409 903 409 1263 
L 409 3319 
L 972 3319 
L 972 1478 
Q 972 1038 1006 884 
Q 1059 663 1231 536 
Q 1403 409 1656 409 
Q 1909 409 2131 539 
Q 2353 669 2445 892 
Q 2538 1116 2538 1541 
L 2538 3319 
L 3100 3319 
L 3100 0 
L 2597 0 
z
" transform="scale(0.015625)"/>
       </defs>
       <use xlink:href="#ArialMT-52"/>
       <use xlink:href="#ArialMT-75" transform="translate(72.216797 0)"/>
       <use xlink:href="#ArialMT-6c" transform="translate(127.832031 0)"/>
       <use xlink:href="#ArialMT-65" transform="translate(150.048828 0)"/>
      </g>
     </g>
    </g>
    <g id="xtick_4">
     <g id="line2d_4">
      <path d="M 223.658 231.599562 
L 46.25 231.599562 
" clip-path="url(#p4476b3561b)" style="fill: none; stroke: #d8dbe0; stroke-width: 0.6; stroke-linecap: round"/>
     </g>
     <g id="text_4">
      <!-- 제재 -->
      <g style="fill: #111418" transform="translate(25.125 229.031445) scale(0.095 -0.095)">
       <defs>
        <path id="ArialMT-c81c" d="M 800 0 
L 800 4000 
L 4000 4000 
L 4000 0 
L 800 0 
z
M 900 100 
L 3900 100 
L 3900 3900 
L 900 3900 
L 900 100 
z
" transform="scale(0.015625)"/>
        <path id="ArialMT-c7ac" d="M 800 0 
L 800 4000 
L 4000 4000 
L 4000 0 
L 800 0 
z
M 900 100 
L 3900 100 
L 3900 3900 
L 900 3900 
L 900 100 
z
" transform="scale(0.015625)"/>
       </defs>
       <use xlink:href="#ArialMT-c81c"/>
       <use xlink:href="#ArialMT-c7ac" transform="translate(75 0)"/>
      </g>
      <!-- 스크리닝 -->
      <g style="fill: #111418" transform="translate(18 239.079477) scale(0.095 -0.095)">
       <defs>
        <path id="ArialMT-c2a4" d="M 800 0 
L 800 4000 
L 4000 4000 
L 4000 0 
L 800 0 
z
M 900 100 
L 3900 100 
L 3900 3900 
L 900 3900 
L 900 100 
z
" transform="scale(0.015625)"/>
        <path id="ArialMT-d06c" d="M 800 0 
L 800 4000 
L 4000 4000 
L 4000 0 
L 800 0 
z
M 900 100 
L 3900 100 
L 3900 3900 
L 900 3900 
L 900 100 
z
" transform="scale(0.015625)"/>
        <path id="ArialMT-b9ac" d="M 800 0 
L 800 4000 
L 4000 4000 
L 4000 0 
L 800 0 
z
M 900 100 
L 3900 100 
L 3900 3900 
L 900 3900 
L 900 100 
z
" transform="scale(0.015625)"/>
        <path id="ArialMT-b2dd" d="M 800 0 
L 800 4000 
L 4000 4000 
L 4000 0 
L 800 0 
z
M 900 100 
L 3900 100 
L 3900 3900 
L 900 3900 
L 900 100 
z
" transform="scale(0.015625)"/>
       </defs>
       <use xlink:href="#ArialMT-c2a4"/>
       <use xlink:href="#ArialMT-d06c" transform="translate(75 0)"/>
       <use xlink:href="#ArialMT-b9ac" transform="translate(150 0)"/>
       <use xlink:href="#ArialMT-b2dd" transform="translate(225 0)"/>
      </g>
     </g>
    </g>
    <g id="xtick_5">
     <g id="line2d_5">
      <path d="M 223.658 231.599562 
L 134.954 385.239397 
" clip-path="url(#p4476b3561b)" style="fill: none; stroke: #d8dbe0; stroke-width: 0.6; stroke-linecap: round"/>
     </g>
     <g id="text_5">
      <!-- 자산 -->
      <g style="fill: #111418" transform="translate(120.829 394.795636) scale(0.095 -0.095)">
       <defs>
        <path id="ArialMT-c790" d="M 800 0 
L 800 4000 
L 4000 4000 
L 4000 0 
L 800 0 
z
M 900 100 
L 3900 100 
L 3900 3900 
L 900 3900 
L 900 100 
z
" transform="scale(0.015625)"/>
        <path id="ArialMT-c0b0" d="M 800 0 
L 800 4000 
L 4000 4000 
L 4000 0 
L 800 0 
z
M 900 100 
L 3900 100 
L 3900 3900 
L 900 3900 
L 900 100 
z
" transform="scale(0.015625)"/>
       </defs>
       <use xlink:href="#ArialMT-c790"/>
       <use xlink:href="#ArialMT-c0b0" transform="translate(75 0)"/>
      </g>
      <!-- 분리보관 -->
      <g style="fill: #111418" transform="translate(113.704 404.843667) scale(0.095 -0.095)">
       <defs>
        <path id="ArialMT-bd84" d="M 800 0 
L 800 4000 
L 4000 4000 
L 4000 0 
L 800 0 
z
M 900 100 
L 3900 100 
L 3900 3900 
L 900 3900 
L 900 100 
z
" transform="scale(0.015625)"/>
        <path id="ArialMT-bcf4" d="M 800 0 
L 800 4000 
L 4000 4000 
L 4000 0 
L 800 0 
z
M 900 100 
L 3900 100 
L 3900 3900 
L 900 3900 
L 900 100 
z
" transform="scale(0.015625)"/>
        <path id="ArialMT-ad00" d="M 800 0 
L 800 4000 
L 4000 4000 
L 4000 0 
L 800 0 
z
M 900 100 
L 3900 100 
L 3900 3900 
L 900 3900 
L 900 100 
z
" transform="scale(0.015625)"/>
       </defs>
       <use xlink:href="#ArialMT-bd84"/>
       <use xlink:href="#ArialMT-b9ac" transform="translate(75 0)"/>
       <use xlink:href="#ArialMT-bcf4" transform="translate(150 0)"/>
       <use xlink:href="#ArialMT-ad00" transform="translate(225 0)"/>
      </g>
     </g>
    </g>
    <g id="xtick_6">
     <g id="line2d_6">
      <path d="M 223.658 231.599562 
L 312.362 385.239397 
" clip-path="url(#p4476b3561b)" style="fill: none; stroke: #d8dbe0; stroke-width: 0.6; stroke-linecap: round"/>
     </g>
     <g id="text_6">
      <!-- STR -->
      <g style="fill: #111418" transform="translate(309.862 399.819651) scale(0.095 -0.095)">
       <defs>
        <path id="ArialMT-53" d="M 288 1472 
L 859 1522 
Q 900 1178 1048 958 
Q 1197 738 1509 602 
Q 1822 466 2213 466 
Q 2559 466 2825 569 
Q 3091 672 3220 851 
Q 3350 1031 3350 1244 
Q 3350 1459 3225 1620 
Q 3100 1781 2813 1891 
Q 2628 1963 1997 2114 
Q 1366 2266 1113 2400 
Q 784 2572 623 2826 
Q 463 3081 463 3397 
Q 463 3744 659 4045 
Q 856 4347 1234 4503 
Q 1613 4659 2075 4659 
Q 2584 4659 2973 4495 
Q 3363 4331 3572 4012 
Q 3781 3694 3797 3291 
L 3216 3247 
Q 3169 3681 2898 3903 
Q 2628 4125 2100 4125 
Q 1550 4125 1298 3923 
Q 1047 3722 1047 3438 
Q 1047 3191 1225 3031 
Q 1400 2872 2139 2705 
Q 2878 2538 3153 2413 
Q 3553 2228 3743 1945 
Q 3934 1663 3934 1294 
Q 3934 928 3725 604 
Q 3516 281 3123 101 
Q 2731 -78 2241 -78 
Q 1619 -78 1198 103 
Q 778 284 539 648 
Q 300 1013 288 1472 
z
" transform="scale(0.015625)"/>
       </defs>
       <use xlink:href="#ArialMT-53"/>
       <use xlink:href="#ArialMT-54" transform="translate(66.699219 0)"/>
       <use xlink:href="#ArialMT-52" transform="translate(127.783203 0)"/>
      </g>
     </g>
    </g>
   </g>
   <g id="matplotlib.axis_2">
    <g id="ytick_1">
     <g id="line2d_7">
      <path d="M 279.098 231.599562 
C 279.098 224.319248 277.663937 217.109726 274.877881 210.383593 
C 272.091826 203.65746 268.007959 197.545522 262.86 192.397563 
C 257.71204 187.249603 251.600103 183.165737 244.873969 180.379681 
C 238.147836 177.593626 230.938314 176.159562 223.658 176.159562 
C 216.377686 176.159562 209.168164 177.593626 202.442031 180.379681 
C 195.715897 183.165737 189.60396 187.249603 184.456 192.397563 
C 179.308041 197.545522 175.224174 203.65746 172.438119 210.383593 
C 169.652063 217.109726 168.218 224.319248 168.218 231.599562 
C 168.218 238.879877 169.652063 246.089399 172.438119 252.815532 
C 175.224174 259.541665 179.308041 265.653603 184.456 270.801562 
C 189.60396 275.949522 195.715897 280.033388 202.442031 282.819444 
C 209.168164 285.605499 216.377686 287.039562 223.658 287.039562 
C 230.938314 287.039562 238.147836 285.605499 244.873969 282.819444 
C 251.600103 280.033388 257.71204 275.949522 262.86 270.801562 
C 268.007959 265.653603 272.091826 259.541665 274.877881 252.815532 
C 277.663937 246.089399 279.098 238.879877 279.098 231.599562 
" clip-path="url(#p4476b3561b)" style="fill: none; stroke: #d8dbe0; stroke-width: 0.6; stroke-linecap: round"/>
     </g>
     <g id="text_7">
      <!-- 약 -->
      <g style="fill: #6b7280" transform="translate(223.658 174.569562) scale(0.08 -0.08)">
       <defs>
        <path id="ArialMT-c57d" d="M 800 0 
L 800 4000 
L 4000 4000 
L 4000 0 
L 800 0 
z
M 900 100 
L 3900 100 
L 3900 3900 
L 900 3900 
L 900 100 
z
" transform="scale(0.015625)"/>
       </defs>
       <use xlink:href="#ArialMT-c57d"/>
      </g>
     </g>
    </g>
    <g id="ytick_2">
     <g id="line2d_8">
      <path d="M 334.538 231.599562 
C 334.538 217.038934 331.669874 202.61989 326.097763 189.167624 
C 320.525651 175.715357 312.357919 163.491482 302.062 153.195563 
C 291.766081 142.899644 279.542205 134.731911 266.089939 129.1598 
C 252.637673 123.587689 238.218628 120.719562 223.658 120.719562 
C 209.097372 120.719562 194.678327 123.587689 181.226061 129.1598 
C 167.773795 134.731911 155.549919 142.899644 145.254 153.195563 
C 134.958081 163.491482 126.790349 175.715357 121.218237 189.167624 
C 115.646126 202.61989 112.778 217.038934 112.778 231.599562 
C 112.778 246.160191 115.646126 260.579235 121.218237 274.031501 
C 126.790349 287.483768 134.958081 299.707643 145.254 310.003562 
C 155.549919 320.299481 167.773795 328.467214 181.226061 334.039325 
C 194.678327 339.611436 209.097372 342.479562 223.658 342.479562 
C 238.218628 342.479562 252.637673 339.611436 266.089939 334.039325 
C 279.542205 328.467214 291.766081 320.299481 302.062 310.003562 
C 312.357919 299.707643 320.525651 287.483768 326.097763 274.031501 
C 331.669874 260.579235 334.538 246.160191 334.538 231.599562 
" clip-path="url(#p4476b3561b)" style="fill: none; stroke: #d8dbe0; stroke-width: 0.6; stroke-linecap: round"/>
     </g>
     <g id="text_8">
      <!-- 중 -->
      <g style="fill: #6b7280" transform="translate(223.658 119.129562) scale(0.08 -0.08)">
       <defs>
        <path id="ArialMT-c911" d="M 800 0 
L 800 4000 
L 4000 4000 
L 4000 0 
L 800 0 
z
M 900 100 
L 3900 100 
L 3900 3900 
L 900 3900 
L 900 100 
z
" transform="scale(0.015625)"/>
       </defs>
       <use xlink:href="#ArialMT-c911"/>
      </g>
     </g>
    </g>
    <g id="ytick_3">
     <g id="line2d_9">
      <path d="M 389.978 231.599562 
C 389.978 209.75862 385.675811 188.130054 377.317644 167.951654 
C 368.959477 147.773254 356.707878 129.437441 341.264 113.993563 
C 325.820121 98.549684 307.484308 86.298085 287.305908 77.939919 
C 267.127509 69.581752 245.498942 65.279562 223.658 65.279562 
C 201.817058 65.279562 180.188491 69.581752 160.010092 77.939919 
C 139.831692 86.298085 121.495879 98.549684 106.052 113.993563 
C 90.608122 129.437441 78.356523 147.773254 69.998356 167.951654 
C 61.640189 188.130054 57.338 209.75862 57.338 231.599562 
C 57.338 253.440505 61.640189 275.069071 69.998356 295.247471 
C 78.356523 315.425871 90.608122 333.761684 106.052 349.205562 
C 121.495879 364.649441 139.831692 376.90104 160.010092 385.259206 
C 180.188491 393.617373 201.817058 397.919562 223.658 397.919562 
C 245.498942 397.919562 267.127509 393.617373 287.305908 385.259206 
C 307.484308 376.90104 325.820121 364.649441 341.264 349.205562 
C 356.707878 333.761684 368.959477 315.425871 377.317644 295.247471 
C 385.675811 275.069071 389.978 253.440505 389.978 231.599562 
" clip-path="url(#p4476b3561b)" style="fill: none; stroke: #d8dbe0; stroke-width: 0.6; stroke-linecap: round"/>
     </g>
     <g id="text_9">
      <!-- 강 -->
      <g style="fill: #6b7280" transform="translate(223.658 63.689562) scale(0.08 -0.08)">
       <defs>
        <path id="ArialMT-ac15" d="M 800 0 
L 800 4000 
L 4000 4000 
L 4000 0 
L 800 0 
z
M 900 100 
L 3900 100 
L 3900 3900 
L 900 3900 
L 900 100 
z
" transform="scale(0.015625)"/>
       </defs>
       <use xlink:href="#ArialMT-ac15"/>
      </g>
     </g>
    </g>
   </g>
   <g id="patch_3">
    <path d="M 389.978 231.599562 
L 306.818 87.562217 
L 140.498 87.562217 
L 57.338 231.599562 
L 140.498 375.636908 
L 306.818 375.636908 
z
" clip-path="url(#p4476b3561b)" style="fill: #1a2e4a; opacity: 0.12; stroke: #1a2e4a; stroke-linejoin: miter"/>
   </g>
   <g id="patch_4">
    <path d="M 389.978 231.599562 
L 279.098 135.574666 
L 168.218 135.574666 
L 112.778 231.599562 
L 140.498 375.636908 
L 279.098 327.624459 
z
" clip-path="url(#p4476b3561b)" style="fill: #c9a646; opacity: 0.12; stroke: #c9a646; stroke-linejoin: miter"/>
   </g>
   <g id="patch_5">
    <path d="M 389.978 231.599562 
L 279.098 135.574666 
L 140.498 87.562217 
L 112.778 231.599562 
L 195.938 279.612011 
L 306.818 375.636908 
z
" clip-path="url(#p4476b3561b)" style="fill: #4a5f7e; opacity: 0.12; stroke: #4a5f7e; stroke-linejoin: miter"/>
   </g>
   <g id="patch_6">
    <path d="M 334.538 231.599562 
L 279.098 135.574666 
L 195.938 183.587114 
L 112.778 231.599562 
L 195.938 279.612011 
L 279.098 327.624459 
z
" clip-path="url(#p4476b3561b)" style="fill: #7e8ba4; opacity: 0.12; stroke: #7e8ba4; stroke-linejoin: miter"/>
   </g>
   <g id="line2d_10">
    <path d="M 389.978 231.599562 
L 306.818 87.562217 
L 140.498 87.562217 
L 57.338 231.599562 
L 140.498 375.636908 
L 306.818 375.636908 
L 389.978 231.599562 
" clip-path="url(#p4476b3561b)" style="fill: none; stroke: #1a2e4a; stroke-width: 1.8; stroke-linecap: round"/>
   </g>
   <g id="line2d_11">
    <path d="M 389.978 231.599562 
L 279.098 135.574666 
L 168.218 135.574666 
L 112.778 231.599562 
L 140.498 375.636908 
L 279.098 327.624459 
L 389.978 231.599562 
" clip-path="url(#p4476b3561b)" style="fill: none; stroke: #c9a646; stroke-width: 1.8; stroke-linecap: round"/>
   </g>
   <g id="line2d_12">
    <path d="M 389.978 231.599562 
L 279.098 135.574666 
L 140.498 87.562217 
L 112.778 231.599562 
L 195.938 279.612011 
L 306.818 375.636908 
L 389.978 231.599562 
" clip-path="url(#p4476b3561b)" style="fill: none; stroke: #4a5f7e; stroke-width: 1.8; stroke-linecap: round"/>
   </g>
   <g id="line2d_13">
    <path d="M 334.538 231.599562 
L 279.098 135.574666 
L 195.938 183.587114 
L 112.778 231.599562 
L 195.938 279.612011 
L 279.098 327.624459 
L 334.538 231.599562 
" clip-path="url(#p4476b3561b)" style="fill: none; stroke: #7e8ba4; stroke-width: 1.8; stroke-linecap: round"/>
   </g>
   <g id="patch_7">
    <path d="M 401.066 231.599562 
C 401.066 208.302557 396.476998 185.232086 387.56162 163.70846 
C 378.646242 142.184834 365.57787 122.626633 349.1044 106.153163 
C 332.63093 89.679692 313.072729 76.61132 291.549102 67.695942 
C 270.025476 58.780565 246.955005 54.191562 223.658 54.191562 
C 200.360995 54.191562 177.290524 58.780565 155.766898 67.695942 
C 134.243271 76.61132 114.68507 89.679692 98.2116 106.153163 
C 81.73813 122.626633 68.669758 142.184834 59.75438 163.70846 
C 50.839002 185.232086 46.25 208.302557 46.25 231.599562 
C 46.25 254.896568 50.839002 277.967039 59.75438 299.490665 
C 68.669758 321.014291 81.73813 340.572492 98.2116 357.045962 
C 114.68507 373.519433 134.243271 386.587805 155.766898 395.503183 
C 177.290524 404.41856 200.360995 409.007562 223.658 409.007562 
C 246.955005 409.007562 270.025476 404.41856 291.549102 395.503183 
C 313.072729 386.587805 332.63093 373.519433 349.1044 357.045962 
C 365.57787 340.572492 378.646242 321.014291 387.56162 299.490665 
C 396.476998 277.967039 401.066 254.896568 401.066 231.599562 
" style="fill: none; stroke: #d8dbe0; stroke-width: 0.8; stroke-linejoin: miter; stroke-linecap: square"/>
   </g>
   <g id="text_10">
    <!-- 사업 유형별 VASP 의무 강도 (RBA) -->
    <g style="fill: #111418" transform="translate(128.432844 28.191562) scale(0.14 -0.14)">
     <defs>
      <path id="Arial-BoldMT-c0ac" d="M 800 0 
L 800 4000 
L 4000 4000 
L 4000 0 
L 800 0 
z
M 900 100 
L 3900 100 
L 3900 3900 
L 900 3900 
L 900 100 
z
" transform="scale(0.015625)"/>
      <path id="Arial-BoldMT-c5c5" d="M 800 0 
L 800 4000 
L 4000 4000 
L 4000 0 
L 800 0 
z
M 900 100 
L 3900 100 
L 3900 3900 
L 900 3900 
L 900 100 
z
" transform="scale(0.015625)"/>
      <path id="Arial-BoldMT-20" transform="scale(0.015625)"/>
      <path id="Arial-BoldMT-c720" d="M 800 0 
L 800 4000 
L 4000 4000 
L 4000 0 
L 800 0 
z
M 900 100 
L 3900 100 
L 3900 3900 
L 900 3900 
L 900 100 
z
" transform="scale(0.015625)"/>
      <path id="Arial-BoldMT-d615" d="M 800 0 
L 800 4000 
L 4000 4000 
L 4000 0 
L 800 0 
z
M 900 100 
L 3900 100 
L 3900 3900 
L 900 3900 
L 900 100 
z
" transform="scale(0.015625)"/>
      <path id="Arial-BoldMT-bcc4" d="M 800 0 
L 800 4000 
L 4000 4000 
L 4000 0 
L 800 0 
z
M 900 100 
L 3900 100 
L 3900 3900 
L 900 3900 
L 900 100 
z
" transform="scale(0.015625)"/>
      <path id="Arial-BoldMT-56" d="M 1634 0 
L -3 4581 
L 1000 4581 
L 2159 1191 
L 3281 4581 
L 4263 4581 
L 2622 0 
L 1634 0 
z
" transform="scale(0.015625)"/>
      <path id="Arial-BoldMT-41" d="M 4597 0 
L 3591 0 
L 3191 1041 
L 1359 1041 
L 981 0 
L 0 0 
L 1784 4581 
L 2763 4581 
L 4597 0 
z
M 2894 1813 
L 2263 3513 
L 1644 1813 
L 2894 1813 
z
" transform="scale(0.015625)"/>
      <path id="Arial-BoldMT-53" d="M 231 1491 
L 1131 1578 
Q 1213 1125 1461 912 
Q 1709 700 2131 700 
Q 2578 700 2804 889 
Q 3031 1078 3031 1331 
Q 3031 1494 2936 1608 
Q 2841 1722 2603 1806 
Q 2441 1863 1863 2006 
Q 1119 2191 819 2459 
Q 397 2838 397 3381 
Q 397 3731 595 4036 
Q 794 4341 1167 4500 
Q 1541 4659 2069 4659 
Q 2931 4659 3367 4281 
Q 3803 3903 3825 3272 
L 2900 3231 
Q 2841 3584 2645 3739 
Q 2450 3894 2059 3894 
Q 1656 3894 1428 3728 
Q 1281 3622 1281 3444 
Q 1281 3281 1419 3166 
Q 1594 3019 2269 2859 
Q 2944 2700 3267 2529 
Q 3591 2359 3773 2064 
Q 3956 1769 3956 1334 
Q 3956 941 3737 597 
Q 3519 253 3119 86 
Q 2719 -81 2122 -81 
Q 1253 -81 787 320 
Q 322 722 231 1491 
z
" transform="scale(0.015625)"/>
      <path id="Arial-BoldMT-50" d="M 466 0 
L 466 4581 
L 1950 4581 
Q 2794 4581 3050 4513 
Q 3444 4409 3709 4064 
Q 3975 3719 3975 3172 
Q 3975 2750 3822 2462 
Q 3669 2175 3433 2011 
Q 3197 1847 2953 1794 
Q 2622 1728 1994 1728 
L 1391 1728 
L 1391 0 
L 466 0 
z
M 1391 3806 
L 1391 2506 
L 1897 2506 
Q 2444 2506 2628 2578 
Q 2813 2650 2917 2803 
Q 3022 2956 3022 3159 
Q 3022 3409 2875 3571 
Q 2728 3734 2503 3775 
Q 2338 3806 1838 3806 
L 1391 3806 
z
" transform="scale(0.015625)"/>
      <path id="Arial-BoldMT-c758" d="M 800 0 
L 800 4000 
L 4000 4000 
L 4000 0 
L 800 0 
z
M 900 100 
L 3900 100 
L 3900 3900 
L 900 3900 
L 900 100 
z
" transform="scale(0.015625)"/>
      <path id="Arial-BoldMT-bb34" d="M 800 0 
L 800 4000 
L 4000 4000 
L 4000 0 
L 800 0 
z
M 900 100 
L 3900 100 
L 3900 3900 
L 900 3900 
L 900 100 
z
" transform="scale(0.015625)"/>
      <path id="Arial-BoldMT-ac15" d="M 800 0 
L 800 4000 
L 4000 4000 
L 4000 0 
L 800 0 
z
M 900 100 
L 3900 100 
L 3900 3900 
L 900 3900 
L 900 100 
z
" transform="scale(0.015625)"/>
      <path id="Arial-BoldMT-b3c4" d="M 800 0 
L 800 4000 
L 4000 4000 
L 4000 0 
L 800 0 
z
M 900 100 
L 3900 100 
L 3900 3900 
L 900 3900 
L 900 100 
z
" transform="scale(0.015625)"/>
      <path id="Arial-BoldMT-28" d="M 1916 -1347 
L 1313 -1347 
Q 834 -625 584 153 
Q 334 931 334 1659 
Q 334 2563 644 3369 
Q 913 4069 1325 4659 
L 1925 4659 
Q 1497 3713 1336 3048 
Q 1175 2384 1175 1641 
Q 1175 1128 1270 590 
Q 1366 53 1531 -431 
Q 1641 -750 1916 -1347 
z
" transform="scale(0.015625)"/>
      <path id="Arial-BoldMT-52" d="M 469 0 
L 469 4581 
L 2416 4581 
Q 3150 4581 3483 4457 
Q 3816 4334 4016 4018 
Q 4216 3703 4216 3297 
Q 4216 2781 3912 2445 
Q 3609 2109 3006 2022 
Q 3306 1847 3501 1637 
Q 3697 1428 4028 894 
L 4588 0 
L 3481 0 
L 2813 997 
Q 2456 1531 2325 1670 
Q 2194 1809 2047 1861 
Q 1900 1913 1581 1913 
L 1394 1913 
L 1394 0 
L 469 0 
z
M 1394 2644 
L 2078 2644 
Q 2744 2644 2909 2700 
Q 3075 2756 3169 2893 
Q 3263 3031 3263 3238 
Q 3263 3469 3139 3611 
Q 3016 3753 2791 3791 
Q 2678 3806 2116 3806 
L 1394 3806 
L 1394 2644 
z
" transform="scale(0.015625)"/>
      <path id="Arial-BoldMT-42" d="M 469 4581 
L 2300 4581 
Q 2844 4581 3111 4536 
Q 3378 4491 3589 4347 
Q 3800 4203 3940 3964 
Q 4081 3725 4081 3428 
Q 4081 3106 3907 2837 
Q 3734 2569 3438 2434 
Q 3856 2313 4081 2019 
Q 4306 1725 4306 1328 
Q 4306 1016 4161 720 
Q 4016 425 3764 248 
Q 3513 72 3144 31 
Q 2913 6 2028 0 
L 469 0 
L 469 4581 
z
M 1394 3819 
L 1394 2759 
L 2000 2759 
Q 2541 2759 2672 2775 
Q 2909 2803 3045 2939 
Q 3181 3075 3181 3297 
Q 3181 3509 3064 3642 
Q 2947 3775 2716 3803 
Q 2578 3819 1925 3819 
L 1394 3819 
z
M 1394 1997 
L 1394 772 
L 2250 772 
Q 2750 772 2884 800 
Q 3091 838 3220 983 
Q 3350 1128 3350 1372 
Q 3350 1578 3250 1722 
Q 3150 1866 2961 1931 
Q 2772 1997 2141 1997 
L 1394 1997 
z
" transform="scale(0.015625)"/>
      <path id="Arial-BoldMT-29" d="M 216 -1347 
Q 475 -791 581 -494 
Q 688 -197 778 190 
Q 869 578 912 926 
Q 956 1275 956 1641 
Q 956 2384 797 3048 
Q 638 3713 209 4659 
L 806 4659 
Q 1278 3988 1539 3234 
Q 1800 2481 1800 1706 
Q 1800 1053 1594 306 
Q 1359 -531 822 -1347 
L 216 -1347 
z
" transform="scale(0.015625)"/>
     </defs>
     <use xlink:href="#Arial-BoldMT-c0ac"/>
     <use xlink:href="#Arial-BoldMT-c5c5" transform="translate(75 0)"/>
     <use xlink:href="#Arial-BoldMT-20" transform="translate(150 0)"/>
     <use xlink:href="#Arial-BoldMT-c720" transform="translate(177.783203 0)"/>
     <use xlink:href="#Arial-BoldMT-d615" transform="translate(252.783203 0)"/>
     <use xlink:href="#Arial-BoldMT-bcc4" transform="translate(327.783203 0)"/>
     <use xlink:href="#Arial-BoldMT-20" transform="translate(402.783203 0)"/>
     <use xlink:href="#Arial-BoldMT-56" transform="translate(430.566406 0)"/>
     <use xlink:href="#Arial-BoldMT-41" transform="translate(489.890625 0)"/>
     <use xlink:href="#Arial-BoldMT-53" transform="translate(562.107422 0)"/>
     <use xlink:href="#Arial-BoldMT-50" transform="translate(628.806641 0)"/>
     <use xlink:href="#Arial-BoldMT-20" transform="translate(693.755859 0)"/>
     <use xlink:href="#Arial-BoldMT-c758" transform="translate(721.539062 0)"/>
     <use xlink:href="#Arial-BoldMT-bb34" transform="translate(796.539062 0)"/>
     <use xlink:href="#Arial-BoldMT-20" transform="translate(871.539062 0)"/>
     <use xlink:href="#Arial-BoldMT-ac15" transform="translate(899.322266 0)"/>
     <use xlink:href="#Arial-BoldMT-b3c4" transform="translate(974.322266 0)"/>
     <use xlink:href="#Arial-BoldMT-20" transform="translate(1049.322266 0)"/>
     <use xlink:href="#Arial-BoldMT-28" transform="translate(1077.105469 0)"/>
     <use xlink:href="#Arial-BoldMT-52" transform="translate(1110.40625 0)"/>
     <use xlink:href="#Arial-BoldMT-42" transform="translate(1182.623047 0)"/>
     <use xlink:href="#Arial-BoldMT-41" transform="translate(1254.839844 0)"/>
     <use xlink:href="#Arial-BoldMT-29" transform="translate(1327.056641 0)"/>
    </g>
   </g>
   <g id="legend_1">
    <g id="line2d_14">
     <path d="M 405.318489 37.198314 
L 414.318489 37.198314 
L 423.318489 37.198314 
" style="fill: none; stroke: #1a2e4a; stroke-width: 1.8; stroke-linecap: round"/>
    </g>
    <g id="text_11">
     <!-- 거래소 -->
     <g style="fill: #262626" transform="translate(430.518489 40.348314) scale(0.09 -0.09)">
      <defs>
       <path id="ArialMT-ac70" d="M 800 0 
L 800 4000 
L 4000 4000 
L 4000 0 
L 800 0 
z
M 900 100 
L 3900 100 
L 3900 3900 
L 900 3900 
L 900 100 
z
" transform="scale(0.015625)"/>
       <path id="ArialMT-b798" d="M 800 0 
L 800 4000 
L 4000 4000 
L 4000 0 
L 800 0 
z
M 900 100 
L 3900 100 
L 3900 3900 
L 900 3900 
L 900 100 
z
" transform="scale(0.015625)"/>
       <path id="ArialMT-c18c" d="M 800 0 
L 800 4000 
L 4000 4000 
L 4000 0 
L 800 0 
z
M 900 100 
L 3900 100 
L 3900 3900 
L 900 3900 
L 900 100 
z
" transform="scale(0.015625)"/>
      </defs>
      <use xlink:href="#ArialMT-ac70"/>
      <use xlink:href="#ArialMT-b798" transform="translate(75 0)"/>
      <use xlink:href="#ArialMT-c18c" transform="translate(150 0)"/>
     </g>
    </g>
    <g id="line2d_15">
     <path d="M 405.318489 49.929095 
L 414.318489 49.929095 
L 423.318489 49.929095 
" style="fill: none; stroke: #c9a646; stroke-width: 1.8; stroke-linecap: round"/>
    </g>
    <g id="text_12">
     <!-- 수탁업 -->
     <g style="fill: #262626" transform="translate(430.518489 53.079095) scale(0.09 -0.09)">
      <defs>
       <path id="ArialMT-c218" d="M 800 0 
L 800 4000 
L 4000 4000 
L 4000 0 
L 800 0 
z
M 900 100 
L 3900 100 
L 3900 3900 
L 900 3900 
L 900 100 
z
" transform="scale(0.015625)"/>
       <path id="ArialMT-d0c1" d="M 800 0 
L 800 4000 
L 4000 4000 
L 4000 0 
L 800 0 
z
M 900 100 
L 3900 100 
L 3900 3900 
L 900 3900 
L 900 100 
z
" transform="scale(0.015625)"/>
       <path id="ArialMT-c5c5" d="M 800 0 
L 800 4000 
L 4000 4000 
L 4000 0 
L 800 0 
z
M 900 100 
L 3900 100 
L 3900 3900 
L 900 3900 
L 900 100 
z
" transform="scale(0.015625)"/>
      </defs>
      <use xlink:href="#ArialMT-c218"/>
      <use xlink:href="#ArialMT-d0c1" transform="translate(75 0)"/>
      <use xlink:href="#ArialMT-c5c5" transform="translate(150 0)"/>
     </g>
    </g>
    <g id="line2d_16">
     <path d="M 405.318489 62.659876 
L 414.318489 62.659876 
L 423.318489 62.659876 
" style="fill: none; stroke: #4a5f7e; stroke-width: 1.8; stroke-linecap: round"/>
    </g>
    <g id="text_13">
     <!-- OTC desk -->
     <g style="fill: #262626" transform="translate(430.518489 65.809876) scale(0.09 -0.09)">
      <defs>
       <path id="ArialMT-4f" d="M 309 2231 
Q 309 3372 921 4017 
Q 1534 4663 2503 4663 
Q 3138 4663 3647 4359 
Q 4156 4056 4423 3514 
Q 4691 2972 4691 2284 
Q 4691 1588 4409 1038 
Q 4128 488 3612 205 
Q 3097 -78 2500 -78 
Q 1853 -78 1343 234 
Q 834 547 571 1087 
Q 309 1628 309 2231 
z
M 934 2222 
Q 934 1394 1379 917 
Q 1825 441 2497 441 
Q 3181 441 3623 922 
Q 4066 1403 4066 2288 
Q 4066 2847 3877 3264 
Q 3688 3681 3323 3911 
Q 2959 4141 2506 4141 
Q 1863 4141 1398 3698 
Q 934 3256 934 2222 
z
" transform="scale(0.015625)"/>
       <path id="ArialMT-20" transform="scale(0.015625)"/>
       <path id="ArialMT-64" d="M 2575 0 
L 2575 419 
Q 2259 -75 1647 -75 
Q 1250 -75 917 144 
Q 584 363 401 755 
Q 219 1147 219 1656 
Q 219 2153 384 2558 
Q 550 2963 881 3178 
Q 1213 3394 1622 3394 
Q 1922 3394 2156 3267 
Q 2391 3141 2538 2938 
L 2538 4581 
L 3097 4581 
L 3097 0 
L 2575 0 
z
M 797 1656 
Q 797 1019 1065 703 
Q 1334 388 1700 388 
Q 2069 388 2326 689 
Q 2584 991 2584 1609 
Q 2584 2291 2321 2609 
Q 2059 2928 1675 2928 
Q 1300 2928 1048 2622 
Q 797 2316 797 1656 
z
" transform="scale(0.015625)"/>
       <path id="ArialMT-73" d="M 197 991 
L 753 1078 
Q 800 744 1014 566 
Q 1228 388 1613 388 
Q 2000 388 2187 545 
Q 2375 703 2375 916 
Q 2375 1106 2209 1216 
Q 2094 1291 1634 1406 
Q 1016 1563 777 1677 
Q 538 1791 414 1992 
Q 291 2194 291 2438 
Q 291 2659 392 2848 
Q 494 3038 669 3163 
Q 800 3259 1026 3326 
Q 1253 3394 1513 3394 
Q 1903 3394 2198 3281 
Q 2494 3169 2634 2976 
Q 2775 2784 2828 2463 
L 2278 2388 
Q 2241 2644 2061 2787 
Q 1881 2931 1553 2931 
Q 1166 2931 1000 2803 
Q 834 2675 834 2503 
Q 834 2394 903 2306 
Q 972 2216 1119 2156 
Q 1203 2125 1616 2013 
Q 2213 1853 2448 1751 
Q 2684 1650 2818 1456 
Q 2953 1263 2953 975 
Q 2953 694 2789 445 
Q 2625 197 2315 61 
Q 2006 -75 1616 -75 
Q 969 -75 630 194 
Q 291 463 197 991 
z
" transform="scale(0.015625)"/>
       <path id="ArialMT-6b" d="M 425 0 
L 425 4581 
L 988 4581 
L 988 1969 
L 2319 3319 
L 3047 3319 
L 1778 2088 
L 3175 0 
L 2481 0 
L 1384 1697 
L 988 1316 
L 988 0 
L 425 0 
z
" transform="scale(0.015625)"/>
      </defs>
      <use xlink:href="#ArialMT-4f"/>
      <use xlink:href="#ArialMT-54" transform="translate(77.783203 0)"/>
      <use xlink:href="#ArialMT-43" transform="translate(138.867188 0)"/>
      <use xlink:href="#ArialMT-20" transform="translate(211.083984 0)"/>
      <use xlink:href="#ArialMT-64" transform="translate(238.867188 0)"/>
      <use xlink:href="#ArialMT-65" transform="translate(294.482422 0)"/>
      <use xlink:href="#ArialMT-73" transform="translate(350.097656 0)"/>
      <use xlink:href="#ArialMT-6b" transform="translate(400.097656 0)"/>
     </g>
    </g>
    <g id="line2d_17">
     <path d="M 405.318489 75.390657 
L 414.318489 75.390657 
L 423.318489 75.390657 
" style="fill: none; stroke: #7e8ba4; stroke-width: 1.8; stroke-linecap: round"/>
    </g>
    <g id="text_14">
     <!-- NFT 마켓 -->
     <g style="fill: #262626" transform="translate(430.518489 78.540657) scale(0.09 -0.09)">
      <defs>
       <path id="ArialMT-4e" d="M 488 0 
L 488 4581 
L 1109 4581 
L 3516 984 
L 3516 4581 
L 4097 4581 
L 4097 0 
L 3475 0 
L 1069 3600 
L 1069 0 
L 488 0 
z
" transform="scale(0.015625)"/>
       <path id="ArialMT-46" d="M 525 0 
L 525 4581 
L 3616 4581 
L 3616 4041 
L 1131 4041 
L 1131 2622 
L 3281 2622 
L 3281 2081 
L 1131 2081 
L 1131 0 
L 525 0 
z
" transform="scale(0.015625)"/>
       <path id="ArialMT-b9c8" d="M 800 0 
L 800 4000 
L 4000 4000 
L 4000 0 
L 800 0 
z
M 900 100 
L 3900 100 
L 3900 3900 
L 900 3900 
L 900 100 
z
" transform="scale(0.015625)"/>
       <path id="ArialMT-cf13" d="M 800 0 
L 800 4000 
L 4000 4000 
L 4000 0 
L 800 0 
z
M 900 100 
L 3900 100 
L 3900 3900 
L 900 3900 
L 900 100 
z
" transform="scale(0.015625)"/>
      </defs>
      <use xlink:href="#ArialMT-4e"/>
      <use xlink:href="#ArialMT-46" transform="translate(72.216797 0)"/>
      <use xlink:href="#ArialMT-54" transform="translate(133.300781 0)"/>
      <use xlink:href="#ArialMT-20" transform="translate(192.634766 0)"/>
      <use xlink:href="#ArialMT-b9c8" transform="translate(220.417969 0)"/>
      <use xlink:href="#ArialMT-cf13" transform="translate(295.417969 0)"/>
     </g>
    </g>
   </g>
  </g>
  <g id="text_15">
   <!-- Source: 특금법 §2 · §5의2~§5의4 + 가상자산이용자보호법 §10 -->
   <g style="fill: #6b7280" transform="translate(126.207102 450.479562) scale(0.075 -0.075)">
    <defs>
     <path id="ArialMT-6f" d="M 213 1659 
Q 213 2581 725 3025 
Q 1153 3394 1769 3394 
Q 2453 3394 2887 2945 
Q 3322 2497 3322 1706 
Q 3322 1066 3130 698 
Q 2938 331 2570 128 
Q 2203 -75 1769 -75 
Q 1072 -75 642 372 
Q 213 819 213 1659 
z
M 791 1659 
Q 791 1022 1069 705 
Q 1347 388 1769 388 
Q 2188 388 2466 706 
Q 2744 1025 2744 1678 
Q 2744 2294 2464 2611 
Q 2184 2928 1769 2928 
Q 1347 2928 1069 2612 
Q 791 2297 791 1659 
z
" transform="scale(0.015625)"/>
     <path id="ArialMT-63" d="M 2588 1216 
L 3141 1144 
Q 3050 572 2676 248 
Q 2303 -75 1759 -75 
Q 1078 -75 664 370 
Q 250 816 250 1647 
Q 250 2184 428 2587 
Q 606 2991 970 3192 
Q 1334 3394 1763 3394 
Q 2303 3394 2647 3120 
Q 2991 2847 3088 2344 
L 2541 2259 
Q 2463 2594 2264 2762 
Q 2066 2931 1784 2931 
Q 1359 2931 1093 2626 
Q 828 2322 828 1663 
Q 828 994 1084 691 
Q 1341 388 1753 388 
Q 2084 388 2306 591 
Q 2528 794 2588 1216 
z
" transform="scale(0.015625)"/>
     <path id="ArialMT-3a" d="M 578 2678 
L 578 3319 
L 1219 3319 
L 1219 2678 
L 578 2678 
z
M 578 0 
L 578 641 
L 1219 641 
L 1219 0 
L 578 0 
z
" transform="scale(0.015625)"/>
     <path id="ArialMT-d2b9" d="M 800 0 
L 800 4000 
L 4000 4000 
L 4000 0 
L 800 0 
z
M 900 100 
L 3900 100 
L 3900 3900 
L 900 3900 
L 900 100 
z
" transform="scale(0.015625)"/>
     <path id="ArialMT-ae08" d="M 800 0 
L 800 4000 
L 4000 4000 
L 4000 0 
L 800 0 
z
M 900 100 
L 3900 100 
L 3900 3900 
L 900 3900 
L 900 100 
z
" transform="scale(0.015625)"/>
     <path id="ArialMT-bc95" d="M 800 0 
L 800 4000 
L 4000 4000 
L 4000 0 
L 800 0 
z
M 900 100 
L 3900 100 
L 3900 3900 
L 900 3900 
L 900 100 
z
" transform="scale(0.015625)"/>
     <path id="ArialMT-a7" d="M 447 -219 
L 1013 -138 
Q 1100 -544 1290 -708 
Q 1481 -872 1809 -872 
Q 2128 -872 2308 -709 
Q 2488 -547 2488 -328 
Q 2488 -169 2375 -34 
Q 2181 200 1313 731 
Q 850 1016 667 1177 
Q 484 1338 368 1556 
Q 253 1775 253 2013 
Q 253 2313 440 2556 
Q 628 2800 956 2897 
Q 734 3109 643 3289 
Q 553 3469 553 3672 
Q 553 4072 865 4365 
Q 1178 4659 1694 4659 
Q 2278 4659 2606 4381 
Q 2934 4103 3000 3575 
L 2416 3516 
Q 2350 3897 2186 4047 
Q 2022 4197 1744 4197 
Q 1456 4197 1279 4042 
Q 1103 3888 1103 3700 
Q 1103 3538 1216 3400 
Q 1391 3188 2172 2713 
Q 2663 2413 2834 2272 
Q 3056 2084 3161 1884 
Q 3266 1684 3266 1450 
Q 3266 1097 3038 847 
Q 2906 703 2556 556 
Q 2806 366 2929 147 
Q 3053 -72 3053 -322 
Q 3053 -597 2897 -842 
Q 2741 -1088 2447 -1217 
Q 2153 -1347 1813 -1347 
Q 1216 -1347 866 -1048 
Q 516 -750 447 -219 
z
M 2275 763 
Q 2506 881 2620 1039 
Q 2734 1197 2734 1347 
Q 2734 1525 2572 1722 
Q 2406 1919 1869 2250 
Q 1441 2513 1231 2681 
Q 978 2538 870 2394 
Q 763 2250 763 2075 
Q 763 1878 906 1700 
Q 1050 1522 1553 1225 
Q 1972 978 2275 763 
z
" transform="scale(0.015625)"/>
     <path id="ArialMT-32" d="M 3222 541 
L 3222 0 
L 194 0 
Q 188 203 259 391 
Q 375 700 629 1000 
Q 884 1300 1366 1694 
Q 2113 2306 2375 2664 
Q 2638 3022 2638 3341 
Q 2638 3675 2398 3904 
Q 2159 4134 1775 4134 
Q 1369 4134 1125 3890 
Q 881 3647 878 3216 
L 300 3275 
Q 359 3922 746 4261 
Q 1134 4600 1788 4600 
Q 2447 4600 2831 4234 
Q 3216 3869 3216 3328 
Q 3216 3053 3103 2787 
Q 2991 2522 2730 2228 
Q 2469 1934 1863 1422 
Q 1356 997 1212 845 
Q 1069 694 975 541 
L 3222 541 
z
" transform="scale(0.015625)"/>
     <path id="ArialMT-b7" d="M 744 1991 
L 744 2631 
L 1384 2631 
L 1384 1991 
L 744 1991 
z
" transform="scale(0.015625)"/>
     <path id="ArialMT-35" d="M 266 1200 
L 856 1250 
Q 922 819 1161 601 
Q 1400 384 1738 384 
Q 2144 384 2425 690 
Q 2706 997 2706 1503 
Q 2706 1984 2436 2262 
Q 2166 2541 1728 2541 
Q 1456 2541 1237 2417 
Q 1019 2294 894 2097 
L 366 2166 
L 809 4519 
L 3088 4519 
L 3088 3981 
L 1259 3981 
L 1013 2750 
Q 1425 3038 1878 3038 
Q 2478 3038 2890 2622 
Q 3303 2206 3303 1553 
Q 3303 931 2941 478 
Q 2500 -78 1738 -78 
Q 1113 -78 717 272 
Q 322 622 266 1200 
z
" transform="scale(0.015625)"/>
     <path id="ArialMT-c758" d="M 800 0 
L 800 4000 
L 4000 4000 
L 4000 0 
L 800 0 
z
M 900 100 
L 3900 100 
L 3900 3900 
L 900 3900 
L 900 100 
z
" transform="scale(0.015625)"/>
     <path id="ArialMT-7e" d="M 272 1741 
L 272 2381 
Q 603 2756 1141 2756 
Q 1328 2756 1534 2701 
Q 1741 2647 2122 2484 
Q 2338 2394 2445 2366 
Q 2553 2338 2663 2338 
Q 2866 2338 3083 2459 
Q 3300 2581 3469 2766 
L 3469 2103 
Q 3269 1916 3064 1831 
Q 2859 1747 2603 1747 
Q 2416 1747 2245 1790 
Q 2075 1834 1704 2000 
Q 1334 2166 1088 2166 
Q 888 2166 711 2080 
Q 534 1994 272 1741 
z
" transform="scale(0.015625)"/>
     <path id="ArialMT-34" d="M 2069 0 
L 2069 1097 
L 81 1097 
L 81 1613 
L 2172 4581 
L 2631 4581 
L 2631 1613 
L 3250 1613 
L 3250 1097 
L 2631 1097 
L 2631 0 
L 2069 0 
z
M 2069 1613 
L 2069 3678 
L 634 1613 
L 2069 1613 
z
" transform="scale(0.015625)"/>
     <path id="ArialMT-2b" d="M 1603 741 
L 1603 1997 
L 356 1997 
L 356 2522 
L 1603 2522 
L 1603 3769 
L 2134 3769 
L 2134 2522 
L 3381 2522 
L 3381 1997 
L 2134 1997 
L 2134 741 
L 1603 741 
z
" transform="scale(0.015625)"/>
     <path id="ArialMT-ac00" d="M 800 0 
L 800 4000 
L 4000 4000 
L 4000 0 
L 800 0 
z
M 900 100 
L 3900 100 
L 3900 3900 
L 900 3900 
L 900 100 
z
" transform="scale(0.015625)"/>
     <path id="ArialMT-c0c1" d="M 800 0 
L 800 4000 
L 4000 4000 
L 4000 0 
L 800 0 
z
M 900 100 
L 3900 100 
L 3900 3900 
L 900 3900 
L 900 100 
z
" transform="scale(0.015625)"/>
     <path id="ArialMT-c774" d="M 800 0 
L 800 4000 
L 4000 4000 
L 4000 0 
L 800 0 
z
M 900 100 
L 3900 100 
L 3900 3900 
L 900 3900 
L 900 100 
z
" transform="scale(0.015625)"/>
     <path id="ArialMT-c6a9" d="M 800 0 
L 800 4000 
L 4000 4000 
L 4000 0 
L 800 0 
z
M 900 100 
L 3900 100 
L 3900 3900 
L 900 3900 
L 900 100 
z
" transform="scale(0.015625)"/>
     <path id="ArialMT-d638" d="M 800 0 
L 800 4000 
L 4000 4000 
L 4000 0 
L 800 0 
z
M 900 100 
L 3900 100 
L 3900 3900 
L 900 3900 
L 900 100 
z
" transform="scale(0.015625)"/>
     <path id="ArialMT-31" d="M 2384 0 
L 1822 0 
L 1822 3584 
Q 1619 3391 1289 3197 
Q 959 3003 697 2906 
L 697 3450 
Q 1169 3672 1522 3987 
Q 1875 4303 2022 4600 
L 2384 4600 
L 2384 0 
z
" transform="scale(0.015625)"/>
     <path id="ArialMT-30" d="M 266 2259 
Q 266 3072 433 3567 
Q 600 4063 929 4331 
Q 1259 4600 1759 4600 
Q 2128 4600 2406 4451 
Q 2684 4303 2865 4023 
Q 3047 3744 3150 3342 
Q 3253 2941 3253 2259 
Q 3253 1453 3087 958 
Q 2922 463 2592 192 
Q 2263 -78 1759 -78 
Q 1097 -78 719 397 
Q 266 969 266 2259 
z
M 844 2259 
Q 844 1131 1108 757 
Q 1372 384 1759 384 
Q 2147 384 2411 759 
Q 2675 1134 2675 2259 
Q 2675 3391 2411 3762 
Q 2147 4134 1753 4134 
Q 1366 4134 1134 3806 
Q 844 3388 844 2259 
z
" transform="scale(0.015625)"/>
    </defs>
    <use xlink:href="#ArialMT-53"/>
    <use xlink:href="#ArialMT-6f" transform="translate(66.699219 0)"/>
    <use xlink:href="#ArialMT-75" transform="translate(122.314453 0)"/>
    <use xlink:href="#ArialMT-72" transform="translate(177.929688 0)"/>
    <use xlink:href="#ArialMT-63" transform="translate(211.230469 0)"/>
    <use xlink:href="#ArialMT-65" transform="translate(261.230469 0)"/>
    <use xlink:href="#ArialMT-3a" transform="translate(316.845703 0)"/>
    <use xlink:href="#ArialMT-20" transform="translate(344.628906 0)"/>
    <use xlink:href="#ArialMT-d2b9" transform="translate(372.412109 0)"/>
    <use xlink:href="#ArialMT-ae08" transform="translate(447.412109 0)"/>
    <use xlink:href="#ArialMT-bc95" transform="translate(522.412109 0)"/>
    <use xlink:href="#ArialMT-20" transform="translate(597.412109 0)"/>
    <use xlink:href="#ArialMT-a7" transform="translate(625.195312 0)"/>
    <use xlink:href="#ArialMT-32" transform="translate(680.810547 0)"/>
    <use xlink:href="#ArialMT-20" transform="translate(736.425781 0)"/>
    <use xlink:href="#ArialMT-b7" transform="translate(764.208984 0)"/>
    <use xlink:href="#ArialMT-20" transform="translate(797.509766 0)"/>
    <use xlink:href="#ArialMT-a7" transform="translate(825.292969 0)"/>
    <use xlink:href="#ArialMT-35" transform="translate(880.908203 0)"/>
    <use xlink:href="#ArialMT-c758" transform="translate(936.523438 0)"/>
    <use xlink:href="#ArialMT-32" transform="translate(1011.523438 0)"/>
    <use xlink:href="#ArialMT-7e" transform="translate(1067.138672 0)"/>
    <use xlink:href="#ArialMT-a7" transform="translate(1125.537109 0)"/>
    <use xlink:href="#ArialMT-35" transform="translate(1181.152344 0)"/>
    <use xlink:href="#ArialMT-c758" transform="translate(1236.767578 0)"/>
    <use xlink:href="#ArialMT-34" transform="translate(1311.767578 0)"/>
    <use xlink:href="#ArialMT-20" transform="translate(1367.382812 0)"/>
    <use xlink:href="#ArialMT-2b" transform="translate(1395.166016 0)"/>
    <use xlink:href="#ArialMT-20" transform="translate(1453.564453 0)"/>
    <use xlink:href="#ArialMT-ac00" transform="translate(1481.347656 0)"/>
    <use xlink:href="#ArialMT-c0c1" transform="translate(1556.347656 0)"/>
    <use xlink:href="#ArialMT-c790" transform="translate(1631.347656 0)"/>
    <use xlink:href="#ArialMT-c0b0" transform="translate(1706.347656 0)"/>
    <use xlink:href="#ArialMT-c774" transform="translate(1781.347656 0)"/>
    <use xlink:href="#ArialMT-c6a9" transform="translate(1856.347656 0)"/>
    <use xlink:href="#ArialMT-c790" transform="translate(1931.347656 0)"/>
    <use xlink:href="#ArialMT-bcf4" transform="translate(2006.347656 0)"/>
    <use xlink:href="#ArialMT-d638" transform="translate(2081.347656 0)"/>
    <use xlink:href="#ArialMT-bc95" transform="translate(2156.347656 0)"/>
    <use xlink:href="#ArialMT-20" transform="translate(2231.347656 0)"/>
    <use xlink:href="#ArialMT-a7" transform="translate(2259.130859 0)"/>
    <use xlink:href="#ArialMT-31" transform="translate(2314.746094 0)"/>
    <use xlink:href="#ArialMT-30" transform="translate(2370.361328 0)"/>
   </g>
  </g>
 </g>
 <defs>
  <clipPath id="p4476b3561b">
   <path d="M 401.066 231.599562 
C 401.066 208.302557 396.476998 185.232086 387.56162 163.70846 
C 378.646242 142.184834 365.57787 122.626633 349.1044 106.153163 
C 332.63093 89.679692 313.072729 76.61132 291.549102 67.695942 
C 270.025476 58.780565 246.955005 54.191562 223.658 54.191562 
C 200.360995 54.191562 177.290524 58.780565 155.766898 67.695942 
C 134.243271 76.61132 114.68507 89.679692 98.2116 106.153163 
C 81.73813 122.626633 68.669758 142.184834 59.75438 163.70846 
C 50.839002 185.232086 46.25 208.302557 46.25 231.599562 
C 46.25 254.896568 50.839002 277.967039 59.75438 299.490665 
C 68.669758 321.014291 81.73813 340.572492 98.2116 357.045962 
C 114.68507 373.519433 134.243271 386.587805 155.766898 395.503183 
C 177.290524 404.41856 200.360995 409.007562 223.658 409.007562 
C 246.955005 409.007562 270.025476 404.41856 291.549102 395.503183 
C 313.072729 386.587805 332.63093 373.519433 349.1044 357.045962 
C 365.57787 340.572492 378.646242 321.014291 387.56162 299.490665 
C 396.476998 277.967039 401.066 254.896568 401.066 231.599562 
M 223.658 231.599562 
C 223.658 231.599562 223.658 231.599562 223.658 231.599562 
C 223.658 231.599562 223.658 231.599562 223.658 231.599562 
C 223.658 231.599562 223.658 231.599562 223.658 231.599562 
C 223.658 231.599562 223.658 231.599562 223.658 231.599562 
C 223.658 231.599562 223.658 231.599562 223.658 231.599562 
C 223.658 231.599562 223.658 231.599562 223.658 231.599562 
C 223.658 231.599562 223.658 231.599562 223.658 231.599562 
C 223.658 231.599562 223.658 231.599562 223.658 231.599562 
C 223.658 231.599562 223.658 231.599562 223.658 231.599562 
C 223.658 231.599562 223.658 231.599562 223.658 231.599562 
C 223.658 231.599562 223.658 231.599562 223.658 231.599562 
C 223.658 231.599562 223.658 231.599562 223.658 231.599562 
C 223.658 231.599562 223.658 231.599562 223.658 231.599562 
C 223.658 231.599562 223.658 231.599562 223.658 231.599562 
C 223.658 231.599562 223.658 231.599562 223.658 231.599562 
C 223.658 231.599562 223.658 231.599562 223.658 231.599562 
z
"/>
  </clipPath>
 </defs>
</svg>
