<svg id="my-svg" width="100%" xmlns="http://www.w3.org/2000/svg" xmlns:xlink="http://www.w3.org/1999/xlink" class="classDiagram" style="max-width: 568.812px; background-color: transparent;" viewBox="0 0 568.8125 399" role="graphics-document document" aria-roledescription="class"><style>#my-svg{font-family:'Pretendard Variable',Pretendard,'Malgun Gothic',sans-serif;font-size:14px;fill:#111418;}@keyframes edge-animation-frame{from{stroke-dashoffset:0;}}@keyframes dash{to{stroke-dashoffset:0;}}#my-svg .edge-animation-slow{stroke-dasharray:9,5!important;stroke-dashoffset:900;animation:dash 50s linear infinite;stroke-linecap:round;}#my-svg .edge-animation-fast{stroke-dasharray:9,5!important;stroke-dashoffset:900;animation:dash 20s linear infinite;stroke-linecap:round;}#my-svg .error-icon{fill:#f7f5ef;}#my-svg .error-text{fill:#080a10;stroke:#080a10;}#my-svg .edge-thickness-normal{stroke-width:1px;}#my-svg .edge-thickness-thick{stroke-width:3.5px;}#my-svg .edge-pattern-solid{stroke-dasharray:0;}#my-svg .edge-thickness-invisible{stroke-width:0;fill:none;}#my-svg .edge-pattern-dashed{stroke-dasharray:3;}#my-svg .edge-pattern-dotted{stroke-dasharray:2;}#my-svg .marker{fill:#3a414a;stroke:#3a414a;}#my-svg .marker.cross{stroke:#3a414a;}#my-svg svg{font-family:'Pretendard Variable',Pretendard,'Malgun Gothic',sans-serif;font-size:14px;}#my-svg p{margin:0;}#my-svg g.classGroup text{fill:#1a2e4a;stroke:none;font-family:'Pretendard Variable',Pretendard,'Malgun Gothic',sans-serif;font-size:10px;}#my-svg g.classGroup text .title{font-weight:bolder;}#my-svg .cluster-label text{fill:#080a10;}#my-svg .cluster-label span{color:#080a10;}#my-svg .cluster-label span p{background-color:transparent;}#my-svg .cluster rect{fill:#f7f5ef;stroke:hsl(45, 0%, 85.2941176471%);stroke-width:1px;}#my-svg .cluster text{fill:#080a10;}#my-svg .cluster span{color:#080a10;}#my-svg .nodeLabel,#my-svg .edgeLabel{color:#111418;}#my-svg .noteLabel .nodeLabel,#my-svg .noteLabel .edgeLabel{color:#333;}#my-svg .edgeLabel .label rect{fill:#e5eaf2;}#my-svg .label text{fill:#111418;}#my-svg .labelBkg{background:#e5eaf2;}#my-svg .edgeLabel .label span{background:#e5eaf2;}#my-svg .classTitle{font-weight:bolder;}#my-svg .node rect,#my-svg .node circle,#my-svg .node ellipse,#my-svg .node polygon,#my-svg .node path{fill:#e5eaf2;stroke:#1a2e4a;stroke-width:1;}#my-svg .divider{stroke:#1a2e4a;stroke-width:1;}#my-svg g.clickable{cursor:pointer;}#my-svg g.classGroup rect{fill:#e5eaf2;stroke:#1a2e4a;}#my-svg g.classGroup line{stroke:#1a2e4a;stroke-width:1;}#my-svg .classLabel .box{stroke:none;stroke-width:0;fill:#e5eaf2;opacity:0.5;}#my-svg .classLabel .label{fill:#1a2e4a;font-size:10px;}#my-svg .relation{stroke:#3a414a;stroke-width:1;fill:none;}#my-svg .dashed-line{stroke-dasharray:3;}#my-svg .dotted-line{stroke-dasharray:1 2;}#my-svg [id$="-compositionStart"],#my-svg .composition{fill:#3a414a!important;stroke:#3a414a!important;stroke-width:1;}#my-svg [id$="-compositionEnd"],#my-svg .composition{fill:#3a414a!important;stroke:#3a414a!important;stroke-width:1;}#my-svg [id$="-dependencyStart"],#my-svg .dependency{fill:#3a414a!important;stroke:#3a414a!important;stroke-width:1;}#my-svg [id$="-dependencyEnd"],#my-svg .dependency{fill:#3a414a!important;stroke:#3a414a!important;stroke-width:1;}#my-svg [id$="-extensionStart"],#my-svg .extension{fill:transparent!important;stroke:#3a414a!important;stroke-width:1;}#my-svg [id$="-extensionEnd"],#my-svg .extension{fill:transparent!important;stroke:#3a414a!important;stroke-width:1;}#my-svg [id$="-aggregationStart"],#my-svg .aggregation{fill:transparent!important;stroke:#3a414a!important;stroke-width:1;}#my-svg [id$="-aggregationEnd"],#my-svg .aggregation{fill:transparent!important;stroke:#3a414a!important;stroke-width:1;}#my-svg [id$="-lollipopStart"],#my-svg .lollipop{fill:#e5eaf2!important;stroke:#3a414a!important;stroke-width:1;}#my-svg [id$="-lollipopEnd"],#my-svg .lollipop{fill:#e5eaf2!important;stroke:#3a414a!important;stroke-width:1;}#my-svg .edgeTerminals{font-size:11px;line-height:initial;}#my-svg .classTitleText{text-anchor:middle;font-size:18px;fill:#111418;}#my-svg .edgeLabel[data-look="neo"]{background-color:#ffffff;text-align:center;}#my-svg .edgeLabel[data-look="neo"] p{background-color:#ffffff;}#my-svg .edgeLabel[data-look="neo"] rect{opacity:0.5;background-color:#ffffff;fill:#ffffff;}#my-svg .label-icon{display:inline-block;height:1em;overflow:visible;vertical-align:-0.125em;}#my-svg .node .label-icon path{fill:currentColor;stroke:revert;stroke-width:revert;}#my-svg .node .neo-node{stroke:#1a2e4a;}#my-svg [data-look="neo"].node rect,#my-svg [data-look="neo"].cluster rect,#my-svg [data-look="neo"].node polygon{stroke:url(#my-svg-gradient);filter:drop-shadow( 1px 2px 2px rgba(185,185,185,1));}#my-svg [data-look="neo"].node path{stroke:url(#my-svg-gradient);stroke-width:1px;}#my-svg [data-look="neo"].node .outer-path{filter:drop-shadow( 1px 2px 2px rgba(185,185,185,1));}#my-svg [data-look="neo"].node .neo-line path{stroke:#1a2e4a;filter:none;}#my-svg [data-look="neo"].node circle{stroke:url(#my-svg-gradient);filter:drop-shadow( 1px 2px 2px rgba(185,185,185,1));}#my-svg [data-look="neo"].node circle .state-start{fill:#000000;}#my-svg [data-look="neo"].icon-shape .icon{fill:url(#my-svg-gradient);filter:drop-shadow( 1px 2px 2px rgba(185,185,185,1));}#my-svg [data-look="neo"].icon-shape .icon-neo path{stroke:url(#my-svg-gradient);filter:drop-shadow( 1px 2px 2px rgba(185,185,185,1));}#my-svg :root{--mermaid-font-family:"trebuchet ms",verdana,arial,sans-serif;}</style><g><defs><marker id="my-svg_class-aggregationStart" class="marker aggregation class" refX="18" refY="7" markerWidth="190" markerHeight="240" orient="auto"><path d="M 18,7 L9,13 L1,7 L9,1 Z"/></marker></defs><defs><marker id="my-svg_class-aggregationEnd" class="marker aggregation class" refX="1" refY="7" markerWidth="20" markerHeight="28" orient="auto"><path d="M 18,7 L9,13 L1,7 L9,1 Z"/></marker></defs><defs><marker id="my-svg_class-aggregationStart-margin" class="marker aggregation class" refX="15" refY="7" markerWidth="190" markerHeight="240" orient="auto" markerUnits="userSpaceOnUse"><path d="M 18,7 L9,13 L1,7 L9,1 Z" style="stroke-width: 2;"/></marker></defs><defs><marker id="my-svg_class-aggregationEnd-margin" class="marker aggregation class" refX="1" refY="7" markerWidth="20" markerHeight="28" orient="auto" markerUnits="userSpaceOnUse"><path d="M 18,7 L9,13 L1,7 L9,1 Z" style="stroke-width: 2;"/></marker></defs><defs><marker id="my-svg_class-extensionStart" class="marker extension class" refX="18" refY="7" markerWidth="190" markerHeight="240" orient="auto" markerUnits="userSpaceOnUse"><path d="M 1,7 L18,13 V 1 Z"/></marker></defs><defs><marker id="my-svg_class-extensionEnd" class="marker extension class" refX="1" refY="7" markerWidth="20" markerHeight="28" orient="auto"><path d="M 1,1 V 13 L18,7 Z"/></marker></defs><marker id="my-svg_class-extensionStart-margin" class="marker extension class" refX="18" refY="7" markerWidth="20" markerHeight="28" orient="auto" markerUnits="userSpaceOnUse" viewBox="0 0 20 14"><polygon points="10,7 18,13 18,1" style="stroke-width: 2; stroke-dasharray: 0;"/></marker><defs><marker id="my-svg_class-extensionEnd-margin" class="marker extension class" refX="9" refY="7" markerWidth="20" markerHeight="28" orient="auto" markerUnits="userSpaceOnUse" viewBox="0 0 20 14"><polygon points="10,1 10,13 18,7" style="stroke-width: 2; stroke-dasharray: 0;"/></marker></defs><defs><marker id="my-svg_class-compositionStart" class="marker composition class" refX="18" refY="7" markerWidth="190" markerHeight="240" orient="auto"><path d="M 18,7 L9,13 L1,7 L9,1 Z"/></marker></defs><defs><marker id="my-svg_class-compositionEnd" class="marker composition class" refX="1" refY="7" markerWidth="20" markerHeight="28" orient="auto"><path d="M 18,7 L9,13 L1,7 L9,1 Z"/></marker></defs><defs><marker id="my-svg_class-compositionStart-margin" class="marker composition class" refX="15" refY="7" markerWidth="190" markerHeight="240" orient="auto" markerUnits="userSpaceOnUse"><path viewBox="0 0 15 15" d="M 18,7 L9,13 L1,7 L9,1 Z" style="stroke-width: 0;"/></marker></defs><defs><marker id="my-svg_class-compositionEnd-margin" class="marker composition class" refX="3.5" refY="7" markerWidth="20" markerHeight="28" orient="auto" markerUnits="userSpaceOnUse"><path d="M 18,7 L9,13 L1,7 L9,1 Z" style="stroke-width: 0;"/></marker></defs><defs><marker id="my-svg_class-dependencyStart" class="marker dependency class" refX="6" refY="7" markerWidth="190" markerHeight="240" orient="auto"><path d="M 5,7 L9,13 L1,7 L9,1 Z"/></marker></defs><defs><marker id="my-svg_class-dependencyEnd" class="marker dependency class" refX="13" refY="7" markerWidth="20" markerHeight="28" orient="auto"><path d="M 18,7 L9,13 L14,7 L9,1 Z"/></marker></defs><defs><marker id="my-svg_class-dependencyStart-margin" class="marker dependency class" refX="4" refY="7" markerWidth="190" markerHeight="240" orient="auto" markerUnits="userSpaceOnUse"><path d="M 5,7 L9,13 L1,7 L9,1 Z" style="stroke-width: 0;"/></marker></defs><defs><marker id="my-svg_class-dependencyEnd-margin" class="marker dependency class" refX="16" refY="7" markerWidth="20" markerHeight="28" orient="auto" markerUnits="userSpaceOnUse"><path d="M 18,7 L9,13 L14,7 L9,1 Z" style="stroke-width: 0;"/></marker></defs><defs><marker id="my-svg_class-lollipopStart" class="marker lollipop class" refX="13" refY="7" markerWidth="190" markerHeight="240" orient="auto"><circle fill="transparent" cx="7" cy="7" r="6"/></marker></defs><defs><marker id="my-svg_class-lollipopEnd" class="marker lollipop class" refX="1" refY="7" markerWidth="190" markerHeight="240" orient="auto"><circle fill="transparent" cx="7" cy="7" r="6"/></marker></defs><defs><marker id="my-svg_class-lollipopStart-margin" class="marker lollipop class" refX="13" refY="7" markerWidth="190" markerHeight="240" orient="auto" markerUnits="userSpaceOnUse"><circle fill="transparent" cx="7" cy="7" r="6" stroke-width="2"/></marker></defs><defs><marker id="my-svg_class-lollipopEnd-margin" class="marker lollipop class" refX="1" refY="7" markerWidth="190" markerHeight="240" orient="auto" markerUnits="userSpaceOnUse"><circle fill="transparent" cx="7" cy="7" r="6" stroke-width="2"/></marker></defs><g class="root"><g class="clusters"/><g class="edgePaths"><path d="M73.883,202.25L73.883,205.292C73.883,208.333,73.883,214.417,73.883,227.875C73.883,241.333,73.883,262.167,73.883,272.583L73.883,283" id="my-svg-id_Class01_AveryLongClass_1" class="edge-thickness-normal edge-pattern-solid relation" style=";;;" data-edge="true" data-et="edge" data-id="id_Class01_AveryLongClass_1" data-points="W3sieCI6NzMuODgyODEyNSwieSI6MTg1fSx7IngiOjczLjg4MjgxMjUsInkiOjIyMC41fSx7IngiOjczLjg4MjgxMjUsInkiOjI4M31d" data-look="classic" marker-start="url(#my-svg_class-extensionStart)"/><path d="M273.655,137L263.231,150.917C252.807,164.833,231.958,192.667,221.534,216C211.109,239.333,211.109,258.167,211.109,267.583L211.109,277" id="my-svg-id_Class09_C2_2" class="edge-thickness-normal edge-pattern-solid relation" style=";;;" data-edge="true" data-et="edge" data-id="id_Class09_C2_2" data-points="W3sieCI6MjczLjY1NTQ2MjQ0OTU5Njc3LCJ5IjoxMzd9LHsieCI6MjExLjEwOTM3NSwieSI6MjIwLjV9LHsieCI6MjExLjEwOTM3NSwieSI6MjgzfV0=" data-look="classic" marker-end="url(#my-svg_class-dependencyEnd)"/><path d="M303.992,137L303.992,150.917C303.992,164.833,303.992,192.667,303.992,214.125C303.992,235.583,303.992,250.667,303.992,258.208L303.992,265.75" id="my-svg-id_Class09_C3_3" class="edge-thickness-normal edge-pattern-solid relation" style=";;;" data-edge="true" data-et="edge" data-id="id_Class09_C3_3" data-points="W3sieCI6MzAzLjk5MjE4NzUsInkiOjEzN30seyJ4IjozMDMuOTkyMTg3NSwieSI6MjIwLjV9LHsieCI6MzAzLjk5MjE4NzUsInkiOjI4M31d" data-look="classic" marker-end="url(#my-svg_class-compositionEnd)"/><path d="M343.43,126.286L364.22,141.988C385.01,157.691,426.591,189.095,447.382,207.839C468.172,226.583,468.172,232.667,468.172,235.708L468.172,238.75" id="my-svg-id_Class09_Class07_4" class="edge-thickness-normal edge-pattern-solid relation" style=";;;" data-edge="true" data-et="edge" data-id="id_Class09_Class07_4" data-points="W3sieCI6MzQzLjQyOTY4NzUsInkiOjEyNi4yODU5NjI0MDc4MDM5NX0seyJ4Ijo0NjguMTcxODc1LCJ5IjoyMjAuNX0seyJ4Ijo0NjguMTcxODc1LCJ5IjoyNTZ9XQ==" data-look="classic" marker-end="url(#my-svg_class-extensionEnd)"/></g><g class="edgeLabels"><g class="edgeLabel" transform="translate(73.8828125, 220.5)"><g class="label" data-id="id_Class01_AveryLongClass_1" transform="translate(-14.328125, -10.5)"><foreignObject width="28.65625" height="21"><div xmlns="http://www.w3.org/1999/xhtml" class="labelBkg" style="display: table-cell; white-space: nowrap; line-height: 1.5; max-width: 200px; text-align: center;"><span class="edgeLabel"><p>Cool</p></span></div></foreignObject></g></g><g class="edgeLabel" transform="translate(211.109375, 220.5)"><g class="label" data-id="id_Class09_C2_2" transform="translate(-38.578125, -10.5)"><foreignObject width="77.15625" height="21"><div xmlns="http://www.w3.org/1999/xhtml" class="labelBkg" style="display: table-cell; white-space: nowrap; line-height: 1.5; max-width: 200px; text-align: center;"><span class="edgeLabel"><p>Where am I?</p></span></div></foreignObject></g></g><g class="edgeLabel"><g class="label" data-id="id_Class09_C3_3" transform="translate(0, 0)"><foreignObject width="0" height="0"><div xmlns="http://www.w3.org/1999/xhtml" class="labelBkg" style="display: table-cell; white-space: nowrap; line-height: 1.5; max-width: 200px; text-align: center;"><span class="edgeLabel"></span></div></foreignObject></g></g><g class="edgeLabel"><g class="label" data-id="id_Class09_Class07_4" transform="translate(0, 0)"><foreignObject width="0" height="0"><div xmlns="http://www.w3.org/1999/xhtml" class="labelBkg" style="display: table-cell; white-space: nowrap; line-height: 1.5; max-width: 200px; text-align: center;"><span class="edgeLabel"></span></div></foreignObject></g></g></g><g class="nodes"><g class="node default" id="my-svg-classId-Class01-0" data-look="classic" transform="translate(73.8828125, 96.5)"><g class="basic label-container outer-path"><path d="M-58.25 -88.5 L58.25 -88.5 L58.25 88.5 L-58.25 88.5" stroke="none" stroke-width="0" fill="#e5eaf2" style=""/><path d="M-58.25 -88.5 C-23.371369378313148 -88.5, 11.507261243373705 -88.5, 58.25 -88.5 M-58.25 -88.5 C-21.374991888104162 -88.5, 15.500016223791675 -88.5, 58.25 -88.5 M58.25 -88.5 C58.25 -51.03075451609448, 58.25 -13.561509032188965, 58.25 88.5 M58.25 -88.5 C58.25 -35.5585413442196, 58.25 17.382917311560803, 58.25 88.5 M58.25 88.5 C33.116155911340186 88.5, 7.982311822680366 88.5, -58.25 88.5 M58.25 88.5 C31.008264190857343 88.5, 3.7665283817146857 88.5, -58.25 88.5 M-58.25 88.5 C-58.25 22.07384009077387, -58.25 -44.35231981845226, -58.25 -88.5 M-58.25 88.5 C-58.25 36.819873814050155, -58.25 -14.86025237189969, -58.25 -88.5" stroke="#1a2e4a" stroke-width="1.3" fill="none" stroke-dasharray="0 0" style=""/></g><g class="annotation-group text" transform="translate(-35.265625, -64.5)"><g class="label" style="" transform="translate(0,-10.5)"><foreignObject width="70.53125" height="21"><div xmlns="http://www.w3.org/1999/xhtml" style="display: table-cell; white-space: nowrap; line-height: 1.5; max-width: 123px; text-align: center;"><span class="nodeLabel markdown-node-label" style=""><p>«Interface»</p></span></div></foreignObject></g></g><g class="label-group text" transform="translate(-26.21875, -43.5)"><g class="label" style="font-weight: bolder" transform="translate(0,-10.5)"><foreignObject width="52.4375" height="21"><div xmlns="http://www.w3.org/1999/xhtml" style="display: table-cell; white-space: nowrap; line-height: 1.5; max-width: 101px; text-align: center;"><span class="nodeLabel markdown-node-label" style=""><p>Class01</p></span></div></foreignObject></g></g><g class="members-group text" transform="translate(-46.25, 1.5)"><g class="label" style="" transform="translate(0,-10.5)"><foreignObject width="57.234375" height="21"><div xmlns="http://www.w3.org/1999/xhtml" style="display: table-cell; white-space: nowrap; line-height: 1.5; max-width: 111px; text-align: center;"><span class="nodeLabel markdown-node-label" style=""><p>int chimp</p></span></div></foreignObject></g><g class="label" style="" transform="translate(0,10.5)"><foreignObject width="56.703125" height="21"><div xmlns="http://www.w3.org/1999/xhtml" style="display: table-cell; white-space: nowrap; line-height: 1.5; max-width: 114px; text-align: center;"><span class="nodeLabel markdown-node-label" style=""><p>int gorilla</p></span></div></foreignObject></g></g><g class="methods-group text" transform="translate(-46.25, 67.5)"><g class="label" style="" transform="translate(0,-10.5)"><foreignObject width="34.25" height="21"><div xmlns="http://www.w3.org/1999/xhtml" style="display: table-cell; white-space: nowrap; line-height: 1.5; max-width: 86px; text-align: center;"><span class="nodeLabel markdown-node-label" style=""><p>size()</p></span></div></foreignObject></g></g><g class="divider" style=""><path d="M-58.25 -22.5 C-28.29322661423588 -22.499742860314285, 1.6635467715282388 -22.49948572062857, 58.25 -22.499 M-58.25 -22.5 C-32.273156944675016 -22.49977702280639, -6.2963138893500314 -22.499554045612783, 58.25 -22.499" stroke="#1a2e4a" stroke-width="1.3" fill="none" stroke-dasharray="0 0" style=""/></g><g class="divider" style=""><path d="M-58.25 43.5 C-27.071787409904754 43.5002676241424, 4.106425180190492 43.500535248284805, 58.25 43.501 M-58.25 43.5 C-17.579673620431613 43.50034910151399, 23.090652759136773 43.50069820302797, 58.25 43.501" stroke="#1a2e4a" stroke-width="1.3" fill="none" stroke-dasharray="0 0" style=""/></g></g><g class="node default" id="my-svg-classId-AveryLongClass-1" data-look="classic" transform="translate(73.8828125, 323.5)"><g class="basic label-container outer-path"><path d="M-65.8828125 -40.5 L65.8828125 -40.5 L65.8828125 40.5 L-65.8828125 40.5" stroke="none" stroke-width="0" fill="#e5eaf2" style=""/><path d="M-65.8828125 -40.5 C-38.80881592441192 -40.5, -11.734819348823834 -40.5, 65.8828125 -40.5 M-65.8828125 -40.5 C-21.12142916190293 -40.5, 23.639954176194138 -40.5, 65.8828125 -40.5 M65.8828125 -40.5 C65.8828125 -20.931764082611377, 65.8828125 -1.3635281652227533, 65.8828125 40.5 M65.8828125 -40.5 C65.8828125 -16.12514648625097, 65.8828125 8.249707027498062, 65.8828125 40.5 M65.8828125 40.5 C37.74405711638109 40.5, 9.605301732762186 40.5, -65.8828125 40.5 M65.8828125 40.5 C17.13447000760373 40.5, -31.613872484792537 40.5, -65.8828125 40.5 M-65.8828125 40.5 C-65.8828125 17.443471502801398, -65.8828125 -5.613056994397205, -65.8828125 -40.5 M-65.8828125 40.5 C-65.8828125 16.204913465102702, -65.8828125 -8.090173069794595, -65.8828125 -40.5" stroke="#1a2e4a" stroke-width="1.3" fill="none" stroke-dasharray="0 0" style=""/></g><g class="annotation-group text" transform="translate(0, -16.5)"/><g class="label-group text" transform="translate(-53.8828125, -16.5)"><g class="label" style="font-weight: bolder" transform="translate(0,-10.5)"><foreignObject width="107.765625" height="21"><div xmlns="http://www.w3.org/1999/xhtml" style="display: table-cell; white-space: nowrap; line-height: 1.5; max-width: 158px; text-align: center;"><span class="nodeLabel markdown-node-label" style=""><p>AveryLongClass</p></span></div></foreignObject></g></g><g class="members-group text" transform="translate(-53.8828125, 28.5)"/><g class="methods-group text" transform="translate(-53.8828125, 58.5)"/><g class="divider" style=""><path d="M-65.8828125 4.5 C-15.743409427129237 4.50038051960117, 34.39599364574153 4.50076103920234, 65.8828125 4.501 M-65.8828125 4.5 C-28.144194486392955 4.50028640715675, 9.59442352721409 4.500572814313499, 65.8828125 4.501" stroke="#1a2e4a" stroke-width="1.3" fill="none" stroke-dasharray="0 0" style=""/></g><g class="divider" style=""><path d="M-65.8828125 22.5 C-25.514061691845775 22.50030636784676, 14.85468911630845 22.50061273569352, 65.8828125 22.501 M-65.8828125 22.5 C-15.929155863572461 22.500379109928225, 34.02450077285508 22.500758219856454, 65.8828125 22.501" stroke="#1a2e4a" stroke-width="1.3" fill="none" stroke-dasharray="0 0" style=""/></g></g><g class="node default" id="my-svg-classId-Class09-2" data-look="classic" transform="translate(303.9921875, 96.5)"><g class="basic label-container outer-path"><path d="M-39.4375 -40.5 L39.4375 -40.5 L39.4375 40.5 L-39.4375 40.5" stroke="none" stroke-width="0" fill="#e5eaf2" style=""/><path d="M-39.4375 -40.5 C-14.489464672067466 -40.5, 10.458570655865067 -40.5, 39.4375 -40.5 M-39.4375 -40.5 C-21.05116655515111 -40.5, -2.6648331103022187 -40.5, 39.4375 -40.5 M39.4375 -40.5 C39.4375 -9.973980192465909, 39.4375 20.552039615068182, 39.4375 40.5 M39.4375 -40.5 C39.4375 -17.537787488267313, 39.4375 5.424425023465375, 39.4375 40.5 M39.4375 40.5 C19.902774571753408 40.5, 0.3680491435068163 40.5, -39.4375 40.5 M39.4375 40.5 C12.287231566479889 40.5, -14.863036867040222 40.5, -39.4375 40.5 M-39.4375 40.5 C-39.4375 21.48947757702422, -39.4375 2.4789551540484425, -39.4375 -40.5 M-39.4375 40.5 C-39.4375 23.758706263410918, -39.4375 7.017412526821836, -39.4375 -40.5" stroke="#1a2e4a" stroke-width="1.3" fill="none" stroke-dasharray="0 0" style=""/></g><g class="annotation-group text" transform="translate(0, -16.5)"/><g class="label-group text" transform="translate(-27.4375, -16.5)"><g class="label" style="font-weight: bolder" transform="translate(0,-10.5)"><foreignObject width="54.875" height="21"><div xmlns="http://www.w3.org/1999/xhtml" style="display: table-cell; white-space: nowrap; line-height: 1.5; max-width: 101px; text-align: center;"><span class="nodeLabel markdown-node-label" style=""><p>Class09</p></span></div></foreignObject></g></g><g class="members-group text" transform="translate(-27.4375, 28.5)"/><g class="methods-group text" transform="translate(-27.4375, 58.5)"/><g class="divider" style=""><path d="M-39.4375 4.5 C-13.040650307636142 4.500334666874071, 13.356199384727717 4.500669333748142, 39.4375 4.501 M-39.4375 4.5 C-21.2778917944991 4.500230232750624, -3.118283588998203 4.500460465501249, 39.4375 4.501" stroke="#1a2e4a" stroke-width="1.3" fill="none" stroke-dasharray="0 0" style=""/></g><g class="divider" style=""><path d="M-39.4375 22.5 C-17.11455246264654 22.50028301676751, 5.208395074706921 22.50056603353502, 39.4375 22.501 M-39.4375 22.5 C-7.899876206960833 22.50039984309088, 23.637747586078333 22.500799686181757, 39.4375 22.501" stroke="#1a2e4a" stroke-width="1.3" fill="none" stroke-dasharray="0 0" style=""/></g></g><g class="node default" id="my-svg-classId-C2-3" data-look="classic" transform="translate(211.109375, 323.5)"><g class="basic label-container outer-path"><path d="M-21.34375 -40.5 L21.34375 -40.5 L21.34375 40.5 L-21.34375 40.5" stroke="none" stroke-width="0" fill="#e5eaf2" style=""/><path d="M-21.34375 -40.5 C-12.768767788105107 -40.5, -4.193785576210214 -40.5, 21.34375 -40.5 M-21.34375 -40.5 C-11.501838627883144 -40.5, -1.6599272557662879 -40.5, 21.34375 -40.5 M21.34375 -40.5 C21.34375 -10.333115305604895, 21.34375 19.83376938879021, 21.34375 40.5 M21.34375 -40.5 C21.34375 -13.69440264566606, 21.34375 13.111194708667881, 21.34375 40.5 M21.34375 40.5 C5.46165728336573 40.5, -10.42043543326854 40.5, -21.34375 40.5 M21.34375 40.5 C5.7282948170148575 40.5, -9.887160365970285 40.5, -21.34375 40.5 M-21.34375 40.5 C-21.34375 20.066416097336308, -21.34375 -0.3671678053273837, -21.34375 -40.5 M-21.34375 40.5 C-21.34375 11.954129960274546, -21.34375 -16.591740079450908, -21.34375 -40.5" stroke="#1a2e4a" stroke-width="1.3" fill="none" stroke-dasharray="0 0" style=""/></g><g class="annotation-group text" transform="translate(0, -16.5)"/><g class="label-group text" transform="translate(-9.34375, -16.5)"><g class="label" style="font-weight: bolder" transform="translate(0,-10.5)"><foreignObject width="18.6875" height="21"><div xmlns="http://www.w3.org/1999/xhtml" style="display: table-cell; white-space: nowrap; line-height: 1.5; max-width: 69px; text-align: center;"><span class="nodeLabel markdown-node-label" style=""><p>C2</p></span></div></foreignObject></g></g><g class="members-group text" transform="translate(-9.34375, 28.5)"/><g class="methods-group text" transform="translate(-9.34375, 58.5)"/><g class="divider" style=""><path d="M-21.34375 4.5 C-7.562292264405947 4.500322845276383, 6.219165471188106 4.500645690552766, 21.34375 4.501 M-21.34375 4.5 C-6.170771696490373 4.500355443122777, 9.002206607019254 4.500710886245552, 21.34375 4.501" stroke="#1a2e4a" stroke-width="1.3" fill="none" stroke-dasharray="0 0" style=""/></g><g class="divider" style=""><path d="M-21.34375 22.5 C-6.404278832778935 22.50034997297024, 8.53519233444213 22.500699945940486, 21.34375 22.501 M-21.34375 22.5 C-11.027432660506085 22.50024167068438, -0.7111153210121692 22.50048334136876, 21.34375 22.501" stroke="#1a2e4a" stroke-width="1.3" fill="none" stroke-dasharray="0 0" style=""/></g></g><g class="node default" id="my-svg-classId-C3-4" data-look="classic" transform="translate(303.9921875, 323.5)"><g class="basic label-container outer-path"><path d="M-21.5390625 -40.5 L21.5390625 -40.5 L21.5390625 40.5 L-21.5390625 40.5" stroke="none" stroke-width="0" fill="#e5eaf2" style=""/><path d="M-21.5390625 -40.5 C-9.954122984851816 -40.5, 1.630816530296368 -40.5, 21.5390625 -40.5 M-21.5390625 -40.5 C-9.240739039414931 -40.5, 3.0575844211701373 -40.5, 21.5390625 -40.5 M21.5390625 -40.5 C21.5390625 -14.255848435719244, 21.5390625 11.988303128561512, 21.5390625 40.5 M21.5390625 -40.5 C21.5390625 -14.847547266907632, 21.5390625 10.804905466184735, 21.5390625 40.5 M21.5390625 40.5 C6.641919710107862 40.5, -8.255223079784276 40.5, -21.5390625 40.5 M21.5390625 40.5 C11.719523956013436 40.5, 1.8999854120268722 40.5, -21.5390625 40.5 M-21.5390625 40.5 C-21.5390625 21.7368145908869, -21.5390625 2.973629181773802, -21.5390625 -40.5 M-21.5390625 40.5 C-21.5390625 19.855436978663782, -21.5390625 -0.7891260426724358, -21.5390625 -40.5" stroke="#1a2e4a" stroke-width="1.3" fill="none" stroke-dasharray="0 0" style=""/></g><g class="annotation-group text" transform="translate(0, -16.5)"/><g class="label-group text" transform="translate(-9.5390625, -16.5)"><g class="label" style="font-weight: bolder" transform="translate(0,-10.5)"><foreignObject width="19.078125" height="21"><div xmlns="http://www.w3.org/1999/xhtml" style="display: table-cell; white-space: nowrap; line-height: 1.5; max-width: 69px; text-align: center;"><span class="nodeLabel markdown-node-label" style=""><p>C3</p></span></div></foreignObject></g></g><g class="members-group text" transform="translate(-9.5390625, 28.5)"/><g class="methods-group text" transform="translate(-9.5390625, 58.5)"/><g class="divider" style=""><path d="M-21.5390625 4.5 C-9.922509083386853 4.500269662465964, 1.6940443332262944 4.500539324931928, 21.5390625 4.501 M-21.5390625 4.5 C-10.810687706008181 4.500249044608928, -0.08231291201636282 4.5004980892178565, 21.5390625 4.501" stroke="#1a2e4a" stroke-width="1.3" fill="none" stroke-dasharray="0 0" style=""/></g><g class="divider" style=""><path d="M-21.5390625 22.5 C-5.550606250731629 22.500371150235747, 10.437849998536741 22.500742300471494, 21.5390625 22.501 M-21.5390625 22.5 C-7.356638273624613 22.500329225662128, 6.825785952750774 22.50065845132426, 21.5390625 22.501" stroke="#1a2e4a" stroke-width="1.3" fill="none" stroke-dasharray="0 0" style=""/></g></g><g class="node default" id="my-svg-classId-Class07-5" data-look="classic" transform="translate(468.171875, 323.5)"><g class="basic label-container outer-path"><path d="M-92.640625 -67.5 L92.640625 -67.5 L92.640625 67.5 L-92.640625 67.5" stroke="none" stroke-width="0" fill="#e5eaf2" style=""/><path d="M-92.640625 -67.5 C-30.760601344668316 -67.5, 31.119422310663367 -67.5, 92.640625 -67.5 M-92.640625 -67.5 C-35.84336795847557 -67.5, 20.953889083048864 -67.5, 92.640625 -67.5 M92.640625 -67.5 C92.640625 -14.42307661684955, 92.640625 38.6538467663009, 92.640625 67.5 M92.640625 -67.5 C92.640625 -17.94092407304477, 92.640625 31.61815185391046, 92.640625 67.5 M92.640625 67.5 C48.36059774454042 67.5, 4.080570489080841 67.5, -92.640625 67.5 M92.640625 67.5 C47.04922247830246 67.5, 1.4578199566049221 67.5, -92.640625 67.5 M-92.640625 67.5 C-92.640625 28.39329557059363, -92.640625 -10.713408858812741, -92.640625 -67.5 M-92.640625 67.5 C-92.640625 16.139783720212534, -92.640625 -35.22043255957493, -92.640625 -67.5" stroke="#1a2e4a" stroke-width="1.3" fill="none" stroke-dasharray="0 0" style=""/></g><g class="annotation-group text" transform="translate(0, -43.5)"/><g class="label-group text" transform="translate(-26.828125, -43.5)"><g class="label" style="font-weight: bolder" transform="translate(0,-10.5)"><foreignObject width="53.65625" height="21"><div xmlns="http://www.w3.org/1999/xhtml" style="display: table-cell; white-space: nowrap; line-height: 1.5; max-width: 101px; text-align: center;"><span class="nodeLabel markdown-node-label" style=""><p>Class07</p></span></div></foreignObject></g></g><g class="members-group text" transform="translate(-80.640625, 1.5)"><g class="label" style="" transform="translate(0,-10.5)"><foreignObject width="134.453125" height="21"><div xmlns="http://www.w3.org/1999/xhtml" style="display: table-cell; white-space: nowrap; line-height: 1.5; max-width: 189px; text-align: center;"><span class="nodeLabel markdown-node-label" style=""><p>Object[] elementData</p></span></div></foreignObject></g></g><g class="methods-group text" transform="translate(-80.640625, 46.5)"><g class="label" style="" transform="translate(0,-10.5)"><foreignObject width="50.625" height="21"><div xmlns="http://www.w3.org/1999/xhtml" style="display: table-cell; white-space: nowrap; line-height: 1.5; max-width: 102px; text-align: center;"><span class="nodeLabel markdown-node-label" style=""><p>equals()</p></span></div></foreignObject></g></g><g class="divider" style=""><path d="M-92.640625 -22.5 C-39.16868524750432 -22.499711401235945, 14.303254504991358 -22.49942280247189, 92.640625 -22.499 M-92.640625 -22.5 C-18.62966199708211 -22.4996005480155, 55.38130100583578 -22.499201096031, 92.640625 -22.499" stroke="#1a2e4a" stroke-width="1.3" fill="none" stroke-dasharray="0 0" style=""/></g><g class="divider" style=""><path d="M-92.640625 22.5 C-49.26408299605522 22.500234111881284, -5.887540992110445 22.500468223762567, 92.640625 22.501 M-92.640625 22.5 C-35.53611022020604 22.500308204498726, 21.56840455958792 22.500616408997455, 92.640625 22.501" stroke="#1a2e4a" stroke-width="1.3" fill="none" stroke-dasharray="0 0" style=""/></g></g><g class="node default" id="my-svg-classId-Class10-6" data-look="classic" transform="translate(437.51171875, 96.5)"><g class="basic label-container outer-path"><path d="M-44.08203125 -78 L44.08203125 -78 L44.08203125 78 L-44.08203125 78" stroke="none" stroke-width="0" fill="#e5eaf2" style=""/><path d="M-44.08203125 -78 C-24.443506954699437 -78, -4.804982659398874 -78, 44.08203125 -78 M-44.08203125 -78 C-24.031869338442952 -78, -3.9817074268859045 -78, 44.08203125 -78 M44.08203125 -78 C44.08203125 -29.378277978831306, 44.08203125 19.243444042337387, 44.08203125 78 M44.08203125 -78 C44.08203125 -44.25914127257033, 44.08203125 -10.518282545140664, 44.08203125 78 M44.08203125 78 C12.908436941004965 78, -18.26515736799007 78, -44.08203125 78 M44.08203125 78 C15.373369074734324 78, -13.335293100531352 78, -44.08203125 78 M-44.08203125 78 C-44.08203125 24.2191222500983, -44.08203125 -29.561755499803397, -44.08203125 -78 M-44.08203125 78 C-44.08203125 27.179082665787092, -44.08203125 -23.641834668425815, -44.08203125 -78" stroke="#1a2e4a" stroke-width="1.3" fill="none" stroke-dasharray="0 0" style=""/></g><g class="annotation-group text" transform="translate(-29.9140625, -54)"><g class="label" style="" transform="translate(0,-10.5)"><foreignObject width="59.828125" height="21"><div xmlns="http://www.w3.org/1999/xhtml" style="display: table-cell; white-space: nowrap; line-height: 1.5; max-width: 111px; text-align: center;"><span class="nodeLabel markdown-node-label" style=""><p>«service»</p></span></div></foreignObject></g></g><g class="label-group text" transform="translate(-26.21875, -33)"><g class="label" style="font-weight: bolder" transform="translate(0,-10.5)"><foreignObject width="52.4375" height="21"><div xmlns="http://www.w3.org/1999/xhtml" style="display: table-cell; white-space: nowrap; line-height: 1.5; max-width: 101px; text-align: center;"><span class="nodeLabel markdown-node-label" style=""><p>Class10</p></span></div></foreignObject></g></g><g class="members-group text" transform="translate(-32.08203125, 12)"><g class="label" style="" transform="translate(0,-10.5)"><foreignObject width="30.4375" height="21"><div xmlns="http://www.w3.org/1999/xhtml" style="display: table-cell; white-space: nowrap; line-height: 1.5; max-width: 84px; text-align: center;"><span class="nodeLabel markdown-node-label" style=""><p>int id</p></span></div></foreignObject></g></g><g class="methods-group text" transform="translate(-32.08203125, 57)"><g class="label" style="" transform="translate(0,-10.5)"><foreignObject width="34.25" height="21"><div xmlns="http://www.w3.org/1999/xhtml" style="display: table-cell; white-space: nowrap; line-height: 1.5; max-width: 86px; text-align: center;"><span class="nodeLabel markdown-node-label" style=""><p>size()</p></span></div></foreignObject></g></g><g class="divider" style=""><path d="M-44.08203125 -12 C-14.053341112853197 -11.999659399881475, 15.975349024293607 -11.99931879976295, 44.08203125 -11.999 M-44.08203125 -12 C-25.022094764436666 -11.999783812860422, -5.962158278873332 -11.999567625720841, 44.08203125 -11.999" stroke="#1a2e4a" stroke-width="1.3" fill="none" stroke-dasharray="0 0" style=""/></g><g class="divider" style=""><path d="M-44.08203125 33 C-18.76879453726226 33.000287115135066, 6.544442175475481 33.00057423027013, 44.08203125 33.001 M-44.08203125 33 C-17.849750257530694 33.00029753938565, 8.382530734938612 33.0005950787713, 44.08203125 33.001" stroke="#1a2e4a" stroke-width="1.3" fill="none" stroke-dasharray="0 0" style=""/></g></g></g></g></g><defs><filter id="my-svg-drop-shadow" height="130%" width="130%"><feDropShadow dx="4" dy="4" stdDeviation="0" flood-opacity="0.06" flood-color="#000000"/></filter></defs><defs><filter id="my-svg-drop-shadow-small" height="150%" width="150%"><feDropShadow dx="2" dy="2" stdDeviation="0" flood-opacity="0.06" flood-color="#000000"/></filter></defs><linearGradient id="my-svg-gradient" gradientUnits="objectBoundingBox" x1="0%" y1="0%" x2="100%" y2="0%"><stop offset="0%" stop-color="#1a2e4a" stop-opacity="1"/><stop offset="100%" stop-color="hsl(48.2926829268, 60%, 81.9607843137%)" stop-opacity="1"/></linearGradient></svg>