<svg id="my-svg" width="100%" xmlns="http://www.w3.org/2000/svg" xmlns:xlink="http://www.w3.org/1999/xlink" class="classDiagram" style="max-width: 568.812px; background-color: transparent;" viewBox="0 0 568.8125 399" role="graphics-document document" aria-roledescription="class"><style>#my-svg{font-family:'Pretendard Variable',Pretendard,'Malgun Gothic',sans-serif;font-size:14px;fill:#111418;}@keyframes edge-animation-frame{from{stroke-dashoffset:0;}}@keyframes dash{to{stroke-dashoffset:0;}}#my-svg .edge-animation-slow{stroke-dasharray:9,5!important;stroke-dashoffset:900;animation:dash 50s linear infinite;stroke-linecap:round;}#my-svg .edge-animation-fast{stroke-dasharray:9,5!important;stroke-dashoffset:900;animation:dash 20s linear infinite;stroke-linecap:round;}#my-svg .error-icon{fill:#f7f5ef;}#my-svg .error-text{fill:#080a10;stroke:#080a10;}#my-svg .edge-thickness-normal{stroke-width:1px;}#my-svg .edge-thickness-thick{stroke-width:3.5px;}#my-svg .edge-pattern-solid{stroke-dasharray:0;}#my-svg .edge-thickness-invisible{stroke-width:0;fill:none;}#my-svg .edge-pattern-dashed{stroke-dasharray:3;}#my-svg .edge-pattern-dotted{stroke-dasharray:2;}#my-svg .marker{fill:#3a414a;stroke:#3a414a;}#my-svg .marker.cross{stroke:#3a414a;}#my-svg svg{font-family:'Pretendard Variable',Pretendard,'Malgun Gothic',sans-serif;font-size:14px;}#my-svg p{margin:0;}#my-svg g.classGroup text{fill:#1a2e4a;stroke:none;font-family:'Pretendard Variable',Pretendard,'Malgun Gothic',sans-serif;font-size:10px;}#my-svg g.classGroup text .title{font-weight:bolder;}#my-svg .cluster-label text{fill:#080a10;}#my-svg .cluster-label span{color:#080a10;}#my-svg .cluster-label span p{background-color:transparent;}#my-svg .cluster rect{fill:#f7f5ef;stroke:hsl(45, 0%, 85.2941176471%);stroke-width:1px;}#my-svg .cluster text{fill:#080a10;}#my-svg .cluster span{color:#080a10;}#my-svg .nodeLabel,#my-svg .edgeLabel{color:#111418;}#my-svg .noteLabel .nodeLabel,#my-svg .noteLabel .edgeLabel{color:#333;}#my-svg .edgeLabel .label rect{fill:#e5eaf2;}#my-svg .label text{fill:#111418;}#my-svg .labelBkg{background:#e5eaf2;}#my-svg .edgeLabel .label span{background:#e5eaf2;}#my-svg .classTitle{font-weight:bolder;}#my-svg .node rect,#my-svg .node circle,#my-svg .node ellipse,#my-svg .node polygon,#my-svg .node path{fill:#e5eaf2;stroke:#1a2e4a;stroke-width:1;}#my-svg .divider{stroke:#1a2e4a;stroke-width:1;}#my-svg g.clickable{cursor:pointer;}#my-svg g.classGroup rect{fill:#e5eaf2;stroke:#1a2e4a;}#my-svg g.classGroup line{stroke:#1a2e4a;stroke-width:1;}#my-svg .classLabel .box{stroke:none;stroke-width:0;fill:#e5eaf2;opacity:0.5;}#my-svg .classLabel .label{fill:#1a2e4a;font-size:10px;}#my-svg .relation{stroke:#3a414a;stroke-width:1;fill:none;}#my-svg .dashed-line{stroke-dasharray:3;}#my-svg .dotted-line{stroke-dasharray:1 2;}#my-svg [id$="-compositionStart"],#my-svg .composition{fill:#3a414a!important;stroke:#3a414a!important;stroke-width:1;}#my-svg [id$="-compositionEnd"],#my-svg .composition{fill:#3a414a!important;stroke:#3a414a!important;stroke-width:1;}#my-svg [id$="-dependencyStart"],#my-svg .dependency{fill:#3a414a!important;stroke:#3a414a!important;stroke-width:1;}#my-svg [id$="-dependencyEnd"],#my-svg .dependency{fill:#3a414a!important;stroke:#3a414a!important;stroke-width:1;}#my-svg [id$="-extensionStart"],#my-svg .extension{fill:transparent!important;stroke:#3a414a!important;stroke-width:1;}#my-svg [id$="-extensionEnd"],#my-svg .extension{fill:transparent!important;stroke:#3a414a!important;stroke-width:1;}#my-svg [id$="-aggregationStart"],#my-svg .aggregation{fill:transparent!important;stroke:#3a414a!important;stroke-width:1;}#my-svg [id$="-aggregationEnd"],#my-svg .aggregation{fill:transparent!important;stroke:#3a414a!important;stroke-width:1;}#my-svg [id$="-lollipopStart"],#my-svg .lollipop{fill:#e5eaf2!important;stroke:#3a414a!important;stroke-width:1;}#my-svg [id$="-lollipopEnd"],#my-svg .lollipop{fill:#e5eaf2!important;stroke:#3a414a!important;stroke-width:1;}#my-svg .edgeTerminals{font-size:11px;line-height:initial;}#my-svg .classTitleText{text-anchor:middle;font-size:18px;fill:#111418;}#my-svg .edgeLabel[data-look="neo"]{background-color:#ffffff;text-align:center;}#my-svg .edgeLabel[data-look="neo"] p{background-color:#ffffff;}#my-svg .edgeLabel[data-look="neo"] rect{opacity:0.5;background-color:#ffffff;fill:#ffffff;}#my-svg .label-icon{display:inline-block;height:1em;overflow:visible;vertical-align:-0.125em;}#my-svg .node .label-icon path{fill:currentColor;stroke:revert;stroke-width:revert;}#my-svg .node .neo-node{stroke:#1a2e4a;}#my-svg [data-look="neo"].node rect,#my-svg [data-look="neo"].cluster rect,#my-svg [data-look="neo"].node polygon{stroke:url(#my-svg-gradient);filter:drop-shadow( 1px 2px 2px rgba(185,185,185,1));}#my-svg [data-look="neo"].node path{stroke:url(#my-svg-gradient);stroke-width:1px;}#my-svg [data-look="neo"].node .outer-path{filter:drop-shadow( 1px 2px 2px rgba(185,185,185,1));}#my-svg [data-look="neo"].node .neo-line path{stroke:#1a2e4a;filter:none;}#my-svg [data-look="neo"].node circle{stroke:url(#my-svg-gradient);filter:drop-shadow( 1px 2px 2px rgba(185,185,185,1));}#my-svg [data-look="neo"].node circle .state-start{fill:#000000;}#my-svg [data-look="neo"].icon-shape .icon{fill:url(#my-svg-gradient);filter:drop-shadow( 1px 2px 2px rgba(185,185,185,1));}#my-svg [data-look="neo"].icon-shape .icon-neo path{stroke:url(#my-svg-gradient);filter:drop-shadow( 1px 2px 2px rgba(185,185,185,1));}#my-svg :root{--mermaid-font-family:"trebuchet ms",verdana,arial,sans-serif;}</style><g><defs><marker id="my-svg_class-aggregationStart" class="marker aggregation class" refX="18" refY="7" markerWidth="190" markerHeight="240" orient="auto"><path d="M 18,7 L9,13 L1,7 L9,1 Z"/></marker></defs><defs><marker id="my-svg_class-aggregationEnd" class="marker aggregation class" refX="1" refY="7" markerWidth="20" markerHeight="28" orient="auto"><path d="M 18,7 L9,13 L1,7 L9,1 Z"/></marker></defs><defs><marker id="my-svg_class-aggregationStart-margin" class="marker aggregation class" refX="15" refY="7" markerWidth="190" markerHeight="240" orient="auto" markerUnits="userSpaceOnUse"><path d="M 18,7 L9,13 L1,7 L9,1 Z" style="stroke-width: 2;"/></marker></defs><defs><marker id="my-svg_class-aggregationEnd-margin" class="marker aggregation class" refX="1" refY="7" markerWidth="20" markerHeight="28" orient="auto" markerUnits="userSpaceOnUse"><path d="M 18,7 L9,13 L1,7 L9,1 Z" style="stroke-width: 2;"/></marker></defs><defs><marker id="my-svg_class-extensionStart" class="marker extension class" refX="18" refY="7" markerWidth="190" markerHeight="240" orient="auto" markerUnits="userSpaceOnUse"><path d="M 1,7 L18,13 V 1 Z"/></marker></defs><defs><marker id="my-svg_class-extensionEnd" class="marker extension class" refX="1" refY="7" markerWidth="20" markerHeight="28" orient="auto"><path d="M 1,1 V 13 L18,7 Z"/></marker></defs><marker id="my-svg_class-extensionStart-margin" class="marker extension class" refX="18" refY="7" markerWidth="20" markerHeight="28" orient="auto" markerUnits="userSpaceOnUse" viewBox="0 0 20 14"><polygon points="10,7 18,13 18,1" style="stroke-width: 2; stroke-dasharray: 0;"/></marker><defs><marker id="my-svg_class-extensionEnd-margin" class="marker extension class" refX="9" refY="7" markerWidth="20" markerHeight="28" orient="auto" markerUnits="userSpaceOnUse" viewBox="0 0 20 14"><polygon points="10,1 10,13 18,7" style="stroke-width: 2; stroke-dasharray: 0;"/></marker></defs><defs><marker id="my-svg_class-compositionStart" class="marker composition class" refX="18" refY="7" markerWidth="190" markerHeight="240" orient="auto"><path d="M 18,7 L9,13 L1,7 L9,1 Z"/></marker></defs><defs><marker id="my-svg_class-compositionEnd" class="marker composition class" refX="1" refY="7" markerWidth="20" markerHeight="28" orient="auto"><path d="M 18,7 L9,13 L1,7 L9,1 Z"/></marker></defs><defs><marker id="my-svg_class-compositionStart-margin" class="marker composition class" refX="15" refY="7" markerWidth="190" markerHeight="240" orient="auto" markerUnits="userSpaceOnUse"><path viewBox="0 0 15 15" d="M 18,7 L9,13 L1,7 L9,1 Z" style="stroke-width: 0;"/></marker></defs><defs><marker id="my-svg_class-compositionEnd-margin" class="marker composition class" refX="3.5" refY="7" markerWidth="20" markerHeight="28" orient="auto" markerUnits="userSpaceOnUse"><path d="M 18,7 L9,13 L1,7 L9,1 Z" style="stroke-width: 0;"/></marker></defs><defs><marker id="my-svg_class-dependencyStart" class="marker dependency class" refX="6" refY="7" markerWidth="190" markerHeight="240" orient="auto"><path d="M 5,7 L9,13 L1,7 L9,1 Z"/></marker></defs><defs><marker id="my-svg_class-dependencyEnd" class="marker dependency class" refX="13" refY="7" markerWidth="20" markerHeight="28" orient="auto"><path d="M 18,7 L9,13 L14,7 L9,1 Z"/></marker></defs><defs><marker id="my-svg_class-dependencyStart-margin" class="marker dependency class" refX="4" refY="7" markerWidth="190" markerHeight="240" orient="auto" markerUnits="userSpaceOnUse"><path d="M 5,7 L9,13 L1,7 L9,1 Z" style="stroke-width: 0;"/></marker></defs><defs><marker id="my-svg_class-dependencyEnd-margin" class="marker dependency class" refX="16" refY="7" markerWidth="20" markerHeight="28" orient="auto" markerUnits="userSpaceOnUse"><path d="M 18,7 L9,13 L14,7 L9,1 Z" style="stroke-width: 0;"/></marker></defs><defs><marker id="my-svg_class-lollipopStart" class="marker lollipop class" refX="13" refY="7" markerWidth="190" markerHeight="240" orient="auto"><circle fill="transparent" cx="7" cy="7" r="6"/></marker></defs><defs><marker id="my-svg_class-lollipopEnd" class="marker lollipop class" refX="1" refY="7" markerWidth="190" markerHeight="240" orient="auto"><circle fill="transparent" cx="7" cy="7" r="6"/></marker></defs><defs><marker id="my-svg_class-lollipopStart-margin" class="marker lollipop class" refX="13" refY="7" markerWidth="190" markerHeight="240" orient="auto" markerUnits="userSpaceOnUse"><circle fill="transparent" cx="7" cy="7" r="6" stroke-width="2"/></marker></defs><defs><marker id="my-svg_class-lollipopEnd-margin" class="marker lollipop class" refX="1" refY="7" markerWidth="190" markerHeight="240" orient="auto" markerUnits="userSpaceOnUse"><circle fill="transparent" cx="7" cy="7" r="6" stroke-width="2"/></marker></defs><g class="root"><g class="clusters"/><g class="edgePaths"><path d="M73.883,202.25L73.883,205.292C73.883,208.333,73.883,214.417,73.883,227.875C73.883,241.333,73.883,262.167,73.883,272.583L73.883,283" id="my-svg-id_Class01_AveryLongClass_1" class="edge-thickness-normal edge-pattern-solid relation" style=";;;" data-edge="true" data-et="edge" data-id="id_Class01_AveryLongClass_1" data-points="W3sieCI6NzMuODgyODEyNSwieSI6MTg1fSx7IngiOjczLjg4MjgxMjUsInkiOjIyMC41fSx7IngiOjczLjg4MjgxMjUsInkiOjI4M31d" data-look="classic" marker-start="url(#my-svg_class-extensionStart)"/><path d="M273.655,137L263.231,150.917C252.807,164.833,231.958,192.667,221.534,216C211.109,239.333,211.109,258.167,211.109,267.583L211.109,277" id="my-svg-id_Class09_C2_2" class="edge-thickness-normal edge-pattern-solid relation" style=";;;" data-edge="true" data-et="edge" data-id="id_Class09_C2_2" data-points="W3sieCI6MjczLjY1NTQ2MjQ0OTU5Njc3LCJ5IjoxMzd9LHsieCI6MjExLjEwOTM3NSwieSI6MjIwLjV9LHsieCI6MjExLjEwOTM3NSwieSI6MjgzfV0=" data-look="classic" marker-end="url(#my-svg_class-dependencyEnd)"/><path d="M303.992,137L303.992,150.917C303.992,164.833,303.992,192.667,303.992,214.125C303.992,235.583,303.992,250.667,303.992,258.208L303.992,265.75" id="my-svg-id_Class09_C3_3" class="edge-thickness-normal edge-pattern-solid relation" style=";;;" data-edge="true" data-et="edge" data-id="id_Class09_C3_3" data-points="W3sieCI6MzAzLjk5MjE4NzUsInkiOjEzN30seyJ4IjozMDMuOTkyMTg3NSwieSI6MjIwLjV9LHsieCI6MzAzLjk5MjE4NzUsInkiOjI4M31d" data-look="classic" marker-end="url(#my-svg_class-compositionEnd)"/><path d="M343.43,126.286L364.22,141.988C385.01,157.691,426.591,189.095,447.382,207.839C468.172,226.583,468.172,232.667,468.172,235.708L468.172,238.75" id="my-svg-id_Class09_Class07_4" class="edge-thickness-normal edge-pattern-solid relation" style=";;;" data-edge="true" data-et="edge" data-id="id_Class09_Class07_4" data-points="W3sieCI6MzQzLjQyOTY4NzUsInkiOjEyNi4yODU5NjI0MDc4MDM5NX0seyJ4Ijo0NjguMTcxODc1LCJ5IjoyMjAuNX0seyJ4Ijo0NjguMTcxODc1LCJ5IjoyNTZ9XQ==" data-look="classic" marker-end="url(#my-svg_class-extensionEnd)"/></g><g class="edgeLabels"><g class="edgeLabel" transform="translate(73.8828125, 220.5)"><g class="label" data-id="id_Class01_AveryLongClass_1" transform="translate(-14.328125, -10.5)"><foreignObject width="28.65625" height="21"><div xmlns="http://www.w3.org/1999/xhtml" class="labelBkg" style="display: table-cell; white-space: nowrap; line-height: 1.5; max-width: 200px; text-align: center;"><span class="edgeLabel"><p>Cool</p></span></div></foreignObject></g></g><g class="edgeLabel" transform="translate(211.109375, 220.5)"><g class="label" data-id="id_Class09_C2_2" transform="translate(-38.578125, -10.5)"><foreignObject width="77.15625" height="21"><div xmlns="http://www.w3.org/1999/xhtml" class="labelBkg" style="display: table-cell; white-space: nowrap; line-height: 1.5; max-width: 200px; text-align: center;"><span class="edgeLabel"><p>Where am I?</p></span></div></foreignObject></g></g><g class="edgeLabel"><g class="label" data-id="id_Class09_C3_3" transform="translate(0, 0)"><foreignObject width="0" height="0"><div xmlns="http://www.w3.org/1999/xhtml" class="labelBkg" style="display: table-cell; white-space: nowrap; line-height: 1.5; max-width: 200px; text-align: center;"><span class="edgeLabel"></span></div></foreignObject></g></g><g class="edgeLabel"><g class="label" data-id="id_Class09_Class07_4" transform="translate(0, 0)"><foreignObject width="0" height="0"><div xmlns="http://www.w3.org/1999/xhtml" class="labelBkg" style="display: table-cell; white-space: nowrap; line-height: 1.5; max-width: 200px; text-align: center;"><span class="edgeLabel"></span></div></foreignObject></g></g></g><g class="nodes"><g class="node default" id="my-svg-classId-Class01-0" data-look="classic" transform="translate(73.8828125, 96.5)"><g class="basic label-container outer-path"><path d="M-58.25 -88.5 L58.25 -88.5 L58.25 88.5 L-58.25 88.5" stroke="none" stroke-width="0" fill="#e5eaf2" style=""/><path d="M-58.25 -88.5 C-22.40356791668121 -88.5, 13.442864166637577 -88.5, 58.25 -88.5 M-58.25 -88.5 C-32.54858434962433 -88.5, -6.847168699248655 -88.5, 58.25 -88.5 M58.25 -88.5 C58.25 -32.8443147917158, 58.25 22.811370416568394, 58.25 88.5 M58.25 -88.5 C58.25 -20.563341317293265, 58.25 47.37331736541347, 58.25 88.5 M58.25 88.5 C17.870189360982103 88.5, -22.509621278035794 88.5, -58.25 88.5 M58.25 88.5 C21.105989057474687 88.5, -16.038021885050625 88.5, -58.25 88.5 M-58.25 88.5 C-58.25 25.783419190163286, -58.25 -36.93316161967343, -58.25 -88.5 M-58.25 88.5 C-58.25 41.87006805246919, -58.25 -4.7598638950616134, -58.25 -88.5" stroke="#1a2e4a" stroke-width="1.3" fill="none" stroke-dasharray="0 0" style=""/></g><g class="annotation-group text" transform="translate(-35.265625, -64.5)"><g class="label" style="" transform="translate(0,-10.5)"><foreignObject width="70.53125" height="21"><div xmlns="http://www.w3.org/1999/xhtml" style="display: table-cell; white-space: nowrap; line-height: 1.5; max-width: 123px; text-align: center;"><span class="nodeLabel markdown-node-label" style=""><p>«Interface»</p></span></div></foreignObject></g></g><g class="label-group text" transform="translate(-26.21875, -43.5)"><g class="label" style="font-weight: bolder" transform="translate(0,-10.5)"><foreignObject width="52.4375" height="21"><div xmlns="http://www.w3.org/1999/xhtml" style="display: table-cell; white-space: nowrap; line-height: 1.5; max-width: 101px; text-align: center;"><span class="nodeLabel markdown-node-label" style=""><p>Class01</p></span></div></foreignObject></g></g><g class="members-group text" transform="translate(-46.25, 1.5)"><g class="label" style="" transform="translate(0,-10.5)"><foreignObject width="57.234375" height="21"><div xmlns="http://www.w3.org/1999/xhtml" style="display: table-cell; white-space: nowrap; line-height: 1.5; max-width: 111px; text-align: center;"><span class="nodeLabel markdown-node-label" style=""><p>int chimp</p></span></div></foreignObject></g><g class="label" style="" transform="translate(0,10.5)"><foreignObject width="56.703125" height="21"><div xmlns="http://www.w3.org/1999/xhtml" style="display: table-cell; white-space: nowrap; line-height: 1.5; max-width: 114px; text-align: center;"><span class="nodeLabel markdown-node-label" style=""><p>int gorilla</p></span></div></foreignObject></g></g><g class="methods-group text" transform="translate(-46.25, 67.5)"><g class="label" style="" transform="translate(0,-10.5)"><foreignObject width="34.25" height="21"><div xmlns="http://www.w3.org/1999/xhtml" style="display: table-cell; white-space: nowrap; line-height: 1.5; max-width: 86px; text-align: center;"><span class="nodeLabel markdown-node-label" style=""><p>size()</p></span></div></foreignObject></g></g><g class="divider" style=""><path d="M-58.25 -22.5 C-14.426897807105817 -22.49962383603268, 29.396204385788366 -22.49924767206536, 58.25 -22.499 M-58.25 -22.5 C-29.189678139339232 -22.49975055517716, -0.12935627867846478 -22.499501110354323, 58.25 -22.499" stroke="#1a2e4a" stroke-width="1.3" fill="none" stroke-dasharray="0 0" style=""/></g><g class="divider" style=""><path d="M-58.25 43.5 C-33.447823431525045 43.50021289421947, -8.64564686305009 43.500425788438946, 58.25 43.501 M-58.25 43.5 C-29.647291723023617 43.500245516809244, -1.044583446047234 43.50049103361849, 58.25 43.501" stroke="#1a2e4a" stroke-width="1.3" fill="none" stroke-dasharray="0 0" style=""/></g></g><g class="node default" id="my-svg-classId-AveryLongClass-1" data-look="classic" transform="translate(73.8828125, 323.5)"><g class="basic label-container outer-path"><path d="M-65.8828125 -40.5 L65.8828125 -40.5 L65.8828125 40.5 L-65.8828125 40.5" stroke="none" stroke-width="0" fill="#e5eaf2" style=""/><path d="M-65.8828125 -40.5 C-31.53448086133257 -40.5, 2.8138507773348636 -40.5, 65.8828125 -40.5 M-65.8828125 -40.5 C-29.181833282575006 -40.5, 7.519145934849988 -40.5, 65.8828125 -40.5 M65.8828125 -40.5 C65.8828125 -15.989033307266077, 65.8828125 8.521933385467847, 65.8828125 40.5 M65.8828125 -40.5 C65.8828125 -23.352267615167058, 65.8828125 -6.204535230334116, 65.8828125 40.5 M65.8828125 40.5 C14.50068976386487 40.5, -36.88143297227026 40.5, -65.8828125 40.5 M65.8828125 40.5 C16.074789770210984 40.5, -33.73323295957803 40.5, -65.8828125 40.5 M-65.8828125 40.5 C-65.8828125 19.331863586255757, -65.8828125 -1.8362728274884859, -65.8828125 -40.5 M-65.8828125 40.5 C-65.8828125 20.506233531132416, -65.8828125 0.5124670622648324, -65.8828125 -40.5" stroke="#1a2e4a" stroke-width="1.3" fill="none" stroke-dasharray="0 0" style=""/></g><g class="annotation-group text" transform="translate(0, -16.5)"/><g class="label-group text" transform="translate(-53.8828125, -16.5)"><g class="label" style="font-weight: bolder" transform="translate(0,-10.5)"><foreignObject width="107.765625" height="21"><div xmlns="http://www.w3.org/1999/xhtml" style="display: table-cell; white-space: nowrap; line-height: 1.5; max-width: 158px; text-align: center;"><span class="nodeLabel markdown-node-label" style=""><p>AveryLongClass</p></span></div></foreignObject></g></g><g class="members-group text" transform="translate(-53.8828125, 28.5)"/><g class="methods-group text" transform="translate(-53.8828125, 58.5)"/><g class="divider" style=""><path d="M-65.8828125 4.5 C-30.958849348298976 4.5002650460858185, 3.9651138034020477 4.500530092171638, 65.8828125 4.501 M-65.8828125 4.5 C-15.747309937150348 4.500380489999292, 34.388192625699304 4.500760979998582, 65.8828125 4.501" stroke="#1a2e4a" stroke-width="1.3" fill="none" stroke-dasharray="0 0" style=""/></g><g class="divider" style=""><path d="M-65.8828125 22.5 C-15.527050880703172 22.50038216159654, 34.82871073859366 22.500764323193085, 65.8828125 22.501 M-65.8828125 22.5 C-29.94365353059336 22.500272750643195, 5.995505438813282 22.500545501286386, 65.8828125 22.501" stroke="#1a2e4a" stroke-width="1.3" fill="none" stroke-dasharray="0 0" style=""/></g></g><g class="node default" id="my-svg-classId-Class09-2" data-look="classic" transform="translate(303.9921875, 96.5)"><g class="basic label-container outer-path"><path d="M-39.4375 -40.5 L39.4375 -40.5 L39.4375 40.5 L-39.4375 40.5" stroke="none" stroke-width="0" fill="#e5eaf2" style=""/><path d="M-39.4375 -40.5 C-13.661164119066264 -40.5, 12.115171761867472 -40.5, 39.4375 -40.5 M-39.4375 -40.5 C-19.710752734964135 -40.5, 0.015994530071729685 -40.5, 39.4375 -40.5 M39.4375 -40.5 C39.4375 -23.15772846918098, 39.4375 -5.815456938361962, 39.4375 40.5 M39.4375 -40.5 C39.4375 -10.36679955427644, 39.4375 19.76640089144712, 39.4375 40.5 M39.4375 40.5 C9.28998691992717 40.5, -20.85752616014566 40.5, -39.4375 40.5 M39.4375 40.5 C16.553266572077188 40.5, -6.330966855845624 40.5, -39.4375 40.5 M-39.4375 40.5 C-39.4375 16.729698637471515, -39.4375 -7.040602725056971, -39.4375 -40.5 M-39.4375 40.5 C-39.4375 11.620644653005272, -39.4375 -17.258710693989457, -39.4375 -40.5" stroke="#1a2e4a" stroke-width="1.3" fill="none" stroke-dasharray="0 0" style=""/></g><g class="annotation-group text" transform="translate(0, -16.5)"/><g class="label-group text" transform="translate(-27.4375, -16.5)"><g class="label" style="font-weight: bolder" transform="translate(0,-10.5)"><foreignObject width="54.875" height="21"><div xmlns="http://www.w3.org/1999/xhtml" style="display: table-cell; white-space: nowrap; line-height: 1.5; max-width: 101px; text-align: center;"><span class="nodeLabel markdown-node-label" style=""><p>Class09</p></span></div></foreignObject></g></g><g class="members-group text" transform="translate(-27.4375, 28.5)"/><g class="methods-group text" transform="translate(-27.4375, 58.5)"/><g class="divider" style=""><path d="M-39.4375 4.5 C-9.9983065195918 4.500373238586122, 19.4408869608164 4.500746477172245, 39.4375 4.501 M-39.4375 4.5 C-18.031870042313678 4.5002713867506525, 3.373759915372645 4.500542773501304, 39.4375 4.501" stroke="#1a2e4a" stroke-width="1.3" fill="none" stroke-dasharray="0 0" style=""/></g><g class="divider" style=""><path d="M-39.4375 22.5 C-15.604169752780209 22.500302165835148, 8.229160494439583 22.500604331670296, 39.4375 22.501 M-39.4375 22.5 C-13.634157522012757 22.50032714221842, 12.169184955974487 22.500654284436845, 39.4375 22.501" stroke="#1a2e4a" stroke-width="1.3" fill="none" stroke-dasharray="0 0" style=""/></g></g><g class="node default" id="my-svg-classId-C2-3" data-look="classic" transform="translate(211.109375, 323.5)"><g class="basic label-container outer-path"><path d="M-21.34375 -40.5 L21.34375 -40.5 L21.34375 40.5 L-21.34375 40.5" stroke="none" stroke-width="0" fill="#e5eaf2" style=""/><path d="M-21.34375 -40.5 C-7.616565999892046 -40.5, 6.110618000215908 -40.5, 21.34375 -40.5 M-21.34375 -40.5 C-11.901163031907679 -40.5, -2.4585760638153573 -40.5, 21.34375 -40.5 M21.34375 -40.5 C21.34375 -16.315279565746323, 21.34375 7.869440868507354, 21.34375 40.5 M21.34375 -40.5 C21.34375 -24.217174297138108, 21.34375 -7.934348594276216, 21.34375 40.5 M21.34375 40.5 C9.899190896943924 40.5, -1.5453682061121512 40.5, -21.34375 40.5 M21.34375 40.5 C5.928009003508693 40.5, -9.487731992982614 40.5, -21.34375 40.5 M-21.34375 40.5 C-21.34375 17.836390522316705, -21.34375 -4.82721895536659, -21.34375 -40.5 M-21.34375 40.5 C-21.34375 17.960715221142443, -21.34375 -4.578569557715113, -21.34375 -40.5" stroke="#1a2e4a" stroke-width="1.3" fill="none" stroke-dasharray="0 0" style=""/></g><g class="annotation-group text" transform="translate(0, -16.5)"/><g class="label-group text" transform="translate(-9.34375, -16.5)"><g class="label" style="font-weight: bolder" transform="translate(0,-10.5)"><foreignObject width="18.6875" height="21"><div xmlns="http://www.w3.org/1999/xhtml" style="display: table-cell; white-space: nowrap; line-height: 1.5; max-width: 69px; text-align: center;"><span class="nodeLabel markdown-node-label" style=""><p>C2</p></span></div></foreignObject></g></g><g class="members-group text" transform="translate(-9.34375, 28.5)"/><g class="methods-group text" transform="translate(-9.34375, 58.5)"/><g class="divider" style=""><path d="M-21.34375 4.5 C-10.638411282175534 4.500250783923112, 0.06692743564893178 4.500501567846223, 21.34375 4.501 M-21.34375 4.5 C-12.33617827238324 4.500211011929197, -3.3286065447664797 4.500422023858395, 21.34375 4.501" stroke="#1a2e4a" stroke-width="1.3" fill="none" stroke-dasharray="0 0" style=""/></g><g class="divider" style=""><path d="M-21.34375 22.5 C-8.668165189388926 22.500296939029237, 4.007419621222148 22.500593878058478, 21.34375 22.501 M-21.34375 22.5 C-10.590903913679721 22.500251896833646, 0.16194217264055766 22.500503793667296, 21.34375 22.501" stroke="#1a2e4a" stroke-width="1.3" fill="none" stroke-dasharray="0 0" style=""/></g></g><g class="node default" id="my-svg-classId-C3-4" data-look="classic" transform="translate(303.9921875, 323.5)"><g class="basic label-container outer-path"><path d="M-21.5390625 -40.5 L21.5390625 -40.5 L21.5390625 40.5 L-21.5390625 40.5" stroke="none" stroke-width="0" fill="#e5eaf2" style=""/><path d="M-21.5390625 -40.5 C-11.974130637562666 -40.5, -2.4091987751253328 -40.5, 21.5390625 -40.5 M-21.5390625 -40.5 C-6.262339519986222 -40.5, 9.014383460027556 -40.5, 21.5390625 -40.5 M21.5390625 -40.5 C21.5390625 -24.266747259806966, 21.5390625 -8.033494519613932, 21.5390625 40.5 M21.5390625 -40.5 C21.5390625 -23.47770067915385, 21.5390625 -6.455401358307697, 21.5390625 40.5 M21.5390625 40.5 C4.6028185622023905 40.5, -12.333425375595219 40.5, -21.5390625 40.5 M21.5390625 40.5 C7.167928543933323 40.5, -7.203205412133354 40.5, -21.5390625 40.5 M-21.5390625 40.5 C-21.5390625 20.735989664452966, -21.5390625 0.9719793289059311, -21.5390625 -40.5 M-21.5390625 40.5 C-21.5390625 20.093012842939757, -21.5390625 -0.31397431412048604, -21.5390625 -40.5" stroke="#1a2e4a" stroke-width="1.3" fill="none" stroke-dasharray="0 0" style=""/></g><g class="annotation-group text" transform="translate(0, -16.5)"/><g class="label-group text" transform="translate(-9.5390625, -16.5)"><g class="label" style="font-weight: bolder" transform="translate(0,-10.5)"><foreignObject width="19.078125" height="21"><div xmlns="http://www.w3.org/1999/xhtml" style="display: table-cell; white-space: nowrap; line-height: 1.5; max-width: 69px; text-align: center;"><span class="nodeLabel markdown-node-label" style=""><p>C3</p></span></div></foreignObject></g></g><g class="members-group text" transform="translate(-9.5390625, 28.5)"/><g class="methods-group text" transform="translate(-9.5390625, 58.5)"/><g class="divider" style=""><path d="M-21.5390625 4.5 C-8.26690067689855 4.500308095160203, 5.005261146202901 4.500616190320406, 21.5390625 4.501 M-21.5390625 4.5 C-5.289502515647438 4.500377211403337, 10.960057468705124 4.500754422806673, 21.5390625 4.501" stroke="#1a2e4a" stroke-width="1.3" fill="none" stroke-dasharray="0 0" style=""/></g><g class="divider" style=""><path d="M-21.5390625 22.5 C-8.405721270696326 22.50030487262919, 4.727619958607349 22.50060974525838, 21.5390625 22.501 M-21.5390625 22.5 C-9.682754814276015 22.50027522803478, 2.1735528714479706 22.500550456069558, 21.5390625 22.501" stroke="#1a2e4a" stroke-width="1.3" fill="none" stroke-dasharray="0 0" style=""/></g></g><g class="node default" id="my-svg-classId-Class07-5" data-look="classic" transform="translate(468.171875, 323.5)"><g class="basic label-container outer-path"><path d="M-92.640625 -67.5 L92.640625 -67.5 L92.640625 67.5 L-92.640625 67.5" stroke="none" stroke-width="0" fill="#e5eaf2" style=""/><path d="M-92.640625 -67.5 C-52.334893383634096 -67.5, -12.029161767268192 -67.5, 92.640625 -67.5 M-92.640625 -67.5 C-51.633174401174365 -67.5, -10.62572380234873 -67.5, 92.640625 -67.5 M92.640625 -67.5 C92.640625 -20.26150574522397, 92.640625 26.976988509552058, 92.640625 67.5 M92.640625 -67.5 C92.640625 -26.101142226112053, 92.640625 15.297715547775894, 92.640625 67.5 M92.640625 67.5 C35.67230404302463 67.5, -21.296016913950737 67.5, -92.640625 67.5 M92.640625 67.5 C30.7604761282713 67.5, -31.1196727434574 67.5, -92.640625 67.5 M-92.640625 67.5 C-92.640625 16.10487701660434, -92.640625 -35.29024596679132, -92.640625 -67.5 M-92.640625 67.5 C-92.640625 28.91646268567297, -92.640625 -9.667074628654063, -92.640625 -67.5" stroke="#1a2e4a" stroke-width="1.3" fill="none" stroke-dasharray="0 0" style=""/></g><g class="annotation-group text" transform="translate(0, -43.5)"/><g class="label-group text" transform="translate(-26.828125, -43.5)"><g class="label" style="font-weight: bolder" transform="translate(0,-10.5)"><foreignObject width="53.65625" height="21"><div xmlns="http://www.w3.org/1999/xhtml" style="display: table-cell; white-space: nowrap; line-height: 1.5; max-width: 101px; text-align: center;"><span class="nodeLabel markdown-node-label" style=""><p>Class07</p></span></div></foreignObject></g></g><g class="members-group text" transform="translate(-80.640625, 1.5)"><g class="label" style="" transform="translate(0,-10.5)"><foreignObject width="134.453125" height="21"><div xmlns="http://www.w3.org/1999/xhtml" style="display: table-cell; white-space: nowrap; line-height: 1.5; max-width: 189px; text-align: center;"><span class="nodeLabel markdown-node-label" style=""><p>Object[] elementData</p></span></div></foreignObject></g></g><g class="methods-group text" transform="translate(-80.640625, 46.5)"><g class="label" style="" transform="translate(0,-10.5)"><foreignObject width="50.625" height="21"><div xmlns="http://www.w3.org/1999/xhtml" style="display: table-cell; white-space: nowrap; line-height: 1.5; max-width: 102px; text-align: center;"><span class="nodeLabel markdown-node-label" style=""><p>equals()</p></span></div></foreignObject></g></g><g class="divider" style=""><path d="M-92.640625 -22.5 C-43.77469510790388 -22.499736260793295, 5.091234784192238 -22.499472521586593, 92.640625 -22.499 M-92.640625 -22.5 C-50.10540115313119 -22.499770428881245, -7.57017730626238 -22.49954085776249, 92.640625 -22.499" stroke="#1a2e4a" stroke-width="1.3" fill="none" stroke-dasharray="0 0" style=""/></g><g class="divider" style=""><path d="M-92.640625 22.5 C-20.292273307041995 22.5003904785384, 52.05607838591601 22.500780957076802, 92.640625 22.501 M-92.640625 22.5 C-54.43328575493912 22.500206212659105, -16.22594650987824 22.500412425318213, 92.640625 22.501" stroke="#1a2e4a" stroke-width="1.3" fill="none" stroke-dasharray="0 0" style=""/></g></g><g class="node default" id="my-svg-classId-Class10-6" data-look="classic" transform="translate(437.51171875, 96.5)"><g class="basic label-container outer-path"><path d="M-44.08203125 -78 L44.08203125 -78 L44.08203125 78 L-44.08203125 78" stroke="none" stroke-width="0" fill="#e5eaf2" style=""/><path d="M-44.08203125 -78 C-24.33621373996422 -78, -4.590396229928437 -78, 44.08203125 -78 M-44.08203125 -78 C-14.559344911388472 -78, 14.963341427223057 -78, 44.08203125 -78 M44.08203125 -78 C44.08203125 -17.435296577637615, 44.08203125 43.12940684472477, 44.08203125 78 M44.08203125 -78 C44.08203125 -43.109089329109615, 44.08203125 -8.21817865821923, 44.08203125 78 M44.08203125 78 C17.623541805447744 78, -8.834947639104513 78, -44.08203125 78 M44.08203125 78 C18.36587578756238 78, -7.350279674875239 78, -44.08203125 78 M-44.08203125 78 C-44.08203125 28.79117971919731, -44.08203125 -20.41764056160538, -44.08203125 -78 M-44.08203125 78 C-44.08203125 22.682232473026048, -44.08203125 -32.635535053947905, -44.08203125 -78" stroke="#1a2e4a" stroke-width="1.3" fill="none" stroke-dasharray="0 0" style=""/></g><g class="annotation-group text" transform="translate(-29.9140625, -54)"><g class="label" style="" transform="translate(0,-10.5)"><foreignObject width="59.828125" height="21"><div xmlns="http://www.w3.org/1999/xhtml" style="display: table-cell; white-space: nowrap; line-height: 1.5; max-width: 111px; text-align: center;"><span class="nodeLabel markdown-node-label" style=""><p>«service»</p></span></div></foreignObject></g></g><g class="label-group text" transform="translate(-26.21875, -33)"><g class="label" style="font-weight: bolder" transform="translate(0,-10.5)"><foreignObject width="52.4375" height="21"><div xmlns="http://www.w3.org/1999/xhtml" style="display: table-cell; white-space: nowrap; line-height: 1.5; max-width: 101px; text-align: center;"><span class="nodeLabel markdown-node-label" style=""><p>Class10</p></span></div></foreignObject></g></g><g class="members-group text" transform="translate(-32.08203125, 12)"><g class="label" style="" transform="translate(0,-10.5)"><foreignObject width="30.4375" height="21"><div xmlns="http://www.w3.org/1999/xhtml" style="display: table-cell; white-space: nowrap; line-height: 1.5; max-width: 84px; text-align: center;"><span class="nodeLabel markdown-node-label" style=""><p>int id</p></span></div></foreignObject></g></g><g class="methods-group text" transform="translate(-32.08203125, 57)"><g class="label" style="" transform="translate(0,-10.5)"><foreignObject width="34.25" height="21"><div xmlns="http://www.w3.org/1999/xhtml" style="display: table-cell; white-space: nowrap; line-height: 1.5; max-width: 86px; text-align: center;"><span class="nodeLabel markdown-node-label" style=""><p>size()</p></span></div></foreignObject></g></g><g class="divider" style=""><path d="M-44.08203125 -12 C-13.345898862252529 -11.9996513757248, 17.390233525494942 -11.9993027514496, 44.08203125 -11.999 M-44.08203125 -12 C-24.657650583387692 -11.99977967915593, -5.2332699167753844 -11.999559358311862, 44.08203125 -11.999" stroke="#1a2e4a" stroke-width="1.3" fill="none" stroke-dasharray="0 0" style=""/></g><g class="divider" style=""><path d="M-44.08203125 33 C-17.11980657047048 33.00030581876464, 9.84241810905904 33.00061163752928, 44.08203125 33.001 M-44.08203125 33 C-21.68221529348923 33.000254069689184, 0.7176006630215426 33.00050813937837, 44.08203125 33.001" stroke="#1a2e4a" stroke-width="1.3" fill="none" stroke-dasharray="0 0" style=""/></g></g></g></g></g><defs><filter id="my-svg-drop-shadow" height="130%" width="130%"><feDropShadow dx="4" dy="4" stdDeviation="0" flood-opacity="0.06" flood-color="#000000"/></filter></defs><defs><filter id="my-svg-drop-shadow-small" height="150%" width="150%"><feDropShadow dx="2" dy="2" stdDeviation="0" flood-opacity="0.06" flood-color="#000000"/></filter></defs><linearGradient id="my-svg-gradient" gradientUnits="objectBoundingBox" x1="0%" y1="0%" x2="100%" y2="0%"><stop offset="0%" stop-color="#1a2e4a" stop-opacity="1"/><stop offset="100%" stop-color="hsl(48.2926829268, 60%, 81.9607843137%)" stop-opacity="1"/></linearGradient></svg>